  0
SECTION
  2
HEADER
  9
$ACADVER
  1
AC1024
  9
$ACADMAINTVER
 70
6
  9
$DWGCODEPAGE
  3
ANSI_1252
  9
$LASTSAVEDBY
  1
ezdxf
  9
$INSBASE
 10
0.0
 20
0.0
 30
0.0
  9
$EXTMIN
 10
1e+20
 20
1e+20
 30
1e+20
  9
$EXTMAX
 10
-1e+20
 20
-1e+20
 30
-1e+20
  9
$LIMMIN
 10
0.0
 20
0.0
  9
$LIMMAX
 10
420.0
 20
297.0
  9
$ORTHOMODE
 70
0
  9
$REGENMODE
 70
1
  9
$FILLMODE
 70
1
  9
$QTEXTMODE
 70
0
  9
$MIRRTEXT
 70
1
  9
$LTSCALE
 40
1.0
  9
$ATTMODE
 70
1
  9
$TEXTSIZE
 40
2.5
  9
$TRACEWID
 40
1.0
  9
$TEXTSTYLE
  7
Standard
  9
$CLAYER
  8
0
  9
$CELTYPE
  6
ByLayer
  9
$CECOLOR
 62
256
  9
$CELTSCALE
 40
1.0
  9
$DISPSILH
 70
0
  9
$DIMSCALE
 40
1.0
  9
$DIMASZ
 40
2.5
  9
$DIMEXO
 40
0.625
  9
$DIMDLI
 40
3.75
  9
$DIMRND
 40
0.0
  9
$DIMDLE
 40
0.0
  9
$DIMEXE
 40
1.25
  9
$DIMTP
 40
0.0
  9
$DIMTM
 40
0.0
  9
$DIMTXT
 40
2.5
  9
$DIMCEN
 40
2.5
  9
$DIMTSZ
 40
0.0
  9
$DIMTOL
 70
0
  9
$DIMLIM
 70
0
  9
$DIMTIH
 70
0
  9
$DIMTOH
 70
0
  9
$DIMSE1
 70
0
  9
$DIMSE2
 70
0
  9
$DIMTAD
 70
1
  9
$DIMZIN
 70
8
  9
$DIMBLK
  1

  9
$DIMASO
 70
1
  9
$DIMSHO
 70
1
  9
$DIMPOST
  1

  9
$DIMAPOST
  1

  9
$DIMALT
 70
0
  9
$DIMALTD
 70
3
  9
$DIMALTF
 40
0.03937007874
  9
$DIMLFAC
 40
1.0
  9
$DIMTOFL
 70
1
  9
$DIMTVP
 40
0.0
  9
$DIMTIX
 70
0
  9
$DIMSOXD
 70
0
  9
$DIMSAH
 70
0
  9
$DIMBLK1
  1

  9
$DIMBLK2
  1

  9
$DIMSTYLE
  2
ISO-25
  9
$DIMCLRD
 70
0
  9
$DIMCLRE
 70
0
  9
$DIMCLRT
 70
0
  9
$DIMTFAC
 40
1.0
  9
$DIMGAP
 40
0.625
  9
$DIMJUST
 70
0
  9
$DIMSD1
 70
0
  9
$DIMSD2
 70
0
  9
$DIMTOLJ
 70
0
  9
$DIMTZIN
 70
8
  9
$DIMALTZ
 70
0
  9
$DIMALTTZ
 70
0
  9
$DIMUPT
 70
0
  9
$DIMDEC
 70
2
  9
$DIMTDEC
 70
2
  9
$DIMALTU
 70
2
  9
$DIMALTTD
 70
3
  9
$DIMTXSTY
  7
Standard
  9
$DIMAUNIT
 70
0
  9
$DIMADEC
 70
0
  9
$DIMALTRND
 40
0.0
  9
$DIMAZIN
 70
0
  9
$DIMDSEP
 70
44
  9
$DIMATFIT
 70
3
  9
$DIMFRAC
 70
0
  9
$DIMLDRBLK
  1

  9
$DIMLUNIT
 70
2
  9
$DIMLWD
 70
-2
  9
$DIMLWE
 70
-2
  9
$DIMTMOVE
 70
0
  9
$DIMFXL
 40
1.0
  9
$DIMFXLON
 70
0
  9
$DIMJOGANG
 40
0.785398163397
  9
$DIMTFILL
 70
0
  9
$DIMTFILLCLR
 70
0
  9
$DIMARCSYM
 70
0
  9
$DIMLTYPE
  6

  9
$DIMLTEX1
  6

  9
$DIMLTEX2
  6

  9
$DIMTXTDIRECTION
 70
0
  9
$LUNITS
 70
2
  9
$LUPREC
 70
4
  9
$SKETCHINC
 40
1.0
  9
$FILLETRAD
 40
10.0
  9
$AUNITS
 70
0
  9
$AUPREC
 70
2
  9
$MENU
  1
.
  9
$ELEVATION
 40
0.0
  9
$PELEVATION
 40
0.0
  9
$THICKNESS
 40
0.0
  9
$LIMCHECK
 70
0
  9
$CHAMFERA
 40
0.0
  9
$CHAMFERB
 40
0.0
  9
$CHAMFERC
 40
0.0
  9
$CHAMFERD
 40
0.0
  9
$SKPOLY
 70
0
  9
$TDCREATE
 40
2461316.0442592595
  9
$TDUCREATE
 40
2458532.153996898
  9
$TDUPDATE
 40
2461316.0442592595
  9
$TDUUPDATE
 40
2458532.1544311
  9
$TDINDWG
 40
0.0
  9
$TDUSRTIMER
 40
0.0
  9
$USRTIMER
 70
1
  9
$ANGBASE
 50
0.0
  9
$ANGDIR
 70
0
  9
$PDMODE
 70
0
  9
$PDSIZE
 40
0.0
  9
$PLINEWID
 40
0.0
  9
$SPLFRAME
 70
0
  9
$SPLINETYPE
 70
6
  9
$SPLINESEGS
 70
8
  9
$HANDSEED
  5
40
  9
$SURFTAB1
 70
6
  9
$SURFTAB2
 70
6
  9
$SURFTYPE
 70
6
  9
$SURFU
 70
6
  9
$SURFV
 70
6
  9
$UCSBASE
  2

  9
$UCSNAME
  2

  9
$UCSORG
 10
0.0
 20
0.0
 30
0.0
  9
$UCSXDIR
 10
1.0
 20
0.0
 30
0.0
  9
$UCSYDIR
 10
0.0
 20
1.0
 30
0.0
  9
$UCSORTHOREF
  2

  9
$UCSORTHOVIEW
 70
0
  9
$UCSORGTOP
 10
0.0
 20
0.0
 30
0.0
  9
$UCSORGBOTTOM
 10
0.0
 20
0.0
 30
0.0
  9
$UCSORGLEFT
 10
0.0
 20
0.0
 30
0.0
  9
$UCSORGRIGHT
 10
0.0
 20
0.0
 30
0.0
  9
$UCSORGFRONT
 10
0.0
 20
0.0
 30
0.0
  9
$UCSORGBACK
 10
0.0
 20
0.0
 30
0.0
  9
$PUCSBASE
  2

  9
$PUCSNAME
  2

  9
$PUCSORG
 10
0.0
 20
0.0
 30
0.0
  9
$PUCSXDIR
 10
1.0
 20
0.0
 30
0.0
  9
$PUCSYDIR
 10
0.0
 20
1.0
 30
0.0
  9
$PUCSORTHOREF
  2

  9
$PUCSORTHOVIEW
 70
0
  9
$PUCSORGTOP
 10
0.0
 20
0.0
 30
0.0
  9
$PUCSORGBOTTOM
 10
0.0
 20
0.0
 30
0.0
  9
$PUCSORGLEFT
 10
0.0
 20
0.0
 30
0.0
  9
$PUCSORGRIGHT
 10
0.0
 20
0.0
 30
0.0
  9
$PUCSORGFRONT
 10
0.0
 20
0.0
 30
0.0
  9
$PUCSORGBACK
 10
0.0
 20
0.0
 30
0.0
  9
$USERI1
 70
0
  9
$USERI2
 70
0
  9
$USERI3
 70
0
  9
$USERI4
 70
0
  9
$USERI5
 70
0
  9
$USERR1
 40
0.0
  9
$USERR2
 40
0.0
  9
$USERR3
 40
0.0
  9
$USERR4
 40
0.0
  9
$USERR5
 40
0.0
  9
$WORLDVIEW
 70
1
  9
$SHADEDGE
 70
3
  9
$SHADEDIF
 70
70
  9
$TILEMODE
 70
1
  9
$MAXACTVP
 70
64
  9
$PINSBASE
 10
0.0
 20
0.0
 30
0.0
  9
$PLIMCHECK
 70
0
  9
$PEXTMIN
 10
1e+20
 20
1e+20
 30
1e+20
  9
$PEXTMAX
 10
-1e+20
 20
-1e+20
 30
-1e+20
  9
$PLIMMIN
 10
0.0
 20
0.0
  9
$PLIMMAX
 10
420.0
 20
297.0
  9
$UNITMODE
 70
0
  9
$VISRETAIN
 70
1
  9
$PLINEGEN
 70
0
  9
$PSLTSCALE
 70
1
  9
$TREEDEPTH
 70
3020
  9
$CMLSTYLE
  2
Standard
  9
$CMLJUST
 70
0
  9
$CMLSCALE
 40
20.0
  9
$PROXYGRAPHICS
 70
1
  9
$MEASUREMENT
 70
1
  9
$CELWEIGHT
370
-1
  9
$ENDCAPS
280
0
  9
$JOINSTYLE
280
0
  9
$LWDISPLAY
290
0
  9
$INSUNITS
 70
4
  9
$HYPERLINKBASE
  1

  9
$STYLESHEET
  1

  9
$XEDIT
290
1
  9
$CEPSNTYPE
380
0
  9
$PSTYLEMODE
290
1
  9
$FINGERPRINTGUID
  2
{64C0BD0D-EBCD-4E2B-90DD-CDDAEBEC1E20}
  9
$VERSIONGUID
  2
{066657EC-55BF-4EB2-8B72-9DEC1D787824}
  9
$EXTNAMES
290
1
  9
$PSVPSCALE
 40
0.0
  9
$OLESTARTUP
290
0
  9
$SORTENTS
280
127
  9
$INDEXCTL
280
0
  9
$HIDETEXT
280
1
  9
$XCLIPFRAME
280
1
  9
$HALOGAP
280
0
  9
$OBSCOLOR
 70
257
  9
$OBSLTYPE
280
0
  9
$INTERSECTIONDISPLAY
280
0
  9
$INTERSECTIONCOLOR
 70
257
  9
$DIMASSOC
280
2
  9
$PROJECTNAME
  1

  9
$CAMERADISPLAY
290
0
  9
$LENSLENGTH
 40
50.0
  9
$CAMERAHEIGHT
 40
0.0
  9
$STEPSPERSEC
 40
24.0
  9
$STEPSIZE
 40
100.0
  9
$3DDWFPREC
 40
2.0
  9
$PSOLWIDTH
 40
0.005
  9
$PSOLHEIGHT
 40
0.08
  9
$LOFTANG1
 40
1.570796326795
  9
$LOFTANG2
 40
1.570796326795
  9
$LOFTMAG1
 40
0.0
  9
$LOFTMAG2
 40
0.0
  9
$LOFTPARAM
 70
7
  9
$LOFTNORMALS
280
1
  9
$LATITUDE
 40
37.795
  9
$LONGITUDE
 40
-122.394
  9
$NORTHDIRECTION
 40
0.0
  9
$TIMEZONE
 70
-8000
  9
$LIGHTGLYPHDISPLAY
280
1
  9
$TILEMODELIGHTSYNCH
280
1
  9
$CMATERIAL
347
20
  9
$SOLIDHIST
280
0
  9
$SHOWHIST
280
1
  9
$DWFFRAME
280
2
  9
$DGNFRAME
280
2
  9
$REALWORLDSCALE
290
1
  9
$INTERFERECOLOR
 62
256
  9
$CSHADOW
280
0
  9
$SHADOWPLANELOCATION
 40
0.0
  0
ENDSEC
  0
SECTION
  2
CLASSES
  0
CLASS
  1
ACDBDICTIONARYWDFLT
  2
AcDbDictionaryWithDefault
  3
ObjectDBX Classes
 90
0
 91
0
280
0
281
0
  0
CLASS
  1
SUN
  2
AcDbSun
  3
SCENEOE
 90
1153
 91
0
280
0
281
0
  0
CLASS
  1
VISUALSTYLE
  2
AcDbVisualStyle
  3
ObjectDBX Classes
 90
4095
 91
0
280
0
281
0
  0
CLASS
  1
MATERIAL
  2
AcDbMaterial
  3
ObjectDBX Classes
 90
1153
 91
0
280
0
281
0
  0
CLASS
  1
SCALE
  2
AcDbScale
  3
ObjectDBX Classes
 90
1153
 91
0
280
0
281
0
  0
CLASS
  1
TABLESTYLE
  2
AcDbTableStyle
  3
ObjectDBX Classes
 90
4095
 91
0
280
0
281
0
  0
CLASS
  1
MLEADERSTYLE
  2
AcDbMLeaderStyle
  3
ACDB_MLEADERSTYLE_CLASS
 90
4095
 91
0
280
0
281
0
  0
CLASS
  1
DICTIONARYVAR
  2
AcDbDictionaryVar
  3
ObjectDBX Classes
 90
0
 91
0
280
0
281
0
  0
CLASS
  1
CELLSTYLEMAP
  2
AcDbCellStyleMap
  3
ObjectDBX Classes
 90
1152
 91
0
280
0
281
0
  0
CLASS
  1
MENTALRAYRENDERSETTINGS
  2
AcDbMentalRayRenderSettings
  3
SCENEOE
 90
1024
 91
0
280
0
281
0
  0
CLASS
  1
ACDBDETAILVIEWSTYLE
  2
AcDbDetailViewStyle
  3
ObjectDBX Classes
 90
1025
 91
0
280
0
281
0
  0
CLASS
  1
ACDBSECTIONVIEWSTYLE
  2
AcDbSectionViewStyle
  3
ObjectDBX Classes
 90
1025
 91
0
280
0
281
0
  0
CLASS
  1
RASTERVARIABLES
  2
AcDbRasterVariables
  3
ISM
 90
0
 91
0
280
0
281
0
  0
CLASS
  1
LAYOUT
  2
AcDbLayout
  3
ObjectDBX Classes
 90
0
 91
0
280
0
281
0
  0
CLASS
  1
ACDBPLACEHOLDER
  2
AcDbPlaceHolder
  3
ObjectDBX Classes
 90
0
 91
0
280
0
281
0
  0
ENDSEC
  0
SECTION
  2
TABLES
  0
TABLE
  2
VPORT
  5
8
330
0
100
AcDbSymbolTable
 70
1
  0
VPORT
  5
23
330
8
100
AcDbSymbolTableRecord
100
AcDbViewportTableRecord
  2
*Active
 70
0
 10
0.0
 20
0.0
 11
1.0
 21
1.0
 12
0.0
 22
0.0
 13
0.0
 23
0.0
 14
0.5
 24
0.5
 15
0.5
 25
0.5
 16
0.0
 26
0.0
 36
1.0
 17
0.0
 27
0.0
 37
0.0
 40
1000.0
 41
1.34
 42
50.0
 43
0.0
 44
0.0
 50
0.0
 51
0.0
 71
0
 72
1000
 73
1
 74
3
 75
0
 76
0
 77
0
 78
0
281
0
 65
0
146
0.0
  0
ENDTAB
  0
TABLE
  2
LTYPE
  5
2
330
0
100
AcDbSymbolTable
 70
3
  0
LTYPE
  5
24
330
2
100
AcDbSymbolTableRecord
100
AcDbLinetypeTableRecord
  2
ByBlock
 70
0
  3

 72
65
 73
0
 40
0.0
  0
LTYPE
  5
25
330
2
100
AcDbSymbolTableRecord
100
AcDbLinetypeTableRecord
  2
ByLayer
 70
0
  3

 72
65
 73
0
 40
0.0
  0
LTYPE
  5
26
330
2
100
AcDbSymbolTableRecord
100
AcDbLinetypeTableRecord
  2
Continuous
 70
0
  3

 72
65
 73
0
 40
0.0
  0
ENDTAB
  0
TABLE
  2
LAYER
  5
1
330
0
100
AcDbSymbolTable
 70
4
  0
LAYER
  5
27
330
1
100
AcDbSymbolTableRecord
100
AcDbLayerTableRecord
  2
0
 70
0
 62
7
  6
Continuous
370
-3
390
13
347
21
  0
LAYER
  5
28
330
1
100
AcDbSymbolTableRecord
100
AcDbLayerTableRecord
  2
Defpoints
 70
0
 62
7
  6
Continuous
290
0
370
-3
390
13
347
21
  0
LAYER
  5
2F
330
1
100
AcDbSymbolTableRecord
100
AcDbLayerTableRecord
  2
CUT
 70
0
 62
7
  6
Continuous
370
-3
390
13
347
21
  0
LAYER
  5
30
330
1
100
AcDbSymbolTableRecord
100
AcDbLayerTableRecord
  2
GUIA
 70
0
 62
1
  6
DASHED
370
-3
390
13
347
21
  0
ENDTAB
  0
TABLE
  2
STYLE
  5
5
330
0
100
AcDbSymbolTable
 70
1
  0
STYLE
  5
29
330
5
100
AcDbSymbolTableRecord
100
AcDbTextStyleTableRecord
  2
Standard
 70
0
 40
0.0
 41
1.0
 50
0.0
 71
0
 42
2.5
  3
txt
  4

  0
ENDTAB
  0
TABLE
  2
VIEW
  5
7
330
0
100
AcDbSymbolTable
 70
0
  0
ENDTAB
  0
TABLE
  2
UCS
  5
6
330
0
100
AcDbSymbolTable
 70
0
  0
ENDTAB
  0
TABLE
  2
APPID
  5
3
330
0
100
AcDbSymbolTable
 70
3
  0
APPID
  5
2A
330
3
100
AcDbSymbolTableRecord
100
AcDbRegAppTableRecord
  2
ACAD
 70
0
  0
APPID
  5
3D
330
3
100
AcDbSymbolTableRecord
100
AcDbRegAppTableRecord
  2
HATCHBACKGROUNDCOLOR
 70
0
  0
APPID
  5
3E
330
3
100
AcDbSymbolTableRecord
100
AcDbRegAppTableRecord
  2
EZDXF
 70
0
  0
ENDTAB
  0
TABLE
  2
DIMSTYLE
  5
4
330
0
100
AcDbSymbolTable
 70
1
100
AcDbDimStyleTable
  0
DIMSTYLE
105
2B
330
4
100
AcDbSymbolTableRecord
100
AcDbDimStyleTableRecord
  2
Standard
 70
0
 40
1.0
 41
2.5
 42
0.625
 43
3.75
 44
1.25
 45
0.0
 46
0.0
 47
0.0
 48
0.0
 49
2.5
140
2.5
141
2.5
142
0.0
143
0.03937007874
144
1.0
145
0.0
146
1.0
147
0.625
148
0.0
 69
0
 70
0
 71
0
 72
0
 73
0
 74
0
 75
0
 76
0
 77
1
 78
8
 79
3
170
0
171
3
172
1
173
0
174
0
175
0
176
0
177
0
178
0
179
2
271
2
272
2
273
2
274
3
275
0
276
0
277
2
278
44
279
0
280
0
281
0
282
0
283
0
284
8
285
0
286
0
288
0
289
3
290
0
371
-2
372
-2
  0
ENDTAB
  0
TABLE
  2
BLOCK_RECORD
  5
9
330
0
100
AcDbSymbolTable
 70
2
  0
BLOCK_RECORD
  5
17
330
9
100
AcDbSymbolTableRecord
100
AcDbBlockTableRecord
  2
*Model_Space
340
1A
 70
0
280
1
281
0
  0
BLOCK_RECORD
  5
1B
330
9
100
AcDbSymbolTableRecord
100
AcDbBlockTableRecord
  2
*Paper_Space
340
1E
 70
0
280
1
281
0
  0
ENDTAB
  0
ENDSEC
  0
SECTION
  2
BLOCKS
  0
BLOCK
  5
18
330
17
100
AcDbEntity
  8
0
100
AcDbBlockBegin
  2
*Model_Space
 70
0
 10
0.0
 20
0.0
 30
0.0
  3
*Model_Space
  1

  0
ENDBLK
  5
19
330
17
100
AcDbEntity
  8
0
100
AcDbBlockEnd
  0
BLOCK
  5
1C
330
1B
100
AcDbEntity
  8
0
100
AcDbBlockBegin
  2
*Paper_Space
 70
0
 10
0.0
 20
0.0
 30
0.0
  3
*Paper_Space
  1

  0
ENDBLK
  5
1D
330
1B
100
AcDbEntity
  8
0
100
AcDbBlockEnd
  0
ENDSEC
  0
SECTION
  2
ENTITIES
  0
LWPOLYLINE
  5
31
330
17
100
AcDbEntity
  8
CUT
100
AcDbPolyline
 90
433
 70
1
 10
343.2192
 20
352.9403
 10
343.2002
 20
352.8875
 10
343.1913
 20
352.8374
 10
343.1793
 20
352.7899
 10
343.166
 20
352.7483
 10
343.1556
 20
352.7097
 10
343.1457
 20
352.6698
 10
343.138
 20
352.6425
 10
343.1332
 20
352.6262
 10
343.1286
 20
352.6054
 10
343.1202
 20
352.5657
 10
343.1072
 20
352.5025
 10
343.0893
 20
352.4154
 10
343.0671
 20
352.3069
 10
343.0414
 20
352.182
 10
342.9849
 20
351.9086
 10
342.9569
 20
351.7743
 10
342.9309
 20
351.6502
 10
342.9078
 20
351.5411
 10
342.8882
 20
351.4495
 10
342.8719
 20
351.3751
 10
342.8586
 20
351.3155
 10
342.8374
 20
351.2233
 10
342.8175
 20
351.1374
 10
342.7948
 20
351.0367
 10
342.7701
 20
350.9241
 10
342.7461
 20
350.8139
 10
342.7248
 20
350.7165
 10
342.7059
 20
350.6318
 10
342.6884
 20
350.5535
 10
342.6713
 20
350.4746
 10
342.655
 20
350.3952
 10
342.6413
 20
350.3291
 10
342.632
 20
350.2892
 10
342.6247
 20
350.253
 10
342.6197
 20
350.2183
 10
342.6127
 20
350.1623
 10
342.6029
 20
350.0789
 10
342.5898
 20
349.9636
 10
342.5731
 20
349.8135
 10
342.5525
 20
349.6271
 10
342.5281
 20
349.4041
 10
342.4998
 20
349.1453
 10
342.4679
 20
348.8527
 10
342.4327
 20
348.529
 10
342.3944
 20
348.1777
 10
342.3537
 20
347.803
 10
342.3108
 20
347.4096
 10
342.2665
 20
347.0026
 10
342.1758
 20
346.1693
 10
342.0862
 20
345.347
 10
342.0433
 20
344.9533
 10
342.0024
 20
344.5779
 10
341.964
 20
344.2251
 10
341.9284
 20
343.8987
 10
341.8962
 20
343.6018
 10
341.8674
 20
343.3366
 10
341.8423
 20
343.1044
 10
341.8208
 20
342.9052
 10
341.803
 20
342.7381
 10
341.7885
 20
342.6007
 10
341.7769
 20
342.4893
 10
341.7679
 20
342.3995
 10
341.7608
 20
342.326
 10
341.7551
 20
342.2634
 10
341.7455
 20
342.15
 10
341.7353
 20
342.0238
 10
341.7225
 20
341.8656
 10
341.7068
 20
341.6737
 10
341.6892
 20
341.4582
 10
341.6714
 20
341.2338
 10
341.6545
 20
341.0131
 10
341.6392
 20
340.8018
 10
341.6254
 20
340.5992
 10
341.6124
 20
340.4006
 10
341.5998
 20
340.2002
 10
341.587
 20
339.993
 10
341.5737
 20
339.7768
 10
341.5599
 20
339.5519
 10
341.5457
 20
339.3199
 10
341.5315
 20
339.0834
 10
341.5175
 20
338.8448
 10
341.5039
 20
338.6059
 10
341.4907
 20
338.3674
 10
341.4779
 20
338.1295
 10
341.4655
 20
337.8915
 10
341.4534
 20
337.6525
 10
341.4413
 20
337.4112
 10
341.4293
 20
337.166
 10
341.417
 20
336.9157
 10
341.4043
 20
336.6589
 10
341.3911
 20
336.3948
 10
341.3771
 20
336.1233
 10
341.3624
 20
335.8449
 10
341.3469
 20
335.561
 10
341.3305
 20
335.2734
 10
341.3132
 20
334.9843
 10
341.295
 20
334.6957
 10
341.276
 20
334.4097
 10
341.2562
 20
334.1275
 10
341.2355
 20
333.8497
 10
341.2139
 20
333.5765
 10
341.1914
 20
333.3073
 10
341.168
 20
333.0414
 10
341.1436
 20
332.7781
 10
341.1181
 20
332.5166
 10
341.0917
 20
332.2567
 10
341.0641
 20
331.9983
 10
341.0355
 20
331.7416
 10
341.0058
 20
331.4871
 10
340.9749
 20
331.2351
 10
340.9429
 20
330.986
 10
340.9097
 20
330.74
 10
340.8752
 20
330.4971
 10
340.8395
 20
330.2574
 10
340.8023
 20
330.0206
 10
340.7637
 20
329.7866
 10
340.7236
 20
329.5556
 10
340.6821
 20
329.3275
 10
340.6391
 20
329.1027
 10
340.5946
 20
328.8813
 10
340.5486
 20
328.6635
 10
340.5009
 20
328.4496
 10
340.4515
 20
328.2395
 10
340.4001
 20
328.0331
 10
340.3466
 20
327.8301
 10
340.2906
 20
327.6303
 10
340.2321
 20
327.4332
 10
340.1708
 20
327.2386
 10
340.1067
 20
327.0461
 10
340.0397
 20
326.8554
 10
339.9698
 20
326.6663
 10
339.8967
 20
326.4784
 10
339.8204
 20
326.2916
 10
339.7408
 20
326.1058
 10
339.6578
 20
325.921
 10
339.5713
 20
325.7373
 10
339.4815
 20
325.5549
 10
339.3887
 20
325.3742
 10
339.2934
 20
325.1955
 10
339.1957
 20
325.0193
 10
339.0957
 20
324.8453
 10
338.9932
 20
324.6734
 10
338.8872
 20
324.5026
 10
338.7772
 20
324.3322
 10
338.6624
 20
324.1616
 10
338.5431
 20
323.991
 10
338.4201
 20
323.8213
 10
338.2955
 20
323.6545
 10
338.1709
 20
323.4925
 10
338.0479
 20
323.3367
 10
337.926
 20
323.1868
 10
337.803
 20
323.0403
 10
337.6746
 20
322.8926
 10
337.5356
 20
322.7385
 10
337.3811
 20
322.5728
 10
337.2075
 20
322.3919
 10
337.0136
 20
322.1948
 10
336.8004
 20
321.9829
 10
336.5711
 20
321.7599
 10
336.3296
 20
321.5302
 10
336.0808
 20
321.2994
 10
335.8291
 20
321.0723
 10
335.5783
 20
320.8532
 10
335.331
 20
320.6448
 10
335.0881
 20
320.4478
 10
334.8493
 20
320.262
 10
334.6134
 20
320.0859
 10
334.3788
 20
319.9175
 10
334.1433
 20
319.7548
 10
333.9053
 20
319.5961
 10
333.6634
 20
319.4404
 10
333.4169
 20
319.2874
 10
333.1654
 20
319.1374
 10
332.9093
 20
318.9912
 10
332.6491
 20
318.8499
 10
332.3856
 20
318.7144
 10
332.12
 20
318.5855
 10
331.8535
 20
318.4638
 10
331.5874
 20
318.3494
 10
331.3225
 20
318.2421
 10
331.0596
 20
318.1418
 10
330.7988
 20
318.048
 10
330.5394
 20
317.9605
 10
330.28
 20
317.8791
 10
330.0183
 20
317.8038
 10
329.7517
 20
317.7346
 10
329.4778
 20
317.6719
 10
329.1951
 20
317.6158
 10
328.9035
 20
317.5666
 10
328.6049
 20
317.5244
 10
328.3033
 20
317.4893
 10
328.0048
 20
317.4612
 10
327.716
 20
317.4398
 10
327.4434
 20
317.4251
 10
327.1916
 20
317.4167
 10
326.9632
 20
317.4143
 10
326.7568
 20
317.4176
 10
326.5676
 20
317.4263
 10
326.389
 20
317.4402
 10
326.2138
 20
317.4592
 10
326.037
 20
317.4831
 10
325.8564
 20
317.5119
 10
325.6728
 20
317.5458
 10
325.4887
 20
317.5848
 10
325.3066
 20
317.6291
 10
325.1286
 20
317.6787
 10
324.9549
 20
317.7337
 10
324.785
 20
317.794
 10
324.6177
 20
317.8598
 10
324.4522
 20
317.9308
 10
324.2883
 20
318.0071
 10
324.1263
 20
318.0886
 10
323.9665
 20
318.1753
 10
323.8098
 20
318.2672
 10
323.6562
 20
318.3642
 10
323.5058
 20
318.4662
 10
323.3585
 20
318.5734
 10
323.2141
 20
318.6855
 10
323.0725
 20
318.8024
 10
322.9337
 20
318.924
 10
322.7981
 20
319.0501
 10
322.6659
 20
319.1803
 10
322.5375
 20
319.3144
 10
322.4131
 20
319.4519
 10
322.293
 20
319.5926
 10
322.1774
 20
319.7362
 10
322.0666
 20
319.8825
 10
321.9607
 20
320.0316
 10
321.8596
 20
320.1836
 10
321.7636
 20
320.3387
 10
321.6725
 20
320.4969
 10
321.5865
 20
320.6581
 10
321.5055
 20
320.8217
 10
321.4296
 20
320.9873
 10
321.3587
 20
321.1545
 10
321.293
 20
321.3232
 10
321.2324
 20
321.4941
 10
321.1771
 20
321.6683
 10
321.127
 20
321.8465
 10
321.0821
 20
322.0289
 10
321.0423
 20
322.2143
 10
321.0076
 20
322.4002
 10
320.9776
 20
322.584
 10
320.9523
 20
322.7641
 10
320.9317
 20
322.9414
 10
320.9158
 20
323.1195
 10
320.9049
 20
323.3049
 10
320.8994
 20
323.5043
 10
320.8999
 20
323.7235
 10
320.9072
 20
323.9655
 10
320.9219
 20
324.2296
 10
320.945
 20
324.5121
 10
320.9771
 20
324.8074
 10
321.0188
 20
325.1092
 10
321.0703
 20
325.4111
 10
321.1315
 20
325.7081
 10
321.2019
 20
325.9971
 10
321.2803
 20
326.2771
 10
321.3658
 20
326.5487
 10
321.4574
 20
326.8137
 10
321.5544
 20
327.0744
 10
321.6568
 20
327.3332
 10
321.765
 20
327.5923
 10
321.8807
 20
327.8529
 10
322.0056
 20
328.1157
 10
322.1416
 20
328.3808
 10
322.2903
 20
328.6476
 10
322.4522
 20
328.9153
 10
322.6266
 20
329.1826
 10
322.8112
 20
329.4482
 10
323.0019
 20
329.7104
 10
323.1939
 20
329.968
 10
323.3825
 20
330.2196
 10
323.5638
 20
330.4646
 10
323.7359
 20
330.7029
 10
323.8997
 20
330.9353
 10
324.0595
 20
331.1635
 10
324.2236
 20
331.3902
 10
324.4022
 20
331.6185
 10
324.606
 20
331.8517
 10
324.8442
 20
332.0925
 10
324.9781
 20
332.2162
 10
325.1225
 20
332.3423
 10
325.2773
 20
332.4708
 10
325.4418
 20
332.6014
 10
325.7957
 20
332.8675
 10
326.1696
 20
333.1363
 10
326.5422
 20
333.4013
 10
326.7203
 20
333.53
 10
326.8886
 20
333.6549
 10
327.0441
 20
333.7752
 10
327.1838
 20
333.89
 10
327.3052
 20
333.9986
 10
327.406
 20
334.1003
 10
327.4845
 20
334.1948
 10
327.5398
 20
334.2819
 10
327.5714
 20
334.3615
 10
327.5799
 20
334.4339
 10
327.5667
 20
334.4997
 10
327.5342
 20
334.5598
 10
327.4858
 20
334.6154
 10
327.4253
 20
334.6679
 10
327.2844
 20
334.7689
 10
327.1425
 20
334.8736
 10
327.0206
 20
334.989
 10
326.9248
 20
335.1171
 10
326.849
 20
335.256
 10
326.7822
 20
335.4015
 10
326.7154
 20
335.5501
 10
326.6456
 20
335.7002
 10
326.5751
 20
335.8518
 10
326.5083
 20
336.0061
 10
326.4491
 20
336.1646
 10
326.3988
 20
336.3286
 10
326.3563
 20
336.4989
 10
326.3198
 20
336.6752
 10
326.2873
 20
336.8563
 10
326.2577
 20
337.0398
 10
326.231
 20
337.2226
 10
326.2077
 20
337.4028
 10
326.1884
 20
337.5802
 10
326.1736
 20
337.7579
 10
326.1635
 20
337.9418
 10
326.1581
 20
338.139
 10
326.157
 20
338.3563
 10
326.1602
 20
338.5979
 10
326.1675
 20
338.8645
 10
326.1791
 20
339.1533
 10
326.195
 20
339.459
 10
326.2156
 20
339.775
 10
326.241
 20
340.0942
 10
326.2714
 20
340.4102
 10
326.307
 20
340.7187
 10
326.348
 20
341.0173
 10
326.3943
 20
341.3062
 10
326.4459
 20
341.5868
 10
326.5028
 20
341.8616
 10
326.5648
 20
342.1334
 10
326.632
 20
342.4048
 10
326.7042
 20
342.6775
 10
326.7816
 20
342.952
 10
326.864
 20
343.2281
 10
326.9515
 20
343.505
 10
327.0442
 20
343.7815
 10
327.1421
 20
344.0563
 10
327.2452
 20
344.3282
 10
327.3535
 20
344.5968
 10
327.4669
 20
344.8617
 10
327.5854
 20
345.123
 10
327.709
 20
345.3813
 10
327.8375
 20
345.6368
 10
327.9709
 20
345.8901
 10
328.1091
 20
346.1416
 10
328.2523
 20
346.3914
 10
328.4005
 20
346.6395
 10
328.5535
 20
346.8858
 10
328.7115
 20
347.1302
 10
328.8745
 20
347.3724
 10
329.0423
 20
347.6121
 10
329.2148
 20
347.8492
 10
329.392
 20
348.0835
 10
329.5734
 20
348.315
 10
329.759
 20
348.5434
 10
329.9484
 20
348.7688
 10
330.1414
 20
348.9909
 10
330.3379
 20
349.2097
 10
330.5377
 20
349.4249
 10
330.7408
 20
349.6362
 10
330.947
 20
349.8434
 10
331.1564
 20
350.0463
 10
331.369
 20
350.2444
 10
331.5845
 20
350.4375
 10
331.8028
 20
350.6256
 10
332.0238
 20
350.8083
 10
332.2471
 20
350.9857
 10
332.4725
 20
351.1577
 10
332.6998
 20
351.3243
 10
332.929
 20
351.4854
 10
333.1603
 20
351.6411
 10
333.3939
 20
351.7913
 10
333.6305
 20
351.9358
 10
333.8705
 20
352.0747
 10
334.1146
 20
352.2078
 10
334.3629
 20
352.335
 10
334.6153
 20
352.4561
 10
334.8711
 20
352.5712
 10
335.1292
 20
352.6802
 10
335.388
 20
352.7831
 10
335.646
 20
352.8798
 10
335.9024
 20
352.9704
 10
336.1567
 20
353.0548
 10
336.4097
 20
353.1331
 10
336.6637
 20
353.2051
 10
336.9217
 20
353.2708
 10
337.1869
 20
353.3301
 10
337.4622
 20
353.383
 10
337.7489
 20
353.4293
 10
338.046
 20
353.4692
 10
338.3498
 20
353.5027
 10
338.6539
 20
353.5299
 10
338.95
 20
353.551
 10
339.2299
 20
353.5665
 10
339.4867
 20
353.5767
 10
339.7163
 20
353.5821
 10
339.9188
 20
353.5834
 10
340.0994
 20
353.5814
 10
340.2662
 20
353.5768
 10
340.4282
 20
353.5703
 10
340.5921
 20
353.5624
 10
340.7598
 20
353.5531
 10
340.9294
 20
353.5423
 10
341.0972
 20
353.5297
 10
341.2601
 20
353.5149
 10
341.4184
 20
353.4979
 10
341.5749
 20
353.4788
 10
341.7325
 20
353.4577
 10
341.8918
 20
353.4345
 10
342.0485
 20
353.409
 10
342.1961
 20
353.3807
 10
342.3305
 20
353.3495
 10
342.4551
 20
353.3153
 10
342.5827
 20
353.2786
 10
342.7274
 20
353.2401
 10
342.892
 20
353.1997
 10
343.0576
 20
353.1563
 10
343.1293
 20
353.1329
 10
343.1874
 20
353.1081
 10
343.2284
 20
353.0819
 10
343.2509
 20
353.0544
 10
343.256
 20
353.0259
 10
343.2484
 20
352.9969
 10
343.2192
 20
352.9403
  0
LWPOLYLINE
  5
32
330
17
100
AcDbEntity
  8
CUT
100
AcDbPolyline
 90
191
 70
1
 10
339.6245
 20
350.7125
 10
339.5584
 20
350.7495
 10
339.4144
 20
350.8057
 10
339.2657
 20
350.8546
 10
339.1212
 20
350.9098
 10
338.9833
 20
350.9748
 10
338.8493
 20
351.0456
 10
338.7145
 20
351.115
 10
338.5749
 20
351.1768
 10
338.4295
 20
351.2293
 10
338.2795
 20
351.2738
 10
338.1271
 20
351.3137
 10
337.974
 20
351.3515
 10
337.8205
 20
351.3881
 10
337.6659
 20
351.4228
 10
337.5092
 20
351.4545
 10
337.3499
 20
351.4819
 10
337.1884
 20
351.5049
 10
337.0259
 20
351.5238
 10
336.8635
 20
351.5395
 10
336.7013
 20
351.5526
 10
336.5381
 20
351.5629
 10
336.3715
 20
351.5699
 10
336.1993
 20
351.5726
 10
336.0196
 20
351.5699
 10
335.8327
 20
351.5606
 10
335.6404
 20
351.5438
 10
335.4456
 20
351.5189
 10
335.2517
 20
351.4851
 10
335.0611
 20
351.4424
 10
334.8752
 20
351.3905
 10
334.694
 20
351.3297
 10
334.5169
 20
351.2601
 10
334.3427
 20
351.182
 10
334.1706
 20
351.0957
 10
334.0004
 20
351.0015
 10
333.8323
 20
350.8995
 10
333.6667
 20
350.7898
 10
333.5042
 20
350.6726
 10
333.3452
 20
350.5481
 10
333.1899
 20
350.4165
 10
333.0382
 20
350.2781
 10
332.89
 20
350.1333
 10
332.7449
 20
349.9822
 10
332.6029
 20
349.825
 10
332.4637
 20
349.662
 10
332.3274
 20
349.4931
 10
332.1938
 20
349.3187
 10
332.0632
 20
349.1386
 10
331.9353
 20
348.9533
 10
331.8104
 20
348.763
 10
331.6884
 20
348.5681
 10
331.5694
 20
348.3689
 10
331.4533
 20
348.1659
 10
331.3402
 20
347.9594
 10
331.2303
 20
347.7497
 10
331.1236
 20
347.537
 10
331.0203
 20
347.3214
 10
330.9205
 20
347.1032
 10
330.8242
 20
346.8825
 10
330.7315
 20
346.6595
 10
330.6425
 20
346.4344
 10
330.5571
 20
346.2075
 10
330.4752
 20
345.979
 10
330.3969
 20
345.7491
 10
330.322
 20
345.5176
 10
330.2505
 20
345.2845
 10
330.1824
 20
345.0492
 10
330.1177
 20
344.8113
 10
330.0562
 20
344.5703
 10
329.9981
 20
344.3262
 10
329.9432
 20
344.0792
 10
329.8917
 20
343.8298
 10
329.8434
 20
343.5793
 10
329.7984
 20
343.3288
 10
329.7565
 20
343.0794
 10
329.7179
 20
342.8316
 10
329.6823
 20
342.5849
 10
329.6499
 20
342.338
 10
329.6205
 20
342.0883
 10
329.5941
 20
341.833
 10
329.5706
 20
341.57
 10
329.5501
 20
341.2979
 10
329.5324
 20
341.0174
 10
329.5176
 20
340.7319
 10
329.5056
 20
340.4466
 10
329.4964
 20
340.1684
 10
329.4902
 20
339.9039
 10
329.4869
 20
339.6588
 10
329.4869
 20
339.4363
 10
329.4904
 20
339.2362
 10
329.4977
 20
339.0545
 10
329.5092
 20
338.8853
 10
329.5253
 20
338.7224
 10
329.5464
 20
338.5611
 10
329.5728
 20
338.3998
 10
329.605
 20
338.2398
 10
329.643
 20
338.0839
 10
329.6873
 20
337.9348
 10
329.738
 20
337.7943
 10
329.7954
 20
337.6625
 10
329.8598
 20
337.5391
 10
329.9315
 20
337.4238
 10
330.0109
 20
337.3168
 10
330.0985
 20
337.2189
 10
330.1942
 20
337.1315
 10
330.2977
 20
337.0555
 10
330.408
 20
336.9915
 10
330.5241
 20
336.9396
 10
330.6454
 20
336.8998
 10
330.772
 20
336.8717
 10
330.9048
 20
336.8548
 10
331.0445
 20
336.8489
 10
331.1912
 20
336.8532
 10
331.3436
 20
336.8673
 10
331.4998
 20
336.8908
 10
331.6574
 20
336.9232
 10
331.8148
 20
336.9642
 10
331.9714
 20
337.0133
 10
332.1273
 20
337.0705
 10
332.2831
 20
337.1353
 10
332.4395
 20
337.2076
 10
332.5966
 20
337.2868
 10
332.7542
 20
337.3725
 10
332.912
 20
337.4642
 10
333.0696
 20
337.5617
 10
333.2268
 20
337.6648
 10
333.3839
 20
337.7736
 10
333.5412
 20
337.8884
 10
333.6989
 20
338.0092
 10
333.8573
 20
338.1358
 10
334.0161
 20
338.2675
 10
334.1745
 20
338.4034
 10
334.3318
 20
338.5424
 10
334.4875
 20
338.6837
 10
334.6416
 20
338.8273
 10
334.7947
 20
338.9738
 10
334.9483
 20
339.1249
 10
335.1043
 20
339.2829
 10
335.2643
 20
339.4497
 10
335.4297
 20
339.6271
 10
335.6007
 20
339.8154
 10
335.7764
 20
340.0142
 10
335.9551
 20
340.2216
 10
336.1344
 20
340.4354
 10
336.312
 20
340.653
 10
336.4854
 20
340.8723
 10
336.653
 20
341.0916
 10
336.8142
 20
341.3103
 10
336.9689
 20
341.5286
 10
337.1178
 20
341.7474
 10
337.2618
 20
341.9676
 10
337.4019
 20
342.1903
 10
337.5388
 20
342.4162
 10
337.6725
 20
342.6452
 10
337.8028
 20
342.8767
 10
337.929
 20
343.1098
 10
338.0503
 20
343.3435
 10
338.1663
 20
343.5771
 10
338.2765
 20
343.8104
 10
338.3815
 20
344.0444
 10
338.482
 20
344.2804
 10
338.5792
 20
344.5204
 10
338.6741
 20
344.7658
 10
338.7673
 20
345.0176
 10
338.8587
 20
345.2754
 10
338.9469
 20
345.537
 10
339.0298
 20
345.7987
 10
339.1049
 20
346.0564
 10
339.1698
 20
346.3062
 10
339.2233
 20
346.546
 10
339.2658
 20
346.7765
 10
339.2999
 20
347.002
 10
339.3306
 20
347.2306
 10
339.3638
 20
347.4722
 10
339.4052
 20
347.7363
 10
339.4592
 20
348.03
 10
339.5269
 20
348.3556
 10
339.6057
 20
348.7086
 10
339.6879
 20
349.077
 10
339.7631
 20
349.4436
 10
339.8195
 20
349.7891
 10
339.8371
 20
349.9481
 10
339.846
 20
350.095
 10
339.8452
 20
350.2282
 10
339.834
 20
350.3466
 10
339.812
 20
350.4493
 10
339.7793
 20
350.5362
 10
339.7365
 20
350.6081
 10
339.6844
 20
350.6662
 10
339.6245
 20
350.7125
  0
LWPOLYLINE
  5
33
330
17
100
AcDbEntity
  8
CUT
100
AcDbPolyline
 90
262
 70
1
 10
338.7317
 20
342.3153
 10
338.6588
 20
342.2309
 10
338.5723
 20
342.1183
 10
338.4729
 20
341.9795
 10
338.3616
 20
341.817
 10
338.2399
 20
341.6339
 10
338.1091
 20
341.4335
 10
337.971
 20
341.2196
 10
337.6796
 20
340.7661
 10
337.3794
 20
340.3035
 10
337.0827
 20
339.8587
 10
336.9388
 20
339.6495
 10
336.7991
 20
339.4514
 10
336.6641
 20
339.2653
 10
336.534
 20
339.0918
 10
336.409
 20
338.9305
 10
336.2888
 20
338.7812
 10
336.1733
 20
338.6427
 10
336.0619
 20
338.5141
 10
335.8492
 20
338.2807
 10
335.6455
 20
338.0683
 10
335.4447
 20
337.8642
 10
335.2411
 20
337.6577
 10
335.0302
 20
337.442
 10
334.8086
 20
337.2147
 10
334.5747
 20
336.9773
 10
334.3283
 20
336.734
 10
334.0703
 20
336.4905
 10
333.8033
 20
336.2528
 10
333.5307
 20
336.026
 10
333.2574
 20
335.8138
 10
332.9887
 20
335.6174
 10
332.7296
 20
335.4363
 10
332.4839
 20
335.2691
 10
332.2531
 20
335.1135
 10
332.0353
 20
334.9675
 10
331.8243
 20
334.8295
 10
331.6097
 20
334.699
 10
331.3785
 20
334.5764
 10
331.1189
 20
334.4629
 10
330.8236
 20
334.3598
 10
330.4931
 20
334.269
 10
330.139
 20
334.1919
 10
329.7855
 20
334.1297
 10
329.6186
 20
334.1043
 10
329.4637
 20
334.0828
 10
329.3244
 20
334.065
 10
329.2036
 20
334.0509
 10
329.1035
 20
334.0402
 10
329.025
 20
334.0327
 10
328.9674
 20
334.028
 10
328.9285
 20
334.0256
 10
328.8883
 20
334.0255
 10
328.8601
 20
334.028
 10
328.8173
 20
334.0299
 10
328.7657
 20
334.031
 10
328.7159
 20
334.0334
 10
328.6665
 20
334.0382
 10
328.6122
 20
334.0431
 10
328.5515
 20
334.044
 10
328.4889
 20
334.045
 10
328.4305
 20
334.0561
 10
328.3735
 20
334.0737
 10
328.3405
 20
334.077
 10
328.3006
 20
334.0705
 10
328.2514
 20
334.05
 10
328.1911
 20
334.0124
 10
328.1188
 20
333.956
 10
328.0342
 20
333.8802
 10
327.9378
 20
333.7854
 10
327.8306
 20
333.6729
 10
327.714
 20
333.5448
 10
327.5899
 20
333.4037
 10
327.3271
 20
333.0941
 10
327.0592
 20
332.7692
 10
326.8017
 20
332.452
 10
326.5652
 20
332.1588
 10
326.4565
 20
332.0235
 10
326.3542
 20
331.896
 10
326.1674
 20
331.6619
 10
326.0
 20
331.4492
 10
325.8451
 20
331.2475
 10
325.6957
 20
331.046
 10
325.5461
 20
330.8361
 10
325.3938
 20
330.6132
 10
325.2388
 20
330.377
 10
325.0831
 20
330.1298
 10
324.93
 20
329.8761
 10
324.7827
 20
329.6205
 10
324.644
 20
329.3672
 10
324.5154
 20
329.1187
 10
324.397
 20
328.8758
 10
324.2881
 20
328.6377
 10
324.1875
 20
328.403
 10
324.094
 20
328.1695
 10
324.0069
 20
327.9352
 10
323.9262
 20
327.6979
 10
323.8524
 20
327.4564
 10
323.7862
 20
327.2099
 10
323.7286
 20
326.9589
 10
323.6804
 20
326.705
 10
323.6418
 20
326.4514
 10
323.6129
 20
326.2022
 10
323.5931
 20
325.9618
 10
323.5819
 20
325.7336
 10
323.5786
 20
325.5195
 10
323.5824
 20
325.319
 10
323.5927
 20
325.1291
 10
323.6088
 20
324.9453
 10
323.6304
 20
324.7636
 10
323.6574
 20
324.581
 10
323.6896
 20
324.3969
 10
323.7273
 20
324.2123
 10
323.7706
 20
324.0288
 10
323.8197
 20
323.8482
 10
323.8747
 20
323.6712
 10
323.9357
 20
323.4977
 10
324.0024
 20
323.327
 10
324.075
 20
323.1587
 10
324.1531
 20
322.9923
 10
324.2369
 20
322.8282
 10
324.3263
 20
322.6665
 10
324.4211
 20
322.5078
 10
324.5215
 20
322.3522
 10
324.6273
 20
322.1997
 10
324.7386
 20
322.0503
 10
324.8551
 20
321.9039
 10
324.9769
 20
321.7603
 10
325.1035
 20
321.6198
 10
325.2349
 20
321.4825
 10
325.3705
 20
321.3488
 10
325.5102
 20
321.219
 10
325.6534
 20
321.0935
 10
325.7999
 20
320.9725
 10
325.9493
 20
320.8563
 10
326.1016
 20
320.7451
 10
326.2567
 20
320.6391
 10
326.4147
 20
320.5383
 10
326.5759
 20
320.4428
 10
326.7401
 20
320.3525
 10
326.9071
 20
320.2674
 10
327.0766
 20
320.1877
 10
327.2481
 20
320.1132
 10
327.4214
 20
320.0441
 10
327.5968
 20
319.9803
 10
327.7749
 20
319.922
 10
327.9564
 20
319.8691
 10
328.1417
 20
319.8217
 10
328.33
 20
319.7796
 10
328.52
 20
319.7428
 10
328.7095
 20
319.7112
 10
328.8971
 20
319.6846
 10
329.0829
 20
319.6629
 10
329.2695
 20
319.6463
 10
329.4612
 20
319.6348
 10
329.6628
 20
319.6287
 10
329.8781
 20
319.6283
 10
330.1084
 20
319.6339
 10
330.3517
 20
319.6458
 10
330.6039
 20
319.6645
 10
330.8594
 20
319.6903
 10
331.1131
 20
319.7235
 10
331.3609
 20
319.7642
 10
331.6009
 20
319.8127
 10
331.8332
 20
319.8689
 10
332.0592
 20
319.9328
 10
332.281
 20
320.0043
 10
332.5002
 20
320.0834
 10
332.7179
 20
320.1702
 10
332.934
 20
320.2648
 10
333.148
 20
320.3672
 10
333.3589
 20
320.4776
 10
333.5657
 20
320.5959
 10
333.7675
 20
320.7218
 10
333.9639
 20
320.8549
 10
334.1547
 20
320.9948
 10
334.3401
 20
321.1413
 10
334.5203
 20
321.2942
 10
334.696
 20
321.4536
 10
334.8678
 20
321.62
 10
335.0362
 20
321.7939
 10
335.2015
 20
321.9757
 10
335.3638
 20
322.1652
 10
335.5224
 20
322.3616
 10
335.676
 20
322.5637
 10
335.8231
 20
322.7697
 10
335.9622
 20
322.9777
 10
336.092
 20
323.1867
 10
336.212
 20
323.3961
 10
336.3224
 20
323.607
 10
336.4242
 20
323.8211
 10
336.5193
 20
324.0408
 10
336.6091
 20
324.2685
 10
336.6953
 20
324.506
 10
336.7791
 20
324.7541
 10
336.8607
 20
325.0125
 10
336.9404
 20
325.2802
 10
337.0179
 20
325.5558
 10
337.0928
 20
325.8377
 10
337.1648
 20
326.1249
 10
337.2338
 20
326.4168
 10
337.2997
 20
326.7136
 10
337.3628
 20
327.0159
 10
337.4234
 20
327.3244
 10
337.4818
 20
327.6397
 10
337.5383
 20
327.9622
 10
337.5932
 20
328.2915
 10
337.6465
 20
328.6265
 10
337.6983
 20
328.9657
 10
337.7485
 20
329.3073
 10
337.7969
 20
329.6495
 10
337.8436
 20
329.9913
 10
337.8884
 20
330.3322
 10
337.9314
 20
330.6732
 10
337.9727
 20
331.0163
 10
338.0127
 20
331.3645
 10
338.0515
 20
331.7216
 10
338.0895
 20
332.0908
 10
338.1269
 20
332.4748
 10
338.1639
 20
332.875
 10
338.2004
 20
333.2908
 10
338.2364
 20
333.7191
 10
338.2715
 20
334.1544
 10
338.3053
 20
334.589
 10
338.3371
 20
335.0146
 10
338.3666
 20
335.4227
 10
338.3933
 20
335.8055
 10
338.417
 20
336.1573
 10
338.4376
 20
336.4751
 10
338.4555
 20
336.7594
 10
338.4712
 20
337.0151
 10
338.4857
 20
337.25
 10
338.4997
 20
337.473
 10
338.514
 20
337.6928
 10
338.529
 20
337.9154
 10
338.5446
 20
338.1432
 10
338.5604
 20
338.3751
 10
338.5757
 20
338.6077
 10
338.5902
 20
338.8373
 10
338.6038
 20
339.0613
 10
338.6171
 20
339.2797
 10
338.6311
 20
339.4945
 10
338.647
 20
339.7087
 10
338.6651
 20
339.9243
 10
338.6847
 20
340.1409
 10
338.704
 20
340.355
 10
338.7204
 20
340.561
 10
338.732
 20
340.7547
 10
338.739
 20
340.9355
 10
338.7444
 20
341.1093
 10
338.7538
 20
341.2876
 10
338.7729
 20
341.4821
 10
338.8038
 20
341.6973
 10
338.8425
 20
341.9247
 10
338.8769
 20
342.1396
 10
338.8874
 20
342.2316
 10
338.8904
 20
342.3073
 10
338.8838
 20
342.3623
 10
338.8658
 20
342.3928
 10
338.835
 20
342.3962
 10
338.7904
 20
342.3706
 10
338.7317
 20
342.3153
  0
LWPOLYLINE
  5
34
330
17
100
AcDbEntity
  8
CUT
100
AcDbPolyline
 90
141
 70
1
 10
264.4869
 20
339.3376
 10
264.4704
 20
339.2309
 10
264.4493
 20
339.1255
 10
264.4237
 20
339.0219
 10
264.3936
 20
338.9203
 10
264.3591
 20
338.8209
 10
264.3203
 20
338.7236
 10
264.2773
 20
338.6286
 10
264.2302
 20
338.5357
 10
264.179
 20
338.4452
 10
264.1239
 20
338.3572
 10
264.065
 20
338.2718
 10
264.0025
 20
338.1892
 10
263.9363
 20
338.1096
 10
263.8667
 20
338.0332
 10
263.7937
 20
337.9601
 10
263.7174
 20
337.8904
 10
263.6379
 20
337.8241
 10
263.5554
 20
337.7614
 10
263.4701
 20
337.7024
 10
263.3821
 20
337.6472
 10
263.2917
 20
337.5959
 10
263.1989
 20
337.5486
 10
263.1039
 20
337.5055
 10
263.0067
 20
337.4666
 10
262.9073
 20
337.432
 10
262.8058
 20
337.4018
 10
262.7023
 20
337.376
 10
262.597
 20
337.3547
 10
262.4903
 20
337.338
 10
262.3826
 20
337.326
 10
262.2744
 20
337.3188
 10
262.1663
 20
337.3163
 10
262.0587
 20
337.3187
 10
261.952
 20
337.3258
 10
261.8462
 20
337.3377
 10
261.7416
 20
337.3543
 10
261.6382
 20
337.3756
 10
261.5362
 20
337.4014
 10
261.4358
 20
337.4317
 10
261.337
 20
337.4664
 10
261.24
 20
337.5054
 10
261.145
 20
337.5486
 10
261.0522
 20
337.596
 10
260.9617
 20
337.6473
 10
260.8737
 20
337.7024
 10
260.7882
 20
337.7614
 10
260.7055
 20
337.824
 10
260.6256
 20
337.8901
 10
260.5487
 20
337.9597
 10
260.4749
 20
338.0326
 10
260.4044
 20
338.1088
 10
260.3372
 20
338.1881
 10
260.2736
 20
338.2704
 10
260.2136
 20
338.3556
 10
260.1574
 20
338.4434
 10
260.1051
 20
338.5337
 10
260.0568
 20
338.6263
 10
260.0127
 20
338.7211
 10
259.9728
 20
338.8182
 10
259.9372
 20
338.9174
 10
259.9061
 20
339.0189
 10
259.8795
 20
339.1223
 10
259.8575
 20
339.2276
 10
259.8402
 20
339.3343
 10
259.8278
 20
339.442
 10
259.8203
 20
339.5501
 10
259.8177
 20
339.6582
 10
259.8201
 20
339.7658
 10
259.8275
 20
339.8726
 10
259.8399
 20
339.9784
 10
259.8571
 20
340.0829
 10
259.879
 20
340.1862
 10
259.9057
 20
340.2881
 10
259.9369
 20
340.3885
 10
259.9726
 20
340.4872
 10
260.0126
 20
340.5841
 10
260.0568
 20
340.6789
 10
260.1052
 20
340.7715
 10
260.1575
 20
340.8619
 10
260.2137
 20
340.9497
 10
260.2736
 20
341.035
 10
260.3371
 20
341.1176
 10
260.4041
 20
341.1973
 10
260.4745
 20
341.2741
 10
260.5481
 20
341.3478
 10
260.6248
 20
341.4183
 10
260.7044
 20
341.4854
 10
260.7869
 20
341.549
 10
260.8721
 20
341.6091
 10
260.9599
 20
341.6654
 10
261.0501
 20
341.7178
 10
261.1427
 20
341.7663
 10
261.2375
 20
341.8106
 10
261.3343
 20
341.8508
 10
261.4329
 20
341.8866
 10
261.5332
 20
341.918
 10
261.6351
 20
341.9447
 10
261.7383
 20
341.9669
 10
261.8429
 20
341.9842
 10
261.9486
 20
341.9967
 10
262.0554
 20
342.0043
 10
262.163
 20
342.0069
 10
262.271
 20
342.0044
 10
262.3792
 20
341.9971
 10
262.4869
 20
341.9848
 10
262.5936
 20
341.9677
 10
262.699
 20
341.9459
 10
262.8025
 20
341.9194
 10
262.904
 20
341.8884
 10
263.0033
 20
341.8529
 10
263.1004
 20
341.8132
 10
263.1953
 20
341.7692
 10
263.288
 20
341.721
 10
263.3784
 20
341.6688
 10
263.4663
 20
341.6127
 10
263.5515
 20
341.5529
 10
263.6339
 20
341.4893
 10
263.7133
 20
341.4223
 10
263.7896
 20
341.3519
 10
263.8626
 20
341.2782
 10
263.9323
 20
341.2014
 10
263.9986
 20
341.1216
 10
264.0613
 20
341.039
 10
264.1203
 20
340.9536
 10
264.1756
 20
340.8656
 10
264.227
 20
340.7752
 10
264.2745
 20
340.6825
 10
264.3178
 20
340.5876
 10
264.357
 20
340.4906
 10
264.3918
 20
340.3919
 10
264.4223
 20
340.2915
 10
264.4482
 20
340.1895
 10
264.4696
 20
340.0862
 10
264.4864
 20
339.9817
 10
264.4985
 20
339.8759
 10
264.5057
 20
339.7692
 10
264.5082
 20
339.6616
 10
264.5059
 20
339.5535
 10
264.4988
 20
339.4454
 10
264.4869
 20
339.3376
  0
LWPOLYLINE
  5
35
330
17
100
AcDbEntity
  8
CUT
100
AcDbPolyline
 90
851
 70
1
 10
350.7923
 20
334.6906
 10
350.6234
 20
334.5657
 10
350.4487
 20
334.4507
 10
350.2698
 20
334.3455
 10
349.9066
 20
334.165
 10
349.7259
 20
334.0895
 10
349.5483
 20
334.0237
 10
349.3756
 20
333.9673
 10
349.2096
 20
333.9202
 10
349.052
 20
333.8821
 10
348.9043
 20
333.8529
 10
348.7679
 20
333.8321
 10
348.6441
 20
333.8196
 10
348.5338
 20
333.8151
 10
348.4379
 20
333.8184
 10
348.3569
 20
333.8292
 10
348.2909
 20
333.8474
 10
348.2399
 20
333.8727
 10
348.2033
 20
333.905
 10
348.1803
 20
333.9443
 10
348.1697
 20
333.9904
 10
348.1699
 20
334.0434
 10
348.1792
 20
334.1031
 10
348.218
 20
334.2425
 10
348.2713
 20
334.4071
 10
348.3264
 20
334.5941
 10
348.3744
 20
334.7986
 10
348.4106
 20
335.0142
 10
348.4338
 20
335.2337
 10
348.4455
 20
335.4502
 10
348.449
 20
335.6577
 10
348.4484
 20
335.8524
 10
348.4481
 20
336.0333
 10
348.4514
 20
336.2031
 10
348.4609
 20
336.3683
 10
348.4781
 20
336.5381
 10
348.5035
 20
336.7232
 10
348.5372
 20
336.935
 10
348.557
 20
337.0542
 10
348.5786
 20
337.184
 10
348.6019
 20
337.3253
 10
348.6269
 20
337.4791
 10
348.6534
 20
337.6459
 10
348.6812
 20
337.8264
 10
348.7103
 20
338.0205
 10
348.7405
 20
338.2285
 10
348.7717
 20
338.4501
 10
348.8038
 20
338.6851
 10
348.8367
 20
338.933
 10
348.8702
 20
339.1931
 10
348.9043
 20
339.4647
 10
348.9388
 20
339.747
 10
349.0084
 20
340.3394
 10
349.0784
 20
340.9615
 10
349.1478
 20
341.6031
 10
349.2159
 20
342.2535
 10
349.2818
 20
342.9015
 10
349.3449
 20
343.536
 10
349.4047
 20
344.1463
 10
349.4606
 20
344.7225
 10
349.487
 20
344.9951
 10
349.5123
 20
345.2559
 10
349.5364
 20
345.5043
 10
349.5593
 20
345.7395
 10
349.581
 20
345.961
 10
349.6016
 20
346.1683
 10
349.6209
 20
346.3611
 10
349.639
 20
346.5394
 10
349.6559
 20
346.7033
 10
349.6717
 20
346.8531
 10
349.6863
 20
346.9893
 10
349.6998
 20
347.1127
 10
349.7123
 20
347.224
 10
349.7238
 20
347.3244
 10
349.744
 20
347.4968
 10
349.7609
 20
347.6395
 10
349.7753
 20
347.7621
 10
349.7875
 20
347.8732
 10
349.7983
 20
347.9791
 10
349.808
 20
348.0833
 10
349.817
 20
348.187
 10
349.8257
 20
348.29
 10
349.8342
 20
348.392
 10
349.8424
 20
348.4927
 10
349.8503
 20
348.5923
 10
349.8577
 20
348.6912
 10
349.8647
 20
348.7891
 10
349.8712
 20
348.8859
 10
349.8772
 20
348.9811
 10
349.8828
 20
349.0748
 10
349.888
 20
349.1674
 10
349.8926
 20
349.2596
 10
349.8967
 20
349.3517
 10
349.9002
 20
349.4432
 10
349.9032
 20
349.5322
 10
349.9057
 20
349.6172
 10
349.9079
 20
349.6987
 10
349.9094
 20
349.7797
 10
349.9099
 20
349.865
 10
349.909
 20
349.9584
 10
349.9063
 20
350.0598
 10
349.9016
 20
350.166
 10
349.8944
 20
350.2719
 10
349.8844
 20
350.3731
 10
349.8712
 20
350.468
 10
349.8545
 20
350.557
 10
349.8339
 20
350.6421
 10
349.8095
 20
350.7241
 10
349.7813
 20
350.8029
 10
349.7493
 20
350.8772
 10
349.7128
 20
350.9456
 10
349.6705
 20
351.0072
 10
349.6214
 20
351.0615
 10
349.5659
 20
351.108
 10
349.507
 20
351.1461
 10
349.4468
 20
351.1752
 10
349.3842
 20
351.1948
 10
349.3133
 20
351.2049
 10
349.2275
 20
351.2055
 10
349.124
 20
351.1968
 10
349.0053
 20
351.1783
 10
348.8779
 20
351.1499
 10
348.7491
 20
351.1114
 10
348.6249
 20
351.0635
 10
348.5078
 20
351.0071
 10
348.3976
 20
350.9435
 10
348.2921
 20
350.874
 10
348.1884
 20
350.7994
 10
348.0845
 20
350.7193
 10
347.9794
 20
350.6324
 10
347.873
 20
350.5374
 10
347.7662
 20
350.4331
 10
347.66
 20
350.3193
 10
347.5554
 20
350.198
 10
347.4533
 20
350.0726
 10
347.3542
 20
349.9477
 10
347.2581
 20
349.8272
 10
347.1649
 20
349.7131
 10
347.0739
 20
349.6046
 10
346.984
 20
349.4964
 10
346.8939
 20
349.38
 10
346.8021
 20
349.2463
 10
346.7078
 20
349.0874
 10
346.6105
 20
348.8995
 10
346.5108
 20
348.6855
 10
346.4102
 20
348.4566
 10
346.3115
 20
348.2314
 10
346.2176
 20
348.0315
 10
346.1735
 20
347.9476
 10
346.1315
 20
347.8773
 10
346.0921
 20
347.8222
 10
346.0552
 20
347.7833
 10
346.0211
 20
347.7609
 10
345.9895
 20
347.7541
 10
345.9604
 20
347.7612
 10
345.9333
 20
347.7794
 10
345.8834
 20
347.8353
 10
345.8365
 20
347.8949
 10
345.7909
 20
347.9441
 10
345.747
 20
347.9854
 10
345.7062
 20
348.0279
 10
345.6693
 20
348.0747
 10
345.636
 20
348.1225
 10
345.6062
 20
348.1686
 10
345.5804
 20
348.2153
 10
345.5591
 20
348.264
 10
345.5425
 20
348.3105
 10
345.531
 20
348.3518
 10
345.5251
 20
348.3961
 10
345.5258
 20
348.4591
 10
345.5338
 20
348.5495
 10
345.5493
 20
348.6633
 10
345.572
 20
348.7896
 10
345.6015
 20
348.9157
 10
345.6375
 20
349.0341
 10
345.6793
 20
349.1434
 10
345.7267
 20
349.2469
 10
345.7794
 20
349.3495
 10
345.8371
 20
349.4551
 10
345.8995
 20
349.5654
 10
345.9664
 20
349.6797
 10
346.0375
 20
349.7963
 10
346.1127
 20
349.913
 10
346.1918
 20
350.0284
 10
346.2745
 20
350.142
 10
346.3606
 20
350.2542
 10
346.45
 20
350.3657
 10
346.5426
 20
350.4773
 10
346.6382
 20
350.5898
 10
346.7369
 20
350.7033
 10
346.8385
 20
350.818
 10
346.9431
 20
350.9335
 10
347.0506
 20
351.0495
 10
347.1608
 20
351.1658
 10
347.2737
 20
351.282
 10
347.389
 20
351.3979
 10
347.5063
 20
351.5135
 10
347.6254
 20
351.6285
 10
347.7459
 20
351.7429
 10
347.8673
 20
351.8565
 10
347.9894
 20
351.9689
 10
348.1118
 20
352.0798
 10
348.2341
 20
352.1888
 10
348.3562
 20
352.2956
 10
348.4778
 20
352.3999
 10
348.5988
 20
352.5014
 10
348.7194
 20
352.6001
 10
348.8396
 20
352.6958
 10
348.9595
 20
352.7887
 10
349.0792
 20
352.8787
 10
349.1987
 20
352.9659
 10
349.318
 20
353.05
 10
349.4369
 20
353.1311
 10
349.5553
 20
353.2089
 10
349.6729
 20
353.2833
 10
349.7899
 20
353.3539
 10
349.9064
 20
353.4208
 10
350.0228
 20
353.4837
 10
350.1393
 20
353.5425
 10
350.2562
 20
353.597
 10
350.3731
 20
353.647
 10
350.4894
 20
353.6922
 10
350.6041
 20
353.7322
 10
350.7165
 20
353.7666
 10
350.8264
 20
353.7951
 10
350.9347
 20
353.8174
 10
351.0431
 20
353.8335
 10
351.1539
 20
353.8432
 10
351.2685
 20
353.8465
 10
351.3875
 20
353.8432
 10
351.5092
 20
353.8332
 10
351.6314
 20
353.8163
 10
351.7513
 20
353.7921
 10
351.8665
 20
353.7607
 10
351.9758
 20
353.7222
 10
352.0791
 20
353.6766
 10
352.1768
 20
353.6242
 10
352.2696
 20
353.5648
 10
352.3575
 20
353.4979
 10
352.4403
 20
353.423
 10
352.5174
 20
353.3396
 10
352.5883
 20
353.2481
 10
352.6526
 20
353.15
 10
352.7105
 20
353.0477
 10
352.7621
 20
352.9432
 10
352.8079
 20
352.8378
 10
352.8481
 20
352.7303
 10
352.883
 20
352.6172
 10
352.9128
 20
352.4943
 10
352.9376
 20
352.3587
 10
352.9575
 20
352.2109
 10
352.9728
 20
352.0564
 10
352.9838
 20
351.9051
 10
352.9909
 20
351.7678
 10
352.9947
 20
351.6527
 10
352.9958
 20
351.5626
 10
352.995
 20
351.4916
 10
352.9931
 20
351.428
 10
352.9908
 20
351.361
 10
352.9881
 20
351.2865
 10
352.9849
 20
351.2069
 10
352.981
 20
351.1263
 10
352.9765
 20
351.0472
 10
352.9715
 20
350.9695
 10
352.9662
 20
350.8915
 10
352.9604
 20
350.8108
 10
352.9538
 20
350.7258
 10
352.9464
 20
350.6368
 10
352.9386
 20
350.547
 10
352.9308
 20
350.4611
 10
352.9235
 20
350.3818
 10
352.9164
 20
350.3057
 10
352.908
 20
350.2223
 10
352.897
 20
350.1182
 10
352.8821
 20
349.9823
 10
352.8631
 20
349.8103
 10
352.8407
 20
349.6046
 10
352.8162
 20
349.3733
 10
352.7914
 20
349.1274
 10
352.768
 20
348.8791
 10
352.7471
 20
348.6394
 10
352.7294
 20
348.4163
 10
352.7142
 20
348.2128
 10
352.7001
 20
348.0256
 10
352.6845
 20
347.8474
 10
352.6649
 20
347.668
 10
352.639
 20
347.4775
 10
352.6053
 20
347.2678
 10
352.5639
 20
347.035
 10
352.5167
 20
346.7817
 10
352.4677
 20
346.5176
 10
352.4227
 20
346.258
 10
352.388
 20
346.0211
 10
352.3766
 20
345.9171
 10
352.37
 20
345.8258
 10
352.3691
 20
345.7491
 10
352.3743
 20
345.6889
 10
352.386
 20
345.6465
 10
352.4047
 20
345.6229
 10
352.4304
 20
345.6185
 10
352.4631
 20
345.6333
 10
352.5024
 20
345.6665
 10
352.548
 20
345.7171
 10
352.5994
 20
345.7836
 10
352.656
 20
345.8642
 10
352.7169
 20
345.9568
 10
352.7816
 20
346.0592
 10
352.9186
 20
346.2844
 10
353.0607
 20
346.5212
 10
353.2023
 20
346.7533
 10
353.3391
 20
346.9685
 10
353.4691
 20
347.1605
 10
353.592
 20
347.3283
 10
353.7088
 20
347.4752
 10
353.8216
 20
347.6073
 10
353.933
 20
347.7318
 10
354.0454
 20
347.8557
 10
354.1607
 20
347.9847
 10
354.2798
 20
348.1216
 10
354.4031
 20
348.267
 10
354.53
 20
348.4194
 10
354.6596
 20
348.5763
 10
354.7908
 20
348.7346
 10
354.9227
 20
348.8911
 10
355.0544
 20
349.0435
 10
355.1856
 20
349.1908
 10
355.3161
 20
349.3328
 10
355.4462
 20
349.4701
 10
355.5764
 20
349.604
 10
355.707
 20
349.7358
 10
355.8386
 20
349.8667
 10
355.9714
 20
349.9977
 10
356.1056
 20
350.1292
 10
356.2412
 20
350.2611
 10
356.3781
 20
350.393
 10
356.5162
 20
350.5244
 10
356.6552
 20
350.6547
 10
356.7949
 20
350.7833
 10
356.9353
 20
350.91
 10
357.0762
 20
351.0346
 10
357.2176
 20
351.157
 10
357.3594
 20
351.2775
 10
357.5018
 20
351.3961
 10
357.6446
 20
351.5131
 10
357.7879
 20
351.6285
 10
357.9316
 20
351.7423
 10
358.0756
 20
351.8544
 10
358.2198
 20
351.9646
 10
358.364
 20
352.0727
 10
358.5082
 20
352.1785
 10
358.6523
 20
352.2818
 10
358.7963
 20
352.3823
 10
358.94
 20
352.4802
 10
359.0836
 20
352.5752
 10
359.2271
 20
352.6675
 10
359.3704
 20
352.7569
 10
359.5137
 20
352.8436
 10
359.657
 20
352.9275
 10
359.8003
 20
353.0084
 10
359.9435
 20
353.0864
 10
360.0867
 20
353.1613
 10
360.2298
 20
353.2329
 10
360.3729
 20
353.3012
 10
360.5158
 20
353.3661
 10
360.6585
 20
353.4273
 10
360.8009
 20
353.4849
 10
360.9431
 20
353.5387
 10
361.0849
 20
353.5886
 10
361.2264
 20
353.6345
 10
361.3677
 20
353.6763
 10
361.5087
 20
353.7139
 10
361.6495
 20
353.747
 10
361.7901
 20
353.7757
 10
361.9304
 20
353.7997
 10
362.0701
 20
353.8189
 10
362.2089
 20
353.8333
 10
362.3465
 20
353.8425
 10
362.4825
 20
353.8463
 10
362.6164
 20
353.8444
 10
362.7479
 20
353.8362
 10
362.8766
 20
353.8212
 10
363.0022
 20
353.7988
 10
363.1243
 20
353.7686
 10
363.2425
 20
353.7303
 10
363.3564
 20
353.6842
 10
363.4657
 20
353.6303
 10
363.5699
 20
353.5689
 10
363.6686
 20
353.5
 10
363.7616
 20
353.4235
 10
363.8486
 20
353.339
 10
363.9295
 20
353.2463
 10
364.0043
 20
353.1456
 10
364.0728
 20
353.0379
 10
364.1353
 20
352.9248
 10
364.1919
 20
352.8084
 10
364.2427
 20
352.6902
 10
364.2881
 20
352.5704
 10
364.3282
 20
352.4476
 10
364.3633
 20
352.319
 10
364.3934
 20
352.1812
 10
364.4188
 20
352.0322
 10
364.4397
 20
351.8722
 10
364.4563
 20
351.7049
 10
364.4689
 20
351.5372
 10
364.4778
 20
351.3777
 10
364.4833
 20
351.234
 10
364.4858
 20
351.1111
 10
364.486
 20
351.009
 10
364.4843
 20
350.9219
 10
364.4813
 20
350.8408
 10
364.4775
 20
350.7569
 10
364.4729
 20
350.6656
 10
364.4677
 20
350.567
 10
364.4615
 20
350.4639
 10
364.4544
 20
350.3596
 10
364.4465
 20
350.2563
 10
364.4381
 20
350.1547
 10
364.4292
 20
350.0541
 10
364.4198
 20
349.9525
 10
364.4097
 20
349.8472
 10
364.3985
 20
349.7359
 10
364.3859
 20
349.618
 10
364.3723
 20
349.4956
 10
364.3584
 20
349.3743
 10
364.345
 20
349.2601
 10
364.3329
 20
349.157
 10
364.3219
 20
349.0632
 10
364.3106
 20
348.9697
 10
364.2968
 20
348.8609
 10
364.2881
 20
348.7952
 10
364.2779
 20
348.7189
 10
364.2657
 20
348.6299
 10
364.2514
 20
348.5265
 10
364.2348
 20
348.4072
 10
364.2156
 20
348.2711
 10
364.1938
 20
348.1175
 10
364.1694
 20
347.9462
 10
364.1423
 20
347.7572
 10
364.1127
 20
347.551
 10
364.0806
 20
347.3282
 10
364.0462
 20
347.0897
 10
364.0097
 20
346.8367
 10
363.9711
 20
346.5705
 10
363.9309
 20
346.2926
 10
363.8891
 20
346.0048
 10
363.8023
 20
345.4067
 10
363.7128
 20
344.7917
 10
363.6232
 20
344.176
 10
363.5358
 20
343.5762
 10
363.453
 20
343.0076
 10
363.414
 20
342.7395
 10
363.3768
 20
342.4842
 10
363.3417
 20
342.243
 10
363.3088
 20
342.0172
 10
363.2784
 20
341.8076
 10
363.2504
 20
341.6148
 10
363.225
 20
341.4392
 10
363.2021
 20
341.2809
 10
363.1817
 20
341.1395
 10
363.1638
 20
341.0144
 10
363.1481
 20
340.9047
 10
363.1346
 20
340.8088
 10
363.1228
 20
340.725
 10
363.1127
 20
340.6515
 10
363.0959
 20
340.5268
 10
363.0818
 20
340.4179
 10
363.0682
 20
340.31
 10
363.0538
 20
340.1931
 10
363.038
 20
340.0635
 10
363.021
 20
339.9229
 10
363.0037
 20
339.7765
 10
362.9868
 20
339.6302
 10
362.9711
 20
339.4889
 10
362.9568
 20
339.3542
 10
362.9439
 20
339.2254
 10
362.9321
 20
339.1002
 10
362.9209
 20
338.9759
 10
362.9102
 20
338.851
 10
362.8999
 20
338.7251
 10
362.8901
 20
338.5992
 10
362.8811
 20
338.4746
 10
362.8729
 20
338.3522
 10
362.8658
 20
338.2322
 10
362.8595
 20
338.1139
 10
362.8542
 20
337.9961
 10
362.8496
 20
337.8784
 10
362.8459
 20
337.7612
 10
362.8431
 20
337.6462
 10
362.8416
 20
337.5354
 10
362.8416
 20
337.4307
 10
362.8433
 20
337.3326
 10
362.8473
 20
337.2404
 10
362.8537
 20
337.1522
 10
362.863
 20
337.0665
 10
362.8756
 20
336.9828
 10
362.8919
 20
336.9018
 10
362.9123
 20
336.8244
 10
362.9367
 20
336.7516
 10
362.9649
 20
336.6838
 10
362.9972
 20
336.6211
 10
363.0346
 20
336.5641
 10
363.0785
 20
336.5137
 10
363.1291
 20
336.4709
 10
363.1838
 20
336.4362
 10
363.2396
 20
336.4097
 10
363.2971
 20
336.3917
 10
363.3623
 20
336.3826
 10
363.4429
 20
336.3831
 10
363.5423
 20
336.3938
 10
363.6579
 20
336.4153
 10
363.7827
 20
336.4477
 10
363.9089
 20
336.4909
 10
364.0303
 20
336.5441
 10
364.1446
 20
336.6061
 10
364.2523
 20
336.6753
 10
364.3559
 20
336.7504
 10
364.4583
 20
336.8307
 10
364.5617
 20
336.9166
 10
364.6672
 20
337.009
 10
364.7747
 20
337.1094
 10
364.8834
 20
337.2188
 10
364.9923
 20
337.3374
 10
365.1001
 20
337.4636
 10
365.206
 20
337.5939
 10
365.3093
 20
337.7244
 10
365.4097
 20
337.851
 10
365.5074
 20
337.9715
 10
365.603
 20
338.0861
 10
365.6975
 20
338.1985
 10
365.7924
 20
338.316
 10
365.8893
 20
338.4473
 10
365.9895
 20
338.6005
 10
366.0937
 20
338.781
 10
366.2019
 20
338.9891
 10
366.3129
 20
339.2184
 10
366.4242
 20
339.4549
 10
366.5324
 20
339.6794
 10
366.5842
 20
339.7808
 10
366.634
 20
339.8718
 10
366.6814
 20
339.9503
 10
366.726
 20
340.0147
 10
366.7678
 20
340.0637
 10
366.8065
 20
340.097
 10
366.8421
 20
340.1148
 10
366.8749
 20
340.1182
 10
366.9334
 20
340.0916
 10
366.9855
 20
340.0417
 10
367.0351
 20
339.9919
 10
367.0833
 20
339.9516
 10
367.1292
 20
339.9153
 10
367.1713
 20
339.8753
 10
367.2092
 20
339.8311
 10
367.2431
 20
339.7863
 10
367.273
 20
339.7417
 10
367.2983
 20
339.6947
 10
367.3187
 20
339.6457
 10
367.334
 20
339.5995
 10
367.3441
 20
339.5563
 10
367.3483
 20
339.5055
 10
367.346
 20
339.4327
 10
367.3367
 20
339.333
 10
367.3204
 20
339.2118
 10
367.2971
 20
339.0806
 10
367.2673
 20
338.9509
 10
367.2313
 20
338.8293
 10
367.1895
 20
338.7167
 10
367.1423
 20
338.6097
 10
367.0898
 20
338.5036
 10
367.0324
 20
338.3946
 10
366.9703
 20
338.2813
 10
366.9037
 20
338.164
 10
366.8329
 20
338.0446
 10
366.758
 20
337.9249
 10
366.6792
 20
337.8066
 10
366.5968
 20
337.69
 10
366.5108
 20
337.5751
 10
366.4215
 20
337.4611
 10
366.329
 20
337.3471
 10
366.2334
 20
337.2326
 10
366.1348
 20
337.1171
 10
366.0332
 20
337.0006
 10
365.9286
 20
336.8834
 10
365.821
 20
336.7656
 10
365.7106
 20
336.6477
 10
365.5974
 20
336.5298
 10
365.4818
 20
336.4123
 10
365.3641
 20
336.2952
 10
365.2444
 20
336.1786
 10
365.1233
 20
336.0627
 10
365.0009
 20
335.9477
 10
364.8777
 20
335.8338
 10
364.754
 20
335.7214
 10
364.6301
 20
335.6107
 10
364.5063
 20
335.5022
 10
364.3826
 20
335.3962
 10
364.2593
 20
335.2929
 10
364.1363
 20
335.1924
 10
364.0136
 20
335.0949
 10
363.8912
 20
335.0003
 10
363.7689
 20
334.9087
 10
363.6468
 20
334.8199
 10
363.5247
 20
334.7342
 10
363.4027
 20
334.6515
 10
363.2809
 20
334.572
 10
363.1594
 20
334.4958
 10
363.0382
 20
334.4232
 10
362.9172
 20
334.3544
 10
362.7965
 20
334.2894
 10
362.6759
 20
334.2284
 10
362.5553
 20
334.1717
 10
362.4348
 20
334.1193
 10
362.3145
 20
334.0715
 10
362.1947
 20
334.0285
 10
362.0757
 20
333.9906
 10
361.9578
 20
333.9581
 10
361.841
 20
333.9311
 10
361.7251
 20
333.9101
 10
361.6096
 20
333.895
 10
361.4938
 20
333.8863
 10
361.3776
 20
333.884
 10
361.2612
 20
333.8885
 10
361.1455
 20
333.9001
 10
361.0317
 20
333.9191
 10
360.9211
 20
333.9457
 10
360.8149
 20
333.9803
 10
360.7137
 20
334.0228
 10
360.6178
 20
334.0733
 10
360.5272
 20
334.1318
 10
360.4419
 20
334.198
 10
360.3622
 20
334.2719
 10
360.2882
 20
334.3532
 10
360.2202
 20
334.4415
 10
360.1583
 20
334.5364
 10
360.1025
 20
334.6369
 10
360.0526
 20
334.7423
 10
360.0081
 20
334.8519
 10
359.9689
 20
334.9654
 10
359.9348
 20
335.0828
 10
359.9054
 20
335.2048
 10
359.8807
 20
335.3319
 10
359.8605
 20
335.4642
 10
359.8446
 20
335.6011
 10
359.8326
 20
335.7411
 10
359.8243
 20
335.8818
 10
359.8191
 20
336.021
 10
359.8166
 20
336.1569
 10
359.8164
 20
336.2885
 10
359.818
 20
336.4163
 10
359.8211
 20
336.5418
 10
359.8253
 20
336.6669
 10
359.8303
 20
336.7936
 10
359.8362
 20
336.9233
 10
359.8429
 20
337.0566
 10
359.8504
 20
337.1933
 10
359.8589
 20
337.333
 10
359.8684
 20
337.4748
 10
359.8788
 20
337.6177
 10
359.89
 20
337.7607
 10
359.9018
 20
337.9032
 10
359.9143
 20
338.0449
 10
359.9271
 20
338.186
 10
359.9406
 20
338.3277
 10
359.9548
 20
338.4717
 10
359.9701
 20
338.6198
 10
359.9866
 20
338.7735
 10
360.0045
 20
338.9331
 10
360.0235
 20
339.0973
 10
360.0432
 20
339.2628
 10
360.0629
 20
339.4252
 10
360.0821
 20
339.5805
 10
360.1004
 20
339.7258
 10
360.1177
 20
339.8611
 10
360.1345
 20
339.9904
 10
360.1521
 20
340.1217
 10
360.1719
 20
340.2659
 10
360.1954
 20
340.4345
 10
360.2092
 20
340.5315
 10
360.2244
 20
340.6384
 10
360.2413
 20
340.7564
 10
360.2598
 20
340.886
 10
360.2802
 20
341.0276
 10
360.3023
 20
341.1812
 10
360.3262
 20
341.3467
 10
360.3518
 20
341.5234
 10
360.4074
 20
341.9079
 10
360.468
 20
342.3265
 10
360.5321
 20
342.7689
 10
360.5979
 20
343.2228
 10
360.6635
 20
343.6754
 10
360.727
 20
344.1138
 10
360.7867
 20
344.526
 10
360.8146
 20
344.719
 10
360.841
 20
344.9016
 10
360.8658
 20
345.0732
 10
360.8889
 20
345.2329
 10
360.9101
 20
345.3803
 10
360.9295
 20
345.5152
 10
360.9471
 20
345.6377
 10
360.9628
 20
345.7483
 10
360.977
 20
345.8476
 10
360.9895
 20
345.9367
 10
361.0108
 20
346.0896
 10
361.0284
 20
346.2188
 10
361.044
 20
346.337
 10
361.0591
 20
346.4551
 10
361.0749
 20
346.5806
 10
361.0916
 20
346.716
 10
361.1091
 20
346.8599
 10
361.1267
 20
347.0082
 10
361.1437
 20
347.1564
 10
361.1597
 20
347.3006
 10
361.1745
 20
347.4393
 10
361.188
 20
347.5728
 10
361.2006
 20
347.7026
 10
361.2124
 20
347.8309
 10
361.2237
 20
347.9591
 10
361.2345
 20
348.0879
 10
361.2447
 20
348.2173
 10
361.2542
 20
348.3464
 10
361.2628
 20
348.4745
 10
361.2704
 20
348.6006
 10
361.2771
 20
348.7243
 10
361.283
 20
348.8454
 10
361.2882
 20
348.9642
 10
361.2926
 20
349.081
 10
361.296
 20
349.1968
 10
361.2983
 20
349.3122
 10
361.2989
 20
349.4281
 10
361.2976
 20
349.5448
 10
361.2938
 20
349.6617
 10
361.287
 20
349.778
 10
361.2769
 20
349.8924
 10
361.263
 20
350.0036
 10
361.2448
 20
350.1109
 10
361.222
 20
350.214
 10
361.1941
 20
350.3129
 10
361.1611
 20
350.4078
 10
361.123
 20
350.4985
 10
361.0798
 20
350.5845
 10
361.0316
 20
350.6653
 10
360.9781
 20
350.74
 10
360.9184
 20
350.8081
 10
360.8516
 20
350.8692
 10
360.7778
 20
350.9228
 10
360.6982
 20
350.9687
 10
360.6157
 20
351.0068
 10
360.5324
 20
351.0371
 10
360.4482
 20
351.0597
 10
360.3598
 20
351.0749
 10
360.2613
 20
351.0829
 10
360.1475
 20
351.0842
 10
360.0157
 20
351.0791
 10
359.8669
 20
351.0678
 10
359.7052
 20
351.0503
 10
359.5362
 20
351.0267
 10
359.3658
 20
350.997
 10
359.1989
 20
350.9613
 10
359.0383
 20
350.9197
 10
358.8844
 20
350.8722
 10
358.7362
 20
350.819
 10
358.5916
 20
350.7602
 10
358.4483
 20
350.6961
 10
358.3045
 20
350.6267
 10
358.1592
 20
350.5523
 10
358.0124
 20
350.4729
 10
357.8646
 20
350.3887
 10
357.7168
 20
350.2998
 10
357.5699
 20
350.2064
 10
357.4247
 20
350.1086
 10
357.2818
 20
350.0065
 10
357.141
 20
349.9002
 10
357.0024
 20
349.7899
 10
356.8655
 20
349.6758
 10
356.7298
 20
349.5579
 10
356.5951
 20
349.4364
 10
356.461
 20
349.3113
 10
356.3275
 20
349.1827
 10
356.1944
 20
349.0507
 10
356.0619
 20
348.9153
 10
355.9301
 20
348.7767
 10
355.7991
 20
348.6348
 10
355.6691
 20
348.4898
 10
355.5402
 20
348.3418
 10
355.4124
 20
348.1909
 10
355.286
 20
348.0372
 10
355.1608
 20
347.8811
 10
355.037
 20
347.7226
 10
354.9145
 20
347.562
 10
354.7936
 20
347.3996
 10
354.6742
 20
347.2355
 10
354.5564
 20
347.0702
 10
354.4403
 20
346.9037
 10
354.326
 20
346.7364
 10
354.2137
 20
346.5683
 10
354.1034
 20
346.3996
 10
353.9953
 20
346.2303
 10
353.8896
 20
346.0603
 10
353.7864
 20
345.8893
 10
353.6859
 20
345.7173
 10
353.5881
 20
345.5439
 10
353.493
 20
345.3691
 10
353.4007
 20
345.1929
 10
353.311
 20
345.0153
 10
353.2237
 20
344.8367
 10
353.1386
 20
344.6575
 10
353.0553
 20
344.4781
 10
352.9736
 20
344.299
 10
352.8935
 20
344.1204
 10
352.8149
 20
343.9423
 10
352.7381
 20
343.7645
 10
352.6636
 20
343.5862
 10
352.5922
 20
343.4064
 10
352.5245
 20
343.2242
 10
352.4611
 20
343.0386
 10
352.4024
 20
342.8491
 10
352.3484
 20
342.6559
 10
352.2985
 20
342.4597
 10
352.2514
 20
342.2623
 10
352.2057
 20
342.066
 10
352.1597
 20
341.8732
 10
352.112
 20
341.6861
 10
352.0619
 20
341.5059
 10
352.0093
 20
341.3326
 10
351.9558
 20
341.1644
 10
351.9039
 20
340.9976
 10
351.8575
 20
340.8267
 10
351.8205
 20
340.6456
 10
351.7966
 20
340.4477
 10
351.789
 20
340.2269
 10
351.7989
 20
339.9784
 10
351.8258
 20
339.699
 10
351.8666
 20
339.3879
 10
351.9161
 20
339.0463
 10
351.9675
 20
338.6772
 10
352.013
 20
338.2851
 10
352.044
 20
337.8759
 10
352.0519
 20
337.4561
 10
352.0286
 20
337.0331
 10
352.0029
 20
336.8226
 10
351.9668
 20
336.6142
 10
351.9195
 20
336.4086
 10
351.8606
 20
336.2069
 10
351.7895
 20
336.0099
 10
351.7061
 20
335.8184
 10
351.6102
 20
335.6332
 10
351.5019
 20
335.4552
 10
351.3815
 20
335.2848
 10
351.2495
 20
335.1227
 10
351.1066
 20
334.9694
 10
350.9538
 20
334.8253
 10
350.7923
 20
334.6906
  0
LWPOLYLINE
  5
36
330
17
100
AcDbEntity
  8
CUT
100
AcDbPolyline
 90
1424
 70
1
 10
264.1103
 20
356.1643
 10
264.0208
 20
356.1572
 10
263.919
 20
356.1422
 10
263.8076
 20
356.119
 10
263.6902
 20
356.0882
 10
263.5706
 20
356.0517
 10
263.4528
 20
356.011
 10
263.3397
 20
355.968
 10
263.233
 20
355.9235
 10
263.1332
 20
355.8777
 10
263.0395
 20
355.8303
 10
262.9506
 20
355.7803
 10
262.8652
 20
355.7272
 10
262.7823
 20
355.6702
 10
262.7014
 20
355.6093
 10
262.6227
 20
355.5446
 10
262.547
 20
355.4765
 10
262.4748
 20
355.4055
 10
262.4067
 20
355.332
 10
262.3433
 20
355.2563
 10
262.2843
 20
355.1783
 10
262.2297
 20
355.0981
 10
262.1791
 20
355.0156
 10
262.1323
 20
354.931
 10
262.0891
 20
354.8444
 10
262.0494
 20
354.7562
 10
262.0132
 20
354.6669
 10
261.9806
 20
354.5767
 10
261.9515
 20
354.4857
 10
261.926
 20
354.3938
 10
261.9039
 20
354.3008
 10
261.8852
 20
354.2061
 10
261.8696
 20
354.1098
 10
261.857
 20
354.0121
 10
261.8473
 20
353.9139
 10
261.8403
 20
353.8164
 10
261.8359
 20
353.721
 10
261.8339
 20
353.6287
 10
261.8343
 20
353.5401
 10
261.8368
 20
353.4548
 10
261.8414
 20
353.3718
 10
261.8479
 20
353.2899
 10
261.8563
 20
353.2079
 10
261.8663
 20
353.1254
 10
261.8779
 20
353.0422
 10
261.8909
 20
352.959
 10
261.9053
 20
352.8762
 10
261.921
 20
352.7943
 10
261.9382
 20
352.7134
 10
261.9568
 20
352.6333
 10
261.9768
 20
352.5537
 10
261.9983
 20
352.4746
 10
262.0207
 20
352.3961
 10
262.0439
 20
352.3188
 10
262.0675
 20
352.2428
 10
262.0915
 20
352.1685
 10
262.1162
 20
352.0953
 10
262.1424
 20
352.0227
 10
262.1705
 20
351.9501
 10
262.2005
 20
351.8777
 10
262.2312
 20
351.8064
 10
262.2611
 20
351.7382
 10
262.2885
 20
351.6744
 10
262.3137
 20
351.6153
 10
262.3388
 20
351.5585
 10
262.3682
 20
351.4996
 10
262.407
 20
351.4335
 10
262.4595
 20
351.3563
 10
262.528
 20
351.2661
 10
262.6129
 20
351.1631
 10
262.713
 20
351.0493
 10
262.826
 20
350.928
 10
262.9491
 20
350.8027
 10
263.0792
 20
350.6774
 10
263.2134
 20
350.5552
 10
263.3495
 20
350.4387
 10
263.4862
 20
350.3289
 10
263.6231
 20
350.2261
 10
263.7599
 20
350.1297
 10
263.8973
 20
350.0387
 10
264.0357
 20
349.9516
 10
264.1761
 20
349.8667
 10
264.3192
 20
349.7827
 10
264.4654
 20
349.6982
 10
264.615
 20
349.6124
 10
264.768
 20
349.5252
 10
264.924
 20
349.4365
 10
265.0826
 20
349.3467
 10
265.2431
 20
349.2562
 10
265.4048
 20
349.1656
 10
265.5673
 20
349.0758
 10
265.73
 20
348.9872
 10
265.8924
 20
348.9004
 10
266.0545
 20
348.8156
 10
266.2163
 20
348.733
 10
266.3779
 20
348.6523
 10
266.5396
 20
348.5735
 10
266.7016
 20
348.4963
 10
266.8641
 20
348.4205
 10
267.0272
 20
348.3456
 10
267.1909
 20
348.2716
 10
267.3548
 20
348.1983
 10
267.5184
 20
348.1256
 10
267.681
 20
348.0538
 10
267.8417
 20
347.983
 10
267.9997
 20
347.9135
 10
268.1542
 20
347.8455
 10
268.3047
 20
347.7793
 10
268.4509
 20
347.715
 10
268.5929
 20
347.6528
 10
268.7314
 20
347.5925
 10
268.8675
 20
347.5341
 10
269.0025
 20
347.4773
 10
269.1376
 20
347.4218
 10
269.2731
 20
347.3676
 10
269.4089
 20
347.3149
 10
269.5432
 20
347.2641
 10
269.6728
 20
347.2161
 10
269.7926
 20
347.172
 10
269.8969
 20
347.1334
 10
269.981
 20
347.1014
 10
270.0427
 20
347.0764
 10
270.0846
 20
347.0577
 10
270.1148
 20
347.0428
 10
270.1431
 20
347.0293
 10
270.1739
 20
347.0158
 10
270.2054
 20
347.003
 10
270.2353
 20
346.9915
 10
270.2645
 20
346.9813
 10
270.2938
 20
346.9722
 10
270.323
 20
346.9641
 10
270.3517
 20
346.9574
 10
270.3805
 20
346.9521
 10
270.4091
 20
346.9481
 10
270.4368
 20
346.9454
 10
270.4651
 20
346.9442
 10
270.4962
 20
346.9453
 10
270.5291
 20
346.9494
 10
270.5604
 20
346.9573
 10
270.5891
 20
346.969
 10
270.6161
 20
346.984
 10
270.642
 20
347.0024
 10
270.6668
 20
347.0238
 10
270.69
 20
347.0476
 10
270.7121
 20
347.0733
 10
270.7338
 20
347.1013
 10
270.7557
 20
347.1322
 10
270.7772
 20
347.1645
 10
270.7971
 20
347.1956
 10
270.8163
 20
347.2264
 10
270.8388
 20
347.2636
 10
270.8694
 20
347.3156
 10
270.9117
 20
347.3885
 10
270.9671
 20
347.4846
 10
271.0352
 20
347.6032
 10
271.1144
 20
347.7416
 10
271.2022
 20
347.8956
 10
271.2961
 20
348.0606
 10
271.3934
 20
348.2323
 10
271.4925
 20
348.4076
 10
271.5919
 20
348.584
 10
271.691
 20
348.7604
 10
271.7895
 20
348.9361
 10
271.8873
 20
349.1112
 10
271.9849
 20
349.2863
 10
272.0828
 20
349.462
 10
272.1815
 20
349.6394
 10
272.2816
 20
349.8195
 10
272.3836
 20
350.0031
 10
272.4879
 20
350.1907
 10
272.5947
 20
350.3826
 10
272.704
 20
350.5788
 10
272.8156
 20
350.7793
 10
272.9294
 20
350.9835
 10
273.0451
 20
351.191
 10
273.1623
 20
351.4012
 10
273.2808
 20
351.6135
 10
273.4
 20
351.8273
 10
273.5196
 20
352.0419
 10
273.6394
 20
352.2567
 10
273.759
 20
352.4714
 10
273.8783
 20
352.6855
 10
273.9971
 20
352.8989
 10
274.1153
 20
353.1115
 10
274.2331
 20
353.3232
 10
274.3503
 20
353.5341
 10
274.467
 20
353.7442
 10
274.5833
 20
353.9537
 10
274.6992
 20
354.1626
 10
274.8149
 20
354.3712
 10
274.9304
 20
354.5794
 10
275.0457
 20
354.7873
 10
275.1609
 20
354.9949
 10
275.2757
 20
355.202
 10
275.3903
 20
355.4086
 10
275.5044
 20
355.6143
 10
275.618
 20
355.8189
 10
275.7308
 20
356.0222
 10
275.8427
 20
356.2238
 10
275.9535
 20
356.4234
 10
276.0631
 20
356.6208
 10
276.1713
 20
356.8156
 10
276.278
 20
357.0077
 10
276.3832
 20
357.1969
 10
276.4866
 20
357.3831
 10
276.5883
 20
357.5663
 10
276.6883
 20
357.7463
 10
276.7864
 20
357.923
 10
276.8825
 20
358.0963
 10
276.9764
 20
358.2656
 10
277.0676
 20
358.4304
 10
277.1558
 20
358.5897
 10
277.2402
 20
358.7424
 10
277.3198
 20
358.8868
 10
277.3937
 20
359.0208
 10
277.4607
 20
359.1424
 10
277.5197
 20
359.2496
 10
277.5704
 20
359.3411
 10
277.613
 20
359.4168
 10
277.6489
 20
359.4782
 10
277.6806
 20
359.5286
 10
277.7115
 20
359.5725
 10
277.7447
 20
359.6141
 10
277.7816
 20
359.6558
 10
277.822
 20
359.6971
 10
277.8647
 20
359.7368
 10
277.9087
 20
359.7735
 10
277.954
 20
359.807
 10
278.0007
 20
359.838
 10
278.0492
 20
359.867
 10
278.0992
 20
359.8939
 10
278.1503
 20
359.9187
 10
278.2022
 20
359.941
 10
278.2553
 20
359.9606
 10
278.3098
 20
359.9777
 10
278.3654
 20
359.9923
 10
278.4213
 20
360.0045
 10
278.4764
 20
360.0143
 10
278.5306
 20
360.0218
 10
278.5857
 20
360.0267
 10
278.6443
 20
360.0285
 10
278.7081
 20
360.0269
 10
278.777
 20
360.0216
 10
278.8486
 20
360.0124
 10
278.92
 20
359.9992
 10
278.9891
 20
359.9818
 10
279.0551
 20
359.9604
 10
279.1183
 20
359.9348
 10
279.1798
 20
359.9054
 10
279.2399
 20
359.8722
 10
279.2987
 20
359.8359
 10
279.3556
 20
359.7965
 10
279.4099
 20
359.7542
 10
279.4612
 20
359.7088
 10
279.5095
 20
359.6596
 10
279.5547
 20
359.6066
 10
279.5968
 20
359.5503
 10
279.6357
 20
359.4919
 10
279.6713
 20
359.4331
 10
279.7033
 20
359.3743
 10
279.7315
 20
359.3143
 10
279.7557
 20
359.25
 10
279.7758
 20
359.1788
 10
279.7915
 20
359.101
 10
279.803
 20
359.0212
 10
279.8103
 20
358.9476
 10
279.8138
 20
358.8872
 10
279.8143
 20
358.8421
 10
279.8128
 20
358.8067
 10
279.81
 20
358.7723
 10
279.8064
 20
358.7351
 10
279.8016
 20
358.6973
 10
279.7954
 20
358.6609
 10
279.7876
 20
358.6254
 10
279.7784
 20
358.5897
 10
279.7679
 20
358.554
 10
279.7561
 20
358.5189
 10
279.7425
 20
358.4835
 10
279.7269
 20
358.4471
 10
279.71
 20
358.4111
 10
279.6931
 20
358.3776
 10
279.6752
 20
358.345
 10
279.6531
 20
358.3064
 10
279.6229
 20
358.2537
 10
279.5821
 20
358.1815
 10
279.5298
 20
358.088
 10
279.4668
 20
357.9742
 10
279.3945
 20
357.843
 10
279.315
 20
357.6984
 10
279.2301
 20
357.5442
 10
279.1417
 20
357.3837
 10
279.0508
 20
357.2193
 10
278.9583
 20
357.0522
 10
278.8645
 20
356.8835
 10
278.7697
 20
356.7132
 10
278.6738
 20
356.5413
 10
278.5765
 20
356.3673
 10
278.4777
 20
356.1907
 10
278.3771
 20
356.0108
 10
278.2745
 20
355.8273
 10
278.1699
 20
355.64
 10
278.0632
 20
355.4488
 10
277.9547
 20
355.2541
 10
277.8446
 20
355.0561
 10
277.733
 20
354.8555
 10
277.6203
 20
354.6526
 10
277.5069
 20
354.4481
 10
277.3929
 20
354.2427
 10
277.2787
 20
354.0366
 10
277.1645
 20
353.8305
 10
277.0504
 20
353.6246
 10
276.9364
 20
353.4191
 10
276.8225
 20
353.2138
 10
276.7087
 20
353.0086
 10
276.5946
 20
352.8033
 10
276.4802
 20
352.5975
 10
276.3653
 20
352.391
 10
276.2496
 20
352.1834
 10
276.1331
 20
351.9745
 10
276.0158
 20
351.7642
 10
275.8975
 20
351.5524
 10
275.7784
 20
351.3394
 10
275.6587
 20
351.1254
 10
275.5389
 20
350.9111
 10
275.4194
 20
350.6974
 10
275.3007
 20
350.4851
 10
275.1834
 20
350.2752
 10
275.0682
 20
350.0689
 10
274.9556
 20
349.8668
 10
274.846
 20
349.67
 10
274.7398
 20
349.4788
 10
274.637
 20
349.2935
 10
274.5375
 20
349.1141
 10
274.4411
 20
348.9399
 10
274.3471
 20
348.7698
 10
274.2545
 20
348.6025
 10
274.1622
 20
348.4359
 10
274.0692
 20
348.2685
 10
273.9745
 20
348.0986
 10
273.8775
 20
347.9251
 10
273.7779
 20
347.7479
 10
273.6762
 20
347.5676
 10
273.5735
 20
347.3863
 10
273.4719
 20
347.2073
 10
273.3745
 20
347.0362
 10
273.2851
 20
346.8793
 10
273.2078
 20
346.7437
 10
273.1461
 20
346.635
 10
273.1016
 20
346.556
 10
273.0738
 20
346.5056
 10
273.0589
 20
346.4771
 10
273.0497
 20
346.4581
 10
273.0401
 20
346.438
 10
273.0297
 20
346.416
 10
273.0204
 20
346.3948
 10
273.012
 20
346.3738
 10
273.0041
 20
346.3523
 10
272.9973
 20
346.3311
 10
272.9918
 20
346.309
 10
272.9877
 20
346.287
 10
272.9848
 20
346.2671
 10
272.9841
 20
346.2437
 10
272.987
 20
346.2095
 10
272.9944
 20
346.1685
 10
273.0069
 20
346.1289
 10
273.0243
 20
346.0939
 10
273.0461
 20
346.0607
 10
273.0719
 20
346.0269
 10
273.1015
 20
345.9927
 10
273.1345
 20
345.9592
 10
273.1705
 20
345.9269
 10
273.209
 20
345.8953
 10
273.25
 20
345.8637
 10
273.2937
 20
345.8317
 10
273.3403
 20
345.7992
 10
273.3894
 20
345.7665
 10
273.4397
 20
345.7341
 10
273.4902
 20
345.7023
 10
273.5411
 20
345.6709
 10
273.5944
 20
345.6387
 10
273.6532
 20
345.604
 10
273.7206
 20
345.5653
 10
273.7986
 20
345.5213
 10
273.8878
 20
345.4715
 10
273.9875
 20
345.4158
 10
274.0964
 20
345.3544
 10
274.2129
 20
345.2879
 10
274.3352
 20
345.2167
 10
274.4621
 20
345.1412
 10
274.5924
 20
345.0618
 10
274.7256
 20
344.9786
 10
274.8611
 20
344.8919
 10
274.9989
 20
344.8018
 10
275.1387
 20
344.7084
 10
275.2806
 20
344.6118
 10
275.4245
 20
344.5122
 10
275.5702
 20
344.4098
 10
275.7177
 20
344.305
 10
275.8667
 20
344.198
 10
276.0169
 20
344.0892
 10
276.1681
 20
343.9787
 10
276.3199
 20
343.8669
 10
276.4722
 20
343.7538
 10
276.6246
 20
343.6394
 10
276.7769
 20
343.5238
 10
276.9291
 20
343.4065
 10
277.0809
 20
343.2872
 10
277.2324
 20
343.1655
 10
277.3835
 20
343.0408
 10
277.5342
 20
342.9125
 10
277.6844
 20
342.7803
 10
277.8341
 20
342.6439
 10
277.9833
 20
342.5031
 10
278.1318
 20
342.358
 10
278.2794
 20
342.209
 10
278.4261
 20
342.0569
 10
278.5713
 20
341.9025
 10
278.7149
 20
341.7471
 10
278.8564
 20
341.5919
 10
278.9954
 20
341.4381
 10
279.1316
 20
341.2867
 10
279.2648
 20
341.1384
 10
279.3947
 20
340.9937
 10
279.5211
 20
340.8522
 10
279.644
 20
340.7133
 10
279.7634
 20
340.5753
 10
279.8797
 20
340.4362
 10
279.9931
 20
340.2932
 10
280.1039
 20
340.1435
 10
280.2124
 20
339.9843
 10
280.3188
 20
339.8132
 10
280.4233
 20
339.6283
 10
280.5257
 20
339.4289
 10
280.6258
 20
339.215
 10
280.723
 20
338.9884
 10
280.8165
 20
338.7524
 10
280.905
 20
338.512
 10
280.9872
 20
338.2733
 10
281.0617
 20
338.0431
 10
281.1271
 20
337.8281
 10
281.1824
 20
337.6343
 10
281.2269
 20
337.4664
 10
281.2605
 20
337.3275
 10
281.2837
 20
337.2178
 10
281.298
 20
337.1346
 10
281.3057
 20
337.0715
 10
281.3099
 20
337.0195
 10
281.3134
 20
336.9694
 10
281.3179
 20
336.9157
 10
281.3237
 20
336.858
 10
281.3298
 20
336.7991
 10
281.3354
 20
336.7415
 10
281.3403
 20
336.6856
 10
281.3447
 20
336.6302
 10
281.3491
 20
336.5743
 10
281.3534
 20
336.5181
 10
281.3576
 20
336.4623
 10
281.3616
 20
336.4075
 10
281.3651
 20
336.3527
 10
281.368
 20
336.2964
 10
281.3706
 20
336.2388
 10
281.3728
 20
336.1824
 10
281.3749
 20
336.1302
 10
281.3768
 20
336.0824
 10
281.378
 20
336.0331
 10
281.3779
 20
335.9726
 10
281.3757
 20
335.8911
 10
281.3707
 20
335.7826
 10
281.3625
 20
335.6454
 10
281.3507
 20
335.4817
 10
281.3353
 20
335.2962
 10
281.3162
 20
335.0956
 10
281.2934
 20
334.8873
 10
281.2669
 20
334.6787
 10
281.2369
 20
334.4761
 10
281.2033
 20
334.284
 10
281.1662
 20
334.1046
 10
281.1255
 20
333.9382
 10
281.0812
 20
333.7834
 10
281.0332
 20
333.638
 10
280.9814
 20
333.4989
 10
280.9258
 20
333.3629
 10
280.8665
 20
333.2272
 10
280.8035
 20
333.0897
 10
280.7371
 20
332.949
 10
280.6674
 20
332.8051
 10
280.5945
 20
332.6584
 10
280.5188
 20
332.5098
 10
280.4405
 20
332.3608
 10
280.3595
 20
332.2128
 10
280.276
 20
332.0671
 10
280.1898
 20
331.9248
 10
280.1007
 20
331.7865
 10
280.0084
 20
331.6524
 10
279.9125
 20
331.5222
 10
279.8127
 20
331.3955
 10
279.7086
 20
331.2718
 10
279.6002
 20
331.1505
 10
279.4876
 20
331.0309
 10
279.371
 20
330.9128
 10
279.2511
 20
330.796
 10
279.1288
 20
330.6807
 10
279.005
 20
330.5673
 10
278.8809
 20
330.4562
 10
278.7571
 20
330.348
 10
278.6344
 20
330.243
 10
278.5129
 20
330.1417
 10
278.3922
 20
330.044
 10
278.2711
 20
329.9498
 10
278.1481
 20
329.8586
 10
278.021
 20
329.7697
 10
277.8877
 20
329.6823
 10
277.7461
 20
329.5957
 10
277.5948
 20
329.5092
 10
277.4332
 20
329.4225
 10
277.2617
 20
329.3358
 10
277.0823
 20
329.2495
 10
276.8983
 20
329.1649
 10
276.7145
 20
329.0834
 10
276.536
 20
329.0069
 10
276.3682
 20
328.9371
 10
276.2158
 20
328.8755
 10
276.0821
 20
328.8234
 10
275.9692
 20
328.781
 10
275.8762
 20
328.748
 10
275.7999
 20
328.7227
 10
275.7343
 20
328.7028
 10
275.6728
 20
328.6854
 10
275.61
 20
328.6684
 10
275.5434
 20
328.6508
 10
275.4735
 20
328.6327
 10
275.4025
 20
328.615
 10
275.3324
 20
328.5984
 10
275.264
 20
328.5834
 10
275.1967
 20
328.5699
 10
275.1295
 20
328.5575
 10
275.0618
 20
328.5458
 10
274.9938
 20
328.5348
 10
274.9262
 20
328.5243
 10
274.8594
 20
328.5147
 10
274.7931
 20
328.5061
 10
274.7263
 20
328.4987
 10
274.6582
 20
328.4923
 10
274.5888
 20
328.4869
 10
274.5201
 20
328.4823
 10
274.4547
 20
328.4781
 10
274.3935
 20
328.4744
 10
274.3346
 20
328.4712
 10
274.2722
 20
328.4694
 10
274.1991
 20
328.4696
 10
274.109
 20
328.4728
 10
273.9986
 20
328.4797
 10
273.8683
 20
328.4908
 10
273.721
 20
328.5063
 10
273.5613
 20
328.5263
 10
273.3949
 20
328.551
 10
273.2276
 20
328.5803
 10
273.0642
 20
328.614
 10
272.9082
 20
328.6521
 10
272.7607
 20
328.6944
 10
272.6219
 20
328.7408
 10
272.4903
 20
328.7914
 10
272.364
 20
328.8458
 10
272.2408
 20
328.9042
 10
272.1185
 20
328.9663
 10
271.9956
 20
329.0321
 10
271.8711
 20
329.1013
 10
271.7451
 20
329.174
 10
271.6181
 20
329.2499
 10
271.4909
 20
329.329
 10
271.3646
 20
329.4112
 10
271.2403
 20
329.4963
 10
271.119
 20
329.5844
 10
271.0013
 20
329.6755
 10
270.8874
 20
329.7696
 10
270.7775
 20
329.8668
 10
270.6712
 20
329.967
 10
270.5684
 20
330.0704
 10
270.4687
 20
330.1769
 10
270.3718
 20
330.2864
 10
270.2774
 20
330.3986
 10
270.1857
 20
330.5134
 10
270.0967
 20
330.6303
 10
270.0106
 20
330.749
 10
269.9277
 20
330.8692
 10
269.8483
 20
330.9908
 10
269.7726
 20
331.1137
 10
269.7011
 20
331.2381
 10
269.6339
 20
331.3642
 10
269.5711
 20
331.4927
 10
269.513
 20
331.6241
 10
269.4595
 20
331.7589
 10
269.4108
 20
331.8974
 10
269.3669
 20
332.0396
 10
269.3279
 20
332.1851
 10
269.2938
 20
332.333
 10
269.2648
 20
332.4819
 10
269.2409
 20
332.6301
 10
269.2223
 20
332.7759
 10
269.2091
 20
332.9176
 10
269.2012
 20
333.0538
 10
269.1987
 20
333.1835
 10
269.2016
 20
333.3065
 10
269.2098
 20
333.4232
 10
269.223
 20
333.5346
 10
269.2413
 20
333.6418
 10
269.2646
 20
333.7463
 10
269.2926
 20
333.8489
 10
269.3255
 20
333.9502
 10
269.3634
 20
334.0503
 10
269.4063
 20
334.1488
 10
269.4543
 20
334.2451
 10
269.5073
 20
334.3387
 10
269.565
 20
334.4288
 10
269.627
 20
334.5153
 10
269.6928
 20
334.598
 10
269.7619
 20
334.677
 10
269.8337
 20
334.7525
 10
269.9082
 20
334.8248
 10
269.9857
 20
334.8942
 10
270.0667
 20
334.9611
 10
270.1518
 20
335.0256
 10
270.2414
 20
335.0878
 10
270.3354
 20
335.1478
 10
270.4329
 20
335.2055
 10
270.5323
 20
335.2605
 10
270.6316
 20
335.3125
 10
270.7289
 20
335.3612
 10
270.8231
 20
335.4065
 10
270.9145
 20
335.4488
 10
271.0053
 20
335.4886
 10
271.0994
 20
335.5271
 10
271.201
 20
335.5653
 10
271.3134
 20
335.6042
 10
271.4379
 20
335.6441
 10
271.5725
 20
335.6847
 10
271.7105
 20
335.7244
 10
271.8424
 20
335.7611
 10
271.9579
 20
335.7925
 10
272.0492
 20
335.8167
 10
272.113
 20
335.8333
 10
272.1536
 20
335.8436
 10
272.1831
 20
335.8508
 10
272.2136
 20
335.8581
 10
272.248
 20
335.8663
 10
272.2827
 20
335.8743
 10
272.3158
 20
335.8815
 10
272.3489
 20
335.8881
 10
272.3826
 20
335.8945
 10
272.4159
 20
335.9003
 10
272.4491
 20
335.9054
 10
272.4839
 20
335.9095
 10
272.5187
 20
335.9128
 10
272.5498
 20
335.9156
 10
272.5797
 20
335.9175
 10
272.6202
 20
335.9172
 10
272.6829
 20
335.9131
 10
272.7703
 20
335.9043
 10
272.8772
 20
335.8902
 10
272.9939
 20
335.8707
 10
273.11
 20
335.846
 10
273.2177
 20
335.8161
 10
273.3138
 20
335.7814
 10
273.3997
 20
335.7419
 10
273.4787
 20
335.6977
 10
273.5551
 20
335.6491
 10
273.6321
 20
335.5962
 10
273.7112
 20
335.5391
 10
273.7917
 20
335.4782
 10
273.8722
 20
335.4136
 10
273.9506
 20
335.3456
 10
274.0253
 20
335.2742
 10
274.0955
 20
335.1994
 10
274.1611
 20
335.1214
 10
274.2225
 20
335.04
 10
274.2806
 20
334.9553
 10
274.336
 20
334.8676
 10
274.3889
 20
334.7772
 10
274.4396
 20
334.6846
 10
274.4876
 20
334.5902
 10
274.5328
 20
334.4945
 10
274.5747
 20
334.3976
 10
274.6129
 20
334.2991
 10
274.6474
 20
334.1985
 10
274.6781
 20
334.095
 10
274.7049
 20
333.9882
 10
274.7281
 20
333.8777
 10
274.7475
 20
333.7639
 10
274.7634
 20
333.6483
 10
274.7759
 20
333.5327
 10
274.785
 20
333.4192
 10
274.7911
 20
333.3099
 10
274.7944
 20
333.206
 10
274.7956
 20
333.1077
 10
274.7953
 20
333.0139
 10
274.7944
 20
332.9225
 10
274.7939
 20
332.8312
 10
274.7947
 20
332.7379
 10
274.7973
 20
332.6417
 10
274.8025
 20
332.5427
 10
274.8105
 20
332.4422
 10
274.8216
 20
332.342
 10
274.836
 20
332.2438
 10
274.8538
 20
332.1488
 10
274.8752
 20
332.0576
 10
274.9004
 20
331.97
 10
274.9293
 20
331.8855
 10
274.9621
 20
331.8036
 10
274.9985
 20
331.7239
 10
275.0382
 20
331.6465
 10
275.0811
 20
331.572
 10
275.1269
 20
331.5007
 10
275.1758
 20
331.4332
 10
275.2282
 20
331.3694
 10
275.2847
 20
331.3095
 10
275.3455
 20
331.2534
 10
275.4104
 20
331.201
 10
275.4784
 20
331.1526
 10
275.5478
 20
331.1085
 10
275.617
 20
331.069
 10
275.6855
 20
331.0343
 10
275.7547
 20
331.0041
 10
275.8277
 20
330.9777
 10
275.9078
 20
330.9545
 10
275.9963
 20
330.934
 10
276.0909
 20
330.9164
 10
276.1848
 20
330.9031
 10
276.2692
 20
330.8957
 10
276.3373
 20
330.8957
 10
276.3883
 20
330.9035
 10
276.4302
 20
330.918
 10
276.477
 20
330.9372
 10
276.5415
 20
330.9587
 10
276.6288
 20
330.9816
 10
276.7366
 20
331.0057
 10
276.8577
 20
331.0317
 10
276.9831
 20
331.0605
 10
277.1039
 20
331.0932
 10
277.2148
 20
331.1303
 10
277.3143
 20
331.1719
 10
277.4041
 20
331.2178
 10
277.4877
 20
331.2676
 10
277.5687
 20
331.3207
 10
277.6502
 20
331.3769
 10
277.7333
 20
331.436
 10
277.8176
 20
331.4981
 10
277.9016
 20
331.5633
 10
277.9836
 20
331.6319
 10
278.0619
 20
331.7038
 10
278.1356
 20
331.7789
 10
278.2047
 20
331.8571
 10
278.2696
 20
331.9379
 10
278.3308
 20
332.0211
 10
278.389
 20
332.1065
 10
278.4446
 20
332.1942
 10
278.4975
 20
332.2845
 10
278.5474
 20
332.3778
 10
278.5937
 20
332.4744
 10
278.6363
 20
332.5743
 10
278.6748
 20
332.6771
 10
278.7095
 20
332.7819
 10
278.7406
 20
332.8876
 10
278.7686
 20
332.993
 10
278.7939
 20
333.0972
 10
278.8166
 20
333.2004
 10
278.8365
 20
333.3033
 10
278.8528
 20
333.4079
 10
278.8648
 20
333.5169
 10
278.8711
 20
333.6329
 10
278.8706
 20
333.7586
 10
278.8622
 20
333.8957
 10
278.8452
 20
334.045
 10
278.8189
 20
334.2061
 10
278.7829
 20
334.3775
 10
278.7372
 20
334.557
 10
278.6818
 20
334.742
 10
278.617
 20
334.9295
 10
278.543
 20
335.1165
 10
278.4602
 20
335.3004
 10
278.3691
 20
335.4788
 10
278.2701
 20
335.65
 10
278.1637
 20
335.8134
 10
278.0501
 20
335.9687
 10
277.9299
 20
336.1161
 10
277.8035
 20
336.2565
 10
277.6713
 20
336.3908
 10
277.5336
 20
336.5203
 10
277.391
 20
336.6462
 10
277.2439
 20
336.7696
 10
277.0926
 20
336.8914
 10
276.9377
 20
337.0122
 10
276.7797
 20
337.1323
 10
276.6189
 20
337.2519
 10
276.4559
 20
337.3706
 10
276.291
 20
337.4883
 10
276.1246
 20
337.6044
 10
275.9569
 20
337.7187
 10
275.7881
 20
337.8306
 10
275.6184
 20
337.9397
 10
275.4476
 20
338.0458
 10
275.2758
 20
338.1489
 10
275.1026
 20
338.2488
 10
274.9278
 20
338.3459
 10
274.7511
 20
338.4403
 10
274.5723
 20
338.5324
 10
274.3911
 20
338.6224
 10
274.2076
 20
338.7108
 10
274.0218
 20
338.7976
 10
273.8341
 20
338.8831
 10
273.6451
 20
338.9673
 10
273.4556
 20
339.0501
 10
273.2668
 20
339.1313
 10
273.0799
 20
339.2105
 10
272.8961
 20
339.2872
 10
272.7165
 20
339.3612
 10
272.5422
 20
339.4322
 10
272.3735
 20
339.4997
 10
272.2107
 20
339.5639
 10
272.0533
 20
339.6248
 10
271.9001
 20
339.6828
 10
271.7492
 20
339.7384
 10
271.5985
 20
339.7926
 10
271.4456
 20
339.8459
 10
271.2888
 20
339.8992
 10
271.127
 20
339.9528
 10
270.9604
 20
340.0068
 10
270.7912
 20
340.0605
 10
270.6232
 20
340.1129
 10
270.463
 20
340.1618
 10
270.3185
 20
340.2047
 10
270.1974
 20
340.2392
 10
270.1054
 20
340.2632
 10
270.0435
 20
340.2761
 10
270.0068
 20
340.2791
 10
269.9829
 20
340.2754
 10
269.9584
 20
340.269
 10
269.9299
 20
340.2612
 10
269.9011
 20
340.2515
 10
269.8734
 20
340.2402
 10
269.8454
 20
340.2277
 10
269.8168
 20
340.2145
 10
269.7882
 20
340.2004
 10
269.7605
 20
340.186
 10
269.7335
 20
340.1716
 10
269.706
 20
340.1566
 10
269.6784
 20
340.1412
 10
269.654
 20
340.1275
 10
269.6345
 20
340.1165
 10
269.6169
 20
340.1067
 10
269.5994
 20
340.0971
 10
269.5829
 20
340.0884
 10
269.5678
 20
340.0807
 10
269.5543
 20
340.0745
 10
269.5429
 20
340.0704
 10
269.5334
 20
340.0679
 10
269.5292
 20
340.0716
 10
269.5246
 20
340.0704
 10
269.5181
 20
340.0606
 10
269.507
 20
340.0417
 10
269.4906
 20
340.0125
 10
269.4686
 20
339.9725
 10
269.441
 20
339.9216
 10
269.4078
 20
339.8602
 10
269.3267
 20
339.7098
 10
269.2303
 20
339.531
 10
269.1247
 20
339.3356
 10
269.0157
 20
339.1343
 10
268.9075
 20
338.9353
 10
268.8028
 20
338.7437
 10
268.703
 20
338.5621
 10
268.6085
 20
338.3908
 10
268.5184
 20
338.2285
 10
268.4317
 20
338.0729
 10
268.3465
 20
337.9206
 10
268.2612
 20
337.7682
 10
268.1741
 20
337.6123
 10
268.0835
 20
337.4503
 10
267.9888
 20
337.2801
 10
267.8892
 20
337.1008
 10
267.7848
 20
336.9123
 10
267.6756
 20
336.7149
 10
267.5623
 20
336.5095
 10
267.4455
 20
336.2975
 10
267.3259
 20
336.0802
 10
267.2045
 20
335.8595
 10
267.0821
 20
335.637
 10
266.9595
 20
335.4143
 10
266.8375
 20
335.1927
 10
266.7165
 20
334.9732
 10
266.5969
 20
334.7564
 10
266.4789
 20
334.5426
 10
266.3624
 20
334.3319
 10
266.2475
 20
334.124
 10
266.1338
 20
333.9187
 10
266.0212
 20
333.7155
 10
265.9094
 20
333.5137
 10
265.7981
 20
333.3129
 10
265.6871
 20
333.1125
 10
265.5761
 20
332.9121
 10
265.4649
 20
332.7114
 10
265.3535
 20
332.5102
 10
265.2419
 20
332.3086
 10
265.1303
 20
332.1067
 10
265.0187
 20
331.9049
 10
264.9073
 20
331.7036
 10
264.7965
 20
331.5031
 10
264.6864
 20
331.3041
 10
264.5774
 20
331.1069
 10
264.4696
 20
330.9121
 10
264.3633
 20
330.7201
 10
264.2587
 20
330.5312
 10
264.1559
 20
330.3456
 10
264.055
 20
330.1635
 10
263.9561
 20
329.9849
 10
263.8592
 20
329.8099
 10
263.7644
 20
329.6388
 10
263.672
 20
329.4718
 10
263.5822
 20
329.3096
 10
263.4956
 20
329.1528
 10
263.4127
 20
329.0026
 10
263.3344
 20
328.8605
 10
263.2618
 20
328.7286
 10
263.1959
 20
328.6088
 10
263.1377
 20
328.5032
 10
263.0877
 20
328.4128
 10
263.0457
 20
328.3379
 10
263.0101
 20
328.277
 10
262.9786
 20
328.2267
 10
262.9479
 20
328.1823
 10
262.9149
 20
328.1398
 10
262.8782
 20
328.097
 10
262.8382
 20
328.0541
 10
262.796
 20
328.0127
 10
262.7526
 20
327.974
 10
262.708
 20
327.9382
 10
262.6619
 20
327.9048
 10
262.614
 20
327.8733
 10
262.5646
 20
327.8437
 10
262.5142
 20
327.8162
 10
262.4628
 20
327.7912
 10
262.4103
 20
327.7689
 10
262.3563
 20
327.7492
 10
262.3009
 20
327.7323
 10
262.2451
 20
327.7179
 10
262.1901
 20
327.7061
 10
262.1362
 20
327.6971
 10
262.0816
 20
327.6911
 10
262.0233
 20
327.6884
 10
261.9592
 20
327.6895
 10
261.8893
 20
327.6944
 10
261.8158
 20
327.7035
 10
261.742
 20
327.7167
 10
261.6708
 20
327.7342
 10
261.6034
 20
327.7559
 10
261.5393
 20
327.7819
 10
261.4777
 20
327.8121
 10
261.4176
 20
327.8462
 10
261.3589
 20
327.8837
 10
261.3022
 20
327.9243
 10
261.2482
 20
327.9677
 10
261.1972
 20
328.0143
 10
261.1496
 20
328.0644
 10
261.1052
 20
328.1185
 10
261.064
 20
328.1763
 10
261.0259
 20
328.2363
 10
260.9911
 20
328.2968
 10
260.9598
 20
328.3567
 10
260.932
 20
328.4168
 10
260.9081
 20
328.48
 10
260.8881
 20
328.55
 10
260.872
 20
328.6279
 10
260.8599
 20
328.71
 10
260.8518
 20
328.788
 10
260.8474
 20
328.8527
 10
260.8461
 20
328.8996
 10
260.8472
 20
328.9333
 10
260.8497
 20
328.9644
 10
260.853
 20
328.9992
 10
260.8571
 20
329.0363
 10
260.8623
 20
329.0725
 10
260.8687
 20
329.1078
 10
260.8761
 20
329.1435
 10
260.8844
 20
329.1795
 10
260.8934
 20
329.2148
 10
260.9037
 20
329.25
 10
260.9157
 20
329.2861
 10
260.9285
 20
329.3213
 10
260.9407
 20
329.3531
 10
260.9538
 20
329.3836
 10
260.9722
 20
329.4212
 10
261.0005
 20
329.4747
 10
261.0414
 20
329.5492
 10
261.0953
 20
329.6459
 10
261.1609
 20
329.7629
 10
261.2359
 20
329.8965
 10
261.3177
 20
330.0421
 10
261.4037
 20
330.1956
 10
261.4923
 20
330.354
 10
261.5821
 20
330.5151
 10
261.6726
 20
330.6777
 10
261.7634
 20
330.8413
 10
261.8546
 20
331.0061
 10
261.9466
 20
331.1724
 10
262.0397
 20
331.3409
 10
262.1344
 20
331.5123
 10
262.2311
 20
331.6873
 10
262.33
 20
331.8663
 10
262.4313
 20
332.0492
 10
262.5349
 20
332.2361
 10
262.6405
 20
332.4266
 10
262.7481
 20
332.6203
 10
262.8573
 20
332.8167
 10
262.9677
 20
333.0152
 10
263.0789
 20
333.2152
 10
263.1908
 20
333.4161
 10
263.3029
 20
333.6175
 10
263.415
 20
333.819
 10
263.527
 20
334.0202
 10
263.6389
 20
334.2213
 10
263.7505
 20
334.422
 10
263.8619
 20
334.6227
 10
263.9733
 20
334.8234
 10
264.0846
 20
335.0242
 10
264.1961
 20
335.2255
 10
264.3077
 20
335.4273
 10
264.4196
 20
335.6297
 10
264.5317
 20
335.8328
 10
264.6441
 20
336.0363
 10
264.7565
 20
336.2401
 10
264.8688
 20
336.4438
 10
264.9808
 20
336.6467
 10
265.0921
 20
336.8484
 10
265.2024
 20
337.0481
 10
265.3115
 20
337.2454
 10
265.419
 20
337.4396
 10
265.5248
 20
337.6303
 10
265.6286
 20
337.8172
 10
265.7303
 20
338.0002
 10
265.8301
 20
338.1795
 10
265.9281
 20
338.3553
 10
266.0245
 20
338.5285
 10
266.1197
 20
338.6998
 10
266.2142
 20
338.8701
 10
266.3082
 20
339.0401
 10
266.4019
 20
339.2104
 10
266.4954
 20
339.3808
 10
266.5882
 20
339.5511
 10
266.6799
 20
339.7199
 10
266.7693
 20
339.8852
 10
266.8549
 20
340.044
 10
266.9348
 20
340.1925
 10
267.0071
 20
340.3267
 10
267.0699
 20
340.4429
 10
267.1221
 20
340.539
 10
267.1635
 20
340.6145
 10
267.1953
 20
340.6718
 10
267.22
 20
340.7161
 10
267.2414
 20
340.755
 10
267.2623
 20
340.7943
 10
267.2835
 20
340.836
 10
267.3043
 20
340.8783
 10
267.3235
 20
340.9192
 10
267.341
 20
340.9586
 10
267.3571
 20
340.9972
 10
267.372
 20
341.0358
 10
267.3856
 20
341.0741
 10
267.3975
 20
341.1116
 10
267.4077
 20
341.1484
 10
267.416
 20
341.1846
 10
267.4225
 20
341.2203
 10
267.4269
 20
341.2555
 10
267.4292
 20
341.29
 10
267.4293
 20
341.3235
 10
267.4269
 20
341.3559
 10
267.4219
 20
341.3869
 10
267.4142
 20
341.4162
 10
267.4038
 20
341.4439
 10
267.3904
 20
341.47
 10
267.3741
 20
341.4945
 10
267.3553
 20
341.5174
 10
267.3345
 20
341.5384
 10
267.3109
 20
341.5585
 10
267.2843
 20
341.578
 10
267.2569
 20
341.5958
 10
267.2302
 20
341.6113
 10
267.2002
 20
341.6274
 10
267.158
 20
341.6496
 10
267.0974
 20
341.6822
 10
267.0166
 20
341.7269
 10
266.9178
 20
341.7827
 10
266.8052
 20
341.8477
 10
266.684
 20
341.919
 10
266.5585
 20
341.9944
 10
266.4316
 20
342.0724
 10
266.3048
 20
342.152
 10
266.1784
 20
342.233
 10
266.0521
 20
342.3155
 10
265.9248
 20
342.4
 10
265.7957
 20
342.4868
 10
265.6636
 20
342.5766
 10
265.5279
 20
342.6694
 10
265.3885
 20
342.7654
 10
265.2453
 20
342.8644
 10
265.0989
 20
342.9661
 10
264.9498
 20
343.0702
 10
264.7987
 20
343.1763
 10
264.6464
 20
343.284
 10
264.4934
 20
343.3929
 10
264.3405
 20
343.503
 10
264.1879
 20
343.6141
 10
264.0359
 20
343.7263
 10
263.8846
 20
343.8397
 10
263.7339
 20
343.9545
 10
263.5836
 20
344.0711
 10
263.4336
 20
344.1895
 10
263.2838
 20
344.3101
 10
263.1341
 20
344.4329
 10
262.9843
 20
344.5578
 10
262.8346
 20
344.6847
 10
262.6851
 20
344.8132
 10
262.5361
 20
344.9429
 10
262.388
 20
345.0731
 10
262.2411
 20
345.2034
 10
262.0959
 20
345.3333
 10
261.9527
 20
345.4625
 10
261.8117
 20
345.5906
 10
261.6733
 20
345.7178
 10
261.5375
 20
345.8443
 10
261.4041
 20
345.9709
 10
261.273
 20
346.0983
 10
261.1438
 20
346.2279
 10
261.0162
 20
346.3607
 10
260.8898
 20
346.4979
 10
260.7645
 20
346.6403
 10
260.6402
 20
346.7886
 10
260.517
 20
346.9428
 10
260.3955
 20
347.1025
 10
260.2763
 20
347.2664
 10
260.1607
 20
347.4326
 10
260.0501
 20
347.5984
 10
259.946
 20
347.7611
 10
259.8498
 20
347.9175
 10
259.763
 20
348.0652
 10
259.6864
 20
348.2018
 10
259.6205
 20
348.3261
 10
259.5649
 20
348.4377
 10
259.5188
 20
348.5377
 10
259.4803
 20
348.6286
 10
259.447
 20
348.7136
 10
259.4167
 20
348.7963
 10
259.3872
 20
348.8795
 10
259.3572
 20
348.9653
 10
259.3265
 20
349.0541
 10
259.2953
 20
349.1453
 10
259.2645
 20
349.2376
 10
259.2349
 20
349.3299
 10
259.2071
 20
349.4213
 10
259.1812
 20
349.5117
 10
259.1571
 20
349.6015
 10
259.1346
 20
349.6913
 10
259.1131
 20
349.7816
 10
259.0925
 20
349.8724
 10
259.0727
 20
349.9636
 10
259.0538
 20
350.0547
 10
259.0359
 20
350.1453
 10
259.0192
 20
350.2352
 10
259.0037
 20
350.3248
 10
258.9896
 20
350.4149
 10
258.9769
 20
350.5062
 10
258.9656
 20
350.5993
 10
258.9555
 20
350.6936
 10
258.9465
 20
350.7879
 10
258.9384
 20
350.8801
 10
258.9311
 20
350.9688
 10
258.9246
 20
351.0534
 10
258.919
 20
351.1351
 10
258.9146
 20
351.2176
 10
258.9119
 20
351.3056
 10
258.9115
 20
351.4045
 10
258.9138
 20
351.5189
 10
258.9193
 20
351.6519
 10
258.9284
 20
351.8041
 10
258.9413
 20
351.9747
 10
258.9583
 20
352.1613
 10
258.9794
 20
352.3603
 10
259.0046
 20
352.5678
 10
259.0341
 20
352.7792
 10
259.0678
 20
352.9906
 10
259.1055
 20
353.1981
 10
259.1473
 20
353.399
 10
259.1932
 20
353.5919
 10
259.2429
 20
353.7761
 10
259.2965
 20
353.9519
 10
259.3539
 20
354.1204
 10
259.415
 20
354.283
 10
259.4798
 20
354.4413
 10
259.5481
 20
354.5971
 10
259.6199
 20
354.7518
 10
259.6951
 20
354.9068
 10
259.7736
 20
355.0628
 10
259.8553
 20
355.2199
 10
259.9401
 20
355.378
 10
260.028
 20
355.5366
 10
260.1188
 20
355.6951
 10
260.2126
 20
355.8525
 10
260.3091
 20
356.0081
 10
260.4084
 20
356.161
 10
260.5105
 20
356.3107
 10
260.6153
 20
356.4567
 10
260.7229
 20
356.5987
 10
260.8332
 20
356.7368
 10
260.9463
 20
356.871
 10
261.0622
 20
357.0016
 10
261.1807
 20
357.1286
 10
261.302
 20
357.2524
 10
261.4258
 20
357.3733
 10
261.5521
 20
357.4913
 10
261.6807
 20
357.6065
 10
261.8113
 20
357.7188
 10
261.9438
 20
357.8283
 10
262.078
 20
357.9347
 10
262.2136
 20
358.0378
 10
262.3507
 20
358.1373
 10
262.489
 20
358.233
 10
262.6287
 20
358.3246
 10
262.7698
 20
358.4118
 10
262.9127
 20
358.4943
 10
263.0576
 20
358.572
 10
263.2047
 20
358.6446
 10
263.3544
 20
358.712
 10
263.5066
 20
358.7739
 10
263.6615
 20
358.8302
 10
263.8186
 20
358.8809
 10
263.9776
 20
358.9258
 10
264.1376
 20
358.9649
 10
264.2977
 20
358.9982
 10
264.4568
 20
359.0259
 10
264.6138
 20
359.0479
 10
264.7679
 20
359.0646
 10
264.9183
 20
359.0761
 10
265.0645
 20
359.0827
 10
265.2065
 20
359.085
 10
265.3448
 20
359.0833
 10
265.4801
 20
359.0782
 10
265.6132
 20
359.0703
 10
265.7453
 20
359.06
 10
265.8774
 20
359.0478
 10
266.0103
 20
359.0339
 10
266.1444
 20
359.0187
 10
266.2801
 20
359.0021
 10
266.4172
 20
358.984
 10
266.5554
 20
358.9642
 10
266.6941
 20
358.9426
 10
266.833
 20
358.9188
 10
266.9715
 20
358.8928
 10
267.1093
 20
358.8645
 10
267.246
 20
358.8339
 10
267.3815
 20
358.801
 10
267.5158
 20
358.7661
 10
267.649
 20
358.7292
 10
267.781
 20
358.6905
 10
267.912
 20
358.6498
 10
268.042
 20
358.607
 10
268.1711
 20
358.5619
 10
268.2993
 20
358.5141
 10
268.4265
 20
358.4632
 10
268.5526
 20
358.4089
 10
268.6773
 20
358.351
 10
268.8005
 20
358.2895
 10
268.9219
 20
358.2248
 10
269.0409
 20
358.1573
 10
269.1573
 20
358.0877
 10
269.2706
 20
358.0166
 10
269.3805
 20
357.9445
 10
269.4868
 20
357.8714
 10
269.5895
 20
357.797
 10
269.6887
 20
357.7202
 10
269.7846
 20
357.6394
 10
269.8778
 20
357.5528
 10
269.9684
 20
357.4589
 10
270.0565
 20
357.3567
 10
270.1419
 20
357.2461
 10
270.2237
 20
357.1283
 10
270.3009
 20
357.0061
 10
270.3717
 20
356.8832
 10
270.4346
 20
356.7642
 10
270.4883
 20
356.6528
 10
270.5321
 20
356.5522
 10
270.5661
 20
356.4637
 10
270.5919
 20
356.3861
 10
270.6119
 20
356.3162
 10
270.6291
 20
356.2497
 10
270.6459
 20
356.1827
 10
270.6637
 20
356.1129
 10
270.6826
 20
356.0405
 10
270.7017
 20
355.9667
 10
270.72
 20
355.893
 10
270.7369
 20
355.8205
 10
270.7523
 20
355.7489
 10
270.7665
 20
355.6776
 10
270.7801
 20
355.606
 10
270.7931
 20
355.5339
 10
270.8057
 20
355.4617
 10
270.8176
 20
355.3899
 10
270.8286
 20
355.3188
 10
270.8387
 20
355.2478
 10
270.8476
 20
355.1762
 10
270.8555
 20
355.1032
 10
270.8625
 20
355.0294
 10
270.8686
 20
354.956
 10
270.8739
 20
354.8851
 10
270.8786
 20
354.8177
 10
270.8825
 20
354.7526
 10
270.8851
 20
354.686
 10
270.8862
 20
354.6126
 10
270.8851
 20
354.5277
 10
270.8813
 20
354.4288
 10
270.8745
 20
354.3166
 10
270.8642
 20
354.1941
 10
270.8502
 20
354.0659
 10
270.8323
 20
353.9368
 10
270.8103
 20
353.8113
 10
270.7842
 20
353.6921
 10
270.754
 20
353.5802
 10
270.7196
 20
353.4751
 10
270.681
 20
353.3752
 10
270.6384
 20
353.2786
 10
270.5918
 20
353.1837
 10
270.5411
 20
353.0896
 10
270.4865
 20
352.9962
 10
270.4279
 20
352.9042
 10
270.3654
 20
352.8143
 10
270.299
 20
352.7277
 10
270.2288
 20
352.645
 10
270.1549
 20
352.5667
 10
270.0776
 20
352.4928
 10
269.997
 20
352.4231
 10
269.9132
 20
352.3573
 10
269.8264
 20
352.2951
 10
269.7367
 20
352.2363
 10
269.6441
 20
352.181
 10
269.5487
 20
352.1293
 10
269.4505
 20
352.0814
 10
269.3496
 20
352.0374
 10
269.2463
 20
351.9974
 10
269.1409
 20
351.9614
 10
269.0339
 20
351.9292
 10
268.9255
 20
351.9006
 10
268.8161
 20
351.8755
 10
268.7058
 20
351.8538
 10
268.5944
 20
351.8353
 10
268.4816
 20
351.8203
 10
268.3668
 20
351.809
 10
268.2496
 20
351.8017
 10
268.1295
 20
351.7987
 10
268.0066
 20
351.8005
 10
267.8812
 20
351.8074
 10
267.7541
 20
351.8199
 10
267.6264
 20
351.8383
 10
267.4994
 20
351.8628
 10
267.3744
 20
351.8936
 10
267.2527
 20
351.9309
 10
267.1351
 20
351.9746
 10
267.022
 20
352.0246
 10
266.9137
 20
352.0807
 10
266.8099
 20
352.1425
 10
266.7103
 20
352.2097
 10
266.6146
 20
352.2819
 10
266.5223
 20
352.3586
 10
266.4332
 20
352.4394
 10
266.3473
 20
352.524
 10
266.2646
 20
352.612
 10
266.185
 20
352.7032
 10
266.1089
 20
352.7972
 10
266.0361
 20
352.8938
 10
265.9667
 20
352.9929
 10
265.9006
 20
353.0942
 10
265.8376
 20
353.1976
 10
265.7777
 20
353.3029
 10
265.7205
 20
353.4099
 10
265.666
 20
353.5183
 10
265.6139
 20
353.6278
 10
265.5641
 20
353.738
 10
265.5166
 20
353.8484
 10
265.4713
 20
353.9589
 10
265.4282
 20
354.069
 10
265.3871
 20
354.1786
 10
265.3481
 20
354.2877
 10
265.3109
 20
354.3967
 10
265.2754
 20
354.5058
 10
265.2416
 20
354.6151
 10
265.2093
 20
354.7247
 10
265.1783
 20
354.8342
 10
265.1486
 20
354.9426
 10
265.1203
 20
355.0487
 10
265.0932
 20
355.1508
 10
265.0675
 20
355.2476
 10
265.0432
 20
355.3376
 10
265.0203
 20
355.4203
 10
264.999
 20
355.4957
 10
264.9792
 20
355.5644
 10
264.9604
 20
355.6273
 10
264.9419
 20
355.6855
 10
264.9227
 20
355.74
 10
264.9015
 20
355.7913
 10
264.8775
 20
355.8398
 10
264.8506
 20
355.8854
 10
264.8211
 20
355.9277
 10
264.7895
 20
355.9664
 10
264.7557
 20
356.0014
 10
264.7199
 20
356.0327
 10
264.6822
 20
356.0602
 10
264.6429
 20
356.084
 10
264.6026
 20
356.104
 10
264.5611
 20
356.1206
 10
264.5183
 20
356.1342
 10
264.4747
 20
356.1448
 10
264.4315
 20
356.1523
 10
264.3896
 20
356.1566
 10
264.3477
 20
356.1588
 10
264.3025
 20
356.1607
 10
264.2498
 20
356.1633
 10
264.1864
 20
356.1654
 10
264.1103
 20
356.1643
  0
LWPOLYLINE
  5
37
330
17
100
AcDbEntity
  8
CUT
100
AcDbPolyline
 90
372
 70
1
 10
323.4
 20
340.7872
 10
323.4539
 20
340.7234
 10
323.5064
 20
340.672
 10
323.5562
 20
340.6263
 10
323.6011
 20
340.5753
 10
323.6407
 20
340.5177
 10
323.6757
 20
340.4585
 10
323.7062
 20
340.3998
 10
323.7317
 20
340.3395
 10
323.7518
 20
340.2768
 10
323.7671
 20
340.2138
 10
323.7775
 20
340.1515
 10
323.7821
 20
340.0858
 10
323.7795
 20
340.0111
 10
323.7685
 20
339.9265
 10
323.7492
 20
339.8355
 10
323.7218
 20
339.7425
 10
323.6869
 20
339.649
 10
323.6451
 20
339.5543
 10
323.5972
 20
339.4569
 10
323.5441
 20
339.3567
 10
323.4865
 20
339.2545
 10
323.4249
 20
339.1512
 10
323.359
 20
339.0468
 10
323.2881
 20
338.9403
 10
323.2116
 20
338.8308
 10
323.1302
 20
338.7184
 10
323.0457
 20
338.6049
 10
322.9607
 20
338.4928
 10
322.8767
 20
338.3838
 10
322.7927
 20
338.2769
 10
322.7049
 20
338.168
 10
322.6075
 20
338.0506
 10
322.4946
 20
337.9185
 10
322.3622
 20
337.7677
 10
322.2093
 20
337.5975
 10
322.0381
 20
337.4107
 10
321.8526
 20
337.2126
 10
321.6583
 20
337.0096
 10
321.4605
 20
336.8081
 10
321.264
 20
336.6138
 10
321.0718
 20
336.4302
 10
320.885
 20
336.2586
 10
320.703
 20
336.0983
 10
320.5243
 20
335.9474
 10
320.3466
 20
335.8033
 10
320.1677
 20
335.6635
 10
319.9856
 20
335.5263
 10
319.7996
 20
335.3909
 10
319.6093
 20
335.2576
 10
319.4151
 20
335.1275
 10
319.2179
 20
335.0017
 10
319.0187
 20
334.8816
 10
318.8185
 20
334.7682
 10
318.6184
 20
334.662
 10
318.4191
 20
334.563
 10
318.2209
 20
334.4708
 10
318.0239
 20
334.3853
 10
317.8274
 20
334.306
 10
317.6304
 20
334.2329
 10
317.431
 20
334.1659
 10
317.2277
 20
334.1054
 10
317.0191
 20
334.0519
 10
316.8052
 20
334.0056
 10
316.587
 20
333.9668
 10
316.3678
 20
333.9357
 10
316.1519
 20
333.9121
 10
315.9439
 20
333.8958
 10
315.748
 20
333.8865
 10
315.5665
 20
333.8837
 10
315.3991
 20
333.8871
 10
315.2427
 20
333.8962
 10
315.0929
 20
333.9108
 10
314.9451
 20
333.9305
 10
314.7963
 20
333.9552
 10
314.6457
 20
333.985
 10
314.4943
 20
334.02
 10
314.3439
 20
334.0602
 10
314.1963
 20
334.1059
 10
314.0523
 20
334.157
 10
313.9117
 20
334.2135
 10
313.774
 20
334.2755
 10
313.6383
 20
334.3427
 10
313.5046
 20
334.4151
 10
313.3729
 20
334.4926
 10
313.2436
 20
334.5752
 10
313.1171
 20
334.6627
 10
312.9936
 20
334.7551
 10
312.873
 20
334.8524
 10
312.7554
 20
334.9544
 10
312.6406
 20
335.0611
 10
312.5284
 20
335.1722
 10
312.419
 20
335.2876
 10
312.3125
 20
335.4071
 10
312.2092
 20
335.5303
 10
312.1092
 20
335.6569
 10
312.0128
 20
335.7866
 10
311.9201
 20
335.9192
 10
311.8313
 20
336.0543
 10
311.7465
 20
336.1918
 10
311.6657
 20
336.3319
 10
311.589
 20
336.4744
 10
311.5163
 20
336.6197
 10
311.4476
 20
336.7675
 10
311.383
 20
336.9179
 10
311.3223
 20
337.0703
 10
311.2655
 20
337.2243
 10
311.2127
 20
337.3796
 10
311.1639
 20
337.5364
 10
311.1189
 20
337.6952
 10
311.0779
 20
337.8569
 10
311.0408
 20
338.0219
 10
311.0076
 20
338.1903
 10
310.9781
 20
338.3611
 10
310.9523
 20
338.5323
 10
310.9301
 20
338.702
 10
310.9113
 20
338.869
 10
310.8959
 20
339.0338
 10
310.884
 20
339.1995
 10
310.8757
 20
339.3706
 10
310.8711
 20
339.5524
 10
310.8705
 20
339.7493
 10
310.8742
 20
339.9636
 10
310.8822
 20
340.1951
 10
310.8947
 20
340.4408
 10
310.9119
 20
340.6966
 10
310.9339
 20
340.9573
 10
310.9607
 20
341.2184
 10
310.9925
 20
341.476
 10
311.0291
 20
341.728
 10
311.0706
 20
341.974
 10
311.1169
 20
342.215
 10
311.1678
 20
342.4524
 10
311.2235
 20
342.6883
 10
311.2837
 20
342.9244
 10
311.3484
 20
343.162
 10
311.4176
 20
343.4015
 10
311.4912
 20
343.6427
 10
311.5692
 20
343.8852
 10
311.6517
 20
344.1279
 10
311.7384
 20
344.3702
 10
311.8295
 20
344.6113
 10
311.9248
 20
344.8507
 10
312.0242
 20
345.0884
 10
312.1277
 20
345.3244
 10
312.2352
 20
345.5591
 10
312.3466
 20
345.7927
 10
312.4619
 20
346.0256
 10
312.581
 20
346.258
 10
312.7039
 20
346.4901
 10
312.8307
 20
346.722
 10
312.9613
 20
346.9536
 10
313.0957
 20
347.1848
 10
313.234
 20
347.4155
 10
313.376
 20
347.6455
 10
313.5217
 20
347.8747
 10
313.6708
 20
348.103
 10
313.8232
 20
348.3301
 10
313.9786
 20
348.5558
 10
314.1368
 20
348.78
 10
314.2974
 20
349.0025
 10
314.4604
 20
349.2229
 10
314.6254
 20
349.441
 10
314.7923
 20
349.6563
 10
314.9609
 20
349.8685
 10
315.1311
 20
350.0773
 10
315.3028
 20
350.2823
 10
315.4759
 20
350.4831
 10
315.6502
 20
350.6794
 10
315.8258
 20
350.8712
 10
316.0025
 20
351.0583
 10
316.1803
 20
351.2406
 10
316.3592
 20
351.4181
 10
316.5392
 20
351.5907
 10
316.7205
 20
351.7583
 10
316.9032
 20
351.921
 10
317.0875
 20
352.0785
 10
317.2737
 20
352.2307
 10
317.462
 20
352.3773
 10
317.6524
 20
352.5181
 10
317.8449
 20
352.653
 10
318.0394
 20
352.7817
 10
318.2354
 20
352.904
 10
318.4323
 20
353.0198
 10
318.6296
 20
353.1288
 10
318.8269
 20
353.231
 10
319.0244
 20
353.3262
 10
319.2225
 20
353.414
 10
319.4222
 20
353.4943
 10
319.6247
 20
353.5668
 10
319.8309
 20
353.6312
 10
320.0415
 20
353.6873
 10
320.2559
 20
353.7349
 10
320.4724
 20
353.774
 10
320.6882
 20
353.8045
 10
320.8997
 20
353.8267
 10
321.1038
 20
353.8406
 10
321.2978
 20
353.8463
 10
321.4807
 20
353.8441
 10
321.6532
 20
353.834
 10
321.8173
 20
353.8161
 10
321.9755
 20
353.7903
 10
322.1299
 20
353.7566
 10
322.2814
 20
353.7145
 10
322.4295
 20
353.6639
 10
322.5728
 20
353.6042
 10
322.7098
 20
353.5353
 10
322.8391
 20
353.4569
 10
322.96
 20
353.3692
 10
323.0724
 20
353.2723
 10
323.1763
 20
353.1665
 10
323.2719
 20
353.0523
 10
323.3591
 20
352.9299
 10
323.4378
 20
352.7996
 10
323.5077
 20
352.6621
 10
323.569
 20
352.5178
 10
323.6217
 20
352.3675
 10
323.6662
 20
352.2121
 10
323.7029
 20
352.0521
 10
323.7321
 20
351.8879
 10
323.7544
 20
351.7195
 10
323.77
 20
351.5464
 10
323.7791
 20
351.3683
 10
323.782
 20
351.1849
 10
323.7788
 20
350.9965
 10
323.7694
 20
350.804
 10
323.7541
 20
350.6089
 10
323.7326
 20
350.4126
 10
323.7051
 20
350.2166
 10
323.6715
 20
350.0222
 10
323.6318
 20
349.8297
 10
323.5861
 20
349.6392
 10
323.5345
 20
349.4503
 10
323.4772
 20
349.2626
 10
323.4141
 20
349.0756
 10
323.3454
 20
348.8892
 10
323.2711
 20
348.7033
 10
323.1914
 20
348.5181
 10
323.1063
 20
348.334
 10
323.0159
 20
348.1512
 10
322.9204
 20
347.9697
 10
322.8198
 20
347.7899
 10
322.7144
 20
347.6115
 10
322.6043
 20
347.4345
 10
322.4896
 20
347.2589
 10
322.3703
 20
347.0846
 10
322.2465
 20
346.9115
 10
322.1183
 20
346.7397
 10
321.9856
 20
346.5691
 10
321.8485
 20
346.3998
 10
321.7071
 20
346.2319
 10
321.5616
 20
346.0652
 10
321.4122
 20
345.8999
 10
321.2593
 20
345.736
 10
321.1032
 20
345.5735
 10
320.9442
 20
345.4125
 10
320.7824
 20
345.2533
 10
320.6179
 20
345.096
 10
320.4507
 20
344.9411
 10
320.2808
 20
344.7888
 10
320.1081
 20
344.6395
 10
319.9328
 20
344.4933
 10
319.755
 20
344.3502
 10
319.5751
 20
344.21
 10
319.3937
 20
344.0724
 10
319.2112
 20
343.9369
 10
319.0279
 20
343.8033
 10
318.844
 20
343.6716
 10
318.659
 20
343.5418
 10
318.4721
 20
343.4148
 10
318.2822
 20
343.2914
 10
318.0881
 20
343.1723
 10
317.8891
 20
343.0583
 10
317.6851
 20
342.9494
 10
317.4773
 20
342.8449
 10
317.2676
 20
342.7433
 10
317.059
 20
342.6425
 10
316.8539
 20
342.5405
 10
316.6541
 20
342.4363
 10
316.4597
 20
342.3296
 10
316.2682
 20
342.2222
 10
316.0748
 20
342.118
 10
315.8731
 20
342.0215
 10
315.6571
 20
341.9373
 10
315.4227
 20
341.8684
 10
315.1696
 20
341.815
 10
314.9027
 20
341.7734
 10
314.6331
 20
341.7356
 10
314.3757
 20
341.6902
 10
314.2567
 20
341.661
 10
314.147
 20
341.6253
 10
314.0483
 20
341.5819
 10
313.9622
 20
341.5297
 10
313.8901
 20
341.4676
 10
313.8328
 20
341.3953
 10
313.7907
 20
341.3124
 10
313.7636
 20
341.2192
 10
313.7508
 20
341.1163
 10
313.7514
 20
341.0046
 10
313.7638
 20
340.8852
 10
313.7865
 20
340.7597
 10
313.8553
 20
340.4959
 10
313.9426
 20
340.2256
 10
314.0343
 20
339.9603
 10
314.12
 20
339.7085
 10
314.195
 20
339.4745
 10
314.2597
 20
339.258
 10
314.3186
 20
339.0562
 10
314.3778
 20
338.8645
 10
314.4436
 20
338.6784
 10
314.5209
 20
338.4947
 10
314.6116
 20
338.3123
 10
314.7155
 20
338.1322
 10
314.8305
 20
337.9564
 10
314.9541
 20
337.7876
 10
315.0839
 20
337.6282
 10
315.2185
 20
337.4796
 10
315.3577
 20
337.3424
 10
315.5021
 20
337.2162
 10
315.6526
 20
337.1006
 10
315.8102
 20
336.995
 10
315.9753
 20
336.8991
 10
316.148
 20
336.8131
 10
316.3278
 20
336.7374
 10
316.514
 20
336.6725
 10
316.7055
 20
336.6187
 10
316.9016
 20
336.5758
 10
317.1012
 20
336.5435
 10
317.3036
 20
336.5212
 10
317.5079
 20
336.508
 10
317.7135
 20
336.5035
 10
317.9196
 20
336.5074
 10
318.1257
 20
336.5198
 10
318.3311
 20
336.5412
 10
318.5352
 20
336.5718
 10
318.7376
 20
336.6119
 10
318.9378
 20
336.6614
 10
319.1354
 20
336.7196
 10
319.3301
 20
336.7854
 10
319.5215
 20
336.8578
 10
319.7096
 20
336.9359
 10
319.8944
 20
337.0199
 10
320.0761
 20
337.1108
 10
320.2549
 20
337.2105
 10
320.4311
 20
337.3213
 10
320.6051
 20
337.4449
 10
320.7767
 20
337.5817
 10
320.9456
 20
337.7298
 10
321.1112
 20
337.885
 10
321.2723
 20
338.0417
 10
321.4283
 20
338.1943
 10
321.5784
 20
338.3392
 10
321.7229
 20
338.4765
 10
321.8627
 20
338.6115
 10
321.9996
 20
338.7543
 10
322.1359
 20
338.9174
 10
322.2737
 20
339.1124
 10
322.4141
 20
339.3458
 10
322.5571
 20
339.6164
 10
322.7005
 20
339.9115
 10
322.8403
 20
340.2076
 10
322.9074
 20
340.347
 10
322.9717
 20
340.4755
 10
323.0327
 20
340.5897
 10
323.0898
 20
340.6867
 10
323.1427
 20
340.7642
 10
323.1911
 20
340.8205
 10
323.235
 20
340.8554
 10
323.2745
 20
340.8698
 10
323.31
 20
340.8659
 10
323.3422
 20
340.8477
 10
323.4
 20
340.7872
  0
LWPOLYLINE
  5
38
330
17
100
AcDbEntity
  8
CUT
100
AcDbPolyline
 90
184
 70
1
 10
314.022
 20
343.8178
 10
314.088
 20
343.8145
 10
314.1515
 20
343.8083
 10
314.2095
 20
343.794
 10
314.2641
 20
343.7744
 10
314.3187
 20
343.7553
 10
314.3749
 20
343.7407
 10
314.4318
 20
343.7302
 10
314.4877
 20
343.7217
 10
314.542
 20
343.7129
 10
314.5965
 20
343.7038
 10
314.653
 20
343.6951
 10
314.7112
 20
343.688
 10
314.7673
 20
343.6826
 10
314.817
 20
343.6786
 10
314.8606
 20
343.6754
 10
314.906
 20
343.6732
 10
314.9659
 20
343.6722
 10
315.0518
 20
343.673
 10
315.1687
 20
343.6762
 10
315.3136
 20
343.6819
 10
315.4783
 20
343.6905
 10
315.6521
 20
343.7019
 10
315.8246
 20
343.7161
 10
315.988
 20
343.7332
 10
316.1395
 20
343.7531
 10
316.2797
 20
343.7759
 10
316.4122
 20
343.8014
 10
316.5414
 20
343.8299
 10
316.6713
 20
343.8612
 10
316.8046
 20
343.8954
 10
316.9416
 20
343.9326
 10
317.0813
 20
343.9727
 10
317.2221
 20
344.0156
 10
317.3618
 20
344.0616
 10
317.4991
 20
344.1104
 10
317.6332
 20
344.162
 10
317.7642
 20
344.2166
 10
317.8928
 20
344.274
 10
318.0196
 20
344.3342
 10
318.1456
 20
344.3972
 10
318.271
 20
344.463
 10
318.3961
 20
344.5317
 10
318.5206
 20
344.6031
 10
318.6442
 20
344.6775
 10
318.7666
 20
344.7546
 10
318.8874
 20
344.8345
 10
319.0065
 20
344.9171
 10
319.1237
 20
345.0022
 10
319.2392
 20
345.0898
 10
319.3527
 20
345.1796
 10
319.4643
 20
345.2715
 10
319.5738
 20
345.3654
 10
319.681
 20
345.461
 10
319.7857
 20
345.5584
 10
319.8875
 20
345.6573
 10
319.9863
 20
345.7577
 10
320.0819
 20
345.8596
 10
320.1741
 20
345.9629
 10
320.263
 20
346.0678
 10
320.3484
 20
346.1742
 10
320.4304
 20
346.2822
 10
320.5091
 20
346.3918
 10
320.5843
 20
346.503
 10
320.656
 20
346.6156
 10
320.7241
 20
346.7297
 10
320.7886
 20
346.8451
 10
320.8492
 20
346.9618
 10
320.9061
 20
347.0799
 10
320.959
 20
347.1995
 10
321.008
 20
347.3205
 10
321.0531
 20
347.4431
 10
321.0942
 20
347.5671
 10
321.1313
 20
347.6924
 10
321.1644
 20
347.8187
 10
321.1935
 20
347.9456
 10
321.2186
 20
348.0729
 10
321.2396
 20
348.2006
 10
321.2567
 20
348.329
 10
321.2698
 20
348.4584
 10
321.2788
 20
348.5896
 10
321.2839
 20
348.7229
 10
321.2848
 20
348.8585
 10
321.2815
 20
348.996
 10
321.2736
 20
349.1345
 10
321.2611
 20
349.2726
 10
321.2435
 20
349.409
 10
321.2207
 20
349.5422
 10
321.1923
 20
349.6712
 10
321.1584
 20
349.7954
 10
321.1187
 20
349.9148
 10
321.0732
 20
350.0295
 10
321.0219
 20
350.1397
 10
320.9647
 20
350.2455
 10
320.9012
 20
350.3469
 10
320.8315
 20
350.4434
 10
320.7553
 20
350.5348
 10
320.6727
 20
350.6205
 10
320.584
 20
350.7002
 10
320.4898
 20
350.7738
 10
320.3908
 20
350.8411
 10
320.2876
 20
350.9023
 10
320.1804
 20
350.9574
 10
320.0692
 20
351.0066
 10
319.9533
 20
351.05
 10
319.8319
 20
351.0878
 10
319.7046
 20
351.1201
 10
319.5714
 20
351.147
 10
319.4334
 20
351.1687
 10
319.2927
 20
351.1854
 10
319.1519
 20
351.1971
 10
319.0137
 20
351.2041
 10
318.8803
 20
351.2064
 10
318.7528
 20
351.204
 10
318.6311
 20
351.1969
 10
318.5138
 20
351.1849
 10
318.3993
 20
351.1681
 10
318.2856
 20
351.1463
 10
318.1715
 20
351.1194
 10
318.0567
 20
351.0875
 10
317.9415
 20
351.0507
 10
317.8267
 20
351.009
 10
317.713
 20
350.9626
 10
317.6012
 20
350.9116
 10
317.4914
 20
350.856
 10
317.3835
 20
350.796
 10
317.2773
 20
350.7315
 10
317.1724
 20
350.6628
 10
317.0687
 20
350.5899
 10
316.9661
 20
350.513
 10
316.8648
 20
350.4322
 10
316.7647
 20
350.3476
 10
316.6662
 20
350.2593
 10
316.5692
 20
350.1676
 10
316.4737
 20
350.0722
 10
316.3797
 20
349.9734
 10
316.2871
 20
349.8712
 10
316.1958
 20
349.7655
 10
316.1057
 20
349.6566
 10
316.0169
 20
349.5446
 10
315.9294
 20
349.4298
 10
315.8434
 20
349.3125
 10
315.7589
 20
349.1929
 10
315.6762
 20
349.0712
 10
315.5951
 20
348.9474
 10
315.5157
 20
348.8217
 10
315.4379
 20
348.6937
 10
315.3618
 20
348.5637
 10
315.2873
 20
348.4315
 10
315.2146
 20
348.2974
 10
315.1438
 20
348.1618
 10
315.0751
 20
348.0251
 10
315.0088
 20
347.8879
 10
314.9451
 20
347.7503
 10
314.8839
 20
347.6126
 10
314.825
 20
347.4742
 10
314.7679
 20
347.3343
 10
314.7119
 20
347.1919
 10
314.6567
 20
347.0459
 10
314.6017
 20
346.8957
 10
314.5471
 20
346.7415
 10
314.4934
 20
346.5844
 10
314.4418
 20
346.4265
 10
314.3936
 20
346.2705
 10
314.3501
 20
346.1187
 10
314.3118
 20
345.9724
 10
314.2787
 20
345.8313
 10
314.2493
 20
345.6927
 10
314.2208
 20
345.5517
 10
314.1902
 20
345.4023
 10
314.1545
 20
345.2391
 10
314.112
 20
345.059
 10
314.0628
 20
344.8623
 10
314.0101
 20
344.6547
 10
313.9596
 20
344.4469
 10
313.9185
 20
344.2529
 10
313.8943
 20
344.0865
 10
313.8903
 20
344.0174
 10
313.8925
 20
343.9589
 10
313.901
 20
343.9116
 10
313.9156
 20
343.8753
 10
313.936
 20
343.8494
 10
313.9613
 20
343.8325
 10
314.022
 20
343.8178
  0
LWPOLYLINE
  5
39
330
17
100
AcDbEntity
  8
CUT
100
AcDbPolyline
 90
468
 70
1
 10
294.9779
 20
335.2834
 10
295.0609
 20
335.4105
 10
295.1665
 20
335.5485
 10
295.2929
 20
335.6954
 10
295.4378
 20
335.8491
 10
295.5987
 20
336.007
 10
295.9563
 20
336.3244
 10
296.3397
 20
336.6251
 10
296.5327
 20
336.7621
 10
296.7223
 20
336.8869
 10
296.9055
 20
336.9971
 10
297.0794
 20
337.0906
 10
297.2417
 20
337.166
 10
297.3904
 20
337.222
 10
297.5243
 20
337.2581
 10
297.6424
 20
337.2743
 10
297.7449
 20
337.2712
 10
297.8322
 20
337.2502
 10
297.906
 20
337.2134
 10
297.968
 20
337.1633
 10
298.0207
 20
337.1028
 10
298.0666
 20
337.035
 10
298.1486
 20
336.8893
 10
298.2332
 20
336.7482
 10
298.3333
 20
336.6258
 10
298.4529
 20
336.5266
 10
298.5886
 20
336.4467
 10
298.7331
 20
336.3781
 10
298.8789
 20
336.3124
 10
299.0208
 20
336.2441
 10
299.1579
 20
336.1723
 10
299.292
 20
336.0992
 10
299.4263
 20
336.0285
 10
299.5637
 20
335.9636
 10
299.7059
 20
335.9063
 10
299.853
 20
335.8566
 10
300.0041
 20
335.8132
 10
300.1576
 20
335.7745
 10
300.3122
 20
335.7392
 10
300.4669
 20
335.7068
 10
300.6213
 20
335.6773
 10
300.7755
 20
335.6515
 10
300.9299
 20
335.6298
 10
301.0856
 20
335.6127
 10
301.2436
 20
335.6003
 10
301.405
 20
335.5927
 10
301.5706
 20
335.5896
 10
301.7406
 20
335.5911
 10
301.914
 20
335.5973
 10
302.0893
 20
335.6086
 10
302.2641
 20
335.6257
 10
302.4364
 20
335.6491
 10
302.6041
 20
335.6794
 10
302.7659
 20
335.7169
 10
302.9213
 20
335.7617
 10
303.0706
 20
335.8139
 10
303.2141
 20
335.8736
 10
303.352
 20
335.9409
 10
303.4844
 20
336.016
 10
303.6109
 20
336.0995
 10
303.7307
 20
336.1916
 10
303.8432
 20
336.2926
 10
303.9478
 20
336.4018
 10
304.044
 20
336.5185
 10
304.1316
 20
336.6412
 10
304.2107
 20
336.769
 10
304.2813
 20
336.9013
 10
304.3438
 20
337.0388
 10
304.3983
 20
337.1831
 10
304.4453
 20
337.3357
 10
304.4849
 20
337.4975
 10
304.5175
 20
337.6678
 10
304.543
 20
337.8434
 10
304.5615
 20
338.0196
 10
304.573
 20
338.1907
 10
304.5774
 20
338.3522
 10
304.5744
 20
338.5016
 10
304.5639
 20
338.6397
 10
304.5458
 20
338.7701
 10
304.52
 20
338.8978
 10
304.4865
 20
339.0273
 10
304.4456
 20
339.1615
 10
304.3974
 20
339.3005
 10
304.3426
 20
339.4434
 10
304.2814
 20
339.5879
 10
304.2145
 20
339.7324
 10
304.1423
 20
339.8758
 10
304.0652
 20
340.0182
 10
303.9835
 20
340.1598
 10
303.8974
 20
340.3016
 10
303.807
 20
340.4442
 10
303.7121
 20
340.5881
 10
303.6127
 20
340.7336
 10
303.5086
 20
340.8808
 10
303.3999
 20
341.0294
 10
303.287
 20
341.1789
 10
303.1704
 20
341.3286
 10
303.051
 20
341.4779
 10
302.9297
 20
341.626
 10
302.8069
 20
341.7725
 10
302.6828
 20
341.9176
 10
302.5568
 20
342.0621
 10
302.4277
 20
342.2073
 10
302.2938
 20
342.355
 10
302.1536
 20
342.5069
 10
302.0058
 20
342.6644
 10
301.85
 20
342.8283
 10
301.6866
 20
342.9982
 10
301.5176
 20
343.1728
 10
301.3455
 20
343.3499
 10
301.1734
 20
343.527
 10
301.0044
 20
343.7014
 10
300.8413
 20
343.8709
 10
300.686
 20
344.0339
 10
300.5394
 20
344.19
 10
300.4011
 20
344.3399
 10
300.2699
 20
344.4849
 10
300.144
 20
344.6272
 10
300.0217
 20
344.7685
 10
299.9015
 20
344.9105
 10
299.7826
 20
345.0543
 10
299.6651
 20
345.1998
 10
299.5493
 20
345.3469
 10
299.4363
 20
345.4947
 10
299.3268
 20
345.6424
 10
299.2216
 20
345.7894
 10
299.1211
 20
345.9352
 10
299.0253
 20
346.0797
 10
298.9341
 20
346.2231
 10
298.8474
 20
346.3656
 10
298.765
 20
346.5077
 10
298.6869
 20
346.65
 10
298.6133
 20
346.7928
 10
298.5446
 20
346.9364
 10
298.4811
 20
347.0806
 10
298.4232
 20
347.2249
 10
298.3714
 20
347.3679
 10
298.3262
 20
347.5085
 10
298.2877
 20
347.6458
 10
298.2564
 20
347.78
 10
298.2323
 20
347.9128
 10
298.2154
 20
348.0471
 10
298.2054
 20
348.1861
 10
298.2021
 20
348.3319
 10
298.2052
 20
348.4854
 10
298.2142
 20
348.645
 10
298.2287
 20
348.8081
 10
298.2484
 20
348.9716
 10
298.273
 20
349.1328
 10
298.3025
 20
349.2901
 10
298.3367
 20
349.4435
 10
298.376
 20
349.5935
 10
298.4203
 20
349.7414
 10
298.4698
 20
349.888
 10
298.5245
 20
350.0339
 10
298.5845
 20
350.1789
 10
298.6496
 20
350.3224
 10
298.7198
 20
350.4639
 10
298.7948
 20
350.603
 10
298.8747
 20
350.7394
 10
298.9592
 20
350.8731
 10
299.0483
 20
351.0043
 10
299.142
 20
351.1331
 10
299.2402
 20
351.2597
 10
299.3428
 20
351.3841
 10
299.4498
 20
351.5063
 10
299.5611
 20
351.6263
 10
299.6766
 20
351.7439
 10
299.7961
 20
351.859
 10
299.9194
 20
351.9717
 10
300.0462
 20
352.0817
 10
300.1762
 20
352.1891
 10
300.3092
 20
352.2937
 10
300.4449
 20
352.3955
 10
300.5833
 20
352.4941
 10
300.724
 20
352.5896
 10
300.8671
 20
352.6817
 10
301.0125
 20
352.7703
 10
301.1598
 20
352.8554
 10
301.3089
 20
352.9368
 10
301.4597
 20
353.0146
 10
301.612
 20
353.0888
 10
301.7659
 20
353.1595
 10
301.9214
 20
353.2267
 10
302.079
 20
353.2903
 10
302.2391
 20
353.3505
 10
302.4016
 20
353.4071
 10
302.5667
 20
353.4602
 10
302.7338
 20
353.5097
 10
302.9021
 20
353.5558
 10
303.0705
 20
353.5982
 10
303.2383
 20
353.6372
 10
303.4055
 20
353.6728
 10
303.5728
 20
353.7049
 10
303.742
 20
353.7336
 10
303.9151
 20
353.759
 10
304.0938
 20
353.7811
 10
304.2789
 20
353.8
 10
304.469
 20
353.8156
 10
304.6606
 20
353.828
 10
304.8489
 20
353.8372
 10
305.0284
 20
353.8431
 10
305.1951
 20
353.846
 10
305.347
 20
353.8461
 10
305.4857
 20
353.8437
 10
305.6157
 20
353.8394
 10
305.7427
 20
353.8335
 10
305.8716
 20
353.8262
 10
306.0047
 20
353.8172
 10
306.1413
 20
353.8058
 10
306.2792
 20
353.7916
 10
306.4163
 20
353.7743
 10
306.5517
 20
353.7547
 10
306.687
 20
353.734
 10
306.8244
 20
353.7136
 10
306.9657
 20
353.6943
 10
307.1102
 20
353.6751
 10
307.2546
 20
353.6533
 10
307.3942
 20
353.6255
 10
307.5257
 20
353.5895
 10
307.65
 20
353.5463
 10
307.7736
 20
353.5009
 10
307.9071
 20
353.4612
 10
308.0594
 20
353.434
 10
308.2333
 20
353.4211
 10
308.4197
 20
353.4155
 10
308.5975
 20
353.4012
 10
308.6744
 20
353.3844
 10
308.7384
 20
353.3576
 10
308.7861
 20
353.3185
 10
308.8144
 20
353.265
 10
308.821
 20
353.1959
 10
308.8044
 20
353.1104
 10
308.764
 20
353.0089
 10
308.6999
 20
352.892
 10
308.6133
 20
352.7614
 10
308.5055
 20
352.619
 10
308.3789
 20
352.4672
 10
308.2359
 20
352.309
 10
308.0794
 20
352.1472
 10
307.9127
 20
351.9851
 10
307.5618
 20
351.673
 10
307.3844
 20
351.5294
 10
307.2101
 20
351.398
 10
307.0419
 20
351.2815
 10
306.8826
 20
351.1821
 10
306.7344
 20
351.1016
 10
306.5991
 20
351.0411
 10
306.4781
 20
351.0012
 10
306.3717
 20
350.9817
 10
306.2797
 20
350.9815
 10
306.2011
 20
350.9986
 10
306.1342
 20
351.0307
 10
306.0767
 20
351.0744
 10
305.9799
 20
351.1838
 10
305.8905
 20
351.3006
 10
305.7923
 20
351.4045
 10
305.6776
 20
351.4861
 10
305.5478
 20
351.5473
 10
305.4094
 20
351.596
 10
305.2699
 20
351.6418
 10
305.1345
 20
351.6909
 10
305.0043
 20
351.7445
 10
304.8771
 20
351.8
 10
304.7499
 20
351.853
 10
304.6199
 20
351.9004
 10
304.4861
 20
351.9409
 10
304.3488
 20
351.9751
 10
304.2093
 20
352.0048
 10
304.0692
 20
352.0316
 10
303.9293
 20
352.0563
 10
303.7901
 20
352.0788
 10
303.6514
 20
352.0986
 10
303.5128
 20
352.115
 10
303.3734
 20
352.1274
 10
303.2321
 20
352.1357
 10
303.0881
 20
352.14
 10
302.9409
 20
352.1404
 10
302.7912
 20
352.137
 10
302.6401
 20
352.1293
 10
302.4897
 20
352.1169
 10
302.342
 20
352.0991
 10
302.1989
 20
352.0755
 10
302.0613
 20
352.0456
 10
301.9294
 20
352.0094
 10
301.803
 20
351.9666
 10
301.6818
 20
351.9171
 10
301.5659
 20
351.8606
 10
301.4557
 20
351.7967
 10
301.3519
 20
351.7251
 10
301.2554
 20
351.6455
 10
301.1667
 20
351.5585
 10
301.0865
 20
351.4648
 10
301.0149
 20
351.3651
 10
300.952
 20
351.2599
 10
300.8977
 20
351.1488
 10
300.8518
 20
351.0311
 10
300.8139
 20
350.9061
 10
300.7838
 20
350.7744
 10
300.7615
 20
350.6381
 10
300.747
 20
350.5005
 10
300.7403
 20
350.3654
 10
300.7418
 20
350.2354
 10
300.7514
 20
350.1107
 10
300.7691
 20
349.9898
 10
300.795
 20
349.8696
 10
300.8288
 20
349.7474
 10
300.8702
 20
349.6217
 10
300.9188
 20
349.4924
 10
300.9741
 20
349.3606
 10
301.0357
 20
349.2274
 10
301.1029
 20
349.094
 10
301.1752
 20
348.961
 10
301.2522
 20
348.8282
 10
301.3336
 20
348.6955
 10
301.4193
 20
348.5623
 10
301.5092
 20
348.428
 10
301.6038
 20
348.2921
 10
301.7031
 20
348.1542
 10
301.8073
 20
348.0144
 10
301.9159
 20
347.8729
 10
302.0283
 20
347.7308
 10
302.1432
 20
347.5893
 10
302.2596
 20
347.4494
 10
302.3769
 20
347.3118
 10
302.4949
 20
347.1766
 10
302.6146
 20
347.0423
 10
302.7377
 20
346.9067
 10
302.8667
 20
346.7668
 10
303.0036
 20
346.6197
 10
303.1503
 20
346.4631
 10
303.3075
 20
346.2957
 10
303.4744
 20
346.1182
 10
303.6489
 20
345.9326
 10
303.828
 20
345.742
 10
304.0082
 20
345.5502
 10
304.186
 20
345.3608
 10
304.3581
 20
345.1773
 10
304.5222
 20
345.0018
 10
304.6773
 20
344.8352
 10
304.8236
 20
344.6769
 10
304.9623
 20
344.5251
 10
305.0952
 20
344.3773
 10
305.2241
 20
344.2311
 10
305.3508
 20
344.0841
 10
305.4762
 20
343.935
 10
305.6006
 20
343.7832
 10
305.7235
 20
343.6293
 10
305.8442
 20
343.4739
 10
305.9617
 20
343.3181
 10
306.0751
 20
343.163
 10
306.1839
 20
343.0091
 10
306.2878
 20
342.8568
 10
306.387
 20
342.7061
 10
306.4816
 20
342.5565
 10
306.5718
 20
342.4076
 10
306.6577
 20
342.2589
 10
306.7392
 20
342.1098
 10
306.8161
 20
341.96
 10
306.8881
 20
341.8094
 10
306.9548
 20
341.6581
 10
307.0156
 20
341.507
 10
307.0703
 20
341.3572
 10
307.1184
 20
341.21
 10
307.1596
 20
341.0661
 10
307.1937
 20
340.9254
 10
307.2204
 20
340.7863
 10
307.2398
 20
340.6462
 10
307.2519
 20
340.5021
 10
307.257
 20
340.3514
 10
307.2552
 20
340.193
 10
307.247
 20
340.0277
 10
307.2326
 20
339.8576
 10
307.2124
 20
339.6857
 10
307.1868
 20
339.5149
 10
307.1558
 20
339.3471
 10
307.1196
 20
339.1831
 10
307.0781
 20
339.0228
 10
307.0313
 20
338.8651
 10
306.9791
 20
338.7091
 10
306.9213
 20
338.5539
 10
306.8581
 20
338.3992
 10
306.7895
 20
338.2454
 10
306.7156
 20
338.0927
 10
306.6366
 20
337.9418
 10
306.5526
 20
337.7931
 10
306.4637
 20
337.6468
 10
306.37
 20
337.5029
 10
306.2718
 20
337.3613
 10
306.169
 20
337.2218
 10
306.0617
 20
337.0842
 10
305.9501
 20
336.9485
 10
305.834
 20
336.8145
 10
305.7137
 20
336.6824
 10
305.5891
 20
336.5522
 10
305.4605
 20
336.4239
 10
305.328
 20
336.2977
 10
305.1918
 20
336.1735
 10
305.0522
 20
336.0516
 10
304.9096
 20
335.932
 10
304.7641
 20
335.8148
 10
304.6162
 20
335.7003
 10
304.4659
 20
335.5885
 10
304.3136
 20
335.4797
 10
304.1592
 20
335.374
 10
304.0031
 20
335.2718
 10
303.8452
 20
335.173
 10
303.6858
 20
335.0778
 10
303.525
 20
334.9863
 10
303.3628
 20
334.8984
 10
303.1992
 20
334.814
 10
303.0343
 20
334.7333
 10
302.8679
 20
334.6561
 10
302.6998
 20
334.5825
 10
302.53
 20
334.5126
 10
302.3581
 20
334.4462
 10
302.1844
 20
334.3836
 10
302.0089
 20
334.3247
 10
301.8321
 20
334.2695
 10
301.6545
 20
334.2181
 10
301.4767
 20
334.1704
 10
301.2989
 20
334.1264
 10
301.121
 20
334.0862
 10
300.9425
 20
334.0497
 10
300.7624
 20
334.0169
 10
300.5795
 20
333.9877
 10
300.393
 20
333.9621
 10
300.2025
 20
333.9402
 10
300.0089
 20
333.9219
 10
299.8141
 20
333.9072
 10
299.6209
 20
333.8961
 10
299.4323
 20
333.8886
 10
299.2508
 20
333.8847
 10
299.0779
 20
333.8841
 10
298.9135
 20
333.8866
 10
298.7557
 20
333.8919
 10
298.6018
 20
333.8996
 10
298.4489
 20
333.9096
 10
298.2948
 20
333.922
 10
298.1389
 20
333.9369
 10
297.9821
 20
333.955
 10
297.8258
 20
333.9767
 10
297.6715
 20
334.0023
 10
297.5194
 20
334.0314
 10
297.3687
 20
334.0631
 10
297.2174
 20
334.0963
 10
297.0636
 20
334.1299
 10
296.9068
 20
334.1639
 10
296.7483
 20
334.1994
 10
296.5919
 20
334.2387
 10
296.442
 20
334.2846
 10
296.3017
 20
334.339
 10
296.1706
 20
334.4013
 10
296.0431
 20
334.468
 10
295.9096
 20
334.533
 10
295.7604
 20
334.59
 10
295.59
 20
334.6357
 10
295.4017
 20
334.6722
 10
295.2104
 20
334.7091
 10
295.121
 20
334.7325
 10
295.0403
 20
334.7619
 10
294.972
 20
334.7996
 10
294.9194
 20
334.8475
 10
294.8856
 20
334.9074
 10
294.8731
 20
334.9805
 10
294.8838
 20
335.0676
 10
294.9187
 20
335.1687
 10
294.9779
 20
335.2834
  0
LWPOLYLINE
  5
3A
330
17
100
AcDbEntity
  8
CUT
100
AcDbPolyline
 90
181
 70
1
 10
372.861
 20
333.9487
 10
372.571
 20
334.0
 10
372.2894
 20
334.0675
 10
372.0188
 20
334.1519
 10
371.7604
 20
334.2534
 10
371.5144
 20
334.3721
 10
371.2803
 20
334.5078
 10
371.0576
 20
334.6605
 10
370.8465
 20
334.83
 10
370.6474
 20
335.016
 10
370.4611
 20
335.2181
 10
370.2885
 20
335.4356
 10
370.13
 20
335.6675
 10
369.9857
 20
335.9123
 10
369.8551
 20
336.1684
 10
369.7378
 20
336.4346
 10
369.6331
 20
336.71
 10
369.5404
 20
336.9947
 10
369.4592
 20
337.2895
 10
369.3891
 20
337.5952
 10
369.3298
 20
337.9126
 10
369.2808
 20
338.2409
 10
369.2417
 20
338.5783
 10
369.2121
 20
338.9214
 10
369.1915
 20
339.266
 10
369.1794
 20
339.6078
 10
369.1755
 20
339.9436
 10
369.1794
 20
340.2713
 10
369.191
 20
340.5913
 10
369.2103
 20
340.905
 10
369.237
 20
341.215
 10
369.2714
 20
341.5239
 10
369.3134
 20
341.8335
 10
369.363
 20
342.1448
 10
369.4202
 20
342.4573
 10
369.4849
 20
342.7702
 10
369.557
 20
343.0824
 10
369.6365
 20
343.3928
 10
369.7234
 20
343.7008
 10
369.8176
 20
344.0065
 10
369.9191
 20
344.3101
 10
370.0278
 20
344.612
 10
370.1435
 20
344.9126
 10
370.2663
 20
345.2119
 10
370.396
 20
345.5101
 10
370.5324
 20
345.8068
 10
370.6754
 20
346.1018
 10
370.825
 20
346.3948
 10
370.981
 20
346.6858
 10
371.1434
 20
346.9749
 10
371.3124
 20
347.2621
 10
371.4878
 20
347.5476
 10
371.6696
 20
347.8316
 10
371.8576
 20
348.114
 10
372.0516
 20
348.3946
 10
372.2511
 20
348.673
 10
372.4558
 20
348.949
 10
372.6651
 20
349.2217
 10
372.8785
 20
349.4907
 10
373.0956
 20
349.7553
 10
373.3159
 20
350.0147
 10
373.539
 20
350.2683
 10
373.7646
 20
350.5156
 10
373.9924
 20
350.7559
 10
374.2225
 20
350.989
 10
374.4549
 20
351.2145
 10
374.6898
 20
351.4323
 10
374.9273
 20
351.6424
 10
375.1676
 20
351.8445
 10
375.4107
 20
352.0387
 10
375.6565
 20
352.2245
 10
375.9049
 20
352.4018
 10
376.1556
 20
352.5703
 10
376.4085
 20
352.7296
 10
376.6637
 20
352.8793
 10
376.9216
 20
353.0192
 10
377.1826
 20
353.149
 10
377.4467
 20
353.2685
 10
377.714
 20
353.3773
 10
377.9838
 20
353.4753
 10
378.255
 20
353.5623
 10
378.5266
 20
353.638
 10
378.7977
 20
353.7023
 10
379.0686
 20
353.7549
 10
379.3404
 20
353.7958
 10
379.6154
 20
353.8249
 10
379.8958
 20
353.8418
 10
380.1828
 20
353.8463
 10
380.4761
 20
353.8378
 10
380.7732
 20
353.8156
 10
381.0703
 20
353.7789
 10
381.3629
 20
353.7268
 10
381.6469
 20
353.6586
 10
381.9194
 20
353.5738
 10
382.1793
 20
353.4721
 10
382.4267
 20
353.3533
 10
382.6621
 20
353.2176
 10
382.8862
 20
353.065
 10
383.099
 20
352.8957
 10
383.2998
 20
352.7099
 10
383.4879
 20
352.508
 10
383.6622
 20
352.2907
 10
383.8224
 20
352.059
 10
383.9682
 20
351.8145
 10
384.1001
 20
351.5585
 10
384.2186
 20
351.2925
 10
384.3245
 20
351.0171
 10
384.4182
 20
350.7324
 10
384.5003
 20
350.4376
 10
384.5712
 20
350.1318
 10
384.6313
 20
349.8145
 10
384.6808
 20
349.4862
 10
384.7203
 20
349.1488
 10
384.7502
 20
348.8058
 10
384.771
 20
348.4613
 10
384.7832
 20
348.1194
 10
384.7871
 20
347.7835
 10
384.7831
 20
347.4553
 10
384.7715
 20
347.1349
 10
384.7523
 20
346.8205
 10
384.7255
 20
346.5098
 10
384.6911
 20
346.2002
 10
384.6492
 20
345.8899
 10
384.5996
 20
345.5782
 10
384.5425
 20
345.2652
 10
384.478
 20
344.9518
 10
384.4059
 20
344.6393
 10
384.3265
 20
344.3286
 10
384.2397
 20
344.0202
 10
384.1457
 20
343.7142
 10
384.0443
 20
343.4104
 10
383.9357
 20
343.1082
 10
383.8201
 20
342.8074
 10
383.6974
 20
342.5079
 10
383.5678
 20
342.2096
 10
383.4315
 20
341.9128
 10
383.2885
 20
341.6178
 10
383.1391
 20
341.3247
 10
382.9831
 20
341.0337
 10
382.8207
 20
340.7447
 10
382.6517
 20
340.4576
 10
382.4763
 20
340.1722
 10
382.2945
 20
339.8884
 10
382.1065
 20
339.6063
 10
381.9125
 20
339.3259
 10
381.7129
 20
339.0478
 10
381.5082
 20
338.7722
 10
381.2988
 20
338.4998
 10
381.0852
 20
338.2312
 10
380.8678
 20
337.9671
 10
380.6472
 20
337.7081
 10
380.4238
 20
337.455
 10
380.1977
 20
337.2082
 10
379.9692
 20
336.9684
 10
379.7385
 20
336.7359
 10
379.5053
 20
336.5109
 10
379.2696
 20
336.2936
 10
379.0311
 20
336.0842
 10
378.7899
 20
335.8826
 10
378.5457
 20
335.6891
 10
378.2988
 20
335.5039
 10
378.0492
 20
335.3272
 10
377.7971
 20
335.1593
 10
377.5427
 20
335.0006
 10
377.2858
 20
334.8514
 10
377.0263
 20
334.712
 10
376.7638
 20
334.5827
 10
376.4981
 20
334.4637
 10
376.2294
 20
334.3552
 10
375.9582
 20
334.2575
 10
375.6853
 20
334.1708
 10
375.4118
 20
334.0951
 10
375.1382
 20
334.0308
 10
374.8646
 20
333.9778
 10
374.5899
 20
333.9365
 10
374.3124
 20
333.9069
 10
374.0306
 20
333.8892
 10
373.7432
 20
333.8839
 10
373.4509
 20
333.8915
 10
373.1556
 20
333.9128
 10
372.861
 20
333.9487
  0
LWPOLYLINE
  5
3B
330
17
100
AcDbEntity
  8
CUT
100
AcDbPolyline
 90
181
 70
1
 10
376.7468
 20
336.1931
 10
376.9133
 20
336.2218
 10
377.0801
 20
336.2583
 10
377.2491
 20
336.3027
 10
377.4195
 20
336.3548
 10
377.5893
 20
336.4149
 10
377.756
 20
336.4829
 10
377.9184
 20
336.5588
 10
378.076
 20
336.6426
 10
378.2297
 20
336.734
 10
378.3801
 20
336.8328
 10
378.528
 20
336.9386
 10
378.6735
 20
337.0514
 10
378.8164
 20
337.1708
 10
378.9561
 20
337.2967
 10
379.0925
 20
337.4289
 10
379.2252
 20
337.5671
 10
379.3545
 20
337.7114
 10
379.4806
 20
337.8614
 10
379.6036
 20
338.0171
 10
379.7237
 20
338.1781
 10
379.841
 20
338.3442
 10
379.9552
 20
338.515
 10
380.0663
 20
338.6902
 10
380.1741
 20
338.8692
 10
380.2782
 20
339.0517
 10
380.3787
 20
339.2374
 10
380.4754
 20
339.4257
 10
380.5681
 20
339.6166
 10
380.6569
 20
339.8098
 10
380.7418
 20
340.0053
 10
380.8227
 20
340.2033
 10
380.8997
 20
340.4039
 10
380.9728
 20
340.607
 10
381.0421
 20
340.8127
 10
381.1077
 20
341.0207
 10
381.1695
 20
341.2304
 10
381.2276
 20
341.4417
 10
381.2821
 20
341.6542
 10
381.3329
 20
341.8682
 10
381.38
 20
342.0842
 10
381.4236
 20
342.3028
 10
381.4635
 20
342.5247
 10
381.4999
 20
342.7502
 10
381.5327
 20
342.9788
 10
381.5622
 20
343.2092
 10
381.5883
 20
343.4396
 10
381.6111
 20
343.6682
 10
381.6307
 20
343.8942
 10
381.6472
 20
344.118
 10
381.6606
 20
344.3418
 10
381.6707
 20
344.5696
 10
381.6776
 20
344.8058
 10
381.6809
 20
345.0548
 10
381.6805
 20
345.3192
 10
381.676
 20
345.5996
 10
381.667
 20
345.894
 10
381.6531
 20
346.1984
 10
381.6339
 20
346.5076
 10
381.6089
 20
346.8161
 10
381.5778
 20
347.1189
 10
381.5404
 20
347.4121
 10
381.4964
 20
347.6941
 10
381.4459
 20
347.9647
 10
381.3887
 20
348.225
 10
381.3249
 20
348.4768
 10
381.254
 20
348.7219
 10
381.1757
 20
348.9615
 10
381.0892
 20
349.1959
 10
380.9939
 20
349.4246
 10
380.8889
 20
349.6464
 10
380.7737
 20
349.8596
 10
380.6482
 20
350.0628
 10
380.5128
 20
350.2548
 10
380.3685
 20
350.4349
 10
380.2163
 20
350.6027
 10
380.057
 20
350.758
 10
379.8906
 20
350.9005
 10
379.7162
 20
351.03
 10
379.5318
 20
351.146
 10
379.3351
 20
351.2481
 10
379.1248
 20
351.3359
 10
378.901
 20
351.4092
 10
378.6667
 20
351.468
 10
378.4274
 20
351.5128
 10
378.1905
 20
351.5444
 10
377.963
 20
351.5637
 10
377.7504
 20
351.5718
 10
377.5549
 20
351.5697
 10
377.3745
 20
351.5581
 10
377.2044
 20
351.5377
 10
377.0388
 20
351.5091
 10
376.873
 20
351.4724
 10
376.7049
 20
351.428
 10
376.5352
 20
351.3756
 10
376.3661
 20
351.3153
 10
376.1999
 20
351.247
 10
376.0382
 20
351.1707
 10
375.8812
 20
351.0865
 10
375.7282
 20
350.9947
 10
375.5784
 20
350.8955
 10
375.4311
 20
350.7891
 10
375.2862
 20
350.6759
 10
375.1439
 20
350.556
 10
375.0046
 20
350.4296
 10
374.8688
 20
350.297
 10
374.7365
 20
350.1582
 10
374.6076
 20
350.0135
 10
374.4819
 20
349.863
 10
374.3592
 20
349.7069
 10
374.2393
 20
349.5453
 10
374.1223
 20
349.3788
 10
374.0083
 20
349.2075
 10
373.8973
 20
349.032
 10
373.7897
 20
348.8525
 10
373.6856
 20
348.6696
 10
373.5852
 20
348.4837
 10
373.4885
 20
348.295
 10
373.3958
 20
348.1039
 10
373.307
 20
347.9106
 10
373.2221
 20
347.7149
 10
373.1412
 20
347.5168
 10
373.0641
 20
347.3162
 10
372.991
 20
347.1131
 10
372.9216
 20
346.9075
 10
372.8559
 20
346.6996
 10
372.794
 20
346.49
 10
372.7358
 20
346.2789
 10
372.6813
 20
346.0665
 10
372.6304
 20
345.8528
 10
372.5832
 20
345.6371
 10
372.5395
 20
345.4189
 10
372.4995
 20
345.1973
 10
372.4631
 20
344.9722
 10
372.4301
 20
344.7439
 10
372.4006
 20
344.5139
 10
372.3745
 20
344.2839
 10
372.3516
 20
344.0557
 10
372.3319
 20
343.8303
 10
372.3153
 20
343.6071
 10
372.302
 20
343.384
 10
372.2918
 20
343.1569
 10
372.285
 20
342.9212
 10
372.2817
 20
342.6727
 10
372.2821
 20
342.4086
 10
372.2866
 20
342.1283
 10
372.2956
 20
341.8339
 10
372.3095
 20
341.5294
 10
372.3286
 20
341.22
 10
372.3536
 20
340.9114
 10
372.3846
 20
340.6086
 10
372.4219
 20
340.3153
 10
372.4657
 20
340.0334
 10
372.516
 20
339.7629
 10
372.5729
 20
339.5027
 10
372.6365
 20
339.251
 10
372.7072
 20
339.006
 10
372.7852
 20
338.7664
 10
372.8713
 20
338.5319
 10
372.9663
 20
338.3032
 10
373.0709
 20
338.0815
 10
373.1857
 20
337.8682
 10
373.3107
 20
337.665
 10
373.4455
 20
337.473
 10
373.5893
 20
337.2929
 10
373.741
 20
337.1251
 10
373.8998
 20
336.9699
 10
374.0658
 20
336.8274
 10
374.2399
 20
336.698
 10
374.424
 20
336.582
 10
374.6203
 20
336.48
 10
374.8302
 20
336.3923
 10
375.0534
 20
336.3193
 10
375.2868
 20
336.2609
 10
375.5251
 20
336.2164
 10
375.761
 20
336.1852
 10
375.9876
 20
336.1662
 10
376.1997
 20
336.1584
 10
376.3951
 20
336.1608
 10
376.5759
 20
336.1726
 10
376.7468
 20
336.1931
  0
LWPOLYLINE
  5
3C
330
17
100
AcDbEntity
  8
CUT
100
AcDbPolyline
 90
141
 70
1
 10
275.8452
 20
348.2968
 10
275.8623
 20
348.4036
 10
275.8841
 20
348.5089
 10
275.9106
 20
348.6124
 10
275.9416
 20
348.7139
 10
275.977
 20
348.8132
 10
276.0168
 20
348.9103
 10
276.0608
 20
349.0053
 10
276.109
 20
349.0979
 10
276.1611
 20
349.1883
 10
276.2172
 20
349.2762
 10
276.2771
 20
349.3614
 10
276.3406
 20
349.4438
 10
276.4077
 20
349.5232
 10
276.4781
 20
349.5995
 10
276.5518
 20
349.6726
 10
276.6286
 20
349.7422
 10
276.7084
 20
349.8085
 10
276.791
 20
349.8712
 10
276.8764
 20
349.9302
 10
276.9643
 20
349.9855
 10
277.0547
 20
350.037
 10
277.1475
 20
350.0844
 10
277.2424
 20
350.1278
 10
277.3393
 20
350.1669
 10
277.4381
 20
350.2017
 10
277.5385
 20
350.2322
 10
277.6404
 20
350.2582
 10
277.7437
 20
350.2796
 10
277.8483
 20
350.2963
 10
277.9541
 20
350.3084
 10
278.0608
 20
350.3157
 10
278.1684
 20
350.3181
 10
278.2765
 20
350.3158
 10
278.3846
 20
350.3087
 10
278.4923
 20
350.2969
 10
278.5991
 20
350.2803
 10
278.7045
 20
350.2592
 10
278.8081
 20
350.2336
 10
278.9096
 20
350.2035
 10
279.0091
 20
350.169
 10
279.1063
 20
350.1302
 10
279.2014
 20
350.0872
 10
279.2942
 20
350.0401
 10
279.3848
 20
349.9889
 10
279.4728
 20
349.9338
 10
279.5582
 20
349.875
 10
279.6408
 20
349.8124
 10
279.7203
 20
349.7462
 10
279.7967
 20
349.6766
 10
279.8699
 20
349.6036
 10
279.9396
 20
349.5273
 10
280.0059
 20
349.4478
 10
280.0686
 20
349.3653
 10
280.1276
 20
349.28
 10
280.1828
 20
349.192
 10
280.2341
 20
349.1016
 10
280.2813
 20
349.0088
 10
280.3245
 20
348.9138
 10
280.3634
 20
348.8166
 10
280.398
 20
348.7173
 10
280.4282
 20
348.6158
 10
280.454
 20
348.5122
 10
280.4753
 20
348.4069
 10
280.4919
 20
348.3002
 10
280.5039
 20
348.1925
 10
280.5112
 20
348.0843
 10
280.5136
 20
347.9763
 10
280.5113
 20
347.8687
 10
280.5042
 20
347.7619
 10
280.4923
 20
347.6561
 10
280.4757
 20
347.5515
 10
280.4544
 20
347.4481
 10
280.4286
 20
347.3462
 10
280.3983
 20
347.2457
 10
280.3636
 20
347.1469
 10
280.3245
 20
347.0499
 10
280.2813
 20
346.9549
 10
280.234
 20
346.8621
 10
280.1827
 20
346.7716
 10
280.1275
 20
346.6836
 10
280.0686
 20
346.5981
 10
280.006
 20
346.5154
 10
279.9399
 20
346.4355
 10
279.8703
 20
346.3586
 10
279.7974
 20
346.2848
 10
279.7212
 20
346.2143
 10
279.6419
 20
346.1472
 10
279.5595
 20
346.0835
 10
279.4744
 20
346.0235
 10
279.3866
 20
345.9673
 10
279.2963
 20
345.915
 10
279.2037
 20
345.8668
 10
279.1088
 20
345.8226
 10
279.0118
 20
345.7827
 10
278.9125
 20
345.7471
 10
278.8111
 20
345.716
 10
278.7076
 20
345.6894
 10
278.6024
 20
345.6674
 10
278.4957
 20
345.6501
 10
278.388
 20
345.6377
 10
278.2798
 20
345.6302
 10
278.1718
 20
345.6276
 10
278.0642
 20
345.63
 10
277.9574
 20
345.6374
 10
277.8516
 20
345.6498
 10
277.747
 20
345.667
 10
277.6437
 20
345.689
 10
277.5418
 20
345.7156
 10
277.4414
 20
345.7468
 10
277.3427
 20
345.7825
 10
277.2459
 20
345.8225
 10
277.1511
 20
345.8668
 10
277.0584
 20
345.9151
 10
276.9681
 20
345.9674
 10
276.8802
 20
346.0236
 10
276.7949
 20
346.0835
 10
276.7124
 20
346.147
 10
276.6326
 20
346.214
 10
276.5558
 20
346.2844
 10
276.4822
 20
346.358
 10
276.4117
 20
346.4347
 10
276.3446
 20
346.5143
 10
276.2809
 20
346.5968
 10
276.2209
 20
346.682
 10
276.1646
 20
346.7698
 10
276.1122
 20
346.8601
 10
276.0637
 20
346.9526
 10
276.0193
 20
347.0474
 10
275.9792
 20
347.1442
 10
275.9434
 20
347.2428
 10
275.912
 20
347.3432
 10
275.8852
 20
347.445
 10
275.8631
 20
347.5483
 10
275.8457
 20
347.6528
 10
275.8332
 20
347.7585
 10
275.8257
 20
347.8653
 10
275.8231
 20
347.9729
 10
275.8255
 20
348.081
 10
275.8329
 20
348.1891
 10
275.8452
 20
348.2968
  0
ENDSEC
  0
SECTION
  2
OBJECTS
  0
DICTIONARY
  5
A
330
0
100
AcDbDictionary
281
1
  3
ACAD_COLOR
350
B
  3
ACAD_GROUP
350
C
  3
ACAD_LAYOUT
350
D
  3
ACAD_MATERIAL
350
E
  3
ACAD_MLEADERSTYLE
350
F
  3
ACAD_MLINESTYLE
350
10
  3
ACAD_PLOTSETTINGS
350
11
  3
ACAD_PLOTSTYLENAME
350
12
  3
ACAD_SCALELIST
350
14
  3
ACAD_TABLESTYLE
350
15
  3
ACAD_VISUALSTYLE
350
16
  3
EZDXF_META
350
2D
  0
DICTIONARY
  5
B
330
A
100
AcDbDictionary
281
1
  0
DICTIONARY
  5
C
330
A
100
AcDbDictionary
281
1
  0
DICTIONARY
  5
D
330
A
100
AcDbDictionary
281
1
  3
Model
350
1A
  3
Layout1
350
1E
  0
DICTIONARY
  5
E
330
A
100
AcDbDictionary
281
1
  3
ByBlock
350
1F
  3
ByLayer
350
20
  3
Global
350
21
  0
DICTIONARY
  5
F
330
A
100
AcDbDictionary
281
1
  3
Standard
350
2C
  0
DICTIONARY
  5
10
330
A
100
AcDbDictionary
281
1
  3
Standard
350
22
  0
DICTIONARY
  5
11
330
A
100
AcDbDictionary
281
1
  0
ACDBDICTIONARYWDFLT
  5
12
330
A
100
AcDbDictionary
281
1
  3
Normal
350
13
100
AcDbDictionaryWithDefault
340
13
  0
ACDBPLACEHOLDER
  5
13
330
12
  0
DICTIONARY
  5
14
330
A
100
AcDbDictionary
281
1
  0
DICTIONARY
  5
15
330
A
100
AcDbDictionary
281
1
  0
DICTIONARY
  5
16
330
A
100
AcDbDictionary
281
1
  0
LAYOUT
  5
1A
330
D
100
AcDbPlotSettings
  1

  4
A3
  6

 40
7.5
 41
20.0
 42
7.5
 43
20.0
 44
420.0
 45
297.0
 46
0.0
 47
0.0
 48
0.0
 49
0.0
140
0.0
141
0.0
142
1.0
143
1.0
 70
1024
 72
1
 73
0
 74
5
  7

 75
16
 76
0
 77
2
 78
300
147
1.0
148
0.0
149
0.0
100
AcDbLayout
  1
Model
 70
1
 71
0
 10
0.0
 20
0.0
 11
420.0
 21
297.0
 12
0.0
 22
0.0
 32
0.0
 14
1e+20
 24
1e+20
 34
1e+20
 15
-1e+20
 25
-1e+20
 35
-1e+20
146
0.0
 13
0.0
 23
0.0
 33
0.0
 16
1.0
 26
0.0
 36
0.0
 17
0.0
 27
1.0
 37
0.0
 76
1
330
17
  0
LAYOUT
  5
1E
330
D
100
AcDbPlotSettings
  1

  4
A3
  6

 40
7.5
 41
20.0
 42
7.5
 43
20.0
 44
420.0
 45
297.0
 46
0.0
 47
0.0
 48
0.0
 49
0.0
140
0.0
141
0.0
142
1.0
143
1.0
 70
0
 72
1
 73
0
 74
5
  7

 75
16
 76
0
 77
2
 78
300
147
1.0
148
0.0
149
0.0
100
AcDbLayout
  1
Layout1
 70
1
 71
1
 10
0.0
 20
0.0
 11
420.0
 21
297.0
 12
0.0
 22
0.0
 32
0.0
 14
1e+20
 24
1e+20
 34
1e+20
 15
-1e+20
 25
-1e+20
 35
-1e+20
146
0.0
 13
0.0
 23
0.0
 33
0.0
 16
1.0
 26
0.0
 36
0.0
 17
0.0
 27
1.0
 37
0.0
 76
1
330
1B
  0
MATERIAL
  5
1F
102
{ACAD_REACTORS
330
E
102
}
330
E
100
AcDbMaterial
  1
ByBlock
  2

 70
0
 40
1.0
 71
1
 41
1.0
 91
-1023410177
 42
1.0
 72
1
  3

 73
1
 74
1
 75
1
 44
0.5
 73
0
 45
1.0
 46
1.0
 77
1
  4

 78
1
 79
1
170
1
 48
1.0
171
1
  6

172
1
173
1
174
1
140
1.0
141
1.0
175
1
  7

176
1
177
1
178
1
143
1.0
179
1
  8

270
1
271
1
272
1
145
1.0
146
1.0
273
1
  9

274
1
275
1
276
1
 42
1.0
 72
1
  3

 73
1
 74
1
 75
1
 94
63
  0
MATERIAL
  5
20
102
{ACAD_REACTORS
330
E
102
}
330
E
100
AcDbMaterial
  1
ByLayer
  2

 70
0
 40
1.0
 71
1
 41
1.0
 91
-1023410177
 42
1.0
 72
1
  3

 73
1
 74
1
 75
1
 44
0.5
 73
0
 45
1.0
 46
1.0
 77
1
  4

 78
1
 79
1
170
1
 48
1.0
171
1
  6

172
1
173
1
174
1
140
1.0
141
1.0
175
1
  7

176
1
177
1
178
1
143
1.0
179
1
  8

270
1
271
1
272
1
145
1.0
146
1.0
273
1
  9

274
1
275
1
276
1
 42
1.0
 72
1
  3

 73
1
 74
1
 75
1
 94
63
  0
MATERIAL
  5
21
102
{ACAD_REACTORS
330
E
102
}
330
E
100
AcDbMaterial
  1
Global
  2

 70
0
 40
1.0
 71
1
 41
1.0
 91
-1023410177
 42
1.0
 72
1
  3

 73
1
 74
1
 75
1
 44
0.5
 73
0
 45
1.0
 46
1.0
 77
1
  4

 78
1
 79
1
170
1
 48
1.0
171
1
  6

172
1
173
1
174
1
140
1.0
141
1.0
175
1
  7

176
1
177
1
178
1
143
1.0
179
1
  8

270
1
271
1
272
1
145
1.0
146
1.0
273
1
  9

274
1
275
1
276
1
 42
1.0
 72
1
  3

 73
1
 74
1
 75
1
 94
63
  0
MLINESTYLE
  5
22
102
{ACAD_REACTORS
330
10
102
}
330
10
100
AcDbMlineStyle
  2
Standard
 70
0
  3

 62
256
 51
90.0
 52
90.0
 71
2
 49
0.5
 62
256
  6
BYLAYER
 49
-0.5
 62
256
  6
BYLAYER
  0
MLEADERSTYLE
  5
2C
102
{ACAD_REACTORS
330
F
102
}
330
F
100
AcDbMLeaderStyle
179
2
170
2
171
1
172
0
 90
2
 40
0.0
 41
0.0
173
1
 91
-1056964608
 92
-2
290
1
 42
2.0
291
1
 43
8.0
  3
Standard
 44
4.0
300

342
29
174
1
175
1
176
0
178
1
 93
-1056964608
 45
4.0
292
0
297
0
 46
4.0
 94
-1056964608
 47
1.0
 49
1.0
140
1.0
294
1
141
0.0
177
0
142
1.0
295
0
296
0
143
3.75
271
0
272
9
273
9
  0
DICTIONARY
  5
2D
330
A
100
AcDbDictionary
280
1
281
1
  3
CREATED_BY_EZDXF
350
2E
  3
WRITTEN_BY_EZDXF
350
3F
  0
DICTIONARYVAR
  5
2E
330
2D
100
DictionaryVariables
280
0
  1
1.4.4 @ 2026-10-02T04:03:44.249665+00:00
  0
DICTIONARYVAR
  5
3F
330
2D
100
DictionaryVariables
280
0
  1
1.4.4 @ 2026-10-02T04:03:44.259584+00:00
  0
ENDSEC
  0
EOF
