  0
SECTION
  2
HEADER
  9
$ACADVER
  1
AC1024
  9
$ACADMAINTVER
 70
6
  9
$DWGCODEPAGE
  3
ANSI_1252
  9
$LASTSAVEDBY
  1
ezdxf
  9
$INSBASE
 10
0.0
 20
0.0
 30
0.0
  9
$EXTMIN
 10
1e+20
 20
1e+20
 30
1e+20
  9
$EXTMAX
 10
-1e+20
 20
-1e+20
 30
-1e+20
  9
$LIMMIN
 10
0.0
 20
0.0
  9
$LIMMAX
 10
420.0
 20
297.0
  9
$ORTHOMODE
 70
0
  9
$REGENMODE
 70
1
  9
$FILLMODE
 70
1
  9
$QTEXTMODE
 70
0
  9
$MIRRTEXT
 70
1
  9
$LTSCALE
 40
1.0
  9
$ATTMODE
 70
1
  9
$TEXTSIZE
 40
2.5
  9
$TRACEWID
 40
1.0
  9
$TEXTSTYLE
  7
Standard
  9
$CLAYER
  8
0
  9
$CELTYPE
  6
ByLayer
  9
$CECOLOR
 62
256
  9
$CELTSCALE
 40
1.0
  9
$DISPSILH
 70
0
  9
$DIMSCALE
 40
1.0
  9
$DIMASZ
 40
2.5
  9
$DIMEXO
 40
0.625
  9
$DIMDLI
 40
3.75
  9
$DIMRND
 40
0.0
  9
$DIMDLE
 40
0.0
  9
$DIMEXE
 40
1.25
  9
$DIMTP
 40
0.0
  9
$DIMTM
 40
0.0
  9
$DIMTXT
 40
2.5
  9
$DIMCEN
 40
2.5
  9
$DIMTSZ
 40
0.0
  9
$DIMTOL
 70
0
  9
$DIMLIM
 70
0
  9
$DIMTIH
 70
0
  9
$DIMTOH
 70
0
  9
$DIMSE1
 70
0
  9
$DIMSE2
 70
0
  9
$DIMTAD
 70
1
  9
$DIMZIN
 70
8
  9
$DIMBLK
  1

  9
$DIMASO
 70
1
  9
$DIMSHO
 70
1
  9
$DIMPOST
  1

  9
$DIMAPOST
  1

  9
$DIMALT
 70
0
  9
$DIMALTD
 70
3
  9
$DIMALTF
 40
0.03937007874
  9
$DIMLFAC
 40
1.0
  9
$DIMTOFL
 70
1
  9
$DIMTVP
 40
0.0
  9
$DIMTIX
 70
0
  9
$DIMSOXD
 70
0
  9
$DIMSAH
 70
0
  9
$DIMBLK1
  1

  9
$DIMBLK2
  1

  9
$DIMSTYLE
  2
ISO-25
  9
$DIMCLRD
 70
0
  9
$DIMCLRE
 70
0
  9
$DIMCLRT
 70
0
  9
$DIMTFAC
 40
1.0
  9
$DIMGAP
 40
0.625
  9
$DIMJUST
 70
0
  9
$DIMSD1
 70
0
  9
$DIMSD2
 70
0
  9
$DIMTOLJ
 70
0
  9
$DIMTZIN
 70
8
  9
$DIMALTZ
 70
0
  9
$DIMALTTZ
 70
0
  9
$DIMUPT
 70
0
  9
$DIMDEC
 70
2
  9
$DIMTDEC
 70
2
  9
$DIMALTU
 70
2
  9
$DIMALTTD
 70
3
  9
$DIMTXSTY
  7
Standard
  9
$DIMAUNIT
 70
0
  9
$DIMADEC
 70
0
  9
$DIMALTRND
 40
0.0
  9
$DIMAZIN
 70
0
  9
$DIMDSEP
 70
44
  9
$DIMATFIT
 70
3
  9
$DIMFRAC
 70
0
  9
$DIMLDRBLK
  1

  9
$DIMLUNIT
 70
2
  9
$DIMLWD
 70
-2
  9
$DIMLWE
 70
-2
  9
$DIMTMOVE
 70
0
  9
$DIMFXL
 40
1.0
  9
$DIMFXLON
 70
0
  9
$DIMJOGANG
 40
0.785398163397
  9
$DIMTFILL
 70
0
  9
$DIMTFILLCLR
 70
0
  9
$DIMARCSYM
 70
0
  9
$DIMLTYPE
  6

  9
$DIMLTEX1
  6

  9
$DIMLTEX2
  6

  9
$DIMTXTDIRECTION
 70
0
  9
$LUNITS
 70
2
  9
$LUPREC
 70
4
  9
$SKETCHINC
 40
1.0
  9
$FILLETRAD
 40
10.0
  9
$AUNITS
 70
0
  9
$AUPREC
 70
2
  9
$MENU
  1
.
  9
$ELEVATION
 40
0.0
  9
$PELEVATION
 40
0.0
  9
$THICKNESS
 40
0.0
  9
$LIMCHECK
 70
0
  9
$CHAMFERA
 40
0.0
  9
$CHAMFERB
 40
0.0
  9
$CHAMFERC
 40
0.0
  9
$CHAMFERD
 40
0.0
  9
$SKPOLY
 70
0
  9
$TDCREATE
 40
2461316.0488310186
  9
$TDUCREATE
 40
2458532.153996898
  9
$TDUPDATE
 40
2461316.0488310186
  9
$TDUUPDATE
 40
2458532.1544311
  9
$TDINDWG
 40
0.0
  9
$TDUSRTIMER
 40
0.0
  9
$USRTIMER
 70
1
  9
$ANGBASE
 50
0.0
  9
$ANGDIR
 70
0
  9
$PDMODE
 70
0
  9
$PDSIZE
 40
0.0
  9
$PLINEWID
 40
0.0
  9
$SPLFRAME
 70
0
  9
$SPLINETYPE
 70
6
  9
$SPLINESEGS
 70
8
  9
$HANDSEED
  5
40
  9
$SURFTAB1
 70
6
  9
$SURFTAB2
 70
6
  9
$SURFTYPE
 70
6
  9
$SURFU
 70
6
  9
$SURFV
 70
6
  9
$UCSBASE
  2

  9
$UCSNAME
  2

  9
$UCSORG
 10
0.0
 20
0.0
 30
0.0
  9
$UCSXDIR
 10
1.0
 20
0.0
 30
0.0
  9
$UCSYDIR
 10
0.0
 20
1.0
 30
0.0
  9
$UCSORTHOREF
  2

  9
$UCSORTHOVIEW
 70
0
  9
$UCSORGTOP
 10
0.0
 20
0.0
 30
0.0
  9
$UCSORGBOTTOM
 10
0.0
 20
0.0
 30
0.0
  9
$UCSORGLEFT
 10
0.0
 20
0.0
 30
0.0
  9
$UCSORGRIGHT
 10
0.0
 20
0.0
 30
0.0
  9
$UCSORGFRONT
 10
0.0
 20
0.0
 30
0.0
  9
$UCSORGBACK
 10
0.0
 20
0.0
 30
0.0
  9
$PUCSBASE
  2

  9
$PUCSNAME
  2

  9
$PUCSORG
 10
0.0
 20
0.0
 30
0.0
  9
$PUCSXDIR
 10
1.0
 20
0.0
 30
0.0
  9
$PUCSYDIR
 10
0.0
 20
1.0
 30
0.0
  9
$PUCSORTHOREF
  2

  9
$PUCSORTHOVIEW
 70
0
  9
$PUCSORGTOP
 10
0.0
 20
0.0
 30
0.0
  9
$PUCSORGBOTTOM
 10
0.0
 20
0.0
 30
0.0
  9
$PUCSORGLEFT
 10
0.0
 20
0.0
 30
0.0
  9
$PUCSORGRIGHT
 10
0.0
 20
0.0
 30
0.0
  9
$PUCSORGFRONT
 10
0.0
 20
0.0
 30
0.0
  9
$PUCSORGBACK
 10
0.0
 20
0.0
 30
0.0
  9
$USERI1
 70
0
  9
$USERI2
 70
0
  9
$USERI3
 70
0
  9
$USERI4
 70
0
  9
$USERI5
 70
0
  9
$USERR1
 40
0.0
  9
$USERR2
 40
0.0
  9
$USERR3
 40
0.0
  9
$USERR4
 40
0.0
  9
$USERR5
 40
0.0
  9
$WORLDVIEW
 70
1
  9
$SHADEDGE
 70
3
  9
$SHADEDIF
 70
70
  9
$TILEMODE
 70
1
  9
$MAXACTVP
 70
64
  9
$PINSBASE
 10
0.0
 20
0.0
 30
0.0
  9
$PLIMCHECK
 70
0
  9
$PEXTMIN
 10
1e+20
 20
1e+20
 30
1e+20
  9
$PEXTMAX
 10
-1e+20
 20
-1e+20
 30
-1e+20
  9
$PLIMMIN
 10
0.0
 20
0.0
  9
$PLIMMAX
 10
420.0
 20
297.0
  9
$UNITMODE
 70
0
  9
$VISRETAIN
 70
1
  9
$PLINEGEN
 70
0
  9
$PSLTSCALE
 70
1
  9
$TREEDEPTH
 70
3020
  9
$CMLSTYLE
  2
Standard
  9
$CMLJUST
 70
0
  9
$CMLSCALE
 40
20.0
  9
$PROXYGRAPHICS
 70
1
  9
$MEASUREMENT
 70
1
  9
$CELWEIGHT
370
-1
  9
$ENDCAPS
280
0
  9
$JOINSTYLE
280
0
  9
$LWDISPLAY
290
0
  9
$INSUNITS
 70
4
  9
$HYPERLINKBASE
  1

  9
$STYLESHEET
  1

  9
$XEDIT
290
1
  9
$CEPSNTYPE
380
0
  9
$PSTYLEMODE
290
1
  9
$FINGERPRINTGUID
  2
{C457E249-8DFC-40BE-ACD4-61060DB3F0C7}
  9
$VERSIONGUID
  2
{77E67A97-573B-41CC-B917-0A7E9CEC6BA5}
  9
$EXTNAMES
290
1
  9
$PSVPSCALE
 40
0.0
  9
$OLESTARTUP
290
0
  9
$SORTENTS
280
127
  9
$INDEXCTL
280
0
  9
$HIDETEXT
280
1
  9
$XCLIPFRAME
280
1
  9
$HALOGAP
280
0
  9
$OBSCOLOR
 70
257
  9
$OBSLTYPE
280
0
  9
$INTERSECTIONDISPLAY
280
0
  9
$INTERSECTIONCOLOR
 70
257
  9
$DIMASSOC
280
2
  9
$PROJECTNAME
  1

  9
$CAMERADISPLAY
290
0
  9
$LENSLENGTH
 40
50.0
  9
$CAMERAHEIGHT
 40
0.0
  9
$STEPSPERSEC
 40
24.0
  9
$STEPSIZE
 40
100.0
  9
$3DDWFPREC
 40
2.0
  9
$PSOLWIDTH
 40
0.005
  9
$PSOLHEIGHT
 40
0.08
  9
$LOFTANG1
 40
1.570796326795
  9
$LOFTANG2
 40
1.570796326795
  9
$LOFTMAG1
 40
0.0
  9
$LOFTMAG2
 40
0.0
  9
$LOFTPARAM
 70
7
  9
$LOFTNORMALS
280
1
  9
$LATITUDE
 40
37.795
  9
$LONGITUDE
 40
-122.394
  9
$NORTHDIRECTION
 40
0.0
  9
$TIMEZONE
 70
-8000
  9
$LIGHTGLYPHDISPLAY
280
1
  9
$TILEMODELIGHTSYNCH
280
1
  9
$CMATERIAL
347
20
  9
$SOLIDHIST
280
0
  9
$SHOWHIST
280
1
  9
$DWFFRAME
280
2
  9
$DGNFRAME
280
2
  9
$REALWORLDSCALE
290
1
  9
$INTERFERECOLOR
 62
256
  9
$CSHADOW
280
0
  9
$SHADOWPLANELOCATION
 40
0.0
  0
ENDSEC
  0
SECTION
  2
CLASSES
  0
CLASS
  1
ACDBDICTIONARYWDFLT
  2
AcDbDictionaryWithDefault
  3
ObjectDBX Classes
 90
0
 91
0
280
0
281
0
  0
CLASS
  1
SUN
  2
AcDbSun
  3
SCENEOE
 90
1153
 91
0
280
0
281
0
  0
CLASS
  1
VISUALSTYLE
  2
AcDbVisualStyle
  3
ObjectDBX Classes
 90
4095
 91
0
280
0
281
0
  0
CLASS
  1
MATERIAL
  2
AcDbMaterial
  3
ObjectDBX Classes
 90
1153
 91
0
280
0
281
0
  0
CLASS
  1
SCALE
  2
AcDbScale
  3
ObjectDBX Classes
 90
1153
 91
0
280
0
281
0
  0
CLASS
  1
TABLESTYLE
  2
AcDbTableStyle
  3
ObjectDBX Classes
 90
4095
 91
0
280
0
281
0
  0
CLASS
  1
MLEADERSTYLE
  2
AcDbMLeaderStyle
  3
ACDB_MLEADERSTYLE_CLASS
 90
4095
 91
0
280
0
281
0
  0
CLASS
  1
DICTIONARYVAR
  2
AcDbDictionaryVar
  3
ObjectDBX Classes
 90
0
 91
0
280
0
281
0
  0
CLASS
  1
CELLSTYLEMAP
  2
AcDbCellStyleMap
  3
ObjectDBX Classes
 90
1152
 91
0
280
0
281
0
  0
CLASS
  1
MENTALRAYRENDERSETTINGS
  2
AcDbMentalRayRenderSettings
  3
SCENEOE
 90
1024
 91
0
280
0
281
0
  0
CLASS
  1
ACDBDETAILVIEWSTYLE
  2
AcDbDetailViewStyle
  3
ObjectDBX Classes
 90
1025
 91
0
280
0
281
0
  0
CLASS
  1
ACDBSECTIONVIEWSTYLE
  2
AcDbSectionViewStyle
  3
ObjectDBX Classes
 90
1025
 91
0
280
0
281
0
  0
CLASS
  1
RASTERVARIABLES
  2
AcDbRasterVariables
  3
ISM
 90
0
 91
0
280
0
281
0
  0
CLASS
  1
ACDBPLACEHOLDER
  2
AcDbPlaceHolder
  3
ObjectDBX Classes
 90
0
 91
0
280
0
281
0
  0
CLASS
  1
LAYOUT
  2
AcDbLayout
  3
ObjectDBX Classes
 90
0
 91
0
280
0
281
0
  0
ENDSEC
  0
SECTION
  2
TABLES
  0
TABLE
  2
VPORT
  5
8
330
0
100
AcDbSymbolTable
 70
1
  0
VPORT
  5
23
330
8
100
AcDbSymbolTableRecord
100
AcDbViewportTableRecord
  2
*Active
 70
0
 10
0.0
 20
0.0
 11
1.0
 21
1.0
 12
0.0
 22
0.0
 13
0.0
 23
0.0
 14
0.5
 24
0.5
 15
0.5
 25
0.5
 16
0.0
 26
0.0
 36
1.0
 17
0.0
 27
0.0
 37
0.0
 40
1000.0
 41
1.34
 42
50.0
 43
0.0
 44
0.0
 50
0.0
 51
0.0
 71
0
 72
1000
 73
1
 74
3
 75
0
 76
0
 77
0
 78
0
281
0
 65
0
146
0.0
  0
ENDTAB
  0
TABLE
  2
LTYPE
  5
2
330
0
100
AcDbSymbolTable
 70
3
  0
LTYPE
  5
24
330
2
100
AcDbSymbolTableRecord
100
AcDbLinetypeTableRecord
  2
ByBlock
 70
0
  3

 72
65
 73
0
 40
0.0
  0
LTYPE
  5
25
330
2
100
AcDbSymbolTableRecord
100
AcDbLinetypeTableRecord
  2
ByLayer
 70
0
  3

 72
65
 73
0
 40
0.0
  0
LTYPE
  5
26
330
2
100
AcDbSymbolTableRecord
100
AcDbLinetypeTableRecord
  2
Continuous
 70
0
  3

 72
65
 73
0
 40
0.0
  0
ENDTAB
  0
TABLE
  2
LAYER
  5
1
330
0
100
AcDbSymbolTable
 70
4
  0
LAYER
  5
27
330
1
100
AcDbSymbolTableRecord
100
AcDbLayerTableRecord
  2
0
 70
0
 62
7
  6
Continuous
370
-3
390
13
347
21
  0
LAYER
  5
28
330
1
100
AcDbSymbolTableRecord
100
AcDbLayerTableRecord
  2
Defpoints
 70
0
 62
7
  6
Continuous
290
0
370
-3
390
13
347
21
  0
LAYER
  5
2F
330
1
100
AcDbSymbolTableRecord
100
AcDbLayerTableRecord
  2
CUT
 70
0
 62
7
  6
Continuous
370
-3
390
13
347
21
  0
LAYER
  5
30
330
1
100
AcDbSymbolTableRecord
100
AcDbLayerTableRecord
  2
GUIA
 70
0
 62
1
  6
DASHED
370
-3
390
13
347
21
  0
ENDTAB
  0
TABLE
  2
STYLE
  5
5
330
0
100
AcDbSymbolTable
 70
1
  0
STYLE
  5
29
330
5
100
AcDbSymbolTableRecord
100
AcDbTextStyleTableRecord
  2
Standard
 70
0
 40
0.0
 41
1.0
 50
0.0
 71
0
 42
2.5
  3
txt
  4

  0
ENDTAB
  0
TABLE
  2
VIEW
  5
7
330
0
100
AcDbSymbolTable
 70
0
  0
ENDTAB
  0
TABLE
  2
UCS
  5
6
330
0
100
AcDbSymbolTable
 70
0
  0
ENDTAB
  0
TABLE
  2
APPID
  5
3
330
0
100
AcDbSymbolTable
 70
3
  0
APPID
  5
2A
330
3
100
AcDbSymbolTableRecord
100
AcDbRegAppTableRecord
  2
ACAD
 70
0
  0
APPID
  5
3D
330
3
100
AcDbSymbolTableRecord
100
AcDbRegAppTableRecord
  2
HATCHBACKGROUNDCOLOR
 70
0
  0
APPID
  5
3E
330
3
100
AcDbSymbolTableRecord
100
AcDbRegAppTableRecord
  2
EZDXF
 70
0
  0
ENDTAB
  0
TABLE
  2
DIMSTYLE
  5
4
330
0
100
AcDbSymbolTable
 70
1
100
AcDbDimStyleTable
  0
DIMSTYLE
105
2B
330
4
100
AcDbSymbolTableRecord
100
AcDbDimStyleTableRecord
  2
Standard
 70
0
 40
1.0
 41
2.5
 42
0.625
 43
3.75
 44
1.25
 45
0.0
 46
0.0
 47
0.0
 48
0.0
 49
2.5
140
2.5
141
2.5
142
0.0
143
0.03937007874
144
1.0
145
0.0
146
1.0
147
0.625
148
0.0
 69
0
 70
0
 71
0
 72
0
 73
0
 74
0
 75
0
 76
0
 77
1
 78
8
 79
3
170
0
171
3
172
1
173
0
174
0
175
0
176
0
177
0
178
0
179
2
271
2
272
2
273
2
274
3
275
0
276
0
277
2
278
44
279
0
280
0
281
0
282
0
283
0
284
8
285
0
286
0
288
0
289
3
290
0
371
-2
372
-2
  0
ENDTAB
  0
TABLE
  2
BLOCK_RECORD
  5
9
330
0
100
AcDbSymbolTable
 70
2
  0
BLOCK_RECORD
  5
17
330
9
100
AcDbSymbolTableRecord
100
AcDbBlockTableRecord
  2
*Model_Space
340
1A
 70
0
280
1
281
0
  0
BLOCK_RECORD
  5
1B
330
9
100
AcDbSymbolTableRecord
100
AcDbBlockTableRecord
  2
*Paper_Space
340
1E
 70
0
280
1
281
0
  0
ENDTAB
  0
ENDSEC
  0
SECTION
  2
BLOCKS
  0
BLOCK
  5
18
330
17
100
AcDbEntity
  8
0
100
AcDbBlockBegin
  2
*Model_Space
 70
0
 10
0.0
 20
0.0
 30
0.0
  3
*Model_Space
  1

  0
ENDBLK
  5
19
330
17
100
AcDbEntity
  8
0
100
AcDbBlockEnd
  0
BLOCK
  5
1C
330
1B
100
AcDbEntity
  8
0
100
AcDbBlockBegin
  2
*Paper_Space
 70
0
 10
0.0
 20
0.0
 30
0.0
  3
*Paper_Space
  1

  0
ENDBLK
  5
1D
330
1B
100
AcDbEntity
  8
0
100
AcDbBlockEnd
  0
ENDSEC
  0
SECTION
  2
ENTITIES
  0
LWPOLYLINE
  5
31
330
17
100
AcDbEntity
  8
CUT
100
AcDbPolyline
 90
175
 70
1
 10
343.2192
 20
352.9403
 10
343.1286
 20
352.6054
 10
342.9078
 20
351.5411
 10
342.6197
 20
350.2183
 10
341.7769
 20
342.4893
 10
341.6714
 20
341.2338
 10
341.5998
 20
340.2002
 10
341.4907
 20
338.3674
 10
341.3469
 20
335.561
 10
341.2562
 20
334.1275
 10
341.1914
 20
333.3073
 10
341.0917
 20
332.2567
 10
341.0058
 20
331.4871
 10
340.9097
 20
330.74
 10
340.7637
 20
329.7866
 10
340.6391
 20
329.1027
 10
340.4515
 20
328.2395
 10
340.2906
 20
327.6303
 10
340.1067
 20
327.0461
 10
339.9698
 20
326.6663
 10
339.8204
 20
326.2916
 10
339.5713
 20
325.7373
 10
339.2934
 20
325.1955
 10
338.9932
 20
324.6734
 10
338.6624
 20
324.1616
 10
338.2955
 20
323.6545
 10
337.926
 20
323.1868
 10
337.5356
 20
322.7385
 10
337.2075
 20
322.3919
 10
336.5711
 20
321.7599
 10
336.0808
 20
321.2994
 10
335.5783
 20
320.8532
 10
335.0881
 20
320.4478
 10
334.6134
 20
320.0859
 10
334.1433
 20
319.7548
 10
333.6634
 20
319.4404
 10
333.1654
 20
319.1374
 10
332.6491
 20
318.8499
 10
332.12
 20
318.5855
 10
331.5874
 20
318.3494
 10
331.3225
 20
318.2421
 10
330.7988
 20
318.048
 10
330.28
 20
317.8791
 10
329.7517
 20
317.7346
 10
329.1951
 20
317.6158
 10
328.6049
 20
317.5244
 10
328.0048
 20
317.4612
 10
327.4434
 20
317.4251
 10
326.9632
 20
317.4143
 10
326.7568
 20
317.4176
 10
326.389
 20
317.4402
 10
325.8564
 20
317.5119
 10
325.4887
 20
317.5848
 10
325.1286
 20
317.6787
 10
324.785
 20
317.794
 10
324.4522
 20
317.9308
 10
324.2883
 20
318.0071
 10
323.9665
 20
318.1753
 10
323.6562
 20
318.3642
 10
323.5058
 20
318.4662
 10
323.2141
 20
318.6855
 10
322.9337
 20
318.924
 10
322.7981
 20
319.0501
 10
322.6659
 20
319.1803
 10
322.4131
 20
319.4519
 10
322.1774
 20
319.7362
 10
322.0666
 20
319.8825
 10
321.8596
 20
320.1836
 10
321.6725
 20
320.4969
 10
321.5865
 20
320.6581
 10
321.4296
 20
320.9873
 10
321.293
 20
321.3232
 10
321.2324
 20
321.4941
 10
321.127
 20
321.8465
 10
321.0821
 20
322.0289
 10
321.0076
 20
322.4002
 10
320.9317
 20
322.9414
 10
320.9049
 20
323.3049
 10
320.8994
 20
323.5043
 10
320.9072
 20
323.9655
 10
320.945
 20
324.5121
 10
321.0188
 20
325.1092
 10
321.0703
 20
325.4111
 10
321.1315
 20
325.7081
 10
321.2019
 20
325.9971
 10
321.2803
 20
326.2771
 10
321.4574
 20
326.8137
 10
321.6568
 20
327.3332
 10
321.8807
 20
327.8529
 10
322.1416
 20
328.3808
 10
322.2903
 20
328.6476
 10
322.4522
 20
328.9153
 10
322.8112
 20
329.4482
 10
323.5638
 20
330.4646
 10
324.2236
 20
331.3902
 10
324.4022
 20
331.6185
 10
324.606
 20
331.8517
 10
324.8442
 20
332.0925
 10
324.9781
 20
332.2162
 10
325.4418
 20
332.6014
 10
325.7957
 20
332.8675
 10
326.7203
 20
333.53
 10
327.1838
 20
333.89
 10
327.406
 20
334.1003
 10
327.4845
 20
334.1948
 10
327.5398
 20
334.2819
 10
327.5714
 20
334.3615
 10
327.5799
 20
334.4339
 10
327.5667
 20
334.4997
 10
327.5342
 20
334.5598
 10
327.4858
 20
334.6154
 10
327.4253
 20
334.6679
 10
327.1425
 20
334.8736
 10
327.0206
 20
334.989
 10
326.9248
 20
335.1171
 10
326.849
 20
335.256
 10
326.5751
 20
335.8518
 10
326.4491
 20
336.1646
 10
326.3988
 20
336.3286
 10
326.3198
 20
336.6752
 10
326.2577
 20
337.0398
 10
326.2077
 20
337.4028
 10
326.1736
 20
337.7579
 10
326.157
 20
338.3563
 10
326.1791
 20
339.1533
 10
326.241
 20
340.0942
 10
326.307
 20
340.7187
 10
326.348
 20
341.0173
 10
326.3943
 20
341.3062
 10
326.5028
 20
341.8616
 10
326.7042
 20
342.6775
 10
326.864
 20
343.2281
 10
327.0442
 20
343.7815
 10
327.2452
 20
344.3282
 10
327.3535
 20
344.5968
 10
327.4669
 20
344.8617
 10
327.709
 20
345.3813
 10
327.8375
 20
345.6368
 10
328.1091
 20
346.1416
 10
328.4005
 20
346.6395
 10
328.7115
 20
347.1302
 10
329.0423
 20
347.6121
 10
329.392
 20
348.0835
 10
329.759
 20
348.5434
 10
330.3379
 20
349.2097
 10
330.7408
 20
349.6362
 10
331.1564
 20
350.0463
 10
331.5845
 20
350.4375
 10
332.0238
 20
350.8083
 10
332.4725
 20
351.1577
 10
332.929
 20
351.4854
 10
333.3939
 20
351.7913
 10
333.8705
 20
352.0747
 10
334.3629
 20
352.335
 10
334.8711
 20
352.5712
 10
335.388
 20
352.7831
 10
335.9024
 20
352.9704
 10
336.4097
 20
353.1331
 10
336.9217
 20
353.2708
 10
337.4622
 20
353.383
 10
338.046
 20
353.4692
 10
338.6539
 20
353.5299
 10
339.2299
 20
353.5665
 10
339.9188
 20
353.5834
 10
340.5921
 20
353.5624
 10
341.2601
 20
353.5149
 10
341.8918
 20
353.4345
 10
342.1961
 20
353.3807
 10
342.3305
 20
353.3495
 10
343.1293
 20
353.1329
 10
343.2284
 20
353.0819
 10
343.2509
 20
353.0544
 10
343.256
 20
353.0259
 10
343.2484
 20
352.9969
 10
343.2192
 20
352.9403
  0
LWPOLYLINE
  5
32
330
17
100
AcDbEntity
  8
CUT
100
AcDbPolyline
 90
103
 70
1
 10
339.6245
 20
350.7125
 10
339.5584
 20
350.7495
 10
339.1212
 20
350.9098
 10
338.7145
 20
351.115
 10
338.5749
 20
351.1768
 10
338.4295
 20
351.2293
 10
338.1271
 20
351.3137
 10
337.8205
 20
351.3881
 10
337.3499
 20
351.4819
 10
337.0259
 20
351.5238
 10
336.7013
 20
351.5526
 10
336.3715
 20
351.5699
 10
336.0196
 20
351.5699
 10
335.6404
 20
351.5438
 10
335.4456
 20
351.5189
 10
335.0611
 20
351.4424
 10
334.694
 20
351.3297
 10
334.5169
 20
351.2601
 10
334.1706
 20
351.0957
 10
333.8323
 20
350.8995
 10
333.6667
 20
350.7898
 10
333.3452
 20
350.5481
 10
333.0382
 20
350.2781
 10
332.89
 20
350.1333
 10
332.6029
 20
349.825
 10
332.4637
 20
349.662
 10
332.1938
 20
349.3187
 10
331.9353
 20
348.9533
 10
331.5694
 20
348.3689
 10
331.3402
 20
347.9594
 10
331.1236
 20
347.537
 10
330.8242
 20
346.8825
 10
330.6425
 20
346.4344
 10
330.4752
 20
345.979
 10
330.322
 20
345.5176
 10
330.1824
 20
345.0492
 10
329.9981
 20
344.3262
 10
329.8434
 20
343.5793
 10
329.7565
 20
343.0794
 10
329.6823
 20
342.5849
 10
329.6205
 20
342.0883
 10
329.5706
 20
341.57
 10
329.5324
 20
341.0174
 10
329.5056
 20
340.4466
 10
329.4902
 20
339.9039
 10
329.4869
 20
339.4363
 10
329.4977
 20
339.0545
 10
329.5253
 20
338.7224
 10
329.5728
 20
338.3998
 10
329.643
 20
338.0839
 10
329.738
 20
337.7943
 10
329.7954
 20
337.6625
 10
329.8598
 20
337.5391
 10
329.9315
 20
337.4238
 10
330.0109
 20
337.3168
 10
330.0985
 20
337.2189
 10
330.1942
 20
337.1315
 10
330.2977
 20
337.0555
 10
330.408
 20
336.9915
 10
330.5241
 20
336.9396
 10
330.6454
 20
336.8998
 10
330.772
 20
336.8717
 10
330.9048
 20
336.8548
 10
331.0445
 20
336.8489
 10
331.1912
 20
336.8532
 10
331.3436
 20
336.8673
 10
331.6574
 20
336.9232
 10
331.9714
 20
337.0133
 10
332.1273
 20
337.0705
 10
332.4395
 20
337.2076
 10
332.7542
 20
337.3725
 10
332.912
 20
337.4642
 10
333.2268
 20
337.6648
 10
333.6989
 20
338.0092
 10
334.1745
 20
338.4034
 10
334.6416
 20
338.8273
 10
335.1043
 20
339.2829
 10
335.6007
 20
339.8154
 10
336.1344
 20
340.4354
 10
336.653
 20
341.0916
 10
336.9689
 20
341.5286
 10
337.2618
 20
341.9676
 10
337.6725
 20
342.6452
 10
338.0503
 20
343.3435
 10
338.2765
 20
343.8104
 10
338.482
 20
344.2804
 10
338.7673
 20
345.0176
 10
338.9469
 20
345.537
 10
339.1049
 20
346.0564
 10
339.2233
 20
346.546
 10
339.2658
 20
346.7765
 10
339.4052
 20
347.7363
 10
339.5269
 20
348.3556
 10
339.7631
 20
349.4436
 10
339.8195
 20
349.7891
 10
339.846
 20
350.095
 10
339.8452
 20
350.2282
 10
339.834
 20
350.3466
 10
339.812
 20
350.4493
 10
339.7793
 20
350.5362
 10
339.7365
 20
350.6081
 10
339.6844
 20
350.6662
 10
339.6245
 20
350.7125
  0
LWPOLYLINE
  5
33
330
17
100
AcDbEntity
  8
CUT
100
AcDbPolyline
 90
127
 70
1
 10
338.7317
 20
342.3153
 10
338.5723
 20
342.1183
 10
338.3616
 20
341.817
 10
337.3794
 20
340.3035
 10
337.0827
 20
339.8587
 10
336.6641
 20
339.2653
 10
336.409
 20
338.9305
 10
336.1733
 20
338.6427
 10
335.8492
 20
338.2807
 10
334.5747
 20
336.9773
 10
334.0703
 20
336.4905
 10
333.8033
 20
336.2528
 10
333.5307
 20
336.026
 10
333.2574
 20
335.8138
 10
332.7296
 20
335.4363
 10
332.0353
 20
334.9675
 10
331.6097
 20
334.699
 10
331.3785
 20
334.5764
 10
331.1189
 20
334.4629
 10
330.8236
 20
334.3598
 10
330.4931
 20
334.269
 10
330.139
 20
334.1919
 10
329.7855
 20
334.1297
 10
329.3244
 20
334.065
 10
328.9285
 20
334.0256
 10
328.4889
 20
334.045
 10
328.3405
 20
334.077
 10
328.3006
 20
334.0705
 10
328.2514
 20
334.05
 10
328.1911
 20
334.0124
 10
328.0342
 20
333.8802
 10
327.9378
 20
333.7854
 10
327.5899
 20
333.4037
 10
327.0592
 20
332.7692
 10
326.0
 20
331.4492
 10
325.6957
 20
331.046
 10
325.3938
 20
330.6132
 10
325.0831
 20
330.1298
 10
324.7827
 20
329.6205
 10
324.644
 20
329.3672
 10
324.397
 20
328.8758
 10
324.2881
 20
328.6377
 10
324.094
 20
328.1695
 10
323.9262
 20
327.6979
 10
323.8524
 20
327.4564
 10
323.7286
 20
326.9589
 10
323.6804
 20
326.705
 10
323.6129
 20
326.2022
 10
323.5931
 20
325.9618
 10
323.5786
 20
325.5195
 10
323.5824
 20
325.319
 10
323.6088
 20
324.9453
 10
323.6304
 20
324.7636
 10
323.6896
 20
324.3969
 10
323.7706
 20
324.0288
 10
323.8197
 20
323.8482
 10
323.8747
 20
323.6712
 10
324.0024
 20
323.327
 10
324.1531
 20
322.9923
 10
324.3263
 20
322.6665
 10
324.4211
 20
322.5078
 10
324.6273
 20
322.1997
 10
324.7386
 20
322.0503
 10
324.9769
 20
321.7603
 10
325.2349
 20
321.4825
 10
325.5102
 20
321.219
 10
325.7999
 20
320.9725
 10
326.1016
 20
320.7451
 10
326.4147
 20
320.5383
 10
326.5759
 20
320.4428
 10
326.9071
 20
320.2674
 10
327.2481
 20
320.1132
 10
327.5968
 20
319.9803
 10
327.7749
 20
319.922
 10
327.9564
 20
319.8691
 10
328.33
 20
319.7796
 10
328.7095
 20
319.7112
 10
329.0829
 20
319.6629
 10
329.4612
 20
319.6348
 10
329.8781
 20
319.6283
 10
330.3517
 20
319.6458
 10
330.6039
 20
319.6645
 10
331.1131
 20
319.7235
 10
331.3609
 20
319.7642
 10
331.6009
 20
319.8127
 10
332.0592
 20
319.9328
 10
332.281
 20
320.0043
 10
332.7179
 20
320.1702
 10
333.148
 20
320.3672
 10
333.3589
 20
320.4776
 10
333.7675
 20
320.7218
 10
333.9639
 20
320.8549
 10
334.3401
 20
321.1413
 10
334.5203
 20
321.2942
 10
334.8678
 20
321.62
 10
335.0362
 20
321.7939
 10
335.3638
 20
322.1652
 10
335.676
 20
322.5637
 10
335.8231
 20
322.7697
 10
336.092
 20
323.1867
 10
336.212
 20
323.3961
 10
336.4242
 20
323.8211
 10
336.5193
 20
324.0408
 10
336.6953
 20
324.506
 10
336.7791
 20
324.7541
 10
336.9404
 20
325.2802
 10
337.1648
 20
326.1249
 10
337.2997
 20
326.7136
 10
337.4818
 20
327.6397
 10
337.6465
 20
328.6265
 10
337.8436
 20
329.9913
 10
337.9727
 20
331.0163
 10
338.0515
 20
331.7216
 10
338.2004
 20
333.2908
 10
338.3053
 20
334.589
 10
338.3933
 20
335.8055
 10
338.6311
 20
339.4945
 10
338.7204
 20
340.561
 10
338.7538
 20
341.2876
 10
338.7729
 20
341.4821
 10
338.8874
 20
342.2316
 10
338.8904
 20
342.3073
 10
338.8838
 20
342.3623
 10
338.8658
 20
342.3928
 10
338.835
 20
342.3962
 10
338.7904
 20
342.3706
 10
338.7317
 20
342.3153
  0
LWPOLYLINE
  5
34
330
17
100
AcDbEntity
  8
CUT
100
AcDbPolyline
 90
65
 70
1
 10
264.4869
 20
339.3376
 10
264.4493
 20
339.1255
 10
264.3936
 20
338.9203
 10
264.3203
 20
338.7236
 10
264.179
 20
338.4452
 10
264.0025
 20
338.1892
 10
263.8667
 20
338.0332
 10
263.7174
 20
337.8904
 10
263.5554
 20
337.7614
 10
263.2917
 20
337.5959
 10
263.1039
 20
337.5055
 10
262.9073
 20
337.432
 10
262.7023
 20
337.376
 10
262.4903
 20
337.338
 10
262.2744
 20
337.3188
 10
262.0587
 20
337.3187
 10
261.8462
 20
337.3377
 10
261.6382
 20
337.3756
 10
261.4358
 20
337.4317
 10
261.145
 20
337.5486
 10
260.9617
 20
337.6473
 10
260.7882
 20
337.7614
 10
260.5487
 20
337.9597
 10
260.4044
 20
338.1088
 10
260.2736
 20
338.2704
 10
260.1051
 20
338.5337
 10
260.0127
 20
338.7211
 10
259.9372
 20
338.9174
 10
259.8795
 20
339.1223
 10
259.8402
 20
339.3343
 10
259.8203
 20
339.5501
 10
259.8201
 20
339.7658
 10
259.8399
 20
339.9784
 10
259.879
 20
340.1862
 10
259.9369
 20
340.3885
 10
260.0126
 20
340.5841
 10
260.1575
 20
340.8619
 10
260.2736
 20
341.035
 10
260.4041
 20
341.1973
 10
260.6248
 20
341.4183
 10
260.7869
 20
341.549
 10
261.0501
 20
341.7178
 10
261.2375
 20
341.8106
 10
261.4329
 20
341.8866
 10
261.6351
 20
341.9447
 10
261.8429
 20
341.9842
 10
262.0554
 20
342.0043
 10
262.271
 20
342.0044
 10
262.4869
 20
341.9848
 10
262.699
 20
341.9459
 10
262.904
 20
341.8884
 10
263.1004
 20
341.8132
 10
263.3784
 20
341.6688
 10
263.5515
 20
341.5529
 10
263.7133
 20
341.4223
 10
263.8626
 20
341.2782
 10
264.0613
 20
341.039
 10
264.227
 20
340.7752
 10
264.3178
 20
340.5876
 10
264.3918
 20
340.3919
 10
264.4482
 20
340.1895
 10
264.4864
 20
339.9817
 10
264.5057
 20
339.7692
 10
264.5059
 20
339.5535
 10
264.4869
 20
339.3376
  0
LWPOLYLINE
  5
35
330
17
100
AcDbEntity
  8
CUT
100
AcDbPolyline
 90
331
 70
1
 10
350.7923
 20
334.6906
 10
350.6234
 20
334.5657
 10
350.4487
 20
334.4507
 10
350.2698
 20
334.3455
 10
349.9066
 20
334.165
 10
349.7259
 20
334.0895
 10
349.3756
 20
333.9673
 10
349.2096
 20
333.9202
 10
348.9043
 20
333.8529
 10
348.7679
 20
333.8321
 10
348.5338
 20
333.8151
 10
348.4379
 20
333.8184
 10
348.3569
 20
333.8292
 10
348.2909
 20
333.8474
 10
348.2399
 20
333.8727
 10
348.2033
 20
333.905
 10
348.1803
 20
333.9443
 10
348.1697
 20
333.9904
 10
348.1792
 20
334.1031
 10
348.3264
 20
334.5941
 10
348.3744
 20
334.7986
 10
348.4106
 20
335.0142
 10
348.4338
 20
335.2337
 10
348.4455
 20
335.4502
 10
348.4514
 20
336.2031
 10
348.4781
 20
336.5381
 10
348.6812
 20
337.8264
 10
348.7717
 20
338.4501
 10
348.9043
 20
339.4647
 10
349.0084
 20
340.3394
 10
349.2159
 20
342.2535
 10
349.6559
 20
346.7033
 10
349.7983
 20
347.9791
 10
349.8828
 20
349.0748
 10
349.9099
 20
349.865
 10
349.9016
 20
350.166
 10
349.8844
 20
350.3731
 10
349.8545
 20
350.557
 10
349.8095
 20
350.7241
 10
349.7493
 20
350.8772
 10
349.7128
 20
350.9456
 10
349.6214
 20
351.0615
 10
349.5659
 20
351.108
 10
349.4468
 20
351.1752
 10
349.3842
 20
351.1948
 10
349.3133
 20
351.2049
 10
349.2275
 20
351.2055
 10
349.0053
 20
351.1783
 10
348.8779
 20
351.1499
 10
348.7491
 20
351.1114
 10
348.6249
 20
351.0635
 10
348.3976
 20
350.9435
 10
348.0845
 20
350.7193
 10
347.873
 20
350.5374
 10
347.66
 20
350.3193
 10
346.8939
 20
349.38
 10
346.8021
 20
349.2463
 10
346.7078
 20
349.0874
 10
346.6105
 20
348.8995
 10
346.3115
 20
348.2314
 10
346.1735
 20
347.9476
 10
346.0921
 20
347.8222
 10
346.0552
 20
347.7833
 10
346.0211
 20
347.7609
 10
345.9895
 20
347.7541
 10
345.9604
 20
347.7612
 10
345.9333
 20
347.7794
 10
345.8365
 20
347.8949
 10
345.7062
 20
348.0279
 10
345.636
 20
348.1225
 10
345.5804
 20
348.2153
 10
345.5425
 20
348.3105
 10
345.5251
 20
348.3961
 10
345.5258
 20
348.4591
 10
345.572
 20
348.7896
 10
345.6015
 20
348.9157
 10
345.6793
 20
349.1434
 10
345.8371
 20
349.4551
 10
345.9664
 20
349.6797
 10
346.1127
 20
349.913
 10
346.2745
 20
350.142
 10
346.45
 20
350.3657
 10
346.8385
 20
350.818
 10
347.2737
 20
351.282
 10
347.8673
 20
351.8565
 10
348.3562
 20
352.2956
 10
348.8396
 20
352.6958
 10
349.318
 20
353.05
 10
349.5553
 20
353.2089
 10
349.7899
 20
353.3539
 10
350.1393
 20
353.5425
 10
350.4894
 20
353.6922
 10
350.8264
 20
353.7951
 10
351.0431
 20
353.8335
 10
351.1539
 20
353.8432
 10
351.3875
 20
353.8432
 10
351.5092
 20
353.8332
 10
351.7513
 20
353.7921
 10
351.9758
 20
353.7222
 10
352.0791
 20
353.6766
 10
352.2696
 20
353.5648
 10
352.4403
 20
353.423
 10
352.5883
 20
353.2481
 10
352.7105
 20
353.0477
 10
352.8079
 20
352.8378
 10
352.883
 20
352.6172
 10
352.9376
 20
352.3587
 10
352.9728
 20
352.0564
 10
352.9947
 20
351.6527
 10
352.9849
 20
351.2069
 10
352.9538
 20
350.7258
 10
352.768
 20
348.8791
 10
352.6845
 20
347.8474
 10
352.639
 20
347.4775
 10
352.4227
 20
346.258
 10
352.3766
 20
345.9171
 10
352.3691
 20
345.7491
 10
352.3743
 20
345.6889
 10
352.386
 20
345.6465
 10
352.4047
 20
345.6229
 10
352.4304
 20
345.6185
 10
352.4631
 20
345.6333
 10
352.5024
 20
345.6665
 10
352.656
 20
345.8642
 10
353.3391
 20
346.9685
 10
353.592
 20
347.3283
 10
353.8216
 20
347.6073
 10
354.2798
 20
348.1216
 10
354.9227
 20
348.8911
 10
355.3161
 20
349.3328
 10
355.707
 20
349.7358
 10
356.2412
 20
350.2611
 10
356.6552
 20
350.6547
 10
357.0762
 20
351.0346
 10
357.5018
 20
351.3961
 10
357.9316
 20
351.7423
 10
358.364
 20
352.0727
 10
358.6523
 20
352.2818
 10
358.94
 20
352.4802
 10
359.3704
 20
352.7569
 10
359.657
 20
352.9275
 10
360.0867
 20
353.1613
 10
360.5158
 20
353.3661
 10
360.8009
 20
353.4849
 10
361.2264
 20
353.6345
 10
361.5087
 20
353.7139
 10
361.9304
 20
353.7997
 10
362.2089
 20
353.8333
 10
362.4825
 20
353.8463
 10
362.7479
 20
353.8362
 10
363.0022
 20
353.7988
 10
363.2425
 20
353.7303
 10
363.3564
 20
353.6842
 10
363.5699
 20
353.5689
 10
363.7616
 20
353.4235
 10
363.8486
 20
353.339
 10
364.0043
 20
353.1456
 10
364.1353
 20
352.9248
 10
364.1919
 20
352.8084
 10
364.2881
 20
352.5704
 10
364.3633
 20
352.319
 10
364.3934
 20
352.1812
 10
364.4397
 20
351.8722
 10
364.4778
 20
351.3777
 10
364.4858
 20
351.1111
 10
364.4813
 20
350.8408
 10
364.4544
 20
350.3596
 10
364.4198
 20
349.9525
 10
364.2881
 20
348.7952
 10
363.1481
 20
340.9047
 10
362.9868
 20
339.6302
 10
362.8999
 20
338.7251
 10
362.8496
 20
337.8784
 10
362.8433
 20
337.3326
 10
362.863
 20
337.0665
 10
362.8919
 20
336.9018
 10
362.9123
 20
336.8244
 10
362.9649
 20
336.6838
 10
363.0346
 20
336.5641
 10
363.0785
 20
336.5137
 10
363.1291
 20
336.4709
 10
363.2396
 20
336.4097
 10
363.2971
 20
336.3917
 10
363.3623
 20
336.3826
 10
363.5423
 20
336.3938
 10
363.6579
 20
336.4153
 10
363.9089
 20
336.4909
 10
364.0303
 20
336.5441
 10
364.1446
 20
336.6061
 10
364.2523
 20
336.6753
 10
364.4583
 20
336.8307
 10
364.7747
 20
337.1094
 10
364.9923
 20
337.3374
 10
365.6975
 20
338.1985
 10
365.8893
 20
338.4473
 10
365.9895
 20
338.6005
 10
366.0937
 20
338.781
 10
366.2019
 20
338.9891
 10
366.5324
 20
339.6794
 10
366.634
 20
339.8718
 10
366.726
 20
340.0147
 10
366.7678
 20
340.0637
 10
366.8065
 20
340.097
 10
366.8421
 20
340.1148
 10
366.8749
 20
340.1182
 10
366.9334
 20
340.0916
 10
367.0351
 20
339.9919
 10
367.1292
 20
339.9153
 10
367.1713
 20
339.8753
 10
367.2431
 20
339.7863
 10
367.2983
 20
339.6947
 10
367.334
 20
339.5995
 10
367.3483
 20
339.5055
 10
367.346
 20
339.4327
 10
367.3204
 20
339.2118
 10
367.2971
 20
339.0806
 10
367.2673
 20
338.9509
 10
367.1895
 20
338.7167
 10
367.0898
 20
338.5036
 10
366.9703
 20
338.2813
 10
366.8329
 20
338.0446
 10
366.6792
 20
337.8066
 10
366.5108
 20
337.5751
 10
366.329
 20
337.3471
 10
366.0332
 20
337.0006
 10
365.821
 20
336.7656
 10
365.3641
 20
336.2952
 10
364.754
 20
335.7214
 10
364.3826
 20
335.3962
 10
364.1363
 20
335.1924
 10
363.6468
 20
334.8199
 10
363.4027
 20
334.6515
 10
363.1594
 20
334.4958
 10
362.9172
 20
334.3544
 10
362.6759
 20
334.2284
 10
362.4348
 20
334.1193
 10
362.1947
 20
334.0285
 10
361.841
 20
333.9311
 10
361.6096
 20
333.895
 10
361.4938
 20
333.8863
 10
361.2612
 20
333.8885
 10
361.1455
 20
333.9001
 10
360.9211
 20
333.9457
 10
360.8149
 20
333.9803
 10
360.6178
 20
334.0733
 10
360.5272
 20
334.1318
 10
360.4419
 20
334.198
 10
360.2882
 20
334.3532
 10
360.2202
 20
334.4415
 10
360.1025
 20
334.6369
 10
360.0081
 20
334.8519
 10
359.9348
 20
335.0828
 10
359.8807
 20
335.3319
 10
359.8326
 20
335.7411
 10
359.8166
 20
336.1569
 10
359.8211
 20
336.5418
 10
359.8504
 20
337.1933
 10
359.89
 20
337.7607
 10
359.9866
 20
338.7735
 10
360.1345
 20
339.9904
 10
360.977
 20
345.8476
 10
361.1267
 20
347.0082
 10
361.2006
 20
347.7026
 10
361.2628
 20
348.4745
 10
361.296
 20
349.1968
 10
361.2938
 20
349.6617
 10
361.2769
 20
349.8924
 10
361.2448
 20
350.1109
 10
361.222
 20
350.214
 10
361.1611
 20
350.4078
 10
361.0798
 20
350.5845
 10
360.9781
 20
350.74
 10
360.8516
 20
350.8692
 10
360.7778
 20
350.9228
 10
360.6982
 20
350.9687
 10
360.5324
 20
351.0371
 10
360.3598
 20
351.0749
 10
360.2613
 20
351.0829
 10
360.1475
 20
351.0842
 10
359.8669
 20
351.0678
 10
359.5362
 20
351.0267
 10
359.3658
 20
350.997
 10
359.0383
 20
350.9197
 10
358.7362
 20
350.819
 10
358.5916
 20
350.7602
 10
358.3045
 20
350.6267
 10
357.8646
 20
350.3887
 10
357.4247
 20
350.1086
 10
357.141
 20
349.9002
 10
356.8655
 20
349.6758
 10
356.461
 20
349.3113
 10
356.0619
 20
348.9153
 10
355.6691
 20
348.4898
 10
355.286
 20
348.0372
 10
354.9145
 20
347.562
 10
354.5564
 20
347.0702
 10
354.1034
 20
346.3996
 10
353.7864
 20
345.8893
 10
353.493
 20
345.3691
 10
353.2237
 20
344.8367
 10
352.9736
 20
344.299
 10
352.7381
 20
343.7645
 10
352.5245
 20
343.2242
 10
352.4611
 20
343.0386
 10
352.3484
 20
342.6559
 10
352.112
 20
341.6861
 10
351.9039
 20
340.9976
 10
351.8575
 20
340.8267
 10
351.8205
 20
340.6456
 10
351.7966
 20
340.4477
 10
351.789
 20
340.2269
 10
351.7989
 20
339.9784
 10
351.8258
 20
339.699
 10
351.9675
 20
338.6772
 10
352.013
 20
338.2851
 10
352.044
 20
337.8759
 10
352.0519
 20
337.4561
 10
352.0286
 20
337.0331
 10
352.0029
 20
336.8226
 10
351.9668
 20
336.6142
 10
351.9195
 20
336.4086
 10
351.8606
 20
336.2069
 10
351.7895
 20
336.0099
 10
351.7061
 20
335.8184
 10
351.6102
 20
335.6332
 10
351.5019
 20
335.4552
 10
351.3815
 20
335.2848
 10
351.2495
 20
335.1227
 10
351.1066
 20
334.9694
 10
350.9538
 20
334.8253
 10
350.7923
 20
334.6906
  0
LWPOLYLINE
  5
36
330
17
100
AcDbEntity
  8
CUT
100
AcDbPolyline
 90
429
 70
1
 10
264.1103
 20
356.1643
 10
263.919
 20
356.1422
 10
263.8076
 20
356.119
 10
263.4528
 20
356.011
 10
263.233
 20
355.9235
 10
263.0395
 20
355.8303
 10
262.7823
 20
355.6702
 10
262.6227
 20
355.5446
 10
262.4748
 20
355.4055
 10
262.2843
 20
355.1783
 10
262.1323
 20
354.931
 10
262.0494
 20
354.7562
 10
261.9806
 20
354.5767
 10
261.926
 20
354.3938
 10
261.8852
 20
354.2061
 10
261.857
 20
354.0121
 10
261.8403
 20
353.8164
 10
261.8368
 20
353.4548
 10
261.8479
 20
353.2899
 10
261.8779
 20
353.0422
 10
261.921
 20
352.7943
 10
261.9768
 20
352.5537
 10
262.1162
 20
352.0953
 10
262.2005
 20
351.8777
 10
262.3388
 20
351.5585
 10
262.407
 20
351.4335
 10
262.4595
 20
351.3563
 10
262.713
 20
351.0493
 10
262.9491
 20
350.8027
 10
263.2134
 20
350.5552
 10
263.3495
 20
350.4387
 10
263.6231
 20
350.2261
 10
263.8973
 20
350.0387
 10
264.1761
 20
349.8667
 10
265.5673
 20
349.0758
 10
266.0545
 20
348.8156
 10
266.7016
 20
348.4963
 10
267.5184
 20
348.1256
 10
268.8675
 20
347.5341
 10
269.2731
 20
347.3676
 10
269.981
 20
347.1014
 10
270.2353
 20
346.9915
 10
270.3805
 20
346.9521
 10
270.4651
 20
346.9442
 10
270.5291
 20
346.9494
 10
270.5891
 20
346.969
 10
270.642
 20
347.0024
 10
270.69
 20
347.0476
 10
270.7557
 20
347.1322
 10
270.8694
 20
347.3156
 10
271.2961
 20
348.0606
 10
274.2331
 20
353.3232
 10
277.5704
 20
359.3411
 10
277.7115
 20
359.5725
 10
277.822
 20
359.6971
 10
277.9087
 20
359.7735
 10
278.0492
 20
359.867
 10
278.2022
 20
359.941
 10
278.3098
 20
359.9777
 10
278.4764
 20
360.0143
 10
278.6443
 20
360.0285
 10
278.777
 20
360.0216
 10
278.92
 20
359.9992
 10
279.0551
 20
359.9604
 10
279.1798
 20
359.9054
 10
279.3556
 20
359.7965
 10
279.4612
 20
359.7088
 10
279.5547
 20
359.6066
 10
279.6357
 20
359.4919
 10
279.7033
 20
359.3743
 10
279.7557
 20
359.25
 10
279.7758
 20
359.1788
 10
279.803
 20
359.0212
 10
279.8143
 20
358.8421
 10
279.8016
 20
358.6973
 10
279.7784
 20
358.5897
 10
279.7425
 20
358.4835
 10
279.6931
 20
358.3776
 10
273.9745
 20
348.0986
 10
273.1016
 20
346.556
 10
273.0204
 20
346.3948
 10
272.9973
 20
346.3311
 10
272.9848
 20
346.2671
 10
272.9944
 20
346.1685
 10
273.0069
 20
346.1289
 10
273.0461
 20
346.0607
 10
273.1345
 20
345.9592
 10
273.2937
 20
345.8317
 10
273.5944
 20
345.6387
 10
274.4621
 20
345.1412
 10
274.9989
 20
344.8018
 10
275.4245
 20
344.5122
 10
275.8667
 20
344.198
 10
276.4722
 20
343.7538
 10
276.9291
 20
343.4065
 10
277.3835
 20
343.0408
 10
277.8341
 20
342.6439
 10
278.1318
 20
342.358
 10
278.5713
 20
341.9025
 10
279.1316
 20
341.2867
 10
279.7634
 20
340.5753
 10
279.9931
 20
340.2932
 10
280.1039
 20
340.1435
 10
280.3188
 20
339.8132
 10
280.5257
 20
339.4289
 10
280.6258
 20
339.215
 10
280.8165
 20
338.7524
 10
280.905
 20
338.512
 10
281.0617
 20
338.0431
 10
281.2269
 20
337.4664
 10
281.2837
 20
337.2178
 10
281.3057
 20
337.0715
 10
281.3616
 20
336.4075
 10
281.3768
 20
336.0824
 10
281.3757
 20
335.8911
 10
281.3625
 20
335.6454
 10
281.2934
 20
334.8873
 10
281.2033
 20
334.284
 10
281.1662
 20
334.1046
 10
281.0812
 20
333.7834
 10
281.0332
 20
333.638
 10
280.9258
 20
333.3629
 10
280.6674
 20
332.8051
 10
280.3595
 20
332.2128
 10
280.1007
 20
331.7865
 10
279.9125
 20
331.5222
 10
279.8127
 20
331.3955
 10
279.4876
 20
331.0309
 10
279.2511
 20
330.796
 10
278.8809
 20
330.4562
 10
278.5129
 20
330.1417
 10
278.2711
 20
329.9498
 10
278.021
 20
329.7697
 10
277.7461
 20
329.5957
 10
277.2617
 20
329.3358
 10
276.7145
 20
329.0834
 10
276.3682
 20
328.9371
 10
275.9692
 20
328.781
 10
275.7999
 20
328.7227
 10
275.5434
 20
328.6508
 10
275.264
 20
328.5834
 10
275.0618
 20
328.5458
 10
274.6582
 20
328.4923
 10
274.3346
 20
328.4712
 10
274.1991
 20
328.4696
 10
273.8683
 20
328.4908
 10
273.5613
 20
328.5263
 10
273.0642
 20
328.614
 10
272.9082
 20
328.6521
 10
272.6219
 20
328.7408
 10
272.4903
 20
328.7914
 10
272.2408
 20
328.9042
 10
271.7451
 20
329.174
 10
271.4909
 20
329.329
 10
271.2403
 20
329.4963
 10
270.8874
 20
329.7696
 10
270.5684
 20
330.0704
 10
270.2774
 20
330.3986
 10
270.0967
 20
330.6303
 10
269.9277
 20
330.8692
 10
269.7011
 20
331.2381
 10
269.5711
 20
331.4927
 10
269.513
 20
331.6241
 10
269.4108
 20
331.8974
 10
269.3669
 20
332.0396
 10
269.2938
 20
332.333
 10
269.2223
 20
332.7759
 10
269.2012
 20
333.0538
 10
269.1987
 20
333.1835
 10
269.2016
 20
333.3065
 10
269.223
 20
333.5346
 10
269.2413
 20
333.6418
 10
269.2926
 20
333.8489
 10
269.3634
 20
334.0503
 10
269.4063
 20
334.1488
 10
269.5073
 20
334.3387
 10
269.565
 20
334.4288
 10
269.627
 20
334.5153
 10
269.7619
 20
334.677
 10
269.9857
 20
334.8942
 10
270.2414
 20
335.0878
 10
270.4329
 20
335.2055
 10
270.6316
 20
335.3125
 10
271.0053
 20
335.4886
 10
271.201
 20
335.5653
 10
271.4379
 20
335.6441
 10
272.0492
 20
335.8167
 10
272.4159
 20
335.9003
 10
272.6202
 20
335.9172
 10
272.8772
 20
335.8902
 10
273.11
 20
335.846
 10
273.2177
 20
335.8161
 10
273.3997
 20
335.7419
 10
273.5551
 20
335.6491
 10
273.7112
 20
335.5391
 10
273.8722
 20
335.4136
 10
274.0253
 20
335.2742
 10
274.0955
 20
335.1994
 10
274.2225
 20
335.04
 10
274.3889
 20
334.7772
 10
274.4876
 20
334.5902
 10
274.5747
 20
334.3976
 10
274.6781
 20
334.095
 10
274.7281
 20
333.8777
 10
274.7759
 20
333.5327
 10
274.7944
 20
333.206
 10
274.7973
 20
332.6417
 10
274.8216
 20
332.342
 10
274.8752
 20
332.0576
 10
274.9621
 20
331.8036
 10
275.0382
 20
331.6465
 10
275.1269
 20
331.5007
 10
275.2282
 20
331.3694
 10
275.3455
 20
331.2534
 10
275.4784
 20
331.1526
 10
275.617
 20
331.069
 10
275.7547
 20
331.0041
 10
275.9078
 20
330.9545
 10
276.1848
 20
330.9031
 10
276.3373
 20
330.8957
 10
276.3883
 20
330.9035
 10
276.5415
 20
330.9587
 10
276.6288
 20
330.9816
 10
277.1039
 20
331.0932
 10
277.3143
 20
331.1719
 10
277.4877
 20
331.2676
 10
277.7333
 20
331.436
 10
277.9836
 20
331.6319
 10
278.1356
 20
331.7789
 10
278.3308
 20
332.0211
 10
278.4975
 20
332.2845
 10
278.5937
 20
332.4744
 10
278.7095
 20
332.7819
 10
278.7939
 20
333.0972
 10
278.8528
 20
333.4079
 10
278.8711
 20
333.6329
 10
278.8622
 20
333.8957
 10
278.8452
 20
334.045
 10
278.7829
 20
334.3775
 10
278.7372
 20
334.557
 10
278.617
 20
334.9295
 10
278.543
 20
335.1165
 10
278.3691
 20
335.4788
 10
278.2701
 20
335.65
 10
278.1637
 20
335.8134
 10
278.0501
 20
335.9687
 10
277.9299
 20
336.1161
 10
277.6713
 20
336.3908
 10
277.5336
 20
336.5203
 10
277.2439
 20
336.7696
 10
276.7797
 20
337.1323
 10
276.1246
 20
337.6044
 10
275.7881
 20
337.8306
 10
275.4476
 20
338.0458
 10
275.1026
 20
338.2488
 10
274.7511
 20
338.4403
 10
274.3911
 20
338.6224
 10
274.0218
 20
338.7976
 10
273.4556
 20
339.0501
 10
272.8961
 20
339.2872
 10
271.9001
 20
339.6828
 10
271.4456
 20
339.8459
 10
270.7912
 20
340.0605
 10
270.1974
 20
340.2392
 10
270.0068
 20
340.2791
 10
269.9011
 20
340.2515
 10
269.8168
 20
340.2145
 10
269.5678
 20
340.0807
 10
269.5246
 20
340.0704
 10
269.507
 20
340.0417
 10
268.6085
 20
338.3908
 10
263.0877
 20
328.4128
 10
262.9479
 20
328.1823
 10
262.8382
 20
328.0541
 10
262.7526
 20
327.974
 10
262.614
 20
327.8733
 10
262.4628
 20
327.7912
 10
262.3563
 20
327.7492
 10
262.1901
 20
327.7061
 10
262.0233
 20
327.6884
 10
261.8893
 20
327.6944
 10
261.742
 20
327.7167
 10
261.6034
 20
327.7559
 10
261.4777
 20
327.8121
 10
261.3589
 20
327.8837
 10
261.2482
 20
327.9677
 10
261.1496
 20
328.0644
 10
261.064
 20
328.1763
 10
260.9598
 20
328.3567
 10
260.9081
 20
328.48
 10
260.8881
 20
328.55
 10
260.8599
 20
328.71
 10
260.8461
 20
328.8996
 10
260.8571
 20
329.0363
 10
260.8844
 20
329.1795
 10
260.9157
 20
329.2861
 10
260.9722
 20
329.4212
 10
264.0846
 20
335.0242
 10
266.6799
 20
339.7199
 10
267.2414
 20
340.755
 10
267.3235
 20
340.9192
 10
267.372
 20
341.0358
 10
267.4077
 20
341.1484
 10
267.4269
 20
341.2555
 10
267.4293
 20
341.3235
 10
267.4219
 20
341.3869
 10
267.4038
 20
341.4439
 10
267.3741
 20
341.4945
 10
267.3109
 20
341.5585
 10
267.2302
 20
341.6113
 10
266.684
 20
341.919
 10
266.1784
 20
342.233
 10
265.6636
 20
342.5766
 10
264.7987
 20
343.1763
 10
264.1879
 20
343.6141
 10
263.7339
 20
343.9545
 10
263.2838
 20
344.3101
 10
262.6851
 20
344.8132
 10
262.2411
 20
345.2034
 10
261.6733
 20
345.7178
 10
261.273
 20
346.0983
 10
261.0162
 20
346.3607
 10
260.7645
 20
346.6403
 10
260.517
 20
346.9428
 10
260.2763
 20
347.2664
 10
259.946
 20
347.7611
 10
259.6864
 20
348.2018
 10
259.5188
 20
348.5377
 10
259.4167
 20
348.7963
 10
259.2349
 20
349.3299
 10
259.1346
 20
349.6913
 10
259.0192
 20
350.2352
 10
258.9656
 20
350.5993
 10
258.9311
 20
350.9688
 10
258.9119
 20
351.3056
 10
258.9193
 20
351.6519
 10
258.9583
 20
352.1613
 10
259.0341
 20
352.7792
 10
259.1055
 20
353.1981
 10
259.1932
 20
353.5919
 10
259.2965
 20
353.9519
 10
259.415
 20
354.283
 10
259.6199
 20
354.7518
 10
259.9401
 20
355.378
 10
260.2126
 20
355.8525
 10
260.5105
 20
356.3107
 10
260.8332
 20
356.7368
 10
261.1807
 20
357.1286
 10
261.5521
 20
357.4913
 10
261.9438
 20
357.8283
 10
262.3507
 20
358.1373
 10
262.7698
 20
358.4118
 10
263.0576
 20
358.572
 10
263.2047
 20
358.6446
 10
263.5066
 20
358.7739
 10
263.8186
 20
358.8809
 10
263.9776
 20
358.9258
 10
264.1376
 20
358.9649
 10
264.4568
 20
359.0259
 10
264.9183
 20
359.0761
 10
265.3448
 20
359.0833
 10
265.8774
 20
359.0478
 10
266.2801
 20
359.0021
 10
266.6941
 20
358.9426
 10
267.246
 20
358.8339
 10
267.5158
 20
358.7661
 10
267.912
 20
358.6498
 10
268.1711
 20
358.5619
 10
268.4265
 20
358.4632
 10
268.6773
 20
358.351
 10
268.9219
 20
358.2248
 10
269.1573
 20
358.0877
 10
269.3805
 20
357.9445
 10
269.5895
 20
357.797
 10
269.7846
 20
357.6394
 10
269.9684
 20
357.4589
 10
270.0565
 20
357.3567
 10
270.2237
 20
357.1283
 10
270.3009
 20
357.0061
 10
270.4346
 20
356.7642
 10
270.5321
 20
356.5522
 10
270.5919
 20
356.3861
 10
270.7523
 20
355.7489
 10
270.8057
 20
355.4617
 10
270.8476
 20
355.1762
 10
270.8786
 20
354.8177
 10
270.8862
 20
354.6126
 10
270.8745
 20
354.3166
 10
270.8502
 20
354.0659
 10
270.7842
 20
353.6921
 10
270.7196
 20
353.4751
 10
270.5918
 20
353.1837
 10
270.4279
 20
352.9042
 10
270.299
 20
352.7277
 10
270.2288
 20
352.645
 10
270.0776
 20
352.4928
 10
269.9132
 20
352.3573
 10
269.6441
 20
352.181
 10
269.4505
 20
352.0814
 10
269.1409
 20
351.9614
 10
268.8161
 20
351.8755
 10
268.4816
 20
351.8203
 10
268.1295
 20
351.7987
 10
267.8812
 20
351.8074
 10
267.6264
 20
351.8383
 10
267.4994
 20
351.8628
 10
267.2527
 20
351.9309
 10
267.1351
 20
351.9746
 10
266.9137
 20
352.0807
 10
266.7103
 20
352.2097
 10
266.5223
 20
352.3586
 10
266.3473
 20
352.524
 10
266.185
 20
352.7032
 10
266.0361
 20
352.8938
 10
265.8376
 20
353.1976
 10
265.7205
 20
353.4099
 10
265.6139
 20
353.6278
 10
265.5166
 20
353.8484
 10
265.3871
 20
354.1786
 10
265.2416
 20
354.6151
 10
264.9419
 20
355.6855
 10
264.8775
 20
355.8398
 10
264.8211
 20
355.9277
 10
264.7199
 20
356.0327
 10
264.6429
 20
356.084
 10
264.5611
 20
356.1206
 10
264.4747
 20
356.1448
 10
264.3896
 20
356.1566
 10
264.1103
 20
356.1643
  0
LWPOLYLINE
  5
37
330
17
100
AcDbEntity
  8
CUT
100
AcDbPolyline
 90
204
 70
1
 10
323.3422
 20
340.8477
 10
323.6011
 20
340.5753
 10
323.7062
 20
340.3998
 10
323.7518
 20
340.2768
 10
323.7775
 20
340.1515
 10
323.7795
 20
340.0111
 10
323.7492
 20
339.8355
 10
323.6869
 20
339.649
 10
323.5972
 20
339.4569
 10
323.4249
 20
339.1512
 10
323.2881
 20
338.9403
 10
323.0457
 20
338.6049
 10
322.7927
 20
338.2769
 10
322.4946
 20
337.9185
 10
321.8526
 20
337.2126
 10
321.264
 20
336.6138
 10
321.0718
 20
336.4302
 10
320.703
 20
336.0983
 10
320.1677
 20
335.6635
 10
319.7996
 20
335.3909
 10
319.4151
 20
335.1275
 10
319.0187
 20
334.8816
 10
318.8185
 20
334.7682
 10
318.6184
 20
334.662
 10
318.2209
 20
334.4708
 10
317.8274
 20
334.306
 10
317.6304
 20
334.2329
 10
317.2277
 20
334.1054
 10
317.0191
 20
334.0519
 10
316.587
 20
333.9668
 10
316.3678
 20
333.9357
 10
315.9439
 20
333.8958
 10
315.5665
 20
333.8837
 10
315.3991
 20
333.8871
 10
315.0929
 20
333.9108
 10
314.6457
 20
333.985
 10
314.3439
 20
334.0602
 10
314.1963
 20
334.1059
 10
314.0523
 20
334.157
 10
313.774
 20
334.2755
 10
313.6383
 20
334.3427
 10
313.3729
 20
334.4926
 10
313.1171
 20
334.6627
 10
312.9936
 20
334.7551
 10
312.873
 20
334.8524
 10
312.6406
 20
335.0611
 10
312.3125
 20
335.4071
 10
312.0128
 20
335.7866
 10
311.7465
 20
336.1918
 10
311.5163
 20
336.6197
 10
311.3223
 20
337.0703
 10
311.2127
 20
337.3796
 10
311.1189
 20
337.6952
 10
311.0408
 20
338.0219
 10
310.9523
 20
338.5323
 10
310.8959
 20
339.0338
 10
310.8711
 20
339.5524
 10
310.8822
 20
340.1951
 10
310.9119
 20
340.6966
 10
310.9607
 20
341.2184
 10
310.9925
 20
341.476
 10
311.0706
 20
341.974
 10
311.1678
 20
342.4524
 10
311.3484
 20
343.162
 10
311.5692
 20
343.8852
 10
311.7384
 20
344.3702
 10
311.9248
 20
344.8507
 10
312.1277
 20
345.3244
 10
312.3466
 20
345.7927
 10
312.7039
 20
346.4901
 10
313.0957
 20
347.1848
 10
313.376
 20
347.6455
 10
313.8232
 20
348.3301
 10
314.2974
 20
349.0025
 10
314.7923
 20
349.6563
 10
315.3028
 20
350.2823
 10
315.8258
 20
350.8712
 10
316.1803
 20
351.2406
 10
316.7205
 20
351.7583
 10
317.0875
 20
352.0785
 10
317.462
 20
352.3773
 10
317.6524
 20
352.5181
 10
318.0394
 20
352.7817
 10
318.4323
 20
353.0198
 10
318.8269
 20
353.231
 10
319.0244
 20
353.3262
 10
319.4222
 20
353.4943
 10
319.8309
 20
353.6312
 10
320.2559
 20
353.7349
 10
320.4724
 20
353.774
 10
320.8997
 20
353.8267
 10
321.1038
 20
353.8406
 10
321.4807
 20
353.8441
 10
321.6532
 20
353.834
 10
321.9755
 20
353.7903
 10
322.2814
 20
353.7145
 10
322.4295
 20
353.6639
 10
322.5728
 20
353.6042
 10
322.7098
 20
353.5353
 10
322.8391
 20
353.4569
 10
322.96
 20
353.3692
 10
323.0724
 20
353.2723
 10
323.1763
 20
353.1665
 10
323.2719
 20
353.0523
 10
323.3591
 20
352.9299
 10
323.4378
 20
352.7996
 10
323.5077
 20
352.6621
 10
323.569
 20
352.5178
 10
323.6217
 20
352.3675
 10
323.7029
 20
352.0521
 10
323.7321
 20
351.8879
 10
323.77
 20
351.5464
 10
323.7791
 20
351.3683
 10
323.7788
 20
350.9965
 10
323.7541
 20
350.6089
 10
323.7326
 20
350.4126
 10
323.6715
 20
350.0222
 10
323.6318
 20
349.8297
 10
323.5861
 20
349.6392
 10
323.4772
 20
349.2626
 10
323.3454
 20
348.8892
 10
323.1914
 20
348.5181
 10
323.0159
 20
348.1512
 10
322.9204
 20
347.9697
 10
322.7144
 20
347.6115
 10
322.3703
 20
347.0846
 10
321.9856
 20
346.5691
 10
321.5616
 20
346.0652
 10
321.1032
 20
345.5735
 10
320.6179
 20
345.096
 10
320.1081
 20
344.6395
 10
319.755
 20
344.3502
 10
319.2112
 20
343.9369
 10
318.659
 20
343.5418
 10
318.2822
 20
343.2914
 10
317.8891
 20
343.0583
 10
317.6851
 20
342.9494
 10
316.8539
 20
342.5405
 10
316.0748
 20
342.118
 10
315.8731
 20
342.0215
 10
315.6571
 20
341.9373
 10
315.4227
 20
341.8684
 10
315.1696
 20
341.815
 10
314.3757
 20
341.6902
 10
314.147
 20
341.6253
 10
314.0483
 20
341.5819
 10
313.9622
 20
341.5297
 10
313.8901
 20
341.4676
 10
313.8328
 20
341.3953
 10
313.7907
 20
341.3124
 10
313.7636
 20
341.2192
 10
313.7508
 20
341.1163
 10
313.7514
 20
341.0046
 10
313.7638
 20
340.8852
 10
313.7865
 20
340.7597
 10
313.8553
 20
340.4959
 10
314.195
 20
339.4745
 10
314.3778
 20
338.8645
 10
314.4436
 20
338.6784
 10
314.5209
 20
338.4947
 10
314.6116
 20
338.3123
 10
314.7155
 20
338.1322
 10
314.8305
 20
337.9564
 10
314.9541
 20
337.7876
 10
315.0839
 20
337.6282
 10
315.2185
 20
337.4796
 10
315.3577
 20
337.3424
 10
315.5021
 20
337.2162
 10
315.6526
 20
337.1006
 10
315.8102
 20
336.995
 10
315.9753
 20
336.8991
 10
316.148
 20
336.8131
 10
316.3278
 20
336.7374
 10
316.514
 20
336.6725
 10
316.7055
 20
336.6187
 10
316.9016
 20
336.5758
 10
317.1012
 20
336.5435
 10
317.5079
 20
336.508
 10
317.9196
 20
336.5074
 10
318.3311
 20
336.5412
 10
318.5352
 20
336.5718
 10
318.9378
 20
336.6614
 10
319.3301
 20
336.7854
 10
319.7096
 20
336.9359
 10
320.0761
 20
337.1108
 10
320.2549
 20
337.2105
 10
320.4311
 20
337.3213
 10
320.6051
 20
337.4449
 10
320.7767
 20
337.5817
 10
321.1112
 20
337.885
 10
321.8627
 20
338.6115
 10
321.9996
 20
338.7543
 10
322.1359
 20
338.9174
 10
322.2737
 20
339.1124
 10
322.4141
 20
339.3458
 10
322.5571
 20
339.6164
 10
322.9717
 20
340.4755
 10
323.0898
 20
340.6867
 10
323.1427
 20
340.7642
 10
323.1911
 20
340.8205
 10
323.235
 20
340.8554
 10
323.2745
 20
340.8698
 10
323.31
 20
340.8659
 10
323.3422
 20
340.8477
  0
LWPOLYLINE
  5
38
330
17
100
AcDbEntity
  8
CUT
100
AcDbPolyline
 90
73
 70
1
 10
314.022
 20
343.8178
 10
314.1515
 20
343.8083
 10
314.3749
 20
343.7407
 10
314.7673
 20
343.6826
 10
315.0518
 20
343.673
 10
315.4783
 20
343.6905
 10
315.988
 20
343.7332
 10
316.2797
 20
343.7759
 10
316.6713
 20
343.8612
 10
317.2221
 20
344.0156
 10
317.6332
 20
344.162
 10
318.0196
 20
344.3342
 10
318.3961
 20
344.5317
 10
318.7666
 20
344.7546
 10
319.0065
 20
344.9171
 10
319.3527
 20
345.1796
 10
319.681
 20
345.461
 10
319.9863
 20
345.7577
 10
320.263
 20
346.0678
 10
320.5091
 20
346.3918
 10
320.7241
 20
346.7297
 10
320.8492
 20
346.9618
 10
321.008
 20
347.3205
 10
321.0942
 20
347.5671
 10
321.1644
 20
347.8187
 10
321.2396
 20
348.2006
 10
321.2788
 20
348.5896
 10
321.2815
 20
348.996
 10
321.2611
 20
349.2726
 10
321.2435
 20
349.409
 10
321.1923
 20
349.6712
 10
321.1187
 20
349.9148
 10
321.0219
 20
350.1397
 10
320.9647
 20
350.2455
 10
320.8315
 20
350.4434
 10
320.6727
 20
350.6205
 10
320.4898
 20
350.7738
 10
320.2876
 20
350.9023
 10
320.0692
 20
351.0066
 10
319.8319
 20
351.0878
 10
319.5714
 20
351.147
 10
319.4334
 20
351.1687
 10
319.1519
 20
351.1971
 10
318.7528
 20
351.204
 10
318.5138
 20
351.1849
 10
318.2856
 20
351.1463
 10
317.9415
 20
351.0507
 10
317.713
 20
350.9626
 10
317.4914
 20
350.856
 10
317.2773
 20
350.7315
 10
316.9661
 20
350.513
 10
316.7647
 20
350.3476
 10
316.4737
 20
350.0722
 10
316.2871
 20
349.8712
 10
316.0169
 20
349.5446
 10
315.7589
 20
349.1929
 10
315.5157
 20
348.8217
 10
315.2873
 20
348.4315
 10
315.0751
 20
348.0251
 10
314.8839
 20
347.6126
 10
314.7119
 20
347.1919
 10
314.4934
 20
346.5844
 10
314.3501
 20
346.1187
 10
314.2787
 20
345.8313
 10
314.1545
 20
345.2391
 10
313.9596
 20
344.4469
 10
313.9185
 20
344.2529
 10
313.8903
 20
344.0174
 10
313.901
 20
343.9116
 10
313.9156
 20
343.8753
 10
313.936
 20
343.8494
 10
313.9613
 20
343.8325
 10
314.022
 20
343.8178
  0
LWPOLYLINE
  5
39
330
17
100
AcDbEntity
  8
CUT
100
AcDbPolyline
 90
247
 70
1
 10
294.9779
 20
335.2834
 10
295.0609
 20
335.4105
 10
295.1665
 20
335.5485
 10
295.4378
 20
335.8491
 10
295.5987
 20
336.007
 10
295.9563
 20
336.3244
 10
296.3397
 20
336.6251
 10
296.7223
 20
336.8869
 10
297.0794
 20
337.0906
 10
297.2417
 20
337.166
 10
297.3904
 20
337.222
 10
297.5243
 20
337.2581
 10
297.6424
 20
337.2743
 10
297.7449
 20
337.2712
 10
297.8322
 20
337.2502
 10
297.906
 20
337.2134
 10
297.968
 20
337.1633
 10
298.0666
 20
337.035
 10
298.2332
 20
336.7482
 10
298.3333
 20
336.6258
 10
298.4529
 20
336.5266
 10
298.5886
 20
336.4467
 10
299.0208
 20
336.2441
 10
299.4263
 20
336.0285
 10
299.7059
 20
335.9063
 10
300.0041
 20
335.8132
 10
300.3122
 20
335.7392
 10
300.6213
 20
335.6773
 10
300.9299
 20
335.6298
 10
301.405
 20
335.5927
 10
301.914
 20
335.5973
 10
302.2641
 20
335.6257
 10
302.4364
 20
335.6491
 10
302.7659
 20
335.7169
 10
302.9213
 20
335.7617
 10
303.2141
 20
335.8736
 10
303.4844
 20
336.016
 10
303.6109
 20
336.0995
 10
303.7307
 20
336.1916
 10
303.8432
 20
336.2926
 10
303.9478
 20
336.4018
 10
304.044
 20
336.5185
 10
304.1316
 20
336.6412
 10
304.2813
 20
336.9013
 10
304.3983
 20
337.1831
 10
304.4849
 20
337.4975
 10
304.5175
 20
337.6678
 10
304.5615
 20
338.0196
 10
304.5774
 20
338.3522
 10
304.5744
 20
338.5016
 10
304.5458
 20
338.7701
 10
304.52
 20
338.8978
 10
304.4456
 20
339.1615
 10
304.3426
 20
339.4434
 10
304.2814
 20
339.5879
 10
304.2145
 20
339.7324
 10
304.0652
 20
340.0182
 10
303.807
 20
340.4442
 10
303.5086
 20
340.8808
 10
303.287
 20
341.1789
 10
303.051
 20
341.4779
 10
302.6828
 20
341.9176
 10
302.2938
 20
342.355
 10
301.85
 20
342.8283
 10
300.686
 20
344.0339
 10
300.2699
 20
344.4849
 10
300.0217
 20
344.7685
 10
299.6651
 20
345.1998
 10
299.3268
 20
345.6424
 10
299.0253
 20
346.0797
 10
298.8474
 20
346.3656
 10
298.6133
 20
346.7928
 10
298.4811
 20
347.0806
 10
298.4232
 20
347.2249
 10
298.3714
 20
347.3679
 10
298.2877
 20
347.6458
 10
298.2323
 20
347.9128
 10
298.2054
 20
348.1861
 10
298.2021
 20
348.3319
 10
298.2142
 20
348.645
 10
298.2484
 20
348.9716
 10
298.273
 20
349.1328
 10
298.3367
 20
349.4435
 10
298.376
 20
349.5935
 10
298.4698
 20
349.888
 10
298.5845
 20
350.1789
 10
298.7198
 20
350.4639
 10
298.8747
 20
350.7394
 10
299.0483
 20
351.0043
 10
299.2402
 20
351.2597
 10
299.4498
 20
351.5063
 10
299.6766
 20
351.7439
 10
299.9194
 20
351.9717
 10
300.1762
 20
352.1891
 10
300.4449
 20
352.3955
 10
300.8671
 20
352.6817
 10
301.1598
 20
352.8554
 10
301.4597
 20
353.0146
 10
301.9214
 20
353.2267
 10
302.2391
 20
353.3505
 10
302.5667
 20
353.4602
 10
302.9021
 20
353.5558
 10
303.4055
 20
353.6728
 10
303.742
 20
353.7336
 10
304.0938
 20
353.7811
 10
304.469
 20
353.8156
 10
304.8489
 20
353.8372
 10
305.1951
 20
353.846
 10
305.4857
 20
353.8437
 10
305.8716
 20
353.8262
 10
306.1413
 20
353.8058
 10
306.4163
 20
353.7743
 10
307.2546
 20
353.6533
 10
307.3942
 20
353.6255
 10
307.5257
 20
353.5895
 10
307.9071
 20
353.4612
 10
308.0594
 20
353.434
 10
308.5975
 20
353.4012
 10
308.6744
 20
353.3844
 10
308.7384
 20
353.3576
 10
308.7861
 20
353.3185
 10
308.8144
 20
353.265
 10
308.821
 20
353.1959
 10
308.8044
 20
353.1104
 10
308.764
 20
353.0089
 10
308.6999
 20
352.892
 10
308.6133
 20
352.7614
 10
308.3789
 20
352.4672
 10
308.2359
 20
352.309
 10
307.9127
 20
351.9851
 10
307.5618
 20
351.673
 10
307.3844
 20
351.5294
 10
307.0419
 20
351.2815
 10
306.8826
 20
351.1821
 10
306.7344
 20
351.1016
 10
306.5991
 20
351.0411
 10
306.4781
 20
351.0012
 10
306.3717
 20
350.9817
 10
306.2797
 20
350.9815
 10
306.2011
 20
350.9986
 10
306.1342
 20
351.0307
 10
306.0767
 20
351.0744
 10
305.9799
 20
351.1838
 10
305.8905
 20
351.3006
 10
305.7923
 20
351.4045
 10
305.6776
 20
351.4861
 10
305.5478
 20
351.5473
 10
305.1345
 20
351.6909
 10
304.7499
 20
351.853
 10
304.4861
 20
351.9409
 10
304.0692
 20
352.0316
 10
303.7901
 20
352.0788
 10
303.5128
 20
352.115
 10
303.0881
 20
352.14
 10
302.6401
 20
352.1293
 10
302.342
 20
352.0991
 10
302.1989
 20
352.0755
 10
301.9294
 20
352.0094
 10
301.6818
 20
351.9171
 10
301.5659
 20
351.8606
 10
301.3519
 20
351.7251
 10
301.2554
 20
351.6455
 10
301.1667
 20
351.5585
 10
301.0865
 20
351.4648
 10
301.0149
 20
351.3651
 10
300.952
 20
351.2599
 10
300.8977
 20
351.1488
 10
300.8518
 20
351.0311
 10
300.8139
 20
350.9061
 10
300.7615
 20
350.6381
 10
300.7403
 20
350.3654
 10
300.7514
 20
350.1107
 10
300.795
 20
349.8696
 10
300.8702
 20
349.6217
 10
300.9741
 20
349.3606
 10
301.1029
 20
349.094
 10
301.2522
 20
348.8282
 10
301.5092
 20
348.428
 10
301.7031
 20
348.1542
 10
301.9159
 20
347.8729
 10
302.1432
 20
347.5893
 10
302.4949
 20
347.1766
 10
303.0036
 20
346.6197
 10
304.8236
 20
344.6769
 10
305.2241
 20
344.2311
 10
305.6006
 20
343.7832
 10
305.8442
 20
343.4739
 10
306.0751
 20
343.163
 10
306.387
 20
342.7061
 10
306.5718
 20
342.4076
 10
306.7392
 20
342.1098
 10
306.9548
 20
341.6581
 10
307.0703
 20
341.3572
 10
307.1596
 20
341.0661
 10
307.2204
 20
340.7863
 10
307.2398
 20
340.6462
 10
307.2519
 20
340.5021
 10
307.2552
 20
340.193
 10
307.2326
 20
339.8576
 10
307.1868
 20
339.5149
 10
307.1196
 20
339.1831
 10
307.0781
 20
339.0228
 10
306.9791
 20
338.7091
 10
306.8581
 20
338.3992
 10
306.7156
 20
338.0927
 10
306.5526
 20
337.7931
 10
306.37
 20
337.5029
 10
306.169
 20
337.2218
 10
305.9501
 20
336.9485
 10
305.7137
 20
336.6824
 10
305.4605
 20
336.4239
 10
305.0522
 20
336.0516
 10
304.7641
 20
335.8148
 10
304.3136
 20
335.4797
 10
304.0031
 20
335.2718
 10
303.6858
 20
335.0778
 10
303.3628
 20
334.8984
 10
303.0343
 20
334.7333
 10
302.6998
 20
334.5825
 10
302.3581
 20
334.4462
 10
302.0089
 20
334.3247
 10
301.6545
 20
334.2181
 10
301.121
 20
334.0862
 10
300.7624
 20
334.0169
 10
300.393
 20
333.9621
 10
299.8141
 20
333.9072
 10
299.2508
 20
333.8847
 10
298.7557
 20
333.8919
 10
298.2948
 20
333.922
 10
297.8258
 20
333.9767
 10
297.5194
 20
334.0314
 10
296.9068
 20
334.1639
 10
296.5919
 20
334.2387
 10
296.442
 20
334.2846
 10
296.3017
 20
334.339
 10
295.9096
 20
334.533
 10
295.7604
 20
334.59
 10
295.59
 20
334.6357
 10
295.121
 20
334.7325
 10
295.0403
 20
334.7619
 10
294.972
 20
334.7996
 10
294.9194
 20
334.8475
 10
294.8856
 20
334.9074
 10
294.8731
 20
334.9805
 10
294.8838
 20
335.0676
 10
294.9187
 20
335.1687
 10
294.9779
 20
335.2834
  0
LWPOLYLINE
  5
3A
330
17
100
AcDbEntity
  8
CUT
100
AcDbPolyline
 90
142
 70
1
 10
372.861
 20
333.9487
 10
372.571
 20
334.0
 10
372.2894
 20
334.0675
 10
372.0188
 20
334.1519
 10
371.7604
 20
334.2534
 10
371.5144
 20
334.3721
 10
371.2803
 20
334.5078
 10
371.0576
 20
334.6605
 10
370.8465
 20
334.83
 10
370.6474
 20
335.016
 10
370.4611
 20
335.2181
 10
370.2885
 20
335.4356
 10
370.13
 20
335.6675
 10
369.9857
 20
335.9123
 10
369.8551
 20
336.1684
 10
369.7378
 20
336.4346
 10
369.6331
 20
336.71
 10
369.5404
 20
336.9947
 10
369.4592
 20
337.2895
 10
369.3891
 20
337.5952
 10
369.3298
 20
337.9126
 10
369.2808
 20
338.2409
 10
369.2417
 20
338.5783
 10
369.2121
 20
338.9214
 10
369.1915
 20
339.266
 10
369.1755
 20
339.9436
 10
369.1794
 20
340.2713
 10
369.2103
 20
340.905
 10
369.2714
 20
341.5239
 10
369.363
 20
342.1448
 10
369.4849
 20
342.7702
 10
369.557
 20
343.0824
 10
369.6365
 20
343.3928
 10
369.8176
 20
344.0065
 10
369.9191
 20
344.3101
 10
370.1435
 20
344.9126
 10
370.396
 20
345.5101
 10
370.6754
 20
346.1018
 10
370.825
 20
346.3948
 10
371.1434
 20
346.9749
 10
371.4878
 20
347.5476
 10
371.8576
 20
348.114
 10
372.0516
 20
348.3946
 10
372.4558
 20
348.949
 10
372.8785
 20
349.4907
 10
373.3159
 20
350.0147
 10
373.7646
 20
350.5156
 10
374.2225
 20
350.989
 10
374.6898
 20
351.4323
 10
374.9273
 20
351.6424
 10
375.4107
 20
352.0387
 10
375.6565
 20
352.2245
 10
376.1556
 20
352.5703
 10
376.4085
 20
352.7296
 10
376.9216
 20
353.0192
 10
377.1826
 20
353.149
 10
377.4467
 20
353.2685
 10
377.714
 20
353.3773
 10
377.9838
 20
353.4753
 10
378.255
 20
353.5623
 10
378.5266
 20
353.638
 10
378.7977
 20
353.7023
 10
379.0686
 20
353.7549
 10
379.3404
 20
353.7958
 10
379.6154
 20
353.8249
 10
379.8958
 20
353.8418
 10
380.1828
 20
353.8463
 10
380.4761
 20
353.8378
 10
380.7732
 20
353.8156
 10
381.0703
 20
353.7789
 10
381.3629
 20
353.7268
 10
381.6469
 20
353.6586
 10
381.9194
 20
353.5738
 10
382.1793
 20
353.4721
 10
382.4267
 20
353.3533
 10
382.6621
 20
353.2176
 10
382.8862
 20
353.065
 10
383.099
 20
352.8957
 10
383.2998
 20
352.7099
 10
383.4879
 20
352.508
 10
383.6622
 20
352.2907
 10
383.8224
 20
352.059
 10
383.9682
 20
351.8145
 10
384.1001
 20
351.5585
 10
384.2186
 20
351.2925
 10
384.3245
 20
351.0171
 10
384.4182
 20
350.7324
 10
384.5003
 20
350.4376
 10
384.5712
 20
350.1318
 10
384.6313
 20
349.8145
 10
384.6808
 20
349.4862
 10
384.7203
 20
349.1488
 10
384.7502
 20
348.8058
 10
384.7832
 20
348.1194
 10
384.7871
 20
347.7835
 10
384.7715
 20
347.1349
 10
384.7523
 20
346.8205
 10
384.6911
 20
346.2002
 10
384.6492
 20
345.8899
 10
384.5425
 20
345.2652
 10
384.478
 20
344.9518
 10
384.3265
 20
344.3286
 10
384.1457
 20
343.7142
 10
384.0443
 20
343.4104
 10
383.8201
 20
342.8074
 10
383.6974
 20
342.5079
 10
383.4315
 20
341.9128
 10
383.2885
 20
341.6178
 10
383.1391
 20
341.3247
 10
382.8207
 20
340.7447
 10
382.6517
 20
340.4576
 10
382.2945
 20
339.8884
 10
381.9125
 20
339.3259
 10
381.7129
 20
339.0478
 10
381.5082
 20
338.7722
 10
381.0852
 20
338.2312
 10
380.6472
 20
337.7081
 10
380.4238
 20
337.455
 10
379.9692
 20
336.9684
 10
379.7385
 20
336.7359
 10
379.2696
 20
336.2936
 10
379.0311
 20
336.0842
 10
378.7899
 20
335.8826
 10
378.2988
 20
335.5039
 10
377.7971
 20
335.1593
 10
377.5427
 20
335.0006
 10
377.0263
 20
334.712
 10
376.7638
 20
334.5827
 10
376.4981
 20
334.4637
 10
376.2294
 20
334.3552
 10
375.9582
 20
334.2575
 10
375.6853
 20
334.1708
 10
375.4118
 20
334.0951
 10
375.1382
 20
334.0308
 10
374.8646
 20
333.9778
 10
374.5899
 20
333.9365
 10
374.3124
 20
333.9069
 10
374.0306
 20
333.8892
 10
373.7432
 20
333.8839
 10
373.4509
 20
333.8915
 10
373.1556
 20
333.9128
 10
372.861
 20
333.9487
  0
LWPOLYLINE
  5
3B
330
17
100
AcDbEntity
  8
CUT
100
AcDbPolyline
 90
113
 70
1
 10
376.7468
 20
336.1931
 10
376.9133
 20
336.2218
 10
377.2491
 20
336.3027
 10
377.5893
 20
336.4149
 10
377.756
 20
336.4829
 10
378.076
 20
336.6426
 10
378.2297
 20
336.734
 10
378.528
 20
336.9386
 10
378.8164
 20
337.1708
 10
378.9561
 20
337.2967
 10
379.2252
 20
337.5671
 10
379.3545
 20
337.7114
 10
379.6036
 20
338.0171
 10
379.841
 20
338.3442
 10
379.9552
 20
338.515
 10
380.2782
 20
339.0517
 10
380.5681
 20
339.6166
 10
380.8227
 20
340.2033
 10
381.0421
 20
340.8127
 10
381.1695
 20
341.2304
 10
381.2821
 20
341.6542
 10
381.4236
 20
342.3028
 10
381.5327
 20
342.9788
 10
381.6111
 20
343.6682
 10
381.6472
 20
344.118
 10
381.6707
 20
344.5696
 10
381.6805
 20
345.3192
 10
381.6531
 20
346.1984
 10
381.6089
 20
346.8161
 10
381.5778
 20
347.1189
 10
381.4964
 20
347.6941
 10
381.3887
 20
348.225
 10
381.3249
 20
348.4768
 10
381.1757
 20
348.9615
 10
381.0892
 20
349.1959
 10
380.9939
 20
349.4246
 10
380.8889
 20
349.6464
 10
380.7737
 20
349.8596
 10
380.6482
 20
350.0628
 10
380.5128
 20
350.2548
 10
380.3685
 20
350.4349
 10
380.2163
 20
350.6027
 10
380.057
 20
350.758
 10
379.8906
 20
350.9005
 10
379.7162
 20
351.03
 10
379.5318
 20
351.146
 10
379.3351
 20
351.2481
 10
379.1248
 20
351.3359
 10
378.901
 20
351.4092
 10
378.6667
 20
351.468
 10
378.4274
 20
351.5128
 10
378.1905
 20
351.5444
 10
377.963
 20
351.5637
 10
377.5549
 20
351.5697
 10
377.3745
 20
351.5581
 10
377.0388
 20
351.5091
 10
376.7049
 20
351.428
 10
376.5352
 20
351.3756
 10
376.1999
 20
351.247
 10
376.0382
 20
351.1707
 10
375.8812
 20
351.0865
 10
375.5784
 20
350.8955
 10
375.2862
 20
350.6759
 10
375.1439
 20
350.556
 10
375.0046
 20
350.4296
 10
374.7365
 20
350.1582
 10
374.6076
 20
350.0135
 10
374.3592
 20
349.7069
 10
374.1223
 20
349.3788
 10
374.0083
 20
349.2075
 10
373.7897
 20
348.8525
 10
373.5852
 20
348.4837
 10
373.3958
 20
348.1039
 10
373.2221
 20
347.7149
 10
372.991
 20
347.1131
 10
372.794
 20
346.49
 10
372.6813
 20
346.0665
 10
372.5832
 20
345.6371
 10
372.4631
 20
344.9722
 10
372.4006
 20
344.5139
 10
372.3516
 20
344.0557
 10
372.3153
 20
343.6071
 10
372.2918
 20
343.1569
 10
372.2817
 20
342.6727
 10
372.2866
 20
342.1283
 10
372.3286
 20
341.22
 10
372.3846
 20
340.6086
 10
372.4219
 20
340.3153
 10
372.516
 20
339.7629
 10
372.5729
 20
339.5027
 10
372.7072
 20
339.006
 10
372.8713
 20
338.5319
 10
372.9663
 20
338.3032
 10
373.0709
 20
338.0815
 10
373.1857
 20
337.8682
 10
373.3107
 20
337.665
 10
373.4455
 20
337.473
 10
373.5893
 20
337.2929
 10
373.741
 20
337.1251
 10
373.8998
 20
336.9699
 10
374.0658
 20
336.8274
 10
374.2399
 20
336.698
 10
374.424
 20
336.582
 10
374.6203
 20
336.48
 10
374.8302
 20
336.3923
 10
375.0534
 20
336.3193
 10
375.2868
 20
336.2609
 10
375.5251
 20
336.2164
 10
375.761
 20
336.1852
 10
375.9876
 20
336.1662
 10
376.1997
 20
336.1584
 10
376.3951
 20
336.1608
 10
376.7468
 20
336.1931
  0
LWPOLYLINE
  5
3C
330
17
100
AcDbEntity
  8
CUT
100
AcDbPolyline
 90
65
 70
1
 10
275.8452
 20
348.2968
 10
275.8841
 20
348.5089
 10
275.9416
 20
348.7139
 10
276.0168
 20
348.9103
 10
276.1611
 20
349.1883
 10
276.2771
 20
349.3614
 10
276.4077
 20
349.5232
 10
276.5518
 20
349.6726
 10
276.791
 20
349.8712
 10
277.0547
 20
350.037
 10
277.2424
 20
350.1278
 10
277.4381
 20
350.2017
 10
277.6404
 20
350.2582
 10
277.8483
 20
350.2963
 10
278.0608
 20
350.3157
 10
278.2765
 20
350.3158
 10
278.4923
 20
350.2969
 10
278.7045
 20
350.2592
 10
278.9096
 20
350.2035
 10
279.1063
 20
350.1302
 10
279.3848
 20
349.9889
 10
279.6408
 20
349.8124
 10
279.7967
 20
349.6766
 10
279.9396
 20
349.5273
 10
280.0686
 20
349.3653
 10
280.2341
 20
349.1016
 10
280.3245
 20
348.9138
 10
280.398
 20
348.7173
 10
280.454
 20
348.5122
 10
280.4919
 20
348.3002
 10
280.5112
 20
348.0843
 10
280.5113
 20
347.8687
 10
280.4923
 20
347.6561
 10
280.4544
 20
347.4481
 10
280.3983
 20
347.2457
 10
280.2813
 20
346.9549
 10
280.1827
 20
346.7716
 10
280.0686
 20
346.5981
 10
279.8703
 20
346.3586
 10
279.7212
 20
346.2143
 10
279.5595
 20
346.0835
 10
279.2963
 20
345.915
 10
279.1088
 20
345.8226
 10
278.9125
 20
345.7471
 10
278.7076
 20
345.6894
 10
278.4957
 20
345.6501
 10
278.2798
 20
345.6302
 10
278.0642
 20
345.63
 10
277.8516
 20
345.6498
 10
277.6437
 20
345.689
 10
277.4414
 20
345.7468
 10
277.2459
 20
345.8225
 10
276.9681
 20
345.9674
 10
276.7949
 20
346.0835
 10
276.6326
 20
346.214
 10
276.4117
 20
346.4347
 10
276.2809
 20
346.5968
 10
276.1646
 20
346.7698
 10
276.0193
 20
347.0474
 10
275.9434
 20
347.2428
 10
275.8852
 20
347.445
 10
275.8457
 20
347.6528
 10
275.8257
 20
347.8653
 10
275.8255
 20
348.081
 10
275.8452
 20
348.2968
  0
ENDSEC
  0
SECTION
  2
OBJECTS
  0
DICTIONARY
  5
A
330
0
100
AcDbDictionary
281
1
  3
ACAD_COLOR
350
B
  3
ACAD_GROUP
350
C
  3
ACAD_LAYOUT
350
D
  3
ACAD_MATERIAL
350
E
  3
ACAD_MLEADERSTYLE
350
F
  3
ACAD_MLINESTYLE
350
10
  3
ACAD_PLOTSETTINGS
350
11
  3
ACAD_PLOTSTYLENAME
350
12
  3
ACAD_SCALELIST
350
14
  3
ACAD_TABLESTYLE
350
15
  3
ACAD_VISUALSTYLE
350
16
  3
EZDXF_META
350
2D
  0
DICTIONARY
  5
B
330
A
100
AcDbDictionary
281
1
  0
DICTIONARY
  5
C
330
A
100
AcDbDictionary
281
1
  0
DICTIONARY
  5
D
330
A
100
AcDbDictionary
281
1
  3
Model
350
1A
  3
Layout1
350
1E
  0
DICTIONARY
  5
E
330
A
100
AcDbDictionary
281
1
  3
ByBlock
350
1F
  3
ByLayer
350
20
  3
Global
350
21
  0
DICTIONARY
  5
F
330
A
100
AcDbDictionary
281
1
  3
Standard
350
2C
  0
DICTIONARY
  5
10
330
A
100
AcDbDictionary
281
1
  3
Standard
350
22
  0
DICTIONARY
  5
11
330
A
100
AcDbDictionary
281
1
  0
ACDBDICTIONARYWDFLT
  5
12
330
A
100
AcDbDictionary
281
1
  3
Normal
350
13
100
AcDbDictionaryWithDefault
340
13
  0
ACDBPLACEHOLDER
  5
13
330
12
  0
DICTIONARY
  5
14
330
A
100
AcDbDictionary
281
1
  0
DICTIONARY
  5
15
330
A
100
AcDbDictionary
281
1
  0
DICTIONARY
  5
16
330
A
100
AcDbDictionary
281
1
  0
LAYOUT
  5
1A
330
D
100
AcDbPlotSettings
  1

  4
A3
  6

 40
7.5
 41
20.0
 42
7.5
 43
20.0
 44
420.0
 45
297.0
 46
0.0
 47
0.0
 48
0.0
 49
0.0
140
0.0
141
0.0
142
1.0
143
1.0
 70
1024
 72
1
 73
0
 74
5
  7

 75
16
 76
0
 77
2
 78
300
147
1.0
148
0.0
149
0.0
100
AcDbLayout
  1
Model
 70
1
 71
0
 10
0.0
 20
0.0
 11
420.0
 21
297.0
 12
0.0
 22
0.0
 32
0.0
 14
1e+20
 24
1e+20
 34
1e+20
 15
-1e+20
 25
-1e+20
 35
-1e+20
146
0.0
 13
0.0
 23
0.0
 33
0.0
 16
1.0
 26
0.0
 36
0.0
 17
0.0
 27
1.0
 37
0.0
 76
1
330
17
  0
LAYOUT
  5
1E
330
D
100
AcDbPlotSettings
  1

  4
A3
  6

 40
7.5
 41
20.0
 42
7.5
 43
20.0
 44
420.0
 45
297.0
 46
0.0
 47
0.0
 48
0.0
 49
0.0
140
0.0
141
0.0
142
1.0
143
1.0
 70
0
 72
1
 73
0
 74
5
  7

 75
16
 76
0
 77
2
 78
300
147
1.0
148
0.0
149
0.0
100
AcDbLayout
  1
Layout1
 70
1
 71
1
 10
0.0
 20
0.0
 11
420.0
 21
297.0
 12
0.0
 22
0.0
 32
0.0
 14
1e+20
 24
1e+20
 34
1e+20
 15
-1e+20
 25
-1e+20
 35
-1e+20
146
0.0
 13
0.0
 23
0.0
 33
0.0
 16
1.0
 26
0.0
 36
0.0
 17
0.0
 27
1.0
 37
0.0
 76
1
330
1B
  0
MATERIAL
  5
1F
102
{ACAD_REACTORS
330
E
102
}
330
E
100
AcDbMaterial
  1
ByBlock
  2

 70
0
 40
1.0
 71
1
 41
1.0
 91
-1023410177
 42
1.0
 72
1
  3

 73
1
 74
1
 75
1
 44
0.5
 73
0
 45
1.0
 46
1.0
 77
1
  4

 78
1
 79
1
170
1
 48
1.0
171
1
  6

172
1
173
1
174
1
140
1.0
141
1.0
175
1
  7

176
1
177
1
178
1
143
1.0
179
1
  8

270
1
271
1
272
1
145
1.0
146
1.0
273
1
  9

274
1
275
1
276
1
 42
1.0
 72
1
  3

 73
1
 74
1
 75
1
 94
63
  0
MATERIAL
  5
20
102
{ACAD_REACTORS
330
E
102
}
330
E
100
AcDbMaterial
  1
ByLayer
  2

 70
0
 40
1.0
 71
1
 41
1.0
 91
-1023410177
 42
1.0
 72
1
  3

 73
1
 74
1
 75
1
 44
0.5
 73
0
 45
1.0
 46
1.0
 77
1
  4

 78
1
 79
1
170
1
 48
1.0
171
1
  6

172
1
173
1
174
1
140
1.0
141
1.0
175
1
  7

176
1
177
1
178
1
143
1.0
179
1
  8

270
1
271
1
272
1
145
1.0
146
1.0
273
1
  9

274
1
275
1
276
1
 42
1.0
 72
1
  3

 73
1
 74
1
 75
1
 94
63
  0
MATERIAL
  5
21
102
{ACAD_REACTORS
330
E
102
}
330
E
100
AcDbMaterial
  1
Global
  2

 70
0
 40
1.0
 71
1
 41
1.0
 91
-1023410177
 42
1.0
 72
1
  3

 73
1
 74
1
 75
1
 44
0.5
 73
0
 45
1.0
 46
1.0
 77
1
  4

 78
1
 79
1
170
1
 48
1.0
171
1
  6

172
1
173
1
174
1
140
1.0
141
1.0
175
1
  7

176
1
177
1
178
1
143
1.0
179
1
  8

270
1
271
1
272
1
145
1.0
146
1.0
273
1
  9

274
1
275
1
276
1
 42
1.0
 72
1
  3

 73
1
 74
1
 75
1
 94
63
  0
MLINESTYLE
  5
22
102
{ACAD_REACTORS
330
10
102
}
330
10
100
AcDbMlineStyle
  2
Standard
 70
0
  3

 62
256
 51
90.0
 52
90.0
 71
2
 49
0.5
 62
256
  6
BYLAYER
 49
-0.5
 62
256
  6
BYLAYER
  0
MLEADERSTYLE
  5
2C
102
{ACAD_REACTORS
330
F
102
}
330
F
100
AcDbMLeaderStyle
179
2
170
2
171
1
172
0
 90
2
 40
0.0
 41
0.0
173
1
 91
-1056964608
 92
-2
290
1
 42
2.0
291
1
 43
8.0
  3
Standard
 44
4.0
300

342
29
174
1
175
1
176
0
178
1
 93
-1056964608
 45
4.0
292
0
297
0
 46
4.0
 94
-1056964608
 47
1.0
 49
1.0
140
1.0
294
1
141
0.0
177
0
142
1.0
295
0
296
0
143
3.75
271
0
272
9
273
9
  0
DICTIONARY
  5
2D
330
A
100
AcDbDictionary
280
1
281
1
  3
CREATED_BY_EZDXF
350
2E
  3
WRITTEN_BY_EZDXF
350
3F
  0
DICTIONARYVAR
  5
2E
330
2D
100
DictionaryVariables
280
0
  1
1.4.4 @ 2026-10-02T04:10:19.781976+00:00
  0
DICTIONARYVAR
  5
3F
330
2D
100
DictionaryVariables
280
0
  1
1.4.4 @ 2026-10-02T04:10:19.786385+00:00
  0
ENDSEC
  0
EOF
