  0
SECTION
  2
HEADER
  9
$ACADVER
  1
AC1024
  9
$ACADMAINTVER
 70
6
  9
$DWGCODEPAGE
  3
ANSI_1252
  9
$LASTSAVEDBY
  1
ezdxf
  9
$INSBASE
 10
0.0
 20
0.0
 30
0.0
  9
$EXTMIN
 10
1e+20
 20
1e+20
 30
1e+20
  9
$EXTMAX
 10
-1e+20
 20
-1e+20
 30
-1e+20
  9
$LIMMIN
 10
0.0
 20
0.0
  9
$LIMMAX
 10
420.0
 20
297.0
  9
$ORTHOMODE
 70
0
  9
$REGENMODE
 70
1
  9
$FILLMODE
 70
1
  9
$QTEXTMODE
 70
0
  9
$MIRRTEXT
 70
1
  9
$LTSCALE
 40
1.0
  9
$ATTMODE
 70
1
  9
$TEXTSIZE
 40
2.5
  9
$TRACEWID
 40
1.0
  9
$TEXTSTYLE
  7
Standard
  9
$CLAYER
  8
0
  9
$CELTYPE
  6
ByLayer
  9
$CECOLOR
 62
256
  9
$CELTSCALE
 40
1.0
  9
$DISPSILH
 70
0
  9
$DIMSCALE
 40
1.0
  9
$DIMASZ
 40
2.5
  9
$DIMEXO
 40
0.625
  9
$DIMDLI
 40
3.75
  9
$DIMRND
 40
0.0
  9
$DIMDLE
 40
0.0
  9
$DIMEXE
 40
1.25
  9
$DIMTP
 40
0.0
  9
$DIMTM
 40
0.0
  9
$DIMTXT
 40
2.5
  9
$DIMCEN
 40
2.5
  9
$DIMTSZ
 40
0.0
  9
$DIMTOL
 70
0
  9
$DIMLIM
 70
0
  9
$DIMTIH
 70
0
  9
$DIMTOH
 70
0
  9
$DIMSE1
 70
0
  9
$DIMSE2
 70
0
  9
$DIMTAD
 70
1
  9
$DIMZIN
 70
8
  9
$DIMBLK
  1

  9
$DIMASO
 70
1
  9
$DIMSHO
 70
1
  9
$DIMPOST
  1

  9
$DIMAPOST
  1

  9
$DIMALT
 70
0
  9
$DIMALTD
 70
3
  9
$DIMALTF
 40
0.03937007874
  9
$DIMLFAC
 40
1.0
  9
$DIMTOFL
 70
1
  9
$DIMTVP
 40
0.0
  9
$DIMTIX
 70
0
  9
$DIMSOXD
 70
0
  9
$DIMSAH
 70
0
  9
$DIMBLK1
  1

  9
$DIMBLK2
  1

  9
$DIMSTYLE
  2
ISO-25
  9
$DIMCLRD
 70
0
  9
$DIMCLRE
 70
0
  9
$DIMCLRT
 70
0
  9
$DIMTFAC
 40
1.0
  9
$DIMGAP
 40
0.625
  9
$DIMJUST
 70
0
  9
$DIMSD1
 70
0
  9
$DIMSD2
 70
0
  9
$DIMTOLJ
 70
0
  9
$DIMTZIN
 70
8
  9
$DIMALTZ
 70
0
  9
$DIMALTTZ
 70
0
  9
$DIMUPT
 70
0
  9
$DIMDEC
 70
2
  9
$DIMTDEC
 70
2
  9
$DIMALTU
 70
2
  9
$DIMALTTD
 70
3
  9
$DIMTXSTY
  7
Standard
  9
$DIMAUNIT
 70
0
  9
$DIMADEC
 70
0
  9
$DIMALTRND
 40
0.0
  9
$DIMAZIN
 70
0
  9
$DIMDSEP
 70
44
  9
$DIMATFIT
 70
3
  9
$DIMFRAC
 70
0
  9
$DIMLDRBLK
  1

  9
$DIMLUNIT
 70
2
  9
$DIMLWD
 70
-2
  9
$DIMLWE
 70
-2
  9
$DIMTMOVE
 70
0
  9
$DIMFXL
 40
1.0
  9
$DIMFXLON
 70
0
  9
$DIMJOGANG
 40
0.785398163397
  9
$DIMTFILL
 70
0
  9
$DIMTFILLCLR
 70
0
  9
$DIMARCSYM
 70
0
  9
$DIMLTYPE
  6

  9
$DIMLTEX1
  6

  9
$DIMLTEX2
  6

  9
$DIMTXTDIRECTION
 70
0
  9
$LUNITS
 70
2
  9
$LUPREC
 70
4
  9
$SKETCHINC
 40
1.0
  9
$FILLETRAD
 40
10.0
  9
$AUNITS
 70
0
  9
$AUPREC
 70
2
  9
$MENU
  1
.
  9
$ELEVATION
 40
0.0
  9
$PELEVATION
 40
0.0
  9
$THICKNESS
 40
0.0
  9
$LIMCHECK
 70
0
  9
$CHAMFERA
 40
0.0
  9
$CHAMFERB
 40
0.0
  9
$CHAMFERC
 40
0.0
  9
$CHAMFERD
 40
0.0
  9
$SKPOLY
 70
0
  9
$TDCREATE
 40
2461316.056388889
  9
$TDUCREATE
 40
2458532.153996898
  9
$TDUPDATE
 40
2461316.056388889
  9
$TDUUPDATE
 40
2458532.1544311
  9
$TDINDWG
 40
0.0
  9
$TDUSRTIMER
 40
0.0
  9
$USRTIMER
 70
1
  9
$ANGBASE
 50
0.0
  9
$ANGDIR
 70
0
  9
$PDMODE
 70
0
  9
$PDSIZE
 40
0.0
  9
$PLINEWID
 40
0.0
  9
$SPLFRAME
 70
0
  9
$SPLINETYPE
 70
6
  9
$SPLINESEGS
 70
8
  9
$HANDSEED
  5
A6
  9
$SURFTAB1
 70
6
  9
$SURFTAB2
 70
6
  9
$SURFTYPE
 70
6
  9
$SURFU
 70
6
  9
$SURFV
 70
6
  9
$UCSBASE
  2

  9
$UCSNAME
  2

  9
$UCSORG
 10
0.0
 20
0.0
 30
0.0
  9
$UCSXDIR
 10
1.0
 20
0.0
 30
0.0
  9
$UCSYDIR
 10
0.0
 20
1.0
 30
0.0
  9
$UCSORTHOREF
  2

  9
$UCSORTHOVIEW
 70
0
  9
$UCSORGTOP
 10
0.0
 20
0.0
 30
0.0
  9
$UCSORGBOTTOM
 10
0.0
 20
0.0
 30
0.0
  9
$UCSORGLEFT
 10
0.0
 20
0.0
 30
0.0
  9
$UCSORGRIGHT
 10
0.0
 20
0.0
 30
0.0
  9
$UCSORGFRONT
 10
0.0
 20
0.0
 30
0.0
  9
$UCSORGBACK
 10
0.0
 20
0.0
 30
0.0
  9
$PUCSBASE
  2

  9
$PUCSNAME
  2

  9
$PUCSORG
 10
0.0
 20
0.0
 30
0.0
  9
$PUCSXDIR
 10
1.0
 20
0.0
 30
0.0
  9
$PUCSYDIR
 10
0.0
 20
1.0
 30
0.0
  9
$PUCSORTHOREF
  2

  9
$PUCSORTHOVIEW
 70
0
  9
$PUCSORGTOP
 10
0.0
 20
0.0
 30
0.0
  9
$PUCSORGBOTTOM
 10
0.0
 20
0.0
 30
0.0
  9
$PUCSORGLEFT
 10
0.0
 20
0.0
 30
0.0
  9
$PUCSORGRIGHT
 10
0.0
 20
0.0
 30
0.0
  9
$PUCSORGFRONT
 10
0.0
 20
0.0
 30
0.0
  9
$PUCSORGBACK
 10
0.0
 20
0.0
 30
0.0
  9
$USERI1
 70
0
  9
$USERI2
 70
0
  9
$USERI3
 70
0
  9
$USERI4
 70
0
  9
$USERI5
 70
0
  9
$USERR1
 40
0.0
  9
$USERR2
 40
0.0
  9
$USERR3
 40
0.0
  9
$USERR4
 40
0.0
  9
$USERR5
 40
0.0
  9
$WORLDVIEW
 70
1
  9
$SHADEDGE
 70
3
  9
$SHADEDIF
 70
70
  9
$TILEMODE
 70
1
  9
$MAXACTVP
 70
64
  9
$PINSBASE
 10
0.0
 20
0.0
 30
0.0
  9
$PLIMCHECK
 70
0
  9
$PEXTMIN
 10
1e+20
 20
1e+20
 30
1e+20
  9
$PEXTMAX
 10
-1e+20
 20
-1e+20
 30
-1e+20
  9
$PLIMMIN
 10
0.0
 20
0.0
  9
$PLIMMAX
 10
420.0
 20
297.0
  9
$UNITMODE
 70
0
  9
$VISRETAIN
 70
1
  9
$PLINEGEN
 70
0
  9
$PSLTSCALE
 70
1
  9
$TREEDEPTH
 70
3020
  9
$CMLSTYLE
  2
Standard
  9
$CMLJUST
 70
0
  9
$CMLSCALE
 40
20.0
  9
$PROXYGRAPHICS
 70
1
  9
$MEASUREMENT
 70
1
  9
$CELWEIGHT
370
-1
  9
$ENDCAPS
280
0
  9
$JOINSTYLE
280
0
  9
$LWDISPLAY
290
0
  9
$INSUNITS
 70
4
  9
$HYPERLINKBASE
  1

  9
$STYLESHEET
  1

  9
$XEDIT
290
1
  9
$CEPSNTYPE
380
0
  9
$PSTYLEMODE
290
1
  9
$FINGERPRINTGUID
  2
{46991DAB-0801-4AFC-B535-B532E21FAB2E}
  9
$VERSIONGUID
  2
{528C2B03-CC03-4C46-9689-A2E334BC6507}
  9
$EXTNAMES
290
1
  9
$PSVPSCALE
 40
0.0
  9
$OLESTARTUP
290
0
  9
$SORTENTS
280
127
  9
$INDEXCTL
280
0
  9
$HIDETEXT
280
1
  9
$XCLIPFRAME
280
1
  9
$HALOGAP
280
0
  9
$OBSCOLOR
 70
257
  9
$OBSLTYPE
280
0
  9
$INTERSECTIONDISPLAY
280
0
  9
$INTERSECTIONCOLOR
 70
257
  9
$DIMASSOC
280
2
  9
$PROJECTNAME
  1

  9
$CAMERADISPLAY
290
0
  9
$LENSLENGTH
 40
50.0
  9
$CAMERAHEIGHT
 40
0.0
  9
$STEPSPERSEC
 40
24.0
  9
$STEPSIZE
 40
100.0
  9
$3DDWFPREC
 40
2.0
  9
$PSOLWIDTH
 40
0.005
  9
$PSOLHEIGHT
 40
0.08
  9
$LOFTANG1
 40
1.570796326795
  9
$LOFTANG2
 40
1.570796326795
  9
$LOFTMAG1
 40
0.0
  9
$LOFTMAG2
 40
0.0
  9
$LOFTPARAM
 70
7
  9
$LOFTNORMALS
280
1
  9
$LATITUDE
 40
37.795
  9
$LONGITUDE
 40
-122.394
  9
$NORTHDIRECTION
 40
0.0
  9
$TIMEZONE
 70
-8000
  9
$LIGHTGLYPHDISPLAY
280
1
  9
$TILEMODELIGHTSYNCH
280
1
  9
$CMATERIAL
347
20
  9
$SOLIDHIST
280
0
  9
$SHOWHIST
280
1
  9
$DWFFRAME
280
2
  9
$DGNFRAME
280
2
  9
$REALWORLDSCALE
290
1
  9
$INTERFERECOLOR
 62
256
  9
$CSHADOW
280
0
  9
$SHADOWPLANELOCATION
 40
0.0
  0
ENDSEC
  0
SECTION
  2
CLASSES
  0
CLASS
  1
ACDBDICTIONARYWDFLT
  2
AcDbDictionaryWithDefault
  3
ObjectDBX Classes
 90
0
 91
0
280
0
281
0
  0
CLASS
  1
SUN
  2
AcDbSun
  3
SCENEOE
 90
1153
 91
0
280
0
281
0
  0
CLASS
  1
VISUALSTYLE
  2
AcDbVisualStyle
  3
ObjectDBX Classes
 90
4095
 91
0
280
0
281
0
  0
CLASS
  1
MATERIAL
  2
AcDbMaterial
  3
ObjectDBX Classes
 90
1153
 91
0
280
0
281
0
  0
CLASS
  1
SCALE
  2
AcDbScale
  3
ObjectDBX Classes
 90
1153
 91
0
280
0
281
0
  0
CLASS
  1
TABLESTYLE
  2
AcDbTableStyle
  3
ObjectDBX Classes
 90
4095
 91
0
280
0
281
0
  0
CLASS
  1
MLEADERSTYLE
  2
AcDbMLeaderStyle
  3
ACDB_MLEADERSTYLE_CLASS
 90
4095
 91
0
280
0
281
0
  0
CLASS
  1
DICTIONARYVAR
  2
AcDbDictionaryVar
  3
ObjectDBX Classes
 90
0
 91
0
280
0
281
0
  0
CLASS
  1
CELLSTYLEMAP
  2
AcDbCellStyleMap
  3
ObjectDBX Classes
 90
1152
 91
0
280
0
281
0
  0
CLASS
  1
MENTALRAYRENDERSETTINGS
  2
AcDbMentalRayRenderSettings
  3
SCENEOE
 90
1024
 91
0
280
0
281
0
  0
CLASS
  1
ACDBDETAILVIEWSTYLE
  2
AcDbDetailViewStyle
  3
ObjectDBX Classes
 90
1025
 91
0
280
0
281
0
  0
CLASS
  1
ACDBSECTIONVIEWSTYLE
  2
AcDbSectionViewStyle
  3
ObjectDBX Classes
 90
1025
 91
0
280
0
281
0
  0
CLASS
  1
RASTERVARIABLES
  2
AcDbRasterVariables
  3
ISM
 90
0
 91
0
280
0
281
0
  0
CLASS
  1
ACDBPLACEHOLDER
  2
AcDbPlaceHolder
  3
ObjectDBX Classes
 90
0
 91
0
280
0
281
0
  0
CLASS
  1
LAYOUT
  2
AcDbLayout
  3
ObjectDBX Classes
 90
0
 91
0
280
0
281
0
  0
ENDSEC
  0
SECTION
  2
TABLES
  0
TABLE
  2
VPORT
  5
8
330
0
100
AcDbSymbolTable
 70
1
  0
VPORT
  5
23
330
8
100
AcDbSymbolTableRecord
100
AcDbViewportTableRecord
  2
*Active
 70
0
 10
0.0
 20
0.0
 11
1.0
 21
1.0
 12
0.0
 22
0.0
 13
0.0
 23
0.0
 14
0.5
 24
0.5
 15
0.5
 25
0.5
 16
0.0
 26
0.0
 36
1.0
 17
0.0
 27
0.0
 37
0.0
 40
1000.0
 41
1.34
 42
50.0
 43
0.0
 44
0.0
 50
0.0
 51
0.0
 71
0
 72
1000
 73
1
 74
3
 75
0
 76
0
 77
0
 78
0
281
0
 65
0
146
0.0
  0
ENDTAB
  0
TABLE
  2
LTYPE
  5
2
330
0
100
AcDbSymbolTable
 70
3
  0
LTYPE
  5
24
330
2
100
AcDbSymbolTableRecord
100
AcDbLinetypeTableRecord
  2
ByBlock
 70
0
  3

 72
65
 73
0
 40
0.0
  0
LTYPE
  5
25
330
2
100
AcDbSymbolTableRecord
100
AcDbLinetypeTableRecord
  2
ByLayer
 70
0
  3

 72
65
 73
0
 40
0.0
  0
LTYPE
  5
26
330
2
100
AcDbSymbolTableRecord
100
AcDbLinetypeTableRecord
  2
Continuous
 70
0
  3

 72
65
 73
0
 40
0.0
  0
ENDTAB
  0
TABLE
  2
LAYER
  5
1
330
0
100
AcDbSymbolTable
 70
4
  0
LAYER
  5
27
330
1
100
AcDbSymbolTableRecord
100
AcDbLayerTableRecord
  2
0
 70
0
 62
7
  6
Continuous
370
-3
390
13
347
21
  0
LAYER
  5
28
330
1
100
AcDbSymbolTableRecord
100
AcDbLayerTableRecord
  2
Defpoints
 70
0
 62
7
  6
Continuous
290
0
370
-3
390
13
347
21
  0
LAYER
  5
2F
330
1
100
AcDbSymbolTableRecord
100
AcDbLayerTableRecord
  2
CUT
 70
0
 62
7
  6
Continuous
370
-3
390
13
347
21
  0
LAYER
  5
30
330
1
100
AcDbSymbolTableRecord
100
AcDbLayerTableRecord
  2
GUIA
 70
0
 62
1
  6
Continuous
370
-3
390
13
347
21
  0
ENDTAB
  0
TABLE
  2
STYLE
  5
5
330
0
100
AcDbSymbolTable
 70
1
  0
STYLE
  5
29
330
5
100
AcDbSymbolTableRecord
100
AcDbTextStyleTableRecord
  2
Standard
 70
0
 40
0.0
 41
1.0
 50
0.0
 71
0
 42
2.5
  3
txt
  4

  0
ENDTAB
  0
TABLE
  2
VIEW
  5
7
330
0
100
AcDbSymbolTable
 70
0
  0
ENDTAB
  0
TABLE
  2
UCS
  5
6
330
0
100
AcDbSymbolTable
 70
0
  0
ENDTAB
  0
TABLE
  2
APPID
  5
3
330
0
100
AcDbSymbolTable
 70
3
  0
APPID
  5
2A
330
3
100
AcDbSymbolTableRecord
100
AcDbRegAppTableRecord
  2
ACAD
 70
0
  0
APPID
  5
A3
330
3
100
AcDbSymbolTableRecord
100
AcDbRegAppTableRecord
  2
HATCHBACKGROUNDCOLOR
 70
0
  0
APPID
  5
A4
330
3
100
AcDbSymbolTableRecord
100
AcDbRegAppTableRecord
  2
EZDXF
 70
0
  0
ENDTAB
  0
TABLE
  2
DIMSTYLE
  5
4
330
0
100
AcDbSymbolTable
 70
1
100
AcDbDimStyleTable
  0
DIMSTYLE
105
2B
330
4
100
AcDbSymbolTableRecord
100
AcDbDimStyleTableRecord
  2
Standard
 70
0
 40
1.0
 41
2.5
 42
0.625
 43
3.75
 44
1.25
 45
0.0
 46
0.0
 47
0.0
 48
0.0
 49
2.5
140
2.5
141
2.5
142
0.0
143
0.03937007874
144
1.0
145
0.0
146
1.0
147
0.625
148
0.0
 69
0
 70
0
 71
0
 72
0
 73
0
 74
0
 75
0
 76
0
 77
1
 78
8
 79
3
170
0
171
3
172
1
173
0
174
0
175
0
176
0
177
0
178
0
179
2
271
2
272
2
273
2
274
3
275
0
276
0
277
2
278
44
279
0
280
0
281
0
282
0
283
0
284
8
285
0
286
0
288
0
289
3
290
0
371
-2
372
-2
  0
ENDTAB
  0
TABLE
  2
BLOCK_RECORD
  5
9
330
0
100
AcDbSymbolTable
 70
2
  0
BLOCK_RECORD
  5
17
330
9
100
AcDbSymbolTableRecord
100
AcDbBlockTableRecord
  2
*Model_Space
340
1A
 70
0
280
1
281
0
  0
BLOCK_RECORD
  5
1B
330
9
100
AcDbSymbolTableRecord
100
AcDbBlockTableRecord
  2
*Paper_Space
340
1E
 70
0
280
1
281
0
  0
ENDTAB
  0
ENDSEC
  0
SECTION
  2
BLOCKS
  0
BLOCK
  5
18
330
17
100
AcDbEntity
  8
0
100
AcDbBlockBegin
  2
*Model_Space
 70
0
 10
0.0
 20
0.0
 30
0.0
  3
*Model_Space
  1

  0
ENDBLK
  5
19
330
17
100
AcDbEntity
  8
0
100
AcDbBlockEnd
  0
BLOCK
  5
1C
330
1B
100
AcDbEntity
  8
0
100
AcDbBlockBegin
  2
*Paper_Space
 70
0
 10
0.0
 20
0.0
 30
0.0
  3
*Paper_Space
  1

  0
ENDBLK
  5
1D
330
1B
100
AcDbEntity
  8
0
100
AcDbBlockEnd
  0
ENDSEC
  0
SECTION
  2
ENTITIES
  0
SPLINE
  5
31
330
17
100
AcDbEntity
  8
CUT
100
AcDbSpline
 70
0
 71
3
 72
17
 73
13
 74
0
 40
0.0
 40
0.0
 40
0.0
 40
0.0
 40
1.0
 40
1.0
 40
1.0
 40
2.0
 40
2.0
 40
2.0
 40
3.0
 40
3.0
 40
3.0
 40
4.0
 40
4.0
 40
4.0
 40
4.0
 10
343.2568359375
 20
353.054443359375
 30
0.0
 10
342.47161865234375
 20
353.40643310546875
 30
0.0
 10
341.3005676269531
 20
353.5824279785156
 30
0.0
 10
339.7436828613281
 20
353.5824279785156
 30
0.0
 10
336.07483927408856
 20
353.5824279785156
 30
0.0
 10
332.89337158203125
 20
352.0729268391927
 30
0.0
 10
330.19927978515625
 20
349.0539245605469
 30
0.0
 10
327.50518798828125
 20
346.03492228190106
 30
0.0
 10
326.15814208984375
 20
342.4811604817708
 30
0.0
 10
326.15814208984375
 20
338.39263916015625
 30
0.0
 10
326.15814208984375
 20
336.5108235677083
 30
0.0
 10
326.63197835286456
 20
335.19762166341144
 30
0.0
 10
327.57965087890625
 20
334.4530334472656
 30
0.0
  0
SPLINE
  5
32
330
17
100
AcDbEntity
  8
CUT
100
AcDbSpline
 70
0
 71
3
 72
26
 73
22
 74
0
 40
0.0
 40
0.0
 40
0.0
 40
0.0
 40
1.0
 40
1.0
 40
1.0
 40
2.0
 40
2.0
 40
2.0
 40
3.0
 40
3.0
 40
3.0
 40
4.0
 40
4.0
 40
4.0
 40
5.0
 40
5.0
 40
5.0
 40
6.0
 40
6.0
 40
6.0
 40
7.0
 40
7.0
 40
7.0
 40
7.0
 10
327.57965087890625
 20
334.4530334472656
 30
0.0
 10
323.12559000651044
 20
330.9060363769531
 30
0.0
 10
320.8985595703125
 20
327.31165568033856
 30
0.0
 10
320.8985595703125
 20
323.6698913574219
 30
0.0
 10
320.8985595703125
 20
321.8828633626302
 30
0.0
 10
321.48070271809894
 20
320.3936716715495
 30
0.0
 10
322.6449890136719
 20
319.2023162841797
 30
0.0
 10
323.8092753092448
 20
318.0109608968099
 30
0.0
 10
325.2713928222656
 20
317.415283203125
 30
0.0
 10
327.0313415527344
 20
317.415283203125
 30
0.0
 10
330.67310587565106
 20
317.415283203125
 30
0.0
 10
334.1050313313802
 20
319.11431884765625
 30
0.0
 10
337.3271179199219
 20
322.51239013671875
 30
0.0
 10
338.7350769042969
 20
323.988037109375
 30
0.0
 10
339.7165883382161
 20
325.66676330566406
 30
0.0
 10
340.2716522216797
 20
327.54856872558594
 30
0.0
 10
340.82671610514325
 20
329.4303741455078
 30
0.0
 10
341.1990152994792
 20
332.32753499348956
 30
0.0
 10
341.3885498046875
 20
336.24005126953125
 30
0.0
 10
341.5374755859375
 20
339.36737060546875
 30
0.0
 10
341.67962646484375
 20
341.5537821451823
 30
0.0
 10
341.81500244140625
 20
342.7992858886719
 30
0.0
  0
POLYLINE
  5
33
330
17
100
AcDbEntity
  8
CUT
100
AcDb2dPolyline
 66
1
 10
0.0
 20
0.0
 30
0.0
 70
0
  0
VERTEX
  5
34
330
33
100
AcDbEntity
  8
CUT
100
AcDbVertex
100
AcDb2dVertex
 10
341.81500244140625
 20
342.7992858886719
 30
0.0
 70
0
  0
VERTEX
  5
35
330
33
100
AcDbEntity
  8
CUT
100
AcDbVertex
100
AcDb2dVertex
 10
342.6272888183594
 20
350.23175048828125
 30
0.0
 70
0
  0
SEQEND
  5
36
330
33
100
AcDbEntity
  8
CUT
  0
SPLINE
  5
37
330
17
100
AcDbEntity
  8
CUT
100
AcDbSpline
 70
0
 71
3
 72
8
 73
4
 74
0
 40
0.0
 40
0.0
 40
0.0
 40
0.0
 40
1.0
 40
1.0
 40
1.0
 40
1.0
 10
342.6272888183594
 20
350.23175048828125
 30
0.0
 10
342.6408386230469
 20
350.31296793619794
 30
0.0
 10
342.73560587565106
 20
350.7461853027344
 30
0.0
 10
342.9115905761719
 20
351.5314025878906
 30
0.0
  0
POLYLINE
  5
38
330
17
100
AcDbEntity
  8
CUT
100
AcDb2dPolyline
 66
1
 10
0.0
 20
0.0
 30
0.0
 70
0
  0
VERTEX
  5
39
330
38
100
AcDbEntity
  8
CUT
100
AcDbVertex
100
AcDb2dVertex
 10
342.9115905761719
 20
351.5314025878906
 30
0.0
 70
0
  0
VERTEX
  5
3A
330
38
100
AcDbEntity
  8
CUT
100
AcDbVertex
100
AcDb2dVertex
 10
343.1349792480469
 20
352.6076965332031
 30
0.0
 70
0
  0
SEQEND
  5
3B
330
38
100
AcDbEntity
  8
CUT
  0
SPLINE
  5
3C
330
17
100
AcDbEntity
  8
CUT
100
AcDbSpline
 70
0
 71
3
 72
8
 73
4
 74
0
 40
0.0
 40
0.0
 40
0.0
 40
0.0
 40
1.0
 40
1.0
 40
1.0
 40
1.0
 10
343.1349792480469
 20
352.6076965332031
 30
0.0
 10
343.1485290527344
 20
352.6618347167969
 30
0.0
 10
343.18914794921875
 20
352.8107503255208
 30
0.0
 10
343.2568359375
 20
353.054443359375
 30
0.0
  0
SPLINE
  5
3D
330
17
100
AcDbEntity
  8
CUT
100
AcDbSpline
 70
0
 71
3
 72
8
 73
4
 74
0
 40
0.0
 40
0.0
 40
0.0
 40
0.0
 40
1.0
 40
1.0
 40
1.0
 40
1.0
 10
264.3021240234375
 20
356.1608581542969
 30
0.0
 10
264.54901123046875
 20
356.1608581542969
 30
0.0
 10
264.8370361328125
 20
356.07855224609375
 30
0.0
 10
264.96044921875
 20
355.6259765625
 30
0.0
  0
POLYLINE
  5
3E
330
17
100
AcDbEntity
  8
CUT
100
AcDb2dPolyline
 66
1
 10
0.0
 20
0.0
 30
0.0
 70
0
  0
VERTEX
  5
3F
330
3E
100
AcDbEntity
  8
CUT
100
AcDbVertex
100
AcDb2dVertex
 10
264.96044921875
 20
355.6259765625
 30
0.0
 70
0
  0
VERTEX
  5
40
330
3E
100
AcDbEntity
  8
CUT
100
AcDbVertex
100
AcDb2dVertex
 10
265.0427551269531
 20
355.33795166015625
 30
0.0
 70
0
  0
SEQEND
  5
41
330
3E
100
AcDbEntity
  8
CUT
  0
SPLINE
  5
42
330
17
100
AcDbEntity
  8
CUT
100
AcDbSpline
 70
0
 71
3
 72
14
 73
10
 74
0
 40
0.0
 40
0.0
 40
0.0
 40
0.0
 40
1.0
 40
1.0
 40
1.0
 40
2.0
 40
2.0
 40
2.0
 40
3.0
 40
3.0
 40
3.0
 40
3.0
 10
265.0427551269531
 20
355.33795166015625
 30
0.0
 10
265.33074951171875
 20
354.2270202636719
 30
0.0
 10
265.94793701171875
 20
351.7994689941406
 30
0.0
 10
268.0463562011719
 20
351.7994689941406
 30
0.0
 10
269.7333068847656
 20
351.7994689941406
 30
0.0
 10
270.8853759765625
 20
352.7869567871094
 30
0.0
 10
270.8853759765625
 20
354.5561828613281
 30
0.0
 10
270.8853759765625
 20
355.1733703613281
 30
0.0
 10
270.7619323730469
 20
355.8316955566406
 30
0.0
 10
270.55621337890625
 20
356.4900207519531
 30
0.0
  0
SPLINE
  5
43
330
17
100
AcDbEntity
  8
CUT
100
AcDbSpline
 70
0
 71
3
 72
17
 73
13
 74
0
 40
0.0
 40
0.0
 40
0.0
 40
0.0
 40
1.0
 40
1.0
 40
1.0
 40
2.0
 40
2.0
 40
2.0
 40
3.0
 40
3.0
 40
3.0
 40
4.0
 40
4.0
 40
4.0
 40
4.0
 10
270.55621337890625
 20
356.4900207519531
 30
0.0
 10
269.89788818359375
 20
358.3826904296875
 30
0.0
 10
267.1411437988281
 20
359.0821533203125
 30
0.0
 10
265.0427551269531
 20
359.0821533203125
 30
0.0
 10
262.16259765625
 20
359.0821533203125
 30
0.0
 10
258.912109375
 20
355.5436706542969
 30
0.0
 10
258.912109375
 20
351.4703063964844
 30
0.0
 10
258.912109375
 20
350.4828186035156
 30
0.0
 10
259.11785888671875
 20
349.4541931152344
 30
0.0
 10
259.5704345703125
 20
348.4255676269531
 30
0.0
 10
260.8870849609375
 20
345.4219665527344
 30
0.0
 10
266.8531494140625
 20
341.7600402832031
 30
0.0
 10
267.18231201171875
 20
341.6365966796875
 30
0.0
  0
SPLINE
  5
44
330
17
100
AcDbEntity
  8
CUT
100
AcDbSpline
 70
0
 71
3
 72
11
 73
7
 74
0
 40
0.0
 40
0.0
 40
0.0
 40
0.0
 40
1.0
 40
1.0
 40
1.0
 40
2.0
 40
2.0
 40
2.0
 40
2.0
 10
267.18231201171875
 20
341.6365966796875
 30
0.0
 10
267.34686279296875
 20
341.5543212890625
 30
0.0
 10
267.4291687011719
 20
341.4720153808594
 30
0.0
 10
267.4291687011719
 20
341.30743408203125
 30
0.0
 10
267.4291687011719
 20
341.14288330078125
 30
0.0
 10
267.34686279296875
 20
340.9371337890625
 30
0.0
 10
267.18231201171875
 20
340.6491394042969
 30
0.0
  0
SPLINE
  5
45
330
17
100
AcDbEntity
  8
CUT
100
AcDbSpline
 70
0
 71
3
 72
8
 73
4
 74
0
 40
0.0
 40
0.0
 40
0.0
 40
0.0
 40
1.0
 40
1.0
 40
1.0
 40
1.0
 10
267.18231201171875
 20
340.6491394042969
 30
0.0
 10
266.894287109375
 20
340.0730895996094
 30
0.0
 10
260.9693908691406
 20
329.41650390625
 30
0.0
 10
260.9693908691406
 20
329.41650390625
 30
0.0
  0
SPLINE
  5
46
330
17
100
AcDbEntity
  8
CUT
100
AcDbSpline
 70
0
 71
3
 72
14
 73
10
 74
0
 40
0.0
 40
0.0
 40
0.0
 40
0.0
 40
1.0
 40
1.0
 40
1.0
 40
2.0
 40
2.0
 40
2.0
 40
3.0
 40
3.0
 40
3.0
 40
3.0
 10
260.9693908691406
 20
329.41650390625
 30
0.0
 10
260.8870849609375
 20
329.2519226074219
 30
0.0
 10
260.845947265625
 20
329.04620361328125
 30
0.0
 10
260.845947265625
 20
328.8816223144531
 30
0.0
 10
260.845947265625
 20
328.2232971191406
 30
0.0
 10
261.3396911621094
 20
327.6883850097656
 30
0.0
 10
261.9980163574219
 20
327.6883850097656
 30
0.0
 10
262.4094543457031
 20
327.6883850097656
 30
0.0
 10
262.8209228515625
 20
327.9352722167969
 30
0.0
 10
263.0266418457031
 20
328.3055725097656
 30
0.0
  0
SPLINE
  5
47
330
17
100
AcDbEntity
  8
CUT
100
AcDbSpline
 70
0
 71
3
 72
8
 73
4
 74
0
 40
0.0
 40
0.0
 40
0.0
 40
0.0
 40
1.0
 40
1.0
 40
1.0
 40
1.0
 10
263.0266418457031
 20
328.3055725097656
 30
0.0
 10
263.0266418457031
 20
328.3055725097656
 30
0.0
 10
269.4041442871094
 20
339.82623291015625
 30
0.0
 10
269.5275573730469
 20
340.0730895996094
 30
0.0
  0
SPLINE
  5
48
330
17
100
AcDbEntity
  8
CUT
100
AcDbSpline
 70
0
 71
3
 72
11
 73
7
 74
0
 40
0.0
 40
0.0
 40
0.0
 40
0.0
 40
1.0
 40
1.0
 40
1.0
 40
2.0
 40
2.0
 40
2.0
 40
2.0
 10
269.5275573730469
 20
340.0730895996094
 30
0.0
 10
269.5275573730469
 20
340.056640625
 30
0.0
 10
269.5802001953125
 20
340.0862731933594
 30
0.0
 10
269.6539611816406
 20
340.12774658203125
 30
0.0
 10
269.7645568847656
 20
340.18994140625
 30
0.0
 10
269.9225769042969
 20
340.27880859375
 30
0.0
 10
270.02130126953125
 20
340.27880859375
 30
0.0
  0
SPLINE
  5
49
330
17
100
AcDbEntity
  8
CUT
100
AcDbSpline
 70
0
 71
3
 72
11
 73
7
 74
0
 40
0.0
 40
0.0
 40
0.0
 40
0.0
 40
1.0
 40
1.0
 40
1.0
 40
2.0
 40
2.0
 40
2.0
 40
2.0
 10
270.02130126953125
 20
340.27880859375
 30
0.0
 10
270.63848876953125
 20
340.1553955078125
 30
0.0
 10
278.8675231933594
 20
337.7278137207031
 30
0.0
 10
278.8675231933594
 20
333.81903076171875
 30
0.0
 10
278.8675231933594
 20
332.21435546875
 30
0.0
 10
277.8800354003906
 20
331.14459228515625
 30
0.0
 10
276.4811096191406
 20
330.9388732910156
 30
0.0
  0
POLYLINE
  5
4A
330
17
100
AcDbEntity
  8
CUT
100
AcDb2dPolyline
 66
1
 10
0.0
 20
0.0
 30
0.0
 70
0
  0
VERTEX
  5
4B
330
4A
100
AcDbEntity
  8
CUT
100
AcDbVertex
100
AcDb2dVertex
 10
276.4811096191406
 20
330.9388732910156
 30
0.0
 70
0
  0
VERTEX
  5
4C
330
4A
100
AcDbEntity
  8
CUT
100
AcDbVertex
100
AcDb2dVertex
 10
276.357666015625
 20
330.8977355957031
 30
0.0
 70
0
  0
SEQEND
  5
4D
330
4A
100
AcDbEntity
  8
CUT
  0
SPLINE
  5
4E
330
17
100
AcDbEntity
  8
CUT
100
AcDbSpline
 70
0
 71
3
 72
8
 73
4
 74
0
 40
0.0
 40
0.0
 40
0.0
 40
0.0
 40
1.0
 40
1.0
 40
1.0
 40
1.0
 10
276.357666015625
 20
330.8977355957031
 30
0.0
 10
275.4936218261719
 20
330.8977355957031
 30
0.0
 10
274.7941589355469
 20
331.4737548828125
 30
0.0
 10
274.7941589355469
 20
332.749267578125
 30
0.0
  0
POLYLINE
  5
4F
330
17
100
AcDbEntity
  8
CUT
100
AcDb2dPolyline
 66
1
 10
0.0
 20
0.0
 30
0.0
 70
0
  0
VERTEX
  5
50
330
4F
100
AcDbEntity
  8
CUT
100
AcDbVertex
100
AcDb2dVertex
 10
274.7941589355469
 20
332.749267578125
 30
0.0
 70
0
  0
VERTEX
  5
51
330
4F
100
AcDbEntity
  8
CUT
100
AcDbVertex
100
AcDb2dVertex
 10
274.7941589355469
 20
333.20184326171875
 30
0.0
 70
0
  0
SEQEND
  5
52
330
4F
100
AcDbEntity
  8
CUT
  0
SPLINE
  5
53
330
17
100
AcDbEntity
  8
CUT
100
AcDbSpline
 70
0
 71
3
 72
26
 73
22
 74
0
 40
0.0
 40
0.0
 40
0.0
 40
0.0
 40
1.0
 40
1.0
 40
1.0
 40
2.0
 40
2.0
 40
2.0
 40
3.0
 40
3.0
 40
3.0
 40
4.0
 40
4.0
 40
4.0
 40
5.0
 40
5.0
 40
5.0
 40
6.0
 40
6.0
 40
6.0
 40
7.0
 40
7.0
 40
7.0
 40
7.0
 10
274.7941589355469
 20
333.20184326171875
 30
0.0
 10
274.7941589355469
 20
334.765380859375
 30
0.0
 10
273.7655334472656
 20
335.91741943359375
 30
0.0
 10
272.61346435546875
 20
335.91741943359375
 30
0.0
 10
272.4488830566406
 20
335.91741943359375
 30
0.0
 10
272.2843017578125
 20
335.87628173828125
 30
0.0
 10
272.1197204589844
 20
335.83514404296875
 30
0.0
 10
270.59735107421875
 20
335.46484375
 30
0.0
 10
269.19842529296875
 20
334.8065185546875
 30
0.0
 10
269.19842529296875
 20
333.16070556640625
 30
0.0
 10
269.19842529296875
 20
330.6508483886719
 30
0.0
 10
271.7494201660156
 20
328.47015380859375
 30
0.0
 10
274.1769714355469
 20
328.47015380859375
 30
0.0
 10
274.71185302734375
 20
328.47015380859375
 30
0.0
 10
275.28790283203125
 20
328.5524597167969
 30
0.0
 10
275.9050598144531
 20
328.7581787109375
 30
0.0
 10
279.1966857910156
 20
329.86907958984375
 30
0.0
 10
281.37738037109375
 20
332.54351806640625
 30
0.0
 10
281.37738037109375
 20
335.9585876464844
 30
0.0
 10
281.37738037109375
 20
336.3288879394531
 30
0.0
 10
281.33624267578125
 20
336.7403259277344
 30
0.0
 10
281.2950744628906
 20
337.15179443359375
 30
0.0
  0
SPLINE
  5
54
330
17
100
AcDbEntity
  8
CUT
100
AcDbSpline
 70
0
 71
3
 72
8
 73
4
 74
0
 40
0.0
 40
0.0
 40
0.0
 40
0.0
 40
1.0
 40
1.0
 40
1.0
 40
1.0
 10
281.2950744628906
 20
337.15179443359375
 30
0.0
 10
280.67791748046875
 20
341.6777648925781
 30
0.0
 10
274.1769714355469
 20
345.33966064453125
 30
0.0
 10
273.6832275390625
 20
345.5865478515625
 30
0.0
  0
SPLINE
  5
55
330
17
100
AcDbEntity
  8
CUT
100
AcDbSpline
 70
0
 71
3
 72
11
 73
7
 74
0
 40
0.0
 40
0.0
 40
0.0
 40
0.0
 40
1.0
 40
1.0
 40
1.0
 40
2.0
 40
2.0
 40
2.0
 40
2.0
 10
273.6832275390625
 20
345.5865478515625
 30
0.0
 10
273.1894836425781
 20
345.87457275390625
 30
0.0
 10
272.9837646484375
 20
346.0391540527344
 30
0.0
 10
272.9837646484375
 20
346.244873046875
 30
0.0
 10
272.9837646484375
 20
346.3271484375
 30
0.0
 10
273.02490234375
 20
346.4094543457031
 30
0.0
 10
273.0660400390625
 20
346.4917297363281
 30
0.0
  0
SPLINE
  5
56
330
17
100
AcDbEntity
  8
CUT
100
AcDbSpline
 70
0
 71
3
 72
8
 73
4
 74
0
 40
0.0
 40
0.0
 40
0.0
 40
0.0
 40
1.0
 40
1.0
 40
1.0
 40
1.0
 10
273.0660400390625
 20
346.4917297363281
 30
0.0
 10
273.27178955078125
 20
346.8208923339844
 30
0.0
 10
279.6492919921875
 20
358.3004150390625
 30
0.0
 10
279.6492919921875
 20
358.3004150390625
 30
0.0
  0
SPLINE
  5
57
330
17
100
AcDbEntity
  8
CUT
100
AcDbSpline
 70
0
 71
3
 72
14
 73
10
 74
0
 40
0.0
 40
0.0
 40
0.0
 40
0.0
 40
1.0
 40
1.0
 40
1.0
 40
2.0
 40
2.0
 40
2.0
 40
3.0
 40
3.0
 40
3.0
 40
3.0
 10
279.6492919921875
 20
358.3004150390625
 30
0.0
 10
279.772705078125
 20
358.5061340332031
 30
0.0
 10
279.8138732910156
 20
358.67071533203125
 30
0.0
 10
279.8138732910156
 20
358.8764343261719
 30
0.0
 10
279.8138732910156
 20
359.5347595214844
 30
0.0
 10
279.2789611816406
 20
360.02850341796875
 30
0.0
 10
278.66180419921875
 20
360.02850341796875
 30
0.0
 10
278.2503356933594
 20
360.02850341796875
 30
0.0
 10
277.8388977050781
 20
359.8227844238281
 30
0.0
 10
277.6331787109375
 20
359.45245361328125
 30
0.0
  0
SPLINE
  5
58
330
17
100
AcDbEntity
  8
CUT
100
AcDbSpline
 70
0
 71
3
 72
8
 73
4
 74
0
 40
0.0
 40
0.0
 40
0.0
 40
0.0
 40
1.0
 40
1.0
 40
1.0
 40
1.0
 10
277.6331787109375
 20
359.45245361328125
 30
0.0
 10
277.6331787109375
 20
359.45245361328125
 30
0.0
 10
271.0910949707031
 20
347.643798828125
 30
0.0
 10
270.8442077636719
 20
347.27349853515625
 30
0.0
  0
SPLINE
  5
59
330
17
100
AcDbEntity
  8
CUT
100
AcDbSpline
 70
0
 71
3
 72
11
 73
7
 74
0
 40
0.0
 40
0.0
 40
0.0
 40
0.0
 40
1.0
 40
1.0
 40
1.0
 40
2.0
 40
2.0
 40
2.0
 40
2.0
 10
270.8442077636719
 20
347.27349853515625
 30
0.0
 10
270.7207946777344
 20
347.0677795410156
 30
0.0
 10
270.63848876953125
 20
346.9443359375
 30
0.0
 10
270.4739074707031
 20
346.9443359375
 30
0.0
 10
270.3504638671875
 20
346.9443359375
 30
0.0
 10
270.22705078125
 20
346.9854736328125
 30
0.0
 10
270.0624694824219
 20
347.0677795410156
 30
0.0
  0
SPLINE
  5
5A
330
17
100
AcDbEntity
  8
CUT
100
AcDbSpline
 70
0
 71
3
 72
8
 73
4
 74
0
 40
0.0
 40
0.0
 40
0.0
 40
0.0
 40
1.0
 40
1.0
 40
1.0
 40
1.0
 10
270.0624694824219
 20
347.0677795410156
 30
0.0
 10
269.692138671875
 20
347.19122314453125
 30
0.0
 10
263.4792175292969
 20
349.57763671875
 30
0.0
 10
262.4094543457031
 20
351.4291687011719
 30
0.0
  0
SPLINE
  5
5B
330
17
100
AcDbEntity
  8
CUT
100
AcDbSpline
 70
0
 71
3
 72
11
 73
7
 74
0
 40
0.0
 40
0.0
 40
0.0
 40
0.0
 40
1.0
 40
1.0
 40
1.0
 40
2.0
 40
2.0
 40
2.0
 40
2.0
 10
262.4094543457031
 20
351.4291687011719
 30
0.0
 10
262.16259765625
 20
351.8817443847656
 30
0.0
 10
261.83343505859375
 20
352.7458190917969
 30
0.0
 10
261.83343505859375
 20
353.60986328125
 30
0.0
 10
261.83343505859375
 20
354.72076416015625
 30
0.0
 10
262.3271789550781
 20
355.8728332519531
 30
0.0
 10
264.0552673339844
 20
356.1608581542969
 30
0.0
  0
POLYLINE
  5
5C
330
17
100
AcDbEntity
  8
CUT
100
AcDb2dPolyline
 66
1
 10
0.0
 20
0.0
 30
0.0
 70
0
  0
VERTEX
  5
5D
330
5C
100
AcDbEntity
  8
CUT
100
AcDbVertex
100
AcDb2dVertex
 10
264.0552673339844
 20
356.1608581542969
 30
0.0
 70
0
  0
VERTEX
  5
5E
330
5C
100
AcDbEntity
  8
CUT
100
AcDbVertex
100
AcDb2dVertex
 10
264.3021240234375
 20
356.1608581542969
 30
0.0
 70
0
  0
SEQEND
  5
5F
330
5C
100
AcDbEntity
  8
CUT
  0
SPLINE
  5
60
330
17
100
AcDbEntity
  8
CUT
100
AcDbSpline
 70
0
 71
3
 72
23
 73
19
 74
0
 40
0.0
 40
0.0
 40
0.0
 40
0.0
 40
1.0
 40
1.0
 40
1.0
 40
2.0
 40
2.0
 40
2.0
 40
3.0
 40
3.0
 40
3.0
 40
4.0
 40
4.0
 40
4.0
 40
5.0
 40
5.0
 40
5.0
 40
6.0
 40
6.0
 40
6.0
 40
6.0
 10
373.7423095703125
 20
333.88409423828125
 30
0.0
 10
376.3416341145833
 20
333.88409423828125
 30
0.0
 10
378.83265177408856
 20
335.38683064778644
 30
0.0
 10
381.2153625488281
 20
338.3923034667969
 30
0.0
 10
383.5980733235677
 20
341.3977762858073
 30
0.0
 10
384.7894287109375
 20
344.5318603515625
 30
0.0
 10
384.7894287109375
 20
347.7945556640625
 30
0.0
 10
384.7894287109375
 20
351.82891845703125
 30
0.0
 10
383.24608357747394
 20
353.8460998535156
 30
0.0
 10
380.1593933105469
 20
353.8460998535156
 30
0.0
 10
377.6006774902344
 20
353.8460998535156
 30
0.0
 10
375.1299641927083
 20
352.33998107910156
 30
0.0
 10
372.74725341796875
 20
349.32774353027344
 30
0.0
 10
370.3645426432292
 20
346.3155059814453
 30
0.0
 10
369.1731872558594
 20
343.18480428059894
 30
0.0
 10
369.1731872558594
 20
339.9356384277344
 30
0.0
 10
369.1731872558594
 20
335.9012756347656
 30
0.0
 10
370.69622802734375
 20
333.88409423828125
 30
0.0
 10
373.7423095703125
 20
333.88409423828125
 30
0.0
  0
SPLINE
  5
61
330
17
100
AcDbEntity
  8
CUT
100
AcDbSpline
 70
0
 71
3
 72
23
 73
19
 74
0
 40
0.0
 40
0.0
 40
0.0
 40
0.0
 40
1.0
 40
1.0
 40
1.0
 40
2.0
 40
2.0
 40
2.0
 40
3.0
 40
3.0
 40
3.0
 40
4.0
 40
4.0
 40
4.0
 40
5.0
 40
5.0
 40
5.0
 40
6.0
 40
6.0
 40
6.0
 40
6.0
 10
338.8704528808594
 20
342.3931579589844
 30
0.0
 10
338.7486267089844
 20
341.1070251464844
 30
0.0
 10
338.6064758300781
 20
339.1439921061198
 30
0.0
 10
338.4440002441406
 20
336.5040588378906
 30
0.0
 10
338.0107930501302
 20
329.5183817545573
 30
0.0
 10
337.23912556966144
 20
325.0981750488281
 30
0.0
 10
336.1289978027344
 20
323.2434387207031
 30
0.0
 10
334.66688028971356
 20
320.8336486816406
 30
0.0
 10
332.56846110026044
 20
319.6287536621094
 30
0.0
 10
329.833740234375
 20
319.6287536621094
 30
0.0
 10
328.06024169921875
 20
319.6287536621094
 30
0.0
 10
326.5744323730469
 20
320.20073954264325
 30
0.0
 10
325.3763122558594
 20
321.34471130371094
 30
0.0
 10
324.1781921386719
 20
322.4886830647786
 30
0.0
 10
323.5791320800781
 20
323.9068094889323
 30
0.0
 10
323.5791320800781
 20
325.5990905761719
 30
0.0
 10
323.5791320800781
 20
328.0765686035156
 30
0.0
 10
325.14955647786456
 20
330.89927164713544
 30
0.0
 10
328.2904052734375
 20
334.06719970703125
 30
0.0
  0
SPLINE
  5
62
330
17
100
AcDbEntity
  8
CUT
100
AcDbSpline
 70
0
 71
3
 72
11
 73
7
 74
0
 40
0.0
 40
0.0
 40
0.0
 40
0.0
 40
1.0
 40
1.0
 40
1.0
 40
2.0
 40
2.0
 40
2.0
 40
2.0
 10
328.2904052734375
 20
334.06719970703125
 30
0.0
 10
328.60178629557294
 20
334.0401204427083
 30
0.0
 10
328.8184000651042
 20
334.0265808105469
 30
0.0
 10
328.94024658203125
 20
334.0265808105469
 30
0.0
 10
331.90509033203125
 20
334.0265808105469
 30
0.0
 10
335.2151590983073
 20
336.81543986002606
 30
0.0
 10
338.8704528808594
 20
342.3931579589844
 30
0.0
  0
POLYLINE
  5
63
330
17
100
AcDbEntity
  8
CUT
100
AcDb2dPolyline
 66
1
 10
0.0
 20
0.0
 30
0.0
 70
0
  0
VERTEX
  5
64
330
63
100
AcDbEntity
  8
CUT
100
AcDbVertex
100
AcDb2dVertex
 10
351.2481994628906
 20
335.0885314941406
 30
0.0
 70
0
  0
VERTEX
  5
65
330
63
100
AcDbEntity
  8
CUT
100
AcDbVertex
100
AcDb2dVertex
 10
351.7965087890625
 20
339.9622802734375
 30
0.0
 70
0
  0
SEQEND
  5
66
330
63
100
AcDbEntity
  8
CUT
  0
SPLINE
  5
67
330
17
100
AcDbEntity
  8
CUT
100
AcDbSpline
 70
0
 71
3
 72
17
 73
13
 74
0
 40
0.0
 40
0.0
 40
0.0
 40
0.0
 40
1.0
 40
1.0
 40
1.0
 40
2.0
 40
2.0
 40
2.0
 40
3.0
 40
3.0
 40
3.0
 40
4.0
 40
4.0
 40
4.0
 40
4.0
 10
351.7965087890625
 20
339.9622802734375
 30
0.0
 10
352.09434000651044
 20
342.6563720703125
 30
0.0
 10
353.1333872477214
 20
345.1778513590495
 30
0.0
 10
354.9136505126953
 20
347.52671813964844
 30
0.0
 10
356.69391377766925
 20
349.8755849202474
 30
0.0
 10
358.4504903157552
 20
351.0500183105469
 30
0.0
 10
360.1833801269531
 20
351.0500183105469
 30
0.0
 10
360.92798868815106
 20
351.0500183105469
 30
0.0
 10
361.30029296875
 20
350.5152587890625
 30
0.0
 10
361.30029296875
 20
349.44573974609375
 30
0.0
 10
361.30029296875
 20
348.51161702473956
 30
0.0
 10
361.1852111816406
 20
347.2457987467448
 30
0.0
 10
360.9550476074219
 20
345.6482849121094
 30
0.0
  0
POLYLINE
  5
68
330
17
100
AcDbEntity
  8
CUT
100
AcDb2dPolyline
 66
1
 10
0.0
 20
0.0
 30
0.0
 70
0
  0
VERTEX
  5
69
330
68
100
AcDbEntity
  8
CUT
100
AcDbVertex
100
AcDb2dVertex
 10
360.9550476074219
 20
345.6482849121094
 30
0.0
 70
0
  0
VERTEX
  5
6A
330
68
100
AcDbEntity
  8
CUT
100
AcDbVertex
100
AcDb2dVertex
 10
360.2442932128906
 20
340.73394775390625
 30
0.0
 70
0
  0
SEQEND
  5
6B
330
68
100
AcDbEntity
  8
CUT
  0
SPLINE
  5
6C
330
17
100
AcDbEntity
  8
CUT
100
AcDbSpline
 70
0
 71
3
 72
20
 73
16
 74
0
 40
0.0
 40
0.0
 40
0.0
 40
0.0
 40
1.0
 40
1.0
 40
1.0
 40
2.0
 40
2.0
 40
2.0
 40
3.0
 40
3.0
 40
3.0
 40
4.0
 40
4.0
 40
4.0
 40
5.0
 40
5.0
 40
5.0
 40
5.0
 10
360.2442932128906
 20
340.73394775390625
 30
0.0
 10
359.9599914550781
 20
338.7709147135417
 30
0.0
 10
359.8178405761719
 20
337.2343343098958
 30
0.0
 10
359.8178405761719
 20
336.12420654296875
 30
0.0
 10
359.8178405761719
 20
334.60793050130206
 30
0.0
 10
360.34583536783856
 20
333.84979248046875
 30
0.0
 10
361.4018249511719
 20
333.84979248046875
 30
0.0
 10
362.34949747721356
 20
333.84979248046875
 30
0.0
 10
363.5780843098958
 20
334.5639292399089
 30
0.0
 10
365.08758544921875
 20
335.99220275878906
 30
0.0
 10
366.5970865885417
 20
337.42047627766925
 30
0.0
 10
367.3518371582031
 20
338.57460530598956
 30
0.0
 10
367.3518371582031
 20
339.45458984375
 30
0.0
 10
367.3518371582031
 20
339.67120361328125
 30
0.0
 10
367.1893819173177
 20
339.88104248046875
 30
0.0
 10
366.8644714355469
 20
340.0841064453125
 30
0.0
  0
SPLINE
  5
6D
330
17
100
AcDbEntity
  8
CUT
100
AcDbSpline
 70
0
 71
3
 72
14
 73
10
 74
0
 40
0.0
 40
0.0
 40
0.0
 40
0.0
 40
1.0
 40
1.0
 40
1.0
 40
2.0
 40
2.0
 40
2.0
 40
3.0
 40
3.0
 40
3.0
 40
3.0
 10
366.8644714355469
 20
340.0841064453125
 30
0.0
 10
365.4971008300781
 20
337.5930989583333
 30
0.0
 10
364.3463541666667
 20
336.34759521484375
 30
0.0
 10
363.4122314453125
 20
336.34759521484375
 30
0.0
 10
363.0331624348958
 20
336.34759521484375
 30
0.0
 10
362.8436279296875
 20
336.6995849609375
 30
0.0
 10
362.8436279296875
 20
337.403564453125
 30
0.0
 10
362.8436279296875
 20
338.28354899088544
 30
0.0
 10
362.9519348144531
 20
339.48167928059894
 30
0.0
 10
363.1685485839844
 20
340.9979553222656
 30
0.0
  0
POLYLINE
  5
6E
330
17
100
AcDbEntity
  8
CUT
100
AcDb2dPolyline
 66
1
 10
0.0
 20
0.0
 30
0.0
 70
0
  0
VERTEX
  5
6F
330
6E
100
AcDbEntity
  8
CUT
100
AcDbVertex
100
AcDb2dVertex
 10
363.1685485839844
 20
340.9979553222656
 30
0.0
 70
0
  0
VERTEX
  5
70
330
6E
100
AcDbEntity
  8
CUT
100
AcDbVertex
100
AcDb2dVertex
 10
364.26513671875
 20
348.5725402832031
 30
0.0
 70
0
  0
SEQEND
  5
71
330
6E
100
AcDbEntity
  8
CUT
  0
SPLINE
  5
72
330
17
100
AcDbEntity
  8
CUT
100
AcDbSpline
 70
0
 71
3
 72
17
 73
13
 74
0
 40
0.0
 40
0.0
 40
0.0
 40
0.0
 40
1.0
 40
1.0
 40
1.0
 40
2.0
 40
2.0
 40
2.0
 40
3.0
 40
3.0
 40
3.0
 40
4.0
 40
4.0
 40
4.0
 40
4.0
 10
364.26513671875
 20
348.5725402832031
 30
0.0
 10
364.4140625
 20
349.6826680501302
 30
0.0
 10
364.488525390625
 20
350.5152587890625
 30
0.0
 10
364.488525390625
 20
351.0703125
 30
0.0
 10
364.488525390625
 20
352.89796956380206
 30
0.0
 10
363.83191935221356
 20
353.8117980957031
 30
0.0
 10
362.5187072753906
 20
353.8117980957031
 30
0.0
 10
361.1784362792969
 20
353.8117980957031
 30
0.0
 10
359.5572458902995
 20
353.0367380777995
 30
0.0
 10
357.65513610839844
 20
351.4866180419922
 30
0.0
 10
355.7530263264974
 20
349.9364980061849
 30
0.0
 10
354.0032246907552
 20
347.97008260091144
 30
0.0
 10
352.4057312011719
 20
345.5873718261719
 30
0.0
  0
POLYLINE
  5
73
330
17
100
AcDbEntity
  8
CUT
100
AcDb2dPolyline
 66
1
 10
0.0
 20
0.0
 30
0.0
 70
0
  0
VERTEX
  5
74
330
73
100
AcDbEntity
  8
CUT
100
AcDbVertex
100
AcDb2dVertex
 10
352.4057312011719
 20
345.5873718261719
 30
0.0
 70
0
  0
VERTEX
  5
75
330
73
100
AcDbEntity
  8
CUT
100
AcDbVertex
100
AcDb2dVertex
 10
352.56817626953125
 20
347.0291748046875
 30
0.0
 70
0
  0
VERTEX
  5
76
330
73
100
AcDbEntity
  8
CUT
100
AcDbVertex
100
AcDb2dVertex
 10
352.7306213378906
 20
348.4100646972656
 30
0.0
 70
0
  0
VERTEX
  5
77
330
73
100
AcDbEntity
  8
CUT
100
AcDbVertex
100
AcDb2dVertex
 10
352.8930969238281
 20
350.0549621582031
 30
0.0
 70
0
  0
SEQEND
  5
78
330
73
100
AcDbEntity
  8
CUT
  0
SPLINE
  5
79
330
17
100
AcDbEntity
  8
CUT
100
AcDbSpline
 70
0
 71
3
 72
20
 73
16
 74
0
 40
0.0
 40
0.0
 40
0.0
 40
0.0
 40
1.0
 40
1.0
 40
1.0
 40
2.0
 40
2.0
 40
2.0
 40
3.0
 40
3.0
 40
3.0
 40
4.0
 40
4.0
 40
4.0
 40
5.0
 40
5.0
 40
5.0
 40
5.0
 10
352.8930969238281
 20
350.0549621582031
 30
0.0
 10
352.9607849121094
 20
350.6912536621094
 30
0.0
 10
352.99462890625
 20
351.1989339192708
 30
0.0
 10
352.99462890625
 20
351.5780029296875
 30
0.0
 10
352.99462890625
 20
353.06719970703125
 30
0.0
 10
352.41248575846356
 20
353.8117980957031
 30
0.0
 10
351.2481994628906
 20
353.8117980957031
 30
0.0
 10
350.3952941894531
 20
353.8117980957031
 30
0.0
 10
349.2276306152344
 20
353.1112009684245
 30
0.0
 10
347.7452087402344
 20
351.7100067138672
 30
0.0
 10
346.2627868652344
 20
350.3088124593099
 30
0.0
 10
345.5215759277344
 20
349.2020670572917
 30
0.0
 10
345.5215759277344
 20
348.3897705078125
 30
0.0
 10
345.5215759277344
 20
348.2002360026042
 30
0.0
 10
345.67726643880206
 20
347.9768575032552
 30
0.0
 10
345.9886474609375
 20
347.7196350097656
 30
0.0
  0
SPLINE
  5
7A
330
17
100
AcDbEntity
  8
CUT
100
AcDbSpline
 70
0
 71
3
 72
14
 73
10
 74
0
 40
0.0
 40
0.0
 40
0.0
 40
0.0
 40
1.0
 40
1.0
 40
1.0
 40
2.0
 40
2.0
 40
2.0
 40
3.0
 40
3.0
 40
3.0
 40
3.0
 10
345.9886474609375
 20
347.7196350097656
 30
0.0
 10
347.1529134114583
 20
350.02112833658856
 30
0.0
 10
348.2427266438802
 20
351.171875
 30
0.0
 10
349.2580871582031
 20
351.171875
 30
0.0
 10
349.6913146972656
 20
351.171875
 30
0.0
 10
349.9079284667969
 20
350.7386474609375
 30
0.0
 10
349.9079284667969
 20
349.8721923828125
 30
0.0
 10
349.9079284667969
 20
349.3577473958333
 30
0.0
 10
349.8673095703125
 20
348.68084716796875
 30
0.0
 10
349.78607177734375
 20
347.84149169921875
 30
0.0
  0
POLYLINE
  5
7B
330
17
100
AcDbEntity
  8
CUT
100
AcDb2dPolyline
 66
1
 10
0.0
 20
0.0
 30
0.0
 70
0
  0
VERTEX
  5
7C
330
7B
100
AcDbEntity
  8
CUT
100
AcDbVertex
100
AcDb2dVertex
 10
349.78607177734375
 20
347.84149169921875
 30
0.0
 70
0
  0
VERTEX
  5
7D
330
7B
100
AcDbEntity
  8
CUT
100
AcDbVertex
100
AcDb2dVertex
 10
349.66424560546875
 20
346.76519775390625
 30
0.0
 70
0
  0
VERTEX
  5
7E
330
7B
100
AcDbEntity
  8
CUT
100
AcDbVertex
100
AcDb2dVertex
 10
348.6082763671875
 20
337.3426513671875
 30
0.0
 70
0
  0
VERTEX
  5
7F
330
7B
100
AcDbEntity
  8
CUT
100
AcDbVertex
100
AcDb2dVertex
 10
348.44580078125
 20
335.921142578125
 30
0.0
 70
0
  0
VERTEX
  5
80
330
7B
100
AcDbEntity
  8
CUT
100
AcDbVertex
100
AcDb2dVertex
 10
348.2833557128906
 20
334.41839599609375
 30
0.0
 70
0
  0
VERTEX
  5
81
330
7B
100
AcDbEntity
  8
CUT
100
AcDbVertex
100
AcDb2dVertex
 10
348.2224426269531
 20
333.84979248046875
 30
0.0
 70
0
  0
VERTEX
  5
82
330
7B
100
AcDbEntity
  8
CUT
100
AcDbVertex
100
AcDb2dVertex
 10
351.2481994628906
 20
335.0885314941406
 30
0.0
 70
0
  0
SEQEND
  5
83
330
7B
100
AcDbEntity
  8
CUT
  0
SPLINE
  5
84
330
17
100
AcDbEntity
  8
CUT
100
AcDbSpline
 70
0
 71
3
 72
11
 73
7
 74
0
 40
0.0
 40
0.0
 40
0.0
 40
0.0
 40
1.0
 40
1.0
 40
1.0
 40
2.0
 40
2.0
 40
2.0
 40
2.0
 10
323.27630615234375
 20
340.86968994140625
 30
0.0
 10
321.82773844401044
 20
337.958984375
 30
0.0
 10
319.96624755859375
 20
336.5036315917969
 30
0.0
 10
317.69183349609375
 20
336.5036315917969
 30
0.0
 10
315.3903401692708
 20
336.5036315917969
 30
0.0
 10
314.1042175292969
 20
338.1349792480469
 30
0.0
 10
313.8334655761719
 20
341.3976745605469
 30
0.0
  0
SPLINE
  5
85
330
17
100
AcDbEntity
  8
CUT
100
AcDbSpline
 70
0
 71
3
 72
35
 73
31
 74
0
 40
0.0
 40
0.0
 40
0.0
 40
0.0
 40
1.0
 40
1.0
 40
1.0
 40
2.0
 40
2.0
 40
2.0
 40
3.0
 40
3.0
 40
3.0
 40
4.0
 40
4.0
 40
4.0
 40
5.0
 40
5.0
 40
5.0
 40
6.0
 40
6.0
 40
6.0
 40
7.0
 40
7.0
 40
7.0
 40
8.0
 40
8.0
 40
8.0
 40
9.0
 40
9.0
 40
9.0
 40
10.0
 40
10.0
 40
10.0
 40
10.0
 10
313.8334655761719
 20
341.3976745605469
 30
0.0
 10
316.60877482096356
 20
342.1422627766927
 30
0.0
 10
318.9610239664714
 20
343.4622294108073
 30
0.0
 10
320.8902130126953
 20
345.3575744628906
 30
0.0
 10
322.81940205891925
 20
347.25291951497394
 30
0.0
 10
323.78399658203125
 20
349.1956481933594
 30
0.0
 10
323.78399658203125
 20
351.1857604980469
 30
0.0
 10
323.78399658203125
 20
352.9592590332031
 30
0.0
 10
322.9581705729167
 20
353.84600830078125
 30
0.0
 10
321.3065185546875
 20
353.84600830078125
 30
0.0
 10
319.01857503255206
 20
353.84600830078125
 30
0.0
 10
316.7069346110026
 20
352.2654266357422
 30
0.0
 10
314.37159729003906
 20
349.10426330566406
 30
0.0
 10
312.0362599690755
 20
345.94309997558594
 30
0.0
 10
310.86859130859375
 20
342.8191731770833
 30
0.0
 10
310.86859130859375
 20
339.73248291015625
 30
0.0
 10
310.86859130859375
 20
338.02667236328125
 30
0.0
 10
311.3153533935547
 20
336.62547302246094
 30
0.0
 10
312.20887756347656
 20
335.5288848876953
 30
0.0
 10
313.10240173339844
 20
334.4322967529297
 30
0.0
 10
314.23960367838544
 20
333.8840026855469
 30
0.0
 10
315.6204833984375
 20
333.8840026855469
 30
0.0
 10
317.88136800130206
 20
333.8840026855469
 30
0.0
 10
320.16932169596356
 20
335.2242736816406
 30
0.0
 10
322.4843444824219
 20
337.9048156738281
 30
0.0
 10
323.3507792154948
 20
338.9201965332031
 30
0.0
 10
323.78399658203125
 20
339.6377258300781
 30
0.0
 10
323.78399658203125
 20
340.0574035644531
 30
0.0
 10
323.78399658203125
 20
340.36878458658856
 30
0.0
 10
323.61476643880206
 20
340.63954671223956
 30
0.0
 10
323.27630615234375
 20
340.86968994140625
 30
0.0
  0
SPLINE
  5
86
330
17
100
AcDbEntity
  8
CUT
100
AcDbSpline
 70
0
 71
3
 72
23
 73
19
 74
0
 40
0.0
 40
0.0
 40
0.0
 40
0.0
 40
1.0
 40
1.0
 40
1.0
 40
2.0
 40
2.0
 40
2.0
 40
3.0
 40
3.0
 40
3.0
 40
4.0
 40
4.0
 40
4.0
 40
5.0
 40
5.0
 40
5.0
 40
6.0
 40
6.0
 40
6.0
 40
6.0
 10
376.199462890625
 20
336.15850830078125
 30
0.0
 10
373.58660888671875
 20
336.15850830078125
 30
0.0
 10
372.2801818847656
 20
338.2704569498698
 30
0.0
 10
372.2801818847656
 20
342.4943542480469
 30
0.0
 10
372.2801818847656
 20
345.0665995279948
 30
0.0
 10
372.8047841389974
 20
347.22254943847656
 30
0.0
 10
373.85398864746094
 20
348.9622039794922
 30
0.0
 10
374.9031931559245
 20
350.7018585205078
 30
0.0
 10
376.19947306315106
 20
351.5716857910156
 30
0.0
 10
377.7428283691406
 20
351.5716857910156
 30
0.0
 10
380.3692321777344
 20
351.5716857910156
 30
0.0
 10
381.68243408203125
 20
349.45973714192706
 30
0.0
 10
381.68243408203125
 20
345.23583984375
 30
0.0
 10
381.68243408203125
 20
342.65004475911456
 30
0.0
 10
381.15782674153644
 20
340.49070739746094
 30
0.0
 10
380.1086120605469
 20
338.75782775878906
 30
0.0
 10
379.0593973795573
 20
337.0249481201172
 30
0.0
 10
377.75634765625
 20
336.15850830078125
 30
0.0
 10
376.199462890625
 20
336.15850830078125
 30
0.0
  0
POLYLINE
  5
87
330
17
100
AcDbEntity
  8
CUT
100
AcDb2dPolyline
 66
1
 10
0.0
 20
0.0
 30
0.0
 70
0
  0
VERTEX
  5
88
330
87
100
AcDbEntity
  8
CUT
100
AcDbVertex
100
AcDb2dVertex
 10
339.7843017578125
 20
350.5363464355469
 30
0.0
 70
0
  0
VERTEX
  5
89
330
87
100
AcDbEntity
  8
CUT
100
AcDbVertex
100
AcDb2dVertex
 10
339.5202941894531
 20
348.30255126953125
 30
0.0
 70
0
  0
SEQEND
  5
8A
330
87
100
AcDbEntity
  8
CUT
  0
SPLINE
  5
8B
330
17
100
AcDbEntity
  8
CUT
100
AcDbSpline
 70
0
 71
3
 72
23
 73
19
 74
0
 40
0.0
 40
0.0
 40
0.0
 40
0.0
 40
1.0
 40
1.0
 40
1.0
 40
2.0
 40
2.0
 40
2.0
 40
3.0
 40
3.0
 40
3.0
 40
4.0
 40
4.0
 40
4.0
 40
5.0
 40
5.0
 40
5.0
 40
6.0
 40
6.0
 40
6.0
 40
6.0
 10
339.5202941894531
 20
348.30255126953125
 30
0.0
 10
339.1683044433594
 20
345.0669352213542
 30
0.0
 10
337.8009541829427
 20
342.1697692871094
 30
0.0
 10
335.4182434082031
 20
339.6110534667969
 30
0.0
 10
333.6989034016927
 20
337.7698669433594
 30
0.0
 10
332.24355061848956
 20
336.8492736816406
 30
0.0
 10
331.05218505859375
 20
336.8492736816406
 30
0.0
 10
330.00974527994794
 20
336.8492736816406
 30
0.0
 10
329.488525390625
 20
337.72925821940106
 30
0.0
 10
329.488525390625
 20
339.4892272949219
 30
0.0
 10
329.488525390625
 20
342.8872985839844
 30
0.0
 10
330.1282043457031
 20
345.7506154378255
 30
0.0
 10
331.4075622558594
 20
348.0791778564453
 30
0.0
 10
332.6869201660156
 20
350.4077402750651
 30
0.0
 10
334.2539571126302
 20
351.572021484375
 30
0.0
 10
336.1086730957031
 20
351.572021484375
 30
0.0
 10
337.58434041341144
 20
351.572021484375
 30
0.0
 10
338.80954996744794
 20
351.22679646809894
 30
0.0
 10
339.7843017578125
 20
350.5363464355469
 30
0.0
  0
SPLINE
  5
8C
330
17
100
AcDbEntity
  8
CUT
100
AcDbSpline
 70
0
 71
3
 72
17
 73
13
 74
0
 40
0.0
 40
0.0
 40
0.0
 40
0.0
 40
1.0
 40
1.0
 40
1.0
 40
2.0
 40
2.0
 40
2.0
 40
3.0
 40
3.0
 40
3.0
 40
4.0
 40
4.0
 40
4.0
 40
4.0
 10
294.87152099609375
 20
334.9806823730469
 30
0.0
 10
296.19826253255206
 20
334.24962361653644
 30
0.0
 10
297.61977132161456
 20
333.88409423828125
 30
0.0
 10
299.13604736328125
 20
333.88409423828125
 30
0.0
 10
301.2750651041667
 20
333.88409423828125
 30
0.0
 10
303.16363016764325
 20
334.5373128255208
 30
0.0
 10
304.80174255371094
 20
335.84375
 30
0.0
 10
306.4398549397786
 20
337.1501871744792
 30
0.0
 10
307.2589111328125
 20
338.6563008626302
 30
0.0
 10
307.2589111328125
 20
340.3620910644531
 30
0.0
 10
307.2589111328125
 20
341.55345662434894
 30
0.0
 10
306.3247884114583
 20
343.12389119466144
 30
0.0
 10
304.45654296875
 20
345.0733947753906
 30
0.0
  0
POLYLINE
  5
8D
330
17
100
AcDbEntity
  8
CUT
100
AcDb2dPolyline
 66
1
 10
0.0
 20
0.0
 30
0.0
 70
0
  0
VERTEX
  5
8E
330
8D
100
AcDbEntity
  8
CUT
100
AcDbVertex
100
AcDb2dVertex
 10
304.45654296875
 20
345.0733947753906
 30
0.0
 70
0
  0
VERTEX
  5
8F
330
8D
100
AcDbEntity
  8
CUT
100
AcDbVertex
100
AcDb2dVertex
 10
303.1974792480469
 20
346.4136657714844
 30
0.0
 70
0
  0
SEQEND
  5
90
330
8D
100
AcDbEntity
  8
CUT
  0
SPLINE
  5
91
330
17
100
AcDbEntity
  8
CUT
100
AcDbSpline
 70
0
 71
3
 72
14
 73
10
 74
0
 40
0.0
 40
0.0
 40
0.0
 40
0.0
 40
1.0
 40
1.0
 40
1.0
 40
2.0
 40
2.0
 40
2.0
 40
3.0
 40
3.0
 40
3.0
 40
3.0
 10
303.1974792480469
 20
346.4136657714844
 30
0.0
 10
301.5593566894531
 20
348.1194763183594
 30
0.0
 10
300.74029541015625
 20
349.41236368815106
 30
0.0
 10
300.74029541015625
 20
350.2923278808594
 30
0.0
 10
300.74029541015625
 20
351.52430216471356
 30
0.0
 10
301.47812906901044
 20
352.1402893066406
 30
0.0
 10
302.95379638671875
 20
352.1402893066406
 30
0.0
 10
304.2128499348958
 20
352.1402893066406
 30
0.0
 10
305.35682169596356
 20
351.75445556640625
 30
0.0
 10
306.3857116699219
 20
350.9827880859375
 30
0.0
  0
POLYLINE
  5
92
330
17
100
AcDbEntity
  8
CUT
100
AcDb2dPolyline
 66
1
 10
0.0
 20
0.0
 30
0.0
 70
0
  0
VERTEX
  5
93
330
92
100
AcDbEntity
  8
CUT
100
AcDbVertex
100
AcDb2dVertex
 10
306.3857116699219
 20
350.9827880859375
 30
0.0
 70
0
  0
VERTEX
  5
94
330
92
100
AcDbEntity
  8
CUT
100
AcDbVertex
100
AcDb2dVertex
 10
308.82257080078125
 20
353.23687744140625
 30
0.0
 70
0
  0
SEQEND
  5
95
330
92
100
AcDbEntity
  8
CUT
  0
SPLINE
  5
96
330
17
100
AcDbEntity
  8
CUT
100
AcDbSpline
 70
0
 71
3
 72
17
 73
13
 74
0
 40
0.0
 40
0.0
 40
0.0
 40
0.0
 40
1.0
 40
1.0
 40
1.0
 40
2.0
 40
2.0
 40
2.0
 40
3.0
 40
3.0
 40
3.0
 40
4.0
 40
4.0
 40
4.0
 40
4.0
 10
308.82257080078125
 20
353.23687744140625
 30
0.0
 10
307.5364583333333
 20
353.6430257161458
 30
0.0
 10
306.3518778483073
 20
353.8460998535156
 30
0.0
 10
305.2688293457031
 20
353.8460998535156
 30
0.0
 10
303.2787170410156
 20
353.8460998535156
 30
0.0
 10
301.6033681233724
 20
353.31134541829425
 30
0.0
 10
300.24278259277344
 20
352.24183654785156
 30
0.0
 10
298.8821970621745
 20
351.1723276774089
 30
0.0
 10
298.201904296875
 20
349.85235595703125
 30
0.0
 10
298.201904296875
 20
348.28192138671875
 30
0.0
 10
298.201904296875
 20
347.18532307942706
 30
0.0
 10
299.04803466796875
 20
345.7502746582031
 30
0.0
 10
300.74029541015625
 20
343.9767761230469
 30
0.0
  0
POLYLINE
  5
97
330
17
100
AcDbEntity
  8
CUT
100
AcDb2dPolyline
 66
1
 10
0.0
 20
0.0
 30
0.0
 70
0
  0
VERTEX
  5
98
330
97
100
AcDbEntity
  8
CUT
100
AcDbVertex
100
AcDb2dVertex
 10
300.74029541015625
 20
343.9767761230469
 30
0.0
 70
0
  0
VERTEX
  5
99
330
97
100
AcDbEntity
  8
CUT
100
AcDbVertex
100
AcDb2dVertex
 10
301.8978271484375
 20
342.7786560058594
 30
0.0
 70
0
  0
SEQEND
  5
9A
330
97
100
AcDbEntity
  8
CUT
  0
SPLINE
  5
9B
330
17
100
AcDbEntity
  8
CUT
100
AcDbSpline
 70
0
 71
3
 72
14
 73
10
 74
0
 40
0.0
 40
0.0
 40
0.0
 40
0.0
 40
1.0
 40
1.0
 40
1.0
 40
2.0
 40
2.0
 40
2.0
 40
3.0
 40
3.0
 40
3.0
 40
3.0
 10
301.8978271484375
 20
342.7786560058594
 30
0.0
 10
303.6848551432292
 20
340.91039021809894
 30
0.0
 10
304.578369140625
 20
339.4550374348958
 30
0.0
 10
304.578369140625
 20
338.41259765625
 30
0.0
 10
304.578369140625
 20
336.5308024088542
 30
0.0
 10
303.60362752278644
 20
335.58990478515625
 30
0.0
 10
301.6541442871094
 20
335.58990478515625
 30
0.0
 10
300.05663045247394
 20
335.58990478515625
 30
0.0
 10
298.7298889160156
 20
336.15174357096356
 30
0.0
 10
297.6739196777344
 20
337.2754211425781
 30
0.0
  0
POLYLINE
  5
9C
330
17
100
AcDbEntity
  8
CUT
100
AcDb2dPolyline
 66
1
 10
0.0
 20
0.0
 30
0.0
 70
0
  0
VERTEX
  5
9D
330
9C
100
AcDbEntity
  8
CUT
100
AcDbVertex
100
AcDb2dVertex
 10
297.6739196777344
 20
337.2754211425781
 30
0.0
 70
0
  0
VERTEX
  5
9E
330
9C
100
AcDbEntity
  8
CUT
100
AcDbVertex
100
AcDb2dVertex
 10
294.87152099609375
 20
334.9806823730469
 30
0.0
 70
0
  0
SEQEND
  5
9F
330
9C
100
AcDbEntity
  8
CUT
  0
SPLINE
  5
A0
330
17
100
AcDbEntity
  8
CUT
100
AcDbSpline
 70
0
 71
3
 72
23
 73
19
 74
0
 40
0.0
 40
0.0
 40
0.0
 40
0.0
 40
1.0
 40
1.0
 40
1.0
 40
2.0
 40
2.0
 40
2.0
 40
3.0
 40
3.0
 40
3.0
 40
4.0
 40
4.0
 40
4.0
 40
5.0
 40
5.0
 40
5.0
 40
6.0
 40
6.0
 40
6.0
 40
6.0
 10
313.9146728515625
 20
343.8751525878906
 30
0.0
 10
314.1719156901042
 20
345.9871114095052
 30
0.0
 10
314.77098592122394
 20
347.73691813151044
 30
0.0
 10
315.7118835449219
 20
349.12457275390625
 30
0.0
 10
316.6527811686198
 20
350.51222737630206
 30
0.0
 10
317.7053731282552
 20
351.2060546875
 30
0.0
 10
318.8696594238281
 20
351.2060546875
 30
0.0
 10
320.4806823730469
 20
351.2060546875
 30
0.0
 10
321.28619384765625
 20
350.41407267252606
 30
0.0
 10
321.28619384765625
 20
348.8301086425781
 30
0.0
 10
321.28619384765625
 20
347.44922892252606
 30
0.0
 10
320.65667215983075
 20
346.2443389892578
 30
0.0
 10
319.3976287841797
 20
345.21543884277344
 30
0.0
 10
318.1385854085286
 20
344.18653869628906
 30
0.0
 10
316.66969807942706
 20
343.6720886230469
 30
0.0
 10
314.990966796875
 20
343.6720886230469
 30
0.0
 10
314.6660563151042
 20
343.6720886230469
 30
0.0
 10
314.3072916666667
 20
343.7397766113281
 30
0.0
 10
313.9146728515625
 20
343.8751525878906
 30
0.0
  0
SPLINE
  5
A1
330
17
100
AcDbEntity
  8
CUT
100
AcDbSpline
 70
0
 71
3
 72
17
 73
13
 74
0
 40
0.0
 40
0.0
 40
0.0
 40
0.0
 40
1.0
 40
1.0
 40
1.0
 40
2.0
 40
2.0
 40
2.0
 40
3.0
 40
3.0
 40
3.0
 40
4.0
 40
4.0
 40
4.0
 40
4.0
 10
275.8227844238281
 20
347.97296142578125
 30
0.0
 10
275.8227844238281
 20
346.6974792480469
 30
0.0
 10
276.8925476074219
 20
345.627685546875
 30
0.0
 10
278.1680603027344
 20
345.627685546875
 30
0.0
 10
279.4847106933594
 20
345.627685546875
 30
0.0
 10
280.5133361816406
 20
346.6974792480469
 30
0.0
 10
280.5133361816406
 20
347.97296142578125
 30
0.0
 10
280.5133361816406
 20
349.28961181640625
 30
0.0
 10
279.4847106933594
 20
350.3182373046875
 30
0.0
 10
278.1680603027344
 20
350.3182373046875
 30
0.0
 10
276.8925476074219
 20
350.3182373046875
 30
0.0
 10
275.8227844238281
 20
349.28961181640625
 30
0.0
 10
275.8227844238281
 20
347.97296142578125
 30
0.0
  0
SPLINE
  5
A2
330
17
100
AcDbEntity
  8
CUT
100
AcDbSpline
 70
0
 71
3
 72
17
 73
13
 74
0
 40
0.0
 40
0.0
 40
0.0
 40
0.0
 40
1.0
 40
1.0
 40
1.0
 40
2.0
 40
2.0
 40
2.0
 40
3.0
 40
3.0
 40
3.0
 40
4.0
 40
4.0
 40
4.0
 40
4.0
 10
264.50787353515625
 20
339.6616516113281
 30
0.0
 10
264.50787353515625
 20
340.9371337890625
 30
0.0
 10
263.4792175292969
 20
342.0069274902344
 30
0.0
 10
262.16259765625
 20
342.0069274902344
 30
0.0
 10
260.8870849609375
 20
342.0069274902344
 30
0.0
 10
259.81732177734375
 20
340.9371337890625
 30
0.0
 10
259.81732177734375
 20
339.6616516113281
 30
0.0
 10
259.81732177734375
 20
338.3450012207031
 30
0.0
 10
260.8870849609375
 20
337.3163757324219
 30
0.0
 10
262.16259765625
 20
337.3163757324219
 30
0.0
 10
263.4792175292969
 20
337.3163757324219
 30
0.0
 10
264.50787353515625
 20
338.3450012207031
 30
0.0
 10
264.50787353515625
 20
339.6616516113281
 30
0.0
  0
ENDSEC
  0
SECTION
  2
OBJECTS
  0
DICTIONARY
  5
A
330
0
100
AcDbDictionary
281
1
  3
ACAD_COLOR
350
B
  3
ACAD_GROUP
350
C
  3
ACAD_LAYOUT
350
D
  3
ACAD_MATERIAL
350
E
  3
ACAD_MLEADERSTYLE
350
F
  3
ACAD_MLINESTYLE
350
10
  3
ACAD_PLOTSETTINGS
350
11
  3
ACAD_PLOTSTYLENAME
350
12
  3
ACAD_SCALELIST
350
14
  3
ACAD_TABLESTYLE
350
15
  3
ACAD_VISUALSTYLE
350
16
  3
EZDXF_META
350
2D
  0
DICTIONARY
  5
B
330
A
100
AcDbDictionary
281
1
  0
DICTIONARY
  5
C
330
A
100
AcDbDictionary
281
1
  0
DICTIONARY
  5
D
330
A
100
AcDbDictionary
281
1
  3
Model
350
1A
  3
Layout1
350
1E
  0
DICTIONARY
  5
E
330
A
100
AcDbDictionary
281
1
  3
ByBlock
350
1F
  3
ByLayer
350
20
  3
Global
350
21
  0
DICTIONARY
  5
F
330
A
100
AcDbDictionary
281
1
  3
Standard
350
2C
  0
DICTIONARY
  5
10
330
A
100
AcDbDictionary
281
1
  3
Standard
350
22
  0
DICTIONARY
  5
11
330
A
100
AcDbDictionary
281
1
  0
ACDBDICTIONARYWDFLT
  5
12
330
A
100
AcDbDictionary
281
1
  3
Normal
350
13
100
AcDbDictionaryWithDefault
340
13
  0
ACDBPLACEHOLDER
  5
13
330
12
  0
DICTIONARY
  5
14
330
A
100
AcDbDictionary
281
1
  0
DICTIONARY
  5
15
330
A
100
AcDbDictionary
281
1
  0
DICTIONARY
  5
16
330
A
100
AcDbDictionary
281
1
  0
LAYOUT
  5
1A
330
D
100
AcDbPlotSettings
  1

  4
A3
  6

 40
7.5
 41
20.0
 42
7.5
 43
20.0
 44
420.0
 45
297.0
 46
0.0
 47
0.0
 48
0.0
 49
0.0
140
0.0
141
0.0
142
1.0
143
1.0
 70
1024
 72
1
 73
0
 74
5
  7

 75
16
 76
0
 77
2
 78
300
147
1.0
148
0.0
149
0.0
100
AcDbLayout
  1
Model
 70
1
 71
0
 10
0.0
 20
0.0
 11
420.0
 21
297.0
 12
0.0
 22
0.0
 32
0.0
 14
1e+20
 24
1e+20
 34
1e+20
 15
-1e+20
 25
-1e+20
 35
-1e+20
146
0.0
 13
0.0
 23
0.0
 33
0.0
 16
1.0
 26
0.0
 36
0.0
 17
0.0
 27
1.0
 37
0.0
 76
1
330
17
  0
LAYOUT
  5
1E
330
D
100
AcDbPlotSettings
  1

  4
A3
  6

 40
7.5
 41
20.0
 42
7.5
 43
20.0
 44
420.0
 45
297.0
 46
0.0
 47
0.0
 48
0.0
 49
0.0
140
0.0
141
0.0
142
1.0
143
1.0
 70
0
 72
1
 73
0
 74
5
  7

 75
16
 76
0
 77
2
 78
300
147
1.0
148
0.0
149
0.0
100
AcDbLayout
  1
Layout1
 70
1
 71
1
 10
0.0
 20
0.0
 11
420.0
 21
297.0
 12
0.0
 22
0.0
 32
0.0
 14
1e+20
 24
1e+20
 34
1e+20
 15
-1e+20
 25
-1e+20
 35
-1e+20
146
0.0
 13
0.0
 23
0.0
 33
0.0
 16
1.0
 26
0.0
 36
0.0
 17
0.0
 27
1.0
 37
0.0
 76
1
330
1B
  0
MATERIAL
  5
1F
102
{ACAD_REACTORS
330
E
102
}
330
E
100
AcDbMaterial
  1
ByBlock
  2

 70
0
 40
1.0
 71
1
 41
1.0
 91
-1023410177
 42
1.0
 72
1
  3

 73
1
 74
1
 75
1
 44
0.5
 73
0
 45
1.0
 46
1.0
 77
1
  4

 78
1
 79
1
170
1
 48
1.0
171
1
  6

172
1
173
1
174
1
140
1.0
141
1.0
175
1
  7

176
1
177
1
178
1
143
1.0
179
1
  8

270
1
271
1
272
1
145
1.0
146
1.0
273
1
  9

274
1
275
1
276
1
 42
1.0
 72
1
  3

 73
1
 74
1
 75
1
 94
63
  0
MATERIAL
  5
20
102
{ACAD_REACTORS
330
E
102
}
330
E
100
AcDbMaterial
  1
ByLayer
  2

 70
0
 40
1.0
 71
1
 41
1.0
 91
-1023410177
 42
1.0
 72
1
  3

 73
1
 74
1
 75
1
 44
0.5
 73
0
 45
1.0
 46
1.0
 77
1
  4

 78
1
 79
1
170
1
 48
1.0
171
1
  6

172
1
173
1
174
1
140
1.0
141
1.0
175
1
  7

176
1
177
1
178
1
143
1.0
179
1
  8

270
1
271
1
272
1
145
1.0
146
1.0
273
1
  9

274
1
275
1
276
1
 42
1.0
 72
1
  3

 73
1
 74
1
 75
1
 94
63
  0
MATERIAL
  5
21
102
{ACAD_REACTORS
330
E
102
}
330
E
100
AcDbMaterial
  1
Global
  2

 70
0
 40
1.0
 71
1
 41
1.0
 91
-1023410177
 42
1.0
 72
1
  3

 73
1
 74
1
 75
1
 44
0.5
 73
0
 45
1.0
 46
1.0
 77
1
  4

 78
1
 79
1
170
1
 48
1.0
171
1
  6

172
1
173
1
174
1
140
1.0
141
1.0
175
1
  7

176
1
177
1
178
1
143
1.0
179
1
  8

270
1
271
1
272
1
145
1.0
146
1.0
273
1
  9

274
1
275
1
276
1
 42
1.0
 72
1
  3

 73
1
 74
1
 75
1
 94
63
  0
MLINESTYLE
  5
22
102
{ACAD_REACTORS
330
10
102
}
330
10
100
AcDbMlineStyle
  2
Standard
 70
0
  3

 62
256
 51
90.0
 52
90.0
 71
2
 49
0.5
 62
256
  6
BYLAYER
 49
-0.5
 62
256
  6
BYLAYER
  0
MLEADERSTYLE
  5
2C
102
{ACAD_REACTORS
330
F
102
}
330
F
100
AcDbMLeaderStyle
179
2
170
2
171
1
172
0
 90
2
 40
0.0
 41
0.0
173
1
 91
-1056964608
 92
-2
290
1
 42
2.0
291
1
 43
8.0
  3
Standard
 44
4.0
300

342
29
174
1
175
1
176
0
178
1
 93
-1056964608
 45
4.0
292
0
297
0
 46
4.0
 94
-1056964608
 47
1.0
 49
1.0
140
1.0
294
1
141
0.0
177
0
142
1.0
295
0
296
0
143
3.75
271
0
272
9
273
9
  0
DICTIONARY
  5
2D
330
A
100
AcDbDictionary
280
1
281
1
  3
CREATED_BY_EZDXF
350
2E
  3
WRITTEN_BY_EZDXF
350
A5
  0
DICTIONARYVAR
  5
2E
330
2D
100
DictionaryVariables
280
0
  1
1.4.4 @ 2026-10-02T04:21:12.802009+00:00
  0
DICTIONARYVAR
  5
A5
330
2D
100
DictionaryVariables
280
0
  1
1.4.4 @ 2026-10-02T04:21:12.806384+00:00
  0
ENDSEC
  0
EOF
