ISO-10303-21;
HEADER;
/* Generated by software containing ST-Developer
 * from STEP Tools, Inc. (www.steptools.com) 
 */

FILE_DESCRIPTION(
/* description */ (''),
/* implementation_level */ '2;1');

FILE_NAME(
/* name */ 'segno_corner_bracket_rear.step',
/* time_stamp */ '2026-09-10T00:37:35-03:00',
/* author */ (''),
/* organization */ (''),
/* preprocessor_version */ 'ST-DEVELOPER v20.1',
/* originating_system */ 'Autodesk Translation Framework v15.8.0.0',
/* authorisation */ '');

FILE_SCHEMA (('AUTOMOTIVE_DESIGN { 1 0 10303 214 3 1 1 }'));
ENDSEC;

DATA;
#10=MECHANICAL_DESIGN_GEOMETRIC_PRESENTATION_REPRESENTATION('',(#13),#621);
#11=SHAPE_REPRESENTATION_RELATIONSHIP('SRR','None',#628,#12);
#12=ADVANCED_BREP_SHAPE_REPRESENTATION('',(#14),#620);
#13=STYLED_ITEM('',(#638),#14);
#14=MANIFOLD_SOLID_BREP('Body1',#357);
#15=B_SPLINE_SURFACE_WITH_KNOTS('',3,3,((#589,#590,#591,#592),(#593,#594,
#595,#596),(#597,#598,#599,#600),(#601,#602,#603,#604)),.UNSPECIFIED.,.F.,
 .F.,.F.,(4,4),(4,4),(0.,0.258087752483258),(0.,0.2),.UNSPECIFIED.);
#16=FACE_BOUND('',#73,.T.);
#17=FACE_BOUND('',#74,.T.);
#18=FACE_BOUND('',#76,.T.);
#19=FACE_BOUND('',#77,.T.);
#20=FACE_BOUND('',#79,.T.);
#21=FACE_BOUND('',#80,.T.);
#22=FACE_BOUND('',#81,.T.);
#23=FACE_BOUND('',#95,.T.);
#24=FACE_BOUND('',#96,.T.);
#25=FACE_BOUND('',#97,.T.);
#26=B_SPLINE_CURVE_WITH_KNOTS('',3,(#518,#519,#520,#521),.UNSPECIFIED.,
 .F.,.F.,(4,4),(0.,0.742928750447546),.UNSPECIFIED.);
#27=B_SPLINE_CURVE_WITH_KNOTS('',3,(#605,#606,#607,#608),.UNSPECIFIED.,
 .F.,.F.,(4,4),(0.,0.742928750447546),.UNSPECIFIED.);
#28=CIRCLE('',#373,2.);
#29=CIRCLE('',#374,2.);
#30=CIRCLE('',#376,4.);
#31=CIRCLE('',#378,1.65);
#32=CIRCLE('',#379,1.65);
#33=CIRCLE('',#381,1.65);
#34=CIRCLE('',#382,1.65);
#35=CIRCLE('',#384,1.65);
#36=CIRCLE('',#385,1.65);
#37=CIRCLE('',#386,1.65);
#38=CIRCLE('',#388,4.);
#39=CIRCLE('',#390,1.65);
#40=CIRCLE('',#394,1.65);
#41=CIRCLE('',#396,1.65);
#42=CYLINDRICAL_SURFACE('',#372,2.);
#43=CYLINDRICAL_SURFACE('',#389,1.65);
#44=CYLINDRICAL_SURFACE('',#391,1.65);
#45=CYLINDRICAL_SURFACE('',#392,1.65);
#46=CYLINDRICAL_SURFACE('',#393,1.65);
#47=CYLINDRICAL_SURFACE('',#395,1.65);
#48=CYLINDRICAL_SURFACE('',#403,4.);
#49=FACE_OUTER_BOUND('',#69,.T.);
#50=FACE_OUTER_BOUND('',#70,.T.);
#51=FACE_OUTER_BOUND('',#71,.T.);
#52=FACE_OUTER_BOUND('',#72,.T.);
#53=FACE_OUTER_BOUND('',#75,.T.);
#54=FACE_OUTER_BOUND('',#78,.T.);
#55=FACE_OUTER_BOUND('',#82,.T.);
#56=FACE_OUTER_BOUND('',#83,.T.);
#57=FACE_OUTER_BOUND('',#84,.T.);
#58=FACE_OUTER_BOUND('',#85,.T.);
#59=FACE_OUTER_BOUND('',#86,.T.);
#60=FACE_OUTER_BOUND('',#87,.T.);
#61=FACE_OUTER_BOUND('',#88,.T.);
#62=FACE_OUTER_BOUND('',#89,.T.);
#63=FACE_OUTER_BOUND('',#90,.T.);
#64=FACE_OUTER_BOUND('',#91,.T.);
#65=FACE_OUTER_BOUND('',#92,.T.);
#66=FACE_OUTER_BOUND('',#93,.T.);
#67=FACE_OUTER_BOUND('',#94,.T.);
#68=FACE_OUTER_BOUND('',#98,.T.);
#69=EDGE_LOOP('',(#233,#234,#235,#236));
#70=EDGE_LOOP('',(#237,#238,#239,#240,#241));
#71=EDGE_LOOP('',(#242,#243,#244,#245));
#72=EDGE_LOOP('',(#246,#247,#248,#249));
#73=EDGE_LOOP('',(#250));
#74=EDGE_LOOP('',(#251));
#75=EDGE_LOOP('',(#252,#253,#254,#255));
#76=EDGE_LOOP('',(#256));
#77=EDGE_LOOP('',(#257));
#78=EDGE_LOOP('',(#258,#259,#260,#261));
#79=EDGE_LOOP('',(#262));
#80=EDGE_LOOP('',(#263));
#81=EDGE_LOOP('',(#264));
#82=EDGE_LOOP('',(#265,#266,#267,#268));
#83=EDGE_LOOP('',(#269,#270,#271,#272));
#84=EDGE_LOOP('',(#273,#274,#275,#276));
#85=EDGE_LOOP('',(#277,#278,#279,#280));
#86=EDGE_LOOP('',(#281,#282,#283,#284));
#87=EDGE_LOOP('',(#285,#286,#287,#288));
#88=EDGE_LOOP('',(#289,#290,#291,#292));
#89=EDGE_LOOP('',(#293,#294,#295,#296));
#90=EDGE_LOOP('',(#297,#298,#299,#300));
#91=EDGE_LOOP('',(#301,#302,#303,#304));
#92=EDGE_LOOP('',(#305,#306,#307,#308));
#93=EDGE_LOOP('',(#309,#310,#311,#312));
#94=EDGE_LOOP('',(#313,#314,#315,#316));
#95=EDGE_LOOP('',(#317));
#96=EDGE_LOOP('',(#318));
#97=EDGE_LOOP('',(#319));
#98=EDGE_LOOP('',(#320,#321,#322,#323,#324));
#99=LINE('',#506,#129);
#100=LINE('',#508,#130);
#101=LINE('',#510,#131);
#102=LINE('',#511,#132);
#103=LINE('',#514,#133);
#104=LINE('',#523,#134);
#105=LINE('',#527,#135);
#106=LINE('',#530,#136);
#107=LINE('',#532,#137);
#108=LINE('',#534,#138);
#109=LINE('',#535,#139);
#110=LINE('',#542,#140);
#111=LINE('',#543,#141);
#112=LINE('',#551,#142);
#113=LINE('',#553,#143);
#114=LINE('',#555,#144);
#115=LINE('',#556,#145);
#116=LINE('',#564,#146);
#117=LINE('',#568,#147);
#118=LINE('',#571,#148);
#119=LINE('',#573,#149);
#120=LINE('',#576,#150);
#121=LINE('',#580,#151);
#122=LINE('',#584,#152);
#123=LINE('',#585,#153);
#124=LINE('',#587,#154);
#125=LINE('',#609,#155);
#126=LINE('',#612,#156);
#127=LINE('',#613,#157);
#128=LINE('',#615,#158);
#129=VECTOR('',#408,10.);
#130=VECTOR('',#409,10.);
#131=VECTOR('',#410,10.);
#132=VECTOR('',#411,10.);
#133=VECTOR('',#414,10.);
#134=VECTOR('',#417,10.);
#135=VECTOR('',#422,10.);
#136=VECTOR('',#425,10.);
#137=VECTOR('',#428,10.);
#138=VECTOR('',#429,10.);
#139=VECTOR('',#430,10.);
#140=VECTOR('',#437,10.);
#141=VECTOR('',#438,10.);
#142=VECTOR('',#445,10.);
#143=VECTOR('',#446,10.);
#144=VECTOR('',#447,10.);
#145=VECTOR('',#448,10.);
#146=VECTOR('',#457,10.);
#147=VECTOR('',#462,1.65);
#148=VECTOR('',#467,1.65);
#149=VECTOR('',#470,1.65);
#150=VECTOR('',#473,1.65);
#151=VECTOR('',#478,1.65);
#152=VECTOR('',#483,10.);
#153=VECTOR('',#484,10.);
#154=VECTOR('',#487,10.);
#155=VECTOR('',#490,10.);
#156=VECTOR('',#493,10.);
#157=VECTOR('',#494,10.);
#158=VECTOR('',#497,10.);
#159=VERTEX_POINT('',#504);
#160=VERTEX_POINT('',#505);
#161=VERTEX_POINT('',#507);
#162=VERTEX_POINT('',#509);
#163=VERTEX_POINT('',#513);
#164=VERTEX_POINT('',#515);
#165=VERTEX_POINT('',#517);
#166=VERTEX_POINT('',#522);
#167=VERTEX_POINT('',#526);
#168=VERTEX_POINT('',#528);
#169=VERTEX_POINT('',#533);
#170=VERTEX_POINT('',#536);
#171=VERTEX_POINT('',#538);
#172=VERTEX_POINT('',#541);
#173=VERTEX_POINT('',#544);
#174=VERTEX_POINT('',#546);
#175=VERTEX_POINT('',#549);
#176=VERTEX_POINT('',#550);
#177=VERTEX_POINT('',#552);
#178=VERTEX_POINT('',#554);
#179=VERTEX_POINT('',#557);
#180=VERTEX_POINT('',#559);
#181=VERTEX_POINT('',#561);
#182=VERTEX_POINT('',#567);
#183=VERTEX_POINT('',#575);
#184=VERTEX_POINT('',#579);
#185=VERTEX_POINT('',#583);
#186=VERTEX_POINT('',#611);
#187=EDGE_CURVE('',#159,#160,#99,.T.);
#188=EDGE_CURVE('',#161,#160,#100,.T.);
#189=EDGE_CURVE('',#162,#161,#101,.T.);
#190=EDGE_CURVE('',#159,#162,#102,.T.);
#191=EDGE_CURVE('',#163,#159,#103,.T.);
#192=EDGE_CURVE('',#163,#164,#28,.T.);
#193=EDGE_CURVE('',#164,#165,#26,.T.);
#194=EDGE_CURVE('',#165,#166,#104,.T.);
#195=EDGE_CURVE('',#166,#159,#29,.T.);
#196=EDGE_CURVE('',#167,#163,#105,.T.);
#197=EDGE_CURVE('',#168,#167,#30,.T.);
#198=EDGE_CURVE('',#164,#168,#106,.T.);
#199=EDGE_CURVE('',#160,#167,#107,.T.);
#200=EDGE_CURVE('',#167,#169,#108,.T.);
#201=EDGE_CURVE('',#169,#161,#109,.T.);
#202=EDGE_CURVE('',#170,#170,#31,.T.);
#203=EDGE_CURVE('',#171,#171,#32,.T.);
#204=EDGE_CURVE('',#162,#172,#110,.T.);
#205=EDGE_CURVE('',#172,#163,#111,.T.);
#206=EDGE_CURVE('',#173,#173,#33,.T.);
#207=EDGE_CURVE('',#174,#174,#34,.T.);
#208=EDGE_CURVE('',#175,#176,#112,.T.);
#209=EDGE_CURVE('',#175,#177,#113,.T.);
#210=EDGE_CURVE('',#177,#178,#114,.T.);
#211=EDGE_CURVE('',#178,#176,#115,.T.);
#212=EDGE_CURVE('',#179,#179,#35,.T.);
#213=EDGE_CURVE('',#180,#180,#36,.T.);
#214=EDGE_CURVE('',#181,#181,#37,.T.);
#215=EDGE_CURVE('',#166,#175,#116,.T.);
#216=EDGE_CURVE('',#160,#175,#38,.T.);
#217=EDGE_CURVE('',#179,#182,#117,.T.);
#218=EDGE_CURVE('',#182,#182,#39,.T.);
#219=EDGE_CURVE('',#170,#173,#118,.T.);
#220=EDGE_CURVE('',#171,#174,#119,.T.);
#221=EDGE_CURVE('',#180,#183,#120,.T.);
#222=EDGE_CURVE('',#183,#183,#40,.T.);
#223=EDGE_CURVE('',#181,#184,#121,.T.);
#224=EDGE_CURVE('',#184,#184,#41,.T.);
#225=EDGE_CURVE('',#185,#166,#122,.T.);
#226=EDGE_CURVE('',#185,#177,#123,.T.);
#227=EDGE_CURVE('',#172,#169,#124,.T.);
#228=EDGE_CURVE('',#176,#168,#27,.T.);
#229=EDGE_CURVE('',#165,#176,#125,.T.);
#230=EDGE_CURVE('',#165,#186,#126,.T.);
#231=EDGE_CURVE('',#186,#178,#127,.T.);
#232=EDGE_CURVE('',#186,#185,#128,.T.);
#233=ORIENTED_EDGE('',*,*,#187,.T.);
#234=ORIENTED_EDGE('',*,*,#188,.F.);
#235=ORIENTED_EDGE('',*,*,#189,.F.);
#236=ORIENTED_EDGE('',*,*,#190,.F.);
#237=ORIENTED_EDGE('',*,*,#191,.F.);
#238=ORIENTED_EDGE('',*,*,#192,.T.);
#239=ORIENTED_EDGE('',*,*,#193,.T.);
#240=ORIENTED_EDGE('',*,*,#194,.T.);
#241=ORIENTED_EDGE('',*,*,#195,.T.);
#242=ORIENTED_EDGE('',*,*,#196,.F.);
#243=ORIENTED_EDGE('',*,*,#197,.F.);
#244=ORIENTED_EDGE('',*,*,#198,.F.);
#245=ORIENTED_EDGE('',*,*,#192,.F.);
#246=ORIENTED_EDGE('',*,*,#199,.T.);
#247=ORIENTED_EDGE('',*,*,#200,.T.);
#248=ORIENTED_EDGE('',*,*,#201,.T.);
#249=ORIENTED_EDGE('',*,*,#188,.T.);
#250=ORIENTED_EDGE('',*,*,#202,.T.);
#251=ORIENTED_EDGE('',*,*,#203,.T.);
#252=ORIENTED_EDGE('',*,*,#191,.T.);
#253=ORIENTED_EDGE('',*,*,#190,.T.);
#254=ORIENTED_EDGE('',*,*,#204,.T.);
#255=ORIENTED_EDGE('',*,*,#205,.T.);
#256=ORIENTED_EDGE('',*,*,#206,.T.);
#257=ORIENTED_EDGE('',*,*,#207,.T.);
#258=ORIENTED_EDGE('',*,*,#208,.F.);
#259=ORIENTED_EDGE('',*,*,#209,.T.);
#260=ORIENTED_EDGE('',*,*,#210,.T.);
#261=ORIENTED_EDGE('',*,*,#211,.T.);
#262=ORIENTED_EDGE('',*,*,#212,.T.);
#263=ORIENTED_EDGE('',*,*,#213,.T.);
#264=ORIENTED_EDGE('',*,*,#214,.T.);
#265=ORIENTED_EDGE('',*,*,#187,.F.);
#266=ORIENTED_EDGE('',*,*,#195,.F.);
#267=ORIENTED_EDGE('',*,*,#215,.T.);
#268=ORIENTED_EDGE('',*,*,#216,.F.);
#269=ORIENTED_EDGE('',*,*,#212,.F.);
#270=ORIENTED_EDGE('',*,*,#217,.T.);
#271=ORIENTED_EDGE('',*,*,#218,.F.);
#272=ORIENTED_EDGE('',*,*,#217,.F.);
#273=ORIENTED_EDGE('',*,*,#202,.F.);
#274=ORIENTED_EDGE('',*,*,#219,.T.);
#275=ORIENTED_EDGE('',*,*,#206,.F.);
#276=ORIENTED_EDGE('',*,*,#219,.F.);
#277=ORIENTED_EDGE('',*,*,#203,.F.);
#278=ORIENTED_EDGE('',*,*,#220,.T.);
#279=ORIENTED_EDGE('',*,*,#207,.F.);
#280=ORIENTED_EDGE('',*,*,#220,.F.);
#281=ORIENTED_EDGE('',*,*,#213,.F.);
#282=ORIENTED_EDGE('',*,*,#221,.T.);
#283=ORIENTED_EDGE('',*,*,#222,.F.);
#284=ORIENTED_EDGE('',*,*,#221,.F.);
#285=ORIENTED_EDGE('',*,*,#214,.F.);
#286=ORIENTED_EDGE('',*,*,#223,.T.);
#287=ORIENTED_EDGE('',*,*,#224,.F.);
#288=ORIENTED_EDGE('',*,*,#223,.F.);
#289=ORIENTED_EDGE('',*,*,#215,.F.);
#290=ORIENTED_EDGE('',*,*,#225,.F.);
#291=ORIENTED_EDGE('',*,*,#226,.T.);
#292=ORIENTED_EDGE('',*,*,#209,.F.);
#293=ORIENTED_EDGE('',*,*,#204,.F.);
#294=ORIENTED_EDGE('',*,*,#189,.T.);
#295=ORIENTED_EDGE('',*,*,#201,.F.);
#296=ORIENTED_EDGE('',*,*,#227,.F.);
#297=ORIENTED_EDGE('',*,*,#196,.T.);
#298=ORIENTED_EDGE('',*,*,#205,.F.);
#299=ORIENTED_EDGE('',*,*,#227,.T.);
#300=ORIENTED_EDGE('',*,*,#200,.F.);
#301=ORIENTED_EDGE('',*,*,#193,.F.);
#302=ORIENTED_EDGE('',*,*,#198,.T.);
#303=ORIENTED_EDGE('',*,*,#228,.F.);
#304=ORIENTED_EDGE('',*,*,#229,.F.);
#305=ORIENTED_EDGE('',*,*,#230,.F.);
#306=ORIENTED_EDGE('',*,*,#229,.T.);
#307=ORIENTED_EDGE('',*,*,#211,.F.);
#308=ORIENTED_EDGE('',*,*,#231,.F.);
#309=ORIENTED_EDGE('',*,*,#232,.F.);
#310=ORIENTED_EDGE('',*,*,#231,.T.);
#311=ORIENTED_EDGE('',*,*,#210,.F.);
#312=ORIENTED_EDGE('',*,*,#226,.F.);
#313=ORIENTED_EDGE('',*,*,#194,.F.);
#314=ORIENTED_EDGE('',*,*,#230,.T.);
#315=ORIENTED_EDGE('',*,*,#232,.T.);
#316=ORIENTED_EDGE('',*,*,#225,.T.);
#317=ORIENTED_EDGE('',*,*,#224,.T.);
#318=ORIENTED_EDGE('',*,*,#222,.T.);
#319=ORIENTED_EDGE('',*,*,#218,.T.);
#320=ORIENTED_EDGE('',*,*,#199,.F.);
#321=ORIENTED_EDGE('',*,*,#216,.T.);
#322=ORIENTED_EDGE('',*,*,#208,.T.);
#323=ORIENTED_EDGE('',*,*,#228,.T.);
#324=ORIENTED_EDGE('',*,*,#197,.T.);
#325=PLANE('',#371);
#326=PLANE('',#375);
#327=PLANE('',#377);
#328=PLANE('',#380);
#329=PLANE('',#383);
#330=PLANE('',#387);
#331=PLANE('',#397);
#332=PLANE('',#398);
#333=PLANE('',#399);
#334=PLANE('',#400);
#335=PLANE('',#401);
#336=PLANE('',#402);
#337=ADVANCED_FACE('',(#49),#325,.T.);
#338=ADVANCED_FACE('',(#50),#42,.F.);
#339=ADVANCED_FACE('',(#51),#326,.T.);
#340=ADVANCED_FACE('',(#52,#16,#17),#327,.F.);
#341=ADVANCED_FACE('',(#53,#18,#19),#328,.T.);
#342=ADVANCED_FACE('',(#54,#20,#21,#22),#329,.F.);
#343=ADVANCED_FACE('',(#55),#330,.T.);
#344=ADVANCED_FACE('',(#56),#43,.F.);
#345=ADVANCED_FACE('',(#57),#44,.F.);
#346=ADVANCED_FACE('',(#58),#45,.F.);
#347=ADVANCED_FACE('',(#59),#46,.F.);
#348=ADVANCED_FACE('',(#60),#47,.F.);
#349=ADVANCED_FACE('',(#61),#331,.T.);
#350=ADVANCED_FACE('',(#62),#332,.T.);
#351=ADVANCED_FACE('',(#63),#333,.T.);
#352=ADVANCED_FACE('',(#64),#15,.T.);
#353=ADVANCED_FACE('',(#65),#334,.T.);
#354=ADVANCED_FACE('',(#66),#335,.T.);
#355=ADVANCED_FACE('',(#67,#23,#24,#25),#336,.T.);
#356=ADVANCED_FACE('',(#68),#48,.T.);
#357=CLOSED_SHELL('',(#337,#338,#339,#340,#341,#342,#343,#344,#345,#346,
#347,#348,#349,#350,#351,#352,#353,#354,#355,#356));
#358=DERIVED_UNIT_ELEMENT(#360,1.);
#359=DERIVED_UNIT_ELEMENT(#623,-3.);
#360=(
MASS_UNIT()
NAMED_UNIT(*)
SI_UNIT(.KILO.,.GRAM.)
);
#361=DERIVED_UNIT((#358,#359));
#362=MEASURE_REPRESENTATION_ITEM('density measure',
POSITIVE_RATIO_MEASURE(7850.),#361);
#363=PROPERTY_DEFINITION_REPRESENTATION(#368,#365);
#364=PROPERTY_DEFINITION_REPRESENTATION(#369,#366);
#365=REPRESENTATION('material name',(#367),#620);
#366=REPRESENTATION('density',(#362),#620);
#367=DESCRIPTIVE_REPRESENTATION_ITEM('Steel','Steel');
#368=PROPERTY_DEFINITION('material property','material name',#630);
#369=PROPERTY_DEFINITION('material property','density of part',#630);
#370=AXIS2_PLACEMENT_3D('',#502,#404,#405);
#371=AXIS2_PLACEMENT_3D('',#503,#406,#407);
#372=AXIS2_PLACEMENT_3D('',#512,#412,#413);
#373=AXIS2_PLACEMENT_3D('',#516,#415,#416);
#374=AXIS2_PLACEMENT_3D('',#524,#418,#419);
#375=AXIS2_PLACEMENT_3D('',#525,#420,#421);
#376=AXIS2_PLACEMENT_3D('',#529,#423,#424);
#377=AXIS2_PLACEMENT_3D('',#531,#426,#427);
#378=AXIS2_PLACEMENT_3D('',#537,#431,#432);
#379=AXIS2_PLACEMENT_3D('',#539,#433,#434);
#380=AXIS2_PLACEMENT_3D('',#540,#435,#436);
#381=AXIS2_PLACEMENT_3D('',#545,#439,#440);
#382=AXIS2_PLACEMENT_3D('',#547,#441,#442);
#383=AXIS2_PLACEMENT_3D('',#548,#443,#444);
#384=AXIS2_PLACEMENT_3D('',#558,#449,#450);
#385=AXIS2_PLACEMENT_3D('',#560,#451,#452);
#386=AXIS2_PLACEMENT_3D('',#562,#453,#454);
#387=AXIS2_PLACEMENT_3D('',#563,#455,#456);
#388=AXIS2_PLACEMENT_3D('',#565,#458,#459);
#389=AXIS2_PLACEMENT_3D('',#566,#460,#461);
#390=AXIS2_PLACEMENT_3D('',#569,#463,#464);
#391=AXIS2_PLACEMENT_3D('',#570,#465,#466);
#392=AXIS2_PLACEMENT_3D('',#572,#468,#469);
#393=AXIS2_PLACEMENT_3D('',#574,#471,#472);
#394=AXIS2_PLACEMENT_3D('',#577,#474,#475);
#395=AXIS2_PLACEMENT_3D('',#578,#476,#477);
#396=AXIS2_PLACEMENT_3D('',#581,#479,#480);
#397=AXIS2_PLACEMENT_3D('',#582,#481,#482);
#398=AXIS2_PLACEMENT_3D('',#586,#485,#486);
#399=AXIS2_PLACEMENT_3D('',#588,#488,#489);
#400=AXIS2_PLACEMENT_3D('',#610,#491,#492);
#401=AXIS2_PLACEMENT_3D('',#614,#495,#496);
#402=AXIS2_PLACEMENT_3D('',#616,#498,#499);
#403=AXIS2_PLACEMENT_3D('',#617,#500,#501);
#404=DIRECTION('axis',(0.,0.,1.));
#405=DIRECTION('refdir',(1.,0.,0.));
#406=DIRECTION('center_axis',(0.,-1.,0.));
#407=DIRECTION('ref_axis',(3.82856869892695E-16,0.,-1.));
#408=DIRECTION('',(1.,0.,3.82856869892695E-16));
#409=DIRECTION('',(3.82856869892695E-16,0.,-1.));
#410=DIRECTION('',(1.,0.,3.82856869892695E-16));
#411=DIRECTION('',(-3.82856869892695E-16,0.,1.));
#412=DIRECTION('center_axis',(0.,-1.,0.));
#413=DIRECTION('ref_axis',(0.,0.,-1.));
#414=DIRECTION('',(0.,-1.,0.));
#415=DIRECTION('center_axis',(0.,1.,0.));
#416=DIRECTION('ref_axis',(1.,0.,4.16333634234434E-16));
#417=DIRECTION('',(0.,-1.,0.));
#418=DIRECTION('center_axis',(0.,-1.,0.));
#419=DIRECTION('ref_axis',(0.,0.,-1.));
#420=DIRECTION('center_axis',(0.,1.,0.));
#421=DIRECTION('ref_axis',(0.,0.,1.));
#422=DIRECTION('',(-1.,0.,-3.82856869892695E-16));
#423=DIRECTION('center_axis',(0.,-1.,0.));
#424=DIRECTION('ref_axis',(0.676447806781197,0.,-0.736490573395824));
#425=DIRECTION('',(0.676447806781196,0.,-0.736490573395824));
#426=DIRECTION('center_axis',(-1.,0.,-3.82856869892695E-16));
#427=DIRECTION('ref_axis',(-3.82856869892695E-16,0.,1.));
#428=DIRECTION('',(0.,1.,0.));
#429=DIRECTION('',(-3.82856869892695E-16,0.,1.));
#430=DIRECTION('',(0.,-1.,0.));
#431=DIRECTION('center_axis',(-1.,0.,-3.82856869892695E-16));
#432=DIRECTION('ref_axis',(-3.82856869892695E-16,0.,1.));
#433=DIRECTION('center_axis',(-1.,0.,-3.82856869892695E-16));
#434=DIRECTION('ref_axis',(-3.82856869892695E-16,0.,1.));
#435=DIRECTION('center_axis',(-1.,0.,-3.82856869892695E-16));
#436=DIRECTION('ref_axis',(-3.82856869892695E-16,0.,1.));
#437=DIRECTION('',(0.,1.,0.));
#438=DIRECTION('',(3.82856869892695E-16,0.,-1.));
#439=DIRECTION('center_axis',(1.,0.,3.82856869892695E-16));
#440=DIRECTION('ref_axis',(-3.82856869892695E-16,0.,1.));
#441=DIRECTION('center_axis',(1.,0.,3.82856869892695E-16));
#442=DIRECTION('ref_axis',(-3.82856869892695E-16,0.,1.));
#443=DIRECTION('center_axis',(0.,0.,1.));
#444=DIRECTION('ref_axis',(1.,0.,0.));
#445=DIRECTION('',(0.,1.,0.));
#446=DIRECTION('',(-1.,0.,0.));
#447=DIRECTION('',(0.,1.,0.));
#448=DIRECTION('',(1.,0.,0.));
#449=DIRECTION('center_axis',(0.,0.,1.));
#450=DIRECTION('ref_axis',(1.,0.,0.));
#451=DIRECTION('center_axis',(0.,0.,1.));
#452=DIRECTION('ref_axis',(1.,0.,0.));
#453=DIRECTION('center_axis',(0.,0.,1.));
#454=DIRECTION('ref_axis',(1.,0.,0.));
#455=DIRECTION('center_axis',(0.,-1.,0.));
#456=DIRECTION('ref_axis',(0.,0.,-1.));
#457=DIRECTION('',(0.,0.,-1.));
#458=DIRECTION('center_axis',(0.,1.,0.));
#459=DIRECTION('ref_axis',(1.,0.,4.16333634234434E-16));
#460=DIRECTION('center_axis',(0.,0.,-1.));
#461=DIRECTION('ref_axis',(1.,0.,0.));
#462=DIRECTION('',(0.,0.,1.));
#463=DIRECTION('center_axis',(0.,0.,-1.));
#464=DIRECTION('ref_axis',(1.,0.,0.));
#465=DIRECTION('center_axis',(1.,0.,3.82856869892695E-16));
#466=DIRECTION('ref_axis',(-3.82856869892695E-16,0.,1.));
#467=DIRECTION('',(-1.,0.,-3.82856869892695E-16));
#468=DIRECTION('center_axis',(1.,0.,3.82856869892695E-16));
#469=DIRECTION('ref_axis',(-3.82856869892695E-16,0.,1.));
#470=DIRECTION('',(-1.,0.,-3.82856869892695E-16));
#471=DIRECTION('center_axis',(0.,0.,-1.));
#472=DIRECTION('ref_axis',(1.,0.,0.));
#473=DIRECTION('',(0.,0.,1.));
#474=DIRECTION('center_axis',(0.,0.,-1.));
#475=DIRECTION('ref_axis',(1.,0.,0.));
#476=DIRECTION('center_axis',(0.,0.,-1.));
#477=DIRECTION('ref_axis',(1.,0.,0.));
#478=DIRECTION('',(0.,0.,1.));
#479=DIRECTION('center_axis',(0.,0.,-1.));
#480=DIRECTION('ref_axis',(1.,0.,0.));
#481=DIRECTION('center_axis',(0.,-1.,0.));
#482=DIRECTION('ref_axis',(-1.,0.,0.));
#483=DIRECTION('',(1.,0.,0.));
#484=DIRECTION('',(0.,0.,-1.));
#485=DIRECTION('center_axis',(-3.82856869892695E-16,0.,1.));
#486=DIRECTION('ref_axis',(0.,-1.,0.));
#487=DIRECTION('',(1.,0.,3.82856869892695E-16));
#488=DIRECTION('center_axis',(0.,1.,0.));
#489=DIRECTION('ref_axis',(-3.82856869892695E-16,0.,1.));
#490=DIRECTION('',(0.,0.,-1.));
#491=DIRECTION('center_axis',(0.,1.,0.));
#492=DIRECTION('ref_axis',(1.,0.,0.));
#493=DIRECTION('',(-1.,0.,0.));
#494=DIRECTION('',(0.,0.,-1.));
#495=DIRECTION('center_axis',(-1.,0.,0.));
#496=DIRECTION('ref_axis',(0.,1.,0.));
#497=DIRECTION('',(0.,-1.,0.));
#498=DIRECTION('center_axis',(0.,0.,1.));
#499=DIRECTION('ref_axis',(1.,0.,0.));
#500=DIRECTION('center_axis',(0.,-1.,0.));
#501=DIRECTION('ref_axis',(0.,0.,-1.));
#502=CARTESIAN_POINT('',(0.,0.,0.));
#503=CARTESIAN_POINT('Origin',(11.9108408853628,0.,11.9108408853628));
#504=CARTESIAN_POINT('',(11.9108408853628,0.,2.));
#505=CARTESIAN_POINT('',(13.9108408853628,0.,2.));
#506=CARTESIAN_POINT('',(11.9108408853628,0.,2.));
#507=CARTESIAN_POINT('',(13.9108408853628,0.,11.9108408853628));
#508=CARTESIAN_POINT('',(13.9108408853628,0.,-12.0891591146372));
#509=CARTESIAN_POINT('',(11.9108408853628,0.,11.9108408853628));
#510=CARTESIAN_POINT('',(11.9108408853628,0.,11.9108408853628));
#511=CARTESIAN_POINT('',(11.9108408853628,0.,-12.0891591146372));
#512=CARTESIAN_POINT('Origin',(9.91084088536279,41.5,2.));
#513=CARTESIAN_POINT('',(11.9108408853628,83.,2.));
#514=CARTESIAN_POINT('',(11.9108408853628,20.75,2.));
#515=CARTESIAN_POINT('',(11.2637364989252,83.,0.527018853208353));
#516=CARTESIAN_POINT('Origin',(9.91084088536279,83.,2.));
#517=CARTESIAN_POINT('',(9.91084088536279,81.34,0.));
#518=CARTESIAN_POINT('Ctrl Pts',(11.2637364989252,83.,0.527018853208353));
#519=CARTESIAN_POINT('Ctrl Pts',(10.8989631513189,82.4466666666667,0.191983837318395));
#520=CARTESIAN_POINT('Ctrl Pts',(10.4061267189945,81.8933333333333,-3.48490855918457E-16));
#521=CARTESIAN_POINT('Ctrl Pts',(9.91084088536279,81.34,-5.55111512312579E-16));
#522=CARTESIAN_POINT('',(9.91084088536279,0.,0.));
#523=CARTESIAN_POINT('',(9.91084088536279,20.75,0.));
#524=CARTESIAN_POINT('Origin',(9.91084088536279,0.,2.));
#525=CARTESIAN_POINT('Origin',(13.9108408853628,83.,2.));
#526=CARTESIAN_POINT('',(13.9108408853628,83.,2.));
#527=CARTESIAN_POINT('',(11.9108408853628,83.,2.));
#528=CARTESIAN_POINT('',(12.6166321124876,83.,-0.945962293583295));
#529=CARTESIAN_POINT('Origin',(9.91084088536279,83.,2.));
#530=CARTESIAN_POINT('',(11.2637364989252,83.,0.527018853208353));
#531=CARTESIAN_POINT('Origin',(13.9108408853628,41.5,-0.0891591146372139));
#532=CARTESIAN_POINT('',(13.9108408853628,20.75,2.));
#533=CARTESIAN_POINT('',(13.9108408853628,83.,11.9108408853628));
#534=CARTESIAN_POINT('',(13.9108408853628,83.,11.9108408853628));
#535=CARTESIAN_POINT('',(13.9108408853628,0.,11.9108408853628));
#536=CARTESIAN_POINT('',(13.9108408853628,24.,6.26084088536279));
#537=CARTESIAN_POINT('Origin',(13.9108408853628,24.,7.91084088536279));
#538=CARTESIAN_POINT('',(13.9108408853628,56.,6.26084088536279));
#539=CARTESIAN_POINT('Origin',(13.9108408853628,56.,7.91084088536279));
#540=CARTESIAN_POINT('Origin',(11.9108408853628,41.5,-0.0891591146372139));
#541=CARTESIAN_POINT('',(11.9108408853628,83.,11.9108408853628));
#542=CARTESIAN_POINT('',(11.9108408853628,0.,11.9108408853628));
#543=CARTESIAN_POINT('',(11.9108408853628,83.,11.9108408853628));
#544=CARTESIAN_POINT('',(11.9108408853628,24.,6.26084088536279));
#545=CARTESIAN_POINT('Origin',(11.9108408853628,24.,7.91084088536279));
#546=CARTESIAN_POINT('',(11.9108408853628,56.,6.26084088536279));
#547=CARTESIAN_POINT('Origin',(11.9108408853628,56.,7.91084088536279));
#548=CARTESIAN_POINT('Origin',(12.,41.5,-2.));
#549=CARTESIAN_POINT('',(9.91084088536279,0.,-2.));
#550=CARTESIAN_POINT('',(9.91084088536279,81.34,-2.));
#551=CARTESIAN_POINT('',(9.91084088536279,20.75,-2.));
#552=CARTESIAN_POINT('',(0.,0.,-2.));
#553=CARTESIAN_POINT('',(0.,0.,-2.));
#554=CARTESIAN_POINT('',(0.,81.34,-2.));
#555=CARTESIAN_POINT('',(0.,81.34,-2.));
#556=CARTESIAN_POINT('',(9.91084088536279,81.34,-2.));
#557=CARTESIAN_POINT('',(2.35,8.,-2.));
#558=CARTESIAN_POINT('Origin',(4.,8.,-2.));
#559=CARTESIAN_POINT('',(2.35,72.,-2.));
#560=CARTESIAN_POINT('Origin',(4.,72.,-2.));
#561=CARTESIAN_POINT('',(2.35,40.,-2.));
#562=CARTESIAN_POINT('Origin',(4.,40.,-2.));
#563=CARTESIAN_POINT('Origin',(11.9108408853628,0.,2.));
#564=CARTESIAN_POINT('',(9.91084088536279,0.,0.));
#565=CARTESIAN_POINT('Origin',(9.91084088536279,0.,2.));
#566=CARTESIAN_POINT('Origin',(4.,8.,0.));
#567=CARTESIAN_POINT('',(2.35,8.,0.));
#568=CARTESIAN_POINT('',(2.35,8.,0.));
#569=CARTESIAN_POINT('Origin',(4.,8.,0.));
#570=CARTESIAN_POINT('Origin',(11.9108408853628,24.,7.91084088536279));
#571=CARTESIAN_POINT('',(11.9108408853628,24.,6.26084088536279));
#572=CARTESIAN_POINT('Origin',(11.9108408853628,56.,7.91084088536279));
#573=CARTESIAN_POINT('',(11.9108408853628,56.,6.26084088536279));
#574=CARTESIAN_POINT('Origin',(4.,72.,0.));
#575=CARTESIAN_POINT('',(2.35,72.,0.));
#576=CARTESIAN_POINT('',(2.35,72.,0.));
#577=CARTESIAN_POINT('Origin',(4.,72.,0.));
#578=CARTESIAN_POINT('Origin',(4.,40.,0.));
#579=CARTESIAN_POINT('',(2.35,40.,0.));
#580=CARTESIAN_POINT('',(2.35,40.,0.));
#581=CARTESIAN_POINT('Origin',(4.,40.,0.));
#582=CARTESIAN_POINT('Origin',(24.,0.,0.));
#583=CARTESIAN_POINT('',(0.,0.,0.));
#584=CARTESIAN_POINT('',(0.,0.,0.));
#585=CARTESIAN_POINT('',(0.,0.,0.));
#586=CARTESIAN_POINT('Origin',(11.9108408853628,83.,11.9108408853628));
#587=CARTESIAN_POINT('',(11.9108408853628,83.,11.9108408853628));
#588=CARTESIAN_POINT('Origin',(11.9108408853628,83.,-0.202127753083954));
#589=CARTESIAN_POINT('Ctrl Pts',(9.91084088536279,81.34,0.));
#590=CARTESIAN_POINT('Ctrl Pts',(9.91084088536279,81.34,-0.666666666666667));
#591=CARTESIAN_POINT('Ctrl Pts',(9.91084088536279,81.34,-1.33333333333333));
#592=CARTESIAN_POINT('Ctrl Pts',(9.91084088536279,81.34,-2.));
#593=CARTESIAN_POINT('Ctrl Pts',(10.4061267189945,81.8933333333333,-2.1995109450743E-16));
#594=CARTESIAN_POINT('Ctrl Pts',(10.571413962762,81.8933333333333,-0.667263632788271));
#595=CARTESIAN_POINT('Ctrl Pts',(10.7361253088587,81.8933333333333,-1.33273636721173));
#596=CARTESIAN_POINT('Ctrl Pts',(10.9014125526262,81.8933333333333,-2.));
#597=CARTESIAN_POINT('Ctrl Pts',(10.8989631513189,82.4466666666667,0.191983837318395));
#598=CARTESIAN_POINT('Ctrl Pts',(11.2285996753261,82.4466666666667,-0.411257731735464));
#599=CARTESIAN_POINT('Ctrl Pts',(11.557448893268,82.4466666666667,-1.01279075630935));
#600=CARTESIAN_POINT('Ctrl Pts',(11.8870854172751,82.4466666666667,-1.61603232536321));
#601=CARTESIAN_POINT('Ctrl Pts',(11.2637364989252,83.,0.527018853208353));
#602=CARTESIAN_POINT('Ctrl Pts',(11.714701703446,83.,0.0360251376111369));
#603=CARTESIAN_POINT('Ctrl Pts',(12.1656669079668,83.,-0.454968577986079));
#604=CARTESIAN_POINT('Ctrl Pts',(12.6166321124876,83.,-0.945962293583295));
#605=CARTESIAN_POINT('Ctrl Pts',(9.91084088536279,81.34,-2.));
#606=CARTESIAN_POINT('Ctrl Pts',(10.9014125526262,81.8933333333333,-2.));
#607=CARTESIAN_POINT('Ctrl Pts',(11.8870854172751,82.4466666666667,-1.61603232536321));
#608=CARTESIAN_POINT('Ctrl Pts',(12.6166321124876,83.,-0.945962293583295));
#609=CARTESIAN_POINT('',(9.91084088536279,81.34,0.));
#610=CARTESIAN_POINT('Origin',(0.,81.34,0.));
#611=CARTESIAN_POINT('',(0.,81.34,0.));
#612=CARTESIAN_POINT('',(9.91084088536279,81.34,0.));
#613=CARTESIAN_POINT('',(0.,81.34,0.));
#614=CARTESIAN_POINT('Origin',(0.,0.,0.));
#615=CARTESIAN_POINT('',(0.,81.34,0.));
#616=CARTESIAN_POINT('Origin',(12.,41.5,0.));
#617=CARTESIAN_POINT('Origin',(9.91084088536279,41.5,2.));
#618=UNCERTAINTY_MEASURE_WITH_UNIT(LENGTH_MEASURE(0.01),#622,
'DISTANCE_ACCURACY_VALUE',
'Maximum model space distance between geometric entities at asserted c
onnectivities');
#619=UNCERTAINTY_MEASURE_WITH_UNIT(LENGTH_MEASURE(0.01),#622,
'DISTANCE_ACCURACY_VALUE',
'Maximum model space distance between geometric entities at asserted c
onnectivities');
#620=(
GEOMETRIC_REPRESENTATION_CONTEXT(3)
GLOBAL_UNCERTAINTY_ASSIGNED_CONTEXT((#618))
GLOBAL_UNIT_ASSIGNED_CONTEXT((#622,#624,#625))
REPRESENTATION_CONTEXT('','3D')
);
#621=(
GEOMETRIC_REPRESENTATION_CONTEXT(3)
GLOBAL_UNCERTAINTY_ASSIGNED_CONTEXT((#619))
GLOBAL_UNIT_ASSIGNED_CONTEXT((#622,#624,#625))
REPRESENTATION_CONTEXT('','3D')
);
#622=(
LENGTH_UNIT()
NAMED_UNIT(*)
SI_UNIT(.MILLI.,.METRE.)
);
#623=(
LENGTH_UNIT()
NAMED_UNIT(*)
SI_UNIT($,.METRE.)
);
#624=(
NAMED_UNIT(*)
PLANE_ANGLE_UNIT()
SI_UNIT($,.RADIAN.)
);
#625=(
NAMED_UNIT(*)
SI_UNIT($,.STERADIAN.)
SOLID_ANGLE_UNIT()
);
#626=SHAPE_DEFINITION_REPRESENTATION(#627,#628);
#627=PRODUCT_DEFINITION_SHAPE('',$,#630);
#628=SHAPE_REPRESENTATION('',(#370),#620);
#629=PRODUCT_DEFINITION_CONTEXT('part definition',#634,'design');
#630=PRODUCT_DEFINITION('2026-09-10-00-37-35-539','corner_bracket',#631,
#629);
#631=PRODUCT_DEFINITION_FORMATION('',$,#636);
#632=PRODUCT_RELATED_PRODUCT_CATEGORY('corner_bracket','corner_bracket',
(#636));
#633=APPLICATION_PROTOCOL_DEFINITION('international standard',
'automotive_design',2009,#634);
#634=APPLICATION_CONTEXT(
'Core Data for Automotive Mechanical Design Process');
#635=PRODUCT_CONTEXT('part definition',#634,'mechanical');
#636=PRODUCT('2026-09-10-00-37-35-539','corner_bracket',$,(#635));
#637=PRESENTATION_STYLE_ASSIGNMENT((#639));
#638=PRESENTATION_STYLE_ASSIGNMENT((#640));
#639=SURFACE_STYLE_USAGE(.BOTH.,#641);
#640=SURFACE_STYLE_USAGE(.BOTH.,#642);
#641=SURFACE_SIDE_STYLE('',(#643));
#642=SURFACE_SIDE_STYLE('',(#644));
#643=SURFACE_STYLE_FILL_AREA(#645);
#644=SURFACE_STYLE_FILL_AREA(#646);
#645=FILL_AREA_STYLE('Steel - Satin',(#647));
#646=FILL_AREA_STYLE('Plastic - Matte (Black)',(#648));
#647=FILL_AREA_STYLE_COLOUR('Steel - Satin',#649);
#648=FILL_AREA_STYLE_COLOUR('Plastic - Matte (Black)',#650);
#649=COLOUR_RGB('Steel - Satin',0.627450980392157,0.627450980392157,0.627450980392157);
#650=COLOUR_RGB('Plastic - Matte (Black)',0.0980392156862745,0.0980392156862745,
0.0980392156862745);
ENDSEC;
END-ISO-10303-21;
