#VRML V2.0 utf8
# Trimmed 2.54mm header pin for the Segno ring board.
# insulator z 0..2.54  (the standoff)   pin z -3.0..5.11  (snipped 1.0mm above the ring)
 Shape {
  appearance Appearance { material Material { diffuseColor 0.05 0.05 0.06 specularColor 0.10 0.10 0.10 shininess 0.4 } }
  geometry IndexedFaceSet { solid TRUE
   coord Coordinate { point [
     -1.2700 -1.2700 0.0000,
     1.2700 -1.2700 0.0000,
     1.2700 1.2700 0.0000,
     -1.2700 1.2700 0.0000,
     -1.2700 -1.2700 2.5400,
     1.2700 -1.2700 2.5400,
     1.2700 1.2700 2.5400,
     -1.2700 1.2700 2.5400 ] }
   coordIndex [
     0,3,2,1,-1,
     4,5,6,7,-1,
     0,1,5,4,-1,
     1,2,6,5,-1,
     2,3,7,6,-1,
     3,0,4,7,-1 ]
  }
 }
 Shape {
  appearance Appearance { material Material { diffuseColor 0.85 0.68 0.28 specularColor 0.90 0.80 0.50 shininess 0.4 } }
  geometry IndexedFaceSet { solid TRUE
   coord Coordinate { point [
     -0.3200 -0.3200 -3.0000,
     0.3200 -0.3200 -3.0000,
     0.3200 0.3200 -3.0000,
     -0.3200 0.3200 -3.0000,
     -0.3200 -0.3200 5.1100,
     0.3200 -0.3200 5.1100,
     0.3200 0.3200 5.1100,
     -0.3200 0.3200 5.1100 ] }
   coordIndex [
     0,3,2,1,-1,
     4,5,6,7,-1,
     0,1,5,4,-1,
     1,2,6,5,-1,
     2,3,7,6,-1,
     3,0,4,7,-1 ]
  }
 }
