%TF.GenerationSoftware,KiCad,Pcbnew,10.0.4*%
%TF.CreationDate,2026-08-18T14:15:15-03:00*%
%TF.ProjectId,segno_console_board,7365676e-6f5f-4636-9f6e-736f6c655f62,rev?*%
%TF.SameCoordinates,Original*%
%TF.FileFunction,Soldermask,Bot*%
%TF.FilePolarity,Negative*%
%FSLAX46Y46*%
G04 Gerber Fmt 4.6, Leading zero omitted, Abs format (unit mm)*
G04 Created by KiCad (PCBNEW 10.0.4) date 2026-08-18 14:15:15*
%MOMM*%
%LPD*%
G01*
G04 APERTURE LIST*
G04 Aperture macros list*
%AMRoundRect*
0 Rectangle with rounded corners*
0 $1 Rounding radius*
0 $2 $3 $4 $5 $6 $7 $8 $9 X,Y pos of 4 corners*
0 Add a 4 corners polygon primitive as box body*
4,1,4,$2,$3,$4,$5,$6,$7,$8,$9,$2,$3,0*
0 Add four circle primitives for the rounded corners*
1,1,$1+$1,$2,$3*
1,1,$1+$1,$4,$5*
1,1,$1+$1,$6,$7*
1,1,$1+$1,$8,$9*
0 Add four rect primitives between the rounded corners*
20,1,$1+$1,$2,$3,$4,$5,0*
20,1,$1+$1,$4,$5,$6,$7,0*
20,1,$1+$1,$6,$7,$8,$9,0*
20,1,$1+$1,$8,$9,$2,$3,0*%
G04 Aperture macros list end*
%ADD10C,1.600000*%
%ADD11RoundRect,0.250000X-0.600000X-0.750000X0.600000X-0.750000X0.600000X0.750000X-0.600000X0.750000X0*%
%ADD12O,1.700000X2.000000*%
%ADD13RoundRect,0.250000X-0.750000X-0.750000X0.750000X-0.750000X0.750000X0.750000X-0.750000X0.750000X0*%
%ADD14C,2.000000*%
%ADD15RoundRect,0.250000X-0.600000X-0.725000X0.600000X-0.725000X0.600000X0.725000X-0.600000X0.725000X0*%
%ADD16O,1.700000X1.950000*%
%ADD17C,6.400000*%
%ADD18RoundRect,0.250000X-0.550000X-0.550000X0.550000X-0.550000X0.550000X0.550000X-0.550000X0.550000X0*%
%ADD19R,1.700000X1.700000*%
%ADD20C,1.700000*%
%ADD21RoundRect,0.250000X0.725000X-0.600000X0.725000X0.600000X-0.725000X0.600000X-0.725000X-0.600000X0*%
%ADD22O,1.950000X1.700000*%
%ADD23C,2.200000*%
%ADD24C,1.850000*%
%ADD25RoundRect,0.250000X0.600000X0.600000X-0.600000X0.600000X-0.600000X-0.600000X0.600000X-0.600000X0*%
G04 APERTURE END LIST*
D10*
%TO.C,C5*%
X144083300Y-135000000D03*
X146583300Y-135000000D03*
%TD*%
%TO.C,C3*%
X125416700Y-135000000D03*
X127916700Y-135000000D03*
%TD*%
%TO.C,C7*%
X162750000Y-135000000D03*
X165250000Y-135000000D03*
%TD*%
%TO.C,R2*%
X179500000Y-128080000D03*
X179500000Y-117920000D03*
%TD*%
%TO.C,C6*%
X153416700Y-135000000D03*
X155916700Y-135000000D03*
%TD*%
D11*
%TO.C,J15*%
X153416700Y-145000000D03*
D12*
X155916700Y-145000000D03*
%TD*%
D11*
%TO.C,J13*%
X134750000Y-145000000D03*
D12*
X137250000Y-145000000D03*
%TD*%
D11*
%TO.C,J16*%
X162750000Y-145000000D03*
D12*
X165250000Y-145000000D03*
%TD*%
D10*
%TO.C,R6*%
X166320000Y-85000000D03*
X176480000Y-85000000D03*
%TD*%
%TO.C,R1*%
X153920000Y-123000000D03*
X164080000Y-123000000D03*
%TD*%
%TO.C,R7*%
X171920000Y-76000000D03*
X182080000Y-76000000D03*
%TD*%
%TO.C,C14*%
X164750000Y-81000000D03*
X167250000Y-81000000D03*
%TD*%
%TO.C,R13*%
X139920000Y-123000000D03*
X150080000Y-123000000D03*
%TD*%
D13*
%TO.C,C30*%
X104200000Y-93000000D03*
D14*
X109200000Y-93000000D03*
%TD*%
D10*
%TO.C,R17*%
X196900000Y-110080000D03*
X196900000Y-99920000D03*
%TD*%
D15*
%TO.C,J4*%
X147500000Y-68000000D03*
D16*
X150000000Y-68000000D03*
X152500000Y-68000000D03*
%TD*%
D17*
%TO.C,H1*%
X105000000Y-65000000D03*
%TD*%
D18*
%TO.C,C31*%
X105450000Y-80000000D03*
D10*
X107950000Y-80000000D03*
%TD*%
%TO.C,R11*%
X114320000Y-123000000D03*
X124480000Y-123000000D03*
%TD*%
%TO.C,R9*%
X171820000Y-81000000D03*
X181980000Y-81000000D03*
%TD*%
D17*
%TO.C,H4*%
X105000000Y-154500000D03*
%TD*%
%TO.C,H3*%
X194500000Y-154500000D03*
%TD*%
D10*
%TO.C,C10*%
X190750000Y-135000000D03*
X193250000Y-135000000D03*
%TD*%
%TO.C,R14*%
X196900000Y-124930000D03*
X196900000Y-114770000D03*
%TD*%
%TO.C,C11*%
X178750000Y-91000000D03*
X181250000Y-91000000D03*
%TD*%
D15*
%TO.C,J20*%
X163500000Y-68000000D03*
D16*
X166000000Y-68000000D03*
X168500000Y-68000000D03*
%TD*%
D10*
%TO.C,R10*%
X151920000Y-87000000D03*
X162080000Y-87000000D03*
%TD*%
D11*
%TO.C,J19*%
X190750000Y-145000000D03*
D12*
X193250000Y-145000000D03*
%TD*%
D10*
%TO.C,C2*%
X116083300Y-135000000D03*
X118583300Y-135000000D03*
%TD*%
%TO.C,R12*%
X127120000Y-123000000D03*
X137280000Y-123000000D03*
%TD*%
D18*
%TO.C,D1*%
X130190000Y-74400000D03*
D10*
X137810000Y-74400000D03*
%TD*%
%TO.C,R18*%
X166520000Y-123000000D03*
X176680000Y-123000000D03*
%TD*%
D11*
%TO.C,J17*%
X172083300Y-145000000D03*
D12*
X174583300Y-145000000D03*
%TD*%
D11*
%TO.C,J12*%
X125416700Y-145000000D03*
D12*
X127916700Y-145000000D03*
%TD*%
D11*
%TO.C,J11*%
X116083300Y-145000000D03*
D12*
X118583300Y-145000000D03*
%TD*%
D10*
%TO.C,R16*%
X156420000Y-119600000D03*
X166580000Y-119600000D03*
%TD*%
%TO.C,R8*%
X157920000Y-76000000D03*
X168080000Y-76000000D03*
%TD*%
D11*
%TO.C,J8*%
X116850000Y-68000000D03*
D12*
X119350000Y-68000000D03*
%TD*%
D11*
%TO.C,J18*%
X181416700Y-145000000D03*
D12*
X183916700Y-145000000D03*
%TD*%
D10*
%TO.C,C4*%
X134750000Y-135000000D03*
X137250000Y-135000000D03*
%TD*%
D11*
%TO.C,J9*%
X121850000Y-90000000D03*
D12*
X124350000Y-90000000D03*
%TD*%
D19*
%TO.C,J22*%
X145030000Y-82190000D03*
D20*
X147570000Y-82190000D03*
X145030000Y-84730000D03*
X147570000Y-84730000D03*
X145030000Y-87270000D03*
X147570000Y-87270000D03*
X145030000Y-89810000D03*
X147570000Y-89810000D03*
%TD*%
D10*
%TO.C,R4*%
X144920000Y-76000000D03*
X155080000Y-76000000D03*
%TD*%
%TO.C,R15*%
X142920000Y-119600000D03*
X153080000Y-119600000D03*
%TD*%
D15*
%TO.C,J6*%
X143750000Y-129000000D03*
D16*
X146250000Y-129000000D03*
X148750000Y-129000000D03*
X151250000Y-129000000D03*
X153750000Y-129000000D03*
X156250000Y-129000000D03*
X158750000Y-129000000D03*
X161250000Y-129000000D03*
%TD*%
D11*
%TO.C,J10*%
X106750000Y-145000000D03*
D12*
X109250000Y-145000000D03*
%TD*%
D10*
%TO.C,C1*%
X106750000Y-135000000D03*
X109250000Y-135000000D03*
%TD*%
D11*
%TO.C,J5*%
X132750000Y-68000000D03*
D12*
X135250000Y-68000000D03*
%TD*%
D15*
%TO.C,J7*%
X168500000Y-129000000D03*
D16*
X171000000Y-129000000D03*
X173500000Y-129000000D03*
%TD*%
D21*
%TO.C,J3*%
X105500000Y-125750000D03*
D22*
X105500000Y-123250000D03*
X105500000Y-120750000D03*
X105500000Y-118250000D03*
%TD*%
D23*
%TO.C,J1*%
X119000000Y-108725000D03*
D24*
X122030000Y-108425000D03*
X122030000Y-103575000D03*
D23*
X119000000Y-103275000D03*
%TD*%
D18*
%TO.C,U2*%
X130190000Y-78460000D03*
D10*
X130190000Y-81000000D03*
X130190000Y-83540000D03*
X137810000Y-83540000D03*
X137810000Y-81000000D03*
X137810000Y-78460000D03*
%TD*%
D17*
%TO.C,H2*%
X194500000Y-65000000D03*
%TD*%
D10*
%TO.C,C8*%
X172083300Y-135000000D03*
X174583300Y-135000000D03*
%TD*%
%TO.C,R5*%
X129920000Y-89500000D03*
X140080000Y-89500000D03*
%TD*%
%TO.C,C20*%
X122750000Y-81000000D03*
X125250000Y-81000000D03*
%TD*%
D15*
%TO.C,J21*%
X175500000Y-68000000D03*
D16*
X178000000Y-68000000D03*
X180500000Y-68000000D03*
%TD*%
D10*
%TO.C,R3*%
X161820000Y-91000000D03*
X171980000Y-91000000D03*
%TD*%
D18*
%TO.C,U1*%
X172190000Y-96380000D03*
D10*
X172190000Y-98920000D03*
X172190000Y-101460000D03*
X172190000Y-104000000D03*
X172190000Y-106540000D03*
X172190000Y-109080000D03*
X172190000Y-111620000D03*
X179810000Y-111620000D03*
X179810000Y-109080000D03*
X179810000Y-106540000D03*
X179810000Y-104000000D03*
X179810000Y-101460000D03*
X179810000Y-98920000D03*
X179810000Y-96380000D03*
%TD*%
D25*
%TO.C,J2*%
X190770000Y-126130000D03*
D20*
X188230000Y-126130000D03*
X190770000Y-123590000D03*
X188230000Y-123590000D03*
X190770000Y-121050000D03*
X188230000Y-121050000D03*
X190770000Y-118510000D03*
X188230000Y-118510000D03*
X190770000Y-115970000D03*
X188230000Y-115970000D03*
X190770000Y-113430000D03*
X188230000Y-113430000D03*
X190770000Y-110890000D03*
X188230000Y-110890000D03*
X190770000Y-108350000D03*
X188230000Y-108350000D03*
X190770000Y-105810000D03*
X188230000Y-105810000D03*
X190770000Y-103270000D03*
X188230000Y-103270000D03*
X190770000Y-100730000D03*
X188230000Y-100730000D03*
X190770000Y-98190000D03*
X188230000Y-98190000D03*
X190770000Y-95650000D03*
X188230000Y-95650000D03*
X190770000Y-93110000D03*
X188230000Y-93110000D03*
X190770000Y-90570000D03*
X188230000Y-90570000D03*
X190770000Y-88030000D03*
X188230000Y-88030000D03*
X190770000Y-85490000D03*
X188230000Y-85490000D03*
X190770000Y-82950000D03*
X188230000Y-82950000D03*
X190770000Y-80410000D03*
X188230000Y-80410000D03*
X190770000Y-77870000D03*
X188230000Y-77870000D03*
%TD*%
D11*
%TO.C,J14*%
X144083300Y-145000000D03*
D12*
X146583300Y-145000000D03*
%TD*%
D10*
%TO.C,C13*%
X154650000Y-81000000D03*
X157150000Y-81000000D03*
%TD*%
%TO.C,C9*%
X181416700Y-135000000D03*
X183916700Y-135000000D03*
%TD*%
M02*
