M48
; DRILL file KiCad 10.0.4 date 2026-09-16T23:29:11
; FORMAT={-:-/ absolute / metric / decimal}
; #@! TF.CreationDate,2026-09-16T23:29:11-03:00
; #@! TF.GenerationSoftware,Kicad,Pcbnew,10.0.4
; #@! TF.FileFunction,Plated,1,2,PTH
FMAT,2
METRIC
; #@! TA.AperFunction,Plated,PTH,ViaDrill
T1C0.400
; #@! TA.AperFunction,Plated,PTH,ComponentDrill
T2C0.800
; #@! TA.AperFunction,Plated,PTH,ComponentDrill
T3C0.950
; #@! TA.AperFunction,Plated,PTH,ComponentDrill
T4C1.000
; #@! TA.AperFunction,Plated,PTH,ComponentDrill
T5C1.700
; #@! TA.AperFunction,Plated,PTH,ComponentDrill
T6C3.200
%
G90
G05
T1
X105.0Y-69.35
X107.05Y-93.0
X107.4Y-114.92
X107.4Y-131.8
X107.95Y-78.55
X109.25Y-134.65
X110.9Y-145.0
X112.0Y-72.0
X112.0Y-84.0
X112.0Y-108.0
X112.0Y-120.0
X112.0Y-132.0
X118.583Y-134.65
X120.233Y-145.0
X121.0Y-68.0
X122.55Y-118.506
X123.375Y-129.0
X123.95Y-99.06
X123.95Y-112.94
X124.0Y-72.0
X124.0Y-84.0
X125.25Y-79.55
X126.0Y-90.0
X127.142Y-113.135
X127.917Y-134.65
X129.567Y-145.0
X133.082Y-112.915
X133.684Y-90.213
X135.206Y-109.925
X135.86Y-81.0
X136.0Y-132.0
X136.496Y-92.709
X136.65Y-99.06
X136.65Y-112.94
X137.25Y-134.65
X138.9Y-145.0
X141.636Y-89.971
X146.583Y-134.65
X147.344Y-80.726
X148.233Y-145.0
X148.755Y-123.908
X149.07Y-88.54
X149.35Y-99.06
X149.35Y-112.94
X150.273Y-119.018
X151.25Y-126.875
X152.5Y-66.375
X153.16Y-98.727
X153.201Y-109.217
X154.074Y-89.581
X155.917Y-134.65
X156.445Y-98.778
X157.15Y-79.55
X157.567Y-145.0
X158.918Y-109.218
X160.0Y-84.0
X161.457Y-92.999
X162.05Y-99.06
X162.05Y-112.94
X164.65Y-66.375
X164.65Y-106.0
X164.922Y-113.293
X165.25Y-134.65
X165.362Y-98.825
X165.396Y-71.661
X165.937Y-94.042
X166.9Y-145.0
X166.979Y-99.188
X167.112Y-93.08
X167.25Y-79.55
X168.03Y-119.6
X168.261Y-101.523
X168.775Y-81.148
X169.601Y-97.726
X170.617Y-85.391
X172.0Y-120.0
X172.0Y-132.0
X172.19Y-94.93
X172.19Y-113.07
X173.659Y-122.073
X174.14Y-106.54
X174.583Y-134.65
X176.233Y-145.0
X177.86Y-101.46
X177.86Y-106.54
X177.938Y-74.126
X178.95Y-66.375
X181.25Y-89.55
X183.917Y-134.65
X184.848Y-111.148
X185.567Y-145.0
X186.23Y-85.49
X186.23Y-90.57
X186.23Y-103.27
X186.23Y-110.89
X186.23Y-121.05
X192.77Y-77.87
X192.77Y-95.65
X192.77Y-115.97
X193.25Y-134.65
X194.9Y-145.0
X196.9Y-116.22
T2
X105.45Y-80.0
X106.75Y-136.1
X107.95Y-80.0
X109.25Y-136.1
X111.92Y-123.0
X114.32Y-119.6
X116.083Y-136.1
X118.583Y-136.1
X122.08Y-123.0
X122.75Y-81.0
X124.48Y-119.6
X124.92Y-123.0
X125.25Y-81.0
X125.417Y-136.1
X127.12Y-119.6
X127.917Y-136.1
X129.92Y-89.5
X130.19Y-74.4
X130.19Y-78.46
X130.19Y-81.0
X130.19Y-83.54
X134.75Y-136.1
X135.08Y-123.0
X137.25Y-136.1
X137.28Y-119.6
X137.81Y-74.4
X137.81Y-78.46
X137.81Y-81.0
X137.81Y-83.54
X139.92Y-123.0
X140.08Y-89.5
X142.92Y-119.6
X144.083Y-136.1
X144.92Y-76.0
X146.583Y-136.1
X150.08Y-123.0
X151.92Y-87.0
X153.08Y-119.6
X153.417Y-136.1
X154.65Y-81.0
X155.08Y-76.0
X155.917Y-136.1
X156.42Y-119.6
X157.15Y-81.0
X157.92Y-76.0
X161.82Y-91.0
X162.08Y-87.0
X162.75Y-136.1
X164.75Y-81.0
X165.25Y-136.1
X166.32Y-85.0
X166.52Y-123.0
X166.58Y-119.6
X167.25Y-81.0
X168.08Y-76.0
X171.82Y-81.0
X171.92Y-76.0
X171.98Y-91.0
X172.083Y-136.1
X172.19Y-96.38
X172.19Y-98.92
X172.19Y-101.46
X172.19Y-104.0
X172.19Y-106.54
X172.19Y-109.08
X172.19Y-111.62
X174.583Y-136.1
X176.48Y-85.0
X176.68Y-123.0
X178.75Y-91.0
X179.5Y-117.92
X179.5Y-128.08
X179.81Y-96.38
X179.81Y-98.92
X179.81Y-101.46
X179.81Y-104.0
X179.81Y-106.54
X179.81Y-109.08
X179.81Y-111.62
X181.25Y-91.0
X181.417Y-136.1
X181.98Y-81.0
X182.08Y-76.0
X183.917Y-136.1
X190.75Y-136.1
X193.25Y-136.1
X196.9Y-99.92
X196.9Y-110.08
X196.9Y-114.77
X196.9Y-124.93
T3
X125.0Y-129.0
X127.5Y-129.0
X130.0Y-129.0
X147.5Y-68.0
X148.75Y-129.0
X150.0Y-68.0
X151.25Y-129.0
X152.5Y-68.0
X153.75Y-129.0
X156.25Y-129.0
X159.65Y-68.0
X162.15Y-68.0
X164.65Y-68.0
X167.15Y-68.0
X173.95Y-68.0
X176.45Y-68.0
X178.95Y-68.0
X181.45Y-68.0
T4
X104.2Y-93.0
X106.75Y-145.0
X109.2Y-93.0
X109.25Y-145.0
X116.083Y-145.0
X116.85Y-68.0
X118.583Y-145.0
X119.35Y-68.0
X121.85Y-90.0
X124.35Y-90.0
X125.417Y-145.0
X127.917Y-145.0
X132.75Y-68.0
X134.75Y-145.0
X135.25Y-68.0
X137.25Y-145.0
X144.083Y-145.0
X145.03Y-83.46
X145.03Y-86.0
X145.03Y-88.54
X146.583Y-145.0
X147.57Y-83.46
X147.57Y-86.0
X147.57Y-88.54
X153.417Y-145.0
X155.917Y-145.0
X162.75Y-145.0
X165.25Y-145.0
X172.083Y-145.0
X174.583Y-145.0
X181.417Y-145.0
X183.917Y-145.0
X188.23Y-77.87
X188.23Y-80.41
X188.23Y-82.95
X188.23Y-85.49
X188.23Y-88.03
X188.23Y-90.57
X188.23Y-93.11
X188.23Y-95.65
X188.23Y-98.19
X188.23Y-100.73
X188.23Y-103.27
X188.23Y-105.81
X188.23Y-108.35
X188.23Y-110.89
X188.23Y-113.43
X188.23Y-115.97
X188.23Y-118.51
X188.23Y-121.05
X188.23Y-123.59
X188.23Y-126.13
X190.75Y-145.0
X190.77Y-77.87
X190.77Y-80.41
X190.77Y-82.95
X190.77Y-85.49
X190.77Y-88.03
X190.77Y-90.57
X190.77Y-93.11
X190.77Y-95.65
X190.77Y-98.19
X190.77Y-100.73
X190.77Y-103.27
X190.77Y-105.81
X190.77Y-108.35
X190.77Y-110.89
X190.77Y-113.43
X190.77Y-115.97
X190.77Y-118.51
X190.77Y-121.05
X190.77Y-123.59
X190.77Y-126.13
X193.25Y-145.0
T5
X105.4Y-114.92
X105.4Y-118.88
X105.4Y-123.88
X105.4Y-127.84
X105.4Y-131.8
T6
X105.0Y-65.0
X105.0Y-154.5
X194.5Y-65.0
X194.5Y-154.5
M30
