%TF.GenerationSoftware,KiCad,Pcbnew,10.0.4*%
%TF.CreationDate,2026-08-21T04:45:11-03:00*%
%TF.ProjectId,segno_console_board,7365676e-6f5f-4636-9f6e-736f6c655f62,rev?*%
%TF.SameCoordinates,Original*%
%TF.FileFunction,Legend,Bot*%
%TF.FilePolarity,Positive*%
%FSLAX46Y46*%
G04 Gerber Fmt 4.6, Leading zero omitted, Abs format (unit mm)*
G04 Created by KiCad (PCBNEW 10.0.4) date 2026-08-21 04:45:11*
%MOMM*%
%LPD*%
G01*
G04 APERTURE LIST*
%ADD10C,0.000000*%
G04 APERTURE END LIST*
D10*
G36*
X110500000Y-154299000D02*
G01*
X109800000Y-154299000D01*
X109800000Y-147701000D01*
X110500000Y-147701000D01*
X110500000Y-154299000D01*
G37*
G36*
X112000000Y-156000000D02*
G01*
X111300000Y-156000000D01*
X111300000Y-146000000D01*
X112000000Y-146000000D01*
X112000000Y-156000000D01*
G37*
G36*
X113500000Y-156000000D02*
G01*
X112800000Y-156000000D01*
X112800000Y-146000000D01*
X113500000Y-146000000D01*
X113500000Y-156000000D01*
G37*
G36*
X115000000Y-154500000D02*
G01*
X114300000Y-154500000D01*
X114300000Y-147500000D01*
X115000000Y-147500000D01*
X115000000Y-154500000D01*
G37*
G36*
X116500000Y-154500000D02*
G01*
X115800000Y-154500000D01*
X115800000Y-147500000D01*
X116500000Y-147500000D01*
X116500000Y-154500000D01*
G37*
G36*
X118000000Y-154500000D02*
G01*
X117300000Y-154500000D01*
X117300000Y-147500000D01*
X118000000Y-147500000D01*
X118000000Y-154500000D01*
G37*
G36*
X119500000Y-154913000D02*
G01*
X118800000Y-154913000D01*
X118800000Y-147087000D01*
X119500000Y-147087000D01*
X119500000Y-154913000D01*
G37*
G36*
X121000000Y-155392000D02*
G01*
X120300000Y-155392000D01*
X120300000Y-146608000D01*
X121000000Y-146608000D01*
X121000000Y-155392000D01*
G37*
G36*
X121150000Y-80750000D02*
G01*
X109550000Y-80750000D01*
X109550000Y-80450000D01*
X121150000Y-80450000D01*
X121150000Y-80750000D01*
G37*
G36*
X122500000Y-155707000D02*
G01*
X121800000Y-155707000D01*
X121800000Y-146293000D01*
X122500000Y-146293000D01*
X122500000Y-155707000D01*
G37*
G36*
X124000000Y-154358000D02*
G01*
X123300000Y-154358000D01*
X123300000Y-147642000D01*
X124000000Y-147642000D01*
X124000000Y-154358000D01*
G37*
G36*
X125500000Y-154243000D02*
G01*
X124800000Y-154243000D01*
X124800000Y-147757000D01*
X125500000Y-147757000D01*
X125500000Y-154243000D01*
G37*
G36*
X127000000Y-153959000D02*
G01*
X126300000Y-153959000D01*
X126300000Y-148041000D01*
X127000000Y-148041000D01*
X127000000Y-153959000D01*
G37*
G36*
X128500000Y-154620999D02*
G01*
X127800000Y-154620999D01*
X127800000Y-147379000D01*
X128500000Y-147379000D01*
X128500000Y-154620999D01*
G37*
G36*
X128590000Y-74150000D02*
G01*
X103000000Y-74150000D01*
X103000000Y-73850000D01*
X128590000Y-73850000D01*
X128590000Y-74150000D01*
G37*
G36*
X128590000Y-78550000D02*
G01*
X109550000Y-78550000D01*
X109550000Y-78250000D01*
X128590000Y-78250000D01*
X128590000Y-78550000D01*
G37*
G36*
X128590000Y-80750000D02*
G01*
X126850000Y-80750000D01*
X126850000Y-80450000D01*
X128590000Y-80450000D01*
X128590000Y-80750000D01*
G37*
G36*
X128590000Y-82950000D02*
G01*
X103000000Y-82950000D01*
X103000000Y-82650000D01*
X128590000Y-82650000D01*
X128590000Y-82950000D01*
G37*
G36*
X130000000Y-153890000D02*
G01*
X129300000Y-153890000D01*
X129300000Y-148110000D01*
X130000000Y-148110000D01*
X130000000Y-153890000D01*
G37*
G36*
X131500000Y-154002000D02*
G01*
X130800000Y-154002000D01*
X130800000Y-147998000D01*
X131500000Y-147998000D01*
X131500000Y-154002000D01*
G37*
G36*
X133000000Y-154275000D02*
G01*
X132300000Y-154275000D01*
X132300000Y-147725000D01*
X133000000Y-147725000D01*
X133000000Y-154275000D01*
G37*
G36*
X134500000Y-154540000D02*
G01*
X133800000Y-154540000D01*
X133800000Y-147459999D01*
X134500000Y-147459999D01*
X134500000Y-154540000D01*
G37*
G36*
X136000000Y-154891000D02*
G01*
X135300000Y-154891000D01*
X135300000Y-147108999D01*
X136000000Y-147108999D01*
X136000000Y-154891000D01*
G37*
G36*
X136210000Y-74150000D02*
G01*
X131790000Y-74150000D01*
X131790000Y-73850000D01*
X136210000Y-73850000D01*
X136210000Y-74150000D01*
G37*
G36*
X136210000Y-78550000D02*
G01*
X131790000Y-78550000D01*
X131790000Y-78250000D01*
X136210000Y-78250000D01*
X136210000Y-78550000D01*
G37*
G36*
X136210000Y-80750000D02*
G01*
X131790000Y-80750000D01*
X131790000Y-80450000D01*
X136210000Y-80450000D01*
X136210000Y-80750000D01*
G37*
G36*
X136210000Y-82950000D02*
G01*
X131790000Y-82950000D01*
X131790000Y-82650000D01*
X136210000Y-82650000D01*
X136210000Y-82950000D01*
G37*
G36*
X137500000Y-154992000D02*
G01*
X136800000Y-154992000D01*
X136800000Y-147007999D01*
X137500000Y-147007999D01*
X137500000Y-154992000D01*
G37*
G36*
X139000000Y-154841000D02*
G01*
X138300000Y-154841000D01*
X138300000Y-147159000D01*
X139000000Y-147159000D01*
X139000000Y-154841000D01*
G37*
G36*
X140500000Y-154634000D02*
G01*
X139800000Y-154634000D01*
X139800000Y-147366000D01*
X140500000Y-147366000D01*
X140500000Y-154634000D01*
G37*
G36*
X142000000Y-154452000D02*
G01*
X141300000Y-154452000D01*
X141300000Y-147548000D01*
X142000000Y-147548000D01*
X142000000Y-154452000D01*
G37*
G36*
X143320000Y-76350000D02*
G01*
X103000000Y-76350000D01*
X103000000Y-76050000D01*
X143320000Y-76050000D01*
X143320000Y-76350000D01*
G37*
G36*
X143380000Y-80750000D02*
G01*
X139410000Y-80750000D01*
X139410000Y-80450000D01*
X143380000Y-80450000D01*
X143380000Y-80750000D01*
G37*
G36*
X143380000Y-82950000D02*
G01*
X139410000Y-82950000D01*
X139410000Y-82650000D01*
X143380000Y-82650000D01*
X143380000Y-82950000D01*
G37*
G36*
X143500000Y-154082000D02*
G01*
X142800000Y-154082000D01*
X142800000Y-147918000D01*
X143500000Y-147918000D01*
X143500000Y-154082000D01*
G37*
G36*
X145000000Y-154134000D02*
G01*
X144300000Y-154134000D01*
X144300000Y-147866000D01*
X145000000Y-147866000D01*
X145000000Y-154134000D01*
G37*
G36*
X146500000Y-154397000D02*
G01*
X145800000Y-154397000D01*
X145800000Y-147603000D01*
X146500000Y-147603000D01*
X146500000Y-154397000D01*
G37*
G36*
X148000000Y-154487000D02*
G01*
X147300000Y-154487000D01*
X147300000Y-147513000D01*
X148000000Y-147513000D01*
X148000000Y-154487000D01*
G37*
G36*
X149500000Y-155849000D02*
G01*
X148800000Y-155849000D01*
X148800000Y-146151000D01*
X149500000Y-146151000D01*
X149500000Y-155849000D01*
G37*
G36*
X151000000Y-155481000D02*
G01*
X150300000Y-155481000D01*
X150300000Y-146519000D01*
X151000000Y-146519000D01*
X151000000Y-155481000D01*
G37*
G36*
X152500000Y-154933000D02*
G01*
X151800000Y-154933000D01*
X151800000Y-147067000D01*
X152500000Y-147067000D01*
X152500000Y-154933000D01*
G37*
G36*
X153050000Y-80750000D02*
G01*
X149220000Y-80750000D01*
X149220000Y-80450000D01*
X153050000Y-80450000D01*
X153050000Y-80750000D01*
G37*
G36*
X153480000Y-76350000D02*
G01*
X146520000Y-76350000D01*
X146520000Y-76050000D01*
X153480000Y-76050000D01*
X153480000Y-76350000D01*
G37*
G36*
X154000000Y-154611000D02*
G01*
X153300000Y-154611000D01*
X153300000Y-147389000D01*
X154000000Y-147389000D01*
X154000000Y-154611000D01*
G37*
G36*
X155500000Y-155031000D02*
G01*
X154800000Y-155031000D01*
X154800000Y-146969000D01*
X155500000Y-146969000D01*
X155500000Y-155031000D01*
G37*
G36*
X157000000Y-154016000D02*
G01*
X156300000Y-154016000D01*
X156300000Y-147983999D01*
X157000000Y-147983999D01*
X157000000Y-154016000D01*
G37*
G36*
X158500000Y-155380000D02*
G01*
X157800000Y-155380000D01*
X157800000Y-146620000D01*
X158500000Y-146620000D01*
X158500000Y-155380000D01*
G37*
G36*
X160000000Y-155209000D02*
G01*
X159300000Y-155209000D01*
X159300000Y-146791000D01*
X160000000Y-146791000D01*
X160000000Y-155209000D01*
G37*
G36*
X161500000Y-154800000D02*
G01*
X160800000Y-154800000D01*
X160800000Y-147200000D01*
X161500000Y-147200000D01*
X161500000Y-154800000D01*
G37*
G36*
X163000000Y-154191000D02*
G01*
X162300000Y-154191000D01*
X162300000Y-147809000D01*
X163000000Y-147809000D01*
X163000000Y-154191000D01*
G37*
G36*
X163150000Y-80750000D02*
G01*
X158750000Y-80750000D01*
X158750000Y-80450000D01*
X163150000Y-80450000D01*
X163150000Y-80750000D01*
G37*
G36*
X164500000Y-153450000D02*
G01*
X163800000Y-153450000D01*
X163800000Y-148550000D01*
X164500000Y-148550000D01*
X164500000Y-153450000D01*
G37*
G36*
X166000000Y-153577000D02*
G01*
X165300000Y-153577000D01*
X165300000Y-148423000D01*
X166000000Y-148423000D01*
X166000000Y-153577000D01*
G37*
G36*
X166480000Y-76350000D02*
G01*
X159520000Y-76350000D01*
X159520000Y-76050000D01*
X166480000Y-76050000D01*
X166480000Y-76350000D01*
G37*
G36*
X167500000Y-154331000D02*
G01*
X166800000Y-154331000D01*
X166800000Y-147668999D01*
X167500000Y-147668999D01*
X167500000Y-154331000D01*
G37*
G36*
X169000000Y-154951000D02*
G01*
X168300000Y-154951000D01*
X168300000Y-147049000D01*
X169000000Y-147049000D01*
X169000000Y-154951000D01*
G37*
G36*
X170220000Y-80750000D02*
G01*
X168850000Y-80750000D01*
X168850000Y-80450000D01*
X170220000Y-80450000D01*
X170220000Y-80750000D01*
G37*
G36*
X170500000Y-154062000D02*
G01*
X169800000Y-154062000D01*
X169800000Y-147938000D01*
X170500000Y-147938000D01*
X170500000Y-154062000D01*
G37*
G36*
X172000000Y-154197000D02*
G01*
X171300000Y-154197000D01*
X171300000Y-147803000D01*
X172000000Y-147803000D01*
X172000000Y-154197000D01*
G37*
G36*
X173500000Y-154178000D02*
G01*
X172800000Y-154178000D01*
X172800000Y-147822000D01*
X173500000Y-147822000D01*
X173500000Y-154178000D01*
G37*
G36*
X175000000Y-154035000D02*
G01*
X174300000Y-154035000D01*
X174300000Y-147965000D01*
X175000000Y-147965000D01*
X175000000Y-154035000D01*
G37*
G36*
X176500000Y-155033000D02*
G01*
X175800000Y-155033000D01*
X175800000Y-146966999D01*
X176500000Y-146966999D01*
X176500000Y-155033000D01*
G37*
G36*
X178000000Y-155606000D02*
G01*
X177300000Y-155606000D01*
X177300000Y-146394000D01*
X178000000Y-146394000D01*
X178000000Y-155606000D01*
G37*
G36*
X179500000Y-156000000D02*
G01*
X178800000Y-156000000D01*
X178800000Y-146000000D01*
X179500000Y-146000000D01*
X179500000Y-156000000D01*
G37*
G36*
X180380000Y-80750000D02*
G01*
X173420000Y-80750000D01*
X173420000Y-80450000D01*
X180380000Y-80450000D01*
X180380000Y-80750000D01*
G37*
G36*
X180480000Y-76350000D02*
G01*
X173519999Y-76350000D01*
X173519999Y-76050000D01*
X180480000Y-76050000D01*
X180480000Y-76350000D01*
G37*
G36*
X181000000Y-154500000D02*
G01*
X180300000Y-154500000D01*
X180300000Y-147500000D01*
X181000000Y-147500000D01*
X181000000Y-154500000D01*
G37*
G36*
X182500000Y-154500000D02*
G01*
X181800000Y-154500000D01*
X181800000Y-147500000D01*
X182500000Y-147500000D01*
X182500000Y-154500000D01*
G37*
G36*
X184000000Y-154500000D02*
G01*
X183300000Y-154500000D01*
X183300000Y-147500000D01*
X184000000Y-147500000D01*
X184000000Y-154500000D01*
G37*
G36*
X185500000Y-154088000D02*
G01*
X184800000Y-154088000D01*
X184800000Y-147912000D01*
X185500000Y-147912000D01*
X185500000Y-154088000D01*
G37*
G36*
X186579999Y-76350000D02*
G01*
X183680000Y-76350000D01*
X183680000Y-76050000D01*
X186579999Y-76050000D01*
X186579999Y-76350000D01*
G37*
G36*
X186579999Y-78550000D02*
G01*
X139410000Y-78550000D01*
X139410000Y-78250000D01*
X186579999Y-78250000D01*
X186579999Y-78550000D01*
G37*
G36*
X186579999Y-80750000D02*
G01*
X183579999Y-80750000D01*
X183579999Y-80450000D01*
X186579999Y-80450000D01*
X186579999Y-80750000D01*
G37*
G36*
X186579999Y-82950000D02*
G01*
X149220000Y-82950000D01*
X149220000Y-82650000D01*
X186579999Y-82650000D01*
X186579999Y-82950000D01*
G37*
G36*
X187000000Y-154819000D02*
G01*
X186300000Y-154819000D01*
X186300000Y-147180999D01*
X187000000Y-147180999D01*
X187000000Y-154819000D01*
G37*
G36*
X188500000Y-154154000D02*
G01*
X187800000Y-154154000D01*
X187800000Y-147846000D01*
X188500000Y-147846000D01*
X188500000Y-154154000D01*
G37*
G36*
X190000000Y-154528000D02*
G01*
X189300000Y-154528000D01*
X189300000Y-147471999D01*
X190000000Y-147471999D01*
X190000000Y-154528000D01*
G37*
G36*
X196500000Y-74150000D02*
G01*
X139410000Y-74150000D01*
X139410000Y-73850000D01*
X196500000Y-73850000D01*
X196500000Y-74150000D01*
G37*
G36*
X196500000Y-76350000D02*
G01*
X192420000Y-76350000D01*
X192420000Y-76050000D01*
X196500000Y-76050000D01*
X196500000Y-76350000D01*
G37*
G36*
X196500000Y-78550000D02*
G01*
X192420000Y-78550000D01*
X192420000Y-78250000D01*
X196500000Y-78250000D01*
X196500000Y-78550000D01*
G37*
G36*
X196500000Y-80750000D02*
G01*
X192420000Y-80750000D01*
X192420000Y-80450000D01*
X196500000Y-80450000D01*
X196500000Y-80750000D01*
G37*
G36*
X196500000Y-82950000D02*
G01*
X192420000Y-82950000D01*
X192420000Y-82650000D01*
X196500000Y-82650000D01*
X196500000Y-82950000D01*
G37*
G36*
X187870000Y-131168000D02*
G01*
X187564000Y-131168000D01*
X187564000Y-132332000D01*
X187870000Y-132332000D01*
X187870000Y-132500000D01*
X187067999Y-132500000D01*
X187067999Y-132332000D01*
X187375000Y-132332000D01*
X187375000Y-131168000D01*
X187067999Y-131168000D01*
X187067999Y-131000000D01*
X187870000Y-131000000D01*
X187870000Y-131168000D01*
G37*
G36*
X111042000Y-76769000D02*
G01*
X111175000Y-76824000D01*
X111289000Y-76911000D01*
X111376000Y-77025000D01*
X111431000Y-77158000D01*
X111450000Y-77300000D01*
X111431000Y-77442000D01*
X111376000Y-77575000D01*
X111289000Y-77689000D01*
X111175000Y-77776000D01*
X111042000Y-77831000D01*
X110900000Y-77850000D01*
X110758000Y-77831000D01*
X110625000Y-77776000D01*
X110511000Y-77689000D01*
X110424000Y-77575000D01*
X110369000Y-77442000D01*
X110350000Y-77300000D01*
X110369000Y-77158000D01*
X110424000Y-77025000D01*
X110511000Y-76911000D01*
X110625000Y-76824000D01*
X110758000Y-76769000D01*
X110900000Y-76750000D01*
X111042000Y-76769000D01*
G37*
G36*
X111042000Y-78969000D02*
G01*
X111175000Y-79024000D01*
X111289000Y-79111000D01*
X111376000Y-79225000D01*
X111431000Y-79358000D01*
X111450000Y-79500000D01*
X111431000Y-79642000D01*
X111376000Y-79775000D01*
X111289000Y-79889000D01*
X111175000Y-79976000D01*
X111042000Y-80031000D01*
X110900000Y-80050000D01*
X110758000Y-80031000D01*
X110625000Y-79976000D01*
X110511000Y-79889000D01*
X110424000Y-79775000D01*
X110369000Y-79642000D01*
X110350000Y-79500000D01*
X110369000Y-79358000D01*
X110424000Y-79225000D01*
X110511000Y-79111000D01*
X110625000Y-79024000D01*
X110758000Y-78969000D01*
X110900000Y-78950000D01*
X111042000Y-78969000D01*
G37*
G36*
X104603000Y-129958000D02*
G01*
X104610000Y-129982000D01*
X104617000Y-130007000D01*
X104624000Y-130031000D01*
X104631000Y-130055000D01*
X104637000Y-130079000D01*
X104643000Y-130102000D01*
X104649000Y-130126000D01*
X104654000Y-130149000D01*
X104659000Y-130170999D01*
X104664000Y-130192000D01*
X104669000Y-130211999D01*
X104674000Y-130231000D01*
X104678000Y-130247999D01*
X104682000Y-130264000D01*
X104686000Y-130279000D01*
X104690000Y-130292000D01*
X104693000Y-130279000D01*
X104697000Y-130264000D01*
X104701000Y-130247999D01*
X104705000Y-130231000D01*
X104710000Y-130211999D01*
X104715000Y-130192000D01*
X104720000Y-130170999D01*
X104726000Y-130149000D01*
X104732000Y-130126000D01*
X104739000Y-130102000D01*
X104746000Y-130079000D01*
X104753000Y-130055000D01*
X104760000Y-130031000D01*
X104768000Y-130007000D01*
X104775000Y-129982000D01*
X104784000Y-129958000D01*
X105145000Y-128841999D01*
X105438000Y-128841999D01*
X104874000Y-130500000D01*
X104518000Y-130500000D01*
X103955000Y-128841999D01*
X104241000Y-128841999D01*
X104603000Y-129958000D01*
G37*
G36*
X188876000Y-132019000D02*
G01*
X188882999Y-132045999D01*
X188889000Y-132072000D01*
X188894999Y-132096999D01*
X188901000Y-132122000D01*
X188906999Y-132146999D01*
X188912000Y-132170999D01*
X188917000Y-132194000D01*
X188922000Y-132216999D01*
X188927000Y-132240000D01*
X188930999Y-132259999D01*
X188935000Y-132280000D01*
X188939000Y-132298000D01*
X188942000Y-132315000D01*
X188945000Y-132329999D01*
X188948000Y-132344000D01*
X188950000Y-132356000D01*
X188952000Y-132344000D01*
X188954999Y-132329999D01*
X188957000Y-132315000D01*
X188961000Y-132298000D01*
X188964000Y-132280000D01*
X188968000Y-132261000D01*
X188971000Y-132240000D01*
X188976000Y-132218000D01*
X188980000Y-132196000D01*
X188985000Y-132172000D01*
X188990000Y-132148000D01*
X188995000Y-132124000D01*
X189001000Y-132098999D01*
X189007000Y-132074000D01*
X189013000Y-132048000D01*
X189019999Y-132021000D01*
X189277000Y-131000000D01*
X189466000Y-131000000D01*
X189079000Y-132500000D01*
X188827000Y-132500000D01*
X188438000Y-131000000D01*
X188629000Y-131000000D01*
X188876000Y-132019000D01*
G37*
G36*
X121507000Y-128547000D02*
G01*
X120935000Y-128547000D01*
X120935000Y-130033000D01*
X120933000Y-130084000D01*
X120927000Y-130132999D01*
X120916000Y-130179000D01*
X120902000Y-130223000D01*
X120884000Y-130264000D01*
X120861000Y-130303000D01*
X120834000Y-130339000D01*
X120804000Y-130372000D01*
X120770000Y-130401999D01*
X120733000Y-130428000D01*
X120693000Y-130449999D01*
X120650000Y-130468000D01*
X120605000Y-130482000D01*
X120557000Y-130492000D01*
X120506000Y-130497999D01*
X120453000Y-130500000D01*
X119940000Y-130500000D01*
X119940000Y-130252999D01*
X120453000Y-130252999D01*
X120476000Y-130252000D01*
X120498000Y-130249000D01*
X120519000Y-130245000D01*
X120539000Y-130238000D01*
X120558000Y-130230000D01*
X120575000Y-130220000D01*
X120591000Y-130208000D01*
X120606000Y-130194000D01*
X120620000Y-130179000D01*
X120631000Y-130162000D01*
X120641000Y-130144000D01*
X120649000Y-130124000D01*
X120656000Y-130103999D01*
X120660000Y-130081000D01*
X120663000Y-130058000D01*
X120664000Y-130033000D01*
X120664000Y-128300000D01*
X121507000Y-128300000D01*
X121507000Y-128547000D01*
G37*
G36*
X130433000Y-102638000D02*
G01*
X130787000Y-102723999D01*
X131119000Y-102863000D01*
X131423000Y-103050000D01*
X131695000Y-103280000D01*
X131928000Y-103549000D01*
X132119000Y-103853000D01*
X132261000Y-104187000D01*
X132351000Y-104547000D01*
X132382000Y-104929000D01*
X132351000Y-105300000D01*
X132261000Y-105655000D01*
X132119000Y-105987000D01*
X131928000Y-106291000D01*
X131695000Y-106562000D01*
X131423000Y-106795999D01*
X131119000Y-106987000D01*
X130787000Y-107128999D01*
X130433000Y-107218000D01*
X130061000Y-107249000D01*
X129680000Y-107218000D01*
X129319000Y-107128999D01*
X128985000Y-106987000D01*
X128680999Y-106795999D01*
X128412000Y-106562000D01*
X128182000Y-106291000D01*
X127995000Y-105987000D01*
X127857000Y-105655000D01*
X127770000Y-105300000D01*
X127740000Y-104929000D01*
X127770000Y-104547000D01*
X127857000Y-104187000D01*
X127995000Y-103853000D01*
X128182000Y-103549000D01*
X128412000Y-103280000D01*
X128680999Y-103050000D01*
X128985000Y-102863000D01*
X129319000Y-102723999D01*
X129680000Y-102638000D01*
X130061000Y-102608000D01*
X130433000Y-102638000D01*
G37*
G36*
X146270000Y-110863000D02*
G01*
X146624000Y-110952000D01*
X146956000Y-111095000D01*
X147260000Y-111285000D01*
X147531999Y-111519000D01*
X147765000Y-111791000D01*
X147956000Y-112095000D01*
X148099000Y-112426999D01*
X148188000Y-112781000D01*
X148219000Y-113152999D01*
X148188000Y-113533999D01*
X148099000Y-113894000D01*
X147956000Y-114228000D01*
X147765000Y-114532000D01*
X147531999Y-114801999D01*
X147260000Y-115032000D01*
X146956000Y-115218000D01*
X146624000Y-115357000D01*
X146270000Y-115443000D01*
X145898000Y-115473000D01*
X145517000Y-115443000D01*
X145156999Y-115357000D01*
X144822000Y-115218000D01*
X144519000Y-115032000D01*
X144249000Y-114801999D01*
X144019000Y-114532000D01*
X143833000Y-114228000D01*
X143694000Y-113894000D01*
X143607000Y-113533999D01*
X143578000Y-113152999D01*
X143607000Y-112781000D01*
X143694000Y-112426999D01*
X143833000Y-112095000D01*
X144019000Y-111791000D01*
X144249000Y-111519000D01*
X144519000Y-111285000D01*
X144822000Y-111095000D01*
X145156999Y-110952000D01*
X145517000Y-110863000D01*
X145898000Y-110832000D01*
X146270000Y-110863000D01*
G37*
G36*
X144997000Y-119542000D02*
G01*
X145805000Y-120997000D01*
X146466999Y-122189000D01*
X146914000Y-122994000D01*
X147079000Y-123289999D01*
X147102000Y-123340000D01*
X147123000Y-123392000D01*
X147141000Y-123445000D01*
X147156999Y-123500000D01*
X147170000Y-123555000D01*
X147180999Y-123610000D01*
X147190000Y-123664000D01*
X147196000Y-123717000D01*
X147200000Y-123769000D01*
X147201000Y-123819000D01*
X147187000Y-124011000D01*
X147145000Y-124192000D01*
X147078000Y-124362000D01*
X146987000Y-124516000D01*
X146875000Y-124654000D01*
X146744000Y-124772000D01*
X146595000Y-124868000D01*
X146430000Y-124940000D01*
X146251000Y-124985000D01*
X146061000Y-125000000D01*
X145939000Y-124993000D01*
X145817999Y-124972000D01*
X145700000Y-124937000D01*
X145586000Y-124891000D01*
X145476000Y-124832000D01*
X145372000Y-124763000D01*
X145276000Y-124683000D01*
X145188000Y-124594000D01*
X145110000Y-124495000D01*
X145043000Y-124389000D01*
X144866000Y-124070000D01*
X144386000Y-123202000D01*
X143677000Y-121920000D01*
X143278000Y-121200000D01*
X144520000Y-121200000D01*
X144520000Y-118682000D01*
X144997000Y-119542000D01*
G37*
G36*
X193405000Y-131649000D02*
G01*
X193596000Y-131000000D01*
X193869000Y-131000000D01*
X193869000Y-132500000D01*
X193690000Y-132500000D01*
X193690000Y-131791000D01*
X193691000Y-131740999D01*
X193691000Y-131691000D01*
X193691000Y-131642000D01*
X193692000Y-131593000D01*
X193692999Y-131545999D01*
X193694000Y-131499000D01*
X193695000Y-131452000D01*
X193697000Y-131406999D01*
X193698000Y-131362000D01*
X193700000Y-131317999D01*
X193703000Y-131275000D01*
X193704999Y-131233000D01*
X193708000Y-131192000D01*
X193712000Y-131151999D01*
X193715000Y-131112000D01*
X193719000Y-131074000D01*
X193487000Y-131829999D01*
X193327000Y-131829999D01*
X193084000Y-131055000D01*
X193086000Y-131083000D01*
X193088000Y-131110999D01*
X193090000Y-131139000D01*
X193091999Y-131168999D01*
X193094000Y-131199000D01*
X193095000Y-131231000D01*
X193096999Y-131263000D01*
X193099000Y-131295999D01*
X193100000Y-131329000D01*
X193102000Y-131362000D01*
X193103000Y-131396000D01*
X193103999Y-131429000D01*
X193105000Y-131461999D01*
X193106000Y-131494000D01*
X193107000Y-131526999D01*
X193108000Y-131560000D01*
X193108999Y-131591999D01*
X193108999Y-131622999D01*
X193110000Y-131654000D01*
X193110000Y-131683000D01*
X193111000Y-131711000D01*
X193111000Y-131739000D01*
X193111000Y-131764999D01*
X193111000Y-131791000D01*
X193111000Y-132500000D01*
X192932000Y-132500000D01*
X192932000Y-131000000D01*
X193204999Y-131000000D01*
X193405000Y-131649000D01*
G37*
G36*
X194888000Y-131649000D02*
G01*
X195079000Y-131000000D01*
X195352000Y-131000000D01*
X195352000Y-132500000D01*
X195173000Y-132500000D01*
X195173000Y-131791000D01*
X195173000Y-131740999D01*
X195174000Y-131691000D01*
X195174000Y-131642000D01*
X195175000Y-131593000D01*
X195176000Y-131545999D01*
X195177000Y-131499000D01*
X195178000Y-131452000D01*
X195179000Y-131406999D01*
X195180999Y-131362000D01*
X195183000Y-131317999D01*
X195186000Y-131275000D01*
X195188000Y-131233000D01*
X195191000Y-131192000D01*
X195194000Y-131151999D01*
X195198000Y-131112000D01*
X195202000Y-131074000D01*
X194970000Y-131829999D01*
X194810000Y-131829999D01*
X194567000Y-131055000D01*
X194569000Y-131083000D01*
X194571000Y-131110999D01*
X194573000Y-131139000D01*
X194575000Y-131168999D01*
X194577000Y-131199000D01*
X194578000Y-131231000D01*
X194579999Y-131263000D01*
X194582000Y-131295999D01*
X194583000Y-131329000D01*
X194584000Y-131362000D01*
X194586000Y-131396000D01*
X194587000Y-131429000D01*
X194588000Y-131461999D01*
X194589000Y-131494000D01*
X194590000Y-131526999D01*
X194591000Y-131560000D01*
X194591000Y-131591999D01*
X194591999Y-131622999D01*
X194593000Y-131654000D01*
X194593000Y-131683000D01*
X194593000Y-131711000D01*
X194594000Y-131739000D01*
X194594000Y-131764999D01*
X194594000Y-131791000D01*
X194594000Y-132500000D01*
X194415000Y-132500000D01*
X194415000Y-131000000D01*
X194688000Y-131000000D01*
X194888000Y-131649000D01*
G37*
G36*
X109726000Y-128814000D02*
G01*
X109770000Y-128817999D01*
X109813000Y-128824999D01*
X109852000Y-128836000D01*
X109889000Y-128848999D01*
X109924000Y-128865000D01*
X109956000Y-128884000D01*
X109986000Y-128906000D01*
X110013000Y-128930000D01*
X110038000Y-128957000D01*
X110059000Y-128985000D01*
X110077000Y-129016000D01*
X110093000Y-129048000D01*
X110106000Y-129083000D01*
X110115000Y-129120000D01*
X110122000Y-129158999D01*
X110128000Y-129158999D01*
X110128000Y-128841999D01*
X110399000Y-128841999D01*
X110399000Y-130500000D01*
X110128000Y-130500000D01*
X110128000Y-129445000D01*
X110126000Y-129398000D01*
X110122000Y-129353999D01*
X110115000Y-129312999D01*
X110105000Y-129275000D01*
X110091000Y-129239000D01*
X110075000Y-129207000D01*
X110056000Y-129177000D01*
X110035000Y-129150000D01*
X110010000Y-129126000D01*
X109983000Y-129105000D01*
X109953000Y-129086999D01*
X109920000Y-129072999D01*
X109885000Y-129062000D01*
X109847000Y-129054000D01*
X109806000Y-129049000D01*
X109763000Y-129047000D01*
X109681000Y-129053000D01*
X109609000Y-129070000D01*
X109548000Y-129098000D01*
X109499000Y-129138000D01*
X109460000Y-129189000D01*
X109433000Y-129251000D01*
X109416000Y-129324000D01*
X109411000Y-129408999D01*
X109411000Y-129550999D01*
X109139000Y-129550999D01*
X109139000Y-129408999D01*
X109142000Y-129340000D01*
X109148000Y-129274000D01*
X109159000Y-129213000D01*
X109174000Y-129156000D01*
X109194000Y-129102000D01*
X109218000Y-129053000D01*
X109247000Y-129007999D01*
X109280000Y-128968000D01*
X109316000Y-128930999D01*
X109357000Y-128900000D01*
X109401000Y-128872999D01*
X109449000Y-128851000D01*
X109501000Y-128834000D01*
X109557000Y-128822000D01*
X109616000Y-128815000D01*
X109679000Y-128812000D01*
X109726000Y-128814000D01*
G37*
G36*
X126377000Y-128814000D02*
G01*
X126421000Y-128817999D01*
X126463000Y-128824999D01*
X126502000Y-128834999D01*
X126539000Y-128848000D01*
X126573000Y-128863000D01*
X126606000Y-128882000D01*
X126635000Y-128903000D01*
X126663000Y-128927000D01*
X126687000Y-128953000D01*
X126708000Y-128981000D01*
X126727000Y-129012000D01*
X126742000Y-129045000D01*
X126755000Y-129081000D01*
X126764000Y-129119000D01*
X126771000Y-129158999D01*
X126774000Y-129158999D01*
X126774000Y-128841999D01*
X127045000Y-128841999D01*
X127045000Y-130500000D01*
X126774000Y-130500000D01*
X126774000Y-129445000D01*
X126772000Y-129398000D01*
X126768000Y-129353999D01*
X126760000Y-129312999D01*
X126749000Y-129274000D01*
X126736000Y-129238000D01*
X126719000Y-129204999D01*
X126699000Y-129175000D01*
X126676000Y-129146999D01*
X126650000Y-129122000D01*
X126623000Y-129101000D01*
X126593000Y-129083000D01*
X126560000Y-129067999D01*
X126526000Y-129055999D01*
X126489000Y-129048000D01*
X126450000Y-129043000D01*
X126409000Y-129041000D01*
X126370000Y-129043000D01*
X126332000Y-129048000D01*
X126297000Y-129055999D01*
X126264000Y-129067000D01*
X126232000Y-129081000D01*
X126203000Y-129098000D01*
X126176000Y-129119000D01*
X126152000Y-129142000D01*
X126129000Y-129168999D01*
X126110000Y-129197999D01*
X126094000Y-129231000D01*
X126080000Y-129266000D01*
X126070000Y-129303000D01*
X126063000Y-129344000D01*
X126058000Y-129387000D01*
X126057000Y-129433000D01*
X126057000Y-130500000D01*
X125785000Y-130500000D01*
X125785000Y-129384999D01*
X125788000Y-129320000D01*
X125795000Y-129259000D01*
X125806000Y-129202000D01*
X125822000Y-129148000D01*
X125843000Y-129096999D01*
X125869000Y-129050000D01*
X125899000Y-129006000D01*
X125933000Y-128966000D01*
X125972000Y-128930000D01*
X126013000Y-128899000D01*
X126058000Y-128872000D01*
X126106000Y-128851000D01*
X126158000Y-128834000D01*
X126212000Y-128822000D01*
X126270000Y-128815000D01*
X126331000Y-128812000D01*
X126377000Y-128814000D01*
G37*
G36*
X135329999Y-128814000D02*
G01*
X135374000Y-128817999D01*
X135416000Y-128824999D01*
X135454999Y-128834999D01*
X135492000Y-128848000D01*
X135526000Y-128863000D01*
X135558000Y-128882000D01*
X135588000Y-128903000D01*
X135615000Y-128927000D01*
X135640000Y-128953000D01*
X135661000Y-128981000D01*
X135679000Y-129012000D01*
X135695000Y-129045000D01*
X135707000Y-129081000D01*
X135716999Y-129119000D01*
X135724000Y-129158999D01*
X135727000Y-129158999D01*
X135727000Y-128841999D01*
X135998000Y-128841999D01*
X135998000Y-130500000D01*
X135727000Y-130500000D01*
X135727000Y-129445000D01*
X135725000Y-129398000D01*
X135721000Y-129353999D01*
X135713000Y-129312999D01*
X135702000Y-129274000D01*
X135689000Y-129238000D01*
X135672000Y-129204999D01*
X135652000Y-129175000D01*
X135629000Y-129146999D01*
X135603000Y-129122000D01*
X135576000Y-129101000D01*
X135545000Y-129083000D01*
X135513000Y-129067999D01*
X135478999Y-129055999D01*
X135442000Y-129048000D01*
X135403000Y-129043000D01*
X135362000Y-129041000D01*
X135322999Y-129043000D01*
X135285000Y-129048000D01*
X135250000Y-129055999D01*
X135216000Y-129067000D01*
X135185000Y-129081000D01*
X135156000Y-129098000D01*
X135129000Y-129119000D01*
X135105000Y-129142000D01*
X135082000Y-129168999D01*
X135063000Y-129197999D01*
X135047000Y-129231000D01*
X135033000Y-129266000D01*
X135023000Y-129303000D01*
X135016000Y-129344000D01*
X135011000Y-129387000D01*
X135010000Y-129433000D01*
X135010000Y-130500000D01*
X134738000Y-130500000D01*
X134738000Y-129384999D01*
X134741000Y-129320000D01*
X134748000Y-129259000D01*
X134759000Y-129202000D01*
X134775000Y-129148000D01*
X134796000Y-129096999D01*
X134821000Y-129050000D01*
X134851000Y-129006000D01*
X134886000Y-128966000D01*
X134925000Y-128930000D01*
X134966000Y-128899000D01*
X135011000Y-128872000D01*
X135059000Y-128851000D01*
X135111000Y-128834000D01*
X135165000Y-128822000D01*
X135223000Y-128815000D01*
X135284000Y-128812000D01*
X135329999Y-128814000D01*
G37*
G36*
X190363000Y-131444000D02*
G01*
X190368000Y-131453000D01*
X190372000Y-131461999D01*
X190377000Y-131471000D01*
X190382000Y-131480000D01*
X190387000Y-131490000D01*
X190391000Y-131499000D01*
X190396000Y-131509000D01*
X190401000Y-131519000D01*
X190406000Y-131529000D01*
X190410000Y-131538000D01*
X190414000Y-131545999D01*
X190418000Y-131555000D01*
X190422000Y-131562000D01*
X190425000Y-131569000D01*
X190428000Y-131576000D01*
X190430999Y-131582000D01*
X190434000Y-131576000D01*
X190437000Y-131569000D01*
X190441000Y-131562000D01*
X190445000Y-131555000D01*
X190449000Y-131545999D01*
X190453000Y-131538000D01*
X190458000Y-131529000D01*
X190463000Y-131519000D01*
X190468000Y-131509000D01*
X190471999Y-131499000D01*
X190477000Y-131490000D01*
X190482000Y-131480000D01*
X190487000Y-131471000D01*
X190491000Y-131461999D01*
X190495999Y-131453000D01*
X190501000Y-131444000D01*
X190733000Y-131000000D01*
X190947000Y-131000000D01*
X190538000Y-131740000D01*
X190969000Y-132500000D01*
X190764000Y-132500000D01*
X190505000Y-132021000D01*
X190500000Y-132012000D01*
X190495000Y-132004000D01*
X190491000Y-131994000D01*
X190486000Y-131985000D01*
X190481000Y-131976000D01*
X190476000Y-131966999D01*
X190471999Y-131957000D01*
X190466999Y-131947000D01*
X190462000Y-131937999D01*
X190458000Y-131929000D01*
X190453000Y-131920000D01*
X190450000Y-131912000D01*
X190446000Y-131904000D01*
X190442999Y-131896999D01*
X190440000Y-131889999D01*
X190437000Y-131884000D01*
X190434000Y-131889999D01*
X190430999Y-131896999D01*
X190428000Y-131904000D01*
X190424000Y-131912000D01*
X190421000Y-131920000D01*
X190416000Y-131929000D01*
X190412000Y-131939000D01*
X190406999Y-131947999D01*
X190402000Y-131958000D01*
X190397000Y-131968000D01*
X190393000Y-131978000D01*
X190388000Y-131987000D01*
X190382999Y-131995999D01*
X190378000Y-132006000D01*
X190374000Y-132014000D01*
X190369000Y-132023000D01*
X190112000Y-132500000D01*
X189901000Y-132500000D01*
X190332000Y-131727000D01*
X189923000Y-131000000D01*
X190127000Y-131000000D01*
X190363000Y-131444000D01*
G37*
G36*
X191846000Y-131444000D02*
G01*
X191851000Y-131453000D01*
X191855000Y-131461999D01*
X191860000Y-131471000D01*
X191865000Y-131480000D01*
X191869000Y-131490000D01*
X191874000Y-131499000D01*
X191879000Y-131509000D01*
X191884000Y-131519000D01*
X191889000Y-131529000D01*
X191893000Y-131538000D01*
X191897000Y-131545999D01*
X191901000Y-131555000D01*
X191905000Y-131562000D01*
X191908000Y-131569000D01*
X191911000Y-131576000D01*
X191914000Y-131582000D01*
X191917000Y-131576000D01*
X191920000Y-131569000D01*
X191924000Y-131562000D01*
X191928000Y-131555000D01*
X191932000Y-131545999D01*
X191936000Y-131538000D01*
X191941000Y-131529000D01*
X191946000Y-131519000D01*
X191950000Y-131509000D01*
X191954999Y-131499000D01*
X191959999Y-131490000D01*
X191965000Y-131480000D01*
X191970000Y-131471000D01*
X191974000Y-131461999D01*
X191978999Y-131453000D01*
X191983999Y-131444000D01*
X192216000Y-131000000D01*
X192429000Y-131000000D01*
X192021000Y-131740000D01*
X192452000Y-132500000D01*
X192247000Y-132500000D01*
X191988000Y-132021000D01*
X191983000Y-132012000D01*
X191978000Y-132004000D01*
X191974000Y-131994000D01*
X191969000Y-131985000D01*
X191964000Y-131976000D01*
X191959000Y-131966999D01*
X191954999Y-131957000D01*
X191950000Y-131947000D01*
X191945000Y-131937999D01*
X191940000Y-131929000D01*
X191936000Y-131920000D01*
X191932000Y-131912000D01*
X191929000Y-131904000D01*
X191926000Y-131896999D01*
X191923000Y-131889999D01*
X191920000Y-131884000D01*
X191917000Y-131889999D01*
X191914000Y-131896999D01*
X191911000Y-131904000D01*
X191906999Y-131912000D01*
X191903000Y-131920000D01*
X191899000Y-131929000D01*
X191894999Y-131939000D01*
X191890000Y-131947999D01*
X191885000Y-131958000D01*
X191880000Y-131968000D01*
X191876000Y-131978000D01*
X191870999Y-131987000D01*
X191866000Y-131995999D01*
X191861000Y-132006000D01*
X191857000Y-132014000D01*
X191852000Y-132023000D01*
X191595000Y-132500000D01*
X191384000Y-132500000D01*
X191815000Y-131727000D01*
X191406000Y-131000000D01*
X191610000Y-131000000D01*
X191846000Y-131444000D01*
G37*
G36*
X102867000Y-128273000D02*
G01*
X102936000Y-128281000D01*
X103001000Y-128293999D01*
X103063000Y-128314000D01*
X103121000Y-128338000D01*
X103175000Y-128368000D01*
X103226000Y-128404000D01*
X103273000Y-128445000D01*
X103316000Y-128490000D01*
X103353000Y-128540000D01*
X103385000Y-128593000D01*
X103411000Y-128650000D01*
X103432000Y-128711000D01*
X103448000Y-128776000D01*
X103458000Y-128845000D01*
X103463000Y-128918000D01*
X103192000Y-128918000D01*
X103190000Y-128872000D01*
X103185000Y-128829000D01*
X103177000Y-128788000D01*
X103165000Y-128750000D01*
X103150000Y-128714000D01*
X103132000Y-128680999D01*
X103110000Y-128650000D01*
X103085000Y-128620999D01*
X103057000Y-128595000D01*
X103026000Y-128572999D01*
X102994000Y-128554000D01*
X102959000Y-128538000D01*
X102921000Y-128526000D01*
X102881000Y-128518000D01*
X102839000Y-128513000D01*
X102794000Y-128511000D01*
X102751000Y-128513000D01*
X102710000Y-128518000D01*
X102671000Y-128526000D01*
X102635000Y-128538000D01*
X102601000Y-128553000D01*
X102569000Y-128571000D01*
X102539000Y-128593000D01*
X102512000Y-128618000D01*
X102488000Y-128646000D01*
X102467000Y-128675999D01*
X102449000Y-128709000D01*
X102434000Y-128743000D01*
X102423000Y-128781000D01*
X102415000Y-128820000D01*
X102410000Y-128862000D01*
X102408000Y-128906000D01*
X102409000Y-128937000D01*
X102412000Y-128969000D01*
X102418000Y-129002000D01*
X102425000Y-129033999D01*
X102434000Y-129066000D01*
X102446000Y-129098999D01*
X102459000Y-129132000D01*
X102475000Y-129165000D01*
X102493000Y-129199000D01*
X102514000Y-129233000D01*
X102537000Y-129269000D01*
X102564000Y-129307000D01*
X102594000Y-129345000D01*
X102627000Y-129384000D01*
X102662000Y-129425000D01*
X102701000Y-129466000D01*
X103433000Y-130250000D01*
X103433000Y-130500000D01*
X102104000Y-130500000D01*
X102104000Y-130252999D01*
X103104000Y-130252999D01*
X102511000Y-129632000D01*
X102461000Y-129578000D01*
X102414000Y-129526000D01*
X102372000Y-129475000D01*
X102333000Y-129425999D01*
X102298000Y-129377000D01*
X102267000Y-129329999D01*
X102240000Y-129285000D01*
X102217000Y-129240000D01*
X102197000Y-129197000D01*
X102179000Y-129154000D01*
X102165000Y-129112000D01*
X102152000Y-129070000D01*
X102143000Y-129029000D01*
X102136000Y-128988000D01*
X102132000Y-128947999D01*
X102131000Y-128908999D01*
X102134000Y-128836999D01*
X102142000Y-128769000D01*
X102156000Y-128704999D01*
X102176000Y-128644000D01*
X102201000Y-128588000D01*
X102232000Y-128535000D01*
X102268000Y-128487000D01*
X102310000Y-128442000D01*
X102357000Y-128401000D01*
X102408000Y-128365999D01*
X102462000Y-128336999D01*
X102521000Y-128312999D01*
X102583000Y-128293999D01*
X102650000Y-128281000D01*
X102720000Y-128273000D01*
X102794000Y-128269999D01*
X102867000Y-128273000D01*
G37*
G36*
X130283999Y-128815000D02*
G01*
X130353999Y-128822999D01*
X130420000Y-128836000D01*
X130482000Y-128855000D01*
X130540000Y-128877999D01*
X130595000Y-128906999D01*
X130646000Y-128942000D01*
X130692999Y-128981000D01*
X130735000Y-129025000D01*
X130771999Y-129072999D01*
X130803000Y-129125000D01*
X130828000Y-129182000D01*
X130848000Y-129240999D01*
X130862000Y-129305000D01*
X130870999Y-129372999D01*
X130874000Y-129445000D01*
X130874000Y-129896999D01*
X130870999Y-129969000D01*
X130862000Y-130037000D01*
X130848000Y-130101000D01*
X130828000Y-130161000D01*
X130803000Y-130216999D01*
X130771999Y-130269000D01*
X130735000Y-130317000D01*
X130692999Y-130360999D01*
X130646000Y-130401000D01*
X130595000Y-130435000D01*
X130540000Y-130464000D01*
X130482000Y-130488000D01*
X130420000Y-130506000D01*
X130353999Y-130519999D01*
X130283999Y-130528000D01*
X130211000Y-130530000D01*
X130141000Y-130528000D01*
X130074000Y-130521000D01*
X130011000Y-130509000D01*
X129952000Y-130492000D01*
X129896000Y-130470000D01*
X129843000Y-130444000D01*
X129793999Y-130412000D01*
X129747999Y-130376000D01*
X129707000Y-130336000D01*
X129670000Y-130293000D01*
X129639000Y-130245000D01*
X129614000Y-130195000D01*
X129593000Y-130141000D01*
X129578000Y-130083000D01*
X129567999Y-130021999D01*
X129562999Y-129958000D01*
X129834000Y-129958000D01*
X129838000Y-129995999D01*
X129844000Y-130031999D01*
X129853000Y-130065000D01*
X129865999Y-130096999D01*
X129881000Y-130126000D01*
X129898000Y-130154000D01*
X129918999Y-130179000D01*
X129942000Y-130202000D01*
X129968000Y-130221999D01*
X129997000Y-130240000D01*
X130026999Y-130255000D01*
X130059000Y-130267000D01*
X130094000Y-130276999D01*
X130131000Y-130283999D01*
X130170000Y-130288000D01*
X130211000Y-130288999D01*
X130254000Y-130287000D01*
X130295000Y-130283000D01*
X130334000Y-130275000D01*
X130370999Y-130263000D01*
X130405000Y-130249000D01*
X130437999Y-130231000D01*
X130468000Y-130211000D01*
X130495000Y-130187000D01*
X130521000Y-130160000D01*
X130542000Y-130130000D01*
X130561000Y-130098000D01*
X130576000Y-130062999D01*
X130586999Y-130026000D01*
X130596000Y-129985000D01*
X130601000Y-129942999D01*
X130602000Y-129896999D01*
X130602000Y-129442000D01*
X130601000Y-129396999D01*
X130596000Y-129353999D01*
X130586999Y-129314000D01*
X130576000Y-129276999D01*
X130561000Y-129242000D01*
X130542000Y-129209999D01*
X130521000Y-129180999D01*
X130495000Y-129154000D01*
X130468000Y-129131000D01*
X130437999Y-129110000D01*
X130405000Y-129093000D01*
X130370999Y-129079000D01*
X130334000Y-129067999D01*
X130295000Y-129060000D01*
X130254000Y-129055000D01*
X130211000Y-129053000D01*
X130170000Y-129055000D01*
X130131000Y-129059000D01*
X130094000Y-129066000D01*
X130059000Y-129074999D01*
X130026999Y-129086999D01*
X129997000Y-129102000D01*
X129968000Y-129119000D01*
X129942000Y-129139000D01*
X129918999Y-129162000D01*
X129898000Y-129187000D01*
X129881000Y-129214000D01*
X129865999Y-129244000D01*
X129853000Y-129276000D01*
X129844000Y-129310000D01*
X129838000Y-129346000D01*
X129834000Y-129384999D01*
X129562999Y-129384999D01*
X129567999Y-129320000D01*
X129578000Y-129259000D01*
X129593000Y-129202000D01*
X129614000Y-129148000D01*
X129639000Y-129096999D01*
X129670000Y-129050000D01*
X129707000Y-129006000D01*
X129747999Y-128966000D01*
X129793999Y-128930000D01*
X129843000Y-128899000D01*
X129896000Y-128872000D01*
X129952000Y-128851000D01*
X130011000Y-128834000D01*
X130074000Y-128822000D01*
X130141000Y-128815000D01*
X130211000Y-128812000D01*
X130283999Y-128815000D01*
G37*
G36*
X113722000Y-128821000D02*
G01*
X113792000Y-128829000D01*
X113857000Y-128843000D01*
X113919000Y-128862000D01*
X113976000Y-128886000D01*
X114030000Y-128916000D01*
X114080000Y-128951000D01*
X114125000Y-128992000D01*
X114166000Y-129037000D01*
X114202000Y-129086999D01*
X114232000Y-129142000D01*
X114256000Y-129201000D01*
X114275000Y-129264000D01*
X114289000Y-129332000D01*
X114297000Y-129404000D01*
X114300000Y-129481000D01*
X114300000Y-129860999D01*
X114297000Y-129937000D01*
X114289000Y-130009000D01*
X114275000Y-130077000D01*
X114256000Y-130139999D01*
X114231000Y-130199000D01*
X114201000Y-130252999D01*
X114165000Y-130303000D01*
X114124000Y-130348999D01*
X114078000Y-130389999D01*
X114028000Y-130425999D01*
X113974000Y-130456000D01*
X113917000Y-130480000D01*
X113856000Y-130500000D01*
X113791000Y-130513000D01*
X113722000Y-130521000D01*
X113649000Y-130524000D01*
X113576000Y-130521000D01*
X113507000Y-130513000D01*
X113442000Y-130500000D01*
X113381000Y-130480000D01*
X113324000Y-130456000D01*
X113270000Y-130425999D01*
X113220000Y-130389999D01*
X113174000Y-130348999D01*
X113133000Y-130303000D01*
X113097000Y-130252999D01*
X113067000Y-130199000D01*
X113042000Y-130139999D01*
X113023000Y-130077000D01*
X113009000Y-130009000D01*
X113001000Y-129937000D01*
X112999184Y-129891000D01*
X113269000Y-129891000D01*
X113271000Y-129937999D01*
X113276000Y-129982000D01*
X113284000Y-130023000D01*
X113295000Y-130061000D01*
X113309000Y-130096000D01*
X113326000Y-130127999D01*
X113347000Y-130156999D01*
X113370000Y-130184000D01*
X113397000Y-130207000D01*
X113426000Y-130227000D01*
X113457000Y-130244000D01*
X113490000Y-130257999D01*
X113526000Y-130269000D01*
X113565000Y-130276999D01*
X113606000Y-130281000D01*
X113649000Y-130283000D01*
X113692000Y-130281000D01*
X113732000Y-130276999D01*
X113770000Y-130269000D01*
X113806000Y-130257999D01*
X113839000Y-130244000D01*
X113871000Y-130227000D01*
X113900000Y-130207000D01*
X113926000Y-130184000D01*
X113950000Y-130156999D01*
X113971000Y-130127999D01*
X113989000Y-130096000D01*
X114003000Y-130061000D01*
X114014000Y-130023000D01*
X114022000Y-129982000D01*
X114027000Y-129937999D01*
X114029000Y-129891000D01*
X114029000Y-129451000D01*
X114027000Y-129404000D01*
X114022000Y-129360999D01*
X114014000Y-129320000D01*
X114003000Y-129281999D01*
X113989000Y-129247000D01*
X113971000Y-129214000D01*
X113950000Y-129185000D01*
X113926000Y-129158999D01*
X113900000Y-129136000D01*
X113871000Y-129115000D01*
X113839000Y-129098000D01*
X113806000Y-129084000D01*
X113770000Y-129072999D01*
X113732000Y-129066000D01*
X113692000Y-129061000D01*
X113649000Y-129059000D01*
X113606000Y-129061000D01*
X113565000Y-129066000D01*
X113526000Y-129072999D01*
X113490000Y-129084000D01*
X113457000Y-129098000D01*
X113426000Y-129115000D01*
X113397000Y-129136000D01*
X113370000Y-129158999D01*
X113347000Y-129185000D01*
X113326000Y-129214000D01*
X113309000Y-129247000D01*
X113295000Y-129281999D01*
X113284000Y-129320000D01*
X113276000Y-129360999D01*
X113271000Y-129404000D01*
X113269000Y-129451000D01*
X113269000Y-129891000D01*
X112999184Y-129891000D01*
X112998000Y-129860999D01*
X112998000Y-129481000D01*
X112999169Y-129451000D01*
X113001000Y-129404000D01*
X113009000Y-129332000D01*
X113023000Y-129264000D01*
X113042000Y-129201000D01*
X113066000Y-129142000D01*
X113096000Y-129086999D01*
X113132000Y-129037000D01*
X113173000Y-128992000D01*
X113219000Y-128951000D01*
X113268000Y-128916000D01*
X113322000Y-128886000D01*
X113379000Y-128862000D01*
X113441000Y-128843000D01*
X113506000Y-128829000D01*
X113576000Y-128821000D01*
X113649000Y-128817999D01*
X113722000Y-128821000D01*
G37*
G36*
X122675000Y-128821000D02*
G01*
X122745000Y-128829000D01*
X122810000Y-128843000D01*
X122872000Y-128862000D01*
X122929000Y-128886000D01*
X122983000Y-128916000D01*
X123032000Y-128951000D01*
X123078000Y-128992000D01*
X123119000Y-129037000D01*
X123155000Y-129086999D01*
X123185000Y-129142000D01*
X123209000Y-129201000D01*
X123228000Y-129264000D01*
X123242000Y-129332000D01*
X123250000Y-129404000D01*
X123253000Y-129481000D01*
X123253000Y-129860999D01*
X123250000Y-129937000D01*
X123242000Y-130009000D01*
X123228000Y-130077000D01*
X123209000Y-130139999D01*
X123184000Y-130199000D01*
X123154000Y-130252999D01*
X123118000Y-130303000D01*
X123077000Y-130348999D01*
X123031000Y-130389999D01*
X122981000Y-130425999D01*
X122927000Y-130456000D01*
X122870000Y-130480000D01*
X122809000Y-130500000D01*
X122743000Y-130513000D01*
X122675000Y-130521000D01*
X122602000Y-130524000D01*
X122529000Y-130521000D01*
X122460000Y-130513000D01*
X122395000Y-130500000D01*
X122334000Y-130480000D01*
X122277000Y-130456000D01*
X122223000Y-130425999D01*
X122173000Y-130389999D01*
X122127000Y-130348999D01*
X122086000Y-130303000D01*
X122050000Y-130252999D01*
X122020000Y-130199000D01*
X121995000Y-130139999D01*
X121976000Y-130077000D01*
X121962000Y-130009000D01*
X121954000Y-129937000D01*
X121952184Y-129891000D01*
X122222000Y-129891000D01*
X122224000Y-129937999D01*
X122229000Y-129982000D01*
X122236000Y-130023000D01*
X122247000Y-130061000D01*
X122262000Y-130096000D01*
X122279000Y-130127999D01*
X122299000Y-130156999D01*
X122323000Y-130184000D01*
X122350000Y-130207000D01*
X122378000Y-130227000D01*
X122410000Y-130244000D01*
X122443000Y-130257999D01*
X122479000Y-130269000D01*
X122518000Y-130276999D01*
X122559000Y-130281000D01*
X122602000Y-130283000D01*
X122644000Y-130281000D01*
X122685000Y-130276999D01*
X122723000Y-130269000D01*
X122759000Y-130257999D01*
X122792000Y-130244000D01*
X122823000Y-130227000D01*
X122852000Y-130207000D01*
X122879000Y-130184000D01*
X122903000Y-130156999D01*
X122924000Y-130127999D01*
X122942000Y-130096000D01*
X122956000Y-130061000D01*
X122967000Y-130023000D01*
X122975000Y-129982000D01*
X122980000Y-129937999D01*
X122982000Y-129891000D01*
X122982000Y-129451000D01*
X122980000Y-129404000D01*
X122975000Y-129360999D01*
X122967000Y-129320000D01*
X122956000Y-129281999D01*
X122942000Y-129247000D01*
X122924000Y-129214000D01*
X122903000Y-129185000D01*
X122879000Y-129158999D01*
X122852000Y-129136000D01*
X122823000Y-129115000D01*
X122792000Y-129098000D01*
X122759000Y-129084000D01*
X122723000Y-129072999D01*
X122685000Y-129066000D01*
X122644000Y-129061000D01*
X122602000Y-129059000D01*
X122559000Y-129061000D01*
X122518000Y-129066000D01*
X122479000Y-129072999D01*
X122443000Y-129084000D01*
X122410000Y-129098000D01*
X122378000Y-129115000D01*
X122350000Y-129136000D01*
X122323000Y-129158999D01*
X122299000Y-129185000D01*
X122279000Y-129214000D01*
X122262000Y-129247000D01*
X122247000Y-129281999D01*
X122236000Y-129320000D01*
X122229000Y-129360999D01*
X122224000Y-129404000D01*
X122222000Y-129451000D01*
X122222000Y-129891000D01*
X121952184Y-129891000D01*
X121951000Y-129860999D01*
X121951000Y-129481000D01*
X121952169Y-129451000D01*
X121954000Y-129404000D01*
X121962000Y-129332000D01*
X121976000Y-129264000D01*
X121995000Y-129201000D01*
X122019000Y-129142000D01*
X122049000Y-129086999D01*
X122085000Y-129037000D01*
X122126000Y-128992000D01*
X122171000Y-128951000D01*
X122221000Y-128916000D01*
X122275000Y-128886000D01*
X122332000Y-128862000D01*
X122394000Y-128843000D01*
X122459000Y-128829000D01*
X122529000Y-128821000D01*
X122602000Y-128817999D01*
X122675000Y-128821000D01*
G37*
G36*
X128400000Y-128821000D02*
G01*
X128469000Y-128829000D01*
X128535000Y-128843000D01*
X128596000Y-128862000D01*
X128654000Y-128886000D01*
X128707000Y-128916000D01*
X128757000Y-128951000D01*
X128803000Y-128992000D01*
X128844000Y-129037000D01*
X128879000Y-129086999D01*
X128908999Y-129142000D01*
X128934000Y-129201000D01*
X128953000Y-129264000D01*
X128966999Y-129332000D01*
X128975000Y-129404000D01*
X128978000Y-129481000D01*
X128978000Y-129860999D01*
X128975000Y-129937000D01*
X128966999Y-130009000D01*
X128953000Y-130077000D01*
X128933000Y-130139999D01*
X128908999Y-130199000D01*
X128877999Y-130252999D01*
X128843000Y-130303000D01*
X128800999Y-130348999D01*
X128755000Y-130389999D01*
X128704999Y-130425999D01*
X128651999Y-130456000D01*
X128594000Y-130480000D01*
X128533000Y-130500000D01*
X128468000Y-130513000D01*
X128399000Y-130521000D01*
X128327000Y-130524000D01*
X128254000Y-130521000D01*
X128185000Y-130513000D01*
X128120000Y-130500000D01*
X128059000Y-130480000D01*
X128001000Y-130456000D01*
X127948000Y-130425999D01*
X127898000Y-130389999D01*
X127852000Y-130348999D01*
X127811000Y-130303000D01*
X127775000Y-130252999D01*
X127744000Y-130199000D01*
X127720000Y-130139999D01*
X127700000Y-130077000D01*
X127687000Y-130009000D01*
X127678000Y-129937000D01*
X127676789Y-129891000D01*
X127947000Y-129891000D01*
X127948000Y-129937999D01*
X127953000Y-129982000D01*
X127961000Y-130023000D01*
X127972000Y-130061000D01*
X127986000Y-130096000D01*
X128004000Y-130127999D01*
X128024000Y-130156999D01*
X128048000Y-130184000D01*
X128074000Y-130207000D01*
X128103000Y-130227000D01*
X128134000Y-130244000D01*
X128168000Y-130257999D01*
X128204000Y-130269000D01*
X128242000Y-130276999D01*
X128283000Y-130281000D01*
X128327000Y-130283000D01*
X128369000Y-130281000D01*
X128408999Y-130276999D01*
X128447999Y-130269000D01*
X128483000Y-130257999D01*
X128517000Y-130244000D01*
X128548000Y-130227000D01*
X128577000Y-130207000D01*
X128603999Y-130184000D01*
X128627999Y-130156999D01*
X128649000Y-130127999D01*
X128666000Y-130096000D01*
X128680999Y-130061000D01*
X128692000Y-130023000D01*
X128699999Y-129982000D01*
X128704999Y-129937999D01*
X128706000Y-129891000D01*
X128706000Y-129451000D01*
X128704999Y-129404000D01*
X128699999Y-129360999D01*
X128692000Y-129320000D01*
X128680999Y-129281999D01*
X128666000Y-129247000D01*
X128649000Y-129214000D01*
X128627999Y-129185000D01*
X128603999Y-129158999D01*
X128577000Y-129136000D01*
X128548000Y-129115000D01*
X128517000Y-129098000D01*
X128483000Y-129084000D01*
X128447999Y-129072999D01*
X128408999Y-129066000D01*
X128369000Y-129061000D01*
X128327000Y-129059000D01*
X128283000Y-129061000D01*
X128242000Y-129066000D01*
X128204000Y-129072999D01*
X128168000Y-129084000D01*
X128134000Y-129098000D01*
X128103000Y-129115000D01*
X128074000Y-129136000D01*
X128048000Y-129158999D01*
X128024000Y-129185000D01*
X128004000Y-129214000D01*
X127986000Y-129247000D01*
X127972000Y-129281999D01*
X127961000Y-129320000D01*
X127953000Y-129360999D01*
X127948000Y-129404000D01*
X127947000Y-129451000D01*
X127947000Y-129891000D01*
X127676789Y-129891000D01*
X127676000Y-129860999D01*
X127676000Y-129481000D01*
X127676779Y-129451000D01*
X127678000Y-129404000D01*
X127687000Y-129332000D01*
X127700000Y-129264000D01*
X127719000Y-129201000D01*
X127744000Y-129142000D01*
X127774000Y-129086999D01*
X127809000Y-129037000D01*
X127850000Y-128992000D01*
X127896000Y-128951000D01*
X127946000Y-128916000D01*
X127999000Y-128886000D01*
X128057000Y-128862000D01*
X128118000Y-128843000D01*
X128184000Y-128829000D01*
X128252999Y-128821000D01*
X128327000Y-128817999D01*
X128400000Y-128821000D01*
G37*
G36*
X133536000Y-128821000D02*
G01*
X133606000Y-128829000D01*
X133670999Y-128843000D01*
X133733000Y-128862000D01*
X133790000Y-128886000D01*
X133844000Y-128916000D01*
X133894000Y-128951000D01*
X133939000Y-128992000D01*
X133980000Y-129037000D01*
X134016000Y-129086999D01*
X134045999Y-129142000D01*
X134070000Y-129201000D01*
X134089000Y-129264000D01*
X134103000Y-129332000D01*
X134110999Y-129404000D01*
X134114000Y-129481000D01*
X134114000Y-129860999D01*
X134110999Y-129937000D01*
X134103000Y-130009000D01*
X134089000Y-130077000D01*
X134070000Y-130139999D01*
X134045000Y-130199000D01*
X134014999Y-130252999D01*
X133978999Y-130303000D01*
X133937999Y-130348999D01*
X133892000Y-130389999D01*
X133841999Y-130425999D01*
X133788000Y-130456000D01*
X133731000Y-130480000D01*
X133670000Y-130500000D01*
X133605000Y-130513000D01*
X133536000Y-130521000D01*
X133463000Y-130524000D01*
X133389999Y-130521000D01*
X133321000Y-130513000D01*
X133256000Y-130500000D01*
X133195000Y-130480000D01*
X133138000Y-130456000D01*
X133084000Y-130425999D01*
X133033999Y-130389999D01*
X132988000Y-130348999D01*
X132947000Y-130303000D01*
X132911000Y-130252999D01*
X132881000Y-130199000D01*
X132856000Y-130139999D01*
X132836999Y-130077000D01*
X132822999Y-130009000D01*
X132815000Y-129937000D01*
X132813184Y-129891000D01*
X133083000Y-129891000D01*
X133084999Y-129937999D01*
X133090000Y-129982000D01*
X133096999Y-130023000D01*
X133108999Y-130061000D01*
X133122999Y-130096000D01*
X133139999Y-130127999D01*
X133161000Y-130156999D01*
X133184000Y-130184000D01*
X133211000Y-130207000D01*
X133240000Y-130227000D01*
X133271000Y-130244000D01*
X133304000Y-130257999D01*
X133340000Y-130269000D01*
X133379000Y-130276999D01*
X133420000Y-130281000D01*
X133463000Y-130283000D01*
X133506000Y-130281000D01*
X133545999Y-130276999D01*
X133584000Y-130269000D01*
X133620000Y-130257999D01*
X133653000Y-130244000D01*
X133685000Y-130227000D01*
X133714000Y-130207000D01*
X133740000Y-130184000D01*
X133764000Y-130156999D01*
X133785000Y-130127999D01*
X133803000Y-130096000D01*
X133817000Y-130061000D01*
X133828000Y-130023000D01*
X133836000Y-129982000D01*
X133841000Y-129937999D01*
X133843000Y-129891000D01*
X133843000Y-129451000D01*
X133841000Y-129404000D01*
X133836000Y-129360999D01*
X133828000Y-129320000D01*
X133817000Y-129281999D01*
X133803000Y-129247000D01*
X133785000Y-129214000D01*
X133764000Y-129185000D01*
X133740000Y-129158999D01*
X133714000Y-129136000D01*
X133685000Y-129115000D01*
X133653000Y-129098000D01*
X133620000Y-129084000D01*
X133584000Y-129072999D01*
X133545999Y-129066000D01*
X133506000Y-129061000D01*
X133463000Y-129059000D01*
X133420000Y-129061000D01*
X133379000Y-129066000D01*
X133340000Y-129072999D01*
X133304000Y-129084000D01*
X133271000Y-129098000D01*
X133240000Y-129115000D01*
X133211000Y-129136000D01*
X133184000Y-129158999D01*
X133161000Y-129185000D01*
X133139999Y-129214000D01*
X133122999Y-129247000D01*
X133108999Y-129281999D01*
X133096999Y-129320000D01*
X133090000Y-129360999D01*
X133084999Y-129404000D01*
X133083000Y-129451000D01*
X133083000Y-129891000D01*
X132813184Y-129891000D01*
X132812000Y-129860999D01*
X132812000Y-129481000D01*
X132813169Y-129451000D01*
X132815000Y-129404000D01*
X132822999Y-129332000D01*
X132836999Y-129264000D01*
X132856000Y-129201000D01*
X132880000Y-129142000D01*
X132910000Y-129086999D01*
X132946000Y-129037000D01*
X132987000Y-128992000D01*
X133033000Y-128951000D01*
X133082000Y-128916000D01*
X133136000Y-128886000D01*
X133192999Y-128862000D01*
X133255000Y-128843000D01*
X133320000Y-128829000D01*
X133389999Y-128821000D01*
X133463000Y-128817999D01*
X133536000Y-128821000D01*
G37*
G36*
X116184000Y-130500000D02*
G01*
X115913000Y-130500000D01*
X115913000Y-130184000D01*
X115910000Y-130184000D01*
X115903000Y-130223000D01*
X115893000Y-130261000D01*
X115880000Y-130295999D01*
X115864000Y-130329000D01*
X115845000Y-130358999D01*
X115822000Y-130388000D01*
X115797000Y-130413999D01*
X115768000Y-130437999D01*
X115737000Y-130459999D01*
X115704000Y-130478000D01*
X115668000Y-130494000D01*
X115631000Y-130507000D01*
X115592000Y-130517000D01*
X115550000Y-130524000D01*
X115506000Y-130529000D01*
X115461000Y-130530000D01*
X115400000Y-130528000D01*
X115342000Y-130519999D01*
X115288000Y-130507000D01*
X115236000Y-130489000D01*
X115188000Y-130465000D01*
X115143000Y-130437000D01*
X115102000Y-130403000D01*
X115063000Y-130364000D01*
X115028000Y-130321000D01*
X114998000Y-130274000D01*
X114973000Y-130223999D01*
X114952000Y-130168999D01*
X114936000Y-130110999D01*
X114925000Y-130050000D01*
X114918000Y-129983999D01*
X114915000Y-129915000D01*
X114915000Y-129912000D01*
X115187000Y-129912000D01*
X115188000Y-129961000D01*
X115193000Y-130006000D01*
X115200000Y-130048000D01*
X115211000Y-130086000D01*
X115224000Y-130120999D01*
X115241000Y-130151999D01*
X115260000Y-130180000D01*
X115283000Y-130204999D01*
X115308000Y-130226000D01*
X115336000Y-130244000D01*
X115366000Y-130259999D01*
X115398000Y-130271999D01*
X115433000Y-130281999D01*
X115470000Y-130288999D01*
X115509000Y-130293999D01*
X115551000Y-130295000D01*
X115592000Y-130293000D01*
X115630000Y-130288000D01*
X115666000Y-130280000D01*
X115700000Y-130269000D01*
X115732000Y-130254000D01*
X115762000Y-130235999D01*
X115789000Y-130214000D01*
X115815000Y-130190000D01*
X115838000Y-130162000D01*
X115858000Y-130132000D01*
X115875000Y-130098999D01*
X115888000Y-130064000D01*
X115899000Y-130026000D01*
X115907000Y-129985999D01*
X115911000Y-129942999D01*
X115913000Y-129896999D01*
X115913000Y-129445000D01*
X115911000Y-129400000D01*
X115907000Y-129357000D01*
X115899000Y-129317000D01*
X115888000Y-129279000D01*
X115875000Y-129243000D01*
X115858000Y-129211000D01*
X115838000Y-129180999D01*
X115815000Y-129153000D01*
X115789000Y-129127999D01*
X115762000Y-129107000D01*
X115732000Y-129089000D01*
X115700000Y-129074000D01*
X115666000Y-129062000D01*
X115630000Y-129054000D01*
X115592000Y-129049000D01*
X115551000Y-129047000D01*
X115509000Y-129049000D01*
X115470000Y-129053000D01*
X115433000Y-129060000D01*
X115398000Y-129070000D01*
X115366000Y-129082000D01*
X115336000Y-129096999D01*
X115308000Y-129115000D01*
X115283000Y-129136000D01*
X115260000Y-129160000D01*
X115241000Y-129187999D01*
X115224000Y-129219000D01*
X115211000Y-129254000D01*
X115200000Y-129293000D01*
X115193000Y-129334999D01*
X115188000Y-129381000D01*
X115187000Y-129430000D01*
X115187000Y-129912000D01*
X114915000Y-129912000D01*
X114915000Y-129430000D01*
X114918000Y-129360000D01*
X114925000Y-129295000D01*
X114936000Y-129232000D01*
X114952000Y-129174000D01*
X114973000Y-129119000D01*
X114998000Y-129067999D01*
X115028000Y-129021000D01*
X115063000Y-128978000D01*
X115102000Y-128939000D01*
X115143000Y-128906000D01*
X115188000Y-128877000D01*
X115236000Y-128853999D01*
X115288000Y-128836000D01*
X115342000Y-128822999D01*
X115400000Y-128815000D01*
X115461000Y-128812000D01*
X115507000Y-128814000D01*
X115550000Y-128817999D01*
X115592000Y-128824999D01*
X115631000Y-128836000D01*
X115669000Y-128848999D01*
X115705000Y-128865000D01*
X115738000Y-128884000D01*
X115770000Y-128906000D01*
X115799000Y-128930000D01*
X115825000Y-128957000D01*
X115847000Y-128985000D01*
X115867000Y-129016000D01*
X115884000Y-129048000D01*
X115898000Y-129083000D01*
X115908000Y-129120000D01*
X115916000Y-129158999D01*
X115919000Y-129158999D01*
X115913000Y-128781999D01*
X115913000Y-128300000D01*
X116184000Y-128300000D01*
X116184000Y-130500000D01*
G37*
G36*
X107569000Y-128781999D02*
G01*
X107563000Y-129158999D01*
X107566000Y-129158999D01*
X107573000Y-129120000D01*
X107584000Y-129083000D01*
X107598000Y-129048000D01*
X107614000Y-129016000D01*
X107634000Y-128985000D01*
X107657000Y-128957000D01*
X107683000Y-128930000D01*
X107712000Y-128906000D01*
X107743000Y-128884000D01*
X107777000Y-128865000D01*
X107813000Y-128848999D01*
X107850000Y-128836000D01*
X107890000Y-128824999D01*
X107931000Y-128817999D01*
X107975000Y-128814000D01*
X108021000Y-128812000D01*
X108082000Y-128815000D01*
X108139000Y-128822999D01*
X108194000Y-128836000D01*
X108245000Y-128853999D01*
X108293000Y-128877000D01*
X108338000Y-128906000D01*
X108380000Y-128939000D01*
X108419000Y-128978000D01*
X108453000Y-129021000D01*
X108483000Y-129067999D01*
X108509000Y-129119000D01*
X108529000Y-129174000D01*
X108546000Y-129232000D01*
X108557000Y-129295000D01*
X108564000Y-129360000D01*
X108566000Y-129430000D01*
X108566000Y-129915000D01*
X108564000Y-129983999D01*
X108557000Y-130050000D01*
X108545000Y-130110999D01*
X108529000Y-130168999D01*
X108508000Y-130223999D01*
X108482000Y-130274000D01*
X108452000Y-130321000D01*
X108417000Y-130364000D01*
X108378000Y-130403000D01*
X108336000Y-130437000D01*
X108291000Y-130465000D01*
X108243000Y-130489000D01*
X108192000Y-130507000D01*
X108138000Y-130519999D01*
X108081000Y-130528000D01*
X108021000Y-130530000D01*
X107975000Y-130529000D01*
X107932000Y-130524000D01*
X107890000Y-130517000D01*
X107851000Y-130507000D01*
X107813000Y-130494000D01*
X107778000Y-130478000D01*
X107745000Y-130459999D01*
X107713000Y-130437999D01*
X107685000Y-130413999D01*
X107659000Y-130388000D01*
X107637000Y-130358999D01*
X107618000Y-130329000D01*
X107602000Y-130295999D01*
X107589000Y-130261000D01*
X107579000Y-130223000D01*
X107572000Y-130184000D01*
X107569000Y-130184000D01*
X107569000Y-130500000D01*
X107298000Y-130500000D01*
X107298000Y-129896999D01*
X107569000Y-129896999D01*
X107570000Y-129942999D01*
X107575000Y-129985999D01*
X107582000Y-130026000D01*
X107593000Y-130064000D01*
X107606000Y-130098999D01*
X107623000Y-130132000D01*
X107643000Y-130162000D01*
X107665000Y-130190000D01*
X107690000Y-130214000D01*
X107718000Y-130235999D01*
X107748000Y-130254000D01*
X107780000Y-130269000D01*
X107814000Y-130280000D01*
X107851000Y-130288000D01*
X107889000Y-130293000D01*
X107930000Y-130295000D01*
X107972000Y-130293999D01*
X108012000Y-130288999D01*
X108049000Y-130281999D01*
X108083000Y-130271999D01*
X108116000Y-130259999D01*
X108146000Y-130244000D01*
X108173000Y-130226000D01*
X108199000Y-130204999D01*
X108221000Y-130180000D01*
X108241000Y-130151999D01*
X108257000Y-130120999D01*
X108271000Y-130086000D01*
X108282000Y-130048000D01*
X108289000Y-130006000D01*
X108294000Y-129961000D01*
X108295000Y-129912000D01*
X108295000Y-129430000D01*
X108294000Y-129381000D01*
X108289000Y-129334999D01*
X108282000Y-129293000D01*
X108271000Y-129254000D01*
X108257000Y-129219000D01*
X108241000Y-129187999D01*
X108221000Y-129160000D01*
X108199000Y-129136000D01*
X108173000Y-129115000D01*
X108146000Y-129096999D01*
X108116000Y-129082000D01*
X108083000Y-129070000D01*
X108049000Y-129060000D01*
X108012000Y-129053000D01*
X107972000Y-129049000D01*
X107930000Y-129047000D01*
X107889000Y-129049000D01*
X107851000Y-129054000D01*
X107814000Y-129062000D01*
X107780000Y-129074000D01*
X107748000Y-129089000D01*
X107718000Y-129107000D01*
X107690000Y-129127999D01*
X107665000Y-129153000D01*
X107643000Y-129180999D01*
X107623000Y-129211000D01*
X107606000Y-129243000D01*
X107593000Y-129279000D01*
X107582000Y-129317000D01*
X107575000Y-129357000D01*
X107570000Y-129400000D01*
X107569000Y-129445000D01*
X107569000Y-129896999D01*
X107298000Y-129896999D01*
X107298000Y-129445000D01*
X107298000Y-128300000D01*
X107569000Y-128300000D01*
X107569000Y-128781999D01*
G37*
G36*
X118857000Y-128815000D02*
G01*
X118925000Y-128822999D01*
X118989000Y-128836999D01*
X119050000Y-128856000D01*
X119107000Y-128881000D01*
X119160000Y-128911000D01*
X119211000Y-128947000D01*
X119257000Y-128989000D01*
X119299000Y-129035000D01*
X119336000Y-129084999D01*
X119366000Y-129139999D01*
X119392000Y-129197999D01*
X119411000Y-129261000D01*
X119425000Y-129329000D01*
X119434000Y-129400000D01*
X119436000Y-129475000D01*
X119436000Y-129867000D01*
X119434000Y-129942999D01*
X119425000Y-130014000D01*
X119411000Y-130081000D01*
X119392000Y-130144000D01*
X119366000Y-130203000D01*
X119336000Y-130257000D01*
X119299000Y-130308000D01*
X119257000Y-130353999D01*
X119211000Y-130394999D01*
X119160000Y-130430999D01*
X119107000Y-130461000D01*
X119050000Y-130485999D01*
X118989000Y-130505000D01*
X118925000Y-130519000D01*
X118857000Y-130526999D01*
X118785000Y-130530000D01*
X118721000Y-130528000D01*
X118660000Y-130523000D01*
X118601000Y-130513000D01*
X118545000Y-130500000D01*
X118492000Y-130482000D01*
X118441000Y-130461000D01*
X118394000Y-130437000D01*
X118348000Y-130408000D01*
X118307000Y-130376000D01*
X118270000Y-130341999D01*
X118238000Y-130304000D01*
X118211000Y-130264999D01*
X118188000Y-130221999D01*
X118169000Y-130177000D01*
X118156000Y-130129000D01*
X118147000Y-130078000D01*
X118418000Y-130078000D01*
X118424000Y-130102000D01*
X118433000Y-130125000D01*
X118444000Y-130146999D01*
X118458000Y-130167000D01*
X118474000Y-130187000D01*
X118493000Y-130204000D01*
X118514000Y-130221000D01*
X118537000Y-130235999D01*
X118562000Y-130250000D01*
X118589000Y-130262000D01*
X118618000Y-130271999D01*
X118648000Y-130280000D01*
X118680000Y-130287000D01*
X118713000Y-130291000D01*
X118749000Y-130293999D01*
X118785000Y-130295000D01*
X118828000Y-130293000D01*
X118869000Y-130288000D01*
X118907000Y-130280000D01*
X118943000Y-130268000D01*
X118977000Y-130252999D01*
X119009000Y-130235000D01*
X119038000Y-130213000D01*
X119066000Y-130187999D01*
X119090000Y-130160000D01*
X119112000Y-130130000D01*
X119130000Y-130096999D01*
X119145000Y-130062000D01*
X119156000Y-130024000D01*
X119165000Y-129983999D01*
X119170000Y-129942000D01*
X119171000Y-129896999D01*
X119171000Y-129740999D01*
X118135000Y-129740999D01*
X118135000Y-129530000D01*
X118400000Y-129530000D01*
X119171000Y-129530000D01*
X119171000Y-129445000D01*
X119170000Y-129398000D01*
X119165000Y-129353000D01*
X119157000Y-129311000D01*
X119146000Y-129271999D01*
X119132000Y-129235000D01*
X119114000Y-129201000D01*
X119094000Y-129170000D01*
X119070000Y-129142000D01*
X119044000Y-129117000D01*
X119015000Y-129096000D01*
X118983000Y-129077000D01*
X118949000Y-129062000D01*
X118912000Y-129050000D01*
X118872000Y-129042000D01*
X118830000Y-129037000D01*
X118785000Y-129035000D01*
X118741000Y-129037000D01*
X118699000Y-129042000D01*
X118659000Y-129050000D01*
X118622000Y-129062000D01*
X118588000Y-129077000D01*
X118556000Y-129096000D01*
X118527000Y-129117000D01*
X118501000Y-129142000D01*
X118477000Y-129170000D01*
X118457000Y-129201000D01*
X118439000Y-129235000D01*
X118425000Y-129271999D01*
X118414000Y-129311000D01*
X118406000Y-129353000D01*
X118401000Y-129398000D01*
X118400000Y-129445000D01*
X118400000Y-129530000D01*
X118135000Y-129530000D01*
X118135000Y-129445000D01*
X118136000Y-129398000D01*
X118140000Y-129352000D01*
X118146000Y-129308000D01*
X118155000Y-129264999D01*
X118166000Y-129223999D01*
X118180000Y-129185000D01*
X118197000Y-129146999D01*
X118216000Y-129110999D01*
X118237000Y-129076000D01*
X118261000Y-129043999D01*
X118286000Y-129013000D01*
X118313000Y-128985000D01*
X118343000Y-128958000D01*
X118374000Y-128934000D01*
X118408000Y-128911000D01*
X118443000Y-128891000D01*
X118481000Y-128872000D01*
X118520000Y-128856000D01*
X118560000Y-128843000D01*
X118602000Y-128832000D01*
X118646000Y-128822999D01*
X118691000Y-128817000D01*
X118737000Y-128814000D01*
X118785000Y-128812000D01*
X118857000Y-128815000D01*
G37*
G36*
X139259000Y-128815000D02*
G01*
X139327000Y-128822999D01*
X139391000Y-128836999D01*
X139452000Y-128856000D01*
X139509000Y-128881000D01*
X139563000Y-128911000D01*
X139613000Y-128947000D01*
X139659000Y-128989000D01*
X139701000Y-129035000D01*
X139738000Y-129084999D01*
X139769000Y-129139999D01*
X139793999Y-129197999D01*
X139813000Y-129261000D01*
X139827000Y-129329000D01*
X139836000Y-129400000D01*
X139839000Y-129475000D01*
X139839000Y-129867000D01*
X139836000Y-129942999D01*
X139827000Y-130014000D01*
X139813000Y-130081000D01*
X139793999Y-130144000D01*
X139769000Y-130203000D01*
X139738000Y-130257000D01*
X139701000Y-130308000D01*
X139659000Y-130353999D01*
X139613000Y-130394999D01*
X139563000Y-130430999D01*
X139509000Y-130461000D01*
X139452000Y-130485999D01*
X139391000Y-130505000D01*
X139327000Y-130519000D01*
X139259000Y-130526999D01*
X139188000Y-130530000D01*
X139123000Y-130528000D01*
X139062000Y-130523000D01*
X139003000Y-130513000D01*
X138947000Y-130500000D01*
X138894000Y-130482000D01*
X138844000Y-130461000D01*
X138796000Y-130437000D01*
X138751000Y-130408000D01*
X138709000Y-130376000D01*
X138673000Y-130341999D01*
X138640000Y-130304000D01*
X138613000Y-130264999D01*
X138590000Y-130221999D01*
X138572000Y-130177000D01*
X138558000Y-130129000D01*
X138549000Y-130078000D01*
X138820000Y-130078000D01*
X138826000Y-130102000D01*
X138835000Y-130125000D01*
X138847000Y-130146999D01*
X138860000Y-130167000D01*
X138876000Y-130187000D01*
X138895000Y-130204000D01*
X138916000Y-130221000D01*
X138939000Y-130235999D01*
X138964000Y-130250000D01*
X138991000Y-130262000D01*
X139020000Y-130271999D01*
X139050000Y-130280000D01*
X139082000Y-130287000D01*
X139116000Y-130291000D01*
X139151000Y-130293999D01*
X139188000Y-130295000D01*
X139230000Y-130293000D01*
X139271000Y-130288000D01*
X139309000Y-130280000D01*
X139345000Y-130268000D01*
X139379000Y-130252999D01*
X139411000Y-130235000D01*
X139440000Y-130213000D01*
X139468000Y-130187999D01*
X139493000Y-130160000D01*
X139514000Y-130130000D01*
X139531999Y-130096999D01*
X139547000Y-130062000D01*
X139559000Y-130024000D01*
X139567000Y-129983999D01*
X139572000Y-129942000D01*
X139573000Y-129896999D01*
X139573000Y-129740999D01*
X138537000Y-129740999D01*
X138537000Y-129530000D01*
X138802000Y-129530000D01*
X139573000Y-129530000D01*
X139573000Y-129445000D01*
X139572000Y-129398000D01*
X139567000Y-129353000D01*
X139559000Y-129311000D01*
X139548000Y-129271999D01*
X139534000Y-129235000D01*
X139517000Y-129201000D01*
X139496000Y-129170000D01*
X139472000Y-129142000D01*
X139446000Y-129117000D01*
X139417000Y-129096000D01*
X139385000Y-129077000D01*
X139351000Y-129062000D01*
X139314000Y-129050000D01*
X139274000Y-129042000D01*
X139232000Y-129037000D01*
X139188000Y-129035000D01*
X139143000Y-129037000D01*
X139101000Y-129042000D01*
X139061000Y-129050000D01*
X139025000Y-129062000D01*
X138990000Y-129077000D01*
X138959000Y-129096000D01*
X138929000Y-129117000D01*
X138903000Y-129142000D01*
X138879000Y-129170000D01*
X138859000Y-129201000D01*
X138841000Y-129235000D01*
X138827000Y-129271999D01*
X138816000Y-129311000D01*
X138808000Y-129353000D01*
X138803000Y-129398000D01*
X138802000Y-129445000D01*
X138802000Y-129530000D01*
X138537000Y-129530000D01*
X138537000Y-129445000D01*
X138538000Y-129398000D01*
X138542000Y-129352000D01*
X138548000Y-129308000D01*
X138557000Y-129264999D01*
X138567999Y-129223999D01*
X138582000Y-129185000D01*
X138599000Y-129146999D01*
X138618000Y-129110999D01*
X138639000Y-129076000D01*
X138663000Y-129043999D01*
X138688000Y-129013000D01*
X138716000Y-128985000D01*
X138745000Y-128958000D01*
X138777000Y-128934000D01*
X138810000Y-128911000D01*
X138846000Y-128891000D01*
X138883000Y-128872000D01*
X138922000Y-128856000D01*
X138962000Y-128843000D01*
X139004000Y-128832000D01*
X139048000Y-128822999D01*
X139093000Y-128817000D01*
X139139000Y-128814000D01*
X139188000Y-128812000D01*
X139259000Y-128815000D01*
G37*
G36*
X111805000Y-128814000D02*
G01*
X111870000Y-128820000D01*
X111930000Y-128829999D01*
X111988000Y-128844000D01*
X112041000Y-128862000D01*
X112092000Y-128884000D01*
X112139000Y-128910000D01*
X112182000Y-128940000D01*
X112222000Y-128973000D01*
X112256000Y-129009000D01*
X112286000Y-129045999D01*
X112312000Y-129084999D01*
X112332000Y-129127000D01*
X112348000Y-129170999D01*
X112359000Y-129216000D01*
X112365000Y-129264000D01*
X112093000Y-129264000D01*
X112091000Y-129239000D01*
X112085000Y-129216000D01*
X112076000Y-129194000D01*
X112065000Y-129173000D01*
X112051000Y-129154000D01*
X112034000Y-129136000D01*
X112014000Y-129120000D01*
X111991000Y-129105000D01*
X111966000Y-129091000D01*
X111939000Y-129079999D01*
X111910000Y-129070000D01*
X111879000Y-129062000D01*
X111847000Y-129055000D01*
X111812000Y-129050999D01*
X111776000Y-129048000D01*
X111738000Y-129047000D01*
X111655000Y-129052000D01*
X111584000Y-129067999D01*
X111523000Y-129093000D01*
X111473000Y-129127999D01*
X111435000Y-129173000D01*
X111407000Y-129228999D01*
X111391000Y-129293999D01*
X111385000Y-129370000D01*
X111385000Y-129499000D01*
X111898000Y-129499000D01*
X111937000Y-129500000D01*
X111975000Y-129504000D01*
X112012000Y-129509000D01*
X112048000Y-129516000D01*
X112083000Y-129525000D01*
X112117000Y-129536000D01*
X112149000Y-129549000D01*
X112181000Y-129564000D01*
X112211000Y-129581000D01*
X112239000Y-129600000D01*
X112266000Y-129620000D01*
X112291000Y-129641000D01*
X112314000Y-129665000D01*
X112336000Y-129689000D01*
X112356000Y-129716000D01*
X112374000Y-129744000D01*
X112390000Y-129773000D01*
X112404000Y-129803000D01*
X112416000Y-129834999D01*
X112426000Y-129868000D01*
X112433000Y-129901999D01*
X112439000Y-129937000D01*
X112442000Y-129973999D01*
X112443000Y-130012000D01*
X112441000Y-130067999D01*
X112434000Y-130122000D01*
X112422000Y-130173000D01*
X112405000Y-130221999D01*
X112384000Y-130267000D01*
X112358000Y-130310000D01*
X112328000Y-130350000D01*
X112292000Y-130387000D01*
X112253000Y-130420999D01*
X112210000Y-130449999D01*
X112164000Y-130473999D01*
X112115000Y-130494000D01*
X112063000Y-130509999D01*
X112007000Y-130521000D01*
X111948000Y-130528000D01*
X111885000Y-130530000D01*
X111833000Y-130529000D01*
X111784000Y-130525000D01*
X111737000Y-130518000D01*
X111693000Y-130507999D01*
X111651000Y-130495000D01*
X111612000Y-130480000D01*
X111576000Y-130461999D01*
X111542000Y-130441000D01*
X111511000Y-130418000D01*
X111484000Y-130393000D01*
X111460000Y-130365000D01*
X111439000Y-130336000D01*
X111421000Y-130305000D01*
X111407000Y-130271000D01*
X111396000Y-130235999D01*
X111388000Y-130199000D01*
X111382000Y-130199000D01*
X111382000Y-130500000D01*
X111114000Y-130500000D01*
X111114000Y-129942000D01*
X111114000Y-129709999D01*
X111385000Y-129709999D01*
X111385000Y-129942000D01*
X111387000Y-129983000D01*
X111393000Y-130021000D01*
X111402000Y-130057000D01*
X111415000Y-130091000D01*
X111431000Y-130122999D01*
X111451000Y-130151999D01*
X111475000Y-130179000D01*
X111503000Y-130204999D01*
X111533000Y-130227000D01*
X111567000Y-130247000D01*
X111602000Y-130263000D01*
X111641000Y-130276999D01*
X111681000Y-130288000D01*
X111725000Y-130295000D01*
X111771000Y-130300000D01*
X111819000Y-130300999D01*
X111859000Y-130300000D01*
X111896000Y-130295999D01*
X111931000Y-130290000D01*
X111964000Y-130281000D01*
X111995000Y-130269999D01*
X112023000Y-130256000D01*
X112050000Y-130240000D01*
X112074000Y-130221000D01*
X112095000Y-130199999D01*
X112114000Y-130178000D01*
X112130000Y-130153000D01*
X112143000Y-130127000D01*
X112153000Y-130098000D01*
X112160000Y-130067999D01*
X112164000Y-130036000D01*
X112166000Y-130002999D01*
X112164000Y-129970000D01*
X112161000Y-129940000D01*
X112154000Y-129911000D01*
X112145000Y-129882999D01*
X112133000Y-129858000D01*
X112119000Y-129834000D01*
X112102000Y-129811000D01*
X112083000Y-129790000D01*
X112061000Y-129771999D01*
X112038000Y-129755000D01*
X112014000Y-129742000D01*
X111988000Y-129730000D01*
X111960000Y-129721999D01*
X111931000Y-129715000D01*
X111900000Y-129711999D01*
X111867000Y-129709999D01*
X111385000Y-129709999D01*
X111114000Y-129709999D01*
X111114000Y-129360999D01*
X111116000Y-129298000D01*
X111124000Y-129238000D01*
X111137000Y-129183000D01*
X111154000Y-129130000D01*
X111177000Y-129082000D01*
X111205000Y-129036000D01*
X111237000Y-128995000D01*
X111275000Y-128957000D01*
X111318000Y-128923000D01*
X111365000Y-128894000D01*
X111416000Y-128869000D01*
X111471000Y-128848000D01*
X111531000Y-128833000D01*
X111596000Y-128821000D01*
X111665000Y-128815000D01*
X111738000Y-128812000D01*
X111805000Y-128814000D01*
G37*
G36*
X124640000Y-128820000D02*
G01*
X124700000Y-128826000D01*
X124757000Y-128836000D01*
X124810000Y-128848999D01*
X124860000Y-128867000D01*
X124906000Y-128888000D01*
X124949000Y-128913000D01*
X124988000Y-128942000D01*
X125023000Y-128973999D01*
X125053000Y-129009999D01*
X125079000Y-129048000D01*
X125100000Y-129089000D01*
X125116000Y-129132999D01*
X125128000Y-129180000D01*
X125135000Y-129230000D01*
X125137000Y-129281999D01*
X125136000Y-129329000D01*
X125131000Y-129372999D01*
X125124000Y-129413999D01*
X125114000Y-129454000D01*
X125100000Y-129490999D01*
X125084000Y-129526000D01*
X125065000Y-129558000D01*
X125044000Y-129588000D01*
X125019000Y-129615999D01*
X124992000Y-129641000D01*
X124963000Y-129662000D01*
X124931000Y-129680999D01*
X124897000Y-129697000D01*
X124861000Y-129711000D01*
X124822000Y-129721000D01*
X124781000Y-129728000D01*
X124323000Y-129795000D01*
X124277000Y-129804000D01*
X124238000Y-129820000D01*
X124204000Y-129841000D01*
X124176000Y-129869000D01*
X124155000Y-129901999D01*
X124140000Y-129941000D01*
X124130000Y-129985000D01*
X124127000Y-130036000D01*
X124129000Y-130065000D01*
X124133000Y-130093000D01*
X124139000Y-130119000D01*
X124148000Y-130143000D01*
X124160000Y-130165000D01*
X124174000Y-130186000D01*
X124191000Y-130204999D01*
X124210000Y-130223000D01*
X124232000Y-130238000D01*
X124256000Y-130252000D01*
X124282000Y-130263000D01*
X124310000Y-130271999D01*
X124340000Y-130280000D01*
X124373000Y-130285000D01*
X124407000Y-130288000D01*
X124444000Y-130288999D01*
X124576000Y-130288999D01*
X124612000Y-130288000D01*
X124646000Y-130285000D01*
X124678000Y-130280000D01*
X124708000Y-130273000D01*
X124735000Y-130264000D01*
X124761000Y-130252999D01*
X124784000Y-130239000D01*
X124805000Y-130223999D01*
X124825000Y-130207000D01*
X124841000Y-130189000D01*
X124855000Y-130168999D01*
X124867000Y-130146999D01*
X124875000Y-130124000D01*
X124882000Y-130098999D01*
X124886000Y-130072999D01*
X124887000Y-130045000D01*
X125158000Y-130045000D01*
X125156000Y-130101000D01*
X125149000Y-130153000D01*
X125137000Y-130202000D01*
X125120000Y-130247999D01*
X125099000Y-130291000D01*
X125072000Y-130329999D01*
X125042000Y-130365999D01*
X125006000Y-130399000D01*
X124966000Y-130428000D01*
X124922000Y-130454000D01*
X124874000Y-130475000D01*
X124822000Y-130493000D01*
X124767000Y-130507000D01*
X124707000Y-130516000D01*
X124644000Y-130521999D01*
X124576000Y-130524000D01*
X124444000Y-130524000D01*
X124376000Y-130521999D01*
X124313000Y-130516000D01*
X124253000Y-130506000D01*
X124198000Y-130492000D01*
X124146000Y-130473999D01*
X124098000Y-130452000D01*
X124054000Y-130425999D01*
X124014000Y-130396000D01*
X123979000Y-130362000D01*
X123948000Y-130324999D01*
X123922000Y-130285000D01*
X123900000Y-130242000D01*
X123884000Y-130195000D01*
X123872000Y-130144999D01*
X123865000Y-130091999D01*
X123862000Y-130036000D01*
X123869000Y-129933000D01*
X123889000Y-129841999D01*
X123922000Y-129763000D01*
X123968000Y-129695000D01*
X124027000Y-129639000D01*
X124100000Y-129595000D01*
X124185000Y-129562999D01*
X124284000Y-129542000D01*
X124712000Y-129481000D01*
X124749000Y-129473000D01*
X124782000Y-129459999D01*
X124809000Y-129442000D01*
X124832000Y-129420000D01*
X124849000Y-129392000D01*
X124862000Y-129360000D01*
X124869000Y-129324000D01*
X124872000Y-129281999D01*
X124871000Y-129256000D01*
X124867000Y-129231000D01*
X124861000Y-129207000D01*
X124852000Y-129185000D01*
X124841000Y-129165000D01*
X124828000Y-129144999D01*
X124812000Y-129127000D01*
X124793000Y-129110999D01*
X124773000Y-129096000D01*
X124750000Y-129083000D01*
X124726000Y-129072000D01*
X124700000Y-129062999D01*
X124672000Y-129055999D01*
X124642000Y-129050999D01*
X124610000Y-129048000D01*
X124576000Y-129047000D01*
X124444000Y-129047000D01*
X124414000Y-129048000D01*
X124385000Y-129050999D01*
X124358000Y-129055000D01*
X124332000Y-129062000D01*
X124308000Y-129070000D01*
X124285000Y-129079999D01*
X124263000Y-129091000D01*
X124243000Y-129105000D01*
X124225000Y-129119000D01*
X124209000Y-129134999D01*
X124196000Y-129151999D01*
X124184000Y-129168999D01*
X124175000Y-129187999D01*
X124168000Y-129207000D01*
X124163000Y-129228000D01*
X124161000Y-129249000D01*
X123886000Y-129249000D01*
X123892000Y-129202000D01*
X123901000Y-129156999D01*
X123915000Y-129115000D01*
X123933000Y-129074999D01*
X123956000Y-129037000D01*
X123983000Y-129002000D01*
X124015000Y-128968000D01*
X124051000Y-128937000D01*
X124090000Y-128908999D01*
X124132000Y-128884999D01*
X124177000Y-128865000D01*
X124225000Y-128848000D01*
X124276000Y-128834999D01*
X124329000Y-128826000D01*
X124385000Y-128820000D01*
X124444000Y-128817999D01*
X124576000Y-128817999D01*
X124640000Y-128820000D01*
G37*
G36*
X137429000Y-128815000D02*
G01*
X137488000Y-128822999D01*
X137543999Y-128836000D01*
X137596000Y-128853999D01*
X137645000Y-128877000D01*
X137690000Y-128906000D01*
X137732000Y-128939000D01*
X137771000Y-128978000D01*
X137805000Y-129021000D01*
X137835000Y-129067999D01*
X137861000Y-129119000D01*
X137881000Y-129173000D01*
X137898000Y-129231000D01*
X137909000Y-129293000D01*
X137916000Y-129358000D01*
X137918000Y-129427000D01*
X137918000Y-129776999D01*
X137916000Y-129846000D01*
X137909000Y-129911000D01*
X137898000Y-129971999D01*
X137881000Y-130030000D01*
X137861000Y-130084000D01*
X137835000Y-130134000D01*
X137805000Y-130180000D01*
X137771000Y-130223000D01*
X137732000Y-130261000D01*
X137690000Y-130293999D01*
X137645000Y-130322000D01*
X137596000Y-130345000D01*
X137543999Y-130363000D01*
X137488000Y-130375000D01*
X137429000Y-130382999D01*
X137367000Y-130384999D01*
X137323000Y-130384000D01*
X137281999Y-130380000D01*
X137242000Y-130374000D01*
X137204000Y-130365999D01*
X137168000Y-130353999D01*
X137134000Y-130341000D01*
X137102000Y-130324000D01*
X137072000Y-130305999D01*
X137043999Y-130285000D01*
X137019000Y-130261000D01*
X136996000Y-130235999D01*
X136977000Y-130209000D01*
X136961000Y-130179000D01*
X136948000Y-130148000D01*
X136937000Y-130114000D01*
X136930000Y-130078000D01*
X136921000Y-130078000D01*
X136927000Y-130348999D01*
X136927000Y-130500000D01*
X136928000Y-130533000D01*
X136932000Y-130564000D01*
X136938000Y-130594000D01*
X136947000Y-130622000D01*
X136959000Y-130648000D01*
X136973000Y-130672000D01*
X136989000Y-130695000D01*
X137008000Y-130715000D01*
X137030000Y-130733999D01*
X137053000Y-130750000D01*
X137078000Y-130764000D01*
X137105000Y-130775000D01*
X137133000Y-130783999D01*
X137164000Y-130790000D01*
X137197000Y-130793999D01*
X137231000Y-130795000D01*
X137698000Y-130795000D01*
X137698000Y-131042000D01*
X137234000Y-131042000D01*
X137168999Y-131040000D01*
X137107000Y-131033000D01*
X137049000Y-131021999D01*
X136994000Y-131006000D01*
X136942999Y-130985000D01*
X136895000Y-130959999D01*
X136851000Y-130930999D01*
X136811000Y-130896000D01*
X136774000Y-130858000D01*
X136743000Y-130817000D01*
X136716000Y-130771999D01*
X136694000Y-130723999D01*
X136677000Y-130673000D01*
X136665000Y-130619000D01*
X136658000Y-130561000D01*
X136656000Y-130500000D01*
X136656000Y-129762000D01*
X136924000Y-129762000D01*
X136925000Y-129807000D01*
X136930000Y-129850000D01*
X136937000Y-129889999D01*
X136948000Y-129928000D01*
X136962000Y-129963000D01*
X136978000Y-129995999D01*
X136998000Y-130026000D01*
X137020000Y-130054000D01*
X137046000Y-130079000D01*
X137073000Y-130100000D01*
X137103000Y-130118000D01*
X137135000Y-130132999D01*
X137168999Y-130144999D01*
X137206000Y-130153000D01*
X137244000Y-130158000D01*
X137285000Y-130158999D01*
X137327000Y-130158000D01*
X137367000Y-130153000D01*
X137404000Y-130144999D01*
X137438000Y-130134999D01*
X137470000Y-130120999D01*
X137500000Y-130103999D01*
X137527000Y-130083000D01*
X137552000Y-130060000D01*
X137574000Y-130033999D01*
X137594000Y-130006000D01*
X137610000Y-129976000D01*
X137623000Y-129942999D01*
X137634000Y-129908999D01*
X137641000Y-129872000D01*
X137646000Y-129833000D01*
X137647000Y-129792000D01*
X137647000Y-129415000D01*
X137646000Y-129374000D01*
X137641000Y-129334999D01*
X137634000Y-129298000D01*
X137623000Y-129264000D01*
X137610000Y-129231000D01*
X137594000Y-129201000D01*
X137574000Y-129173000D01*
X137552000Y-129146999D01*
X137527000Y-129124000D01*
X137500000Y-129103000D01*
X137470000Y-129086000D01*
X137438000Y-129072000D01*
X137404000Y-129061000D01*
X137367000Y-129054000D01*
X137327000Y-129049000D01*
X137285000Y-129047000D01*
X137244000Y-129049000D01*
X137206000Y-129054000D01*
X137168999Y-129062000D01*
X137135000Y-129074000D01*
X137103000Y-129089000D01*
X137073000Y-129107000D01*
X137046000Y-129127999D01*
X137020000Y-129153000D01*
X136998000Y-129180999D01*
X136978000Y-129211000D01*
X136962000Y-129243000D01*
X136948000Y-129279000D01*
X136937000Y-129317000D01*
X136930000Y-129357000D01*
X136925000Y-129400000D01*
X136924000Y-129445000D01*
X136924000Y-129762000D01*
X136656000Y-129762000D01*
X136656000Y-129445000D01*
X136656000Y-128841999D01*
X136924000Y-128841999D01*
X136924000Y-129129000D01*
X136930000Y-129129000D01*
X136937000Y-129093000D01*
X136948000Y-129059000D01*
X136961000Y-129026999D01*
X136977000Y-128997000D01*
X136996000Y-128969000D01*
X137019000Y-128942999D01*
X137043999Y-128918999D01*
X137072000Y-128896999D01*
X137102000Y-128877000D01*
X137134000Y-128860000D01*
X137168000Y-128845000D01*
X137204000Y-128833000D01*
X137242000Y-128824000D01*
X137281999Y-128817999D01*
X137323000Y-128814000D01*
X137367000Y-128812000D01*
X137429000Y-128815000D01*
G37*
G36*
X141226000Y-128820000D02*
G01*
X141286000Y-128826000D01*
X141343000Y-128836000D01*
X141396000Y-128848999D01*
X141446000Y-128867000D01*
X141492000Y-128888000D01*
X141535000Y-128913000D01*
X141574000Y-128942000D01*
X141609000Y-128973999D01*
X141639000Y-129009999D01*
X141664000Y-129048000D01*
X141685000Y-129089000D01*
X141702000Y-129132999D01*
X141713000Y-129180000D01*
X141720000Y-129230000D01*
X141723000Y-129281999D01*
X141721000Y-129329000D01*
X141716999Y-129372999D01*
X141710000Y-129413999D01*
X141699000Y-129454000D01*
X141686000Y-129490999D01*
X141670000Y-129526000D01*
X141651000Y-129558000D01*
X141629000Y-129588000D01*
X141605000Y-129615999D01*
X141578000Y-129641000D01*
X141549000Y-129662000D01*
X141517000Y-129680999D01*
X141483000Y-129697000D01*
X141447000Y-129711000D01*
X141408000Y-129721000D01*
X141367000Y-129728000D01*
X140909000Y-129795000D01*
X140863000Y-129804000D01*
X140823000Y-129820000D01*
X140790000Y-129841000D01*
X140762000Y-129869000D01*
X140741000Y-129901999D01*
X140725000Y-129941000D01*
X140716000Y-129985000D01*
X140713000Y-130036000D01*
X140714000Y-130065000D01*
X140718000Y-130093000D01*
X140725000Y-130119000D01*
X140734000Y-130143000D01*
X140746000Y-130165000D01*
X140760000Y-130186000D01*
X140777000Y-130204999D01*
X140796000Y-130223000D01*
X140817999Y-130238000D01*
X140841999Y-130252000D01*
X140868000Y-130263000D01*
X140896000Y-130271999D01*
X140926000Y-130280000D01*
X140958000Y-130285000D01*
X140993000Y-130288000D01*
X141030000Y-130288999D01*
X141162000Y-130288999D01*
X141198000Y-130288000D01*
X141232000Y-130285000D01*
X141264000Y-130280000D01*
X141293000Y-130273000D01*
X141321000Y-130264000D01*
X141346000Y-130252999D01*
X141370000Y-130239000D01*
X141391000Y-130223999D01*
X141410000Y-130207000D01*
X141427000Y-130189000D01*
X141441000Y-130168999D01*
X141452000Y-130146999D01*
X141461000Y-130124000D01*
X141468000Y-130098999D01*
X141471000Y-130072999D01*
X141473000Y-130045000D01*
X141744000Y-130045000D01*
X141741000Y-130101000D01*
X141734000Y-130153000D01*
X141722000Y-130202000D01*
X141706000Y-130247999D01*
X141684000Y-130291000D01*
X141658000Y-130329999D01*
X141627000Y-130365999D01*
X141591999Y-130399000D01*
X141552000Y-130428000D01*
X141508000Y-130454000D01*
X141460000Y-130475000D01*
X141408000Y-130493000D01*
X141353000Y-130507000D01*
X141293000Y-130516000D01*
X141230000Y-130521999D01*
X141162000Y-130524000D01*
X141030000Y-130524000D01*
X140962000Y-130521999D01*
X140899000Y-130516000D01*
X140839000Y-130506000D01*
X140784000Y-130492000D01*
X140732000Y-130473999D01*
X140684000Y-130452000D01*
X140640000Y-130425999D01*
X140600000Y-130396000D01*
X140564000Y-130362000D01*
X140534000Y-130324999D01*
X140507000Y-130285000D01*
X140486000Y-130242000D01*
X140469000Y-130195000D01*
X140457000Y-130144999D01*
X140450000Y-130091999D01*
X140448000Y-130036000D01*
X140454999Y-129933000D01*
X140474000Y-129841999D01*
X140507000Y-129763000D01*
X140553000Y-129695000D01*
X140613000Y-129639000D01*
X140685000Y-129595000D01*
X140771000Y-129562999D01*
X140870000Y-129542000D01*
X141298000Y-129481000D01*
X141335000Y-129473000D01*
X141368000Y-129459999D01*
X141395000Y-129442000D01*
X141418000Y-129420000D01*
X141435000Y-129392000D01*
X141448000Y-129360000D01*
X141454999Y-129324000D01*
X141458000Y-129281999D01*
X141456000Y-129256000D01*
X141453000Y-129231000D01*
X141447000Y-129207000D01*
X141438000Y-129185000D01*
X141427000Y-129165000D01*
X141413000Y-129144999D01*
X141398000Y-129127000D01*
X141379000Y-129110999D01*
X141359000Y-129096000D01*
X141336000Y-129083000D01*
X141312000Y-129072000D01*
X141286000Y-129062999D01*
X141258000Y-129055999D01*
X141228000Y-129050999D01*
X141196000Y-129048000D01*
X141162000Y-129047000D01*
X141030000Y-129047000D01*
X140999000Y-129048000D01*
X140971000Y-129050999D01*
X140942999Y-129055000D01*
X140918000Y-129062000D01*
X140893000Y-129070000D01*
X140871000Y-129079999D01*
X140849000Y-129091000D01*
X140829000Y-129105000D01*
X140811000Y-129119000D01*
X140795000Y-129134999D01*
X140781999Y-129151999D01*
X140770000Y-129168999D01*
X140761000Y-129187999D01*
X140754000Y-129207000D01*
X140749000Y-129228000D01*
X140746000Y-129249000D01*
X140472000Y-129249000D01*
X140477000Y-129202000D01*
X140487000Y-129156999D01*
X140501000Y-129115000D01*
X140519000Y-129074999D01*
X140542000Y-129037000D01*
X140569000Y-129002000D01*
X140600000Y-128968000D01*
X140636000Y-128937000D01*
X140676000Y-128908999D01*
X140718000Y-128884999D01*
X140763000Y-128865000D01*
X140811000Y-128848000D01*
X140861000Y-128834999D01*
X140915000Y-128826000D01*
X140971000Y-128820000D01*
X141030000Y-128817999D01*
X141162000Y-128817999D01*
X141226000Y-128820000D01*
G37*
G36*
X129694000Y-93006000D02*
G01*
X129815000Y-93024000D01*
X129933000Y-93054000D01*
X130048000Y-93095000D01*
X130158000Y-93148000D01*
X130261000Y-93211000D01*
X130358000Y-93285000D01*
X130445000Y-93370000D01*
X130523000Y-93465000D01*
X130590000Y-93570000D01*
X130771999Y-93898000D01*
X131266000Y-94788000D01*
X131995000Y-96104000D01*
X132884999Y-97706000D01*
X133858000Y-99458000D01*
X134838000Y-101221000D01*
X135749000Y-102856000D01*
X136515000Y-104227000D01*
X137060000Y-105194000D01*
X137308000Y-105621000D01*
X137343000Y-105679000D01*
X137377000Y-105733000D01*
X137410000Y-105781000D01*
X137442999Y-105823000D01*
X137476000Y-105860000D01*
X137510000Y-105890999D01*
X137546000Y-105914999D01*
X137585000Y-105932000D01*
X137628000Y-105943000D01*
X137674000Y-105947000D01*
X137711000Y-105945000D01*
X137748000Y-105942000D01*
X137785000Y-105936000D01*
X137823000Y-105926999D01*
X137863000Y-105916000D01*
X137903000Y-105902999D01*
X137945000Y-105887000D01*
X137988000Y-105868000D01*
X138034000Y-105848000D01*
X138081000Y-105824000D01*
X138353999Y-105723000D01*
X138908000Y-105505000D01*
X139679000Y-105185000D01*
X140600000Y-104780000D01*
X141608000Y-104308000D01*
X142637000Y-103783999D01*
X143621000Y-103226000D01*
X144495000Y-102650000D01*
X145195000Y-102072000D01*
X145654000Y-101509000D01*
X145728999Y-101363000D01*
X145807000Y-101195000D01*
X145885000Y-101007000D01*
X145960000Y-100801999D01*
X146031000Y-100583000D01*
X146094000Y-100351000D01*
X146147000Y-100110000D01*
X146188000Y-99860999D01*
X146215000Y-99607000D01*
X146224000Y-99351000D01*
X146209000Y-99021000D01*
X146159000Y-98694000D01*
X146072000Y-98375000D01*
X145942999Y-98070000D01*
X145766000Y-97783999D01*
X145538000Y-97521999D01*
X145254000Y-97289999D01*
X144911000Y-97093000D01*
X144503000Y-96937000D01*
X144025000Y-96827000D01*
X143781000Y-96827000D01*
X143631000Y-96839000D01*
X143555999Y-96857000D01*
X143482000Y-96884000D01*
X143410000Y-96924000D01*
X143341000Y-96976000D01*
X143278000Y-97044000D01*
X143221000Y-97128999D01*
X143171000Y-97233000D01*
X143130000Y-97356000D01*
X143048000Y-97640999D01*
X142952000Y-98006000D01*
X142829000Y-98426999D01*
X142673000Y-98882000D01*
X142477000Y-99348999D01*
X142234000Y-99804000D01*
X141937000Y-100227000D01*
X141579999Y-100594000D01*
X141155000Y-100884000D01*
X140656000Y-101074000D01*
X140076000Y-101142000D01*
X139591999Y-101113000D01*
X139143000Y-101027000D01*
X138733000Y-100884000D01*
X138366000Y-100687000D01*
X138046000Y-100435000D01*
X137775000Y-100131000D01*
X137558000Y-99776000D01*
X137399000Y-99371000D01*
X137301000Y-98917000D01*
X137267000Y-98414999D01*
X137271000Y-98229999D01*
X137281999Y-98044000D01*
X137299000Y-97854999D01*
X137323000Y-97664999D01*
X137353999Y-97473000D01*
X137390000Y-97280000D01*
X137433000Y-97086000D01*
X137481000Y-96892000D01*
X137534000Y-96697000D01*
X137593000Y-96501000D01*
X137848000Y-95973999D01*
X138211000Y-95515000D01*
X138666000Y-95121000D01*
X139197000Y-94789000D01*
X139786000Y-94517000D01*
X140418999Y-94300000D01*
X141077000Y-94136000D01*
X141746000Y-94023000D01*
X142409000Y-93958000D01*
X143048000Y-93936000D01*
X143911000Y-94038000D01*
X144774000Y-94333000D01*
X145615000Y-94801000D01*
X146415000Y-95426999D01*
X147150000Y-96191000D01*
X147800000Y-97076000D01*
X148343000Y-98064000D01*
X148757000Y-99137000D01*
X149022000Y-100277999D01*
X149115000Y-101468000D01*
X149108000Y-101763000D01*
X149090000Y-102059000D01*
X149058000Y-102357000D01*
X149014000Y-102658000D01*
X148957000Y-102959000D01*
X148886000Y-103262000D01*
X148801000Y-103566000D01*
X148703000Y-103871000D01*
X148590000Y-104176000D01*
X148463000Y-104481000D01*
X147944000Y-105388000D01*
X147211000Y-106309000D01*
X146323000Y-107219000D01*
X145343000Y-108094000D01*
X144331000Y-108908000D01*
X143348000Y-109637000D01*
X142456000Y-110255000D01*
X141715000Y-110738000D01*
X141186000Y-111061000D01*
X140930999Y-111198000D01*
X140885000Y-111223000D01*
X140843000Y-111247999D01*
X140807000Y-111274000D01*
X140775000Y-111301000D01*
X140748000Y-111331000D01*
X140726000Y-111363000D01*
X140709000Y-111396999D01*
X140697000Y-111436000D01*
X140689000Y-111478000D01*
X140687000Y-111524000D01*
X140689000Y-111574000D01*
X140697000Y-111627000D01*
X140709000Y-111683000D01*
X140726000Y-111741999D01*
X140748000Y-111804000D01*
X140775000Y-111870000D01*
X140807000Y-111940000D01*
X140843000Y-112014000D01*
X140885000Y-112092000D01*
X140930999Y-112176000D01*
X141173000Y-112625000D01*
X141680000Y-113550000D01*
X142385000Y-114828000D01*
X143218000Y-116334000D01*
X144112000Y-117947000D01*
X144141000Y-118000000D01*
X141509000Y-118000000D01*
X140928000Y-116950000D01*
X140054000Y-115368000D01*
X139327000Y-114050000D01*
X138820000Y-113131000D01*
X138611000Y-112746000D01*
X138609000Y-112749000D01*
X138605000Y-112750000D01*
X138597000Y-112749000D01*
X138588000Y-112745000D01*
X138576000Y-112740000D01*
X138561000Y-112733000D01*
X138545000Y-112723999D01*
X138527000Y-112714000D01*
X138507000Y-112703000D01*
X138486000Y-112691000D01*
X138451000Y-112672000D01*
X138415000Y-112652000D01*
X138377000Y-112632000D01*
X138339000Y-112612000D01*
X138299000Y-112594000D01*
X138261000Y-112577000D01*
X138223000Y-112563000D01*
X138187000Y-112551999D01*
X138153000Y-112545000D01*
X138122000Y-112542000D01*
X137728999Y-112646000D01*
X136977000Y-112882000D01*
X135962000Y-113245000D01*
X134777000Y-113731000D01*
X133517000Y-114333000D01*
X132274000Y-115048000D01*
X131144000Y-115871000D01*
X130221000Y-116795999D01*
X129598000Y-117818000D01*
X129369000Y-118934000D01*
X129398000Y-119394000D01*
X129482000Y-119820000D01*
X129617000Y-120211000D01*
X129800999Y-120564000D01*
X130031000Y-120878000D01*
X130300999Y-121150000D01*
X130610000Y-121378000D01*
X130953000Y-121562000D01*
X131328000Y-121697000D01*
X131730000Y-121783999D01*
X131852000Y-121824000D01*
X132103000Y-121807000D01*
X132341999Y-121755000D01*
X132564000Y-121667000D01*
X132766000Y-121543000D01*
X132947000Y-121382000D01*
X133101000Y-121182000D01*
X133227000Y-120945000D01*
X133321000Y-120668000D01*
X133379000Y-120350000D01*
X133399000Y-119991999D01*
X133399000Y-119545000D01*
X133429000Y-119093000D01*
X133514000Y-118670999D01*
X133650000Y-118282000D01*
X133831000Y-117930000D01*
X134050999Y-117621000D01*
X134305000Y-117358000D01*
X134588000Y-117146000D01*
X134894999Y-116988000D01*
X135220000Y-116890999D01*
X135557000Y-116858000D01*
X135606000Y-116859000D01*
X135655000Y-116862000D01*
X135704000Y-116866999D01*
X135753000Y-116874000D01*
X135802000Y-116883000D01*
X135850000Y-116893000D01*
X135899000Y-116902999D01*
X135948000Y-116914999D01*
X135997000Y-116926999D01*
X136046000Y-116939000D01*
X136493000Y-117058000D01*
X136925000Y-117199000D01*
X137334000Y-117364000D01*
X137714000Y-117560000D01*
X138055999Y-117789000D01*
X138353000Y-118056000D01*
X138597000Y-118365000D01*
X138780000Y-118720000D01*
X138896000Y-119125000D01*
X138936000Y-119585000D01*
X138863000Y-120319000D01*
X138655000Y-121021999D01*
X138466999Y-121400000D01*
X135680000Y-121400000D01*
X135680000Y-123883000D01*
X135445000Y-123982000D01*
X134732000Y-124164000D01*
X134009999Y-124226000D01*
X133850000Y-124224000D01*
X133687999Y-124216000D01*
X133523000Y-124203000D01*
X133356000Y-124185000D01*
X133186000Y-124160000D01*
X133014000Y-124130000D01*
X132839000Y-124093000D01*
X132662000Y-124049000D01*
X132482000Y-123999000D01*
X132300000Y-123941000D01*
X131357000Y-123566000D01*
X130485999Y-123103000D01*
X129694000Y-122556000D01*
X128987000Y-121932000D01*
X128720000Y-121628999D01*
X128720000Y-121400000D01*
X128518000Y-121400000D01*
X128372000Y-121234000D01*
X127853000Y-120468000D01*
X127440000Y-119638000D01*
X127136000Y-118750000D01*
X126949000Y-117808000D01*
X126885000Y-116817000D01*
X126887000Y-116706000D01*
X126890000Y-116592000D01*
X126895000Y-116477000D01*
X126902000Y-116360000D01*
X126911000Y-116241999D01*
X126921000Y-116122000D01*
X126931000Y-116001000D01*
X126943000Y-115880000D01*
X126955000Y-115758000D01*
X126967000Y-115636000D01*
X127313000Y-114321000D01*
X127938000Y-113072000D01*
X128771000Y-111905000D01*
X129740999Y-110834000D01*
X130779000Y-109875000D01*
X131812000Y-109044000D01*
X132771999Y-108354000D01*
X133586000Y-107822000D01*
X134186000Y-107462000D01*
X134499000Y-107289999D01*
X134637000Y-107208000D01*
X134757999Y-107132000D01*
X134864000Y-107062000D01*
X134953000Y-106996000D01*
X135028000Y-106934000D01*
X135088000Y-106874000D01*
X135134000Y-106815000D01*
X135166000Y-106757000D01*
X135185000Y-106699000D01*
X135191000Y-106639000D01*
X135190000Y-106614000D01*
X135186000Y-106590000D01*
X135180999Y-106565000D01*
X135174000Y-106541000D01*
X135165000Y-106517000D01*
X135156000Y-106491999D01*
X135144999Y-106468000D01*
X135134000Y-106443000D01*
X135122000Y-106419000D01*
X135108999Y-106394000D01*
X134878000Y-105988000D01*
X134353999Y-105054000D01*
X133613000Y-103727000D01*
X132728999Y-102140999D01*
X131776000Y-100430000D01*
X130829999Y-98729000D01*
X129964000Y-97172000D01*
X129252999Y-95894000D01*
X128771999Y-95027999D01*
X128595000Y-94710000D01*
X128561000Y-94650000D01*
X128531999Y-94592000D01*
X128506000Y-94536000D01*
X128485000Y-94479999D01*
X128468000Y-94425000D01*
X128454999Y-94370000D01*
X128445000Y-94314000D01*
X128437999Y-94258000D01*
X128434000Y-94200000D01*
X128433000Y-94140000D01*
X128447999Y-93950000D01*
X128492000Y-93771000D01*
X128562999Y-93606000D01*
X128658000Y-93457000D01*
X128774000Y-93326000D01*
X128906999Y-93214000D01*
X129057000Y-93122999D01*
X129219000Y-93056000D01*
X129392000Y-93014000D01*
X129572999Y-93000000D01*
X129694000Y-93006000D01*
G37*
M02*
