M48
; DRILL file KiCad 10.0.4 date 2026-09-22T16:45:41
; FORMAT={-:-/ absolute / metric / decimal}
; #@! TF.CreationDate,2026-09-22T16:45:41-03:00
; #@! TF.GenerationSoftware,Kicad,Pcbnew,10.0.4
; #@! TF.FileFunction,Plated,1,2,PTH
FMAT,2
METRIC
; #@! TA.AperFunction,Plated,PTH,ViaDrill
T1C0.400
; #@! TA.AperFunction,Plated,PTH,ComponentDrill
T2C0.800
; #@! TA.AperFunction,Plated,PTH,ComponentDrill
T3C1.000
; #@! TA.AperFunction,Plated,PTH,ComponentDrill
T4C1.100
; #@! TA.AperFunction,Plated,PTH,ComponentDrill
T5C1.250
; #@! TA.AperFunction,Plated,PTH,ComponentDrill
T6C1.800
; #@! TA.AperFunction,Plated,PTH,ComponentDrill
T7C3.200
%
G90
G05
T1
X104.948Y-137.886
X105.0Y-69.35
X107.05Y-93.0
X107.4Y-106.92
X107.4Y-124.8
X107.95Y-78.55
X109.25Y-136.75
X110.9Y-144.2
X111.107Y-121.3
X111.572Y-118.776
X112.0Y-72.0
X112.0Y-84.0
X112.0Y-108.0
X112.0Y-120.0
X112.0Y-132.0
X113.81Y-133.057
X116.241Y-112.563
X118.578Y-98.846
X118.583Y-136.75
X118.92Y-118.933
X119.076Y-130.92
X119.633Y-121.797
X120.233Y-144.2
X123.375Y-129.0
X123.95Y-99.06
X123.95Y-112.94
X124.0Y-72.0
X124.0Y-84.0
X125.25Y-79.55
X125.822Y-93.756
X125.822Y-105.659
X127.917Y-136.75
X128.033Y-118.233
X129.541Y-125.466
X129.567Y-144.2
X130.232Y-133.65
X130.556Y-120.479
X135.256Y-139.348
X135.86Y-81.0
X136.0Y-132.0
X136.65Y-99.06
X136.65Y-112.94
X137.25Y-136.75
X137.51Y-87.029
X138.9Y-144.2
X145.223Y-92.033
X145.44Y-78.415
X145.723Y-79.549
X146.583Y-136.75
X146.636Y-93.785
X146.888Y-91.12
X148.233Y-144.2
X149.07Y-88.54
X149.35Y-99.06
X149.35Y-112.94
X149.426Y-134.351
X151.016Y-125.631
X151.25Y-126.875
X152.5Y-66.375
X152.883Y-122.896
X153.031Y-126.814
X153.716Y-89.071
X154.619Y-122.761
X154.75Y-118.965
X155.917Y-136.75
X157.15Y-79.55
X157.567Y-144.2
X158.369Y-122.828
X159.178Y-77.899
X160.0Y-84.0
X162.05Y-99.06
X162.05Y-112.94
X162.054Y-83.997
X162.189Y-125.959
X163.0Y-93.5
X164.65Y-66.375
X164.65Y-106.0
X165.024Y-140.529
X165.25Y-136.75
X166.248Y-77.028
X166.517Y-113.207
X166.9Y-144.2
X167.25Y-79.55
X168.03Y-119.6
X169.597Y-101.567
X169.855Y-114.677
X170.785Y-94.474
X172.0Y-132.0
X172.19Y-94.93
X172.19Y-113.07
X172.386Y-88.516
X174.131Y-114.042
X174.14Y-106.54
X174.4Y-84.4
X174.583Y-136.75
X176.0Y-133.2
X176.233Y-144.2
X177.124Y-75.478
X177.86Y-101.46
X177.86Y-106.54
X178.082Y-86.95
X178.4Y-84.0
X178.95Y-66.375
X179.574Y-114.916
X181.2Y-63.5
X181.25Y-89.55
X182.129Y-104.05
X183.917Y-136.75
X185.537Y-97.64
X185.567Y-144.2
X186.23Y-85.49
X186.23Y-90.57
X186.23Y-103.27
X186.23Y-110.89
X186.23Y-121.05
X186.6Y-97.3
X192.4Y-126.6
X192.77Y-77.87
X192.77Y-95.65
X192.77Y-115.97
X193.25Y-136.75
X193.3Y-128.6
X194.842Y-93.798
X194.9Y-144.2
X196.9Y-116.22
T2
X105.45Y-80.0
X106.75Y-135.3
X107.95Y-80.0
X109.25Y-135.3
X111.92Y-123.0
X114.32Y-119.6
X116.083Y-135.3
X118.583Y-135.3
X122.08Y-123.0
X122.75Y-81.0
X124.48Y-119.6
X124.92Y-123.0
X125.25Y-81.0
X125.417Y-135.3
X127.12Y-119.6
X127.917Y-135.3
X129.92Y-89.5
X130.19Y-74.4
X130.19Y-78.46
X130.19Y-81.0
X130.19Y-83.54
X134.75Y-135.3
X135.08Y-123.0
X137.25Y-135.3
X137.28Y-119.6
X137.81Y-74.4
X137.81Y-78.46
X137.81Y-81.0
X137.81Y-83.54
X139.92Y-123.0
X140.08Y-89.5
X142.92Y-119.6
X144.083Y-135.3
X144.92Y-76.0
X146.583Y-135.3
X150.08Y-123.0
X151.92Y-87.0
X153.08Y-119.6
X153.417Y-135.3
X154.65Y-81.0
X155.08Y-76.0
X155.917Y-135.3
X156.42Y-119.6
X157.15Y-81.0
X157.92Y-76.0
X161.82Y-91.0
X162.08Y-87.0
X162.75Y-135.3
X164.75Y-81.0
X165.25Y-135.3
X166.32Y-85.0
X166.37Y-123.0
X166.58Y-119.6
X167.25Y-81.0
X168.08Y-76.0
X171.82Y-81.0
X171.92Y-76.0
X171.98Y-91.0
X172.083Y-135.3
X172.19Y-96.38
X172.19Y-98.92
X172.19Y-101.46
X172.19Y-104.0
X172.19Y-106.54
X172.19Y-109.08
X172.19Y-111.62
X172.32Y-118.9
X174.583Y-135.3
X176.48Y-85.0
X176.53Y-123.0
X178.75Y-91.0
X179.81Y-96.38
X179.81Y-98.92
X179.81Y-101.46
X179.81Y-104.0
X179.81Y-106.54
X179.81Y-109.08
X179.81Y-111.62
X181.25Y-91.0
X181.417Y-135.3
X181.98Y-81.0
X182.08Y-76.0
X182.48Y-118.9
X183.917Y-135.3
X190.75Y-135.3
X193.25Y-135.3
X196.9Y-99.92
X196.9Y-110.08
X196.9Y-114.77
X196.9Y-124.93
T3
X104.2Y-93.0
X109.2Y-93.0
X118.87Y-97.11
X118.87Y-114.89
X121.41Y-97.11
X121.41Y-114.89
X123.95Y-97.11
X123.95Y-114.89
X126.49Y-97.11
X126.49Y-114.89
X129.03Y-97.11
X129.03Y-114.89
X131.57Y-97.11
X131.57Y-114.89
X134.11Y-97.11
X134.11Y-114.89
X136.65Y-97.11
X136.65Y-114.89
X139.19Y-97.11
X139.19Y-114.89
X141.73Y-97.11
X141.73Y-114.89
X144.27Y-97.11
X144.27Y-114.89
X146.81Y-97.11
X146.81Y-114.89
X149.35Y-97.11
X149.35Y-114.89
X151.89Y-97.11
X151.89Y-114.89
X154.43Y-97.11
X154.43Y-114.89
X156.97Y-97.11
X156.97Y-114.89
X159.51Y-97.11
X159.51Y-114.89
X162.05Y-97.11
X162.05Y-114.89
X164.59Y-97.11
X164.59Y-114.89
X166.9Y-103.46
X166.9Y-106.0
X166.9Y-108.54
X167.13Y-97.11
X167.13Y-114.89
T4
X106.75Y-144.2
X109.25Y-144.2
X116.083Y-144.2
X116.85Y-68.0
X118.583Y-144.2
X119.35Y-68.0
X125.0Y-129.0
X125.417Y-144.2
X127.5Y-129.0
X127.917Y-144.2
X130.0Y-129.0
X132.75Y-68.0
X134.75Y-144.2
X135.25Y-68.0
X137.25Y-144.2
X144.083Y-144.2
X146.583Y-144.2
X147.5Y-68.0
X148.75Y-129.0
X150.0Y-68.0
X151.25Y-129.0
X152.5Y-68.0
X153.417Y-144.2
X153.75Y-129.0
X155.917Y-144.2
X156.25Y-129.0
X159.65Y-68.0
X162.15Y-68.0
X162.75Y-144.2
X164.65Y-68.0
X165.25Y-144.2
X166.75Y-129.0
X167.15Y-68.0
X169.25Y-129.0
X172.083Y-144.2
X173.95Y-68.0
X174.583Y-144.2
X176.45Y-68.0
X178.25Y-129.0
X178.95Y-68.0
X180.75Y-129.0
X181.417Y-144.2
X181.45Y-68.0
X183.917Y-144.2
X190.75Y-144.2
X193.25Y-144.2
T5
X145.03Y-83.46
X145.03Y-86.0
X145.03Y-88.54
X147.57Y-83.46
X147.57Y-86.0
X147.57Y-88.54
X188.23Y-77.87
X188.23Y-80.41
X188.23Y-82.95
X188.23Y-85.49
X188.23Y-88.03
X188.23Y-90.57
X188.23Y-93.11
X188.23Y-95.65
X188.23Y-98.19
X188.23Y-100.73
X188.23Y-103.27
X188.23Y-105.81
X188.23Y-108.35
X188.23Y-110.89
X188.23Y-113.43
X188.23Y-115.97
X188.23Y-118.51
X188.23Y-121.05
X188.23Y-123.59
X188.23Y-126.13
X190.77Y-77.87
X190.77Y-80.41
X190.77Y-82.95
X190.77Y-85.49
X190.77Y-88.03
X190.77Y-90.57
X190.77Y-93.11
X190.77Y-95.65
X190.77Y-98.19
X190.77Y-100.73
X190.77Y-103.27
X190.77Y-105.81
X190.77Y-108.35
X190.77Y-110.89
X190.77Y-113.43
X190.77Y-115.97
X190.77Y-118.51
X190.77Y-121.05
X190.77Y-123.59
X190.77Y-126.13
T6
X105.4Y-106.92
X105.4Y-110.88
X105.4Y-116.88
X105.4Y-120.84
X105.4Y-124.8
T7
X105.0Y-65.0
X105.0Y-154.5
X194.5Y-65.0
X194.5Y-154.5
M30
