%TF.GenerationSoftware,KiCad,Pcbnew,10.0.4*%
%TF.CreationDate,2026-08-18T14:15:15-03:00*%
%TF.ProjectId,segno_console_board,7365676e-6f5f-4636-9f6e-736f6c655f62,rev?*%
%TF.SameCoordinates,Original*%
%TF.FileFunction,Paste,Top*%
%TF.FilePolarity,Positive*%
%FSLAX46Y46*%
G04 Gerber Fmt 4.6, Leading zero omitted, Abs format (unit mm)*
G04 Created by KiCad (PCBNEW 10.0.4) date 2026-08-18 14:15:15*
%MOMM*%
%LPD*%
G01*
G04 APERTURE LIST*
%ADD10R,2.200000X3.800000*%
%ADD11R,3.800000X2.200000*%
G04 APERTURE END LIST*
D10*
%TO.C,J1*%
X118870000Y-115690000D03*
X121410000Y-115690000D03*
X123950000Y-115690000D03*
X126490000Y-115690000D03*
X129030000Y-115690000D03*
X131570000Y-115690000D03*
X134110000Y-115690000D03*
X136650000Y-115690000D03*
X139190000Y-115690000D03*
X141730000Y-115690000D03*
X144270000Y-115690000D03*
X146810000Y-115690000D03*
X149350000Y-115690000D03*
X151890000Y-115690000D03*
X154430000Y-115690000D03*
X156970000Y-115690000D03*
X159510000Y-115690000D03*
X162050000Y-115690000D03*
X164590000Y-115690000D03*
X167130000Y-115690000D03*
D11*
X167700000Y-108540000D03*
X167700000Y-106000000D03*
X167700000Y-103460000D03*
D10*
X118870000Y-96310000D03*
X121410000Y-96310000D03*
X123950000Y-96310000D03*
X126490000Y-96310000D03*
X129030000Y-96310000D03*
X131570000Y-96310000D03*
X134110000Y-96310000D03*
X136650000Y-96310000D03*
X139190000Y-96310000D03*
X141730000Y-96310000D03*
X144270000Y-96310000D03*
X146810000Y-96310000D03*
X149350000Y-96310000D03*
X151890000Y-96310000D03*
X154430000Y-96310000D03*
X156970000Y-96310000D03*
X159510000Y-96310000D03*
X162050000Y-96310000D03*
X164590000Y-96310000D03*
X167130000Y-96310000D03*
%TD*%
M02*
