M48
; DRILL file KiCad 10.0.4 date 2026-09-17T19:39:26
; FORMAT={-:-/ absolute / metric / decimal}
; #@! TF.CreationDate,2026-09-17T19:39:26-03:00
; #@! TF.GenerationSoftware,Kicad,Pcbnew,10.0.4
; #@! TF.FileFunction,Plated,1,2,PTH
FMAT,2
METRIC
; #@! TA.AperFunction,Plated,PTH,ViaDrill
T1C0.400
; #@! TA.AperFunction,Plated,PTH,ComponentDrill
T2C0.800
; #@! TA.AperFunction,Plated,PTH,ComponentDrill
T3C0.950
; #@! TA.AperFunction,Plated,PTH,ComponentDrill
T4C1.000
; #@! TA.AperFunction,Plated,PTH,ComponentDrill
T5C1.700
; #@! TA.AperFunction,Plated,PTH,ComponentDrill
T6C3.200
%
G90
G05
T1
X105.0Y-69.35
X107.05Y-93.0
X107.4Y-106.92
X107.4Y-123.8
X107.95Y-78.55
X109.25Y-136.75
X110.9Y-144.2
X112.0Y-72.0
X112.0Y-84.0
X112.0Y-132.0
X112.655Y-101.774
X113.746Y-85.728
X114.911Y-126.569
X115.236Y-113.152
X115.281Y-132.45
X116.586Y-91.76
X117.05Y-101.147
X117.295Y-116.943
X118.583Y-136.75
X119.046Y-122.873
X120.233Y-144.2
X122.816Y-118.888
X123.375Y-128.2
X123.95Y-99.06
X123.95Y-112.94
X124.0Y-72.0
X124.0Y-84.0
X125.25Y-79.55
X127.917Y-136.75
X129.567Y-144.2
X133.983Y-132.678
X134.407Y-130.583
X135.86Y-81.0
X136.0Y-132.0
X136.65Y-99.06
X136.65Y-112.94
X137.25Y-136.75
X138.9Y-144.2
X140.505Y-129.005
X141.53Y-134.592
X142.827Y-125.167
X142.874Y-87.058
X146.583Y-136.75
X148.233Y-144.2
X148.594Y-106.918
X149.07Y-88.54
X149.35Y-99.06
X149.35Y-112.94
X151.25Y-126.875
X152.5Y-66.375
X155.917Y-136.75
X156.167Y-130.829
X157.15Y-79.55
X157.567Y-144.2
X158.265Y-121.998
X160.0Y-84.0
X160.121Y-81.891
X162.05Y-99.06
X162.05Y-112.94
X162.71Y-89.131
X164.65Y-66.375
X164.65Y-106.0
X165.036Y-99.079
X165.25Y-136.75
X166.9Y-144.2
X167.25Y-79.55
X168.03Y-119.6
X168.681Y-123.255
X169.294Y-97.206
X169.922Y-118.063
X170.577Y-101.894
X172.0Y-120.0
X172.0Y-132.0
X172.19Y-94.93
X172.19Y-113.07
X173.635Y-121.624
X173.676Y-93.157
X173.807Y-117.132
X174.082Y-112.758
X174.14Y-106.54
X174.583Y-136.75
X175.084Y-102.307
X176.233Y-144.2
X177.86Y-101.46
X177.86Y-106.54
X178.95Y-66.375
X181.25Y-89.55
X183.917Y-136.75
X185.064Y-111.169
X185.567Y-144.2
X186.23Y-85.49
X186.23Y-90.57
X186.23Y-103.27
X186.23Y-110.89
X186.23Y-121.05
X192.77Y-77.87
X192.77Y-95.65
X192.77Y-115.97
X193.25Y-136.75
X194.9Y-144.2
X196.9Y-116.22
X197.551Y-129.69
T2
X105.45Y-80.0
X106.75Y-135.3
X107.95Y-80.0
X109.25Y-135.3
X111.92Y-123.0
X114.32Y-119.6
X116.083Y-135.3
X118.583Y-135.3
X122.08Y-123.0
X122.75Y-81.0
X124.48Y-119.6
X124.92Y-123.0
X125.25Y-81.0
X125.417Y-135.3
X127.12Y-119.6
X127.917Y-135.3
X129.92Y-89.5
X130.19Y-74.4
X130.19Y-78.46
X130.19Y-81.0
X130.19Y-83.54
X134.75Y-135.3
X135.08Y-123.0
X137.25Y-135.3
X137.28Y-119.6
X137.81Y-74.4
X137.81Y-78.46
X137.81Y-81.0
X137.81Y-83.54
X139.92Y-123.0
X140.08Y-89.5
X142.92Y-119.6
X144.083Y-135.3
X144.92Y-76.0
X146.583Y-135.3
X150.08Y-123.0
X151.92Y-87.0
X153.08Y-119.6
X153.417Y-135.3
X154.65Y-81.0
X155.08Y-76.0
X155.917Y-135.3
X156.42Y-119.6
X157.15Y-81.0
X157.92Y-76.0
X161.82Y-91.0
X162.08Y-87.0
X162.75Y-135.3
X164.75Y-81.0
X165.25Y-135.3
X166.32Y-85.0
X166.52Y-123.0
X166.58Y-119.6
X167.25Y-81.0
X168.08Y-76.0
X171.82Y-81.0
X171.92Y-76.0
X171.98Y-91.0
X172.083Y-135.3
X172.19Y-96.38
X172.19Y-98.92
X172.19Y-101.46
X172.19Y-104.0
X172.19Y-106.54
X172.19Y-109.08
X172.19Y-111.62
X174.583Y-135.3
X176.48Y-85.0
X176.68Y-123.0
X178.75Y-91.0
X179.5Y-117.92
X179.5Y-128.08
X179.81Y-96.38
X179.81Y-98.92
X179.81Y-101.46
X179.81Y-104.0
X179.81Y-106.54
X179.81Y-109.08
X179.81Y-111.62
X181.25Y-91.0
X181.417Y-135.3
X181.98Y-81.0
X182.08Y-76.0
X183.917Y-135.3
X190.75Y-135.3
X193.25Y-135.3
X196.9Y-99.92
X196.9Y-110.08
X196.9Y-114.77
X196.9Y-124.93
T3
X125.0Y-128.2
X127.5Y-128.2
X130.0Y-128.2
X147.5Y-68.0
X148.75Y-129.0
X150.0Y-68.0
X151.25Y-129.0
X152.5Y-68.0
X153.75Y-129.0
X156.25Y-129.0
X159.65Y-68.0
X162.15Y-68.0
X164.65Y-68.0
X167.15Y-68.0
X173.95Y-68.0
X176.45Y-68.0
X178.95Y-68.0
X181.45Y-68.0
T4
X104.2Y-93.0
X106.75Y-144.2
X109.2Y-93.0
X109.25Y-144.2
X116.083Y-144.2
X116.85Y-68.0
X118.583Y-144.2
X118.87Y-97.11
X118.87Y-114.89
X119.35Y-68.0
X121.41Y-97.11
X121.41Y-114.89
X121.85Y-90.0
X123.95Y-97.11
X123.95Y-114.89
X124.35Y-90.0
X125.417Y-144.2
X126.49Y-97.11
X126.49Y-114.89
X127.917Y-144.2
X129.03Y-97.11
X129.03Y-114.89
X131.57Y-97.11
X131.57Y-114.89
X132.75Y-68.0
X134.11Y-97.11
X134.11Y-114.89
X134.75Y-144.2
X135.25Y-68.0
X136.65Y-97.11
X136.65Y-114.89
X137.25Y-144.2
X139.19Y-97.11
X139.19Y-114.89
X141.73Y-97.11
X141.73Y-114.89
X144.083Y-144.2
X144.27Y-97.11
X144.27Y-114.89
X145.03Y-83.46
X145.03Y-86.0
X145.03Y-88.54
X146.583Y-144.2
X146.81Y-97.11
X146.81Y-114.89
X147.57Y-83.46
X147.57Y-86.0
X147.57Y-88.54
X149.35Y-97.11
X149.35Y-114.89
X151.89Y-97.11
X151.89Y-114.89
X153.417Y-144.2
X154.43Y-97.11
X154.43Y-114.89
X155.917Y-144.2
X156.97Y-97.11
X156.97Y-114.89
X159.51Y-97.11
X159.51Y-114.89
X162.05Y-97.11
X162.05Y-114.89
X162.75Y-144.2
X164.59Y-97.11
X164.59Y-114.89
X165.25Y-144.2
X166.9Y-103.46
X166.9Y-106.0
X166.9Y-108.54
X167.13Y-97.11
X167.13Y-114.89
X172.083Y-144.2
X174.583Y-144.2
X181.417Y-144.2
X183.917Y-144.2
X188.23Y-77.87
X188.23Y-80.41
X188.23Y-82.95
X188.23Y-85.49
X188.23Y-88.03
X188.23Y-90.57
X188.23Y-93.11
X188.23Y-95.65
X188.23Y-98.19
X188.23Y-100.73
X188.23Y-103.27
X188.23Y-105.81
X188.23Y-108.35
X188.23Y-110.89
X188.23Y-113.43
X188.23Y-115.97
X188.23Y-118.51
X188.23Y-121.05
X188.23Y-123.59
X188.23Y-126.13
X190.75Y-144.2
X190.77Y-77.87
X190.77Y-80.41
X190.77Y-82.95
X190.77Y-85.49
X190.77Y-88.03
X190.77Y-90.57
X190.77Y-93.11
X190.77Y-95.65
X190.77Y-98.19
X190.77Y-100.73
X190.77Y-103.27
X190.77Y-105.81
X190.77Y-108.35
X190.77Y-110.89
X190.77Y-113.43
X190.77Y-115.97
X190.77Y-118.51
X190.77Y-121.05
X190.77Y-123.59
X190.77Y-126.13
X193.25Y-144.2
T5
X105.4Y-106.92
X105.4Y-110.88
X105.4Y-115.88
X105.4Y-119.84
X105.4Y-123.8
T6
X105.0Y-65.0
X105.0Y-154.5
X194.5Y-65.0
X194.5Y-154.5
M30
