0
SECTION
2
HEADER
9
$INSUNITS
70
4
9
$ACADVER
1
AC1014
9
$HANDSEED
5
FFFF
0
ENDSEC
0
SECTION
2
TABLES
0
TABLE
2
VPORT
5
8
100
AcDbSymbolTable
0
ENDTAB
0
TABLE
2
LTYPE
5
5
100
AcDbSymbolTable
0
LTYPE
5
14
100
AcDbSymbolTableRecord
100
AcDbLinetypeTableRecord
2
BYBLOCK
70
0
0
LTYPE
5
15
100
AcDbSymbolTableRecord
100
AcDbLinetypeTableRecord
2
BYLAYER
70
0
0
LTYPE
5
16
100
AcDbSymbolTableRecord
100
AcDbLinetypeTableRecord
2
DASHED
70
0
3
Dashed __ __ __ __ __ __ __ __ __ __ __ __ __ _
72
65
73
2
40
0.75
49
0.5
74
0
49
-0.25
74
0
0
ENDTAB
0
TABLE
2
LAYER
5
2
100
AcDbSymbolTable
70
2
0
LAYER
5
50
100
AcDbSymbolTableRecord
100
AcDbLayerTableRecord
2
0
70
0
62
7
6
CONTINUOUS
0
ENDTAB
0
TABLE
2
STYLE
5
3
100
AcDbSymbolTable
70
1
0
STYLE
5
11
100
AcDbSymbolTableRecord
100
AcDbTextStyleTableRecord
2
STANDARD
70
0
0
ENDTAB
0
TABLE
2
VIEW
5
6
100
AcDbSymbolTable
70
0
0
ENDTAB
0
TABLE
2
UCS
5
7
100
AcDbSymbolTable
70
0
0
ENDTAB
0
TABLE
2
APPID
5
9
100
AcDbSymbolTable
70
2
0
APPID
5
12
100
AcDbSymbolTableRecord
100
AcDbRegAppTableRecord
2
ACAD
70
0
0
ENDTAB
0
TABLE
2
DIMSTYLE
5
A
100
AcDbSymbolTable
70
1
0
ENDTAB
0
TABLE
2
BLOCK_RECORD
5
1
100
AcDbSymbolTable
70
1
0
BLOCK_RECORD
5
1F
100
AcDbSymbolTableRecord
100
AcDbBlockTableRecord
2
*MODEL_SPACE
0
BLOCK_RECORD
5
1B
100
AcDbSymbolTableRecord
100
AcDbBlockTableRecord
2
*PAPER_SPACE
0
ENDTAB
0
ENDSEC
0
SECTION
2
BLOCKS
0
BLOCK
5
20
100
AcDbEntity
100
AcDbBlockBegin
2
*MODEL_SPACE
0
ENDBLK
5
21
100
AcDbEntity
100
AcDbBlockEnd
0
BLOCK
5
1C
100
AcDbEntity
100
AcDbBlockBegin
2
*PAPER_SPACE
0
ENDBLK
5
1D
100
AcDbEntity
100
AcDbBlockEnd
0
ENDSEC
0
SECTION
2
ENTITIES
0
LWPOLYLINE
5
100
100
AcDbEntity
8
OUTER_PROFILES
100
AcDbPolyline
90
39
70
1
43
0.0
10
1.9891565724671016
20
108.79758220861085
10
1.9891565724671083
20
27.911001719552004
10
1.9891565724671083
20
24.867512711551996
10
1.9891565724670794
20
24.812587819188607
10
1.9891565724670905
20
-7.1054273576010019e-14
10
0
20
-7.1054273576010019e-14
10
-845.82168685506747
20
-7.1054273576010019e-14
10
-847.81084342753286
20
-7.1054273576010019e-14
10
-847.81084342753286
20
24.81258769826276
10
-847.81084342753286
20
24.867512711551996
10
-847.81084342753275
20
108.79758220861119
42
3.9608097209440678
10
-849.15786279008842
20
111.57350069794454
10
-929.45691051922768
20
111.57350069793532
42
-0.29410761505729943
10
-931.27764347415291
20
112.74589480933294
10
-941.66930704367383
20
135.60755466227903
10
-943.21693005536019
20
134.90408965696696
10
-943.36749720364219
20
135.2353373831877
42
-0.1626014478534315
10
-943.47958869417243
20
136.30669880208922
10
-942.99034751023555
20
138.51384368871442
10
-943.19690162522556
20
138.96826274169348
10
-856.94464196025046
20
528.08357054845612
42
-0.35167384246301991
10
-854.01573401516259
20
530.43434158329808
10
-849.16084342753288
20
530.43434158329796
42
2.337529507519553
10
-845.76084342753279
20
533.68087819944765
10
-845.76084342753279
20
538.61828054153921
10
-0.060843427532830674
20
538.61828054153921
10
-0.060843427532897162
20
533.68087819944765
42
2.3375295075196609
10
3.3391565724671035
20
530.43434158329808
10
8.1940471600969484
20
530.43434158329808
42
-0.35167384246301392
10
11.122955105184966
20
528.08357054845612
10
97.375214770160042
20
138.96826274169348
10
97.168660655169532
20
138.51384368871442
10
97.657901839106643
20
136.30669880208919
42
-0.16260144785334363
10
97.545810348576495
20
135.2353373831877
10
97.395243200294431
20
134.90408965696696
10
95.847620188607991
20
135.60755466227903
10
85.45595661908699
20
112.74589480933294
42
-0.29410761505734345
10
83.635223664161828
20
111.5735006979353
10
3.3361759350231668
20
111.5735006979353
42
3.960809720955766
0
LWPOLYLINE
5
101
100
AcDbEntity
8
INTERIOR_PROFILES
100
AcDbPolyline
90
4
70
1
43
0.0
10
-55.074108733655322
20
84.434341583298007
10
-91.07410873365518
20
84.434341583298007
42
0.99999999999999989
10
-91.074108733655322
20
80.434341583297808
10
-55.074108733655287
20
80.434341583298092
42
0.99999999999999989
0
LWPOLYLINE
5
102
100
AcDbEntity
8
INTERIOR_PROFILES
100
AcDbPolyline
90
4
70
1
43
0.0
10
-392.19655771324705
20
88.434341583298064
10
-356.19655771324699
20
88.434341583297993
42
0.99999999999999989
10
-356.19655771324699
20
92.43434158329805
10
-392.19655771324705
20
92.434341583297837
42
0.99999999999999989
0
LWPOLYLINE
5
103
100
AcDbEntity
8
INTERIOR_PROFILES
100
AcDbPolyline
90
4
70
1
43
0.0
10
-299.54349648875723
20
88.434341583297993
10
-263.54349648875717
20
88.434341583297993
42
0.99999999999999989
10
-263.54349648875723
20
92.43434158329805
10
-299.54349648875757
20
92.434341583298334
42
0.99999999999999989
0
LWPOLYLINE
5
104
100
AcDbEntity
8
INTERIOR_PROFILES
100
AcDbPolyline
90
4
70
1
43
0.0
10
-276.3802311826347
20
64.434341583297936
42
-0.99999999999999989
10
-276.3802311826347
20
68.434341583297993
10
-240.38023118263484
20
68.43434158329778
42
-0.99999999999999989
10
-240.38023118263484
20
64.434341583298007
0
LWPOLYLINE
5
105
100
AcDbEntity
8
INTERIOR_PROFILES
100
AcDbPolyline
90
4
70
1
43
0.0
10
-263.54349648875723
20
76.434341583298178
42
-0.99999999999999989
10
-263.54349648875723
20
72.434341583297979
10
-299.54349648875723
20
72.43434158329805
42
-0.99999999999999989
10
-299.54349648875723
20
76.434341583297964
0
LWPOLYLINE
5
106
100
AcDbEntity
8
INTERIOR_PROFILES
100
AcDbPolyline
90
4
70
1
43
0.0
10
-67.910843427532882
20
56.434341583298107
42
-0.99999999999999989
10
-67.910843427532882
20
60.434341583298021
10
-31.910843427532892
20
60.434341583297879
42
-0.99999999999999989
10
-31.910843427532892
20
56.434341583297964
0
LWPOLYLINE
5
107
100
AcDbEntity
8
INTERIOR_PROFILES
100
AcDbPolyline
90
4
70
1
43
0.0
10
-137.40063934590017
20
80.434341583298021
10
-101.40063934590037
20
80.434341583297822
42
0.99999999999999989
10
-101.40063934590019
20
84.434341583297993
10
-137.40063934590006
20
84.434341583297794
42
0.99999999999999989
0
LWPOLYLINE
5
108
100
AcDbEntity
8
INTERIOR_PROFILES
100
AcDbPolyline
90
4
70
1
43
0.0
10
-345.87002710100217
20
88.434341583297993
10
-309.87002710100222
20
88.434341583297993
42
0.99999999999999989
10
-309.87002710100217
20
92.43434158329805
10
-345.87002710100256
20
92.434341583298334
42
0.99999999999999989
0
LWPOLYLINE
5
109
100
AcDbEntity
8
INTERIOR_PROFILES
100
AcDbPolyline
90
4
70
1
43
0.0
10
-206.89043526426747
20
88.434341583298206
42
-0.99999999999999989
10
-206.89043526426747
20
92.434341583297979
10
-170.8904352642675
20
92.434341583298021
42
-0.99999999999999989
10
-170.8904352642675
20
88.434341583297737
0
LWPOLYLINE
5
110
100
AcDbEntity
8
INTERIOR_PROFILES
100
AcDbPolyline
90
4
70
1
43
0.0
10
-379.35982301936946
20
52.434341583298192
42
-0.99999999999999989
10
-379.35982301936946
20
48.434341583297993
10
-392.19655771324705
20
48.434341583298348
42
-0.99999999999999989
10
-392.19655771324705
20
52.434341583297979
0
LWPOLYLINE
5
111
100
AcDbEntity
8
INTERIOR_PROFILES
100
AcDbPolyline
90
4
70
1
43
0.0
10
-217.2169658765124
20
92.43434158329805
42
-0.99999999999999989
10
-217.2169658765124
20
88.434341583297993
10
-253.21696587651235
20
88.434341583298206
42
-0.99999999999999989
10
-253.21696587651235
20
92.434341583297979
0
LWPOLYLINE
5
112
100
AcDbEntity
8
INTERIOR_PROFILES
100
AcDbPolyline
90
4
70
1
43
0.0
10
-379.35982301936946
20
84.434341583298007
10
-392.19655771324688
20
84.434341583298007
42
0.99999999999999989
10
-392.19655771324705
20
80.43434158329795
10
-379.35982301936963
20
80.434341583298092
42
0.99999999999999989
0
LWPOLYLINE
5
113
100
AcDbEntity
8
INTERIOR_PROFILES
100
AcDbPolyline
90
4
70
1
43
0.0
10
-183.72716995814503
20
64.434341583297936
10
-147.72716995814508
20
64.434341583298007
42
0.99999999999999989
10
-147.72716995814503
20
68.434341583297922
10
-183.72716995814517
20
68.434341583298135
42
0.99999999999999989
0
LWPOLYLINE
5
114
100
AcDbEntity
8
INTERIOR_PROFILES
100
AcDbPolyline
90
4
70
1
43
0.0
10
-286.7067617948797
20
84.434341583297936
42
-0.99999999999999989
10
-286.7067617948797
20
80.434341583298021
10
-322.7067617948797
20
80.434341583298021
42
-0.99999999999999989
10
-322.7067617948797
20
84.434341583298007
0
LWPOLYLINE
5
115
100
AcDbEntity
8
INTERIOR_PROFILES
100
AcDbPolyline
90
4
70
1
43
0.0
10
-114.23737403977775
20
72.434341583297908
42
-0.99999999999999989
10
-114.23737403977775
20
76.434341583297964
10
-78.237374039777748
20
76.434341583297979
42
-0.99999999999999989
10
-78.237374039777748
20
72.434341583298036
0
LWPOLYLINE
5
116
100
AcDbEntity
8
INTERIOR_PROFILES
100
AcDbPolyline
90
4
70
1
43
0.0
10
-91.074108733655322
20
64.434341583298007
10
-55.074108733655123
20
64.434341583298007
42
0.99999999999999989
10
-55.074108733655322
20
68.43434158329778
10
-91.074108733655322
20
68.434341583298064
42
0.99999999999999989
0
LWPOLYLINE
5
117
100
AcDbEntity
8
INTERIOR_PROFILES
100
AcDbPolyline
90
4
70
1
43
0.0
10
-206.89043526426747
20
40.434341583298021
10
-170.89043526426741
20
40.434341583298021
42
0.99999999999999989
10
-170.8904352642675
20
44.434341583298078
10
-206.89043526426741
20
44.434341583297794
42
0.99999999999999989
0
LWPOLYLINE
5
118
100
AcDbEntity
8
INTERIOR_PROFILES
100
AcDbPolyline
90
4
70
1
43
0.0
10
-160.56390465202259
20
88.434341583298348
42
-0.99999999999999989
10
-160.56390465202259
20
92.434341583297979
10
-124.56390465202263
20
92.434341583297908
42
-0.99999999999999989
10
-124.56390465202263
20
88.434341583297993
0
LWPOLYLINE
5
119
100
AcDbEntity
8
INTERIOR_PROFILES
100
AcDbPolyline
90
4
70
1
43
0.0
10
-206.89043526426747
20
72.434341583297979
42
-0.99999999999999989
10
-206.89043526426747
20
76.434341583298178
10
-170.8904352642675
20
76.434341583298178
42
-0.99999999999999989
10
-170.8904352642675
20
72.434341583297979
0
LWPOLYLINE
5
120
100
AcDbEntity
8
INTERIOR_PROFILES
100
AcDbPolyline
90
4
70
1
43
0.0
10
-322.7067617948797
20
48.434341583298348
42
-0.99999999999999989
10
-322.7067617948797
20
52.434341583297979
10
-286.7067617948797
20
52.434341583297908
42
-0.99999999999999989
10
-286.7067617948797
20
48.434341583297993
0
LWPOLYLINE
5
121
100
AcDbEntity
8
INTERIOR_PROFILES
100
AcDbPolyline
90
4
70
1
43
0.0
10
-333.03329240712458
20
68.434341583297993
42
-0.99999999999999989
10
-333.03329240712458
20
64.434341583298362
10
-369.03329240712458
20
64.434341583297794
42
-0.99999999999999989
10
-369.03329240712458
20
68.434341583297993
0
LWPOLYLINE
5
122
100
AcDbEntity
8
INTERIOR_PROFILES
100
AcDbPolyline
90
4
70
1
43
0.0
10
-78.237374039777748
20
92.43434158329805
42
-0.99999999999999989
10
-78.237374039777748
20
88.434341583297993
10
-114.23737403977775
20
88.434341583298206
42
-0.99999999999999989
10
-114.23737403977775
20
92.434341583297979
0
LWPOLYLINE
5
123
100
AcDbEntity
8
INTERIOR_PROFILES
100
AcDbPolyline
90
4
70
1
43
0.0
10
-230.05370057038994
20
48.434341583297993
10
-194.05370057038991
20
48.434341583297993
42
0.99999999999999989
10
-194.05370057038996
20
52.43434158329805
10
-230.05370057038988
20
52.43434158329805
42
0.99999999999999989
0
LWPOLYLINE
5
124
100
AcDbEntity
8
INTERIOR_PROFILES
100
AcDbPolyline
90
4
70
1
43
0.0
10
-217.2169658765124
20
60.434341583298021
42
-0.99999999999999989
10
-217.2169658765124
20
56.434341583297964
10
-253.21696587651235
20
56.434341583297964
42
-0.99999999999999989
10
-253.21696587651235
20
60.434341583298021
0
LWPOLYLINE
5
125
100
AcDbEntity
8
INTERIOR_PROFILES
100
AcDbPolyline
90
4
70
1
43
0.0
10
-230.05370057038994
20
80.434341583297808
42
-0.99999999999999989
10
-230.05370057038994
20
84.434341583298007
10
-194.05370057038996
20
84.434341583298078
42
-0.99999999999999989
10
-194.05370057038996
20
80.434341583298021
0
CIRCLE
5
126
100
AcDbEntity
8
INTERIOR_PROFILES
100
AcDbCircle
10
9.9108434275328943
20
69.345182468660767
30
0
40
1.6500000000000004
210
0
220
0
230
-1
0
LWPOLYLINE
5
127
100
AcDbEntity
8
INTERIOR_PROFILES
100
AcDbPolyline
90
4
70
1
43
0.0
10
-392.19655771324705
20
72.434341583297979
10
-356.19655771324716
20
72.434341583297979
42
0.99999999999999989
10
-356.19655771324699
20
76.434341583298178
10
-392.19655771324705
20
76.434341583298036
42
0.99999999999999989
0
LWPOLYLINE
5
128
100
AcDbEntity
8
INTERIOR_PROFILES
100
AcDbPolyline
90
4
70
1
43
0.0
10
-356.19655771324699
20
44.434341583297936
42
-0.99999999999999989
10
-356.19655771324699
20
40.434341583298021
10
-392.19655771324705
20
40.43434158329795
42
-0.99999999999999989
10
-392.19655771324705
20
44.434341583298007
0
LWPOLYLINE
5
129
100
AcDbEntity
8
INTERIOR_PROFILES
100
AcDbPolyline
90
4
70
1
43
0.0
10
-299.54349648875723
20
40.43434158329795
42
-0.99999999999999989
10
-299.54349648875723
20
44.434341583298007
10
-263.54349648875723
20
44.434341583298078
42
-0.99999999999999989
10
-263.54349648875723
20
40.434341583298021
0
LWPOLYLINE
5
130
100
AcDbEntity
8
INTERIOR_PROFILES
100
AcDbPolyline
90
4
70
1
43
0.0
10
-114.23737403977775
20
40.434341583297808
42
-0.99999999999999989
10
-114.23737403977775
20
44.434341583298007
10
-78.237374039777748
20
44.434341583298036
42
-0.99999999999999989
10
-78.237374039777748
20
40.43434158329778
0
LWPOLYLINE
5
131
100
AcDbEntity
8
INTERIOR_PROFILES
100
AcDbPolyline
90
4
70
1
43
0.0
10
-160.56390465202259
20
56.434341583297893
10
-124.5639046520226
20
56.434341583297964
42
0.99999999999999989
10
-124.56390465202263
20
60.434341583297879
10
-160.56390465202259
20
60.43434158329795
42
0.99999999999999989
0
LWPOLYLINE
5
132
100
AcDbEntity
8
INTERIOR_PROFILES
100
AcDbPolyline
90
8
70
1
43
0.0
10
-439.19655771324705
20
46.434341583297964
10
-439.19655771324699
20
86.434341583297964
42
0.41421356237312973
10
-442.19655771324705
20
89.434341583297936
10
-808.1965577132471
20
89.434341583297936
42
0.4142135623730534
10
-811.1965577132471
20
86.434341583297964
10
-811.1965577132471
20
46.434341583297964
42
0.41421356237311585
10
-808.19655771324688
20
43.434341583298064
10
-442.19655771324705
20
43.434341583297993
42
0.41421356237306728
0
LWPOLYLINE
5
133
100
AcDbEntity
8
INTERIOR_PROFILES
100
AcDbPolyline
90
4
70
1
43
0.0
10
-31.910843427532892
20
52.434341583297908
42
-0.99999999999999989
10
-31.910843427532892
20
48.434341583297993
10
-44.747578121410434
20
48.434341583298028
42
-0.99999999999999989
10
-44.747578121410434
20
52.434341583297979
0
CIRCLE
5
134
100
AcDbEntity
8
INTERIOR_PROFILES
100
AcDbCircle
10
820.1965577132471
20
98.434341583297993
30
0
40
1.8000000000000682
210
0
220
0
230
-1
0
LWPOLYLINE
5
135
100
AcDbEntity
8
INTERIOR_PROFILES
100
AcDbPolyline
90
4
70
1
43
0.0
10
-31.910843427532892
20
84.434341583298007
10
-44.747578121410527
20
84.434341583297936
42
0.99999999999999989
10
-44.747578121410434
20
80.434341583298021
10
-31.910843427532857
20
80.434341583298092
42
0.99999999999999989
0
LWPOLYLINE
5
136
100
AcDbEntity
8
INTERIOR_PROFILES
100
AcDbPolyline
90
4
70
1
43
0.0
10
-31.910843427532892
20
92.434341583297979
10
-67.910843427533081
20
92.434341583297979
42
0.99999999999999989
10
-67.910843427532882
20
88.434341583298206
10
-31.910843427532892
20
88.434341583297922
42
0.99999999999999989
0
LWPOLYLINE
5
137
100
AcDbEntity
8
INTERIOR_PROFILES
100
AcDbPolyline
90
4
70
1
43
0.0
10
-101.40063934590019
20
52.434341583297979
10
-137.4006393459004
20
52.434341583297979
42
0.99999999999999989
10
-137.40063934590017
20
48.434341583298206
10
-101.40063934590019
20
48.434341583297922
42
0.99999999999999989
0
LWPOLYLINE
5
138
100
AcDbEntity
8
INTERIOR_PROFILES
100
AcDbPolyline
90
4
70
1
43
0.0
10
-345.87002710100217
20
56.434341583297964
10
-309.87002710100222
20
56.434341583297964
42
0.99999999999999989
10
-309.87002710100217
20
60.434341583298021
10
-345.87002710100199
20
60.434341583297879
42
0.99999999999999989
0
CIRCLE
5
139
100
AcDbEntity
8
INTERIOR_PROFILES
100
AcDbCircle
10
820.1965577132471
20
34.434341583298007
30
0
40
1.8000000000000682
210
0
220
0
230
-1
0
CIRCLE
5
140
100
AcDbEntity
8
INTERIOR_PROFILES
100
AcDbCircle
10
9.9108434275328943
20
101.34518246866079
30
0
40
1.6500000000000004
210
0
220
0
230
-1
0
CIRCLE
5
141
100
AcDbEntity
8
INTERIOR_PROFILES
100
AcDbCircle
10
835.91084342753288
20
69.345182468660767
30
0
40
1.6500000000000625
210
0
220
0
230
-1
0
CIRCLE
5
142
100
AcDbEntity
8
INTERIOR_PROFILES
100
AcDbCircle
10
430.19655771324699
20
34.434341583298007
30
0
40
1.7999999999999972
210
0
220
0
230
-1
0
CIRCLE
5
143
100
AcDbEntity
8
INTERIOR_PROFILES
100
AcDbCircle
10
409.19655771324699
20
66.434341583297964
30
0
40
3.2500000000000284
210
0
220
0
230
-1
0
CIRCLE
5
144
100
AcDbEntity
8
INTERIOR_PROFILES
100
AcDbCircle
10
9.9108434275328943
20
37.345182468660809
30
0
40
1.6500000000000004
210
0
220
0
230
-1
0
LWPOLYLINE
5
145
100
AcDbEntity
8
INTERIOR_PROFILES
100
AcDbPolyline
90
4
70
1
43
0.0
10
-369.03329240712458
20
80.434341583297666
42
-0.99999999999999989
10
-369.03329240712458
20
84.434341583298007
10
-333.03329240712458
20
84.434341583298078
42
-0.99999999999999989
10
-333.03329240712458
20
80.434341583298021
0
LWPOLYLINE
5
146
100
AcDbEntity
8
INTERIOR_PROFILES
100
AcDbPolyline
90
4
70
1
43
0.0
10
-240.38023118263484
20
84.434341583298078
42
-0.99999999999999989
10
-240.38023118263484
20
80.434341583298021
10
-276.3802311826347
20
80.434341583298021
42
-0.99999999999999989
10
-276.3802311826347
20
84.434341583297936
0
LWPOLYLINE
5
147
100
AcDbEntity
8
INTERIOR_PROFILES
100
AcDbPolyline
90
4
70
1
43
0.0
10
-183.72716995814503
20
80.43434158329795
42
-0.99999999999999989
10
-183.72716995814503
20
84.434341583298007
10
-147.72716995814503
20
84.434341583298078
42
-0.99999999999999989
10
-147.72716995814503
20
80.434341583298021
0
LWPOLYLINE
5
148
100
AcDbEntity
8
INTERIOR_PROFILES
100
AcDbPolyline
90
4
70
1
43
0.0
10
-160.56390465202259
20
72.43434158329805
10
-124.56390465202274
20
72.434341583297979
42
0.99999999999999989
10
-124.56390465202263
20
76.434341583298178
10
-160.56390465202273
20
76.434341583297964
42
0.99999999999999989
0
LWPOLYLINE
5
149
100
AcDbEntity
8
INTERIOR_PROFILES
100
AcDbPolyline
90
4
70
1
43
0.0
10
-345.87002710100217
20
72.434341583297979
10
-309.87002710100239
20
72.434341583297979
42
0.99999999999999989
10
-309.87002710100217
20
76.434341583298178
10
-345.87002710100217
20
76.434341583297893
42
0.99999999999999989
0
LWPOLYLINE
5
150
100
AcDbEntity
8
INTERIOR_PROFILES
100
AcDbPolyline
90
4
70
1
43
0.0
10
-253.21696587651235
20
72.434341583297979
10
-217.21696587651249
20
72.434341583297979
42
0.99999999999999989
10
-217.2169658765124
20
76.434341583298178
10
-253.21696587651235
20
76.434341583297893
42
0.99999999999999989
0
LWPOLYLINE
5
151
100
AcDbEntity
8
INTERIOR_PROFILES
100
AcDbPolyline
90
4
70
1
43
0.0
10
-31.910843427532892
20
76.434341583298178
42
-0.99999999999999989
10
-31.910843427532892
20
72.434341583297979
10
-67.910843427532882
20
72.434341583297908
42
-0.99999999999999989
10
-67.910843427532882
20
76.434341583297964
0
LWPOLYLINE
5
152
100
AcDbEntity
8
INTERIOR_PROFILES
100
AcDbPolyline
90
4
70
1
43
0.0
10
-514.91084342753277
20
378.7564846019398
42
-0.99999999999999989
10
-514.91084342753277
20
382.75648460193986
10
-478.91084342753288
20
382.75648460193986
42
-0.99999999999999989
10
-478.91084342753288
20
378.7564846019398
0
CIRCLE
5
153
100
AcDbEntity
8
INTERIOR_PROFILES
100
AcDbCircle
10
249.00905771324713
20
349.15038112917381
30
0
40
1.7999999999999972
210
0
220
0
230
-1
0
LWPOLYLINE
5
154
100
AcDbEntity
8
INTERIOR_PROFILES
100
AcDbPolyline
90
4
70
1
43
0.0
10
-861.910843427533
20
182.43434158329805
42
-0.99999999999999989
10
-857.91084342753288
20
182.43434158329805
10
-857.91084342753277
20
160.43434158329808
42
-0.99999999999999989
10
-861.91084342753288
20
160.43434158329808
0
CIRCLE
5
155
100
AcDbEntity
8
INTERIOR_PROFILES
100
AcDbCircle
10
625.19655771324699
20
398.99434158329814
30
0
40
2.4000000000000199
210
0
220
0
230
-1
0
CIRCLE
5
156
100
AcDbEntity
8
INTERIOR_PROFILES
100
AcDbCircle
10
754.72334342753288
20
415.55131509967134
30
0
40
1.8000000000000682
210
0
220
0
230
-1
0
CIRCLE
5
157
100
AcDbEntity
8
INTERIOR_PROFILES
100
AcDbCircle
10
799.09834342753288
20
415.55131509967134
30
0
40
1.8000000000000682
210
0
220
0
230
-1
0
LWPOLYLINE
5
158
100
AcDbEntity
8
INTERIOR_PROFILES
100
AcDbPolyline
90
4
70
1
43
0.0
10
-262.91084342753282
20
374.7564846019398
10
-271.91084342753305
20
374.7564846019398
42
0.99999999999999989
10
-271.91084342753288
20
370.75648460194003
10
-262.91084342753282
20
370.75648460193975
42
0.99999999999999989
0
LWPOLYLINE
5
159
100
AcDbEntity
8
INTERIOR_PROFILES
100
AcDbPolyline
90
4
70
1
43
0.0
10
-343.91084342753282
20
390.7564846019398
10
-379.910843427533
20
390.75648460193986
42
0.99999999999999989
10
-379.91084342753282
20
386.75648460193986
10
-343.91084342753282
20
386.75648460193963
42
0.99999999999999989
0
CIRCLE
5
160
100
AcDbEntity
8
INTERIOR_PROFILES
100
AcDbCircle
10
293.3840577132471
20
251.7803811291738
30
0
40
1.7999999999999972
210
0
220
0
230
-1
0
LWPOLYLINE
5
161
100
AcDbEntity
8
INTERIOR_PROFILES
100
AcDbPolyline
90
4
70
1
43
0.0
10
-869.91084342753265
20
206.43434158329811
42
-0.99999999999999989
10
-865.91084342753288
20
206.43434158329811
10
-865.91084342753277
20
170.43434158329808
42
-0.99999999999999989
10
-869.91084342753288
20
170.43434158329808
0
LWPOLYLINE
5
162
100
AcDbEntity
8
INTERIOR_PROFILES
100
AcDbPolyline
90
4
70
1
43
0.0
10
-865.91084342753311
20
218.43434158329808
10
-865.91084342753288
20
254.43434158329831
42
0.99999999999999989
10
-869.91084342753265
20
254.43434158329808
10
-869.91084342753254
20
218.43434158329808
42
0.99999999999999989
0
LWPOLYLINE
5
163
100
AcDbEntity
8
INTERIOR_PROFILES
100
AcDbPolyline
90
4
70
1
43
0.0
10
-487.91084342753277
20
386.75648460193975
10
-451.91084342753288
20
386.75648460193986
42
0.99999999999999989
10
-451.91084342753288
20
390.75648460193986
10
-487.91084342753277
20
390.75648460193997
42
0.99999999999999989
0
LWPOLYLINE
5
164
100
AcDbEntity
8
INTERIOR_PROFILES
100
AcDbPolyline
90
4
70
1
43
0.0
10
-568.91084342753277
20
378.75648460193986
10
-532.91084342753288
20
378.7564846019398
42
0.99999999999999989
10
-532.91084342753277
20
382.75648460193997
10
-568.91084342753254
20
382.75648460193952
42
0.99999999999999989
0
LWPOLYLINE
5
165
100
AcDbEntity
8
INTERIOR_PROFILES
100
AcDbPolyline
90
4
70
1
43
0.0
10
-316.91084342753288
20
366.75648460193975
10
-352.91084342753288
20
366.75648460193986
42
0.99999999999999989
10
-352.91084342753288
20
362.75648460193992
10
-316.91084342753271
20
362.75648460193986
42
0.99999999999999989
0
CIRCLE
5
166
100
AcDbEntity
8
INTERIOR_PROFILES
100
AcDbCircle
10
46.723343427532889
20
415.55131509967134
30
0
40
1.7999999999999972
210
0
220
0
230
-1
0
CIRCLE
5
167
100
AcDbEntity
8
INTERIOR_PROFILES
100
AcDbCircle
10
321.76798628467571
20
300.46538112917381
30
0
40
2.4000000000000199
210
0
220
0
230
-1
0
CIRCLE
5
168
100
AcDbEntity
8
INTERIOR_PROFILES
100
AcDbCircle
10
726.33941485610421
20
398.99434158329814
30
0
40
2.3999999999999488
210
0
220
0
230
-1
0
LWPOLYLINE
5
169
100
AcDbEntity
8
INTERIOR_PROFILES
100
AcDbPolyline
90
4
70
1
43
0.0
10
-877.91084342753288
20
278.43434158329808
42
-0.99999999999999989
10
-873.91084342753288
20
278.43434158329808
10
-873.91084342753288
20
242.43434158329808
42
-0.99999999999999989
10
-877.91084342753288
20
242.43434158329808
0
LWPOLYLINE
5
170
100
AcDbEntity
8
INTERIOR_PROFILES
100
AcDbPolyline
90
4
70
1
43
0.0
10
-424.91084342753282
20
366.75648460193986
10
-460.91084342753271
20
366.75648460193986
42
0.99999999999999989
10
-460.91084342753282
20
362.75648460193963
10
-424.91084342753311
20
362.75648460194009
42
0.99999999999999989
0
CIRCLE
5
171
100
AcDbEntity
8
INTERIOR_PROFILES
100
AcDbCircle
10
653.58048628467577
20
415.55131509967134
30
0
40
1.8000000000000682
210
0
220
0
230
-1
0
LWPOLYLINE
5
172
100
AcDbEntity
8
INTERIOR_PROFILES
100
AcDbPolyline
90
4
70
1
43
0.0
10
-325.91084342753282
20
370.75648460193975
10
-289.9108434275326
20
370.7564846019398
42
0.99999999999999989
10
-289.91084342753282
20
374.75648460193958
10
-325.91084342753271
20
374.75648460193963
42
0.99999999999999989
0
CIRCLE
5
173
100
AcDbEntity
8
INTERIOR_PROFILES
100
AcDbCircle
10
596.81262914181855
20
512.92131509967135
30
0
40
1.7999999999999972
210
0
220
0
230
-1
0
LWPOLYLINE
5
174
100
AcDbEntity
8
INTERIOR_PROFILES
100
AcDbPolyline
90
4
70
1
43
0.0
10
-433.91084342753288
20
370.7564846019398
10
-397.910843427533
20
370.7564846019398
42
0.99999999999999989
10
-397.91084342753288
20
374.75648460194003
10
-433.910843427533
20
374.75648460193958
42
0.99999999999999989
0
CIRCLE
5
175
100
AcDbEntity
8
INTERIOR_PROFILES
100
AcDbCircle
10
91.098343427532882
20
512.92131509967135
30
0
40
1.7999999999999972
210
0
220
0
230
-1
0
CIRCLE
5
176
100
AcDbEntity
8
INTERIOR_PROFILES
100
AcDbCircle
10
321.76798628467571
20
464.23631509967129
30
0
40
2.4000000000000199
210
0
220
0
230
-1
0
CIRCLE
5
177
100
AcDbEntity
8
INTERIOR_PROFILES
100
AcDbCircle
10
726.33941485610421
20
464.23631509967129
30
0
40
2.3999999999999488
210
0
220
0
230
-1
0
LWPOLYLINE
5
178
100
AcDbEntity
8
INTERIOR_PROFILES
100
AcDbPolyline
90
4
70
1
43
0.0
10
-873.91084342753311
20
160.43434158329808
42
-0.99999999999999989
10
-877.91084342753288
20
160.43434158329808
10
-877.91084342753288
20
182.43434158329805
42
-0.99999999999999989
10
-873.91084342753288
20
182.43434158329805
0
LWPOLYLINE
5
179
100
AcDbEntity
8
INTERIOR_PROFILES
100
AcDbPolyline
90
4
70
1
43
0.0
10
-532.91084342753277
20
366.75648460193975
10
-568.91084342753254
20
366.75648460193986
42
0.99999999999999989
10
-568.91084342753277
20
362.75648460193952
10
-532.91084342753277
20
362.75648460193986
42
0.99999999999999989
0
CIRCLE
5
180
100
AcDbEntity
8
INTERIOR_PROFILES
100
AcDbCircle
10
119.48227199896145
20
156.43434158329811
30
0
40
2.4000000000000021
210
0
220
0
230
-1
0
CIRCLE
5
181
100
AcDbEntity
8
INTERIOR_PROFILES
100
AcDbCircle
10
14.210843427532895
20
156.43434158329811
30
0
40
2.3999999999999999
210
0
220
0
230
-1
0
LWPOLYLINE
5
182
100
AcDbEntity
8
INTERIOR_PROFILES
100
AcDbPolyline
90
4
70
1
43
0.0
10
-514.91084342753277
20
362.75648460193975
42
-0.99999999999999989
10
-514.91084342753277
20
366.75648460193969
10
-478.91084342753288
20
366.75648460193986
42
-0.99999999999999989
10
-478.91084342753288
20
362.75648460193975
0
CIRCLE
5
183
100
AcDbEntity
8
INTERIOR_PROFILES
100
AcDbCircle
10
831.61084342753293
20
485.43434158329808
30
0
40
2.3999999999999488
210
0
220
0
230
-1
0
CIRCLE
5
184
100
AcDbEntity
8
INTERIOR_PROFILES
100
AcDbCircle
10
46.723343427532889
20
512.92131509967135
30
0
40
1.7999999999999972
210
0
220
0
230
-1
0
CIRCLE
5
185
100
AcDbEntity
8
INTERIOR_PROFILES
100
AcDbCircle
10
604.66084342753277
20
211.68434158329808
30
0
40
1.7999999999999972
210
0
220
0
230
-1
0
LWPOLYLINE
5
186
100
AcDbEntity
8
INTERIOR_PROFILES
100
AcDbPolyline
90
4
70
1
43
0.0
10
-352.91084342753288
20
394.75648460193986
42
-0.99999999999999989
10
-352.91084342753288
20
398.7564846019398
10
-316.91084342753288
20
398.75648460193986
42
-0.99999999999999989
10
-316.91084342753288
20
394.7564846019398
0
CIRCLE
5
187
100
AcDbEntity
8
INTERIOR_PROFILES
100
AcDbCircle
10
249.00905771324713
20
415.55131509967134
30
0
40
1.7999999999999972
210
0
220
0
230
-1
0
CIRCLE
5
188
100
AcDbEntity
8
INTERIOR_PROFILES
100
AcDbCircle
10
394.52691485610433
20
349.15038112917381
30
0
40
1.7999999999999972
210
0
220
0
230
-1
0
LWPOLYLINE
5
189
100
AcDbEntity
8
INTERIOR_PROFILES
100
AcDbPolyline
90
4
70
1
43
0.0
10
-262.91084342753282
20
398.75648460193986
42
-0.99999999999999989
10
-262.91084342753282
20
394.7564846019398
10
-298.91084342753282
20
394.7564846019398
42
-0.99999999999999989
10
-298.91084342753282
20
398.75648460193986
0
LWPOLYLINE
5
190
100
AcDbEntity
8
INTERIOR_PROFILES
100
AcDbPolyline
90
4
70
1
43
0.0
10
-406.91084342753288
20
394.7564846019398
10
-370.91084342753277
20
394.7564846019398
42
0.99999999999999989
10
-370.91084342753288
20
398.75648460193975
10
-406.91084342753288
20
398.75648460193986
42
0.99999999999999989
0
LWPOLYLINE
5
191
100
AcDbEntity
8
INTERIOR_PROFILES
100
AcDbPolyline
90
4
70
1
43
0.0
10
-913.91084342753288
20
170.43434158329808
10
-913.91084342753288
20
203.61615976511644
42
0.99999999999999989
10
-917.91084342753265
20
203.61615976511629
10
-917.91084342753265
20
170.43434158329768
42
0.99999999999999989
0
CIRCLE
5
192
100
AcDbEntity
8
INTERIOR_PROFILES
100
AcDbCircle
10
350.15191485610433
20
251.7803811291738
30
0
40
1.7999999999999972
210
0
220
0
230
-1
0
LWPOLYLINE
5
193
100
AcDbEntity
8
INTERIOR_PROFILES
100
AcDbPolyline
90
4
70
1
43
0.0
10
-889.91084342753288
20
160.43434158329808
42
-0.99999999999999989
10
-893.91084342753265
20
160.43434158329808
10
-893.91084342753288
20
182.43434158329805
42
-0.99999999999999989
10
-889.91084342753288
20
182.43434158329805
0
LWPOLYLINE
5
194
100
AcDbEntity
8
INTERIOR_PROFILES
100
AcDbPolyline
90
4
70
1
43
0.0
10
-406.91084342753288
20
362.75648460193975
42
-0.99999999999999989
10
-406.91084342753288
20
366.75648460193969
10
-370.91084342753282
20
366.75648460193997
42
-0.99999999999999989
10
-370.91084342753282
20
362.75648460193975
0
CIRCLE
5
195
100
AcDbEntity
8
INTERIOR_PROFILES
100
AcDbCircle
10
764.91084342753288
20
325.43434158329808
30
0
40
1.25
210
0
220
0
230
-1
0
LWPOLYLINE
5
196
100
AcDbEntity
8
INTERIOR_PROFILES
100
AcDbPolyline
90
4
70
1
43
0.0
10
-424.91084342753282
20
398.75648460193986
42
-0.99999999999999989
10
-424.91084342753282
20
394.75648460194009
10
-460.91084342753282
20
394.75648460193958
42
-0.99999999999999989
10
-460.91084342753282
20
398.7564846019398
0
CIRCLE
5
197
100
AcDbEntity
8
INTERIOR_PROFILES
100
AcDbCircle
10
249.00905771324713
20
512.92131509967135
30
0
40
1.7999999999999972
210
0
220
0
230
-1
0
CIRCLE
5
198
100
AcDbEntity
8
INTERIOR_PROFILES
100
AcDbCircle
10
524.05370057038988
20
464.23631509967129
30
0
40
2.4000000000000199
210
0
220
0
230
-1
0
CIRCLE
5
199
100
AcDbEntity
8
INTERIOR_PROFILES
100
AcDbCircle
10
835.91084342753288
20
101.34518246866079
30
0
40
1.6500000000000625
210
0
220
0
230
-1
0
LWPOLYLINE
5
200
100
AcDbEntity
8
INTERIOR_PROFILES
100
AcDbPolyline
90
4
70
1
43
0.0
10
-505.91084342753277
20
390.75648460193969
42
-0.99999999999999989
10
-505.91084342753277
20
386.75648460193975
10
-541.91084342753277
20
386.75648460193986
42
-0.99999999999999989
10
-541.91084342753277
20
390.7564846019398
0
CIRCLE
5
201
100
AcDbEntity
8
INTERIOR_PROFILES
100
AcDbCircle
10
350.15191485610433
20
349.15038112917381
30
0
40
1.7999999999999972
210
0
220
0
230
-1
0
CIRCLE
5
202
100
AcDbEntity
8
INTERIOR_PROFILES
100
AcDbCircle
10
394.52691485610433
20
251.7803811291738
30
0
40
1.7999999999999972
210
0
220
0
230
-1
0
CIRCLE
5
203
100
AcDbEntity
8
INTERIOR_PROFILES
100
AcDbCircle
10
119.48227199896145
20
464.23631509967129
30
0
40
2.4000000000000021
210
0
220
0
230
-1
0
LWPOLYLINE
5
204
100
AcDbEntity
8
INTERIOR_PROFILES
100
AcDbPolyline
90
4
70
1
43
0.0
10
-298.91084342753282
20
362.75648460193975
42
-0.99999999999999989
10
-298.91084342753282
20
366.75648460193986
10
-262.91084342753282
20
366.75648460193986
42
-0.99999999999999989
10
-262.91084342753282
20
362.75648460193992
0
CIRCLE
5
205
100
AcDbEntity
8
INTERIOR_PROFILES
100
AcDbCircle
10
430.19655771324699
20
98.434341583297993
30
0
40
1.7999999999999972
210
0
220
0
230
-1
0
CIRCLE
5
206
100
AcDbEntity
8
INTERIOR_PROFILES
100
AcDbCircle
10
217.71084342753286
20
250.93434158329808
30
0
40
1.25
210
0
220
0
230
-1
0
CIRCLE
5
207
100
AcDbEntity
8
INTERIOR_PROFILES
100
AcDbCircle
10
422.91084342753277
20
534.97892121215909
30
0
40
1.25
210
0
220
0
230
-1
0
LWPOLYLINE
5
208
100
AcDbEntity
8
INTERIOR_PROFILES
100
AcDbPolyline
90
4
70
1
43
0.0
10
-343.91084342753277
20
374.7564846019398
10
-379.91084342753282
20
374.7564846019398
42
0.99999999999999989
10
-379.91084342753282
20
370.75648460193975
10
-343.91084342753288
20
370.75648460193975
42
0.99999999999999989
0
LWPOLYLINE
5
209
100
AcDbEntity
8
INTERIOR_PROFILES
100
AcDbPolyline
90
4
70
1
43
0.0
10
-897.91084342753311
20
218.43434158329808
42
-0.99999999999999989
10
-901.91084342753288
20
218.43434158329808
10
-901.910843427533
20
254.43434158329808
42
-0.99999999999999989
10
-897.91084342753288
20
254.43434158329808
0
LWPOLYLINE
5
210
100
AcDbEntity
8
INTERIOR_PROFILES
100
AcDbPolyline
90
4
70
1
43
0.0
10
-325.91084342753282
20
386.75648460193986
10
-289.91084342753254
20
386.75648460193986
42
0.99999999999999989
10
-289.91084342753282
20
390.75648460193963
10
-325.91084342753271
20
390.75648460193963
42
0.99999999999999989
0
CIRCLE
5
211
100
AcDbEntity
8
INTERIOR_PROFILES
100
AcDbCircle
10
217.71084342753286
20
170.93434158329808
30
0
40
1.25
210
0
220
0
230
-1
0
CIRCLE
5
212
100
AcDbEntity
8
INTERIOR_PROFILES
100
AcDbCircle
10
653.58048628467577
20
512.92131509967135
30
0
40
1.8000000000000682
210
0
220
0
230
-1
0
CIRCLE
5
213
100
AcDbEntity
8
INTERIOR_PROFILES
100
AcDbCircle
10
827.48227199896132
20
534.97892121215909
30
0
40
1.25
210
0
220
0
230
-1
0
LWPOLYLINE
5
214
100
AcDbEntity
8
INTERIOR_PROFILES
100
AcDbPolyline
90
4
70
1
43
0.0
10
-889.91084342753288
20
242.43434158329808
42
-0.99999999999999989
10
-893.91084342753288
20
242.43434158329808
10
-893.91084342753288
20
278.43434158329808
42
-0.99999999999999989
10
-889.91084342753288
20
278.43434158329808
0
CIRCLE
5
215
100
AcDbEntity
8
INTERIOR_PROFILES
100
AcDbCircle
10
321.76798628467571
20
156.43434158329811
30
0
40
2.4000000000000199
210
0
220
0
230
-1
0
CIRCLE
5
216
100
AcDbEntity
8
INTERIOR_PROFILES
100
AcDbCircle
10
293.3840577132471
20
349.15038112917381
30
0
40
1.7999999999999972
210
0
220
0
230
-1
0
LWPOLYLINE
5
217
100
AcDbEntity
8
INTERIOR_PROFILES
100
AcDbPolyline
90
4
70
1
43
0.0
10
-909.91084342753265
20
230.43434158329808
10
-909.91084342753288
20
194.43434158329808
42
0.99999999999999989
10
-905.91084342753277
20
194.43434158329808
10
-905.91084342753288
20
230.43434158329831
42
0.99999999999999989
0
LWPOLYLINE
5
218
100
AcDbEntity
8
INTERIOR_PROFILES
100
AcDbPolyline
90
4
70
1
43
0.0
10
-885.91084342753265
20
254.43434158329808
42
-0.99999999999999989
10
-881.91084342753288
20
254.43434158329808
10
-881.91084342753311
20
218.43434158329808
42
-0.99999999999999989
10
-885.91084342753288
20
218.43434158329808
0
LWPOLYLINE
5
219
100
AcDbEntity
8
INTERIOR_PROFILES
100
AcDbPolyline
90
4
70
1
43
0.0
10
-901.91084342753265
20
206.43434158329811
42
-0.99999999999999989
10
-897.91084342753288
20
206.43434158329811
10
-897.91084342753277
20
170.43434158329808
42
-0.99999999999999989
10
-901.91084342753288
20
170.43434158329808
0
CIRCLE
5
220
100
AcDbEntity
8
INTERIOR_PROFILES
100
AcDbCircle
10
25.710843427532893
20
250.93434158329808
30
0
40
1.25
210
0
220
0
230
-1
0
LWPOLYLINE
5
221
100
AcDbEntity
8
INTERIOR_PROFILES
100
AcDbPolyline
90
4
70
1
43
0.0
10
-909.91084342753288
20
182.43434158329805
10
-909.91084342753288
20
160.43434158329796
42
0.99999999999999989
10
-905.91084342753277
20
160.43434158329808
10
-905.91084342753277
20
182.43434158329805
42
0.99999999999999989
0
LWPOLYLINE
5
222
100
AcDbEntity
8
INTERIOR_PROFILES
100
AcDbPolyline
90
4
70
1
43
0.0
10
-298.91084342753282
20
378.75648460193986
10
-262.910843427533
20
378.75648460193986
42
0.99999999999999989
10
-262.91084342753282
20
382.75648460193992
10
-298.91084342753282
20
382.75648460193975
42
0.99999999999999989
0
CIRCLE
5
223
100
AcDbEntity
8
INTERIOR_PROFILES
100
AcDbCircle
10
515.16084342753277
20
211.68434158329808
30
0
40
1.7999999999999972
210
0
220
0
230
-1
0
CIRCLE
5
224
100
AcDbEntity
8
INTERIOR_PROFILES
100
AcDbCircle
10
515.16084342753277
20
301.18434158329808
30
0
40
1.7999999999999972
210
0
220
0
230
-1
0
LWPOLYLINE
5
225
100
AcDbEntity
8
INTERIOR_PROFILES
100
AcDbPolyline
90
4
70
1
43
0.0
10
-433.91084342753288
20
386.75648460193986
10
-397.91084342753294
20
386.75648460193963
42
0.99999999999999989
10
-397.91084342753294
20
390.7564846019398
10
-433.9108434275326
20
390.75648460193963
42
0.99999999999999989
0
CIRCLE
5
226
100
AcDbEntity
8
INTERIOR_PROFILES
100
AcDbCircle
10
119.48227199896145
20
534.97892121215909
30
0
40
1.25
210
0
220
0
230
-1
0
CIRCLE
5
227
100
AcDbEntity
8
INTERIOR_PROFILES
100
AcDbCircle
10
25.710843427532893
20
170.93434158329808
30
0
40
1.25
210
0
220
0
230
-1
0
LWPOLYLINE
5
228
100
AcDbEntity
8
INTERIOR_PROFILES
100
AcDbPolyline
90
4
70
1
43
0.0
10
-541.91084342753277
20
370.75648460193986
10
-505.91084342753282
20
370.7564846019398
42
0.99999999999999989
10
-505.91084342753271
20
374.75648460193975
10
-541.91084342753277
20
374.75648460193963
42
0.99999999999999989
0
LWPOLYLINE
5
229
100
AcDbEntity
8
INTERIOR_PROFILES
100
AcDbPolyline
90
4
70
1
43
0.0
10
-889.91084342753288
20
194.43434158329808
10
-889.91084342753288
20
230.43434158329816
42
0.99999999999999989
10
-893.91084342753288
20
230.43434158329808
10
-893.91084342753288
20
194.43434158329808
42
0.99999999999999989
0
LWPOLYLINE
5
230
100
AcDbEntity
8
INTERIOR_PROFILES
100
AcDbPolyline
90
4
70
1
43
0.0
10
-568.91084342753277
20
386.75648460193952
42
-0.99999999999999989
10
-568.91084342753277
20
390.75648460193986
10
-559.91084342753288
20
390.7564846019398
42
-0.99999999999999989
10
-559.91084342753265
20
386.75648460194003
0
CIRCLE
5
231
100
AcDbEntity
8
INTERIOR_PROFILES
100
AcDbCircle
10
495.66977199896138
20
415.55131509967134
30
0
40
1.7999999999999972
210
0
220
0
230
-1
0
LWPOLYLINE
5
232
100
AcDbEntity
8
INTERIOR_PROFILES
100
AcDbPolyline
90
4
70
1
43
0.0
10
-881.91084342753288
20
170.43434158329808
10
-881.91084342753288
20
206.43434158329811
42
0.99999999999999989
10
-885.91084342753265
20
206.43434158329811
10
-885.91084342753288
20
170.43434158329796
42
0.99999999999999989
0
CIRCLE
5
233
100
AcDbEntity
8
INTERIOR_PROFILES
100
AcDbCircle
10
394.52691485610433
20
512.92131509967135
30
0
40
1.7999999999999972
210
0
220
0
230
-1
0
CIRCLE
5
234
100
AcDbEntity
8
INTERIOR_PROFILES
100
AcDbCircle
10
524.05370057038988
20
156.43434158329811
30
0
40
2.4000000000000199
210
0
220
0
230
-1
0
CIRCLE
5
235
100
AcDbEntity
8
INTERIOR_PROFILES
100
AcDbCircle
10
754.72334342753288
20
512.92131509967135
30
0
40
1.8000000000000682
210
0
220
0
230
-1
0
CIRCLE
5
236
100
AcDbEntity
8
INTERIOR_PROFILES
100
AcDbCircle
10
835.91084342753288
20
37.345182468660809
30
0
40
1.6500000000000625
210
0
220
0
230
-1
0
CIRCLE
5
237
100
AcDbEntity
8
INTERIOR_PROFILES
100
AcDbCircle
10
192.24120057039002
20
415.55131509967134
30
0
40
1.7999999999999972
210
0
220
0
230
-1
0
CIRCLE
5
238
100
AcDbEntity
8
INTERIOR_PROFILES
100
AcDbCircle
10
552.43762914181855
20
512.92131509967135
30
0
40
1.7999999999999972
210
0
220
0
230
-1
0
CIRCLE
5
239
100
AcDbEntity
8
INTERIOR_PROFILES
100
AcDbCircle
10
121.71084342753288
20
284.33434158329811
30
0
40
1.25
210
0
220
0
230
-1
0
CIRCLE
5
240
100
AcDbEntity
8
INTERIOR_PROFILES
100
AcDbCircle
10
764.91084342753288
20
203.43434158329808
30
0
40
1.25
210
0
220
0
230
-1
0
CIRCLE
5
241
100
AcDbEntity
8
INTERIOR_PROFILES
100
AcDbCircle
10
249.00905771324713
20
251.7803811291738
30
0
40
1.7999999999999972
210
0
220
0
230
-1
0
CIRCLE
5
242
100
AcDbEntity
8
INTERIOR_PROFILES
100
AcDbCircle
10
831.61084342753293
20
156.43434158329811
30
0
40
2.3999999999999488
210
0
220
0
230
-1
0
LWPOLYLINE
5
243
100
AcDbEntity
8
INTERIOR_PROFILES
100
AcDbPolyline
90
4
70
1
43
0.0
10
-532.91084342753277
20
398.7564846019398
10
-568.91084342753254
20
398.7564846019398
42
0.99999999999999989
10
-568.91084342753277
20
394.75648460193958
10
-532.91084342753288
20
394.75648460193986
42
0.99999999999999989
0
CIRCLE
5
244
100
AcDbEntity
8
INTERIOR_PROFILES
100
AcDbCircle
10
479.91084342753282
20
325.43434158329808
30
0
40
1.25
210
0
220
0
230
-1
0
CIRCLE
5
245
100
AcDbEntity
8
INTERIOR_PROFILES
100
AcDbCircle
10
453.91084342753288
20
294.43434158329808
30
0
40
1.25
210
0
220
0
230
-1
0
CIRCLE
5
246
100
AcDbEntity
8
INTERIOR_PROFILES
100
AcDbCircle
10
453.91084342753288
20
234.43434158329808
30
0
40
1.25
210
0
220
0
230
-1
0
CIRCLE
5
247
100
AcDbEntity
8
INTERIOR_PROFILES
100
AcDbCircle
10
738.91084342753288
20
294.43434158329808
30
0
40
1.25
210
0
220
0
230
-1
0
CIRCLE
5
248
100
AcDbEntity
8
INTERIOR_PROFILES
100
AcDbCircle
10
596.81262914181855
20
415.55131509967134
30
0
40
1.7999999999999972
210
0
220
0
230
-1
0
CIRCLE
5
249
100
AcDbEntity
8
INTERIOR_PROFILES
100
AcDbCircle
10
394.52691485610433
20
415.55131509967134
30
0
40
1.7999999999999972
210
0
220
0
230
-1
0
CIRCLE
5
250
100
AcDbEntity
8
INTERIOR_PROFILES
100
AcDbCircle
10
614.83941485610421
20
381.43740460345623
30
0
40
2.2999999999999687
210
0
220
0
230
-1
0
CIRCLE
5
251
100
AcDbEntity
8
INTERIOR_PROFILES
100
AcDbCircle
10
904.00000254217025
20
121.43434158329804
30
0
40
1.6500000000000625
210
0
220
0
230
-1
0
CIRCLE
5
252
100
AcDbEntity
8
INTERIOR_PROFILES
100
AcDbCircle
10
715.83941485610421
20
381.43740460345623
30
0
40
2.3000000000000398
210
0
220
0
230
-1
0
CIRCLE
5
253
100
AcDbEntity
8
INTERIOR_PROFILES
100
AcDbCircle
10
872.00000254217014
20
121.43434158329804
30
0
40
1.6500000000000625
210
0
220
0
230
-1
0
CIRCLE
5
254
100
AcDbEntity
8
INTERIOR_PROFILES
100
AcDbCircle
10
479.91084342753282
20
203.43434158329808
30
0
40
1.25
210
0
220
0
230
-1
0
CIRCLE
5
255
100
AcDbEntity
8
INTERIOR_PROFILES
100
AcDbCircle
10
451.29477199896144
20
512.92131509967135
30
0
40
1.7999999999999972
210
0
220
0
230
-1
0
CIRCLE
5
256
100
AcDbEntity
8
INTERIOR_PROFILES
100
AcDbCircle
10
697.95548628467577
20
512.92131509967135
30
0
40
1.8000000000000682
210
0
220
0
230
-1
0
CIRCLE
5
257
100
AcDbEntity
8
INTERIOR_PROFILES
100
AcDbCircle
10
495.66977199896138
20
512.92131509967135
30
0
40
1.7999999999999972
210
0
220
0
230
-1
0
CIRCLE
5
258
100
AcDbEntity
8
INTERIOR_PROFILES
100
AcDbCircle
10
474.71084342753284
20
162.93434158329808
30
0
40
2.2999999999999687
210
0
220
0
230
-1
0
CIRCLE
5
259
100
AcDbEntity
8
INTERIOR_PROFILES
100
AcDbCircle
10
524.05370057038988
20
534.97892121215909
30
0
40
1.25
210
0
220
0
230
-1
0
CIRCLE
5
260
100
AcDbEntity
8
INTERIOR_PROFILES
100
AcDbCircle
10
420.81084342753286
20
162.93434158329808
30
0
40
2.2999999999999687
210
0
220
0
230
-1
0
CIRCLE
5
261
100
AcDbEntity
8
INTERIOR_PROFILES
100
AcDbCircle
10
625.1965577132471
20
534.97892121215909
30
0
40
1.25
210
0
220
0
230
-1
0
LWPOLYLINE
5
262
100
AcDbEntity
8
INTERIOR_PROFILES
100
AcDbPolyline
90
4
70
1
43
0.0
10
-478.91084342753288
20
398.75648460193986
42
-0.99999999999999989
10
-478.91084342753288
20
394.7564846019398
10
-514.91084342753277
20
394.7564846019398
42
-0.99999999999999989
10
-514.91084342753277
20
398.7564846019398
0
CIRCLE
5
263
100
AcDbEntity
8
INTERIOR_PROFILES
100
AcDbCircle
10
220.6251291418186
20
534.97892121215909
30
0
40
1.25
210
0
220
0
230
-1
0
CIRCLE
5
264
100
AcDbEntity
8
INTERIOR_PROFILES
100
AcDbCircle
10
726.33941485610421
20
534.97892121215909
30
0
40
1.25
210
0
220
0
230
-1
0
CIRCLE
5
265
100
AcDbEntity
8
INTERIOR_PROFILES
100
AcDbCircle
10
697.95548628467577
20
415.55131509967134
30
0
40
1.8000000000000682
210
0
220
0
230
-1
0
CIRCLE
5
266
100
AcDbEntity
8
INTERIOR_PROFILES
100
AcDbCircle
10
321.76798628467571
20
534.97892121215909
30
0
40
1.25
210
0
220
0
230
-1
0
CIRCLE
5
267
100
AcDbEntity
8
INTERIOR_PROFILES
100
AcDbCircle
10
799.09834342753288
20
512.92131509967135
30
0
40
1.8000000000000682
210
0
220
0
230
-1
0
CIRCLE
5
268
100
AcDbEntity
8
INTERIOR_PROFILES
100
AcDbCircle
10
18.33941485610432
20
534.97892121215909
30
0
40
1.25
210
0
220
0
230
-1
0
CIRCLE
5
269
100
AcDbEntity
8
INTERIOR_PROFILES
100
AcDbCircle
10
192.24120057039002
20
512.92131509967135
30
0
40
1.7999999999999972
210
0
220
0
230
-1
0
CIRCLE
5
270
100
AcDbEntity
8
INTERIOR_PROFILES
100
AcDbCircle
10
121.71084342753288
20
137.63434158329807
30
0
40
1.25
210
0
220
0
230
-1
0
CIRCLE
5
271
100
AcDbEntity
8
INTERIOR_PROFILES
100
AcDbCircle
10
673.91084342753288
20
219.68434158329808
30
0
40
1.8000000000000682
210
0
220
0
230
-1
0
CIRCLE
5
272
100
AcDbEntity
8
INTERIOR_PROFILES
100
AcDbCircle
10
738.91084342753288
20
234.43434158329808
30
0
40
1.25
210
0
220
0
230
-1
0
CIRCLE
5
273
100
AcDbEntity
8
INTERIOR_PROFILES
100
AcDbCircle
10
147.86620057038999
20
415.55131509967134
30
0
40
1.7999999999999972
210
0
220
0
230
-1
0
CIRCLE
5
274
100
AcDbEntity
8
INTERIOR_PROFILES
100
AcDbCircle
10
604.66084342753277
20
301.18434158329808
30
0
40
1.7999999999999972
210
0
220
0
230
-1
0
LWPOLYLINE
5
275
100
AcDbEntity
8
INTERIOR_PROFILES
100
AcDbPolyline
90
4
70
1
43
0.0
10
-873.91084342753288
20
194.43434158329808
10
-873.91084342753288
20
230.43434158329816
42
0.99999999999999989
10
-877.91084342753288
20
230.43434158329808
10
-877.91084342753288
20
194.43434158329808
42
0.99999999999999989
0
CIRCLE
5
276
100
AcDbEntity
8
INTERIOR_PROFILES
100
AcDbCircle
10
634.98227199896132
20
381.43740460345623
30
0
40
2.2999999999999687
210
0
220
0
230
-1
0
CIRCLE
5
277
100
AcDbEntity
8
INTERIOR_PROFILES
100
AcDbCircle
10
673.91084342753288
20
277.68434158329808
30
0
40
1.8000000000000682
210
0
220
0
230
-1
0
CIRCLE
5
278
100
AcDbEntity
8
INTERIOR_PROFILES
100
AcDbCircle
10
345.11084342753287
20
162.93434158329808
30
0
40
2.2999999999999687
210
0
220
0
230
-1
0
LWPOLYLINE
5
279
100
AcDbEntity
8
INTERIOR_PROFILES
100
AcDbPolyline
90
4
70
1
43
0.0
10
-271.91084342753288
20
386.75648460193986
10
-262.91084342753282
20
386.75648460193986
42
0.99999999999999989
10
-262.91084342753282
20
390.75648460193975
10
-271.91084342753288
20
390.75648460193986
42
0.99999999999999989
0
LWPOLYLINE
5
280
100
AcDbEntity
8
INTERIOR_PROFILES
100
AcDbPolyline
90
4
70
1
43
0.0
10
-406.91084342753288
20
378.7564846019398
42
-0.99999999999999989
10
-406.91084342753288
20
382.75648460193986
10
-370.91084342753282
20
382.75648460193997
42
-0.99999999999999989
10
-370.91084342753282
20
378.7564846019398
0
CIRCLE
5
281
100
AcDbEntity
8
INTERIOR_PROFILES
100
AcDbCircle
10
735.98227199896155
20
381.43740460345623
30
0
40
2.3000000000000398
210
0
220
0
230
-1
0
CIRCLE
5
282
100
AcDbEntity
8
INTERIOR_PROFILES
100
AcDbCircle
10
722.91084342753277
20
219.68434158329808
30
0
40
1.8000000000000682
210
0
220
0
230
-1
0
CIRCLE
5
283
100
AcDbEntity
8
INTERIOR_PROFILES
100
AcDbCircle
10
722.91084342753277
20
277.68434158329808
30
0
40
1.8000000000000682
210
0
220
0
230
-1
0
CIRCLE
5
284
100
AcDbEntity
8
INTERIOR_PROFILES
100
AcDbCircle
10
14.210843427532895
20
485.43434158329808
30
0
40
2.3999999999999999
210
0
220
0
230
-1
0
CIRCLE
5
285
100
AcDbEntity
8
INTERIOR_PROFILES
100
AcDbCircle
10
399.01084342753285
20
162.93434158329808
30
0
40
2.2999999999999687
210
0
220
0
230
-1
0
CIRCLE
5
286
100
AcDbEntity
8
INTERIOR_PROFILES
100
AcDbCircle
10
350.15191485610433
20
415.55131509967134
30
0
40
1.7999999999999972
210
0
220
0
230
-1
0
CIRCLE
5
287
100
AcDbEntity
8
INTERIOR_PROFILES
100
AcDbCircle
10
350.15191485610433
20
512.92131509967135
30
0
40
1.7999999999999972
210
0
220
0
230
-1
0
LWPOLYLINE
5
288
100
AcDbEntity
8
INTERIOR_PROFILES
100
AcDbPolyline
90
4
70
1
43
0.0
10
-487.91084342753288
20
370.75648460193986
42
-0.99999999999999989
10
-487.91084342753277
20
374.7564846019398
10
-451.91084342753288
20
374.75648460193986
42
-0.99999999999999989
10
-451.91084342753288
20
370.7564846019398
0
CIRCLE
5
289
100
AcDbEntity
8
INTERIOR_PROFILES
100
AcDbCircle
10
552.43762914181855
20
415.55131509967134
30
0
40
1.7999999999999972
210
0
220
0
230
-1
0
CIRCLE
5
290
100
AcDbEntity
8
INTERIOR_PROFILES
100
AcDbCircle
10
726.33941485610421
20
156.43434158329811
30
0
40
2.3999999999999488
210
0
220
0
230
-1
0
LWPOLYLINE
5
291
100
AcDbEntity
8
INTERIOR_PROFILES
100
AcDbPolyline
90
4
70
1
43
0.0
10
-352.91084342753294
20
378.75648460193975
10
-316.91084342753294
20
378.75648460193986
42
0.99999999999999989
10
-316.91084342753288
20
382.75648460193992
10
-352.91084342753277
20
382.75648460194009
42
0.99999999999999989
0
LWPOLYLINE
5
292
100
AcDbEntity
8
INTERIOR_PROFILES
100
AcDbPolyline
90
4
70
1
43
0.0
10
-857.91084342753288
20
194.43434158329808
42
-0.99999999999999989
10
-861.910843427533
20
194.43434158329808
10
-861.910843427533
20
230.43434158329808
42
-0.99999999999999989
10
-857.91084342753288
20
230.43434158329808
0
LWPOLYLINE
5
293
100
AcDbEntity
8
INTERIOR_PROFILES
100
AcDbPolyline
90
4
70
1
43
0.0
10
-460.91084342753282
20
378.75648460193963
42
-0.99999999999999989
10
-460.91084342753282
20
382.75648460193986
10
-424.91084342753288
20
382.75648460193975
42
-0.99999999999999989
10
-424.91084342753277
20
378.75648460193997
0
LWPOLYLINE
5
294
100
AcDbEntity
8
INTERIOR_PROFILES
100
AcDbPolyline
90
4
70
1
43
0.0
10
-559.91084342753277
20
374.7564846019398
10
-568.91084342753254
20
374.7564846019398
42
0.99999999999999989
10
-568.91084342753277
20
370.75648460193963
10
-559.910843427533
20
370.75648460194003
42
0.99999999999999989
0
CIRCLE
5
295
100
AcDbEntity
8
INTERIOR_PROFILES
100
AcDbCircle
10
147.86620057038999
20
512.92131509967135
30
0
40
1.7999999999999972
210
0
220
0
230
-1
0
CIRCLE
5
296
100
AcDbEntity
8
INTERIOR_PROFILES
100
AcDbCircle
10
451.29477199896144
20
415.55131509967134
30
0
40
1.7999999999999972
210
0
220
0
230
-1
0
CIRCLE
5
297
100
AcDbEntity
8
INTERIOR_PROFILES
100
AcDbCircle
10
293.3840577132471
20
512.92131509967135
30
0
40
1.7999999999999972
210
0
220
0
230
-1
0
LWPOLYLINE
5
298
100
AcDbEntity
8
INTERIOR_PROFILES
100
AcDbPolyline
90
4
70
1
43
0.0
10
-857.91084342753311
20
242.43434158329808
10
-857.91084342753288
20
278.43434158329819
42
0.99999999999999989
10
-861.910843427533
20
278.43434158329808
10
-861.91084342753288
20
242.43434158329802
42
0.99999999999999989
0
CIRCLE
5
299
100
AcDbEntity
8
INTERIOR_PROFILES
100
AcDbCircle
10
293.3840577132471
20
415.55131509967134
30
0
40
1.7999999999999972
210
0
220
0
230
-1
0
CIRCLE
5
300
100
AcDbEntity
8
INTERIOR_PROFILES
100
AcDbCircle
10
91.098343427532882
20
415.55131509967134
30
0
40
1.7999999999999972
210
0
220
0
230
-1
0
LWPOLYLINE
5
301
100
AcDbEntity
8
INTERIOR_PROFILES
100
AcDbPolyline
90
4
70
1
43
0.0
10
68.089156572467033
20
203.61615976511627
42
-0.99999999999999989
10
72.08915657246709
20
203.61615976511632
10
72.089156572467104
20
170.43434158329808
42
-0.99999999999999989
10
68.08915657246709
20
170.43434158329808
0
LWPOLYLINE
5
302
100
AcDbEntity
8
INTERIOR_PROFILES
100
AcDbPolyline
90
4
70
1
43
0.0
10
-31.910843427532892
20
68.434341583297993
10
-44.747578121410399
20
68.434341583297993
42
0.99999999999999989
10
-44.747578121410434
20
64.434341583297936
10
-31.910843427532679
20
64.434341583297794
42
0.99999999999999989
0
LWPOLYLINE
5
303
100
AcDbEntity
8
INTERIOR_PROFILES
100
AcDbPolyline
90
4
70
1
43
0.0
10
28.089156572467072
20
182.43434158329805
10
28.089156572467104
20
160.43434158329808
42
0.99999999999999989
10
32.089156572467139
20
160.43434158329808
10
32.089156572466948
20
182.43434158329791
42
0.99999999999999989
0
LWPOLYLINE
5
304
100
AcDbEntity
8
INTERIOR_PROFILES
100
AcDbPolyline
90
4
70
1
43
0.0
10
12.089156572467072
20
182.43434158329805
10
12.0891565724671
20
160.43434158329808
42
0.99999999999999989
10
16.089156572467132
20
160.43434158329808
10
16.089156572466955
20
182.43434158329791
42
0.99999999999999989
0
LWPOLYLINE
5
305
100
AcDbEntity
8
INTERIOR_PROFILES
100
AcDbPolyline
90
4
70
1
43
0.0
10
32.089156572467111
20
242.43434158329805
10
32.089156572467104
20
278.43434158329796
42
0.99999999999999989
10
28.08915657246699
20
278.43434158329808
10
28.089156572467232
20
242.43434158329825
42
0.99999999999999989
0
LWPOLYLINE
5
306
100
AcDbEntity
8
INTERIOR_PROFILES
100
AcDbPolyline
90
4
70
1
43
0.0
10
16.089156572467132
20
194.43434158329808
10
16.089156572467097
20
230.43434158329808
42
0.99999999999999989
10
12.089156572467134
20
230.43434158329808
10
12.089156572467243
20
194.43434158329822
42
0.99999999999999989
0
LWPOLYLINE
5
307
100
AcDbEntity
8
INTERIOR_PROFILES
100
AcDbPolyline
90
4
70
1
43
0.0
10
24.089156572467072
20
218.43434158329808
42
-0.99999999999999989
10
20.089156572467097
20
218.43434158329808
10
20.089156572467122
20
254.43434158329808
42
-0.99999999999999989
10
24.089156572467097
20
254.43434158329808
0
LWPOLYLINE
5
308
100
AcDbEntity
8
INTERIOR_PROFILES
100
AcDbPolyline
90
4
70
1
43
0.0
10
-276.3802311826347
20
48.434341583298206
42
-0.99999999999999989
10
-276.3802311826347
20
52.434341583297979
10
-240.38023118263484
20
52.43434158329805
42
-0.99999999999999989
10
-240.38023118263484
20
48.434341583297993
0
LWPOLYLINE
5
309
100
AcDbEntity
8
INTERIOR_PROFILES
100
AcDbPolyline
90
4
70
1
43
0.0
10
48.089156572467232
20
242.43434158329808
42
-0.99999999999999989
10
44.08915657246709
20
242.43434158329808
10
44.089156572467019
20
278.43434158329808
42
-0.99999999999999989
10
48.08915657246709
20
278.43434158329808
0
LWPOLYLINE
5
310
100
AcDbEntity
8
INTERIOR_PROFILES
100
AcDbPolyline
90
4
70
1
43
0.0
10
28.089156572467097
20
230.43434158329808
42
-0.99999999999999989
10
32.089156572467083
20
230.43434158329808
10
32.089156572467282
20
194.43434158329808
42
-0.99999999999999989
10
28.089156572467097
20
194.43434158329808
0
LWPOLYLINE
5
311
100
AcDbEntity
8
INTERIOR_PROFILES
100
AcDbPolyline
90
4
70
1
43
0.0
10
-78.237374039777748
20
60.434341583298021
42
-0.99999999999999989
10
-78.237374039777748
20
56.434341583297964
10
-114.23737403977775
20
56.434341583298107
42
-0.99999999999999989
10
-114.23737403977775
20
60.434341583298021
0
LWPOLYLINE
5
312
100
AcDbEntity
8
INTERIOR_PROFILES
100
AcDbPolyline
90
4
70
1
43
0.0
10
12.089156572467108
20
278.43434158329808
10
12.0891565724671
20
242.43434158329822
42
0.99999999999999989
10
16.089156572467239
20
242.43434158329808
10
16.089156572467161
20
278.43434158329808
42
0.99999999999999989
0
LWPOLYLINE
5
313
100
AcDbEntity
8
INTERIOR_PROFILES
100
AcDbPolyline
90
4
70
1
43
0.0
10
-31.910843427532892
20
44.434341583298007
10
-67.910843427532726
20
44.434341583298007
42
0.99999999999999989
10
-67.910843427532882
20
40.434341583297808
10
-31.910843427532857
20
40.434341583298092
42
0.99999999999999989
0
LWPOLYLINE
5
314
100
AcDbEntity
8
INTERIOR_PROFILES
100
AcDbPolyline
90
4
70
1
43
0.0
10
44.089156572467104
20
230.43434158329808
42
-0.99999999999999989
10
48.08915657246709
20
230.43434158329808
10
48.089156572467232
20
194.43434158329808
42
-0.99999999999999989
10
44.08915657246709
20
194.43434158329808
0
LWPOLYLINE
5
315
100
AcDbEntity
8
INTERIOR_PROFILES
100
AcDbPolyline
90
4
70
1
43
0.0
10
-333.03329240712458
20
52.434341583298192
42
-0.99999999999999989
10
-333.03329240712458
20
48.434341583297993
10
-369.03329240712458
20
48.434341583298348
42
-0.99999999999999989
10
-369.03329240712458
20
52.434341583297979
0
LWPOLYLINE
5
316
100
AcDbEntity
8
INTERIOR_PROFILES
100
AcDbPolyline
90
4
70
1
43
0.0
10
-206.89043526426747
20
56.434341583297964
10
-170.8904352642675
20
56.434341583297964
42
0.99999999999999989
10
-170.8904352642675
20
60.434341583298021
10
-206.89043526426755
20
60.434341583298021
42
0.99999999999999989
0
LWPOLYLINE
5
317
100
AcDbEntity
8
INTERIOR_PROFILES
100
AcDbPolyline
90
4
70
1
43
0.0
10
-322.7067617948797
20
64.434341583298007
10
-286.70676179487936
20
64.434341583298007
42
0.99999999999999989
10
-286.7067617948797
20
68.434341583297638
10
-322.70676179487958
20
68.43434158329778
42
0.99999999999999989
0
LWPOLYLINE
5
318
100
AcDbEntity
8
INTERIOR_PROFILES
100
AcDbPolyline
90
4
70
1
43
0.0
10
-356.19655771324699
20
60.434341583298021
42
-0.99999999999999989
10
-356.19655771324699
20
56.434341583297964
10
-392.19655771324705
20
56.434341583298107
42
-0.99999999999999989
10
-392.19655771324705
20
60.434341583298021
0
LWPOLYLINE
5
319
100
AcDbEntity
8
INTERIOR_PROFILES
100
AcDbPolyline
90
4
70
1
43
0.0
10
-101.40063934590019
20
68.43434158329778
42
-0.99999999999999989
10
-101.40063934590019
20
64.434341583298007
10
-137.40063934590017
20
64.434341583298078
42
-0.99999999999999989
10
-137.40063934590017
20
68.434341583297993
0
LWPOLYLINE
5
320
100
AcDbEntity
8
INTERIOR_PROFILES
100
AcDbPolyline
90
4
70
1
43
0.0
10
-183.72716995814503
20
48.434341583298348
42
-0.99999999999999989
10
-183.72716995814503
20
52.434341583297979
10
-147.72716995814503
20
52.434341583297908
42
-0.99999999999999989
10
-147.72716995814503
20
48.434341583297993
0
LWPOLYLINE
5
321
100
AcDbEntity
8
INTERIOR_PROFILES
100
AcDbPolyline
90
4
70
1
43
0.0
10
-91.074108733655322
20
48.434341583297993
10
-55.074108733655336
20
48.434341583297993
42
0.99999999999999989
10
-55.074108733655322
20
52.434341583297908
10
-91.074108733655535
20
52.434341583298192
42
0.99999999999999989
0
LWPOLYLINE
5
322
100
AcDbEntity
8
INTERIOR_PROFILES
100
AcDbPolyline
90
4
70
1
43
0.0
10
-124.56390465202263
20
44.434341583298078
42
-0.99999999999999989
10
-124.56390465202263
20
40.434341583298021
10
-160.56390465202259
20
40.434341583298021
42
-0.99999999999999989
10
-160.56390465202259
20
44.434341583298007
0
LWPOLYLINE
5
323
100
AcDbEntity
8
INTERIOR_PROFILES
100
AcDbPolyline
90
4
70
1
43
0.0
10
-217.2169658765124
20
44.434341583298078
42
-0.99999999999999989
10
-217.2169658765124
20
40.434341583298021
10
-253.21696587651235
20
40.434341583297808
42
-0.99999999999999989
10
-253.21696587651235
20
44.434341583298007
0
LWPOLYLINE
5
324
100
AcDbEntity
8
INTERIOR_PROFILES
100
AcDbPolyline
90
4
70
1
43
0.0
10
56.089156572467111
20
170.43434158329808
10
56.089156572467104
20
206.43434158329811
42
0.99999999999999989
10
52.089156572467189
20
206.43434158329811
10
52.089156572467125
20
170.43434158329808
42
0.99999999999999989
0
LWPOLYLINE
5
325
100
AcDbEntity
8
INTERIOR_PROFILES
100
AcDbPolyline
90
4
70
1
43
0.0
10
20.089156572467193
20
206.43434158329811
42
-0.99999999999999989
10
24.089156572467097
20
206.43434158329811
10
24.089156572467132
20
170.43434158329808
42
-0.99999999999999989
10
20.0891565724671
20
170.43434158329808
0
LWPOLYLINE
5
326
100
AcDbEntity
8
INTERIOR_PROFILES
100
AcDbPolyline
90
4
70
1
43
0.0
10
40.089156572467061
20
170.43434158329808
10
40.089156572467097
20
206.43434158329811
42
0.99999999999999989
10
36.089156572467196
20
206.43434158329811
10
36.089156572467161
20
170.43434158329808
42
0.99999999999999989
0
LWPOLYLINE
5
327
100
AcDbEntity
8
INTERIOR_PROFILES
100
AcDbPolyline
90
4
70
1
43
0.0
10
56.089156572467083
20
218.43434158329808
42
-0.99999999999999989
10
52.089156572467097
20
218.43434158329808
10
52.089156572467118
20
254.43434158329808
42
-0.99999999999999989
10
56.089156572467104
20
254.43434158329808
0
LWPOLYLINE
5
328
100
AcDbEntity
8
INTERIOR_PROFILES
100
AcDbPolyline
90
4
70
1
43
0.0
10
36.089156572467125
20
254.43434158329808
42
-0.99999999999999989
10
40.089156572467097
20
254.43434158329808
10
40.089156572467061
20
218.43434158329808
42
-0.99999999999999989
10
36.089156572467097
20
218.43434158329808
0
LWPOLYLINE
5
329
100
AcDbEntity
8
INTERIOR_PROFILES
100
AcDbPolyline
90
4
70
1
43
0.0
10
60.089156572467047
20
182.43434158329805
10
60.08915657246709
20
160.43434158329808
42
0.99999999999999989
10
64.08915657246709
20
160.43434158329808
10
64.089156572466976
20
182.43434158329791
42
0.99999999999999989
0
LWPOLYLINE
5
330
100
AcDbEntity
8
INTERIOR_PROFILES
100
AcDbPolyline
90
4
70
1
43
0.0
10
-230.05370057038994
20
64.434341583297936
42
-0.99999999999999989
10
-230.05370057038994
20
68.434341583297993
10
-194.05370057038996
20
68.434341583297964
42
-0.99999999999999989
10
-194.05370057038996
20
64.434341583298007
0
LWPOLYLINE
5
331
100
AcDbEntity
8
INTERIOR_PROFILES
100
AcDbPolyline
90
4
70
1
43
0.0
10
44.089156572466948
20
182.43434158329805
42
-0.99999999999999989
10
48.08915657246709
20
182.43434158329805
10
48.08915657246709
20
160.43434158329808
42
-0.99999999999999989
10
44.08915657246709
20
160.43434158329808
0
LWPOLYLINE
5
332
100
AcDbEntity
8
INTERIOR_PROFILES
100
AcDbPolyline
90
4
70
1
43
0.0
10
-299.54349648875723
20
56.434341583297964
10
-263.54349648875717
20
56.434341583297964
42
0.99999999999999989
10
-263.54349648875723
20
60.434341583298021
10
-299.54349648875734
20
60.434341583298163
42
0.99999999999999989
0
LWPOLYLINE
5
333
100
AcDbEntity
8
INTERIOR_PROFILES
100
AcDbPolyline
90
4
70
1
43
0.0
10
-345.87002710100217
20
40.434341583297666
42
-0.99999999999999989
10
-345.87002710100217
20
44.434341583298007
10
-309.87002710100217
20
44.434341583298078
42
-0.99999999999999989
10
-309.87002710100217
20
40.434341583298021
0
LWPOLYLINE
5
334
100
AcDbEntity
8
INTERIOR_PROFILES
100
AcDbPolyline
90
4
70
1
43
0.0
10
60.08915657246709
20
230.43434158329808
10
60.08915657246709
20
194.43434158329822
42
0.99999999999999989
10
64.089156572467232
20
194.43434158329808
10
64.089156572467104
20
230.43434158329808
42
0.99999999999999989
0
CIRCLE
5
335
100
AcDbEntity
8
INTERIOR_PROFILES
100
AcDbCircle
10
524.05370057038988
20
11.971582874040365
30
0
40
1.25
210
0
220
0
230
-1
0
CIRCLE
5
336
100
AcDbEntity
8
INTERIOR_PROFILES
100
AcDbCircle
10
726.33941485610421
20
11.971582874040365
30
0
40
1.25
210
0
220
0
230
-1
0
CIRCLE
5
337
100
AcDbEntity
8
INTERIOR_PROFILES
100
AcDbCircle
10
625.19655771324699
20
11.971582874040365
30
0
40
1.25
210
0
220
0
230
-1
0
LWPOLYLINE
5
338
100
AcDbEntity
8
INTERIOR_PROFILES
100
AcDbPolyline
90
4
70
1
43
0.0
10
-392.19655771324705
20
64.434341583298078
42
-0.99999999999999989
10
-392.19655771324705
20
68.434341583297993
10
-379.35982301936946
20
68.434341583297638
42
-0.99999999999999989
10
-379.35982301936946
20
64.434341583298007
0
CIRCLE
5
339
100
AcDbEntity
8
INTERIOR_PROFILES
100
AcDbCircle
10
827.48227199896155
20
11.971582874040365
30
0
40
1.25
210
0
220
0
230
-1
0
CIRCLE
5
340
100
AcDbEntity
8
INTERIOR_PROFILES
100
AcDbCircle
10
-58.178315687104302
20
121.43434158329804
30
0
40
1.6500000000000004
210
0
220
0
230
-1
0
CIRCLE
5
341
100
AcDbEntity
8
INTERIOR_PROFILES
100
AcDbCircle
10
220.6251291418186
20
11.971582874040365
30
0
40
1.25
210
0
220
0
230
-1
0
CIRCLE
5
342
100
AcDbEntity
8
INTERIOR_PROFILES
100
AcDbCircle
10
18.339414856104323
20
11.971582874040365
30
0
40
1.25
210
0
220
0
230
-1
0
CIRCLE
5
343
100
AcDbEntity
8
INTERIOR_PROFILES
100
AcDbCircle
10
-26.178315687104316
20
121.43434158329804
30
0
40
1.6500000000000004
210
0
220
0
230
-1
0
CIRCLE
5
344
100
AcDbEntity
8
INTERIOR_PROFILES
100
AcDbCircle
10
422.91084342753288
20
11.971582874040365
30
0
40
1.25
210
0
220
0
230
-1
0
CIRCLE
5
345
100
AcDbEntity
8
INTERIOR_PROFILES
100
AcDbCircle
10
119.48227199896145
20
11.971582874040365
30
0
40
1.25
210
0
220
0
230
-1
0
CIRCLE
5
346
100
AcDbEntity
8
INTERIOR_PROFILES
100
AcDbCircle
10
321.76798628467571
20
11.971582874040365
30
0
40
1.25
210
0
220
0
230
-1
0
ENDSEC
0
SECTION
2
OBJECTS
0
DICTIONARY
5
C
100
AcDbDictionary
3
ACAD_GROUP
350
D
3
ACAD_MLINESTYLE
350
17
0
DICTIONARY
5
D
100
AcDbDictionary
0
DICTIONARY
5
1A
330
C
100
AcDbDictionary
0
DICTIONARY
5
17
100
AcDbDictionary
0
ENDSEC
0
EOF
