0
SECTION
2
HEADER
9
$INSUNITS
70
4
9
$ACADVER
1
AC1014
9
$HANDSEED
5
FFFF
0
ENDSEC
0
SECTION
2
TABLES
0
TABLE
2
VPORT
5
8
100
AcDbSymbolTable
0
ENDTAB
0
TABLE
2
LTYPE
5
5
100
AcDbSymbolTable
0
LTYPE
5
14
100
AcDbSymbolTableRecord
100
AcDbLinetypeTableRecord
2
BYBLOCK
70
0
0
LTYPE
5
15
100
AcDbSymbolTableRecord
100
AcDbLinetypeTableRecord
2
BYLAYER
70
0
0
LTYPE
5
16
100
AcDbSymbolTableRecord
100
AcDbLinetypeTableRecord
2
DASHED
70
0
3
Dashed __ __ __ __ __ __ __ __ __ __ __ __ __ _
72
65
73
2
40
0.75
49
0.5
74
0
49
-0.25
74
0
0
ENDTAB
0
TABLE
2
LAYER
5
2
100
AcDbSymbolTable
70
2
0
LAYER
5
50
100
AcDbSymbolTableRecord
100
AcDbLayerTableRecord
2
0
70
0
62
7
6
CONTINUOUS
0
ENDTAB
0
TABLE
2
STYLE
5
3
100
AcDbSymbolTable
70
1
0
STYLE
5
11
100
AcDbSymbolTableRecord
100
AcDbTextStyleTableRecord
2
STANDARD
70
0
0
ENDTAB
0
TABLE
2
VIEW
5
6
100
AcDbSymbolTable
70
0
0
ENDTAB
0
TABLE
2
UCS
5
7
100
AcDbSymbolTable
70
0
0
ENDTAB
0
TABLE
2
APPID
5
9
100
AcDbSymbolTable
70
2
0
APPID
5
12
100
AcDbSymbolTableRecord
100
AcDbRegAppTableRecord
2
ACAD
70
0
0
ENDTAB
0
TABLE
2
DIMSTYLE
5
A
100
AcDbSymbolTable
70
1
0
ENDTAB
0
TABLE
2
BLOCK_RECORD
5
1
100
AcDbSymbolTable
70
1
0
BLOCK_RECORD
5
1F
100
AcDbSymbolTableRecord
100
AcDbBlockTableRecord
2
*MODEL_SPACE
0
BLOCK_RECORD
5
1B
100
AcDbSymbolTableRecord
100
AcDbBlockTableRecord
2
*PAPER_SPACE
0
ENDTAB
0
ENDSEC
0
SECTION
2
BLOCKS
0
BLOCK
5
20
100
AcDbEntity
100
AcDbBlockBegin
2
*MODEL_SPACE
0
ENDBLK
5
21
100
AcDbEntity
100
AcDbBlockEnd
0
BLOCK
5
1C
100
AcDbEntity
100
AcDbBlockBegin
2
*PAPER_SPACE
0
ENDBLK
5
1D
100
AcDbEntity
100
AcDbBlockEnd
0
ENDSEC
0
SECTION
2
ENTITIES
0
LWPOLYLINE
5
100
100
AcDbEntity
8
OUTER_PROFILES
100
AcDbPolyline
90
39
70
1
43
0.0
10
849.7999999999962
20
108.79758220860815
42
-3.9608097209499111
10
851.14701936255597
20
111.5735006979352
10
931.44606709169466
20
111.57350069793523
42
0.29410761505735467
10
933.26680004661989
20
112.74589480933287
10
943.65846361614092
20
135.60755466227897
10
945.20608662782729
20
134.90408965696687
10
945.35665377610928
20
135.23533738318758
42
0.16260144785334751
10
945.46874526663953
20
136.30669880208913
10
944.97950408270242
20
138.51384368871436
10
945.186058197693
20
138.96826274169342
10
858.93379853271779
20
528.08357054845612
42
0.35167384246301631
10
856.00489058762969
20
530.43434158329796
10
851.14999999999998
20
530.43434158329796
42
-2.3375295075197298
10
847.75
20
533.68087819944765
10
847.75
20
538.61828054153921
10
2.0500000000002672
20
538.61828054153921
10
2.0500000000002543
20
533.68087819944765
42
-2.3375295075195588
10
-1.3499999999999013
20
530.43434158329796
10
-6.2048905876295635
20
530.43434158329796
42
0.35167384246301991
10
-9.133798532717492
20
528.08357054845612
10
-95.386058197692591
20
138.96826274169342
10
-95.179504082702522
20
138.51384368871436
10
-95.668745266639377
20
136.30669880208913
42
0.1626014478534315
10
-95.556653776109215
20
135.23533738318761
10
-95.406086627827165
20
134.90408965696687
10
-93.858463616140853
20
135.60755466227897
10
-83.466800046619909
20
112.74589480933287
42
0.29410761505729943
10
-81.646067091694619
20
111.5735006979353
10
-1.3470193625554194
20
111.57350069794441
42
-3.9608097209441864
10
2.1427304375265521e-13
20
108.79758220861113
10
1.4210854715202004e-13
20
24.867512711551853
10
1.4210854715202004e-13
20
24.812587698262618
10
1.4210854715202004e-13
20
-2.1316282072803006e-13
10
1.9891565724655891
20
-2.1316282072803006e-13
10
847.81084342753297
20
-2.1316282072803006e-13
10
849.79999999999995
20
-2.1316282072803006e-13
10
849.79999999999995
20
24.812587819188465
10
849.79999999999995
20
24.867512711551853
10
849.79999999999995
20
27.911001719551933
0
LWPOLYLINE
5
101
100
AcDbEntity
8
INTERIOR_PROFILES
100
AcDbPolyline
90
4
70
1
43
0.0
10
537.94081632653069
20
44.434341583298007
42
-0.99999999999999989
10
537.94081632653069
20
40.43434158329795
10
501.94081632653081
20
40.434341583297595
42
-0.99999999999999989
10
501.94081632653081
20
44.434341583297936
0
LWPOLYLINE
5
102
100
AcDbEntity
8
INTERIOR_PROFILES
100
AcDbPolyline
90
4
70
1
43
0.0
10
617.75714285714298
20
80.434341583297737
42
-0.99999999999999989
10
617.75714285714298
20
84.434341583297936
10
653.75714285714275
20
84.434341583298007
42
-0.99999999999999989
10
653.75714285714298
20
80.43434158329795
0
LWPOLYLINE
5
103
100
AcDbEntity
8
INTERIOR_PROFILES
100
AcDbPolyline
90
4
70
1
43
0.0
10
468.45102040816352
20
68.434341583297567
42
-0.99999999999999989
10
468.45102040816352
20
64.434341583297936
10
455.61428571428593
20
64.434341583298007
42
-0.99999999999999989
10
455.61428571428593
20
68.434341583297922
0
LWPOLYLINE
5
104
100
AcDbEntity
8
INTERIOR_PROFILES
100
AcDbPolyline
90
4
70
1
43
0.0
10
815.89999999999986
20
44.434341583298007
42
-0.99999999999999989
10
815.90000000000009
20
40.43434158329795
10
779.90000000000009
20
40.434341583297737
42
-0.99999999999999989
10
779.89999999999998
20
44.434341583297936
0
LWPOLYLINE
5
105
100
AcDbEntity
8
INTERIOR_PROFILES
100
AcDbPolyline
90
4
70
1
43
0.0
10
723.24693877551022
20
44.434341583297865
10
687.24693877551022
20
44.434341583297865
42
0.99999999999999989
10
687.24693877551044
20
40.43434158329795
10
723.24693877551022
20
40.434341583298092
42
0.99999999999999989
0
LWPOLYLINE
5
106
100
AcDbEntity
8
INTERIOR_PROFILES
100
AcDbPolyline
90
4
70
1
43
0.0
10
594.59387755102057
20
40.434341583297737
42
-0.99999999999999989
10
594.59387755102068
20
44.434341583297936
10
630.59387755102057
20
44.434341583298007
42
-0.99999999999999989
10
630.59387755102057
20
40.43434158329795
0
LWPOLYLINE
5
107
100
AcDbEntity
8
INTERIOR_PROFILES
100
AcDbPolyline
90
4
70
1
43
0.0
10
514.77755102040828
20
52.434341583298121
42
-0.99999999999999989
10
514.77755102040828
20
48.434341583297922
10
478.77755102040828
20
48.434341583298277
42
-0.99999999999999989
10
478.77755102040828
20
52.434341583297908
0
LWPOLYLINE
5
108
100
AcDbEntity
8
INTERIOR_PROFILES
100
AcDbPolyline
90
4
70
1
43
0.0
10
630.59387755102057
20
60.43434158329795
10
594.59387755102068
20
60.43434158329795
42
0.99999999999999989
10
594.59387755102046
20
56.434341583297893
10
630.59387755102057
20
56.434341583297893
42
0.99999999999999989
0
LWPOLYLINE
5
109
100
AcDbEntity
8
INTERIOR_PROFILES
100
AcDbPolyline
90
4
70
1
43
0.0
10
640.92040816326539
20
72.434341583297908
42
-0.99999999999999989
10
640.92040816326539
20
76.434341583298107
10
676.92040816326551
20
76.434341583298107
42
-0.99999999999999989
10
676.92040816326539
20
72.434341583297908
0
LWPOLYLINE
5
110
100
AcDbEntity
8
INTERIOR_PROFILES
100
AcDbPolyline
90
4
70
1
43
0.0
10
769.57346938775504
20
76.434341583297908
42
-0.99999999999999989
10
769.57346938775515
20
72.434341583297964
10
733.57346938775527
20
72.434341583297837
42
-0.99999999999999989
10
733.57346938775527
20
76.434341583297893
0
LWPOLYLINE
5
111
100
AcDbEntity
8
INTERIOR_PROFILES
100
AcDbPolyline
90
4
70
1
43
0.0
10
710.41020408163274
20
80.43434158329795
10
746.41020408163263
20
80.434341583297751
42
0.99999999999999989
10
746.41020408163263
20
84.434341583297922
10
710.41020408163274
20
84.434341583297723
42
0.99999999999999989
0
LWPOLYLINE
5
112
100
AcDbEntity
8
INTERIOR_PROFILES
100
AcDbPolyline
90
4
70
1
43
0.0
10
548.26734693877575
20
72.434341583297979
42
-0.99999999999999989
10
548.26734693877575
20
76.434341583297893
10
584.26734693877575
20
76.434341583298107
42
-0.99999999999999989
10
584.26734693877563
20
72.434341583297908
0
LWPOLYLINE
5
113
100
AcDbEntity
8
INTERIOR_PROFILES
100
AcDbPolyline
90
4
70
1
43
0.0
10
571.43061224489816
20
64.434341583297865
42
-0.99999999999999989
10
571.43061224489827
20
68.434341583297922
10
607.43061224489804
20
68.434341583297709
42
-0.99999999999999989
10
607.43061224489804
20
64.434341583297936
0
LWPOLYLINE
5
114
100
AcDbEntity
8
INTERIOR_PROFILES
100
AcDbPolyline
90
4
70
1
43
0.0
10
664.08367346938803
20
48.434341583298277
42
-0.99999999999999989
10
664.08367346938792
20
52.434341583297908
10
700.08367346938803
20
52.434341583297837
42
-0.99999999999999989
10
700.08367346938803
20
48.434341583297922
0
LWPOLYLINE
5
115
100
AcDbEntity
8
INTERIOR_PROFILES
100
AcDbPolyline
90
4
70
1
43
0.0
10
815.90000000000009
20
60.434341583297808
42
-0.99999999999999989
10
815.90000000000009
20
56.434341583297893
10
779.90000000000009
20
56.434341583298036
42
-0.99999999999999989
10
779.90000000000009
20
60.43434158329795
0
LWPOLYLINE
5
116
100
AcDbEntity
8
INTERIOR_PROFILES
100
AcDbPolyline
90
4
70
1
43
0.0
10
525.10408163265322
20
80.43434158329795
42
-0.99999999999999989
10
525.10408163265322
20
84.434341583298007
10
561.10408163265322
20
84.434341583297865
42
-0.99999999999999989
10
561.10408163265322
20
80.43434158329795
0
LWPOLYLINE
5
117
100
AcDbEntity
8
INTERIOR_PROFILES
100
AcDbPolyline
90
4
70
1
43
0.0
10
455.61428571428593
20
72.434341583297979
42
-0.99999999999999989
10
455.61428571428593
20
76.434341583297893
10
491.61428571428593
20
76.434341583298107
42
-0.99999999999999989
10
491.61428571428593
20
72.434341583297908
0
LWPOLYLINE
5
118
100
AcDbEntity
8
INTERIOR_PROFILES
100
AcDbPolyline
90
4
70
1
43
0.0
10
594.59387755102057
20
88.434341583297922
10
630.59387755102057
20
88.434341583297922
42
0.99999999999999989
10
630.59387755102057
20
92.434341583297979
10
594.59387755102046
20
92.434341583298121
42
0.99999999999999989
0
LWPOLYLINE
5
119
100
AcDbEntity
8
INTERIOR_PROFILES
100
AcDbPolyline
90
4
70
1
43
0.0
10
723.24693877551022
20
92.434341583297837
42
-0.99999999999999989
10
723.24693877551022
20
88.434341583297922
10
687.24693877551044
20
88.434341583298277
42
-0.99999999999999989
10
687.24693877551033
20
92.434341583297908
0
LWPOLYLINE
5
120
100
AcDbEntity
8
INTERIOR_PROFILES
100
AcDbPolyline
90
4
70
1
43
0.0
10
455.61428571428593
20
80.434341583297879
42
-0.99999999999999989
10
455.61428571428593
20
84.434341583297936
10
468.45102040816352
20
84.434341583298007
42
-0.99999999999999989
10
468.45102040816352
20
80.43434158329795
0
LWPOLYLINE
5
121
100
AcDbEntity
8
INTERIOR_PROFILES
100
AcDbPolyline
90
4
70
1
43
0.0
10
676.92040816326539
20
60.43434158329795
42
-0.99999999999999989
10
676.92040816326539
20
56.434341583297893
10
640.92040816326562
20
56.434341583297893
42
-0.99999999999999989
10
640.92040816326539
20
60.43434158329795
0
LWPOLYLINE
5
122
100
AcDbEntity
8
INTERIOR_PROFILES
100
AcDbPolyline
90
4
70
1
43
0.0
10
617.75714285714298
20
64.434341583297865
42
-0.99999999999999989
10
617.75714285714298
20
68.434341583297922
10
653.75714285714298
20
68.434341583297879
42
-0.99999999999999989
10
653.75714285714298
20
64.434341583297908
0
LWPOLYLINE
5
123
100
AcDbEntity
8
INTERIOR_PROFILES
100
AcDbPolyline
90
4
70
1
43
0.0
10
815.89999999999986
20
84.434341583298007
42
-0.99999999999999989
10
815.90000000000009
20
80.43434158329795
10
803.0632653061225
20
80.43434158329795
42
-0.99999999999999989
10
803.06326530612239
20
84.434341583297865
0
LWPOLYLINE
5
124
100
AcDbEntity
8
INTERIOR_PROFILES
100
AcDbPolyline
90
4
70
1
43
0.0
10
803.0632653061225
20
48.434341583297957
42
-0.99999999999999989
10
803.0632653061225
20
52.434341583297943
10
815.90000000000009
20
52.434341583297837
42
-0.99999999999999989
10
815.90000000000009
20
48.434341583297922
0
LWPOLYLINE
5
125
100
AcDbEntity
8
INTERIOR_PROFILES
100
AcDbPolyline
90
4
70
1
43
0.0
10
491.61428571428587
20
60.43434158329795
10
455.61428571428593
20
60.43434158329795
42
0.99999999999999989
10
455.61428571428593
20
56.434341583298036
10
491.61428571428587
20
56.434341583297893
42
0.99999999999999989
0
LWPOLYLINE
5
126
100
AcDbEntity
8
INTERIOR_PROFILES
100
AcDbPolyline
90
4
70
1
43
0.0
10
537.94081632653081
20
92.434341583297979
42
-0.99999999999999989
10
537.94081632653069
20
88.434341583297922
10
501.94081632653075
20
88.434341583298277
42
-0.99999999999999989
10
501.94081632653075
20
92.434341583297908
0
LWPOLYLINE
5
127
100
AcDbEntity
8
INTERIOR_PROFILES
100
AcDbPolyline
90
4
70
1
43
0.0
10
779.89999999999998
20
88.434341583298135
42
-0.99999999999999989
10
779.9000000000002
20
92.434341583297908
10
815.90000000000009
20
92.434341583297837
42
-0.99999999999999989
10
815.90000000000009
20
88.434341583297922
0
LWPOLYLINE
5
128
100
AcDbEntity
8
INTERIOR_PROFILES
100
AcDbPolyline
90
4
70
1
43
0.0
10
756.73673469387768
20
64.434341583297936
10
792.73673469387768
20
64.434341583297936
42
0.99999999999999989
10
792.73673469387768
20
68.434341583297709
10
756.73673469387768
20
68.434341583297993
42
0.99999999999999989
0
LWPOLYLINE
5
129
100
AcDbEntity
8
INTERIOR_PROFILES
100
AcDbPolyline
90
4
70
1
43
0.0
10
607.43061224489804
20
52.434341583297979
10
571.43061224489804
20
52.434341583297908
42
0.99999999999999989
10
571.43061224489816
20
48.434341583298135
10
607.43061224489804
20
48.434341583297922
42
0.99999999999999989
0
LWPOLYLINE
5
130
100
AcDbEntity
8
INTERIOR_PROFILES
100
AcDbPolyline
90
4
70
1
43
0.0
10
468.45102040816352
20
52.434341583297908
10
455.61428571428576
20
52.434341583297908
42
0.99999999999999989
10
455.61428571428593
20
48.434341583298277
10
468.45102040816323
20
48.434341583298135
42
0.99999999999999989
0
LWPOLYLINE
5
131
100
AcDbEntity
8
INTERIOR_PROFILES
100
AcDbPolyline
90
4
70
1
43
0.0
10
653.75714285714298
20
52.434341583297979
10
617.75714285714298
20
52.434341583297943
42
0.99999999999999989
10
617.75714285714298
20
48.434341583297957
10
653.75714285714298
20
48.434341583297922
42
0.99999999999999989
0
CIRCLE
5
132
100
AcDbEntity
8
INTERIOR_PROFILES
100
AcDbCircle
10
-11.900000000000119
20
69.345182468660695
30
0
40
1.6500000000000625
210
0
220
0
230
-1
0
CIRCLE
5
133
100
AcDbEntity
8
INTERIOR_PROFILES
100
AcDbCircle
10
-438.61428571428598
20
66.434341583297893
30
0
40
3.2500000000000284
210
0
220
0
230
-1
0
LWPOLYLINE
5
134
100
AcDbEntity
8
INTERIOR_PROFILES
100
AcDbPolyline
90
4
70
1
43
0.0
10
640.92040816326539
20
40.43434158329795
10
676.92040816326551
20
40.43434158329795
42
0.99999999999999989
10
676.92040816326528
20
44.434341583298007
10
640.92040816326539
20
44.434341583297723
42
0.99999999999999989
0
CIRCLE
5
135
100
AcDbEntity
8
INTERIOR_PROFILES
100
AcDbCircle
10
-417.61428571428598
20
98.434341583297922
30
0
40
1.7999999999999972
210
0
220
0
230
-1
0
CIRCLE
5
136
100
AcDbEntity
8
INTERIOR_PROFILES
100
AcDbCircle
10
-27.614285714285955
20
98.434341583297922
30
0
40
1.8000000000000682
210
0
220
0
230
-1
0
LWPOLYLINE
5
137
100
AcDbEntity
8
INTERIOR_PROFILES
100
AcDbPolyline
90
4
70
1
43
0.0
10
455.61428571428593
20
40.434341583297879
42
-0.99999999999999989
10
455.61428571428593
20
44.434341583297936
10
491.61428571428593
20
44.434341583297865
42
-0.99999999999999989
10
491.61428571428587
20
40.43434158329795
0
CIRCLE
5
138
100
AcDbEntity
8
INTERIOR_PROFILES
100
AcDbCircle
10
-837.89999999999986
20
101.34518246866072
30
0
40
1.6500000000000625
210
0
220
0
230
-1
0
CIRCLE
5
139
100
AcDbEntity
8
INTERIOR_PROFILES
100
AcDbCircle
10
-837.89999999999986
20
69.345182468660695
30
0
40
1.6500000000000625
210
0
220
0
230
-1
0
CIRCLE
5
140
100
AcDbEntity
8
INTERIOR_PROFILES
100
AcDbCircle
10
-417.61428571428598
20
34.434341583297936
30
0
40
1.7999999999999972
210
0
220
0
230
-1
0
CIRCLE
5
141
100
AcDbEntity
8
INTERIOR_PROFILES
100
AcDbCircle
10
-11.900000000000119
20
37.345182468660738
30
0
40
1.6500000000000625
210
0
220
0
230
-1
0
CIRCLE
5
142
100
AcDbEntity
8
INTERIOR_PROFILES
100
AcDbCircle
10
-27.614285714285955
20
34.434341583297936
30
0
40
1.8000000000000682
210
0
220
0
230
-1
0
CIRCLE
5
143
100
AcDbEntity
8
INTERIOR_PROFILES
100
AcDbCircle
10
-837.89999999999986
20
37.345182468660738
30
0
40
1.6500000000000625
210
0
220
0
230
-1
0
CIRCLE
5
144
100
AcDbEntity
8
INTERIOR_PROFILES
100
AcDbCircle
10
-11.900000000000119
20
101.34518246866072
30
0
40
1.6500000000000625
210
0
220
0
230
-1
0
LWPOLYLINE
5
145
100
AcDbEntity
8
INTERIOR_PROFILES
100
AcDbPolyline
90
8
70
1
43
0.0
10
408.61428571428587
20
46.434341583297893
42
-0.41421356237306728
10
405.61428571428593
20
43.434341583297922
10
39.614285714285984
20
43.434341583297993
42
-0.41421356237310197
10
36.61428571428587
20
46.434341583297893
10
36.614285714285799
20
86.434341583297893
42
-0.4142135623730534
10
39.614285714285984
20
89.434341583297936
10
405.61428571428593
20
89.434341583297865
42
-0.41421356237312973
10
408.61428571428598
20
86.434341583297893
0
CIRCLE
5
146
100
AcDbEntity
8
INTERIOR_PROFILES
100
AcDbCircle
10
-250.99821428571431
20
512.92131509967123
30
0
40
1.7999999999999972
210
0
220
0
230
-1
0
CIRCLE
5
147
100
AcDbEntity
8
INTERIOR_PROFILES
100
AcDbCircle
10
-173.90000000000012
20
277.68434158329802
30
0
40
1.8000000000000682
210
0
220
0
230
-1
0
CIRCLE
5
148
100
AcDbEntity
8
INTERIOR_PROFILES
100
AcDbCircle
10
-332.65000000000009
20
211.68434158329802
30
0
40
1.7999999999999972
210
0
220
0
230
-1
0
CIRCLE
5
149
100
AcDbEntity
8
INTERIOR_PROFILES
100
AcDbCircle
10
-655.56964285714287
20
512.92131509967123
30
0
40
1.8000000000000682
210
0
220
0
230
-1
0
CIRCLE
5
150
100
AcDbEntity
8
INTERIOR_PROFILES
100
AcDbCircle
10
-598.80178571428576
20
415.55131509967123
30
0
40
1.7999999999999972
210
0
220
0
230
-1
0
CIRCLE
5
151
100
AcDbEntity
8
INTERIOR_PROFILES
100
AcDbCircle
10
-554.42678571428576
20
512.92131509967123
30
0
40
1.7999999999999972
210
0
220
0
230
-1
0
CIRCLE
5
152
100
AcDbEntity
8
INTERIOR_PROFILES
100
AcDbCircle
10
-427.00000000000011
20
162.93434158329802
30
0
40
2.2999999999999687
210
0
220
0
230
-1
0
CIRCLE
5
153
100
AcDbEntity
8
INTERIOR_PROFILES
100
AcDbCircle
10
-699.94464285714287
20
512.92131509967123
30
0
40
1.8000000000000682
210
0
220
0
230
-1
0
CIRCLE
5
154
100
AcDbEntity
8
INTERIOR_PROFILES
100
AcDbCircle
10
-243.15000000000012
20
301.18434158329802
30
0
40
1.7999999999999972
210
0
220
0
230
-1
0
CIRCLE
5
155
100
AcDbEntity
8
INTERIOR_PROFILES
100
AcDbCircle
10
-448.80000000000007
20
162.93434158329802
30
0
40
2.2999999999999687
210
0
220
0
230
-1
0
CIRCLE
5
156
100
AcDbEntity
8
INTERIOR_PROFILES
100
AcDbCircle
10
-699.94464285714287
20
415.55131509967123
30
0
40
1.8000000000000682
210
0
220
0
230
-1
0
CIRCLE
5
157
100
AcDbEntity
8
INTERIOR_PROFILES
100
AcDbCircle
10
-82.900000000000205
20
325.43434158329802
30
0
40
1.25
210
0
220
0
230
-1
0
CIRCLE
5
158
100
AcDbEntity
8
INTERIOR_PROFILES
100
AcDbCircle
10
-756.71250000000009
20
415.55131509967123
30
0
40
1.8000000000000682
210
0
220
0
230
-1
0
CIRCLE
5
159
100
AcDbEntity
8
INTERIOR_PROFILES
100
AcDbCircle
10
-131.54285714285732
20
381.43740460345617
30
0
40
2.3000000000000398
210
0
220
0
230
-1
0
CIRCLE
5
160
100
AcDbEntity
8
INTERIOR_PROFILES
100
AcDbCircle
10
-232.68571428571437
20
381.43740460345617
30
0
40
2.2999999999999687
210
0
220
0
230
-1
0
CIRCLE
5
161
100
AcDbEntity
8
INTERIOR_PROFILES
100
AcDbCircle
10
-108.90000000000015
20
294.43434158329802
30
0
40
1.25
210
0
220
0
230
-1
0
CIRCLE
5
162
100
AcDbEntity
8
INTERIOR_PROFILES
100
AcDbCircle
10
-393.90000000000009
20
294.43434158329802
30
0
40
1.25
210
0
220
0
230
-1
0
CIRCLE
5
163
100
AcDbEntity
8
INTERIOR_PROFILES
100
AcDbCircle
10
-367.90000000000015
20
325.43434158329802
30
0
40
1.25
210
0
220
0
230
-1
0
CIRCLE
5
164
100
AcDbEntity
8
INTERIOR_PROFILES
100
AcDbCircle
10
-726.10000000000014
20
284.33434158329806
30
0
40
1.25
210
0
220
0
230
-1
0
CIRCLE
5
165
100
AcDbEntity
8
INTERIOR_PROFILES
100
AcDbCircle
10
-630.10000000000002
20
250.93434158329799
30
0
40
1.25
210
0
220
0
230
-1
0
CIRCLE
5
166
100
AcDbEntity
8
INTERIOR_PROFILES
100
AcDbCircle
10
-822.10000000000014
20
250.93434158329799
30
0
40
1.25
210
0
220
0
230
-1
0
CIRCLE
5
167
100
AcDbEntity
8
INTERIOR_PROFILES
100
AcDbCircle
10
-453.28392857142865
20
349.15038112917375
30
0
40
1.7999999999999972
210
0
220
0
230
-1
0
CIRCLE
5
168
100
AcDbEntity
8
INTERIOR_PROFILES
100
AcDbCircle
10
-497.65892857142859
20
349.15038112917375
30
0
40
1.7999999999999972
210
0
220
0
230
-1
0
CIRCLE
5
169
100
AcDbEntity
8
INTERIOR_PROFILES
100
AcDbCircle
10
-554.42678571428576
20
349.15038112917375
30
0
40
1.7999999999999972
210
0
220
0
230
-1
0
CIRCLE
5
170
100
AcDbEntity
8
INTERIOR_PROFILES
100
AcDbCircle
10
-598.80178571428576
20
349.15038112917375
30
0
40
1.7999999999999972
210
0
220
0
230
-1
0
CIRCLE
5
171
100
AcDbEntity
8
INTERIOR_PROFILES
100
AcDbCircle
10
-48.712500000000176
20
512.92131509967123
30
0
40
1.8000000000000682
210
0
220
0
230
-1
0
CIRCLE
5
172
100
AcDbEntity
8
INTERIOR_PROFILES
100
AcDbCircle
10
-93.087500000000176
20
512.92131509967123
30
0
40
1.8000000000000682
210
0
220
0
230
-1
0
CIRCLE
5
173
100
AcDbEntity
8
INTERIOR_PROFILES
100
AcDbCircle
10
-149.85535714285729
20
415.55131509967123
30
0
40
1.8000000000000682
210
0
220
0
230
-1
0
CIRCLE
5
174
100
AcDbEntity
8
INTERIOR_PROFILES
100
AcDbCircle
10
-194.23035714285729
20
415.55131509967123
30
0
40
1.8000000000000682
210
0
220
0
230
-1
0
CIRCLE
5
175
100
AcDbEntity
8
INTERIOR_PROFILES
100
AcDbCircle
10
-352.14107142857154
20
512.92131509967123
30
0
40
1.7999999999999972
210
0
220
0
230
-1
0
CIRCLE
5
176
100
AcDbEntity
8
INTERIOR_PROFILES
100
AcDbCircle
10
-396.51607142857154
20
512.92131509967123
30
0
40
1.7999999999999972
210
0
220
0
230
-1
0
CIRCLE
5
177
100
AcDbEntity
8
INTERIOR_PROFILES
100
AcDbCircle
10
-295.37321428571431
20
415.55131509967123
30
0
40
1.7999999999999972
210
0
220
0
230
-1
0
CIRCLE
5
178
100
AcDbEntity
8
INTERIOR_PROFILES
100
AcDbCircle
10
-453.28392857142865
20
415.55131509967123
30
0
40
1.7999999999999972
210
0
220
0
230
-1
0
CIRCLE
5
179
100
AcDbEntity
8
INTERIOR_PROFILES
100
AcDbCircle
10
-396.51607142857154
20
415.55131509967123
30
0
40
1.7999999999999972
210
0
220
0
230
-1
0
CIRCLE
5
180
100
AcDbEntity
8
INTERIOR_PROFILES
100
AcDbCircle
10
-352.14107142857154
20
415.55131509967123
30
0
40
1.7999999999999972
210
0
220
0
230
-1
0
CIRCLE
5
181
100
AcDbEntity
8
INTERIOR_PROFILES
100
AcDbCircle
10
-453.28392857142865
20
512.92131509967123
30
0
40
1.7999999999999972
210
0
220
0
230
-1
0
CIRCLE
5
182
100
AcDbEntity
8
INTERIOR_PROFILES
100
AcDbCircle
10
-295.37321428571431
20
512.92131509967123
30
0
40
1.7999999999999972
210
0
220
0
230
-1
0
CIRCLE
5
183
100
AcDbEntity
8
INTERIOR_PROFILES
100
AcDbCircle
10
-194.23035714285729
20
512.92131509967123
30
0
40
1.8000000000000682
210
0
220
0
230
-1
0
CIRCLE
5
184
100
AcDbEntity
8
INTERIOR_PROFILES
100
AcDbCircle
10
-250.99821428571431
20
415.55131509967123
30
0
40
1.7999999999999972
210
0
220
0
230
-1
0
CIRCLE
5
185
100
AcDbEntity
8
INTERIOR_PROFILES
100
AcDbCircle
10
-149.85535714285729
20
512.92131509967123
30
0
40
1.8000000000000682
210
0
220
0
230
-1
0
CIRCLE
5
186
100
AcDbEntity
8
INTERIOR_PROFILES
100
AcDbCircle
10
-93.087500000000176
20
415.55131509967123
30
0
40
1.8000000000000682
210
0
220
0
230
-1
0
CIRCLE
5
187
100
AcDbEntity
8
INTERIOR_PROFILES
100
AcDbCircle
10
-48.712500000000176
20
415.55131509967123
30
0
40
1.8000000000000682
210
0
220
0
230
-1
0
CIRCLE
5
188
100
AcDbEntity
8
INTERIOR_PROFILES
100
AcDbCircle
10
-598.80178571428576
20
251.78038112917375
30
0
40
1.7999999999999972
210
0
220
0
230
-1
0
CIRCLE
5
189
100
AcDbEntity
8
INTERIOR_PROFILES
100
AcDbCircle
10
-554.42678571428576
20
251.78038112917375
30
0
40
1.7999999999999972
210
0
220
0
230
-1
0
CIRCLE
5
190
100
AcDbEntity
8
INTERIOR_PROFILES
100
AcDbCircle
10
-497.65892857142859
20
251.78038112917375
30
0
40
1.7999999999999972
210
0
220
0
230
-1
0
CIRCLE
5
191
100
AcDbEntity
8
INTERIOR_PROFILES
100
AcDbCircle
10
-453.28392857142865
20
251.78038112917375
30
0
40
1.7999999999999972
210
0
220
0
230
-1
0
CIRCLE
5
192
100
AcDbEntity
8
INTERIOR_PROFILES
100
AcDbCircle
10
-822.10000000000014
20
170.93434158329799
30
0
40
1.25
210
0
220
0
230
-1
0
CIRCLE
5
193
100
AcDbEntity
8
INTERIOR_PROFILES
100
AcDbCircle
10
-630.10000000000002
20
170.93434158329799
30
0
40
1.25
210
0
220
0
230
-1
0
CIRCLE
5
194
100
AcDbEntity
8
INTERIOR_PROFILES
100
AcDbCircle
10
-726.10000000000014
20
137.63434158329801
30
0
40
1.25
210
0
220
0
230
-1
0
CIRCLE
5
195
100
AcDbEntity
8
INTERIOR_PROFILES
100
AcDbCircle
10
-332.65000000000009
20
301.18434158329802
30
0
40
1.7999999999999972
210
0
220
0
230
-1
0
CIRCLE
5
196
100
AcDbEntity
8
INTERIOR_PROFILES
100
AcDbCircle
10
-367.90000000000015
20
203.43434158329799
30
0
40
1.25
210
0
220
0
230
-1
0
CIRCLE
5
197
100
AcDbEntity
8
INTERIOR_PROFILES
100
AcDbCircle
10
-393.90000000000009
20
234.43434158329802
30
0
40
1.25
210
0
220
0
230
-1
0
CIRCLE
5
198
100
AcDbEntity
8
INTERIOR_PROFILES
100
AcDbCircle
10
-82.900000000000205
20
203.43434158329799
30
0
40
1.25
210
0
220
0
230
-1
0
CIRCLE
5
199
100
AcDbEntity
8
INTERIOR_PROFILES
100
AcDbCircle
10
-108.90000000000015
20
234.43434158329802
30
0
40
1.25
210
0
220
0
230
-1
0
CIRCLE
5
200
100
AcDbEntity
8
INTERIOR_PROFILES
100
AcDbCircle
10
-212.54285714285726
20
381.43740460345617
30
0
40
2.2999999999999687
210
0
220
0
230
-1
0
CIRCLE
5
201
100
AcDbEntity
8
INTERIOR_PROFILES
100
AcDbCircle
10
-111.40000000000015
20
381.43740460345617
30
0
40
2.3000000000000398
210
0
220
0
230
-1
0
CIRCLE
5
202
100
AcDbEntity
8
INTERIOR_PROFILES
100
AcDbCircle
10
-124.9000000000002
20
277.68434158329802
30
0
40
1.8000000000000682
210
0
220
0
230
-1
0
CIRCLE
5
203
100
AcDbEntity
8
INTERIOR_PROFILES
100
AcDbCircle
10
-502.7000000000001
20
162.93434158329802
30
0
40
2.2999999999999687
210
0
220
0
230
-1
0
CIRCLE
5
204
100
AcDbEntity
8
INTERIOR_PROFILES
100
AcDbCircle
10
-655.56964285714287
20
415.55131509967123
30
0
40
1.8000000000000682
210
0
220
0
230
-1
0
CIRCLE
5
205
100
AcDbEntity
8
INTERIOR_PROFILES
100
AcDbCircle
10
-173.90000000000012
20
219.68434158329799
30
0
40
1.8000000000000682
210
0
220
0
230
-1
0
CIRCLE
5
206
100
AcDbEntity
8
INTERIOR_PROFILES
100
AcDbCircle
10
-801.08750000000009
20
415.55131509967123
30
0
40
1.8000000000000682
210
0
220
0
230
-1
0
CIRCLE
5
207
100
AcDbEntity
8
INTERIOR_PROFILES
100
AcDbCircle
10
-756.71250000000009
20
512.92131509967123
30
0
40
1.8000000000000682
210
0
220
0
230
-1
0
CIRCLE
5
208
100
AcDbEntity
8
INTERIOR_PROFILES
100
AcDbCircle
10
-801.08750000000009
20
512.92131509967123
30
0
40
1.8000000000000682
210
0
220
0
230
-1
0
CIRCLE
5
209
100
AcDbEntity
8
INTERIOR_PROFILES
100
AcDbCircle
10
-598.80178571428576
20
512.92131509967123
30
0
40
1.7999999999999972
210
0
220
0
230
-1
0
CIRCLE
5
210
100
AcDbEntity
8
INTERIOR_PROFILES
100
AcDbCircle
10
-554.42678571428576
20
415.55131509967123
30
0
40
1.7999999999999972
210
0
220
0
230
-1
0
CIRCLE
5
211
100
AcDbEntity
8
INTERIOR_PROFILES
100
AcDbCircle
10
-124.9000000000002
20
219.68434158329799
30
0
40
1.8000000000000682
210
0
220
0
230
-1
0
CIRCLE
5
212
100
AcDbEntity
8
INTERIOR_PROFILES
100
AcDbCircle
10
-373.10000000000008
20
162.93434158329802
30
0
40
2.2999999999999687
210
0
220
0
230
-1
0
CIRCLE
5
213
100
AcDbEntity
8
INTERIOR_PROFILES
100
AcDbCircle
10
-243.15000000000012
20
211.68434158329802
30
0
40
1.7999999999999972
210
0
220
0
230
-1
0
CIRCLE
5
214
100
AcDbEntity
8
INTERIOR_PROFILES
100
AcDbCircle
10
-497.65892857142859
20
512.92131509967123
30
0
40
1.7999999999999972
210
0
220
0
230
-1
0
CIRCLE
5
215
100
AcDbEntity
8
INTERIOR_PROFILES
100
AcDbCircle
10
-497.65892857142859
20
415.55131509967123
30
0
40
1.7999999999999972
210
0
220
0
230
-1
0
LWPOLYLINE
5
216
100
AcDbEntity
8
INTERIOR_PROFILES
100
AcDbPolyline
90
4
70
1
43
0.0
10
-14.099999999999966
20
230.43434158329802
42
-0.99999999999999989
10
-10.099999999999909
20
230.43434158329802
10
-10.09999999999998
20
194.43434158329802
42
-0.99999999999999989
10
-14.099999999999824
20
194.43434158329802
0
LWPOLYLINE
5
217
100
AcDbEntity
8
INTERIOR_PROFILES
100
AcDbPolyline
90
4
70
1
43
0.0
10
-18.100000000000023
20
218.43434158329799
10
-18.099999999999881
20
254.43434158329822
42
0.99999999999999989
10
-22.099999999999653
20
254.43434158329802
10
-22.099999999999511
20
218.43434158329799
42
0.99999999999999989
0
LWPOLYLINE
5
218
100
AcDbEntity
8
INTERIOR_PROFILES
100
AcDbPolyline
90
4
70
1
43
0.0
10
-30.099999999999909
20
278.43434158329796
42
-0.99999999999999989
10
-26.099999999999852
20
278.43434158329796
10
-26.099999999999781
20
242.43434158329802
42
-0.99999999999999989
10
-30.099999999999909
20
242.43434158329802
0
LWPOLYLINE
5
219
100
AcDbEntity
8
INTERIOR_PROFILES
100
AcDbPolyline
90
4
70
1
43
0.0
10
-26.100000000000136
20
160.43434158329802
42
-0.99999999999999989
10
-30.099999999999909
20
160.43434158329802
10
-30.099999999999909
20
182.43434158329796
42
-0.99999999999999989
10
-26.099999999999852
20
182.43434158329796
0
LWPOLYLINE
5
220
100
AcDbEntity
8
INTERIOR_PROFILES
100
AcDbPolyline
90
4
70
1
43
0.0
10
-34.099999999999824
20
170.43434158329802
10
-34.099999999999824
20
206.43434158329802
42
0.99999999999999989
10
-38.099999999999596
20
206.43434158329802
10
-38.099999999999881
20
170.43434158329788
42
0.99999999999999989
0
LWPOLYLINE
5
221
100
AcDbEntity
8
INTERIOR_PROFILES
100
AcDbPolyline
90
4
70
1
43
0.0
10
-46.099999999999852
20
230.43434158329802
10
-46.099999999999852
20
194.43434158329802
42
0.99999999999999989
10
-42.099999999999795
20
194.43434158329802
10
-42.099999999999795
20
230.43434158329808
42
0.99999999999999989
0
LWPOLYLINE
5
222
100
AcDbEntity
8
INTERIOR_PROFILES
100
AcDbPolyline
90
4
70
1
43
0.0
10
-50.100000000000051
20
218.43434158329799
42
-0.99999999999999989
10
-54.099999999999824
20
218.43434158329799
10
-54.099999999999966
20
254.43434158329802
42
-0.99999999999999989
10
-50.099999999999909
20
254.43434158329802
0
LWPOLYLINE
5
223
100
AcDbEntity
8
INTERIOR_PROFILES
100
AcDbPolyline
90
4
70
1
43
0.0
10
-58.099999999999739
20
194.43434158329802
42
-0.99999999999999989
10
-62.099999999999795
20
194.43434158329802
10
-62.099999999999653
20
230.43434158329802
42
-0.99999999999999989
10
-58.099999999999881
20
230.43434158329802
0
LWPOLYLINE
5
224
100
AcDbEntity
8
INTERIOR_PROFILES
100
AcDbPolyline
90
4
70
1
43
0.0
10
-70.099999999999625
20
203.61615976511621
42
-0.99999999999999989
10
-66.099999999999852
20
203.61615976511621
10
-66.099999999999923
20
170.43434158329802
42
-0.99999999999999989
10
-70.099999999999909
20
170.43434158329802
0
LWPOLYLINE
5
225
100
AcDbEntity
8
INTERIOR_PROFILES
100
AcDbPolyline
90
4
70
1
43
0.0
10
-58.099999999999739
20
160.43434158329802
42
-0.99999999999999989
10
-62.099999999999795
20
160.43434158329802
10
-62.099999999999724
20
182.43434158329796
42
-0.99999999999999989
10
-58.099999999999881
20
182.43434158329796
0
LWPOLYLINE
5
226
100
AcDbEntity
8
INTERIOR_PROFILES
100
AcDbPolyline
90
4
70
1
43
0.0
10
-54.099999999999824
20
206.43434158329802
10
-54.099999999999824
20
170.43434158329788
42
0.99999999999999989
10
-50.099999999999767
20
170.43434158329802
10
-50.099999999999767
20
206.43434158329819
42
0.99999999999999989
0
LWPOLYLINE
5
227
100
AcDbEntity
8
INTERIOR_PROFILES
100
AcDbPolyline
90
4
70
1
43
0.0
10
-46.099999999999852
20
182.43434158329796
42
-0.99999999999999989
10
-42.099999999999795
20
182.43434158329796
10
-42.099999999999866
20
160.43434158329802
42
-0.99999999999999989
10
-46.099999999999852
20
160.43434158329802
0
LWPOLYLINE
5
228
100
AcDbEntity
8
INTERIOR_PROFILES
100
AcDbPolyline
90
4
70
1
43
0.0
10
-46.099999999999852
20
278.43434158329796
10
-46.099999999999852
20
242.43434158329788
42
0.99999999999999989
10
-42.099999999999795
20
242.43434158329802
10
-42.099999999999795
20
278.43434158329796
42
0.99999999999999989
0
LWPOLYLINE
5
229
100
AcDbEntity
8
INTERIOR_PROFILES
100
AcDbPolyline
90
4
70
1
43
0.0
10
-34.100000000000108
20
218.43434158329799
42
-0.99999999999999989
10
-38.099999999999881
20
218.43434158329799
10
-38.099999999999596
20
254.43434158329802
42
-0.99999999999999989
10
-34.099999999999824
20
254.43434158329802
0
LWPOLYLINE
5
230
100
AcDbEntity
8
INTERIOR_PROFILES
100
AcDbPolyline
90
4
70
1
43
0.0
10
-26.099999999999852
20
194.43434158329802
42
-0.99999999999999989
10
-30.099999999999909
20
194.43434158329802
10
-30.099999999999909
20
230.43434158329802
42
-0.99999999999999989
10
-26.099999999999852
20
230.43434158329802
0
LWPOLYLINE
5
231
100
AcDbEntity
8
INTERIOR_PROFILES
100
AcDbPolyline
90
4
70
1
43
0.0
10
-22.099999999999795
20
206.43434158329802
10
-22.099999999999795
20
170.43434158329788
42
0.99999999999999989
10
-18.099999999999739
20
170.43434158329802
10
-18.099999999999739
20
206.43434158329802
42
0.99999999999999989
0
LWPOLYLINE
5
232
100
AcDbEntity
8
INTERIOR_PROFILES
100
AcDbPolyline
90
4
70
1
43
0.0
10
-10.099999999999909
20
160.43434158329802
10
-10.099999999999909
20
182.43434158329796
42
0.99999999999999989
10
-14.099999999999966
20
182.43434158329796
10
-14.099999999999682
20
160.43434158329788
42
0.99999999999999989
0
LWPOLYLINE
5
233
100
AcDbEntity
8
INTERIOR_PROFILES
100
AcDbPolyline
90
4
70
1
43
0.0
10
-10.100000000000051
20
242.43434158329802
10
-10.099999999999874
20
278.43434158329813
42
0.99999999999999989
10
-14.100000000000001
20
278.43434158329796
10
-14.099999999999824
20
242.43434158329794
42
0.99999999999999989
0
CIRCLE
5
234
100
AcDbEntity
8
INTERIOR_PROFILES
100
AcDbCircle
10
56.189159114637164
20
121.43434158329796
30
0
40
1.6500000000000625
210
0
220
0
230
-1
0
CIRCLE
5
235
100
AcDbEntity
8
INTERIOR_PROFILES
100
AcDbCircle
10
24.189159114637135
20
121.43434158329796
30
0
40
1.6500000000000625
210
0
220
0
230
-1
0
CIRCLE
5
236
100
AcDbEntity
8
INTERIOR_PROFILES
100
AcDbCircle
10
-20.328571428571678
20
534.97892121215898
30
0
40
1.25
210
0
220
0
230
-1
0
CIRCLE
5
237
100
AcDbEntity
8
INTERIOR_PROFILES
100
AcDbCircle
10
-424.90000000000015
20
534.97892121215898
30
0
40
1.25
210
0
220
0
230
-1
0
CIRCLE
5
238
100
AcDbEntity
8
INTERIOR_PROFILES
100
AcDbCircle
10
-829.47142857142865
20
534.97892121215898
30
0
40
1.25
210
0
220
0
230
-1
0
CIRCLE
5
239
100
AcDbEntity
8
INTERIOR_PROFILES
100
AcDbCircle
10
-323.75714285714304
20
534.97892121215898
30
0
40
1.25
210
0
220
0
230
-1
0
CIRCLE
5
240
100
AcDbEntity
8
INTERIOR_PROFILES
100
AcDbCircle
10
-526.0428571428572
20
534.97892121215898
30
0
40
1.25
210
0
220
0
230
-1
0
CIRCLE
5
241
100
AcDbEntity
8
INTERIOR_PROFILES
100
AcDbCircle
10
-121.47142857142879
20
534.97892121215898
30
0
40
1.25
210
0
220
0
230
-1
0
CIRCLE
5
242
100
AcDbEntity
8
INTERIOR_PROFILES
100
AcDbCircle
10
-728.32857142857154
20
534.97892121215898
30
0
40
1.25
210
0
220
0
230
-1
0
CIRCLE
5
243
100
AcDbEntity
8
INTERIOR_PROFILES
100
AcDbCircle
10
-617.11428571428576
20
381.43740460345617
30
0
40
2.2999999999999687
210
0
220
0
230
-1
0
CIRCLE
5
244
100
AcDbEntity
8
INTERIOR_PROFILES
100
AcDbCircle
10
-627.18571428571431
20
534.97892121215898
30
0
40
1.25
210
0
220
0
230
-1
0
CIRCLE
5
245
100
AcDbEntity
8
INTERIOR_PROFILES
100
AcDbCircle
10
-222.61428571428584
20
534.97892121215898
30
0
40
1.25
210
0
220
0
230
-1
0
CIRCLE
5
246
100
AcDbEntity
8
INTERIOR_PROFILES
100
AcDbCircle
10
-313.68571428571443
20
381.43740460345617
30
0
40
2.2999999999999687
210
0
220
0
230
-1
0
CIRCLE
5
247
100
AcDbEntity
8
INTERIOR_PROFILES
100
AcDbCircle
10
-421.40000000000015
20
324.21470597625535
30
0
40
2.2999999999999687
210
0
220
0
230
-1
0
CIRCLE
5
248
100
AcDbEntity
8
INTERIOR_PROFILES
100
AcDbCircle
10
-738.40000000000009
20
381.43740460345617
30
0
40
2.3000000000000398
210
0
220
0
230
-1
0
CIRCLE
5
249
100
AcDbEntity
8
INTERIOR_PROFILES
100
AcDbCircle
10
-536.11428571428576
20
381.43740460345617
30
0
40
2.3000000000000398
210
0
220
0
230
-1
0
CIRCLE
5
250
100
AcDbEntity
8
INTERIOR_PROFILES
100
AcDbCircle
10
-414.82857142857154
20
381.43740460345617
30
0
40
2.2999999999999687
210
0
220
0
230
-1
0
CIRCLE
5
251
100
AcDbEntity
8
INTERIOR_PROFILES
100
AcDbCircle
10
-515.97142857142876
20
381.43740460345617
30
0
40
2.2999999999999687
210
0
220
0
230
-1
0
CIRCLE
5
252
100
AcDbEntity
8
INTERIOR_PROFILES
100
AcDbCircle
10
-333.82857142857154
20
381.43740460345617
30
0
40
2.2999999999999687
210
0
220
0
230
-1
0
CIRCLE
5
253
100
AcDbEntity
8
INTERIOR_PROFILES
100
AcDbCircle
10
-434.9714285714287
20
381.43740460345617
30
0
40
2.2999999999999687
210
0
220
0
230
-1
0
CIRCLE
5
254
100
AcDbEntity
8
INTERIOR_PROFILES
100
AcDbCircle
10
-637.25714285714287
20
381.43740460345617
30
0
40
2.3000000000000398
210
0
220
0
230
-1
0
CIRCLE
5
255
100
AcDbEntity
8
INTERIOR_PROFILES
100
AcDbCircle
10
-718.25714285714298
20
381.43740460345617
30
0
40
2.3000000000000398
210
0
220
0
230
-1
0
CIRCLE
5
256
100
AcDbEntity
8
INTERIOR_PROFILES
100
AcDbCircle
10
-409.40000000000009
20
324.21470597625535
30
0
40
2.2999999999999687
210
0
220
0
230
-1
0
LWPOLYLINE
5
257
100
AcDbEntity
8
INTERIOR_PROFILES
100
AcDbPolyline
90
4
70
1
43
0.0
10
154.04285714285732
20
368.35084811442243
42
-0.99999999999999989
10
154.04285714285732
20
372.35084811442249
10
190.04285714285726
20
372.35084811442249
42
-0.99999999999999989
10
190.04285714285726
20
368.35084811442243
0
LWPOLYLINE
5
258
100
AcDbEntity
8
INTERIOR_PROFILES
100
AcDbPolyline
90
4
70
1
43
0.0
10
558.61428571428587
20
368.35084811442243
42
-0.99999999999999989
10
558.61428571428587
20
372.35084811442249
10
594.61428571428587
20
372.35084811442249
42
-0.99999999999999989
10
594.61428571428587
20
368.35084811442243
0
LWPOLYLINE
5
259
100
AcDbEntity
8
INTERIOR_PROFILES
100
AcDbPolyline
90
4
70
1
43
0.0
10
356.32857142857154
20
376.35084811442249
42
-0.99999999999999989
10
356.32857142857154
20
380.35084811442255
10
392.32857142857154
20
380.35084811442255
42
-0.99999999999999989
10
392.32857142857154
20
376.35084811442249
0
LWPOLYLINE
5
260
100
AcDbEntity
8
INTERIOR_PROFILES
100
AcDbPolyline
90
4
70
1
43
0.0
10
154.04285714285732
20
384.35084811442255
42
-0.99999999999999989
10
154.04285714285732
20
388.35084811442243
10
190.04285714285726
20
388.35084811442249
42
-0.99999999999999989
10
190.04285714285726
20
384.35084811442243
0
LWPOLYLINE
5
261
100
AcDbEntity
8
INTERIOR_PROFILES
100
AcDbPolyline
90
4
70
1
43
0.0
10
392.32857142857154
20
396.35084811442255
42
-0.99999999999999989
10
392.32857142857154
20
392.35084811442249
10
356.32857142857154
20
392.35084811442249
42
-0.99999999999999989
10
356.32857142857154
20
396.35084811442255
0
LWPOLYLINE
5
262
100
AcDbEntity
8
INTERIOR_PROFILES
100
AcDbPolyline
90
4
70
1
43
0.0
10
558.61428571428587
20
384.35084811442255
42
-0.99999999999999989
10
558.61428571428587
20
388.35084811442243
10
594.61428571428587
20
388.35084811442249
42
-0.99999999999999989
10
594.61428571428587
20
384.35084811442243
0
LWPOLYLINE
5
263
100
AcDbEntity
8
INTERIOR_PROFILES
100
AcDbPolyline
90
4
70
1
43
0.0
10
291.18571428571437
20
396.35084811442255
42
-0.99999999999999989
10
291.18571428571437
20
392.35084811442249
10
255.18571428571434
20
392.35084811442249
42
-0.99999999999999989
10
255.18571428571434
20
396.35084811442255
0
LWPOLYLINE
5
264
100
AcDbEntity
8
INTERIOR_PROFILES
100
AcDbPolyline
90
4
70
1
43
0.0
10
659.75714285714287
20
392.35084811442249
42
-0.99999999999999989
10
659.75714285714287
20
396.35084811442255
10
695.75714285714298
20
396.35084811442255
42
-0.99999999999999989
10
695.75714285714298
20
392.35084811442249
0
LWPOLYLINE
5
265
100
AcDbEntity
8
INTERIOR_PROFILES
100
AcDbPolyline
90
4
70
1
43
0.0
10
457.4714285714287
20
384.35084811442255
42
-0.99999999999999989
10
457.4714285714287
20
388.35084811442243
10
493.4714285714287
20
388.35084811442243
42
-0.99999999999999989
10
493.4714285714287
20
384.35084811442255
0
LWPOLYLINE
5
266
100
AcDbEntity
8
INTERIOR_PROFILES
100
AcDbPolyline
90
4
70
1
43
0.0
10
493.4714285714287
20
372.35084811442243
42
-0.99999999999999989
10
493.4714285714287
20
368.35084811442249
10
457.4714285714287
20
368.35084811442243
42
-0.99999999999999989
10
457.4714285714287
20
372.35084811442249
0
LWPOLYLINE
5
267
100
AcDbEntity
8
INTERIOR_PROFILES
100
AcDbPolyline
90
4
70
1
43
0.0
10
659.75714285714287
20
376.35084811442249
42
-0.99999999999999989
10
659.75714285714287
20
380.35084811442255
10
695.75714285714298
20
380.35084811442243
42
-0.99999999999999989
10
695.75714285714298
20
376.35084811442255
0
LWPOLYLINE
5
268
100
AcDbEntity
8
INTERIOR_PROFILES
100
AcDbPolyline
90
4
70
1
43
0.0
10
255.18571428571434
20
376.35084811442249
42
-0.99999999999999989
10
255.18571428571434
20
380.35084811442255
10
291.18571428571437
20
380.35084811442255
42
-0.99999999999999989
10
291.18571428571437
20
376.35084811442249
0
LWPOLYLINE
5
269
100
AcDbEntity
8
INTERIOR_PROFILES
100
AcDbPolyline
90
4
70
1
43
0.0
10
291.18571428571437
20
372.35084811442249
42
-0.99999999999999989
10
291.18571428571437
20
368.35084811442243
10
255.18571428571434
20
368.35084811442243
42
-0.99999999999999989
10
255.18571428571434
20
372.35084811442249
0
LWPOLYLINE
5
270
100
AcDbEntity
8
INTERIOR_PROFILES
100
AcDbPolyline
90
4
70
1
43
0.0
10
255.18571428571434
20
384.35084811442255
42
-0.99999999999999989
10
255.18571428571434
20
388.35084811442243
10
291.18571428571437
20
388.35084811442249
42
-0.99999999999999989
10
291.18571428571437
20
384.35084811442243
0
LWPOLYLINE
5
271
100
AcDbEntity
8
INTERIOR_PROFILES
100
AcDbPolyline
90
4
70
1
43
0.0
10
659.75714285714287
20
368.35084811442243
42
-0.99999999999999989
10
659.75714285714287
20
372.35084811442249
10
695.75714285714298
20
372.35084811442249
42
-0.99999999999999989
10
695.75714285714298
20
368.35084811442243
0
LWPOLYLINE
5
272
100
AcDbEntity
8
INTERIOR_PROFILES
100
AcDbPolyline
90
4
70
1
43
0.0
10
457.4714285714287
20
376.35084811442249
42
-0.99999999999999989
10
457.4714285714287
20
380.35084811442255
10
493.4714285714287
20
380.35084811442243
42
-0.99999999999999989
10
493.4714285714287
20
376.35084811442255
0
LWPOLYLINE
5
273
100
AcDbEntity
8
INTERIOR_PROFILES
100
AcDbPolyline
90
4
70
1
43
0.0
10
457.4714285714287
20
392.35084811442249
42
-0.99999999999999989
10
457.4714285714287
20
396.35084811442255
10
493.4714285714287
20
396.35084811442249
42
-0.99999999999999989
10
493.4714285714287
20
392.35084811442255
0
LWPOLYLINE
5
274
100
AcDbEntity
8
INTERIOR_PROFILES
100
AcDbPolyline
90
4
70
1
43
0.0
10
659.75714285714287
20
384.35084811442255
42
-0.99999999999999989
10
659.75714285714287
20
388.35084811442243
10
695.75714285714298
20
388.35084811442243
42
-0.99999999999999989
10
695.75714285714298
20
384.35084811442255
0
LWPOLYLINE
5
275
100
AcDbEntity
8
INTERIOR_PROFILES
100
AcDbPolyline
90
4
70
1
43
0.0
10
558.61428571428587
20
392.35084811442249
42
-0.99999999999999989
10
558.61428571428587
20
396.35084811442255
10
594.61428571428587
20
396.35084811442255
42
-0.99999999999999989
10
594.61428571428587
20
392.35084811442249
0
LWPOLYLINE
5
276
100
AcDbEntity
8
INTERIOR_PROFILES
100
AcDbPolyline
90
4
70
1
43
0.0
10
190.04285714285726
20
396.35084811442255
42
-0.99999999999999989
10
190.04285714285726
20
392.35084811442249
10
154.04285714285732
20
392.35084811442249
42
-0.99999999999999989
10
154.04285714285732
20
396.35084811442255
0
LWPOLYLINE
5
277
100
AcDbEntity
8
INTERIOR_PROFILES
100
AcDbPolyline
90
4
70
1
43
0.0
10
558.61428571428587
20
376.35084811442249
42
-0.99999999999999989
10
558.61428571428587
20
380.35084811442255
10
594.61428571428587
20
380.35084811442255
42
-0.99999999999999989
10
594.61428571428587
20
376.35084811442249
0
LWPOLYLINE
5
278
100
AcDbEntity
8
INTERIOR_PROFILES
100
AcDbPolyline
90
4
70
1
43
0.0
10
356.32857142857154
20
384.35084811442255
42
-0.99999999999999989
10
356.32857142857154
20
388.35084811442243
10
392.32857142857154
20
388.35084811442249
42
-0.99999999999999989
10
392.32857142857154
20
384.35084811442243
0
LWPOLYLINE
5
279
100
AcDbEntity
8
INTERIOR_PROFILES
100
AcDbPolyline
90
4
70
1
43
0.0
10
154.04285714285732
20
376.35084811442249
42
-0.99999999999999989
10
154.04285714285732
20
380.35084811442255
10
190.04285714285726
20
380.35084811442255
42
-0.99999999999999989
10
190.04285714285726
20
376.35084811442249
0
CIRCLE
5
280
100
AcDbEntity
8
INTERIOR_PROFILES
100
AcDbCircle
10
-764.47142857142865
20
187.18434158329799
30
0
40
2.3999999999999488
210
0
220
0
230
-1
0
LWPOLYLINE
5
281
100
AcDbEntity
8
INTERIOR_PROFILES
100
AcDbPolyline
90
4
70
1
43
0.0
10
356.32857142857154
20
368.35084811442243
42
-0.99999999999999989
10
356.32857142857154
20
372.35084811442249
10
392.32857142857154
20
372.35084811442249
42
-0.99999999999999989
10
392.32857142857154
20
368.35084811442243
0
CIRCLE
5
282
100
AcDbEntity
8
INTERIOR_PROFILES
100
AcDbCircle
10
-111.61428571428587
20
187.18434158329799
30
0
40
2.3999999999999488
210
0
220
0
230
-1
0
CIRCLE
5
283
100
AcDbEntity
8
INTERIOR_PROFILES
100
AcDbCircle
10
-516.18571428571443
20
187.18434158329799
30
0
40
2.4000000000000199
210
0
220
0
230
-1
0
CIRCLE
5
284
100
AcDbEntity
8
INTERIOR_PROFILES
100
AcDbCircle
10
-359.90000000000015
20
187.18434158329799
30
0
40
2.4000000000000199
210
0
220
0
230
-1
0
CIRCLE
5
285
100
AcDbEntity
8
INTERIOR_PROFILES
100
AcDbCircle
10
-157.61428571428578
20
187.18434158329799
30
0
40
2.3999999999999488
210
0
220
0
230
-1
0
CIRCLE
5
286
100
AcDbEntity
8
INTERIOR_PROFILES
100
AcDbCircle
10
-562.18571428571431
20
187.18434158329799
30
0
40
2.3999999999999488
210
0
220
0
230
-1
0
CIRCLE
5
287
100
AcDbEntity
8
INTERIOR_PROFILES
100
AcDbCircle
10
-313.90000000000015
20
187.18434158329799
30
0
40
2.4000000000000199
210
0
220
0
230
-1
0
CIRCLE
5
288
100
AcDbEntity
8
INTERIOR_PROFILES
100
AcDbCircle
10
-718.47142857142876
20
187.18434158329799
30
0
40
2.3999999999999488
210
0
220
0
230
-1
0
CIRCLE
5
289
100
AcDbEntity
8
INTERIOR_PROFILES
100
AcDbCircle
10
-121.47142857142879
20
11.971582874040223
30
0
40
1.25
210
0
220
0
230
-1
0
LWPOLYLINE
5
290
100
AcDbEntity
8
INTERIOR_PROFILES
100
AcDbPolyline
90
4
70
1
43
0.0
10
907.90000000000009
20
230.43434158329802
42
-0.99999999999999989
10
911.90000000000009
20
230.43434158329802
10
911.90000000000009
20
194.43434158329802
42
-0.99999999999999989
10
907.90000000000009
20
194.43434158329802
0
LWPOLYLINE
5
291
100
AcDbEntity
8
INTERIOR_PROFILES
100
AcDbPolyline
90
4
70
1
43
0.0
10
907.89999999999986
20
182.43434158329796
42
-0.99999999999999989
10
911.89999999999998
20
182.43434158329796
10
911.90000000000009
20
160.43434158329802
42
-0.99999999999999989
10
907.89999999999986
20
160.43434158329802
0
LWPOLYLINE
5
292
100
AcDbEntity
8
INTERIOR_PROFILES
100
AcDbPolyline
90
4
70
1
43
0.0
10
883.89999999999998
20
254.43434158329802
10
883.89999999999998
20
218.43434158329799
42
0.99999999999999989
10
887.90000000000009
20
218.43434158329799
10
887.90000000000009
20
254.43434158329802
42
0.99999999999999989
0
LWPOLYLINE
5
293
100
AcDbEntity
8
INTERIOR_PROFILES
100
AcDbPolyline
90
4
70
1
43
0.0
10
895.90000000000009
20
160.43434158329802
42
-0.99999999999999989
10
891.89999999999998
20
160.43434158329802
10
891.89999999999986
20
182.43434158329796
42
-0.99999999999999989
10
895.89999999999986
20
182.43434158329796
0
LWPOLYLINE
5
294
100
AcDbEntity
8
INTERIOR_PROFILES
100
AcDbPolyline
90
4
70
1
43
0.0
10
859.89999999999998
20
182.43434158329796
42
-0.99999999999999989
10
863.89999999999998
20
182.43434158329796
10
863.89999999999998
20
160.43434158329802
42
-0.99999999999999989
10
859.89999999999998
20
160.43434158329802
0
LWPOLYLINE
5
295
100
AcDbEntity
8
INTERIOR_PROFILES
100
AcDbPolyline
90
4
70
1
43
0.0
10
875.89999999999986
20
182.43434158329796
42
-0.99999999999999989
10
879.89999999999998
20
182.43434158329796
10
879.89999999999998
20
160.43434158329802
42
-0.99999999999999989
10
875.90000000000009
20
160.43434158329802
0
LWPOLYLINE
5
296
100
AcDbEntity
8
INTERIOR_PROFILES
100
AcDbPolyline
90
4
70
1
43
0.0
10
710.41020408163274
20
48.434341583297922
10
746.41020408163274
20
48.434341583297922
42
0.99999999999999989
10
746.41020408163274
20
52.434341583297837
10
710.41020408163251
20
52.434341583298121
42
0.99999999999999989
0
LWPOLYLINE
5
297
100
AcDbEntity
8
INTERIOR_PROFILES
100
AcDbPolyline
90
4
70
1
43
0.0
10
859.90000000000009
20
278.43434158329796
10
859.89999999999998
20
242.43434158329816
42
0.99999999999999989
10
863.89999999999998
20
242.43434158329802
10
863.89999999999986
20
278.43434158329796
42
0.99999999999999989
0
LWPOLYLINE
5
298
100
AcDbEntity
8
INTERIOR_PROFILES
100
AcDbPolyline
90
4
70
1
43
0.0
10
548.26734693877575
20
40.434341583297879
42
-0.99999999999999989
10
548.26734693877575
20
44.434341583297936
10
584.26734693877575
20
44.434341583298007
42
-0.99999999999999989
10
584.26734693877563
20
40.43434158329795
0
LWPOLYLINE
5
299
100
AcDbEntity
8
INTERIOR_PROFILES
100
AcDbPolyline
90
4
70
1
43
0.0
10
769.57346938775527
20
44.434341583297964
42
-0.99999999999999989
10
769.57346938775515
20
40.434341583297709
10
733.57346938775504
20
40.434341583297737
42
-0.99999999999999989
10
733.57346938775538
20
44.434341583297936
0
LWPOLYLINE
5
300
100
AcDbEntity
8
INTERIOR_PROFILES
100
AcDbPolyline
90
4
70
1
43
0.0
10
903.89999999999998
20
218.43434158329799
42
-0.99999999999999989
10
899.89999999999998
20
218.43434158329799
10
899.89999999999998
20
254.43434158329802
42
-0.99999999999999989
10
903.89999999999998
20
254.43434158329802
0
CIRCLE
5
301
100
AcDbEntity
8
INTERIOR_PROFILES
100
AcDbCircle
10
-873.98915911463723
20
121.43434158329796
30
0
40
1.6500000000000625
210
0
220
0
230
-1
0
CIRCLE
5
302
100
AcDbEntity
8
INTERIOR_PROFILES
100
AcDbCircle
10
-728.32857142857154
20
11.971582874040223
30
0
40
1.25
210
0
220
0
230
-1
0
LWPOLYLINE
5
303
100
AcDbEntity
8
INTERIOR_PROFILES
100
AcDbPolyline
90
4
70
1
43
0.0
10
919.89999999999998
20
170.43434158329802
42
-0.99999999999999989
10
915.89999999999986
20
170.43434158329802
10
915.89999999999986
20
203.61615976511621
42
-0.99999999999999989
10
919.89999999999998
20
203.61615976511621
0
LWPOLYLINE
5
304
100
AcDbEntity
8
INTERIOR_PROFILES
100
AcDbPolyline
90
4
70
1
43
0.0
10
871.89999999999998
20
170.43434158329802
10
871.89999999999998
20
206.43434158329802
42
0.99999999999999989
10
867.9000000000002
20
206.43434158329802
10
867.9000000000002
20
170.43434158329802
42
0.99999999999999989
0
LWPOLYLINE
5
305
100
AcDbEntity
8
INTERIOR_PROFILES
100
AcDbPolyline
90
4
70
1
43
0.0
10
887.89999999999986
20
170.43434158329802
10
887.89999999999986
20
206.43434158329802
42
0.99999999999999989
10
883.90000000000009
20
206.43434158329802
10
883.90000000000009
20
170.43434158329802
42
0.99999999999999989
0
LWPOLYLINE
5
306
100
AcDbEntity
8
INTERIOR_PROFILES
100
AcDbPolyline
90
4
70
1
43
0.0
10
891.89999999999986
20
278.43434158329796
42
-0.99999999999999989
10
895.89999999999986
20
278.43434158329796
10
895.9000000000002
20
242.43434158329802
42
-0.99999999999999989
10
891.90000000000009
20
242.43434158329802
0
LWPOLYLINE
5
307
100
AcDbEntity
8
INTERIOR_PROFILES
100
AcDbPolyline
90
4
70
1
43
0.0
10
899.89999999999998
20
206.43434158329802
42
-0.99999999999999989
10
903.89999999999998
20
206.43434158329802
10
903.89999999999998
20
170.43434158329802
42
-0.99999999999999989
10
899.90000000000009
20
170.43434158329802
0
LWPOLYLINE
5
308
100
AcDbEntity
8
INTERIOR_PROFILES
100
AcDbPolyline
90
4
70
1
43
0.0
10
561.10408163265322
20
52.434341583297979
10
525.10408163265276
20
52.434341583297908
42
0.99999999999999989
10
525.10408163265322
20
48.434341583298277
10
561.10408163265345
20
48.43434158329778
42
0.99999999999999989
0
LWPOLYLINE
5
309
100
AcDbEntity
8
INTERIOR_PROFILES
100
AcDbPolyline
90
4
70
1
43
0.0
10
859.90000000000009
20
230.43434158329802
10
859.89999999999998
20
194.43434158329813
42
0.99999999999999989
10
863.89999999999998
20
194.43434158329802
10
863.89999999999986
20
230.43434158329802
42
0.99999999999999989
0
CIRCLE
5
310
100
AcDbEntity
8
INTERIOR_PROFILES
100
AcDbCircle
10
-905.98915911463723
20
121.43434158329796
30
0
40
1.6500000000000625
210
0
220
0
230
-1
0
LWPOLYLINE
5
311
100
AcDbEntity
8
INTERIOR_PROFILES
100
AcDbPolyline
90
4
70
1
43
0.0
10
895.9000000000002
20
194.43434158329802
42
-0.99999999999999989
10
891.90000000000009
20
194.43434158329802
10
891.89999999999998
20
230.43434158329802
42
-0.99999999999999989
10
895.90000000000009
20
230.43434158329802
0
LWPOLYLINE
5
312
100
AcDbEntity
8
INTERIOR_PROFILES
100
AcDbPolyline
90
4
70
1
43
0.0
10
879.90000000000009
20
194.43434158329802
42
-0.99999999999999989
10
875.90000000000009
20
194.43434158329802
10
875.89999999999986
20
230.43434158329799
42
-0.99999999999999989
10
879.89999999999998
20
230.43434158329805
0
LWPOLYLINE
5
313
100
AcDbEntity
8
INTERIOR_PROFILES
100
AcDbPolyline
90
4
70
1
43
0.0
10
871.89999999999998
20
218.43434158329799
42
-0.99999999999999989
10
867.89999999999986
20
218.43434158329799
10
867.90000000000009
20
254.43434158329802
42
-0.99999999999999989
10
871.89999999999998
20
254.43434158329802
0
LWPOLYLINE
5
314
100
AcDbEntity
8
INTERIOR_PROFILES
100
AcDbPolyline
90
4
70
1
43
0.0
10
875.90000000000009
20
278.43434158329796
10
875.90000000000009
20
242.43434158329819
42
0.99999999999999989
10
879.90000000000009
20
242.43434158329796
10
879.89999999999986
20
278.43434158329791
42
0.99999999999999989
0
CIRCLE
5
315
100
AcDbEntity
8
INTERIOR_PROFILES
100
AcDbCircle
10
-627.18571428571431
20
11.971582874040223
30
0
40
1.25
210
0
220
0
230
-1
0
CIRCLE
5
316
100
AcDbEntity
8
INTERIOR_PROFILES
100
AcDbCircle
10
-424.90000000000009
20
11.971582874040223
30
0
40
1.25
210
0
220
0
230
-1
0
CIRCLE
5
317
100
AcDbEntity
8
INTERIOR_PROFILES
100
AcDbCircle
10
-526.0428571428572
20
11.971582874040223
30
0
40
1.25
210
0
220
0
230
-1
0
CIRCLE
5
318
100
AcDbEntity
8
INTERIOR_PROFILES
100
AcDbCircle
10
-222.61428571428593
20
11.971582874040223
30
0
40
1.25
210
0
220
0
230
-1
0
CIRCLE
5
319
100
AcDbEntity
8
INTERIOR_PROFILES
100
AcDbCircle
10
-323.75714285714304
20
11.971582874040223
30
0
40
1.25
210
0
220
0
230
-1
0
CIRCLE
5
320
100
AcDbEntity
8
INTERIOR_PROFILES
100
AcDbCircle
10
-829.47142857142865
20
11.971582874040223
30
0
40
1.25
210
0
220
0
230
-1
0
CIRCLE
5
321
100
AcDbEntity
8
INTERIOR_PROFILES
100
AcDbCircle
10
-20.328571428571536
20
11.971582874040223
30
0
40
1.25
210
0
220
0
230
-1
0
LWPOLYLINE
5
322
100
AcDbEntity
8
INTERIOR_PROFILES
100
AcDbPolyline
90
4
70
1
43
0.0
10
700.08367346938803
20
84.434341583297936
10
664.08367346938792
20
84.434341583297936
42
0.99999999999999989
10
664.08367346938792
20
80.434341583297879
10
700.08367346938803
20
80.434341583298021
42
0.99999999999999989
0
LWPOLYLINE
5
323
100
AcDbEntity
8
INTERIOR_PROFILES
100
AcDbPolyline
90
4
70
1
43
0.0
10
779.90000000000009
20
72.434341583297908
10
815.89999999999986
20
72.434341583297908
42
0.99999999999999989
10
815.9000000000002
20
76.434341583298107
10
779.90000000000009
20
76.434341583297822
42
0.99999999999999989
0
LWPOLYLINE
5
324
100
AcDbEntity
8
INTERIOR_PROFILES
100
AcDbPolyline
90
4
70
1
43
0.0
10
594.59387755102057
20
72.434341583297837
42
-0.99999999999999989
10
594.59387755102057
20
76.434341583297893
10
630.59387755102057
20
76.434341583298107
42
-0.99999999999999989
10
630.59387755102057
20
72.434341583297908
0
LWPOLYLINE
5
325
100
AcDbEntity
8
INTERIOR_PROFILES
100
AcDbPolyline
90
4
70
1
43
0.0
10
607.43061224489804
20
84.434341583298007
42
-0.99999999999999989
10
607.43061224489804
20
80.43434158329795
10
571.43061224489816
20
80.43434158329795
42
-0.99999999999999989
10
571.43061224489816
20
84.434341583297936
0
LWPOLYLINE
5
326
100
AcDbEntity
8
INTERIOR_PROFILES
100
AcDbPolyline
90
4
70
1
43
0.0
10
514.77755102040828
20
84.434341583297936
10
478.77755102040862
20
84.434341583297936
42
0.99999999999999989
10
478.7775510204084
20
80.434341583297595
10
514.77755102040828
20
80.434341583298021
42
0.99999999999999989
0
LWPOLYLINE
5
327
100
AcDbEntity
8
INTERIOR_PROFILES
100
AcDbPolyline
90
4
70
1
43
0.0
10
723.24693877551022
20
76.434341583297893
10
687.24693877551033
20
76.434341583297893
42
0.99999999999999989
10
687.24693877551033
20
72.434341583297979
10
723.24693877551022
20
72.434341583298121
42
0.99999999999999989
0
LWPOLYLINE
5
328
100
AcDbEntity
8
INTERIOR_PROFILES
100
AcDbPolyline
90
4
70
1
43
0.0
10
746.41020408163274
20
68.434341583297709
42
-0.99999999999999989
10
746.41020408163274
20
64.434341583297936
10
710.41020408163274
20
64.434341583298007
42
-0.99999999999999989
10
710.41020408163274
20
68.434341583297922
0
LWPOLYLINE
5
329
100
AcDbEntity
8
INTERIOR_PROFILES
100
AcDbPolyline
90
4
70
1
43
0.0
10
584.26734693877563
20
92.434341583297979
10
548.2673469387754
20
92.434341583297908
42
0.99999999999999989
10
548.26734693877575
20
88.434341583298277
10
584.26734693877575
20
88.434341583297922
42
0.99999999999999989
0
LWPOLYLINE
5
330
100
AcDbEntity
8
INTERIOR_PROFILES
100
AcDbPolyline
90
4
70
1
43
0.0
10
514.77755102040828
20
68.434341583297922
42
-0.99999999999999989
10
514.77755102040828
20
64.434341583298291
10
478.77755102040828
20
64.434341583297723
42
-0.99999999999999989
10
478.77755102040828
20
68.434341583297922
0
LWPOLYLINE
5
331
100
AcDbEntity
8
INTERIOR_PROFILES
100
AcDbPolyline
90
4
70
1
43
0.0
10
525.10408163265322
20
64.434341583297723
42
-0.99999999999999989
10
525.10408163265322
20
68.434341583297922
10
561.10408163265322
20
68.434341583297567
42
-0.99999999999999989
10
561.10408163265322
20
64.434341583297936
0
LWPOLYLINE
5
332
100
AcDbEntity
8
INTERIOR_PROFILES
100
AcDbPolyline
90
4
70
1
43
0.0
10
501.94081632653081
20
56.434341583297893
10
537.94081632653069
20
56.434341583297893
42
0.99999999999999989
10
537.94081632653081
20
60.43434158329795
10
501.94081632653081
20
60.434341583297808
42
0.99999999999999989
0
LWPOLYLINE
5
333
100
AcDbEntity
8
INTERIOR_PROFILES
100
AcDbPolyline
90
4
70
1
43
0.0
10
687.24693877551033
20
56.434341583297822
10
723.24693877551022
20
56.434341583297893
42
0.99999999999999989
10
723.24693877551022
20
60.434341583297808
10
687.24693877551033
20
60.434341583297879
42
0.99999999999999989
0
LWPOLYLINE
5
334
100
AcDbEntity
8
INTERIOR_PROFILES
100
AcDbPolyline
90
4
70
1
43
0.0
10
700.08367346938803
20
68.434341583297851
10
664.0836734693878
20
68.434341583297922
42
0.99999999999999989
10
664.0836734693878
20
64.434341583298007
10
700.08367346938769
20
64.434341583297936
42
0.99999999999999989
0
LWPOLYLINE
5
335
100
AcDbEntity
8
INTERIOR_PROFILES
100
AcDbPolyline
90
4
70
1
43
0.0
10
584.26734693877563
20
60.43434158329795
42
-0.99999999999999989
10
584.26734693877563
20
56.434341583297893
10
548.26734693877575
20
56.434341583298036
42
-0.99999999999999989
10
548.26734693877575
20
60.43434158329795
0
LWPOLYLINE
5
336
100
AcDbEntity
8
INTERIOR_PROFILES
100
AcDbPolyline
90
4
70
1
43
0.0
10
733.57346938775527
20
56.434341583298036
42
-0.99999999999999989
10
733.57346938775527
20
60.43434158329795
10
769.57346938775515
20
60.43434158329795
42
-0.99999999999999989
10
769.57346938775515
20
56.434341583297893
0
LWPOLYLINE
5
337
100
AcDbEntity
8
INTERIOR_PROFILES
100
AcDbPolyline
90
4
70
1
43
0.0
10
792.73673469387757
20
52.434341583297837
42
-0.99999999999999989
10
792.73673469387757
20
48.434341583297922
10
756.73673469387768
20
48.434341583298135
42
-0.99999999999999989
10
756.73673469387768
20
52.434341583297908
0
LWPOLYLINE
5
338
100
AcDbEntity
8
INTERIOR_PROFILES
100
AcDbPolyline
90
4
70
1
43
0.0
10
501.94081632653081
20
72.434341583297908
10
537.94081632653047
20
72.434341583297908
42
0.99999999999999989
10
537.94081632653069
20
76.434341583298107
10
501.94081632653081
20
76.434341583297822
42
0.99999999999999989
0
LWPOLYLINE
5
339
100
AcDbEntity
8
INTERIOR_PROFILES
100
AcDbPolyline
90
4
70
1
43
0.0
10
640.92040816326539
20
88.434341583298135
42
-0.99999999999999989
10
640.92040816326539
20
92.434341583297908
10
676.92040816326539
20
92.434341583297936
42
-0.99999999999999989
10
676.92040816326539
20
88.434341583297922
0
LWPOLYLINE
5
340
100
AcDbEntity
8
INTERIOR_PROFILES
100
AcDbPolyline
90
4
70
1
43
0.0
10
491.61428571428587
20
92.434341583297908
10
455.61428571428593
20
92.434341583297766
42
0.99999999999999989
10
455.61428571428593
20
88.434341583297993
10
491.61428571428587
20
88.434341583297993
42
0.99999999999999989
0
LWPOLYLINE
5
341
100
AcDbEntity
8
INTERIOR_PROFILES
100
AcDbPolyline
90
4
70
1
43
0.0
10
733.57346938775527
20
88.434341583298135
42
-0.99999999999999989
10
733.57346938775527
20
92.434341583297908
10
769.57346938775515
20
92.434341583297979
42
-0.99999999999999989
10
769.57346938775515
20
88.434341583297922
0
LWPOLYLINE
5
342
100
AcDbEntity
8
INTERIOR_PROFILES
100
AcDbPolyline
90
4
70
1
43
0.0
10
815.90000000000009
20
68.434341583297709
42
-0.99999999999999989
10
815.90000000000009
20
64.434341583297936
10
803.0632653061225
20
64.434341583297865
42
-0.99999999999999989
10
803.0632653061225
20
68.434341583297922
0
LWPOLYLINE
5
343
100
AcDbEntity
8
INTERIOR_PROFILES
100
AcDbPolyline
90
4
70
1
43
0.0
10
756.73673469387745
20
80.434341583297737
42
-0.99999999999999989
10
756.73673469387779
20
84.434341583297936
10
792.73673469387757
20
84.434341583298007
42
-0.99999999999999989
10
792.73673469387768
20
80.43434158329795
0
ENDSEC
0
SECTION
2
OBJECTS
0
DICTIONARY
5
C
100
AcDbDictionary
3
ACAD_GROUP
350
D
3
ACAD_MLINESTYLE
350
17
0
DICTIONARY
5
D
100
AcDbDictionary
0
DICTIONARY
5
1A
330
C
100
AcDbDictionary
0
DICTIONARY
5
17
100
AcDbDictionary
0
ENDSEC
0
EOF
