0
SECTION
2
HEADER
9
$INSUNITS
70
4
9
$ACADVER
1
AC1014
9
$HANDSEED
5
FFFF
0
ENDSEC
0
SECTION
2
TABLES
0
TABLE
2
VPORT
5
8
100
AcDbSymbolTable
0
ENDTAB
0
TABLE
2
LTYPE
5
5
100
AcDbSymbolTable
0
LTYPE
5
14
100
AcDbSymbolTableRecord
100
AcDbLinetypeTableRecord
2
BYBLOCK
70
0
0
LTYPE
5
15
100
AcDbSymbolTableRecord
100
AcDbLinetypeTableRecord
2
BYLAYER
70
0
0
LTYPE
5
16
100
AcDbSymbolTableRecord
100
AcDbLinetypeTableRecord
2
DASHED
70
0
3
Dashed __ __ __ __ __ __ __ __ __ __ __ __ __ _
72
65
73
2
40
0.75
49
0.5
74
0
49
-0.25
74
0
0
ENDTAB
0
TABLE
2
LAYER
5
2
100
AcDbSymbolTable
70
2
0
LAYER
5
50
100
AcDbSymbolTableRecord
100
AcDbLayerTableRecord
2
0
70
0
62
7
6
CONTINUOUS
0
ENDTAB
0
TABLE
2
STYLE
5
3
100
AcDbSymbolTable
70
1
0
STYLE
5
11
100
AcDbSymbolTableRecord
100
AcDbTextStyleTableRecord
2
STANDARD
70
0
0
ENDTAB
0
TABLE
2
VIEW
5
6
100
AcDbSymbolTable
70
0
0
ENDTAB
0
TABLE
2
UCS
5
7
100
AcDbSymbolTable
70
0
0
ENDTAB
0
TABLE
2
APPID
5
9
100
AcDbSymbolTable
70
2
0
APPID
5
12
100
AcDbSymbolTableRecord
100
AcDbRegAppTableRecord
2
ACAD
70
0
0
ENDTAB
0
TABLE
2
DIMSTYLE
5
A
100
AcDbSymbolTable
70
1
0
ENDTAB
0
TABLE
2
BLOCK_RECORD
5
1
100
AcDbSymbolTable
70
1
0
BLOCK_RECORD
5
1F
100
AcDbSymbolTableRecord
100
AcDbBlockTableRecord
2
*MODEL_SPACE
0
BLOCK_RECORD
5
1B
100
AcDbSymbolTableRecord
100
AcDbBlockTableRecord
2
*PAPER_SPACE
0
ENDTAB
0
ENDSEC
0
SECTION
2
BLOCKS
0
BLOCK
5
20
100
AcDbEntity
100
AcDbBlockBegin
2
*MODEL_SPACE
0
ENDBLK
5
21
100
AcDbEntity
100
AcDbBlockEnd
0
BLOCK
5
1C
100
AcDbEntity
100
AcDbBlockBegin
2
*PAPER_SPACE
0
ENDBLK
5
1D
100
AcDbEntity
100
AcDbBlockEnd
0
ENDSEC
0
SECTION
2
ENTITIES
0
LWPOLYLINE
5
100
100
AcDbEntity
8
OUTER_PROFILES
100
AcDbPolyline
90
39
70
1
43
0.0
10
849.79999999999654
20
108.79758220860822
42
-3.9608097209499333
10
851.14701936255631
20
111.57350069793524
10
931.44606709169489
20
111.5735006979353
42
0.29410761505734662
10
933.26680004662012
20
112.74589480933294
10
943.65846361614103
20
135.60755466227903
10
945.20608662782752
20
134.90408965696696
10
945.35665377610951
20
135.23533738318764
42
0.16260144785335459
10
945.46874526663964
20
136.30669880208922
10
944.97950408270276
20
138.51384368871442
10
945.18605819769323
20
138.96826274169348
10
858.93379853271813
20
528.08357054845612
42
0.35167384246301631
10
856.00489058763003
20
530.43434158329808
10
851.1500000000002
20
530.43434158329808
42
-2.3375295075196583
10
847.75000000000023
20
533.68087819944765
10
847.75000000000023
20
538.61828054153921
10
2.0500000000004093
20
538.61828054153921
10
2.0500000000004097
20
533.68087819944765
42
-2.3375295075195521
10
-1.3499999999997585
20
530.43434158329796
10
-6.2048905876294214
20
530.43434158329808
42
0.35167384246301991
10
-9.1337985327173499
20
528.08357054845612
10
-95.386058197692449
20
138.96826274169348
10
-95.17950408270238
20
138.51384368871442
10
-95.668745266639235
20
136.30669880208922
42
0.1626014478534315
10
-95.556653776109073
20
135.2353373831877
10
-95.406086627827023
20
134.90408965696696
10
-93.85846361614071
20
135.60755466227903
10
-83.466800046619767
20
112.74589480933294
42
0.29410761505729943
10
-81.646067091694476
20
111.57350069793537
10
-1.3470193625552751
20
111.57350069794454
42
-3.9608097209441162
10
3.5527136788005009e-13
20
108.7975822086112
10
2.8421709430404007e-13
20
24.867512711551996
10
2.8421709430404007e-13
20
24.81258769826276
10
2.8421709430404007e-13
20
-7.1054273576010019e-14
10
1.9891565724657312
20
-7.1054273576010019e-14
10
847.8108434275332
20
-7.1054273576010019e-14
10
849.80000000000018
20
-7.1054273576010019e-14
10
849.80000000000018
20
24.812587819188607
10
849.80000000000018
20
24.867512711551996
10
849.80000000000018
20
27.911001719552004
0
CIRCLE
5
101
100
AcDbEntity
8
INTERIOR_PROFILES
100
AcDbCircle
10
-453.28392857142882
20
251.7803811291738
30
0
40
1.7999999999999972
210
0
220
0
230
-1
0
LWPOLYLINE
5
102
100
AcDbEntity
8
INTERIOR_PROFILES
100
AcDbPolyline
90
4
70
1
43
0.0
10
-26.099999999999639
20
242.43434158329808
42
-0.99999999999999989
10
-30.099999999999554
20
242.43434158329808
10
-30.099999999999767
20
278.43434158329808
42
-0.99999999999999989
10
-26.09999999999971
20
278.43434158329808
0
CIRCLE
5
103
100
AcDbEntity
8
INTERIOR_PROFILES
100
AcDbCircle
10
-699.94464285714321
20
512.92131509967135
30
0
40
1.8000000000000682
210
0
220
0
230
-1
0
CIRCLE
5
104
100
AcDbEntity
8
INTERIOR_PROFILES
100
AcDbCircle
10
-131.54285714285749
20
381.43740460345623
30
0
40
2.3000000000000398
210
0
220
0
230
-1
0
CIRCLE
5
105
100
AcDbEntity
8
INTERIOR_PROFILES
100
AcDbCircle
10
-726.10000000000025
20
137.63434158329807
30
0
40
1.25
210
0
220
0
230
-1
0
LWPOLYLINE
5
106
100
AcDbEntity
8
INTERIOR_PROFILES
100
AcDbPolyline
90
4
70
1
43
0.0
10
-18.099999999999596
20
218.43434158329808
42
-0.99999999999999989
10
-22.099999999999653
20
218.43434158329808
10
-22.099999999999511
20
254.43434158329808
42
-0.99999999999999989
10
-18.099999999999739
20
254.43434158329808
0
CIRCLE
5
107
100
AcDbEntity
8
INTERIOR_PROFILES
100
AcDbCircle
10
-630.10000000000014
20
250.93434158329808
30
0
40
1.25
210
0
220
0
230
-1
0
CIRCLE
5
108
100
AcDbEntity
8
INTERIOR_PROFILES
100
AcDbCircle
10
-630.10000000000014
20
170.93434158329808
30
0
40
1.25
210
0
220
0
230
-1
0
CIRCLE
5
109
100
AcDbEntity
8
INTERIOR_PROFILES
100
AcDbCircle
10
-822.10000000000025
20
170.93434158329808
30
0
40
1.25
210
0
220
0
230
-1
0
CIRCLE
5
110
100
AcDbEntity
8
INTERIOR_PROFILES
100
AcDbCircle
10
-756.71250000000009
20
415.55131509967134
30
0
40
1.8000000000000682
210
0
220
0
230
-1
0
CIRCLE
5
111
100
AcDbEntity
8
INTERIOR_PROFILES
100
AcDbCircle
10
-598.80178571428598
20
415.55131509967134
30
0
40
1.7999999999999972
210
0
220
0
230
-1
0
CIRCLE
5
112
100
AcDbEntity
8
INTERIOR_PROFILES
100
AcDbCircle
10
-232.68571428571454
20
381.43740460345623
30
0
40
2.2999999999999687
210
0
220
0
230
-1
0
LWPOLYLINE
5
113
100
AcDbEntity
8
INTERIOR_PROFILES
100
AcDbPolyline
90
4
70
1
43
0.0
10
-10.099999999999838
20
194.43434158329808
42
-0.99999999999999989
10
-14.099999999999753
20
194.43434158329808
10
-14.099999999999824
20
230.43434158329808
42
-0.99999999999999989
10
-10.099999999999767
20
230.43434158329808
0
CIRCLE
5
114
100
AcDbEntity
8
INTERIOR_PROFILES
100
AcDbCircle
10
-250.99821428571454
20
512.92131509967135
30
0
40
1.7999999999999972
210
0
220
0
230
-1
0
CIRCLE
5
115
100
AcDbEntity
8
INTERIOR_PROFILES
100
AcDbCircle
10
-332.65000000000032
20
211.68434158329808
30
0
40
1.7999999999999972
210
0
220
0
230
-1
0
CIRCLE
5
116
100
AcDbEntity
8
INTERIOR_PROFILES
100
AcDbCircle
10
-173.90000000000029
20
277.68434158329808
30
0
40
1.8000000000000682
210
0
220
0
230
-1
0
CIRCLE
5
117
100
AcDbEntity
8
INTERIOR_PROFILES
100
AcDbCircle
10
-655.56964285714321
20
512.92131509967135
30
0
40
1.8000000000000682
210
0
220
0
230
-1
0
CIRCLE
5
118
100
AcDbEntity
8
INTERIOR_PROFILES
100
AcDbCircle
10
-367.90000000000026
20
325.43434158329808
30
0
40
1.25
210
0
220
0
230
-1
0
CIRCLE
5
119
100
AcDbEntity
8
INTERIOR_PROFILES
100
AcDbCircle
10
-699.94464285714321
20
415.55131509967134
30
0
40
1.8000000000000682
210
0
220
0
230
-1
0
CIRCLE
5
120
100
AcDbEntity
8
INTERIOR_PROFILES
100
AcDbCircle
10
-726.10000000000025
20
284.33434158329811
30
0
40
1.25
210
0
220
0
230
-1
0
CIRCLE
5
121
100
AcDbEntity
8
INTERIOR_PROFILES
100
AcDbCircle
10
-822.10000000000025
20
250.93434158329808
30
0
40
1.25
210
0
220
0
230
-1
0
CIRCLE
5
122
100
AcDbEntity
8
INTERIOR_PROFILES
100
AcDbCircle
10
-82.900000000000347
20
325.43434158329808
30
0
40
1.25
210
0
220
0
230
-1
0
CIRCLE
5
123
100
AcDbEntity
8
INTERIOR_PROFILES
100
AcDbCircle
10
-554.42678571428598
20
251.7803811291738
30
0
40
1.7999999999999972
210
0
220
0
230
-1
0
CIRCLE
5
124
100
AcDbEntity
8
INTERIOR_PROFILES
100
AcDbCircle
10
-497.65892857142882
20
251.7803811291738
30
0
40
1.7999999999999972
210
0
220
0
230
-1
0
CIRCLE
5
125
100
AcDbEntity
8
INTERIOR_PROFILES
100
AcDbCircle
10
-554.42678571428598
20
512.92131509967135
30
0
40
1.7999999999999972
210
0
220
0
230
-1
0
CIRCLE
5
126
100
AcDbEntity
8
INTERIOR_PROFILES
100
AcDbCircle
10
-108.90000000000029
20
294.43434158329808
30
0
40
1.25
210
0
220
0
230
-1
0
CIRCLE
5
127
100
AcDbEntity
8
INTERIOR_PROFILES
100
AcDbCircle
10
-448.80000000000024
20
162.93434158329808
30
0
40
2.2999999999999687
210
0
220
0
230
-1
0
CIRCLE
5
128
100
AcDbEntity
8
INTERIOR_PROFILES
100
AcDbCircle
10
-393.9000000000002
20
294.43434158329808
30
0
40
1.25
210
0
220
0
230
-1
0
CIRCLE
5
129
100
AcDbEntity
8
INTERIOR_PROFILES
100
AcDbCircle
10
-427.00000000000023
20
162.93434158329808
30
0
40
2.2999999999999687
210
0
220
0
230
-1
0
CIRCLE
5
130
100
AcDbEntity
8
INTERIOR_PROFILES
100
AcDbCircle
10
-243.15000000000032
20
301.18434158329808
30
0
40
1.7999999999999972
210
0
220
0
230
-1
0
CIRCLE
5
131
100
AcDbEntity
8
INTERIOR_PROFILES
100
AcDbCircle
10
-367.90000000000026
20
203.43434158329808
30
0
40
1.25
210
0
220
0
230
-1
0
CIRCLE
5
132
100
AcDbEntity
8
INTERIOR_PROFILES
100
AcDbCircle
10
-497.65892857142882
20
349.15038112917381
30
0
40
1.7999999999999972
210
0
220
0
230
-1
0
CIRCLE
5
133
100
AcDbEntity
8
INTERIOR_PROFILES
100
AcDbCircle
10
-453.28392857142882
20
349.15038112917381
30
0
40
1.7999999999999972
210
0
220
0
230
-1
0
LWPOLYLINE
5
134
100
AcDbEntity
8
INTERIOR_PROFILES
100
AcDbPolyline
90
4
70
1
43
0.0
10
-58.099999999999596
20
194.43434158329808
10
-58.099999999999739
20
230.43434158329831
42
0.99999999999999989
10
-62.099999999999511
20
230.43434158329808
10
-62.099999999999653
20
194.43434158329808
42
0.99999999999999989
0
LWPOLYLINE
5
135
100
AcDbEntity
8
INTERIOR_PROFILES
100
AcDbPolyline
90
4
70
1
43
0.0
10
-54.09999999999954
20
254.43434158329808
10
-54.099999999999682
20
218.43434158329785
42
0.99999999999999989
10
-50.099999999999909
20
218.43434158329808
10
-50.100000000000051
20
254.43434158329808
42
0.99999999999999989
0
LWPOLYLINE
5
136
100
AcDbEntity
8
INTERIOR_PROFILES
100
AcDbPolyline
90
4
70
1
43
0.0
10
-46.09999999999971
20
230.43434158329808
42
-0.99999999999999989
10
-42.099999999999653
20
230.43434158329808
10
-42.099999999999653
20
194.43434158329808
42
-0.99999999999999989
10
-46.09999999999971
20
194.43434158329808
0
LWPOLYLINE
5
137
100
AcDbEntity
8
INTERIOR_PROFILES
100
AcDbPolyline
90
4
70
1
43
0.0
10
-34.099999999999682
20
170.43434158329808
42
-0.99999999999999989
10
-38.099999999999739
20
170.43434158329808
10
-38.099999999999454
20
206.43434158329811
42
-0.99999999999999989
10
-34.099999999999682
20
206.43434158329811
0
LWPOLYLINE
5
138
100
AcDbEntity
8
INTERIOR_PROFILES
100
AcDbPolyline
90
4
70
1
43
0.0
10
-30.099999999999767
20
182.43434158329805
10
-30.099999999999767
20
160.43434158329779
42
0.99999999999999989
10
-26.099999999999994
20
160.43434158329808
10
-26.09999999999971
20
182.43434158329805
42
0.99999999999999989
0
CIRCLE
5
139
100
AcDbEntity
8
INTERIOR_PROFILES
100
AcDbCircle
10
-598.80178571428598
20
251.7803811291738
30
0
40
1.7999999999999972
210
0
220
0
230
-1
0
CIRCLE
5
140
100
AcDbEntity
8
INTERIOR_PROFILES
100
AcDbCircle
10
-48.712500000000318
20
415.55131509967134
30
0
40
1.8000000000000682
210
0
220
0
230
-1
0
CIRCLE
5
141
100
AcDbEntity
8
INTERIOR_PROFILES
100
AcDbCircle
10
-93.087500000000318
20
415.55131509967134
30
0
40
1.8000000000000682
210
0
220
0
230
-1
0
CIRCLE
5
142
100
AcDbEntity
8
INTERIOR_PROFILES
100
AcDbCircle
10
-149.85535714285746
20
512.92131509967135
30
0
40
1.8000000000000682
210
0
220
0
230
-1
0
CIRCLE
5
143
100
AcDbEntity
8
INTERIOR_PROFILES
100
AcDbCircle
10
-250.99821428571454
20
415.55131509967134
30
0
40
1.7999999999999972
210
0
220
0
230
-1
0
CIRCLE
5
144
100
AcDbEntity
8
INTERIOR_PROFILES
100
AcDbCircle
10
-194.23035714285746
20
512.92131509967135
30
0
40
1.8000000000000682
210
0
220
0
230
-1
0
CIRCLE
5
145
100
AcDbEntity
8
INTERIOR_PROFILES
100
AcDbCircle
10
-295.37321428571454
20
512.92131509967135
30
0
40
1.7999999999999972
210
0
220
0
230
-1
0
CIRCLE
5
146
100
AcDbEntity
8
INTERIOR_PROFILES
100
AcDbCircle
10
-453.28392857142882
20
512.92131509967135
30
0
40
1.7999999999999972
210
0
220
0
230
-1
0
CIRCLE
5
147
100
AcDbEntity
8
INTERIOR_PROFILES
100
AcDbCircle
10
-352.14107142857176
20
415.55131509967134
30
0
40
1.7999999999999972
210
0
220
0
230
-1
0
CIRCLE
5
148
100
AcDbEntity
8
INTERIOR_PROFILES
100
AcDbCircle
10
-396.51607142857165
20
415.55131509967134
30
0
40
1.7999999999999972
210
0
220
0
230
-1
0
CIRCLE
5
149
100
AcDbEntity
8
INTERIOR_PROFILES
100
AcDbCircle
10
-453.28392857142882
20
415.55131509967134
30
0
40
1.7999999999999972
210
0
220
0
230
-1
0
CIRCLE
5
150
100
AcDbEntity
8
INTERIOR_PROFILES
100
AcDbCircle
10
-295.37321428571454
20
415.55131509967134
30
0
40
1.7999999999999972
210
0
220
0
230
-1
0
CIRCLE
5
151
100
AcDbEntity
8
INTERIOR_PROFILES
100
AcDbCircle
10
-396.51607142857165
20
512.92131509967135
30
0
40
1.7999999999999972
210
0
220
0
230
-1
0
CIRCLE
5
152
100
AcDbEntity
8
INTERIOR_PROFILES
100
AcDbCircle
10
-352.14107142857176
20
512.92131509967135
30
0
40
1.7999999999999972
210
0
220
0
230
-1
0
CIRCLE
5
153
100
AcDbEntity
8
INTERIOR_PROFILES
100
AcDbCircle
10
-194.23035714285746
20
415.55131509967134
30
0
40
1.8000000000000682
210
0
220
0
230
-1
0
CIRCLE
5
154
100
AcDbEntity
8
INTERIOR_PROFILES
100
AcDbCircle
10
-149.85535714285746
20
415.55131509967134
30
0
40
1.8000000000000682
210
0
220
0
230
-1
0
CIRCLE
5
155
100
AcDbEntity
8
INTERIOR_PROFILES
100
AcDbCircle
10
-554.42678571428598
20
349.15038112917381
30
0
40
1.7999999999999972
210
0
220
0
230
-1
0
CIRCLE
5
156
100
AcDbEntity
8
INTERIOR_PROFILES
100
AcDbCircle
10
-82.900000000000347
20
203.43434158329808
30
0
40
1.25
210
0
220
0
230
-1
0
CIRCLE
5
157
100
AcDbEntity
8
INTERIOR_PROFILES
100
AcDbCircle
10
-801.08750000000009
20
415.55131509967134
30
0
40
1.8000000000000682
210
0
220
0
230
-1
0
CIRCLE
5
158
100
AcDbEntity
8
INTERIOR_PROFILES
100
AcDbCircle
10
-497.65892857142882
20
415.55131509967134
30
0
40
1.7999999999999972
210
0
220
0
230
-1
0
CIRCLE
5
159
100
AcDbEntity
8
INTERIOR_PROFILES
100
AcDbCircle
10
-393.9000000000002
20
234.43434158329808
30
0
40
1.25
210
0
220
0
230
-1
0
CIRCLE
5
160
100
AcDbEntity
8
INTERIOR_PROFILES
100
AcDbCircle
10
-173.90000000000029
20
219.68434158329808
30
0
40
1.8000000000000682
210
0
220
0
230
-1
0
CIRCLE
5
161
100
AcDbEntity
8
INTERIOR_PROFILES
100
AcDbCircle
10
-93.087500000000318
20
512.92131509967135
30
0
40
1.8000000000000682
210
0
220
0
230
-1
0
CIRCLE
5
162
100
AcDbEntity
8
INTERIOR_PROFILES
100
AcDbCircle
10
-48.712500000000318
20
512.92131509967135
30
0
40
1.8000000000000682
210
0
220
0
230
-1
0
CIRCLE
5
163
100
AcDbEntity
8
INTERIOR_PROFILES
100
AcDbCircle
10
-502.70000000000027
20
162.93434158329808
30
0
40
2.2999999999999687
210
0
220
0
230
-1
0
CIRCLE
5
164
100
AcDbEntity
8
INTERIOR_PROFILES
100
AcDbCircle
10
-554.42678571428598
20
415.55131509967134
30
0
40
1.7999999999999972
210
0
220
0
230
-1
0
LWPOLYLINE
5
165
100
AcDbEntity
8
INTERIOR_PROFILES
100
AcDbPolyline
90
8
70
1
43
0.0
10
39.614285714286126
20
43.434341583298064
10
405.6142857142861
20
43.434341583297993
42
0.41421356237306728
10
408.61428571428604
20
46.434341583297964
10
408.6142857142861
20
86.434341583297964
42
0.41421356237312973
10
405.6142857142861
20
89.434341583297936
10
39.614285714286126
20
89.434341583298007
42
0.4142135623730534
10
36.614285714285941
20
86.434341583297964
10
36.614285714286012
20
46.434341583297964
42
0.41421356237310197
0
CIRCLE
5
166
100
AcDbEntity
8
INTERIOR_PROFILES
100
AcDbCircle
10
-212.54285714285743
20
381.43740460345623
30
0
40
2.2999999999999687
210
0
220
0
230
-1
0
CIRCLE
5
167
100
AcDbEntity
8
INTERIOR_PROFILES
100
AcDbCircle
10
-598.80178571428598
20
349.15038112917381
30
0
40
1.7999999999999972
210
0
220
0
230
-1
0
CIRCLE
5
168
100
AcDbEntity
8
INTERIOR_PROFILES
100
AcDbCircle
10
-655.56964285714321
20
415.55131509967134
30
0
40
1.8000000000000682
210
0
220
0
230
-1
0
LWPOLYLINE
5
169
100
AcDbEntity
8
INTERIOR_PROFILES
100
AcDbPolyline
90
4
70
1
43
0.0
10
-70.099999999999483
20
203.61615976511629
42
-0.99999999999999989
10
-66.09999999999971
20
203.61615976511629
10
-66.099999999999781
20
170.43434158329808
42
-0.99999999999999989
10
-70.099999999999767
20
170.43434158329808
0
LWPOLYLINE
5
170
100
AcDbEntity
8
INTERIOR_PROFILES
100
AcDbPolyline
90
4
70
1
43
0.0
10
-58.099999999999596
20
160.43434158329808
42
-0.99999999999999989
10
-62.099999999999653
20
160.43434158329808
10
-62.099999999999582
20
182.43434158329805
42
-0.99999999999999989
10
-58.099999999999739
20
182.43434158329805
0
LWPOLYLINE
5
171
100
AcDbEntity
8
INTERIOR_PROFILES
100
AcDbPolyline
90
4
70
1
43
0.0
10
-54.099999999999682
20
206.43434158329811
10
-54.099999999999682
20
170.43434158329796
42
0.99999999999999989
10
-50.099999999999625
20
170.43434158329808
10
-50.099999999999625
20
206.43434158329825
42
0.99999999999999989
0
LWPOLYLINE
5
172
100
AcDbEntity
8
INTERIOR_PROFILES
100
AcDbPolyline
90
4
70
1
43
0.0
10
-46.09999999999971
20
182.43434158329805
42
-0.99999999999999989
10
-42.099999999999653
20
182.43434158329805
10
-42.099999999999724
20
160.43434158329808
42
-0.99999999999999989
10
-46.09999999999971
20
160.43434158329808
0
LWPOLYLINE
5
173
100
AcDbEntity
8
INTERIOR_PROFILES
100
AcDbPolyline
90
4
70
1
43
0.0
10
-42.099999999999653
20
242.43434158329808
42
-0.99999999999999989
10
-46.09999999999971
20
242.43434158329808
10
-46.09999999999971
20
278.43434158329808
42
-0.99999999999999989
10
-42.099999999999653
20
278.43434158329808
0
LWPOLYLINE
5
174
100
AcDbEntity
8
INTERIOR_PROFILES
100
AcDbPolyline
90
4
70
1
43
0.0
10
-34.099999999999966
20
218.43434158329808
42
-0.99999999999999989
10
-38.099999999999739
20
218.43434158329808
10
-38.099999999999454
20
254.43434158329808
42
-0.99999999999999989
10
-34.099999999999682
20
254.43434158329808
0
LWPOLYLINE
5
175
100
AcDbEntity
8
INTERIOR_PROFILES
100
AcDbPolyline
90
4
70
1
43
0.0
10
-26.09999999999971
20
194.43434158329808
10
-26.09999999999971
20
230.43434158329816
42
0.99999999999999989
10
-30.099999999999767
20
230.43434158329808
10
-30.099999999999767
20
194.43434158329808
42
0.99999999999999989
0
LWPOLYLINE
5
176
100
AcDbEntity
8
INTERIOR_PROFILES
100
AcDbPolyline
90
4
70
1
43
0.0
10
-22.099999999999653
20
206.43434158329811
10
-22.099999999999653
20
170.43434158329796
42
0.99999999999999989
10
-18.099999999999596
20
170.43434158329808
10
-18.099999999999596
20
206.43434158329811
42
0.99999999999999989
0
LWPOLYLINE
5
177
100
AcDbEntity
8
INTERIOR_PROFILES
100
AcDbPolyline
90
4
70
1
43
0.0
10
-10.099999999999767
20
160.43434158329808
10
-10.099999999999767
20
182.43434158329805
42
0.99999999999999989
10
-14.099999999999824
20
182.43434158329805
10
-14.09999999999954
20
160.43434158329796
42
0.99999999999999989
0
LWPOLYLINE
5
178
100
AcDbEntity
8
INTERIOR_PROFILES
100
AcDbPolyline
90
4
70
1
43
0.0
10
-10.099999999999909
20
242.43434158329808
42
-0.99999999999999989
10
-14.099999999999682
20
242.43434158329808
10
-14.099999999999859
20
278.43434158329808
42
-0.99999999999999989
10
-10.099999999999767
20
278.43434158329808
0
CIRCLE
5
179
100
AcDbEntity
8
INTERIOR_PROFILES
100
AcDbCircle
10
56.189159114637022
20
121.43434158329804
30
0
40
1.6500000000000625
210
0
220
0
230
-1
0
CIRCLE
5
180
100
AcDbEntity
8
INTERIOR_PROFILES
100
AcDbCircle
10
24.189159114636993
20
121.43434158329804
30
0
40
1.6500000000000625
210
0
220
0
230
-1
0
CIRCLE
5
181
100
AcDbEntity
8
INTERIOR_PROFILES
100
AcDbCircle
10
-20.32857142857182
20
534.97892121215909
30
0
40
1.25
210
0
220
0
230
-1
0
CIRCLE
5
182
100
AcDbEntity
8
INTERIOR_PROFILES
100
AcDbCircle
10
-424.90000000000032
20
534.97892121215909
30
0
40
1.25
210
0
220
0
230
-1
0
CIRCLE
5
183
100
AcDbEntity
8
INTERIOR_PROFILES
100
AcDbCircle
10
-829.47142857142876
20
534.97892121215909
30
0
40
1.25
210
0
220
0
230
-1
0
CIRCLE
5
184
100
AcDbEntity
8
INTERIOR_PROFILES
100
AcDbCircle
10
-526.04285714285743
20
534.97892121215909
30
0
40
1.25
210
0
220
0
230
-1
0
CIRCLE
5
185
100
AcDbEntity
8
INTERIOR_PROFILES
100
AcDbCircle
10
-121.47142857142896
20
534.97892121215909
30
0
40
1.25
210
0
220
0
230
-1
0
CIRCLE
5
186
100
AcDbEntity
8
INTERIOR_PROFILES
100
AcDbCircle
10
-323.75714285714321
20
534.97892121215909
30
0
40
1.25
210
0
220
0
230
-1
0
CIRCLE
5
187
100
AcDbEntity
8
INTERIOR_PROFILES
100
AcDbCircle
10
-728.32857142857165
20
534.97892121215909
30
0
40
1.25
210
0
220
0
230
-1
0
CIRCLE
5
188
100
AcDbEntity
8
INTERIOR_PROFILES
100
AcDbCircle
10
-627.18571428571454
20
534.97892121215909
30
0
40
1.25
210
0
220
0
230
-1
0
CIRCLE
5
189
100
AcDbEntity
8
INTERIOR_PROFILES
100
AcDbCircle
10
-222.61428571428604
20
534.97892121215909
30
0
40
1.25
210
0
220
0
230
-1
0
CIRCLE
5
190
100
AcDbEntity
8
INTERIOR_PROFILES
100
AcDbCircle
10
-313.68571428571465
20
381.43740460345623
30
0
40
2.2999999999999687
210
0
220
0
230
-1
0
CIRCLE
5
191
100
AcDbEntity
8
INTERIOR_PROFILES
100
AcDbCircle
10
-421.40000000000032
20
324.21470597625546
30
0
40
2.2999999999999687
210
0
220
0
230
-1
0
CIRCLE
5
192
100
AcDbEntity
8
INTERIOR_PROFILES
100
AcDbCircle
10
-617.11428571428598
20
381.43740460345623
30
0
40
2.3000000000000398
210
0
220
0
230
-1
0
CIRCLE
5
193
100
AcDbEntity
8
INTERIOR_PROFILES
100
AcDbCircle
10
-738.4000000000002
20
381.43740460345623
30
0
40
2.3000000000000398
210
0
220
0
230
-1
0
CIRCLE
5
194
100
AcDbEntity
8
INTERIOR_PROFILES
100
AcDbCircle
10
-536.11428571428598
20
381.43740460345623
30
0
40
2.2999999999999687
210
0
220
0
230
-1
0
CIRCLE
5
195
100
AcDbEntity
8
INTERIOR_PROFILES
100
AcDbCircle
10
-414.82857142857171
20
381.43740460345623
30
0
40
2.2999999999999687
210
0
220
0
230
-1
0
CIRCLE
5
196
100
AcDbEntity
8
INTERIOR_PROFILES
100
AcDbCircle
10
-333.82857142857176
20
381.43740460345623
30
0
40
2.2999999999999687
210
0
220
0
230
-1
0
CIRCLE
5
197
100
AcDbEntity
8
INTERIOR_PROFILES
100
AcDbCircle
10
-434.97142857142882
20
381.43740460345623
30
0
40
2.2999999999999687
210
0
220
0
230
-1
0
CIRCLE
5
198
100
AcDbEntity
8
INTERIOR_PROFILES
100
AcDbCircle
10
-637.25714285714298
20
381.43740460345623
30
0
40
2.3000000000000398
210
0
220
0
230
-1
0
CIRCLE
5
199
100
AcDbEntity
8
INTERIOR_PROFILES
100
AcDbCircle
10
-718.25714285714309
20
381.43740460345623
30
0
40
2.3000000000000398
210
0
220
0
230
-1
0
CIRCLE
5
200
100
AcDbEntity
8
INTERIOR_PROFILES
100
AcDbCircle
10
-515.97142857142887
20
381.43740460345623
30
0
40
2.2999999999999687
210
0
220
0
230
-1
0
CIRCLE
5
201
100
AcDbEntity
8
INTERIOR_PROFILES
100
AcDbCircle
10
-409.40000000000026
20
324.21470597625546
30
0
40
2.2999999999999687
210
0
220
0
230
-1
0
CIRCLE
5
202
100
AcDbEntity
8
INTERIOR_PROFILES
100
AcDbCircle
10
-111.61428571428601
20
187.18434158329808
30
0
40
2.3999999999999488
210
0
220
0
230
-1
0
CIRCLE
5
203
100
AcDbEntity
8
INTERIOR_PROFILES
100
AcDbCircle
10
-516.18571428571454
20
187.18434158329808
30
0
40
2.4000000000000199
210
0
220
0
230
-1
0
CIRCLE
5
204
100
AcDbEntity
8
INTERIOR_PROFILES
100
AcDbCircle
10
-764.47142857142876
20
187.18434158329808
30
0
40
2.3999999999999488
210
0
220
0
230
-1
0
CIRCLE
5
205
100
AcDbEntity
8
INTERIOR_PROFILES
100
AcDbCircle
10
-313.90000000000038
20
187.18434158329808
30
0
40
2.4000000000000199
210
0
220
0
230
-1
0
CIRCLE
5
206
100
AcDbEntity
8
INTERIOR_PROFILES
100
AcDbCircle
10
-718.47142857142887
20
187.18434158329808
30
0
40
2.3999999999999488
210
0
220
0
230
-1
0
CIRCLE
5
207
100
AcDbEntity
8
INTERIOR_PROFILES
100
AcDbCircle
10
-562.18571428571454
20
187.18434158329808
30
0
40
2.3999999999999488
210
0
220
0
230
-1
0
CIRCLE
5
208
100
AcDbEntity
8
INTERIOR_PROFILES
100
AcDbCircle
10
-157.61428571428596
20
187.18434158329808
30
0
40
2.3999999999999488
210
0
220
0
230
-1
0
CIRCLE
5
209
100
AcDbEntity
8
INTERIOR_PROFILES
100
AcDbCircle
10
-359.90000000000038
20
187.18434158329808
30
0
40
2.4000000000000199
210
0
220
0
230
-1
0
CIRCLE
5
210
100
AcDbEntity
8
INTERIOR_PROFILES
100
AcDbCircle
10
-598.80178571428598
20
512.92131509967135
30
0
40
1.7999999999999972
210
0
220
0
230
-1
0
CIRCLE
5
211
100
AcDbEntity
8
INTERIOR_PROFILES
100
AcDbCircle
10
-111.40000000000029
20
381.43740460345623
30
0
40
2.3000000000000398
210
0
220
0
230
-1
0
CIRCLE
5
212
100
AcDbEntity
8
INTERIOR_PROFILES
100
AcDbCircle
10
-108.90000000000029
20
234.43434158329808
30
0
40
1.25
210
0
220
0
230
-1
0
CIRCLE
5
213
100
AcDbEntity
8
INTERIOR_PROFILES
100
AcDbCircle
10
-124.90000000000038
20
219.68434158329808
30
0
40
1.8000000000000682
210
0
220
0
230
-1
0
CIRCLE
5
214
100
AcDbEntity
8
INTERIOR_PROFILES
100
AcDbCircle
10
-801.08750000000009
20
512.92131509967135
30
0
40
1.8000000000000682
210
0
220
0
230
-1
0
CIRCLE
5
215
100
AcDbEntity
8
INTERIOR_PROFILES
100
AcDbCircle
10
-124.90000000000038
20
277.68434158329808
30
0
40
1.8000000000000682
210
0
220
0
230
-1
0
CIRCLE
5
216
100
AcDbEntity
8
INTERIOR_PROFILES
100
AcDbCircle
10
-332.65000000000032
20
301.18434158329808
30
0
40
1.7999999999999972
210
0
220
0
230
-1
0
CIRCLE
5
217
100
AcDbEntity
8
INTERIOR_PROFILES
100
AcDbCircle
10
-756.71250000000009
20
512.92131509967135
30
0
40
1.8000000000000682
210
0
220
0
230
-1
0
CIRCLE
5
218
100
AcDbEntity
8
INTERIOR_PROFILES
100
AcDbCircle
10
-373.10000000000025
20
162.93434158329808
30
0
40
2.2999999999999687
210
0
220
0
230
-1
0
CIRCLE
5
219
100
AcDbEntity
8
INTERIOR_PROFILES
100
AcDbCircle
10
-243.15000000000032
20
211.68434158329808
30
0
40
1.7999999999999972
210
0
220
0
230
-1
0
CIRCLE
5
220
100
AcDbEntity
8
INTERIOR_PROFILES
100
AcDbCircle
10
-497.65892857142882
20
512.92131509967135
30
0
40
1.7999999999999972
210
0
220
0
230
-1
0
LWPOLYLINE
5
221
100
AcDbEntity
8
INTERIOR_PROFILES
100
AcDbPolyline
90
4
70
1
43
0.0
10
491.6142857142861
20
92.43434158329805
42
-0.99999999999999989
10
491.6142857142861
20
88.434341583297993
10
455.6142857142861
20
88.434341583298064
42
-0.99999999999999989
10
455.6142857142861
20
92.434341583297837
0
CIRCLE
5
222
100
AcDbEntity
8
INTERIOR_PROFILES
100
AcDbCircle
10
-11.900000000000261
20
101.34518246866079
30
0
40
1.6500000000000625
210
0
220
0
230
-1
0
CIRCLE
5
223
100
AcDbEntity
8
INTERIOR_PROFILES
100
AcDbCircle
10
-417.6142857142861
20
98.434341583297993
30
0
40
1.7999999999999972
210
0
220
0
230
-1
0
CIRCLE
5
224
100
AcDbEntity
8
INTERIOR_PROFILES
100
AcDbCircle
10
-27.614285714286098
20
98.434341583297993
30
0
40
1.8000000000000682
210
0
220
0
230
-1
0
LWPOLYLINE
5
225
100
AcDbEntity
8
INTERIOR_PROFILES
100
AcDbPolyline
90
4
70
1
43
0.0
10
584.26734693877597
20
92.43434158329805
42
-0.99999999999999989
10
584.26734693877586
20
88.434341583297993
10
548.26734693877586
20
88.434341583298348
42
-0.99999999999999989
10
548.26734693877586
20
92.434341583297979
0
CIRCLE
5
226
100
AcDbEntity
8
INTERIOR_PROFILES
100
AcDbCircle
10
-417.6142857142861
20
34.434341583298007
30
0
40
1.7999999999999972
210
0
220
0
230
-1
0
LWPOLYLINE
5
227
100
AcDbEntity
8
INTERIOR_PROFILES
100
AcDbPolyline
90
4
70
1
43
0.0
10
491.6142857142861
20
44.434341583298007
10
455.61428571428621
20
44.434341583298007
42
0.99999999999999989
10
455.6142857142861
20
40.43434158329795
10
491.61428571428621
20
40.43434158329795
42
0.99999999999999989
0
LWPOLYLINE
5
228
100
AcDbEntity
8
INTERIOR_PROFILES
100
AcDbPolyline
90
4
70
1
43
0.0
10
676.92040816326562
20
92.434341583298021
42
-0.99999999999999989
10
676.92040816326562
20
88.434341583297737
10
640.92040816326562
20
88.434341583298206
42
-0.99999999999999989
10
640.92040816326562
20
92.434341583297979
0
CIRCLE
5
229
100
AcDbEntity
8
INTERIOR_PROFILES
100
AcDbCircle
10
-438.6142857142861
20
66.434341583297964
30
0
40
3.2500000000000284
210
0
220
0
230
-1
0
CIRCLE
5
230
100
AcDbEntity
8
INTERIOR_PROFILES
100
AcDbCircle
10
-27.614285714286098
20
34.434341583298007
30
0
40
1.8000000000000682
210
0
220
0
230
-1
0
CIRCLE
5
231
100
AcDbEntity
8
INTERIOR_PROFILES
100
AcDbCircle
10
-11.900000000000261
20
37.345182468660809
30
0
40
1.6500000000000625
210
0
220
0
230
-1
0
CIRCLE
5
232
100
AcDbEntity
8
INTERIOR_PROFILES
100
AcDbCircle
10
-837.9000000000002
20
69.345182468660767
30
0
40
1.6500000000000625
210
0
220
0
230
-1
0
CIRCLE
5
233
100
AcDbEntity
8
INTERIOR_PROFILES
100
AcDbCircle
10
-11.900000000000261
20
69.345182468660767
30
0
40
1.6500000000000625
210
0
220
0
230
-1
0
CIRCLE
5
234
100
AcDbEntity
8
INTERIOR_PROFILES
100
AcDbCircle
10
-837.9000000000002
20
101.34518246866079
30
0
40
1.6500000000000625
210
0
220
0
230
-1
0
LWPOLYLINE
5
235
100
AcDbEntity
8
INTERIOR_PROFILES
100
AcDbPolyline
90
4
70
1
43
0.0
10
733.57346938775527
20
88.434341583298206
42
-0.99999999999999989
10
733.57346938775538
20
92.434341583297979
10
769.57346938775527
20
92.43434158329805
42
-0.99999999999999989
10
769.57346938775527
20
88.434341583297993
0
LWPOLYLINE
5
236
100
AcDbEntity
8
INTERIOR_PROFILES
100
AcDbPolyline
90
4
70
1
43
0.0
10
700.08367346938803
20
68.434341583297922
42
-0.99999999999999989
10
700.08367346938803
20
64.434341583298007
10
664.08367346938803
20
64.434341583298078
42
-0.99999999999999989
10
664.08367346938803
20
68.434341583297993
0
LWPOLYLINE
5
237
100
AcDbEntity
8
INTERIOR_PROFILES
100
AcDbPolyline
90
4
70
1
43
0.0
10
514.77755102040851
20
68.434341583297993
10
478.77755102040862
20
68.434341583297993
42
0.99999999999999989
10
478.77755102040851
20
64.434341583297794
10
514.77755102040885
20
64.434341583298362
42
0.99999999999999989
0
LWPOLYLINE
5
238
100
AcDbEntity
8
INTERIOR_PROFILES
100
AcDbPolyline
90
4
70
1
43
0.0
10
676.92040816326562
20
44.434341583298007
10
640.92040816326585
20
44.434341583298007
42
0.99999999999999989
10
640.92040816326562
20
40.434341583297808
10
676.92040816326562
20
40.434341583298092
42
0.99999999999999989
0
LWPOLYLINE
5
239
100
AcDbEntity
8
INTERIOR_PROFILES
100
AcDbPolyline
90
4
70
1
43
0.0
10
468.45102040816363
20
52.434341583298192
42
-0.99999999999999989
10
468.45102040816363
20
48.434341583297993
10
455.6142857142861
20
48.434341583298348
42
-0.99999999999999989
10
455.6142857142861
20
52.434341583297979
0
LWPOLYLINE
5
240
100
AcDbEntity
8
INTERIOR_PROFILES
100
AcDbPolyline
90
4
70
1
43
0.0
10
803.06326530612273
20
48.434341583298028
42
-0.99999999999999989
10
803.06326530612273
20
52.434341583298014
10
815.9000000000002
20
52.434341583297908
42
-0.99999999999999989
10
815.9000000000002
20
48.434341583297993
0
LWPOLYLINE
5
241
100
AcDbEntity
8
INTERIOR_PROFILES
100
AcDbPolyline
90
4
70
1
43
0.0
10
687.24693877551044
20
56.434341583297893
10
723.24693877551056
20
56.434341583297964
42
0.99999999999999989
10
723.24693877551056
20
60.434341583297879
10
687.24693877551044
20
60.43434158329795
42
0.99999999999999989
0
LWPOLYLINE
5
242
100
AcDbEntity
8
INTERIOR_PROFILES
100
AcDbPolyline
90
4
70
1
43
0.0
10
617.75714285714321
20
48.434341583297993
10
653.75714285714321
20
48.434341583297993
42
0.99999999999999989
10
653.75714285714298
20
52.43434158329805
10
617.75714285714321
20
52.43434158329805
42
0.99999999999999989
0
LWPOLYLINE
5
243
100
AcDbEntity
8
INTERIOR_PROFILES
100
AcDbPolyline
90
4
70
1
43
0.0
10
501.94081632653092
20
56.434341583297822
42
-0.99999999999999989
10
501.94081632653092
20
60.434341583298021
10
537.94081632653092
20
60.434341583298021
42
-0.99999999999999989
10
537.94081632653092
20
56.434341583297964
0
LWPOLYLINE
5
244
100
AcDbEntity
8
INTERIOR_PROFILES
100
AcDbPolyline
90
4
70
1
43
0.0
10
746.41020408163286
20
52.434341583297979
10
710.41020408163274
20
52.434341583297979
42
0.99999999999999989
10
710.41020408163274
20
48.434341583298206
10
746.41020408163286
20
48.434341583297922
42
0.99999999999999989
0
LWPOLYLINE
5
245
100
AcDbEntity
8
INTERIOR_PROFILES
100
AcDbPolyline
90
4
70
1
43
0.0
10
561.10408163265345
20
52.434341583297908
42
-0.99999999999999989
10
561.10408163265345
20
48.434341583297993
10
525.10408163265333
20
48.434341583298348
42
-0.99999999999999989
10
525.10408163265333
20
52.434341583297979
0
LWPOLYLINE
5
246
100
AcDbEntity
8
INTERIOR_PROFILES
100
AcDbPolyline
90
4
70
1
43
0.0
10
594.59387755102068
20
56.434341583297964
42
-0.99999999999999989
10
594.5938775510208
20
60.434341583298021
10
630.59387755102068
20
60.434341583298021
42
-0.99999999999999989
10
630.59387755102068
20
56.434341583297964
0
LWPOLYLINE
5
247
100
AcDbEntity
8
INTERIOR_PROFILES
100
AcDbPolyline
90
4
70
1
43
0.0
10
779.9000000000002
20
56.434341583298107
42
-0.99999999999999989
10
779.9000000000002
20
60.434341583298021
10
815.9000000000002
20
60.434341583297879
42
-0.99999999999999989
10
815.9000000000002
20
56.434341583297964
0
LWPOLYLINE
5
248
100
AcDbEntity
8
INTERIOR_PROFILES
100
AcDbPolyline
90
4
70
1
43
0.0
10
769.57346938775527
20
44.434341583298007
10
733.57346938775549
20
44.434341583298007
42
0.99999999999999989
10
733.57346938775527
20
40.434341583297808
10
769.57346938775527
20
40.434341583297808
42
0.99999999999999989
0
LWPOLYLINE
5
249
100
AcDbEntity
8
INTERIOR_PROFILES
100
AcDbPolyline
90
4
70
1
43
0.0
10
548.26734693877586
20
40.434341583298021
10
584.26734693877597
20
40.434341583298021
42
0.99999999999999989
10
584.26734693877597
20
44.434341583298078
10
548.26734693877586
20
44.434341583297936
42
0.99999999999999989
0
LWPOLYLINE
5
250
100
AcDbEntity
8
INTERIOR_PROFILES
100
AcDbPolyline
90
4
70
1
43
0.0
10
607.43061224489816
20
68.43434158329778
42
-0.99999999999999989
10
607.43061224489816
20
64.434341583298007
10
571.43061224489838
20
64.434341583297936
42
-0.99999999999999989
10
571.43061224489838
20
68.434341583297993
0
LWPOLYLINE
5
251
100
AcDbEntity
8
INTERIOR_PROFILES
100
AcDbPolyline
90
4
70
1
43
0.0
10
815.9000000000002
20
92.434341583297979
10
779.90000000000009
20
92.434341583297979
42
0.99999999999999989
10
779.90000000000009
20
88.434341583298206
10
815.9000000000002
20
88.434341583297922
42
0.99999999999999989
0
LWPOLYLINE
5
252
100
AcDbEntity
8
INTERIOR_PROFILES
100
AcDbPolyline
90
4
70
1
43
0.0
10
478.77755102040851
20
80.434341583297666
42
-0.99999999999999989
10
478.77755102040851
20
84.434341583298007
10
514.77755102040851
20
84.434341583298078
42
-0.99999999999999989
10
514.77755102040851
20
80.434341583298021
0
LWPOLYLINE
5
253
100
AcDbEntity
8
INTERIOR_PROFILES
100
AcDbPolyline
90
4
70
1
43
0.0
10
769.57346938775527
20
60.434341583298021
42
-0.99999999999999989
10
769.57346938775527
20
56.434341583297964
10
733.57346938775538
20
56.434341583298107
42
-0.99999999999999989
10
733.57346938775538
20
60.434341583298021
0
LWPOLYLINE
5
254
100
AcDbEntity
8
INTERIOR_PROFILES
100
AcDbPolyline
90
4
70
1
43
0.0
10
571.43061224489838
20
48.434341583298206
42
-0.99999999999999989
10
571.43061224489838
20
52.434341583297979
10
607.43061224489827
20
52.43434158329805
42
-0.99999999999999989
10
607.43061224489816
20
48.434341583297993
0
LWPOLYLINE
5
255
100
AcDbEntity
8
INTERIOR_PROFILES
100
AcDbPolyline
90
4
70
1
43
0.0
10
710.41020408163286
20
64.434341583298078
42
-0.99999999999999989
10
710.41020408163286
20
68.434341583297993
10
746.41020408163297
20
68.43434158329778
42
-0.99999999999999989
10
746.41020408163286
20
64.434341583298007
0
CIRCLE
5
256
100
AcDbEntity
8
INTERIOR_PROFILES
100
AcDbCircle
10
-837.9000000000002
20
37.345182468660809
30
0
40
1.6500000000000625
210
0
220
0
230
-1
0
LWPOLYLINE
5
257
100
AcDbEntity
8
INTERIOR_PROFILES
100
AcDbPolyline
90
4
70
1
43
0.0
10
561.10408163265345
20
68.434341583297638
42
-0.99999999999999989
10
561.10408163265345
20
64.434341583298007
10
525.10408163265333
20
64.434341583297794
42
-0.99999999999999989
10
525.10408163265333
20
68.434341583297993
0
LWPOLYLINE
5
258
100
AcDbEntity
8
INTERIOR_PROFILES
100
AcDbPolyline
90
4
70
1
43
0.0
10
792.73673469387768
20
84.434341583298078
42
-0.99999999999999989
10
792.73673469387768
20
80.434341583298021
10
756.73673469387768
20
80.434341583297808
42
-0.99999999999999989
10
756.73673469387779
20
84.434341583298007
0
LWPOLYLINE
5
259
100
AcDbEntity
8
INTERIOR_PROFILES
100
AcDbPolyline
90
4
70
1
43
0.0
10
584.26734693877586
20
60.434341583298021
10
548.26734693877575
20
60.434341583298021
42
0.99999999999999989
10
548.26734693877586
20
56.434341583298107
10
584.26734693877597
20
56.434341583297964
42
0.99999999999999989
0
LWPOLYLINE
5
260
100
AcDbEntity
8
INTERIOR_PROFILES
100
AcDbPolyline
90
4
70
1
43
0.0
10
700.08367346938815
20
84.434341583298078
42
-0.99999999999999989
10
700.08367346938815
20
80.434341583298021
10
664.08367346938803
20
80.43434158329795
42
-0.99999999999999989
10
664.08367346938803
20
84.434341583298007
0
LWPOLYLINE
5
261
100
AcDbEntity
8
INTERIOR_PROFILES
100
AcDbPolyline
90
4
70
1
43
0.0
10
630.59387755102068
20
44.434341583298078
42
-0.99999999999999989
10
630.59387755102068
20
40.434341583298021
10
594.59387755102068
20
40.434341583297808
42
-0.99999999999999989
10
594.5938775510208
20
44.434341583298007
0
LWPOLYLINE
5
262
100
AcDbEntity
8
INTERIOR_PROFILES
100
AcDbPolyline
90
4
70
1
43
0.0
10
571.43061224489838
20
80.434341583298021
10
607.43061224489827
20
80.434341583298021
42
0.99999999999999989
10
607.43061224489827
20
84.434341583298078
10
571.43061224489827
20
84.434341583297936
42
0.99999999999999989
0
LWPOLYLINE
5
263
100
AcDbEntity
8
INTERIOR_PROFILES
100
AcDbPolyline
90
4
70
1
43
0.0
10
815.9000000000002
20
44.434341583298078
42
-0.99999999999999989
10
815.9000000000002
20
40.434341583298021
10
779.9000000000002
20
40.434341583297808
42
-0.99999999999999989
10
779.9000000000002
20
44.434341583298007
0
LWPOLYLINE
5
264
100
AcDbEntity
8
INTERIOR_PROFILES
100
AcDbPolyline
90
4
70
1
43
0.0
10
756.73673469387768
20
48.434341583298206
42
-0.99999999999999989
10
756.73673469387779
20
52.434341583297979
10
792.73673469387768
20
52.434341583297908
42
-0.99999999999999989
10
792.73673469387768
20
48.434341583297993
0
LWPOLYLINE
5
265
100
AcDbEntity
8
INTERIOR_PROFILES
100
AcDbPolyline
90
4
70
1
43
0.0
10
537.94081632653092
20
44.434341583298007
10
501.94081632653126
20
44.434341583298007
42
0.99999999999999989
10
501.94081632653092
20
40.434341583297666
10
537.94081632653092
20
40.434341583298092
42
0.99999999999999989
0
LWPOLYLINE
5
266
100
AcDbEntity
8
INTERIOR_PROFILES
100
AcDbPolyline
90
4
70
1
43
0.0
10
723.24693877551044
20
44.434341583298078
42
-0.99999999999999989
10
723.24693877551044
20
40.434341583298021
10
687.24693877551067
20
40.434341583298021
42
-0.99999999999999989
10
687.24693877551044
20
44.434341583298007
0
LWPOLYLINE
5
267
100
AcDbEntity
8
INTERIOR_PROFILES
100
AcDbPolyline
90
4
70
1
43
0.0
10
815.90000000000032
20
76.434341583298178
42
-0.99999999999999989
10
815.9000000000002
20
72.434341583297979
10
779.9000000000002
20
72.434341583297908
42
-0.99999999999999989
10
779.9000000000002
20
76.434341583297964
0
LWPOLYLINE
5
268
100
AcDbEntity
8
INTERIOR_PROFILES
100
AcDbPolyline
90
4
70
1
43
0.0
10
478.77755102040851
20
48.434341583297993
10
514.77755102040828
20
48.434341583297993
42
0.99999999999999989
10
514.77755102040851
20
52.434341583298192
10
478.77755102040805
20
52.434341583298334
42
0.99999999999999989
0
LWPOLYLINE
5
269
100
AcDbEntity
8
INTERIOR_PROFILES
100
AcDbPolyline
90
4
70
1
43
0.0
10
664.08367346938815
20
48.434341583298348
42
-0.99999999999999989
10
664.08367346938803
20
52.434341583297979
10
700.08367346938815
20
52.434341583297908
42
-0.99999999999999989
10
700.08367346938815
20
48.434341583297993
0
LWPOLYLINE
5
270
100
AcDbEntity
8
INTERIOR_PROFILES
100
AcDbPolyline
90
4
70
1
43
0.0
10
723.24693877551044
20
76.434341583297964
10
687.24693877551044
20
76.434341583297964
42
0.99999999999999989
10
687.24693877551044
20
72.43434158329805
10
723.24693877551044
20
72.434341583298192
42
0.99999999999999989
0
LWPOLYLINE
5
271
100
AcDbEntity
8
INTERIOR_PROFILES
100
AcDbPolyline
90
4
70
1
43
0.0
10
491.6142857142861
20
60.434341583298021
10
455.6142857142861
20
60.434341583298021
42
0.99999999999999989
10
455.6142857142861
20
56.434341583298107
10
491.6142857142861
20
56.434341583297964
42
0.99999999999999989
0
LWPOLYLINE
5
272
100
AcDbEntity
8
INTERIOR_PROFILES
100
AcDbPolyline
90
4
70
1
43
0.0
10
640.92040816326562
20
56.434341583297964
10
676.92040816326562
20
56.434341583297964
42
0.99999999999999989
10
676.92040816326562
20
60.434341583298021
10
640.92040816326562
20
60.434341583298021
42
0.99999999999999989
0
LWPOLYLINE
5
273
100
AcDbEntity
8
INTERIOR_PROFILES
100
AcDbPolyline
90
4
70
1
43
0.0
10
468.45102040816363
20
68.434341583297993
10
455.6142857142861
20
68.434341583297993
42
0.99999999999999989
10
455.6142857142861
20
64.434341583298078
10
468.45102040816391
20
64.434341583297652
42
0.99999999999999989
0
LWPOLYLINE
5
274
100
AcDbEntity
8
INTERIOR_PROFILES
100
AcDbPolyline
90
4
70
1
43
0.0
10
594.59387755102068
20
72.434341583297979
10
630.59387755102057
20
72.434341583297979
42
0.99999999999999989
10
630.59387755102068
20
76.434341583298178
10
594.59387755102068
20
76.434341583297893
42
0.99999999999999989
0
LWPOLYLINE
5
275
100
AcDbEntity
8
INTERIOR_PROFILES
100
AcDbPolyline
90
4
70
1
43
0.0
10
653.75714285714309
20
68.434341583297993
10
617.75714285714321
20
68.434341583297993
42
0.99999999999999989
10
617.75714285714309
20
64.434341583297936
10
653.75714285714309
20
64.434341583297936
42
0.99999999999999989
0
LWPOLYLINE
5
276
100
AcDbEntity
8
INTERIOR_PROFILES
100
AcDbPolyline
90
4
70
1
43
0.0
10
710.41020408163274
20
80.434341583297808
42
-0.99999999999999989
10
710.41020408163286
20
84.434341583298007
10
746.41020408163297
20
84.434341583297993
42
-0.99999999999999989
10
746.41020408163286
20
80.434341583298021
0
LWPOLYLINE
5
277
100
AcDbEntity
8
INTERIOR_PROFILES
100
AcDbPolyline
90
4
70
1
43
0.0
10
803.06326530612273
20
64.434341583297936
42
-0.99999999999999989
10
803.06326530612273
20
68.434341583297993
10
815.90000000000032
20
68.43434158329778
42
-0.99999999999999989
10
815.9000000000002
20
64.434341583298007
0
LWPOLYLINE
5
278
100
AcDbEntity
8
INTERIOR_PROFILES
100
AcDbPolyline
90
4
70
1
43
0.0
10
653.75714285714298
20
84.434341583298078
42
-0.99999999999999989
10
653.75714285714309
20
80.434341583298021
10
617.75714285714321
20
80.434341583297808
42
-0.99999999999999989
10
617.75714285714321
20
84.434341583298007
0
LWPOLYLINE
5
279
100
AcDbEntity
8
INTERIOR_PROFILES
100
AcDbPolyline
90
4
70
1
43
0.0
10
687.24693877551044
20
88.434341583297993
10
723.24693877551056
20
88.434341583297993
42
0.99999999999999989
10
723.24693877551056
20
92.434341583297908
10
687.24693877551022
20
92.434341583298334
42
0.99999999999999989
0
LWPOLYLINE
5
280
100
AcDbEntity
8
INTERIOR_PROFILES
100
AcDbPolyline
90
4
70
1
43
0.0
10
630.59387755102068
20
92.43434158329805
42
-0.99999999999999989
10
630.59387755102068
20
88.434341583297993
10
594.5938775510208
20
88.434341583298206
42
-0.99999999999999989
10
594.59387755102068
20
92.434341583297979
0
LWPOLYLINE
5
281
100
AcDbEntity
8
INTERIOR_PROFILES
100
AcDbPolyline
90
4
70
1
43
0.0
10
537.94081632653092
20
92.43434158329805
42
-0.99999999999999989
10
537.94081632653092
20
88.434341583297993
10
501.94081632653092
20
88.434341583298348
42
-0.99999999999999989
10
501.94081632653092
20
92.434341583297979
0
LWPOLYLINE
5
282
100
AcDbEntity
8
INTERIOR_PROFILES
100
AcDbPolyline
90
4
70
1
43
0.0
10
561.10408163265345
20
84.434341583298007
10
525.10408163265333
20
84.434341583298078
42
0.99999999999999989
10
525.10408163265333
20
80.434341583298021
10
561.10408163265356
20
80.43434158329795
42
0.99999999999999989
0
LWPOLYLINE
5
283
100
AcDbEntity
8
INTERIOR_PROFILES
100
AcDbPolyline
90
4
70
1
43
0.0
10
803.06326530612273
20
80.434341583298021
42
-0.99999999999999989
10
803.06326530612273
20
84.434341583297936
10
815.9000000000002
20
84.434341583298078
42
-0.99999999999999989
10
815.9000000000002
20
80.434341583298021
0
CIRCLE
5
284
100
AcDbEntity
8
INTERIOR_PROFILES
100
AcDbCircle
10
-222.6142857142861
20
11.971582874040365
30
0
40
1.25
210
0
220
0
230
-1
0
CIRCLE
5
285
100
AcDbEntity
8
INTERIOR_PROFILES
100
AcDbCircle
10
-323.75714285714321
20
11.971582874040365
30
0
40
1.25
210
0
220
0
230
-1
0
CIRCLE
5
286
100
AcDbEntity
8
INTERIOR_PROFILES
100
AcDbCircle
10
-20.328571428571678
20
11.971582874040365
30
0
40
1.25
210
0
220
0
230
-1
0
LWPOLYLINE
5
287
100
AcDbEntity
8
INTERIOR_PROFILES
100
AcDbPolyline
90
4
70
1
43
0.0
10
756.73673469387779
20
64.434341583298078
42
-0.99999999999999989
10
756.73673469387779
20
68.434341583297993
10
792.73673469387791
20
68.43434158329778
42
-0.99999999999999989
10
792.73673469387768
20
64.434341583298007
0
LWPOLYLINE
5
288
100
AcDbEntity
8
INTERIOR_PROFILES
100
AcDbPolyline
90
4
70
1
43
0.0
10
537.94081632653092
20
76.434341583298178
42
-0.99999999999999989
10
537.94081632653092
20
72.434341583297979
10
501.94081632653092
20
72.434341583297908
42
-0.99999999999999989
10
501.94081632653092
20
76.434341583297964
0
LWPOLYLINE
5
289
100
AcDbEntity
8
INTERIOR_PROFILES
100
AcDbPolyline
90
4
70
1
43
0.0
10
491.6142857142861
20
76.434341583297964
10
455.6142857142861
20
76.434341583297964
42
0.99999999999999989
10
455.6142857142861
20
72.43434158329805
10
491.61428571428593
20
72.434341583298192
42
0.99999999999999989
0
LWPOLYLINE
5
290
100
AcDbEntity
8
INTERIOR_PROFILES
100
AcDbPolyline
90
4
70
1
43
0.0
10
584.26734693877586
20
76.434341583297964
10
548.26734693877575
20
76.434341583297964
42
0.99999999999999989
10
548.26734693877586
20
72.43434158329805
10
584.26734693877575
20
72.434341583298192
42
0.99999999999999989
0
LWPOLYLINE
5
291
100
AcDbEntity
8
INTERIOR_PROFILES
100
AcDbPolyline
90
4
70
1
43
0.0
10
676.92040816326562
20
76.434341583298178
42
-0.99999999999999989
10
676.92040816326551
20
72.434341583297979
10
640.92040816326573
20
72.434341583297979
42
-0.99999999999999989
10
640.92040816326562
20
76.434341583297964
0
LWPOLYLINE
5
292
100
AcDbEntity
8
INTERIOR_PROFILES
100
AcDbPolyline
90
4
70
1
43
0.0
10
733.57346938775538
20
72.43434158329805
10
769.57346938775549
20
72.434341583298036
42
0.99999999999999989
10
769.57346938775549
20
76.434341583297979
10
733.57346938775538
20
76.434341583297822
42
0.99999999999999989
0
LWPOLYLINE
5
293
100
AcDbEntity
8
INTERIOR_PROFILES
100
AcDbPolyline
90
4
70
1
43
0.0
10
468.45102040816363
20
84.434341583298007
10
455.61428571428621
20
84.434341583298007
42
0.99999999999999989
10
455.6142857142861
20
80.43434158329795
10
468.45102040816352
20
80.434341583298092
42
0.99999999999999989
0
LWPOLYLINE
5
294
100
AcDbEntity
8
INTERIOR_PROFILES
100
AcDbPolyline
90
4
70
1
43
0.0
10
883.90000000000043
20
206.43434158329811
42
-0.99999999999999989
10
887.9000000000002
20
206.43434158329811
10
887.9000000000002
20
170.43434158329808
42
-0.99999999999999989
10
883.90000000000009
20
170.43434158329808
0
CIRCLE
5
295
100
AcDbEntity
8
INTERIOR_PROFILES
100
AcDbCircle
10
-526.04285714285743
20
11.971582874040365
30
0
40
1.25
210
0
220
0
230
-1
0
LWPOLYLINE
5
296
100
AcDbEntity
8
INTERIOR_PROFILES
100
AcDbPolyline
90
4
70
1
43
0.0
10
903.90000000000009
20
218.43434158329808
10
903.90000000000032
20
254.43434158329808
42
0.99999999999999989
10
899.9000000000002
20
254.43434158329808
10
899.90000000000032
20
218.43434158329808
42
0.99999999999999989
0
LWPOLYLINE
5
297
100
AcDbEntity
8
INTERIOR_PROFILES
100
AcDbPolyline
90
4
70
1
43
0.0
10
867.90000000000032
20
206.43434158329811
42
-0.99999999999999989
10
871.90000000000009
20
206.43434158329811
10
871.90000000000032
20
170.43434158329808
42
-0.99999999999999989
10
867.9000000000002
20
170.43434158329808
0
LWPOLYLINE
5
298
100
AcDbEntity
8
INTERIOR_PROFILES
100
AcDbPolyline
90
4
70
1
43
0.0
10
859.9000000000002
20
230.43434158329808
10
859.9000000000002
20
194.43434158329822
42
0.99999999999999989
10
863.90000000000032
20
194.43434158329808
10
863.90000000000032
20
230.43434158329808
42
0.99999999999999989
0
LWPOLYLINE
5
299
100
AcDbEntity
8
INTERIOR_PROFILES
100
AcDbPolyline
90
4
70
1
43
0.0
10
919.9000000000002
20
170.43434158329808
42
-0.99999999999999989
10
915.9000000000002
20
170.43434158329808
10
915.9000000000002
20
203.61615976511629
42
-0.99999999999999989
10
919.9000000000002
20
203.61615976511629
0
LWPOLYLINE
5
300
100
AcDbEntity
8
INTERIOR_PROFILES
100
AcDbPolyline
90
4
70
1
43
0.0
10
895.9000000000002
20
160.43434158329808
42
-0.99999999999999989
10
891.90000000000009
20
160.43434158329808
10
891.90000000000009
20
182.43434158329805
42
-0.99999999999999989
10
895.9000000000002
20
182.43434158329805
0
LWPOLYLINE
5
301
100
AcDbEntity
8
INTERIOR_PROFILES
100
AcDbPolyline
90
4
70
1
43
0.0
10
879.9000000000002
20
242.43434158329805
10
879.9000000000002
20
278.43434158329796
42
0.99999999999999989
10
875.9000000000002
20
278.43434158329808
10
875.9000000000002
20
242.43434158329825
42
0.99999999999999989
0
LWPOLYLINE
5
302
100
AcDbEntity
8
INTERIOR_PROFILES
100
AcDbPolyline
90
4
70
1
43
0.0
10
903.90000000000032
20
170.43434158329808
42
-0.99999999999999989
10
899.9000000000002
20
170.43434158329808
10
899.9000000000002
20
206.43434158329811
42
-0.99999999999999989
10
903.90000000000032
20
206.43434158329811
0
LWPOLYLINE
5
303
100
AcDbEntity
8
INTERIOR_PROFILES
100
AcDbPolyline
90
4
70
1
43
0.0
10
883.90000000000009
20
254.43434158329808
42
-0.99999999999999989
10
887.9000000000002
20
254.43434158329808
10
887.9000000000002
20
218.43434158329808
42
-0.99999999999999989
10
883.90000000000009
20
218.43434158329808
0
LWPOLYLINE
5
304
100
AcDbEntity
8
INTERIOR_PROFILES
100
AcDbPolyline
90
4
70
1
43
0.0
10
895.90000000000032
20
242.43434158329808
42
-0.99999999999999989
10
891.90000000000032
20
242.43434158329808
10
891.90000000000009
20
278.43434158329808
42
-0.99999999999999989
10
895.9000000000002
20
278.43434158329808
0
LWPOLYLINE
5
305
100
AcDbEntity
8
INTERIOR_PROFILES
100
AcDbPolyline
90
4
70
1
43
0.0
10
875.9000000000002
20
182.43434158329805
10
875.9000000000002
20
160.43434158329808
42
0.99999999999999989
10
879.9000000000002
20
160.43434158329808
10
879.89999999999998
20
182.43434158329791
42
0.99999999999999989
0
LWPOLYLINE
5
306
100
AcDbEntity
8
INTERIOR_PROFILES
100
AcDbPolyline
90
4
70
1
43
0.0
10
863.90000000000009
20
242.43434158329808
10
863.90000000000032
20
278.43434158329802
42
0.99999999999999989
10
859.9000000000002
20
278.43434158329808
10
859.90000000000032
20
242.43434158329822
42
0.99999999999999989
0
LWPOLYLINE
5
307
100
AcDbEntity
8
INTERIOR_PROFILES
100
AcDbPolyline
90
4
70
1
43
0.0
10
911.90000000000032
20
160.43434158329808
42
-0.99999999999999989
10
907.9000000000002
20
160.43434158329808
10
907.90000000000009
20
182.43434158329805
42
-0.99999999999999989
10
911.90000000000009
20
182.43434158329805
0
CIRCLE
5
308
100
AcDbEntity
8
INTERIOR_PROFILES
100
AcDbCircle
10
-424.9000000000002
20
11.971582874040365
30
0
40
1.25
210
0
220
0
230
-1
0
LWPOLYLINE
5
309
100
AcDbEntity
8
INTERIOR_PROFILES
100
AcDbPolyline
90
4
70
1
43
0.0
10
859.90000000000009
20
182.43434158329805
42
-0.99999999999999989
10
863.90000000000009
20
182.43434158329805
10
863.90000000000032
20
160.43434158329808
42
-0.99999999999999989
10
859.9000000000002
20
160.43434158329808
0
LWPOLYLINE
5
310
100
AcDbEntity
8
INTERIOR_PROFILES
100
AcDbPolyline
90
4
70
1
43
0.0
10
911.90000000000032
20
194.43434158329808
42
-0.99999999999999989
10
907.9000000000002
20
194.43434158329808
10
907.9000000000002
20
230.43434158329808
42
-0.99999999999999989
10
911.90000000000032
20
230.43434158329808
0
CIRCLE
5
311
100
AcDbEntity
8
INTERIOR_PROFILES
100
AcDbCircle
10
-627.18571428571454
20
11.971582874040365
30
0
40
1.25
210
0
220
0
230
-1
0
LWPOLYLINE
5
312
100
AcDbEntity
8
INTERIOR_PROFILES
100
AcDbPolyline
90
4
70
1
43
0.0
10
875.9000000000002
20
230.43434158329808
10
875.90000000000032
20
194.43434158329822
42
0.99999999999999989
10
879.90000000000032
20
194.43434158329808
10
879.9000000000002
20
230.43434158329808
42
0.99999999999999989
0
LWPOLYLINE
5
313
100
AcDbEntity
8
INTERIOR_PROFILES
100
AcDbPolyline
90
4
70
1
43
0.0
10
871.90000000000032
20
218.43434158329808
42
-0.99999999999999989
10
867.9000000000002
20
218.43434158329808
10
867.9000000000002
20
254.43434158329808
42
-0.99999999999999989
10
871.90000000000032
20
254.43434158329808
0
LWPOLYLINE
5
314
100
AcDbEntity
8
INTERIOR_PROFILES
100
AcDbPolyline
90
4
70
1
43
0.0
10
891.90000000000032
20
230.43434158329808
10
891.90000000000032
20
194.43434158329822
42
0.99999999999999989
10
895.90000000000032
20
194.43434158329808
10
895.90000000000009
20
230.43434158329808
42
0.99999999999999989
0
CIRCLE
5
315
100
AcDbEntity
8
INTERIOR_PROFILES
100
AcDbCircle
10
-121.47142857142896
20
11.971582874040365
30
0
40
1.25
210
0
220
0
230
-1
0
CIRCLE
5
316
100
AcDbEntity
8
INTERIOR_PROFILES
100
AcDbCircle
10
-873.98915911463746
20
121.43434158329804
30
0
40
1.6500000000000625
210
0
220
0
230
-1
0
CIRCLE
5
317
100
AcDbEntity
8
INTERIOR_PROFILES
100
AcDbCircle
10
-905.98915911463735
20
121.43434158329804
30
0
40
1.6500000000000625
210
0
220
0
230
-1
0
CIRCLE
5
318
100
AcDbEntity
8
INTERIOR_PROFILES
100
AcDbCircle
10
-728.32857142857165
20
11.971582874040365
30
0
40
1.25
210
0
220
0
230
-1
0
CIRCLE
5
319
100
AcDbEntity
8
INTERIOR_PROFILES
100
AcDbCircle
10
-829.47142857142876
20
11.971582874040365
30
0
40
1.25
210
0
220
0
230
-1
0
ENDSEC
0
SECTION
2
OBJECTS
0
DICTIONARY
5
C
100
AcDbDictionary
3
ACAD_GROUP
350
D
3
ACAD_MLINESTYLE
350
17
0
DICTIONARY
5
D
100
AcDbDictionary
0
DICTIONARY
5
1A
330
C
100
AcDbDictionary
0
DICTIONARY
5
17
100
AcDbDictionary
0
ENDSEC
0
EOF
