ISO-10303-21;
HEADER;
/* Generated by software containing ST-Developer
 * from STEP Tools, Inc. (www.steptools.com) 
 */

FILE_DESCRIPTION(
/* description */ (
'Left rear corner bracket, handed upper closure. Existing five rivet s
tations unchanged.'),
/* implementation_level */ '2;1');

FILE_NAME(
/* name */ 'segno_corner_bracket_rear_mirrored.step',
/* time_stamp */ '2026-09-09T22:43:09-03:00',
/* author */ (''),
/* organization */ (''),
/* preprocessor_version */ 'ST-DEVELOPER v20.1',
/* originating_system */ 'Autodesk Translation Framework v15.8.0.0',
/* authorisation */ '');

FILE_SCHEMA (('AUTOMOTIVE_DESIGN { 1 0 10303 214 3 1 1 }'));
ENDSEC;

DATA;
#10=MECHANICAL_DESIGN_GEOMETRIC_PRESENTATION_REPRESENTATION('',(#13),#621);
#11=SHAPE_REPRESENTATION_RELATIONSHIP('SRR','None',#628,#12);
#12=ADVANCED_BREP_SHAPE_REPRESENTATION('',(#14),#620);
#13=STYLED_ITEM('',(#638),#14);
#14=MANIFOLD_SOLID_BREP('Body1',#357);
#15=B_SPLINE_SURFACE_WITH_KNOTS('',3,3,((#585,#586,#587,#588),(#589,#590,
#591,#592),(#593,#594,#595,#596),(#597,#598,#599,#600)),.UNSPECIFIED.,.F.,
 .F.,.F.,(4,4),(4,4),(0.,0.258087752483257),(0.,0.2),.UNSPECIFIED.);
#16=B_SPLINE_CURVE_WITH_KNOTS('',3,(#530,#531,#532,#533),.UNSPECIFIED.,
 .F.,.F.,(4,4),(0.,0.742928750447546),.UNSPECIFIED.);
#17=B_SPLINE_CURVE_WITH_KNOTS('',3,(#602,#603,#604,#605),.UNSPECIFIED.,
 .F.,.F.,(4,4),(0.,0.742928750447546),.UNSPECIFIED.);
#18=CYLINDRICAL_SURFACE('',#377,4.);
#19=CYLINDRICAL_SURFACE('',#389,1.65);
#20=CYLINDRICAL_SURFACE('',#390,1.65);
#21=CYLINDRICAL_SURFACE('',#392,1.65);
#22=CYLINDRICAL_SURFACE('',#393,1.65);
#23=CYLINDRICAL_SURFACE('',#394,1.65);
#24=CYLINDRICAL_SURFACE('',#402,2.);
#25=FACE_BOUND('',#70,.T.);
#26=FACE_BOUND('',#71,.T.);
#27=FACE_BOUND('',#76,.T.);
#28=FACE_BOUND('',#77,.T.);
#29=FACE_BOUND('',#78,.T.);
#30=FACE_BOUND('',#81,.T.);
#31=FACE_BOUND('',#82,.T.);
#32=FACE_BOUND('',#83,.T.);
#33=FACE_BOUND('',#97,.T.);
#34=FACE_BOUND('',#98,.T.);
#35=CIRCLE('',#372,1.65);
#36=CIRCLE('',#373,1.65);
#37=CIRCLE('',#375,4.);
#38=CIRCLE('',#376,2.);
#39=CIRCLE('',#378,4.);
#40=CIRCLE('',#381,1.65);
#41=CIRCLE('',#382,1.65);
#42=CIRCLE('',#383,1.65);
#43=CIRCLE('',#386,1.65);
#44=CIRCLE('',#387,1.65);
#45=CIRCLE('',#388,1.65);
#46=CIRCLE('',#391,1.65);
#47=CIRCLE('',#395,1.65);
#48=CIRCLE('',#398,2.);
#49=FACE_OUTER_BOUND('',#69,.T.);
#50=FACE_OUTER_BOUND('',#72,.T.);
#51=FACE_OUTER_BOUND('',#73,.T.);
#52=FACE_OUTER_BOUND('',#74,.T.);
#53=FACE_OUTER_BOUND('',#75,.T.);
#54=FACE_OUTER_BOUND('',#79,.T.);
#55=FACE_OUTER_BOUND('',#80,.T.);
#56=FACE_OUTER_BOUND('',#84,.T.);
#57=FACE_OUTER_BOUND('',#85,.T.);
#58=FACE_OUTER_BOUND('',#86,.T.);
#59=FACE_OUTER_BOUND('',#87,.T.);
#60=FACE_OUTER_BOUND('',#88,.T.);
#61=FACE_OUTER_BOUND('',#89,.T.);
#62=FACE_OUTER_BOUND('',#90,.T.);
#63=FACE_OUTER_BOUND('',#91,.T.);
#64=FACE_OUTER_BOUND('',#92,.T.);
#65=FACE_OUTER_BOUND('',#93,.T.);
#66=FACE_OUTER_BOUND('',#94,.T.);
#67=FACE_OUTER_BOUND('',#95,.T.);
#68=FACE_OUTER_BOUND('',#96,.T.);
#69=EDGE_LOOP('',(#233,#234,#235,#236));
#70=EDGE_LOOP('',(#237));
#71=EDGE_LOOP('',(#238));
#72=EDGE_LOOP('',(#239,#240,#241,#242));
#73=EDGE_LOOP('',(#243,#244,#245,#246,#247));
#74=EDGE_LOOP('',(#248,#249,#250,#251));
#75=EDGE_LOOP('',(#252,#253,#254,#255));
#76=EDGE_LOOP('',(#256));
#77=EDGE_LOOP('',(#257));
#78=EDGE_LOOP('',(#258));
#79=EDGE_LOOP('',(#259,#260,#261,#262));
#80=EDGE_LOOP('',(#263,#264,#265,#266));
#81=EDGE_LOOP('',(#267));
#82=EDGE_LOOP('',(#268));
#83=EDGE_LOOP('',(#269));
#84=EDGE_LOOP('',(#270,#271,#272,#273));
#85=EDGE_LOOP('',(#274,#275,#276,#277));
#86=EDGE_LOOP('',(#278,#279,#280,#281));
#87=EDGE_LOOP('',(#282,#283,#284,#285));
#88=EDGE_LOOP('',(#286,#287,#288,#289));
#89=EDGE_LOOP('',(#290,#291,#292,#293));
#90=EDGE_LOOP('',(#294,#295,#296,#297));
#91=EDGE_LOOP('',(#298,#299,#300,#301));
#92=EDGE_LOOP('',(#302,#303,#304,#305));
#93=EDGE_LOOP('',(#306,#307,#308,#309));
#94=EDGE_LOOP('',(#310,#311,#312,#313));
#95=EDGE_LOOP('',(#314,#315,#316,#317,#318));
#96=EDGE_LOOP('',(#319,#320,#321,#322));
#97=EDGE_LOOP('',(#323));
#98=EDGE_LOOP('',(#324));
#99=LINE('',#506,#129);
#100=LINE('',#508,#130);
#101=LINE('',#510,#131);
#102=LINE('',#511,#132);
#103=LINE('',#518,#133);
#104=LINE('',#522,#134);
#105=LINE('',#526,#135);
#106=LINE('',#534,#136);
#107=LINE('',#536,#137);
#108=LINE('',#538,#138);
#109=LINE('',#539,#139);
#110=LINE('',#542,#140);
#111=LINE('',#544,#141);
#112=LINE('',#546,#142);
#113=LINE('',#547,#143);
#114=LINE('',#556,#144);
#115=LINE('',#557,#145);
#116=LINE('',#560,#146);
#117=LINE('',#561,#147);
#118=LINE('',#569,#148);
#119=LINE('',#573,#149);
#120=LINE('',#575,#150);
#121=LINE('',#577,#151);
#122=LINE('',#581,#152);
#123=LINE('',#583,#153);
#124=LINE('',#584,#154);
#125=LINE('',#606,#155);
#126=LINE('',#611,#156);
#127=LINE('',#612,#157);
#128=LINE('',#614,#158);
#129=VECTOR('',#408,10.);
#130=VECTOR('',#409,10.);
#131=VECTOR('',#410,10.);
#132=VECTOR('',#411,10.);
#133=VECTOR('',#418,10.);
#134=VECTOR('',#421,10.);
#135=VECTOR('',#426,10.);
#136=VECTOR('',#429,10.);
#137=VECTOR('',#432,10.);
#138=VECTOR('',#433,10.);
#139=VECTOR('',#434,10.);
#140=VECTOR('',#437,10.);
#141=VECTOR('',#438,10.);
#142=VECTOR('',#439,10.);
#143=VECTOR('',#440,10.);
#144=VECTOR('',#449,10.);
#145=VECTOR('',#450,10.);
#146=VECTOR('',#453,10.);
#147=VECTOR('',#454,10.);
#148=VECTOR('',#463,1.65);
#149=VECTOR('',#468,1.65);
#150=VECTOR('',#471,1.65);
#151=VECTOR('',#474,1.65);
#152=VECTOR('',#479,1.65);
#153=VECTOR('',#482,10.);
#154=VECTOR('',#483,10.);
#155=VECTOR('',#484,10.);
#156=VECTOR('',#491,10.);
#157=VECTOR('',#492,10.);
#158=VECTOR('',#495,10.);
#159=VERTEX_POINT('',#504);
#160=VERTEX_POINT('',#505);
#161=VERTEX_POINT('',#507);
#162=VERTEX_POINT('',#509);
#163=VERTEX_POINT('',#512);
#164=VERTEX_POINT('',#514);
#165=VERTEX_POINT('',#517);
#166=VERTEX_POINT('',#519);
#167=VERTEX_POINT('',#521);
#168=VERTEX_POINT('',#525);
#169=VERTEX_POINT('',#527);
#170=VERTEX_POINT('',#529);
#171=VERTEX_POINT('',#537);
#172=VERTEX_POINT('',#541);
#173=VERTEX_POINT('',#543);
#174=VERTEX_POINT('',#545);
#175=VERTEX_POINT('',#548);
#176=VERTEX_POINT('',#550);
#177=VERTEX_POINT('',#552);
#178=VERTEX_POINT('',#555);
#179=VERTEX_POINT('',#559);
#180=VERTEX_POINT('',#562);
#181=VERTEX_POINT('',#564);
#182=VERTEX_POINT('',#566);
#183=VERTEX_POINT('',#571);
#184=VERTEX_POINT('',#579);
#185=VERTEX_POINT('',#601);
#186=VERTEX_POINT('',#610);
#187=EDGE_CURVE('',#159,#160,#99,.T.);
#188=EDGE_CURVE('',#160,#161,#100,.T.);
#189=EDGE_CURVE('',#161,#162,#101,.T.);
#190=EDGE_CURVE('',#162,#159,#102,.T.);
#191=EDGE_CURVE('',#163,#163,#35,.T.);
#192=EDGE_CURVE('',#164,#164,#36,.T.);
#193=EDGE_CURVE('',#165,#159,#103,.T.);
#194=EDGE_CURVE('',#166,#165,#37,.T.);
#195=EDGE_CURVE('',#166,#167,#104,.T.);
#196=EDGE_CURVE('',#159,#167,#38,.T.);
#197=EDGE_CURVE('',#168,#165,#105,.T.);
#198=EDGE_CURVE('',#168,#169,#39,.T.);
#199=EDGE_CURVE('',#169,#170,#16,.T.);
#200=EDGE_CURVE('',#170,#166,#106,.T.);
#201=EDGE_CURVE('',#160,#168,#107,.T.);
#202=EDGE_CURVE('',#171,#168,#108,.T.);
#203=EDGE_CURVE('',#161,#171,#109,.T.);
#204=EDGE_CURVE('',#167,#172,#110,.T.);
#205=EDGE_CURVE('',#167,#173,#111,.T.);
#206=EDGE_CURVE('',#173,#174,#112,.T.);
#207=EDGE_CURVE('',#174,#172,#113,.T.);
#208=EDGE_CURVE('',#175,#175,#40,.T.);
#209=EDGE_CURVE('',#176,#176,#41,.T.);
#210=EDGE_CURVE('',#177,#177,#42,.T.);
#211=EDGE_CURVE('',#178,#166,#114,.T.);
#212=EDGE_CURVE('',#173,#178,#115,.T.);
#213=EDGE_CURVE('',#170,#179,#116,.T.);
#214=EDGE_CURVE('',#179,#178,#117,.T.);
#215=EDGE_CURVE('',#180,#180,#43,.T.);
#216=EDGE_CURVE('',#181,#181,#44,.T.);
#217=EDGE_CURVE('',#182,#182,#45,.T.);
#218=EDGE_CURVE('',#180,#175,#118,.T.);
#219=EDGE_CURVE('',#183,#183,#46,.T.);
#220=EDGE_CURVE('',#183,#163,#119,.T.);
#221=EDGE_CURVE('',#181,#176,#120,.T.);
#222=EDGE_CURVE('',#182,#177,#121,.T.);
#223=EDGE_CURVE('',#184,#184,#47,.T.);
#224=EDGE_CURVE('',#184,#164,#122,.T.);
#225=EDGE_CURVE('',#174,#179,#123,.T.);
#226=EDGE_CURVE('',#172,#170,#124,.T.);
#227=EDGE_CURVE('',#172,#185,#17,.T.);
#228=EDGE_CURVE('',#185,#169,#125,.T.);
#229=EDGE_CURVE('',#185,#160,#48,.T.);
#230=EDGE_CURVE('',#186,#171,#126,.T.);
#231=EDGE_CURVE('',#162,#186,#127,.T.);
#232=EDGE_CURVE('',#165,#186,#128,.T.);
#233=ORIENTED_EDGE('',*,*,#187,.T.);
#234=ORIENTED_EDGE('',*,*,#188,.T.);
#235=ORIENTED_EDGE('',*,*,#189,.T.);
#236=ORIENTED_EDGE('',*,*,#190,.T.);
#237=ORIENTED_EDGE('',*,*,#191,.T.);
#238=ORIENTED_EDGE('',*,*,#192,.T.);
#239=ORIENTED_EDGE('',*,*,#193,.F.);
#240=ORIENTED_EDGE('',*,*,#194,.F.);
#241=ORIENTED_EDGE('',*,*,#195,.T.);
#242=ORIENTED_EDGE('',*,*,#196,.F.);
#243=ORIENTED_EDGE('',*,*,#197,.F.);
#244=ORIENTED_EDGE('',*,*,#198,.T.);
#245=ORIENTED_EDGE('',*,*,#199,.T.);
#246=ORIENTED_EDGE('',*,*,#200,.T.);
#247=ORIENTED_EDGE('',*,*,#194,.T.);
#248=ORIENTED_EDGE('',*,*,#201,.T.);
#249=ORIENTED_EDGE('',*,*,#202,.F.);
#250=ORIENTED_EDGE('',*,*,#203,.F.);
#251=ORIENTED_EDGE('',*,*,#188,.F.);
#252=ORIENTED_EDGE('',*,*,#204,.F.);
#253=ORIENTED_EDGE('',*,*,#205,.T.);
#254=ORIENTED_EDGE('',*,*,#206,.T.);
#255=ORIENTED_EDGE('',*,*,#207,.T.);
#256=ORIENTED_EDGE('',*,*,#208,.T.);
#257=ORIENTED_EDGE('',*,*,#209,.T.);
#258=ORIENTED_EDGE('',*,*,#210,.T.);
#259=ORIENTED_EDGE('',*,*,#195,.F.);
#260=ORIENTED_EDGE('',*,*,#211,.F.);
#261=ORIENTED_EDGE('',*,*,#212,.F.);
#262=ORIENTED_EDGE('',*,*,#205,.F.);
#263=ORIENTED_EDGE('',*,*,#200,.F.);
#264=ORIENTED_EDGE('',*,*,#213,.T.);
#265=ORIENTED_EDGE('',*,*,#214,.T.);
#266=ORIENTED_EDGE('',*,*,#211,.T.);
#267=ORIENTED_EDGE('',*,*,#215,.T.);
#268=ORIENTED_EDGE('',*,*,#216,.T.);
#269=ORIENTED_EDGE('',*,*,#217,.T.);
#270=ORIENTED_EDGE('',*,*,#215,.F.);
#271=ORIENTED_EDGE('',*,*,#218,.T.);
#272=ORIENTED_EDGE('',*,*,#208,.F.);
#273=ORIENTED_EDGE('',*,*,#218,.F.);
#274=ORIENTED_EDGE('',*,*,#219,.F.);
#275=ORIENTED_EDGE('',*,*,#220,.T.);
#276=ORIENTED_EDGE('',*,*,#191,.F.);
#277=ORIENTED_EDGE('',*,*,#220,.F.);
#278=ORIENTED_EDGE('',*,*,#216,.F.);
#279=ORIENTED_EDGE('',*,*,#221,.T.);
#280=ORIENTED_EDGE('',*,*,#209,.F.);
#281=ORIENTED_EDGE('',*,*,#221,.F.);
#282=ORIENTED_EDGE('',*,*,#217,.F.);
#283=ORIENTED_EDGE('',*,*,#222,.T.);
#284=ORIENTED_EDGE('',*,*,#210,.F.);
#285=ORIENTED_EDGE('',*,*,#222,.F.);
#286=ORIENTED_EDGE('',*,*,#223,.F.);
#287=ORIENTED_EDGE('',*,*,#224,.T.);
#288=ORIENTED_EDGE('',*,*,#192,.F.);
#289=ORIENTED_EDGE('',*,*,#224,.F.);
#290=ORIENTED_EDGE('',*,*,#207,.F.);
#291=ORIENTED_EDGE('',*,*,#225,.T.);
#292=ORIENTED_EDGE('',*,*,#213,.F.);
#293=ORIENTED_EDGE('',*,*,#226,.F.);
#294=ORIENTED_EDGE('',*,*,#227,.F.);
#295=ORIENTED_EDGE('',*,*,#226,.T.);
#296=ORIENTED_EDGE('',*,*,#199,.F.);
#297=ORIENTED_EDGE('',*,*,#228,.F.);
#298=ORIENTED_EDGE('',*,*,#201,.F.);
#299=ORIENTED_EDGE('',*,*,#229,.F.);
#300=ORIENTED_EDGE('',*,*,#228,.T.);
#301=ORIENTED_EDGE('',*,*,#198,.F.);
#302=ORIENTED_EDGE('',*,*,#189,.F.);
#303=ORIENTED_EDGE('',*,*,#203,.T.);
#304=ORIENTED_EDGE('',*,*,#230,.F.);
#305=ORIENTED_EDGE('',*,*,#231,.F.);
#306=ORIENTED_EDGE('',*,*,#193,.T.);
#307=ORIENTED_EDGE('',*,*,#190,.F.);
#308=ORIENTED_EDGE('',*,*,#231,.T.);
#309=ORIENTED_EDGE('',*,*,#232,.F.);
#310=ORIENTED_EDGE('',*,*,#206,.F.);
#311=ORIENTED_EDGE('',*,*,#212,.T.);
#312=ORIENTED_EDGE('',*,*,#214,.F.);
#313=ORIENTED_EDGE('',*,*,#225,.F.);
#314=ORIENTED_EDGE('',*,*,#187,.F.);
#315=ORIENTED_EDGE('',*,*,#196,.T.);
#316=ORIENTED_EDGE('',*,*,#204,.T.);
#317=ORIENTED_EDGE('',*,*,#227,.T.);
#318=ORIENTED_EDGE('',*,*,#229,.T.);
#319=ORIENTED_EDGE('',*,*,#197,.T.);
#320=ORIENTED_EDGE('',*,*,#232,.T.);
#321=ORIENTED_EDGE('',*,*,#230,.T.);
#322=ORIENTED_EDGE('',*,*,#202,.T.);
#323=ORIENTED_EDGE('',*,*,#223,.T.);
#324=ORIENTED_EDGE('',*,*,#219,.T.);
#325=PLANE('',#371);
#326=PLANE('',#374);
#327=PLANE('',#379);
#328=PLANE('',#380);
#329=PLANE('',#384);
#330=PLANE('',#385);
#331=PLANE('',#396);
#332=PLANE('',#397);
#333=PLANE('',#399);
#334=PLANE('',#400);
#335=PLANE('',#401);
#336=PLANE('',#403);
#337=ADVANCED_FACE('',(#49,#25,#26),#325,.T.);
#338=ADVANCED_FACE('',(#50),#326,.T.);
#339=ADVANCED_FACE('',(#51),#18,.T.);
#340=ADVANCED_FACE('',(#52),#327,.T.);
#341=ADVANCED_FACE('',(#53,#27,#28,#29),#328,.T.);
#342=ADVANCED_FACE('',(#54),#329,.T.);
#343=ADVANCED_FACE('',(#55,#30,#31,#32),#330,.F.);
#344=ADVANCED_FACE('',(#56),#19,.F.);
#345=ADVANCED_FACE('',(#57),#20,.F.);
#346=ADVANCED_FACE('',(#58),#21,.F.);
#347=ADVANCED_FACE('',(#59),#22,.F.);
#348=ADVANCED_FACE('',(#60),#23,.F.);
#349=ADVANCED_FACE('',(#61),#331,.T.);
#350=ADVANCED_FACE('',(#62),#15,.T.);
#351=ADVANCED_FACE('',(#63),#332,.T.);
#352=ADVANCED_FACE('',(#64),#333,.T.);
#353=ADVANCED_FACE('',(#65),#334,.T.);
#354=ADVANCED_FACE('',(#66),#335,.T.);
#355=ADVANCED_FACE('',(#67),#24,.F.);
#356=ADVANCED_FACE('',(#68,#33,#34),#336,.F.);
#357=CLOSED_SHELL('',(#337,#338,#339,#340,#341,#342,#343,#344,#345,#346,
#347,#348,#349,#350,#351,#352,#353,#354,#355,#356));
#358=DERIVED_UNIT_ELEMENT(#360,1.);
#359=DERIVED_UNIT_ELEMENT(#623,-3.);
#360=(
MASS_UNIT()
NAMED_UNIT(*)
SI_UNIT(.KILO.,.GRAM.)
);
#361=DERIVED_UNIT((#358,#359));
#362=MEASURE_REPRESENTATION_ITEM('density measure',
POSITIVE_RATIO_MEASURE(7850.),#361);
#363=PROPERTY_DEFINITION_REPRESENTATION(#368,#365);
#364=PROPERTY_DEFINITION_REPRESENTATION(#369,#366);
#365=REPRESENTATION('material name',(#367),#620);
#366=REPRESENTATION('density',(#362),#620);
#367=DESCRIPTIVE_REPRESENTATION_ITEM('Steel','Steel');
#368=PROPERTY_DEFINITION('material property','material name',#630);
#369=PROPERTY_DEFINITION('material property','density of part',#630);
#370=AXIS2_PLACEMENT_3D('',#502,#404,#405);
#371=AXIS2_PLACEMENT_3D('',#503,#406,#407);
#372=AXIS2_PLACEMENT_3D('',#513,#412,#413);
#373=AXIS2_PLACEMENT_3D('',#515,#414,#415);
#374=AXIS2_PLACEMENT_3D('',#516,#416,#417);
#375=AXIS2_PLACEMENT_3D('',#520,#419,#420);
#376=AXIS2_PLACEMENT_3D('',#523,#422,#423);
#377=AXIS2_PLACEMENT_3D('',#524,#424,#425);
#378=AXIS2_PLACEMENT_3D('',#528,#427,#428);
#379=AXIS2_PLACEMENT_3D('',#535,#430,#431);
#380=AXIS2_PLACEMENT_3D('',#540,#435,#436);
#381=AXIS2_PLACEMENT_3D('',#549,#441,#442);
#382=AXIS2_PLACEMENT_3D('',#551,#443,#444);
#383=AXIS2_PLACEMENT_3D('',#553,#445,#446);
#384=AXIS2_PLACEMENT_3D('',#554,#447,#448);
#385=AXIS2_PLACEMENT_3D('',#558,#451,#452);
#386=AXIS2_PLACEMENT_3D('',#563,#455,#456);
#387=AXIS2_PLACEMENT_3D('',#565,#457,#458);
#388=AXIS2_PLACEMENT_3D('',#567,#459,#460);
#389=AXIS2_PLACEMENT_3D('',#568,#461,#462);
#390=AXIS2_PLACEMENT_3D('',#570,#464,#465);
#391=AXIS2_PLACEMENT_3D('',#572,#466,#467);
#392=AXIS2_PLACEMENT_3D('',#574,#469,#470);
#393=AXIS2_PLACEMENT_3D('',#576,#472,#473);
#394=AXIS2_PLACEMENT_3D('',#578,#475,#476);
#395=AXIS2_PLACEMENT_3D('',#580,#477,#478);
#396=AXIS2_PLACEMENT_3D('',#582,#480,#481);
#397=AXIS2_PLACEMENT_3D('',#607,#485,#486);
#398=AXIS2_PLACEMENT_3D('',#608,#487,#488);
#399=AXIS2_PLACEMENT_3D('',#609,#489,#490);
#400=AXIS2_PLACEMENT_3D('',#613,#493,#494);
#401=AXIS2_PLACEMENT_3D('',#615,#496,#497);
#402=AXIS2_PLACEMENT_3D('',#616,#498,#499);
#403=AXIS2_PLACEMENT_3D('',#617,#500,#501);
#404=DIRECTION('axis',(0.,0.,1.));
#405=DIRECTION('refdir',(1.,0.,0.));
#406=DIRECTION('center_axis',(-1.,0.,-3.82856869892695E-16));
#407=DIRECTION('ref_axis',(-3.82856869892695E-16,0.,1.));
#408=DIRECTION('',(0.,-1.,0.));
#409=DIRECTION('',(-3.82856869892695E-16,0.,1.));
#410=DIRECTION('',(0.,1.,0.));
#411=DIRECTION('',(3.82856869892695E-16,0.,-1.));
#412=DIRECTION('center_axis',(1.,0.,3.82856869892695E-16));
#413=DIRECTION('ref_axis',(-3.82856869892695E-16,0.,1.));
#414=DIRECTION('center_axis',(1.,0.,3.82856869892695E-16));
#415=DIRECTION('ref_axis',(-3.82856869892695E-16,0.,1.));
#416=DIRECTION('center_axis',(0.,1.,0.));
#417=DIRECTION('ref_axis',(0.,0.,1.));
#418=DIRECTION('',(-1.,0.,-3.82856869892695E-16));
#419=DIRECTION('center_axis',(0.,-1.,0.));
#420=DIRECTION('ref_axis',(5.55111512312578E-16,0.,-1.));
#421=DIRECTION('',(0.,0.,1.));
#422=DIRECTION('center_axis',(0.,1.,0.));
#423=DIRECTION('ref_axis',(1.,0.,4.16333634234434E-16));
#424=DIRECTION('center_axis',(0.,-1.,0.));
#425=DIRECTION('ref_axis',(0.,0.,-1.));
#426=DIRECTION('',(0.,1.,0.));
#427=DIRECTION('center_axis',(0.,1.,0.));
#428=DIRECTION('ref_axis',(1.,0.,4.16333634234434E-16));
#429=DIRECTION('',(0.,1.,0.));
#430=DIRECTION('center_axis',(0.,-1.,0.));
#431=DIRECTION('ref_axis',(3.82856869892695E-16,0.,-1.));
#432=DIRECTION('',(1.,0.,3.82856869892695E-16));
#433=DIRECTION('',(3.82856869892695E-16,0.,-1.));
#434=DIRECTION('',(1.,0.,3.82856869892695E-16));
#435=DIRECTION('center_axis',(0.,0.,1.));
#436=DIRECTION('ref_axis',(1.,0.,0.));
#437=DIRECTION('',(0.,-1.,0.));
#438=DIRECTION('',(-1.,0.,0.));
#439=DIRECTION('',(0.,-1.,0.));
#440=DIRECTION('',(1.,0.,0.));
#441=DIRECTION('center_axis',(0.,0.,-1.));
#442=DIRECTION('ref_axis',(1.,0.,0.));
#443=DIRECTION('center_axis',(0.,0.,-1.));
#444=DIRECTION('ref_axis',(1.,0.,0.));
#445=DIRECTION('center_axis',(0.,0.,-1.));
#446=DIRECTION('ref_axis',(1.,0.,0.));
#447=DIRECTION('center_axis',(0.,1.,0.));
#448=DIRECTION('ref_axis',(1.,0.,0.));
#449=DIRECTION('',(1.,0.,0.));
#450=DIRECTION('',(0.,0.,-1.));
#451=DIRECTION('center_axis',(0.,0.,1.));
#452=DIRECTION('ref_axis',(1.,0.,0.));
#453=DIRECTION('',(-1.,0.,0.));
#454=DIRECTION('',(0.,1.,0.));
#455=DIRECTION('center_axis',(0.,0.,1.));
#456=DIRECTION('ref_axis',(1.,0.,0.));
#457=DIRECTION('center_axis',(0.,0.,1.));
#458=DIRECTION('ref_axis',(1.,0.,0.));
#459=DIRECTION('center_axis',(0.,0.,1.));
#460=DIRECTION('ref_axis',(1.,0.,0.));
#461=DIRECTION('center_axis',(0.,0.,-1.));
#462=DIRECTION('ref_axis',(1.,0.,0.));
#463=DIRECTION('',(0.,0.,1.));
#464=DIRECTION('center_axis',(1.,0.,3.82856869892695E-16));
#465=DIRECTION('ref_axis',(-3.82856869892695E-16,0.,1.));
#466=DIRECTION('center_axis',(-1.,0.,-3.82856869892695E-16));
#467=DIRECTION('ref_axis',(-3.82856869892695E-16,0.,1.));
#468=DIRECTION('',(-1.,0.,-3.82856869892695E-16));
#469=DIRECTION('center_axis',(0.,0.,-1.));
#470=DIRECTION('ref_axis',(1.,0.,0.));
#471=DIRECTION('',(0.,0.,1.));
#472=DIRECTION('center_axis',(0.,0.,-1.));
#473=DIRECTION('ref_axis',(1.,0.,0.));
#474=DIRECTION('',(0.,0.,1.));
#475=DIRECTION('center_axis',(1.,0.,3.82856869892695E-16));
#476=DIRECTION('ref_axis',(-3.82856869892695E-16,0.,1.));
#477=DIRECTION('center_axis',(-1.,0.,-3.82856869892695E-16));
#478=DIRECTION('ref_axis',(-3.82856869892695E-16,0.,1.));
#479=DIRECTION('',(-1.,0.,-3.82856869892695E-16));
#480=DIRECTION('center_axis',(0.,-1.,0.));
#481=DIRECTION('ref_axis',(-1.,0.,0.));
#482=DIRECTION('',(0.,0.,-1.));
#483=DIRECTION('',(0.,0.,-1.));
#484=DIRECTION('',(0.676447806781196,0.,-0.736490573395824));
#485=DIRECTION('center_axis',(0.,-1.,0.));
#486=DIRECTION('ref_axis',(0.,0.,-1.));
#487=DIRECTION('center_axis',(0.,-1.,0.));
#488=DIRECTION('ref_axis',(0.676447806781197,0.,-0.736490573395824));
#489=DIRECTION('center_axis',(-3.82856869892695E-16,0.,1.));
#490=DIRECTION('ref_axis',(0.,-1.,0.));
#491=DIRECTION('',(0.,-1.,0.));
#492=DIRECTION('',(1.,0.,3.82856869892695E-16));
#493=DIRECTION('center_axis',(0.,1.,0.));
#494=DIRECTION('ref_axis',(-3.82856869892695E-16,0.,1.));
#495=DIRECTION('',(-3.82856869892695E-16,0.,1.));
#496=DIRECTION('center_axis',(-1.,0.,0.));
#497=DIRECTION('ref_axis',(0.,1.,0.));
#498=DIRECTION('center_axis',(0.,-1.,0.));
#499=DIRECTION('ref_axis',(0.,0.,-1.));
#500=DIRECTION('center_axis',(-1.,0.,-3.82856869892695E-16));
#501=DIRECTION('ref_axis',(-3.82856869892695E-16,0.,1.));
#502=CARTESIAN_POINT('',(0.,0.,0.));
#503=CARTESIAN_POINT('Origin',(11.9108408853628,38.5,-0.0891591146372139));
#504=CARTESIAN_POINT('',(11.9108408853628,80.,2.));
#505=CARTESIAN_POINT('',(11.9108408853628,-3.,2.));
#506=CARTESIAN_POINT('',(11.9108408853628,19.25,2.));
#507=CARTESIAN_POINT('',(11.9108408853628,-3.,11.9108408853628));
#508=CARTESIAN_POINT('',(11.9108408853628,-3.,-0.202127753083954));
#509=CARTESIAN_POINT('',(11.9108408853628,80.,11.9108408853628));
#510=CARTESIAN_POINT('',(11.9108408853628,-3.,11.9108408853628));
#511=CARTESIAN_POINT('',(11.9108408853628,80.,11.9108408853628));
#512=CARTESIAN_POINT('',(11.9108408853628,24.,6.26084088536279));
#513=CARTESIAN_POINT('Origin',(11.9108408853628,24.,7.91084088536279));
#514=CARTESIAN_POINT('',(11.9108408853628,56.,6.26084088536279));
#515=CARTESIAN_POINT('Origin',(11.9108408853628,56.,7.91084088536279));
#516=CARTESIAN_POINT('Origin',(13.9108408853628,80.,2.));
#517=CARTESIAN_POINT('',(13.9108408853628,80.,2.));
#518=CARTESIAN_POINT('',(11.9108408853628,80.,2.));
#519=CARTESIAN_POINT('',(9.91084088536279,80.,-2.));
#520=CARTESIAN_POINT('Origin',(9.91084088536279,80.,2.));
#521=CARTESIAN_POINT('',(9.91084088536279,80.,0.));
#522=CARTESIAN_POINT('',(9.91084088536279,80.,0.));
#523=CARTESIAN_POINT('Origin',(9.91084088536279,80.,2.));
#524=CARTESIAN_POINT('Origin',(9.91084088536279,38.5,2.));
#525=CARTESIAN_POINT('',(13.9108408853628,-3.,2.));
#526=CARTESIAN_POINT('',(13.9108408853628,19.25,2.));
#527=CARTESIAN_POINT('',(12.6166321124876,-3.,-0.945962293583295));
#528=CARTESIAN_POINT('Origin',(9.91084088536279,-3.,2.));
#529=CARTESIAN_POINT('',(9.91084088536279,-1.34,-2.));
#530=CARTESIAN_POINT('Ctrl Pts',(12.6166321124876,-3.,-0.945962293583295));
#531=CARTESIAN_POINT('Ctrl Pts',(11.8870854172751,-2.44666666666667,-1.61603232536321));
#532=CARTESIAN_POINT('Ctrl Pts',(10.9014125526262,-1.89333333333334,-2.));
#533=CARTESIAN_POINT('Ctrl Pts',(9.91084088536279,-1.34,-2.));
#534=CARTESIAN_POINT('',(9.91084088536279,19.25,-2.));
#535=CARTESIAN_POINT('Origin',(11.9108408853628,-3.,11.9108408853628));
#536=CARTESIAN_POINT('',(11.9108408853628,-3.,2.));
#537=CARTESIAN_POINT('',(13.9108408853628,-3.,11.9108408853628));
#538=CARTESIAN_POINT('',(13.9108408853628,-3.,-0.202127753083954));
#539=CARTESIAN_POINT('',(11.9108408853628,-3.,11.9108408853628));
#540=CARTESIAN_POINT('Origin',(12.,38.5,0.));
#541=CARTESIAN_POINT('',(9.91084088536279,-1.34,0.));
#542=CARTESIAN_POINT('',(9.91084088536279,19.25,0.));
#543=CARTESIAN_POINT('',(0.,80.,0.));
#544=CARTESIAN_POINT('',(24.,80.,0.));
#545=CARTESIAN_POINT('',(0.,-1.34,0.));
#546=CARTESIAN_POINT('',(0.,80.,0.));
#547=CARTESIAN_POINT('',(0.,-1.34,0.));
#548=CARTESIAN_POINT('',(2.35,40.,0.));
#549=CARTESIAN_POINT('Origin',(4.,40.,0.));
#550=CARTESIAN_POINT('',(2.35,8.,0.));
#551=CARTESIAN_POINT('Origin',(4.,8.,0.));
#552=CARTESIAN_POINT('',(2.35,72.,0.));
#553=CARTESIAN_POINT('Origin',(4.,72.,0.));
#554=CARTESIAN_POINT('Origin',(0.,80.,0.));
#555=CARTESIAN_POINT('',(0.,80.,-2.));
#556=CARTESIAN_POINT('',(24.,80.,-2.));
#557=CARTESIAN_POINT('',(0.,80.,0.));
#558=CARTESIAN_POINT('Origin',(12.,38.5,-2.));
#559=CARTESIAN_POINT('',(0.,-1.34,-2.));
#560=CARTESIAN_POINT('',(0.,-1.34,-2.));
#561=CARTESIAN_POINT('',(0.,80.,-2.));
#562=CARTESIAN_POINT('',(2.35,40.,-2.));
#563=CARTESIAN_POINT('Origin',(4.,40.,-2.));
#564=CARTESIAN_POINT('',(2.35,8.,-2.));
#565=CARTESIAN_POINT('Origin',(4.,8.,-2.));
#566=CARTESIAN_POINT('',(2.35,72.,-2.));
#567=CARTESIAN_POINT('Origin',(4.,72.,-2.));
#568=CARTESIAN_POINT('Origin',(4.,40.,0.));
#569=CARTESIAN_POINT('',(2.35,40.,0.));
#570=CARTESIAN_POINT('Origin',(11.9108408853628,24.,7.91084088536279));
#571=CARTESIAN_POINT('',(13.9108408853628,24.,6.26084088536279));
#572=CARTESIAN_POINT('Origin',(13.9108408853628,24.,7.91084088536279));
#573=CARTESIAN_POINT('',(11.9108408853628,24.,6.26084088536279));
#574=CARTESIAN_POINT('Origin',(4.,8.,0.));
#575=CARTESIAN_POINT('',(2.35,8.,0.));
#576=CARTESIAN_POINT('Origin',(4.,72.,0.));
#577=CARTESIAN_POINT('',(2.35,72.,0.));
#578=CARTESIAN_POINT('Origin',(11.9108408853628,56.,7.91084088536279));
#579=CARTESIAN_POINT('',(13.9108408853628,56.,6.26084088536279));
#580=CARTESIAN_POINT('Origin',(13.9108408853628,56.,7.91084088536279));
#581=CARTESIAN_POINT('',(11.9108408853628,56.,6.26084088536279));
#582=CARTESIAN_POINT('Origin',(9.91084088536279,-1.34,0.));
#583=CARTESIAN_POINT('',(0.,-1.34,0.));
#584=CARTESIAN_POINT('',(9.91084088536279,-1.34,0.));
#585=CARTESIAN_POINT('Ctrl Pts',(11.2637364989252,-3.,0.527018853208353));
#586=CARTESIAN_POINT('Ctrl Pts',(11.714701703446,-3.,0.036025137611137));
#587=CARTESIAN_POINT('Ctrl Pts',(12.1656669079668,-3.,-0.454968577986079));
#588=CARTESIAN_POINT('Ctrl Pts',(12.6166321124876,-3.,-0.945962293583295));
#589=CARTESIAN_POINT('Ctrl Pts',(10.8989631513189,-2.44666666666667,0.191983837318395));
#590=CARTESIAN_POINT('Ctrl Pts',(11.2285996753261,-2.44666666666667,-0.411257731735463));
#591=CARTESIAN_POINT('Ctrl Pts',(11.557448893268,-2.44666666666667,-1.01279075630935));
#592=CARTESIAN_POINT('Ctrl Pts',(11.8870854172751,-2.44666666666667,-1.61603232536321));
#593=CARTESIAN_POINT('Ctrl Pts',(10.4061267189945,-1.89333333333334,-2.1995109450743E-16));
#594=CARTESIAN_POINT('Ctrl Pts',(10.571413962762,-1.89333333333334,-0.667263632788271));
#595=CARTESIAN_POINT('Ctrl Pts',(10.7361253088587,-1.89333333333334,-1.33273636721173));
#596=CARTESIAN_POINT('Ctrl Pts',(10.9014125526262,-1.89333333333334,-2.));
#597=CARTESIAN_POINT('Ctrl Pts',(9.91084088536279,-1.34,0.));
#598=CARTESIAN_POINT('Ctrl Pts',(9.91084088536279,-1.34,-0.666666666666667));
#599=CARTESIAN_POINT('Ctrl Pts',(9.91084088536279,-1.34,-1.33333333333333));
#600=CARTESIAN_POINT('Ctrl Pts',(9.91084088536279,-1.34,-2.));
#601=CARTESIAN_POINT('',(11.2637364989252,-3.,0.527018853208353));
#602=CARTESIAN_POINT('Ctrl Pts',(9.91084088536279,-1.34,0.));
#603=CARTESIAN_POINT('Ctrl Pts',(10.4061267189945,-1.89333333333334,-2.08166817117217E-16));
#604=CARTESIAN_POINT('Ctrl Pts',(10.8989631513189,-2.44666666666667,0.191983837318395));
#605=CARTESIAN_POINT('Ctrl Pts',(11.2637364989252,-3.,0.527018853208353));
#606=CARTESIAN_POINT('',(11.2637364989252,-3.,0.527018853208353));
#607=CARTESIAN_POINT('Origin',(11.9108408853628,-3.,2.));
#608=CARTESIAN_POINT('Origin',(9.91084088536279,-3.,2.));
#609=CARTESIAN_POINT('Origin',(11.9108408853628,80.,11.9108408853628));
#610=CARTESIAN_POINT('',(13.9108408853628,80.,11.9108408853628));
#611=CARTESIAN_POINT('',(13.9108408853628,-3.,11.9108408853628));
#612=CARTESIAN_POINT('',(11.9108408853628,80.,11.9108408853628));
#613=CARTESIAN_POINT('Origin',(11.9108408853628,80.,-12.0891591146372));
#614=CARTESIAN_POINT('',(13.9108408853628,80.,11.9108408853628));
#615=CARTESIAN_POINT('Origin',(0.,-1.34,0.));
#616=CARTESIAN_POINT('Origin',(9.91084088536279,38.5,2.));
#617=CARTESIAN_POINT('Origin',(13.9108408853628,38.5,-0.0891591146372139));
#618=UNCERTAINTY_MEASURE_WITH_UNIT(LENGTH_MEASURE(0.01),#622,
'DISTANCE_ACCURACY_VALUE',
'Maximum model space distance between geometric entities at asserted c
onnectivities');
#619=UNCERTAINTY_MEASURE_WITH_UNIT(LENGTH_MEASURE(0.01),#622,
'DISTANCE_ACCURACY_VALUE',
'Maximum model space distance between geometric entities at asserted c
onnectivities');
#620=(
GEOMETRIC_REPRESENTATION_CONTEXT(3)
GLOBAL_UNCERTAINTY_ASSIGNED_CONTEXT((#618))
GLOBAL_UNIT_ASSIGNED_CONTEXT((#622,#624,#625))
REPRESENTATION_CONTEXT('','3D')
);
#621=(
GEOMETRIC_REPRESENTATION_CONTEXT(3)
GLOBAL_UNCERTAINTY_ASSIGNED_CONTEXT((#619))
GLOBAL_UNIT_ASSIGNED_CONTEXT((#622,#624,#625))
REPRESENTATION_CONTEXT('','3D')
);
#622=(
LENGTH_UNIT()
NAMED_UNIT(*)
SI_UNIT(.MILLI.,.METRE.)
);
#623=(
LENGTH_UNIT()
NAMED_UNIT(*)
SI_UNIT($,.METRE.)
);
#624=(
NAMED_UNIT(*)
PLANE_ANGLE_UNIT()
SI_UNIT($,.RADIAN.)
);
#625=(
NAMED_UNIT(*)
SI_UNIT($,.STERADIAN.)
SOLID_ANGLE_UNIT()
);
#626=SHAPE_DEFINITION_REPRESENTATION(#627,#628);
#627=PRODUCT_DEFINITION_SHAPE('',$,#630);
#628=SHAPE_REPRESENTATION('',(#370),#620);
#629=PRODUCT_DEFINITION_CONTEXT('part definition',#634,'design');
#630=PRODUCT_DEFINITION('2026-09-09-22-43-09-613',
'corner_bracket_mirrored',#631,#629);
#631=PRODUCT_DEFINITION_FORMATION('',$,#636);
#632=PRODUCT_RELATED_PRODUCT_CATEGORY('corner_bracket_mirrored',
'corner_bracket_mirrored',(#636));
#633=APPLICATION_PROTOCOL_DEFINITION('international standard',
'automotive_design',2009,#634);
#634=APPLICATION_CONTEXT(
'Core Data for Automotive Mechanical Design Process');
#635=PRODUCT_CONTEXT('part definition',#634,'mechanical');
#636=PRODUCT('2026-09-09-22-43-09-613','corner_bracket_mirrored',
'Left rear corner bracket, handed upper closure. Existing five rivet s
tations unchanged.',(#635));
#637=PRESENTATION_STYLE_ASSIGNMENT((#639));
#638=PRESENTATION_STYLE_ASSIGNMENT((#640));
#639=SURFACE_STYLE_USAGE(.BOTH.,#641);
#640=SURFACE_STYLE_USAGE(.BOTH.,#642);
#641=SURFACE_SIDE_STYLE('',(#643));
#642=SURFACE_SIDE_STYLE('',(#644));
#643=SURFACE_STYLE_FILL_AREA(#645);
#644=SURFACE_STYLE_FILL_AREA(#646);
#645=FILL_AREA_STYLE('Steel - Satin',(#647));
#646=FILL_AREA_STYLE('Plastic - Matte (Black)',(#648));
#647=FILL_AREA_STYLE_COLOUR('Steel - Satin',#649);
#648=FILL_AREA_STYLE_COLOUR('Plastic - Matte (Black)',#650);
#649=COLOUR_RGB('Steel - Satin',0.627450980392157,0.627450980392157,0.627450980392157);
#650=COLOUR_RGB('Plastic - Matte (Black)',0.0980392156862745,0.0980392156862745,
0.0980392156862745);
ENDSEC;
END-ISO-10303-21;
