0
SECTION
2
HEADER
9
$INSUNITS
70
4
9
$ACADVER
1
AC1014
9
$HANDSEED
5
FFFF
0
ENDSEC
0
SECTION
2
TABLES
0
TABLE
2
VPORT
5
8
100
AcDbSymbolTable
0
ENDTAB
0
TABLE
2
LTYPE
5
5
100
AcDbSymbolTable
0
LTYPE
5
14
100
AcDbSymbolTableRecord
100
AcDbLinetypeTableRecord
2
BYBLOCK
70
0
0
LTYPE
5
15
100
AcDbSymbolTableRecord
100
AcDbLinetypeTableRecord
2
BYLAYER
70
0
0
LTYPE
5
16
100
AcDbSymbolTableRecord
100
AcDbLinetypeTableRecord
2
DASHED
70
0
3
Dashed __ __ __ __ __ __ __ __ __ __ __ __ __ _
72
65
73
2
40
0.75
49
0.5
74
0
49
-0.25
74
0
0
ENDTAB
0
TABLE
2
LAYER
5
2
100
AcDbSymbolTable
70
2
0
LAYER
5
50
100
AcDbSymbolTableRecord
100
AcDbLayerTableRecord
2
0
70
0
62
7
6
CONTINUOUS
0
ENDTAB
0
TABLE
2
STYLE
5
3
100
AcDbSymbolTable
70
1
0
STYLE
5
11
100
AcDbSymbolTableRecord
100
AcDbTextStyleTableRecord
2
STANDARD
70
0
0
ENDTAB
0
TABLE
2
VIEW
5
6
100
AcDbSymbolTable
70
0
0
ENDTAB
0
TABLE
2
UCS
5
7
100
AcDbSymbolTable
70
0
0
ENDTAB
0
TABLE
2
APPID
5
9
100
AcDbSymbolTable
70
2
0
APPID
5
12
100
AcDbSymbolTableRecord
100
AcDbRegAppTableRecord
2
ACAD
70
0
0
ENDTAB
0
TABLE
2
DIMSTYLE
5
A
100
AcDbSymbolTable
70
1
0
ENDTAB
0
TABLE
2
BLOCK_RECORD
5
1
100
AcDbSymbolTable
70
1
0
BLOCK_RECORD
5
1F
100
AcDbSymbolTableRecord
100
AcDbBlockTableRecord
2
*MODEL_SPACE
0
BLOCK_RECORD
5
1B
100
AcDbSymbolTableRecord
100
AcDbBlockTableRecord
2
*PAPER_SPACE
0
ENDTAB
0
ENDSEC
0
SECTION
2
BLOCKS
0
BLOCK
5
20
100
AcDbEntity
100
AcDbBlockBegin
2
*MODEL_SPACE
0
ENDBLK
5
21
100
AcDbEntity
100
AcDbBlockEnd
0
BLOCK
5
1C
100
AcDbEntity
100
AcDbBlockBegin
2
*PAPER_SPACE
0
ENDBLK
5
1D
100
AcDbEntity
100
AcDbBlockEnd
0
ENDSEC
0
SECTION
2
ENTITIES
0
LWPOLYLINE
5
100
100
AcDbEntity
8
OUTER_PROFILES
100
AcDbPolyline
90
4
70
1
43
0.0
10
849.79999999999995
20
445.17745335777869
10
849.79999999999995
20
0
10
0
20
0
10
0
20
445.17745335777869
0
CIRCLE
5
101
100
AcDbEntity
8
INTERIOR_PROFILES
100
AcDbCircle
10
-222.61428571428559
20
6.455420442681401
30
0
40
2.2500000000000142
210
0
220
0
230
-1
0
CIRCLE
5
102
100
AcDbEntity
8
INTERIOR_PROFILES
100
AcDbCircle
10
-627.1857142857142
20
6.455420442681401
30
0
40
2.2500000000000142
210
0
220
0
230
-1
0
CIRCLE
5
103
100
AcDbEntity
8
INTERIOR_PROFILES
100
AcDbCircle
10
-728.32857142857142
20
6.455420442681401
30
0
40
2.2499999999999432
210
0
220
0
230
-1
0
CIRCLE
5
104
100
AcDbEntity
8
INTERIOR_PROFILES
100
AcDbCircle
10
-323.75714285714281
20
6.455420442681401
30
0
40
2.2500000000000142
210
0
220
0
230
-1
0
CIRCLE
5
105
100
AcDbEntity
8
INTERIOR_PROFILES
100
AcDbCircle
10
-121.47142857142853
20
6.455420442681401
30
0
40
2.2499999999999432
210
0
220
0
230
-1
0
CIRCLE
5
106
100
AcDbEntity
8
INTERIOR_PROFILES
100
AcDbCircle
10
-526.04285714285697
20
6.455420442681401
30
0
40
2.2500000000000142
210
0
220
0
230
-1
0
CIRCLE
5
107
100
AcDbEntity
8
INTERIOR_PROFILES
100
AcDbCircle
10
-829.47142857142853
20
6.455420442681401
30
0
40
2.2499999999999432
210
0
220
0
230
-1
0
CIRCLE
5
108
100
AcDbEntity
8
INTERIOR_PROFILES
100
AcDbCircle
10
-424.89999999999998
20
6.455420442681401
30
0
40
2.2500000000000142
210
0
220
0
230
-1
0
CIRCLE
5
109
100
AcDbEntity
8
INTERIOR_PROFILES
100
AcDbCircle
10
-20.328571428571394
20
6.455420442681401
30
0
40
2.2499999999999432
210
0
220
0
230
-1
0
LWPOLYLINE
5
110
100
AcDbEntity
8
INTERIOR_PROFILES
100
AcDbPolyline
90
4
70
1
43
0.0
10
832.47142857142853
20
431.20587048373835
42
-0.99999999999999989
10
826.47142857142853
20
431.20587048373835
10
826.47142857142842
20
435.20587048373835
42
-0.99999999999999989
10
832.47142857142831
20
435.20587048373835
0
LWPOLYLINE
5
111
100
AcDbEntity
8
INTERIOR_PROFILES
100
AcDbPolyline
90
4
70
1
43
0.0
10
23.328571428571365
20
431.20587048373835
42
-0.99999999999999989
10
17.328571428571422
20
431.20587048373835
10
17.328571428571422
20
435.20587048373835
42
-0.99999999999999989
10
23.328571428571081
20
435.20587048373835
0
LWPOLYLINE
5
112
100
AcDbEntity
8
INTERIOR_PROFILES
100
AcDbPolyline
90
4
70
1
43
0.0
10
124.4714285714285
20
431.20587048373835
42
-0.99999999999999989
10
118.47142857142856
20
431.20587048373835
10
118.47142857142842
20
435.20587048373835
42
-0.99999999999999989
10
124.47142857142808
20
435.20587048373835
0
LWPOLYLINE
5
113
100
AcDbEntity
8
INTERIOR_PROFILES
100
AcDbPolyline
90
4
70
1
43
0.0
10
225.61428571428559
20
431.20587048373835
42
-0.99999999999999989
10
219.61428571428593
20
431.20587048373835
10
219.61428571428556
20
435.20587048373835
42
-0.99999999999999989
10
225.61428571428536
20
435.20587048373835
0
LWPOLYLINE
5
114
100
AcDbEntity
8
INTERIOR_PROFILES
100
AcDbPolyline
90
4
70
1
43
0.0
10
326.75714285714275
20
431.20587048373835
42
-0.99999999999999989
10
320.75714285714287
20
431.20587048373835
10
320.75714285714287
20
435.20587048373835
42
-0.99999999999999989
10
326.75714285714264
20
435.20587048373835
0
LWPOLYLINE
5
115
100
AcDbEntity
8
INTERIOR_PROFILES
100
AcDbPolyline
90
4
70
1
43
0.0
10
731.32857142857131
20
431.20587048373835
42
-0.99999999999999989
10
725.32857142857142
20
431.20587048373835
10
725.32857142857119
20
435.20587048373835
42
-0.99999999999999989
10
731.32857142857119
20
435.20587048373835
0
LWPOLYLINE
5
116
100
AcDbEntity
8
INTERIOR_PROFILES
100
AcDbPolyline
90
4
70
1
43
0.0
10
529.04285714285709
20
431.20587048373835
42
-0.99999999999999989
10
523.04285714285709
20
431.20587048373835
10
523.04285714285709
20
435.20587048373835
42
-0.99999999999999989
10
529.04285714285652
20
435.20587048373835
0
LWPOLYLINE
5
117
100
AcDbEntity
8
INTERIOR_PROFILES
100
AcDbPolyline
90
4
70
1
43
0.0
10
427.89999999999992
20
431.20587048373835
42
-0.99999999999999989
10
421.89999999999986
20
431.20587048373835
10
421.89999999999992
20
435.20587048373835
42
-0.99999999999999989
10
427.89999999999986
20
435.20587048373835
0
LWPOLYLINE
5
118
100
AcDbEntity
8
INTERIOR_PROFILES
100
AcDbPolyline
90
4
70
1
43
0.0
10
630.1857142857142
20
431.20587048373835
42
-0.99999999999999989
10
624.18571428571431
20
431.20587048373835
10
624.18571428571408
20
435.20587048373835
42
-0.99999999999999989
10
630.18571428571408
20
435.20587048373835
0
LWPOLYLINE
5
119
100
AcDbEntity
8
INTERIOR_PROFILES
100
AcDbPolyline
90
4
70
1
43
0.0
10
615.7892857142856
20
141.28069779582958
10
537.43928571428557
20
141.28069779582958
10
537.43928571428557
20
25.230618253372796
10
615.7892857142856
20
25.230618253372796
0
LWPOLYLINE
5
120
100
AcDbEntity
8
INTERIOR_PROFILES
100
AcDbPolyline
90
4
70
1
43
0.0
10
603.61428571428564
20
325.63240383143489
42
-0.99999999999999989
10
603.61428571428564
20
319.23240383143514
10
549.61428571428564
20
319.23240383143514
42
-0.99999999999999989
10
549.61428571428564
20
325.63240383143517
0
LWPOLYLINE
5
121
100
AcDbEntity
8
INTERIOR_PROFILES
100
AcDbPolyline
90
4
70
1
43
0.0
10
448.47142857142842
20
319.23240383143559
42
-0.99999999999999989
10
448.47142857142842
20
325.63240383143517
10
502.47142857142848
20
325.63240383143517
42
-0.99999999999999989
10
502.47142857142848
20
319.23240383143559
0
LWPOLYLINE
5
122
100
AcDbEntity
8
INTERIOR_PROFILES
100
AcDbPolyline
90
4
70
1
43
0.0
10
615.7892857142856
20
192.97668986871867
10
615.7892857142856
20
309.02676941117545
10
537.43928571428557
20
309.02676941117545
10
537.43928571428557
20
192.97668986871867
0
LWPOLYLINE
5
123
100
AcDbEntity
8
INTERIOR_PROFILES
100
AcDbPolyline
90
4
70
1
43
0.0
10
31.724999999999852
20
25.230618253372796
10
110.07499999999993
20
25.230618253372796
10
110.07499999999993
20
141.28069779582958
10
31.724999999999852
20
141.28069779582958
0
LWPOLYLINE
5
124
100
AcDbEntity
8
INTERIOR_PROFILES
100
AcDbPolyline
90
4
70
1
43
0.0
10
704.75714285714275
20
157.88633221608933
10
650.75714285714275
20
157.88633221608919
42
0.99999999999999989
10
650.75714285714275
20
151.48633221608932
10
704.75714285714275
20
151.48633221608932
42
0.99999999999999989
0
LWPOLYLINE
5
125
100
AcDbEntity
8
INTERIOR_PROFILES
100
AcDbPolyline
90
4
70
1
43
0.0
10
751.89999999999998
20
151.48633221608932
10
805.89999999999986
20
151.48633221608929
42
0.99999999999999989
10
805.89999999999986
20
157.88633221608936
10
751.89999999999998
20
157.88633221608933
42
0.99999999999999989
0
LWPOLYLINE
5
126
100
AcDbEntity
8
INTERIOR_PROFILES
100
AcDbPolyline
90
4
70
1
43
0.0
10
300.18571428571414
20
157.88633221608933
10
246.18571428571408
20
157.8863322160893
42
0.99999999999999989
10
246.1857142857142
20
151.48633221608935
10
300.18571428571425
20
151.48633221608941
42
0.99999999999999989
0
LWPOLYLINE
5
127
100
AcDbEntity
8
INTERIOR_PROFILES
100
AcDbPolyline
90
4
70
1
43
0.0
10
716.93214285714271
20
141.28069779582958
10
638.5821428571428
20
141.28069779582958
10
638.5821428571428
20
25.230618253372796
10
716.93214285714271
20
25.230618253372796
0
LWPOLYLINE
5
128
100
AcDbEntity
8
INTERIOR_PROFILES
100
AcDbPolyline
90
4
70
1
43
0.0
10
514.6464285714286
20
192.97668986871867
10
514.6464285714286
20
309.02676941117545
10
436.29642857142846
20
309.02676941117545
10
436.29642857142846
20
192.97668986871867
0
LWPOLYLINE
5
129
100
AcDbEntity
8
INTERIOR_PROFILES
100
AcDbPolyline
90
4
70
1
43
0.0
10
401.32857142857131
20
157.88633221608933
42
-0.99999999999999989
10
401.32857142857131
20
151.48633221608932
10
347.32857142857137
20
151.48633221608935
42
-0.99999999999999989
10
347.32857142857137
20
157.8863322160893
0
LWPOLYLINE
5
130
100
AcDbEntity
8
INTERIOR_PROFILES
100
AcDbPolyline
90
4
70
1
43
0.0
10
335.15357142857141
20
141.28069779582958
10
335.15357142857141
20
25.230618253372796
10
413.50357142857138
20
25.230618253372796
10
413.50357142857138
20
141.28069779582958
0
LWPOLYLINE
5
131
100
AcDbEntity
8
INTERIOR_PROFILES
100
AcDbPolyline
90
4
70
1
43
0.0
10
312.36071428571404
20
141.28069779582958
10
234.01071428571413
20
141.28069779582958
10
234.01071428571413
20
25.230618253372796
10
312.36071428571404
20
25.230618253372796
0
LWPOLYLINE
5
132
100
AcDbEntity
8
INTERIOR_PROFILES
100
AcDbPolyline
90
4
70
1
43
0.0
10
43.900000000000148
20
151.48633221608924
42
-0.99999999999999989
10
43.900000000000148
20
157.88633221608939
10
97.89999999999992
20
157.88633221608936
42
-0.99999999999999989
10
97.89999999999992
20
151.48633221608944
0
LWPOLYLINE
5
133
100
AcDbEntity
8
INTERIOR_PROFILES
100
AcDbPolyline
90
4
70
1
43
0.0
10
132.86785714285699
20
25.230618253372796
10
211.21785714285693
20
25.230618253372796
10
211.21785714285693
20
141.28069779582958
10
132.86785714285699
20
141.28069779582958
0
LWPOLYLINE
5
134
100
AcDbEntity
8
INTERIOR_PROFILES
100
AcDbPolyline
90
4
70
1
43
0.0
10
448.47142857142842
20
151.48633221608932
10
502.47142857142831
20
151.48633221608929
42
0.99999999999999989
10
502.47142857142848
20
157.88633221608936
10
448.47142857142853
20
157.88633221608939
42
0.99999999999999989
0
LWPOLYLINE
5
135
100
AcDbEntity
8
INTERIOR_PROFILES
100
AcDbPolyline
90
4
70
1
43
0.0
10
549.61428571428564
20
151.48633221608932
42
-0.99999999999999989
10
549.61428571428564
20
157.88633221608933
10
603.61428571428564
20
157.88633221608933
42
-0.99999999999999989
10
603.61428571428564
20
151.48633221608932
0
LWPOLYLINE
5
136
100
AcDbEntity
8
INTERIOR_PROFILES
100
AcDbPolyline
90
4
70
1
43
0.0
10
199.04285714285706
20
157.88633221608947
42
-0.99999999999999989
10
199.04285714285706
20
151.48633221608932
10
145.04285714285714
20
151.48633221608935
42
-0.99999999999999989
10
145.04285714285714
20
157.8863322160893
0
LWPOLYLINE
5
137
100
AcDbEntity
8
INTERIOR_PROFILES
100
AcDbPolyline
90
8
70
1
43
0.0
10
651.45357142857142
20
381.07668986871863
10
651.45357142857142
20
301.57668986871857
42
0.41421356237309853
10
654.45357142857131
20
298.57668986871857
10
802.20357142857119
20
298.57668986871852
42
0.41421356237311585
10
805.20357142857142
20
301.57668986871857
10
805.20357142857142
20
381.07668986871863
42
0.4142135623730881
10
802.20357142857119
20
384.07668986871863
10
654.45357142857131
20
384.07668986871863
42
0.41421356237309509
0
LWPOLYLINE
5
138
100
AcDbEntity
8
INTERIOR_PROFILES
100
AcDbPolyline
90
4
70
1
43
0.0
10
436.29642857142846
20
25.230618253372796
10
514.6464285714286
20
25.230618253372796
10
514.6464285714286
20
141.28069779582958
10
436.29642857142846
20
141.28069779582958
0
LWPOLYLINE
5
139
100
AcDbEntity
8
INTERIOR_PROFILES
100
AcDbPolyline
90
4
70
1
43
0.0
10
818.07499999999993
20
25.230618253372796
10
818.07499999999993
20
141.28069779582958
10
739.72499999999991
20
141.28069779582958
10
739.72499999999991
20
25.230618253372796
0
LWPOLYLINE
5
140
100
AcDbEntity
8
INTERIOR_PROFILES
100
AcDbPolyline
90
8
70
1
43
0.0
10
393.51428571428573
20
195.97668986871867
10
393.51428571428573
20
381.07668986871863
42
0.41421356237308121
10
390.51428571428573
20
384.07668986871863
10
54.714285714285609
20
384.07668986871852
42
0.41421356237310197
10
51.714285714285495
20
381.07668986871863
10
51.71428571428546
20
195.97668986871867
42
0.4142135623730534
10
54.714285714285609
20
192.97668986871867
10
390.51428571428573
20
192.97668986871867
42
0.41421356237308465
0
CIRCLE
5
141
100
AcDbEntity
8
INTERIOR_PROFILES
100
AcDbCircle
10
-728.32857142857142
20
242.23651104240403
30
0
40
33.700000000000045
210
0
220
0
230
-1
0
ENDSEC
0
SECTION
2
OBJECTS
0
DICTIONARY
5
C
100
AcDbDictionary
3
ACAD_GROUP
350
D
3
ACAD_MLINESTYLE
350
17
0
DICTIONARY
5
D
100
AcDbDictionary
0
DICTIONARY
5
1A
330
C
100
AcDbDictionary
0
DICTIONARY
5
17
100
AcDbDictionary
0
ENDSEC
0
EOF
