0
SECTION
2
HEADER
9
$INSUNITS
70
4
9
$ACADVER
1
AC1014
9
$HANDSEED
5
FFFF
0
ENDSEC
0
SECTION
2
TABLES
0
TABLE
2
VPORT
5
8
100
AcDbSymbolTable
0
ENDTAB
0
TABLE
2
LTYPE
5
5
100
AcDbSymbolTable
0
LTYPE
5
14
100
AcDbSymbolTableRecord
100
AcDbLinetypeTableRecord
2
BYBLOCK
70
0
0
LTYPE
5
15
100
AcDbSymbolTableRecord
100
AcDbLinetypeTableRecord
2
BYLAYER
70
0
0
LTYPE
5
16
100
AcDbSymbolTableRecord
100
AcDbLinetypeTableRecord
2
DASHED
70
0
3
Dashed __ __ __ __ __ __ __ __ __ __ __ __ __ _
72
65
73
2
40
0.75
49
0.5
74
0
49
-0.25
74
0
0
ENDTAB
0
TABLE
2
LAYER
5
2
100
AcDbSymbolTable
70
2
0
LAYER
5
50
100
AcDbSymbolTableRecord
100
AcDbLayerTableRecord
2
0
70
0
62
7
6
CONTINUOUS
0
ENDTAB
0
TABLE
2
STYLE
5
3
100
AcDbSymbolTable
70
1
0
STYLE
5
11
100
AcDbSymbolTableRecord
100
AcDbTextStyleTableRecord
2
STANDARD
70
0
0
ENDTAB
0
TABLE
2
VIEW
5
6
100
AcDbSymbolTable
70
0
0
ENDTAB
0
TABLE
2
UCS
5
7
100
AcDbSymbolTable
70
0
0
ENDTAB
0
TABLE
2
APPID
5
9
100
AcDbSymbolTable
70
2
0
APPID
5
12
100
AcDbSymbolTableRecord
100
AcDbRegAppTableRecord
2
ACAD
70
0
0
ENDTAB
0
TABLE
2
DIMSTYLE
5
A
100
AcDbSymbolTable
70
1
0
ENDTAB
0
TABLE
2
BLOCK_RECORD
5
1
100
AcDbSymbolTable
70
1
0
BLOCK_RECORD
5
1F
100
AcDbSymbolTableRecord
100
AcDbBlockTableRecord
2
*MODEL_SPACE
0
BLOCK_RECORD
5
1B
100
AcDbSymbolTableRecord
100
AcDbBlockTableRecord
2
*PAPER_SPACE
0
ENDTAB
0
ENDSEC
0
SECTION
2
BLOCKS
0
BLOCK
5
20
100
AcDbEntity
100
AcDbBlockBegin
2
*MODEL_SPACE
0
ENDBLK
5
21
100
AcDbEntity
100
AcDbBlockEnd
0
BLOCK
5
1C
100
AcDbEntity
100
AcDbBlockBegin
2
*PAPER_SPACE
0
ENDBLK
5
1D
100
AcDbEntity
100
AcDbBlockEnd
0
ENDSEC
0
SECTION
2
ENTITIES
0
LWPOLYLINE
5
100
100
AcDbEntity
8
OUTER_PROFILES
100
AcDbPolyline
90
70
70
1
43
0.0
10
869.36507413437096
20
533.24166483255021
10
956.63177582161916
20
139.54984017530484
10
941.32499221250578
20
136.15690073550149
10
941.36827414351626
20
135.96164020582899
10
943.80903076442314
20
136.50266434346071
10
935.98389363234833
20
119.28736265289629
10
934.45548845998121
20
116.28736265289632
10
934.27727547756376
20
116.02621776356663
10
934.10077878358823
20
115.76507287423702
10
933.9276981377003
20
115.50392798490726
10
933.75970040113555
20
115.24278309557758
10
933.59840348393391
20
114.98163820624804
10
933.44536076358179
20
114.72049331691835
10
933.30204612513808
20
114.45934842758874
10
933.16983976691472
20
114.19820353825912
10
933.04406848319695
20
113.93705864892944
10
932.89129680662211
20
113.67591375959975
10
932.71165359610961
20
113.41476887027014
10
932.51234189550644
20
113.15362398094038
10
932.30248315794381
20
112.89247909161077
10
932.09660401302995
20
112.63133420228122
10
931.92480661368563
20
112.37018931295147
10
931.85054000623336
20
112.10904442362185
10
931.85054000623336
20
98.109044423621938
10
849.98915911463723
20
98.109044423621938
10
849.98915911463723
20
116.78736265289629
10
845.81084088536284
20
114.08736265289633
10
849.80000000000007
20
109.90904442362201
10
849.80000000000007
20
18.810292426481752
10
849.80000000000007
20
0
10
0
20
0
10
0
20
18.810298339277551
10
1.4210854715202004e-13
20
109.90904442362201
10
3.9891591146373173
20
114.08736265289633
10
-0.18915911463722068
20
116.78736265289629
10
-0.18915911463722068
20
98.109044423621938
10
-82.050540006233206
20
98.109044423621938
10
-82.050540006233206
20
112.10904442362185
10
-82.12480661368545
20
112.37018931295168
10
-82.296604013029935
20
112.63133420228137
10
-82.5024831579438
20
112.89247909161084
10
-82.712341895506398
20
113.15362398094052
10
-82.911653596109574
20
113.41476887027014
10
-83.091296806622097
20
113.67591375959989
10
-83.244068483196969
20
113.93705864892944
10
-83.369839766914566
20
114.19820353825919
10
-83.502046125138065
20
114.45934842758881
10
-83.645360763581778
20
114.72049331691842
10
-83.798403483933726
20
114.98163820624811
10
-83.959700401135393
20
115.24278309557765
10
-84.127698137700122
20
115.50392798490726
10
-84.300778783588015
20
115.76507287423709
10
-84.47727547756358
20
116.02621776356663
10
-84.655488459981001
20
116.28736265289632
10
-86.183893632348116
20
119.28736265289629
10
-94.009030764423045
20
136.50266434346071
10
-91.568274143516248
20
135.96164020582899
10
-91.524992212505651
20
136.15690073550149
10
-106.83177582161903
20
139.54984017530501
10
-19.565074134370946
20
533.24166483255021
10
-6.7860934259100247
20
530.40904442362194
10
-0.18915911463722068
20
530.40904442362194
10
3.9891591146373173
20
528.90904442362194
10
0.98915911463734574
20
533.08736265289633
10
0.98915911463734574
20
539.18214249650032
10
848.81084088536284
20
539.18214249650032
10
848.81084088536284
20
533.08736265289633
10
845.81084088536284
20
528.90904442362194
10
849.98915911463723
20
530.40904442362194
10
856.58609342591012
20
530.40904442362194
0
LWPOLYLINE
5
101
100
AcDbEntity
8
INTERIOR_PROFILES
100
AcDbPolyline
90
4
70
1
43
0.0
10
867.90000000000009
20
206.99820353825913
42
-0.99999999999999989
10
871.90000000000009
20
206.99820353825913
10
871.90000000000009
20
170.99820353825913
42
-0.99999999999999989
10
867.90000000000009
20
170.99820353825913
0
LWPOLYLINE
5
102
100
AcDbEntity
8
INTERIOR_PROFILES
100
AcDbPolyline
90
4
70
1
43
0.0
10
863.90000000000009
20
160.99820353825913
42
-0.99999999999999989
10
859.90000000000009
20
160.99820353825913
10
859.90000000000009
20
182.99820353825908
42
-0.99999999999999989
10
863.89999999999998
20
182.99820353825913
0
LWPOLYLINE
5
103
100
AcDbEntity
8
INTERIOR_PROFILES
100
AcDbPolyline
90
4
70
1
43
0.0
10
863.89999999999998
20
242.99820353825919
42
-0.99999999999999989
10
859.89999999999998
20
242.99820353825911
10
859.90000000000009
20
278.99820353825908
42
-0.99999999999999989
10
863.89999999999998
20
278.99820353825913
0
LWPOLYLINE
5
104
100
AcDbEntity
8
INTERIOR_PROFILES
100
AcDbPolyline
90
4
70
1
43
0.0
10
863.89999999999998
20
194.99820353825902
42
-0.99999999999999989
10
859.89999999999998
20
194.99820353825911
10
859.90000000000009
20
230.99820353825913
42
-0.99999999999999989
10
863.89999999999998
20
230.99820353825913
0
LWPOLYLINE
5
105
100
AcDbEntity
8
INTERIOR_PROFILES
100
AcDbPolyline
90
4
70
1
43
0.0
10
871.90000000000009
20
218.99820353825919
42
-0.99999999999999989
10
867.90000000000009
20
218.99820353825913
10
867.90000000000009
20
254.99820353825911
42
-0.99999999999999989
10
871.90000000000009
20
254.99820353825911
0
LWPOLYLINE
5
106
100
AcDbEntity
8
INTERIOR_PROFILES
100
AcDbPolyline
90
4
70
1
43
0.0
10
879.90000000000009
20
242.99820353825919
42
-0.99999999999999989
10
875.90000000000009
20
242.99820353825911
10
875.90000000000009
20
278.99820353825908
42
-0.99999999999999989
10
879.90000000000009
20
278.99820353825913
0
LWPOLYLINE
5
107
100
AcDbEntity
8
INTERIOR_PROFILES
100
AcDbPolyline
90
4
70
1
43
0.0
10
879.90000000000009
20
160.99820353825913
42
-0.99999999999999989
10
875.90000000000009
20
160.99820353825913
10
875.90000000000009
20
182.99820353825908
42
-0.99999999999999989
10
879.90000000000009
20
182.99820353825913
0
LWPOLYLINE
5
108
100
AcDbEntity
8
INTERIOR_PROFILES
100
AcDbPolyline
90
4
70
1
43
0.0
10
887.90000000000009
20
170.99820353825913
42
-0.99999999999999989
10
883.89999999999998
20
170.99820353825913
10
883.89999999999998
20
206.99820353825913
42
-0.99999999999999989
10
887.90000000000009
20
206.99820353825913
0
LWPOLYLINE
5
109
100
AcDbEntity
8
INTERIOR_PROFILES
100
AcDbPolyline
90
4
70
1
43
0.0
10
895.90000000000009
20
194.99820353825911
42
-0.99999999999999989
10
891.89999999999998
20
194.99820353825911
10
891.89999999999998
20
230.99820353825916
42
-0.99999999999999989
10
895.90000000000009
20
230.99820353825913
0
LWPOLYLINE
5
110
100
AcDbEntity
8
INTERIOR_PROFILES
100
AcDbPolyline
90
4
70
1
43
0.0
10
903.90000000000009
20
218.99820353825916
42
-0.99999999999999989
10
899.90000000000009
20
218.99820353825913
10
899.89999999999998
20
254.99820353825908
42
-0.99999999999999989
10
903.89999999999998
20
254.99820353825911
0
LWPOLYLINE
5
111
100
AcDbEntity
8
INTERIOR_PROFILES
100
AcDbPolyline
90
4
70
1
43
0.0
10
911.90000000000009
20
194.99820353825902
42
-0.99999999999999989
10
907.90000000000009
20
194.99820353825911
10
907.90000000000009
20
230.99820353825913
42
-0.99999999999999989
10
911.90000000000009
20
230.99820353825913
0
LWPOLYLINE
5
112
100
AcDbEntity
8
INTERIOR_PROFILES
100
AcDbPolyline
90
4
70
1
43
0.0
10
919.90000000000009
20
170.99820353825919
42
-0.99999999999999989
10
915.90000000000009
20
170.99820353825913
10
915.90000000000009
20
204.18002172007732
42
-0.99999999999999989
10
919.90000000000009
20
204.18002172007732
0
CIRCLE
5
113
100
AcDbEntity
8
INTERIOR_PROFILES
100
AcDbCircle
10
-868.98915911463735
20
361.40126655841726
30
0
40
2.3000000000000398
210
0
220
0
230
-1
0
CIRCLE
5
114
100
AcDbEntity
8
INTERIOR_PROFILES
100
AcDbCircle
10
-424.90000000000009
20
12.535444829001463
30
0
40
1.25
210
0
220
0
230
-1
0
CIRCLE
5
115
100
AcDbEntity
8
INTERIOR_PROFILES
100
AcDbCircle
10
-222.61428571428576
20
12.535444829001463
30
0
40
1.25
210
0
220
0
230
-1
0
CIRCLE
5
116
100
AcDbEntity
8
INTERIOR_PROFILES
100
AcDbCircle
10
-20.328571428571536
20
12.535444829001463
30
0
40
1.25
210
0
220
0
230
-1
0
CIRCLE
5
117
100
AcDbEntity
8
INTERIOR_PROFILES
100
AcDbCircle
10
-728.32857142857154
20
12.535444829001463
30
0
40
1.25
210
0
220
0
230
-1
0
CIRCLE
5
118
100
AcDbEntity
8
INTERIOR_PROFILES
100
AcDbCircle
10
-526.0428571428572
20
12.535444829001463
30
0
40
1.25
210
0
220
0
230
-1
0
CIRCLE
5
119
100
AcDbEntity
8
INTERIOR_PROFILES
100
AcDbCircle
10
-627.18571428571431
20
12.535444829001463
30
0
40
1.25
210
0
220
0
230
-1
0
CIRCLE
5
120
100
AcDbEntity
8
INTERIOR_PROFILES
100
AcDbCircle
10
-829.47142857142865
20
12.535444829001463
30
0
40
1.25
210
0
220
0
230
-1
0
CIRCLE
5
121
100
AcDbEntity
8
INTERIOR_PROFILES
100
AcDbCircle
10
-323.75714285714298
20
12.535444829001463
30
0
40
1.25
210
0
220
0
230
-1
0
CIRCLE
5
122
100
AcDbEntity
8
INTERIOR_PROFILES
100
AcDbCircle
10
-121.47142857142867
20
12.535444829001463
30
0
40
1.25
210
0
220
0
230
-1
0
CIRCLE
5
123
100
AcDbEntity
8
INTERIOR_PROFILES
100
AcDbCircle
10
-756.71249999999998
20
416.11517705463234
30
0
40
1.7999999999999261
210
0
220
0
230
-1
0
CIRCLE
5
124
100
AcDbEntity
8
INTERIOR_PROFILES
100
AcDbCircle
10
-515.97142857142865
20
382.00126655841729
30
0
40
2.2999999999999687
210
0
220
0
230
-1
0
CIRCLE
5
125
100
AcDbEntity
8
INTERIOR_PROFILES
100
AcDbCircle
10
-212.54285714285714
20
382.00126655841729
30
0
40
2.2999999999999687
210
0
220
0
230
-1
0
CIRCLE
5
126
100
AcDbEntity
8
INTERIOR_PROFILES
100
AcDbCircle
10
-333.82857142857148
20
382.00126655841729
30
0
40
2.2999999999999687
210
0
220
0
230
-1
0
CIRCLE
5
127
100
AcDbEntity
8
INTERIOR_PROFILES
100
AcDbCircle
10
-598.80178571428576
20
513.48517705463235
30
0
40
1.7999999999999972
210
0
220
0
230
-1
0
CIRCLE
5
128
100
AcDbEntity
8
INTERIOR_PROFILES
100
AcDbCircle
10
-536.11428571428576
20
382.00126655841729
30
0
40
2.3000000000000398
210
0
220
0
230
-1
0
CIRCLE
5
129
100
AcDbEntity
8
INTERIOR_PROFILES
100
AcDbCircle
10
-421.40000000000009
20
324.77856793121646
30
0
40
2.2999999999999687
210
0
220
0
230
-1
0
CIRCLE
5
130
100
AcDbEntity
8
INTERIOR_PROFILES
100
AcDbCircle
10
-598.80178571428576
20
416.11517705463234
30
0
40
1.7999999999999972
210
0
220
0
230
-1
0
CIRCLE
5
131
100
AcDbEntity
8
INTERIOR_PROFILES
100
AcDbCircle
10
-414.82857142857148
20
382.00126655841729
30
0
40
2.2999999999999687
210
0
220
0
230
-1
0
CIRCLE
5
132
100
AcDbEntity
8
INTERIOR_PROFILES
100
AcDbCircle
10
-699.94464285714287
20
513.48517705463235
30
0
40
1.8000000000000682
210
0
220
0
230
-1
0
CIRCLE
5
133
100
AcDbEntity
8
INTERIOR_PROFILES
100
AcDbCircle
10
-111.40000000000001
20
382.00126655841729
30
0
40
2.3000000000000398
210
0
220
0
230
-1
0
CIRCLE
5
134
100
AcDbEntity
8
INTERIOR_PROFILES
100
AcDbCircle
10
-655.56964285714287
20
513.48517705463235
30
0
40
1.8000000000000682
210
0
220
0
230
-1
0
CIRCLE
5
135
100
AcDbEntity
8
INTERIOR_PROFILES
100
AcDbCircle
10
-359.90000000000009
20
187.74820353825908
30
0
40
2.4000000000000199
210
0
220
0
230
-1
0
CIRCLE
5
136
100
AcDbEntity
8
INTERIOR_PROFILES
100
AcDbCircle
10
-313.90000000000009
20
187.74820353825908
30
0
40
2.4000000000000199
210
0
220
0
230
-1
0
CIRCLE
5
137
100
AcDbEntity
8
INTERIOR_PROFILES
100
AcDbCircle
10
-562.18571428571431
20
187.74820353825908
30
0
40
2.3999999999999488
210
0
220
0
230
-1
0
CIRCLE
5
138
100
AcDbEntity
8
INTERIOR_PROFILES
100
AcDbCircle
10
-243.15000000000003
20
301.74820353825913
30
0
40
1.7999999999999972
210
0
220
0
230
-1
0
CIRCLE
5
139
100
AcDbEntity
8
INTERIOR_PROFILES
100
AcDbCircle
10
-124.90000000000009
20
220.24820353825913
30
0
40
1.8000000000000682
210
0
220
0
230
-1
0
CIRCLE
5
140
100
AcDbEntity
8
INTERIOR_PROFILES
100
AcDbCircle
10
-448.80000000000007
20
163.49820353825913
30
0
40
2.2999999999999687
210
0
220
0
230
-1
0
CIRCLE
5
141
100
AcDbEntity
8
INTERIOR_PROFILES
100
AcDbCircle
10
-756.71249999999998
20
513.48517705463235
30
0
40
1.7999999999999261
210
0
220
0
230
-1
0
CIRCLE
5
142
100
AcDbEntity
8
INTERIOR_PROFILES
100
AcDbCircle
10
-173.90000000000001
20
220.24820353825913
30
0
40
1.8000000000000682
210
0
220
0
230
-1
0
CIRCLE
5
143
100
AcDbEntity
8
INTERIOR_PROFILES
100
AcDbCircle
10
-373.10000000000002
20
163.49820353825913
30
0
40
2.2999999999999687
210
0
220
0
230
-1
0
CIRCLE
5
144
100
AcDbEntity
8
INTERIOR_PROFILES
100
AcDbCircle
10
-332.65000000000009
20
301.74820353825913
30
0
40
1.7999999999999972
210
0
220
0
230
-1
0
CIRCLE
5
145
100
AcDbEntity
8
INTERIOR_PROFILES
100
AcDbCircle
10
-497.65892857142859
20
349.71424308413486
30
0
40
1.7999999999999972
210
0
220
0
230
-1
0
CIRCLE
5
146
100
AcDbEntity
8
INTERIOR_PROFILES
100
AcDbCircle
10
-427
20
163.49820353825913
30
0
40
2.2999999999999687
210
0
220
0
230
-1
0
CIRCLE
5
147
100
AcDbEntity
8
INTERIOR_PROFILES
100
AcDbCircle
10
-396.51607142857154
20
416.11517705463234
30
0
40
1.7999999999999972
210
0
220
0
230
-1
0
CIRCLE
5
148
100
AcDbEntity
8
INTERIOR_PROFILES
100
AcDbCircle
10
-149.85535714285717
20
513.48517705463235
30
0
40
1.8000000000000682
210
0
220
0
230
-1
0
CIRCLE
5
149
100
AcDbEntity
8
INTERIOR_PROFILES
100
AcDbCircle
10
-554.42678571428576
20
513.48517705463235
30
0
40
1.7999999999999972
210
0
220
0
230
-1
0
CIRCLE
5
150
100
AcDbEntity
8
INTERIOR_PROFILES
100
AcDbCircle
10
-250.99821428571431
20
416.11517705463234
30
0
40
1.7999999999999972
210
0
220
0
230
-1
0
CIRCLE
5
151
100
AcDbEntity
8
INTERIOR_PROFILES
100
AcDbCircle
10
-352.14107142857154
20
513.48517705463235
30
0
40
1.7999999999999972
210
0
220
0
230
-1
0
CIRCLE
5
152
100
AcDbEntity
8
INTERIOR_PROFILES
100
AcDbCircle
10
-453.28392857142859
20
349.71424308413486
30
0
40
1.7999999999999972
210
0
220
0
230
-1
0
CIRCLE
5
153
100
AcDbEntity
8
INTERIOR_PROFILES
100
AcDbCircle
10
-352.14107142857154
20
416.11517705463234
30
0
40
1.7999999999999972
210
0
220
0
230
-1
0
CIRCLE
5
154
100
AcDbEntity
8
INTERIOR_PROFILES
100
AcDbCircle
10
-453.28392857142859
20
513.48517705463235
30
0
40
1.7999999999999972
210
0
220
0
230
-1
0
CIRCLE
5
155
100
AcDbEntity
8
INTERIOR_PROFILES
100
AcDbCircle
10
-396.51607142857154
20
513.48517705463235
30
0
40
1.7999999999999972
210
0
220
0
230
-1
0
CIRCLE
5
156
100
AcDbEntity
8
INTERIOR_PROFILES
100
AcDbCircle
10
-93.087500000000034
20
513.48517705463235
30
0
40
1.8000000000000682
210
0
220
0
230
-1
0
CIRCLE
5
157
100
AcDbEntity
8
INTERIOR_PROFILES
100
AcDbCircle
10
-630.10000000000002
20
171.49820353825908
30
0
40
1.25
210
0
220
0
230
-1
0
CIRCLE
5
158
100
AcDbEntity
8
INTERIOR_PROFILES
100
AcDbCircle
10
-367.90000000000009
20
203.99820353825908
30
0
40
1.25
210
0
220
0
230
-1
0
CIRCLE
5
159
100
AcDbEntity
8
INTERIOR_PROFILES
100
AcDbCircle
10
-124.90000000000009
20
278.24820353825913
30
0
40
1.8000000000000682
210
0
220
0
230
-1
0
CIRCLE
5
160
100
AcDbEntity
8
INTERIOR_PROFILES
100
AcDbCircle
10
-554.42678571428576
20
349.71424308413486
30
0
40
1.7999999999999972
210
0
220
0
230
-1
0
CIRCLE
5
161
100
AcDbEntity
8
INTERIOR_PROFILES
100
AcDbCircle
10
-108.90000000000001
20
294.99820353825908
30
0
40
1.25
210
0
220
0
230
-1
0
CIRCLE
5
162
100
AcDbEntity
8
INTERIOR_PROFILES
100
AcDbCircle
10
-82.900000000000063
20
203.99820353825908
30
0
40
1.25
210
0
220
0
230
-1
0
CIRCLE
5
163
100
AcDbEntity
8
INTERIOR_PROFILES
100
AcDbCircle
10
-598.80178571428576
20
252.34424308413483
30
0
40
1.7999999999999972
210
0
220
0
230
-1
0
CIRCLE
5
164
100
AcDbEntity
8
INTERIOR_PROFILES
100
AcDbCircle
10
-822.10000000000014
20
251.49820353825913
30
0
40
1.25
210
0
220
0
230
-1
0
CIRCLE
5
165
100
AcDbEntity
8
INTERIOR_PROFILES
100
AcDbCircle
10
-598.80178571428576
20
349.71424308413486
30
0
40
1.7999999999999972
210
0
220
0
230
-1
0
CIRCLE
5
166
100
AcDbEntity
8
INTERIOR_PROFILES
100
AcDbCircle
10
-630.10000000000002
20
251.49820353825913
30
0
40
1.25
210
0
220
0
230
-1
0
CIRCLE
5
167
100
AcDbEntity
8
INTERIOR_PROFILES
100
AcDbCircle
10
-108.90000000000001
20
234.99820353825911
30
0
40
1.25
210
0
220
0
230
-1
0
CIRCLE
5
168
100
AcDbEntity
8
INTERIOR_PROFILES
100
AcDbCircle
10
-48.712500000000034
20
513.48517705463235
30
0
40
1.8000000000000682
210
0
220
0
230
-1
0
CIRCLE
5
169
100
AcDbEntity
8
INTERIOR_PROFILES
100
AcDbCircle
10
-82.900000000000063
20
325.99820353825913
30
0
40
1.25
210
0
220
0
230
-1
0
CIRCLE
5
170
100
AcDbEntity
8
INTERIOR_PROFILES
100
AcDbCircle
10
-726.10000000000014
20
284.89820353825911
30
0
40
1.25
210
0
220
0
230
-1
0
CIRCLE
5
171
100
AcDbEntity
8
INTERIOR_PROFILES
100
AcDbCircle
10
-367.90000000000009
20
325.99820353825913
30
0
40
1.25
210
0
220
0
230
-1
0
CIRCLE
5
172
100
AcDbEntity
8
INTERIOR_PROFILES
100
AcDbCircle
10
-393.90000000000009
20
234.99820353825911
30
0
40
1.25
210
0
220
0
230
-1
0
CIRCLE
5
173
100
AcDbEntity
8
INTERIOR_PROFILES
100
AcDbCircle
10
-93.087500000000034
20
416.11517705463234
30
0
40
1.8000000000000682
210
0
220
0
230
-1
0
CIRCLE
5
174
100
AcDbEntity
8
INTERIOR_PROFILES
100
AcDbCircle
10
-497.65892857142859
20
252.34424308413483
30
0
40
1.7999999999999972
210
0
220
0
230
-1
0
CIRCLE
5
175
100
AcDbEntity
8
INTERIOR_PROFILES
100
AcDbCircle
10
-453.28392857142859
20
252.34424308413483
30
0
40
1.7999999999999972
210
0
220
0
230
-1
0
CIRCLE
5
176
100
AcDbEntity
8
INTERIOR_PROFILES
100
AcDbCircle
10
-393.90000000000009
20
294.99820353825908
30
0
40
1.25
210
0
220
0
230
-1
0
CIRCLE
5
177
100
AcDbEntity
8
INTERIOR_PROFILES
100
AcDbCircle
10
-738.40000000000009
20
382.00126655841729
30
0
40
2.3000000000000398
210
0
220
0
230
-1
0
CIRCLE
5
178
100
AcDbEntity
8
INTERIOR_PROFILES
100
AcDbCircle
10
-726.10000000000014
20
138.19820353825912
30
0
40
1.25
210
0
220
0
230
-1
0
CIRCLE
5
179
100
AcDbEntity
8
INTERIOR_PROFILES
100
AcDbCircle
10
-822.10000000000014
20
171.49820353825908
30
0
40
1.25
210
0
220
0
230
-1
0
CIRCLE
5
180
100
AcDbEntity
8
INTERIOR_PROFILES
100
AcDbCircle
10
-48.712500000000034
20
416.11517705463234
30
0
40
1.8000000000000682
210
0
220
0
230
-1
0
CIRCLE
5
181
100
AcDbEntity
8
INTERIOR_PROFILES
100
AcDbCircle
10
-497.65892857142859
20
416.11517705463234
30
0
40
1.7999999999999972
210
0
220
0
230
-1
0
CIRCLE
5
182
100
AcDbEntity
8
INTERIOR_PROFILES
100
AcDbCircle
10
-194.23035714285717
20
513.48517705463235
30
0
40
1.8000000000000682
210
0
220
0
230
-1
0
CIRCLE
5
183
100
AcDbEntity
8
INTERIOR_PROFILES
100
AcDbCircle
10
-149.85535714285717
20
416.11517705463234
30
0
40
1.8000000000000682
210
0
220
0
230
-1
0
CIRCLE
5
184
100
AcDbEntity
8
INTERIOR_PROFILES
100
AcDbCircle
10
-497.65892857142859
20
513.48517705463235
30
0
40
1.7999999999999972
210
0
220
0
230
-1
0
CIRCLE
5
185
100
AcDbEntity
8
INTERIOR_PROFILES
100
AcDbCircle
10
-554.42678571428576
20
416.11517705463234
30
0
40
1.7999999999999972
210
0
220
0
230
-1
0
CIRCLE
5
186
100
AcDbEntity
8
INTERIOR_PROFILES
100
AcDbCircle
10
-453.28392857142859
20
416.11517705463234
30
0
40
1.7999999999999972
210
0
220
0
230
-1
0
CIRCLE
5
187
100
AcDbEntity
8
INTERIOR_PROFILES
100
AcDbCircle
10
-295.37321428571431
20
416.11517705463234
30
0
40
1.7999999999999972
210
0
220
0
230
-1
0
CIRCLE
5
188
100
AcDbEntity
8
INTERIOR_PROFILES
100
AcDbCircle
10
-295.37321428571431
20
513.48517705463235
30
0
40
1.7999999999999972
210
0
220
0
230
-1
0
CIRCLE
5
189
100
AcDbEntity
8
INTERIOR_PROFILES
100
AcDbCircle
10
-243.15000000000003
20
212.24820353825913
30
0
40
1.7999999999999972
210
0
220
0
230
-1
0
CIRCLE
5
190
100
AcDbEntity
8
INTERIOR_PROFILES
100
AcDbCircle
10
-111.61428571428573
20
187.74820353825908
30
0
40
2.3999999999999488
210
0
220
0
230
-1
0
CIRCLE
5
191
100
AcDbEntity
8
INTERIOR_PROFILES
100
AcDbCircle
10
-801.08749999999998
20
513.48517705463235
30
0
40
1.7999999999999261
210
0
220
0
230
-1
0
CIRCLE
5
192
100
AcDbEntity
8
INTERIOR_PROFILES
100
AcDbCircle
10
-173.90000000000001
20
278.24820353825913
30
0
40
1.8000000000000682
210
0
220
0
230
-1
0
CIRCLE
5
193
100
AcDbEntity
8
INTERIOR_PROFILES
100
AcDbCircle
10
-332.65000000000009
20
212.24820353825913
30
0
40
1.7999999999999972
210
0
220
0
230
-1
0
CIRCLE
5
194
100
AcDbEntity
8
INTERIOR_PROFILES
100
AcDbCircle
10
-718.25714285714298
20
382.00126655841729
30
0
40
2.3000000000000398
210
0
220
0
230
-1
0
CIRCLE
5
195
100
AcDbEntity
8
INTERIOR_PROFILES
100
AcDbCircle
10
-157.61428571428567
20
187.74820353825908
30
0
40
2.3999999999999488
210
0
220
0
230
-1
0
CIRCLE
5
196
100
AcDbEntity
8
INTERIOR_PROFILES
100
AcDbCircle
10
-801.08749999999998
20
416.11517705463234
30
0
40
1.7999999999999261
210
0
220
0
230
-1
0
CIRCLE
5
197
100
AcDbEntity
8
INTERIOR_PROFILES
100
AcDbCircle
10
-554.42678571428576
20
252.34424308413483
30
0
40
1.7999999999999972
210
0
220
0
230
-1
0
CIRCLE
5
198
100
AcDbEntity
8
INTERIOR_PROFILES
100
AcDbCircle
10
-764.47142857142865
20
187.74820353825908
30
0
40
2.3999999999999488
210
0
220
0
230
-1
0
CIRCLE
5
199
100
AcDbEntity
8
INTERIOR_PROFILES
100
AcDbCircle
10
-516.18571428571431
20
187.74820353825908
30
0
40
2.4000000000000199
210
0
220
0
230
-1
0
CIRCLE
5
200
100
AcDbEntity
8
INTERIOR_PROFILES
100
AcDbCircle
10
-718.47142857142853
20
187.74820353825908
30
0
40
2.3999999999999488
210
0
220
0
230
-1
0
CIRCLE
5
201
100
AcDbEntity
8
INTERIOR_PROFILES
100
AcDbCircle
10
-194.23035714285717
20
416.11517705463234
30
0
40
1.8000000000000682
210
0
220
0
230
-1
0
CIRCLE
5
202
100
AcDbEntity
8
INTERIOR_PROFILES
100
AcDbCircle
10
-131.5428571428572
20
382.00126655841729
30
0
40
2.3000000000000398
210
0
220
0
230
-1
0
CIRCLE
5
203
100
AcDbEntity
8
INTERIOR_PROFILES
100
AcDbCircle
10
-655.56964285714287
20
416.11517705463234
30
0
40
1.8000000000000682
210
0
220
0
230
-1
0
CIRCLE
5
204
100
AcDbEntity
8
INTERIOR_PROFILES
100
AcDbCircle
10
-699.94464285714287
20
416.11517705463234
30
0
40
1.8000000000000682
210
0
220
0
230
-1
0
CIRCLE
5
205
100
AcDbEntity
8
INTERIOR_PROFILES
100
AcDbCircle
10
-434.97142857142865
20
382.00126655841729
30
0
40
2.2999999999999687
210
0
220
0
230
-1
0
CIRCLE
5
206
100
AcDbEntity
8
INTERIOR_PROFILES
100
AcDbCircle
10
-617.11428571428576
20
382.00126655841729
30
0
40
2.2999999999999687
210
0
220
0
230
-1
0
CIRCLE
5
207
100
AcDbEntity
8
INTERIOR_PROFILES
100
AcDbCircle
10
-637.25714285714287
20
382.00126655841729
30
0
40
2.3000000000000398
210
0
220
0
230
-1
0
CIRCLE
5
208
100
AcDbEntity
8
INTERIOR_PROFILES
100
AcDbCircle
10
-250.99821428571431
20
513.48517705463235
30
0
40
1.7999999999999972
210
0
220
0
230
-1
0
CIRCLE
5
209
100
AcDbEntity
8
INTERIOR_PROFILES
100
AcDbCircle
10
-409.40000000000003
20
324.77856793121646
30
0
40
2.2999999999999687
210
0
220
0
230
-1
0
CIRCLE
5
210
100
AcDbEntity
8
INTERIOR_PROFILES
100
AcDbCircle
10
-232.68571428571425
20
382.00126655841729
30
0
40
2.2999999999999687
210
0
220
0
230
-1
0
CIRCLE
5
211
100
AcDbEntity
8
INTERIOR_PROFILES
100
AcDbCircle
10
-313.68571428571443
20
382.00126655841729
30
0
40
2.2999999999999687
210
0
220
0
230
-1
0
CIRCLE
5
212
100
AcDbEntity
8
INTERIOR_PROFILES
100
AcDbCircle
10
-502.7000000000001
20
163.49820353825913
30
0
40
2.2999999999999687
210
0
220
0
230
-1
0
CIRCLE
5
213
100
AcDbEntity
8
INTERIOR_PROFILES
100
AcDbCircle
10
-438.61428571428581
20
66.998203538259204
30
0
40
3.2500000000000284
210
0
220
0
230
-1
0
CIRCLE
5
214
100
AcDbEntity
8
INTERIOR_PROFILES
100
AcDbCircle
10
-27.614285714285813
20
98.998203538259162
30
0
40
1.8000000000000682
210
0
220
0
230
-1
0
CIRCLE
5
215
100
AcDbEntity
8
INTERIOR_PROFILES
100
AcDbCircle
10
-27.614285714285813
20
34.998203538259176
30
0
40
1.8000000000000682
210
0
220
0
230
-1
0
LWPOLYLINE
5
216
100
AcDbEntity
8
INTERIOR_PROFILES
100
AcDbPolyline
90
8
70
1
43
0.0
10
405.61428571428587
20
89.998203538259176
10
39.614285714285842
20
89.998203538259176
42
0.41421356237309509
10
36.614285714285728
20
86.998203538259347
10
36.61428571428587
20
46.998203538259204
42
0.41421356237309509
10
39.614285714285842
20
43.998203538259233
10
405.61428571428587
20
43.998203538259162
42
0.41421356237309509
10
408.61428571428581
20
46.998203538259276
10
408.61428571428581
20
86.998203538259204
42
0.41421356237309509
0
CIRCLE
5
217
100
AcDbEntity
8
INTERIOR_PROFILES
100
AcDbCircle
10
-417.61428571428581
20
34.998203538259176
30
0
40
1.7999999999999972
210
0
220
0
230
-1
0
CIRCLE
5
218
100
AcDbEntity
8
INTERIOR_PROFILES
100
AcDbCircle
10
-417.61428571428581
20
98.998203538259162
30
0
40
1.7999999999999972
210
0
220
0
230
-1
0
LWPOLYLINE
5
219
100
AcDbEntity
8
INTERIOR_PROFILES
100
AcDbPolyline
90
4
70
1
43
0.0
10
455.61428571428593
20
40.998203538259119
42
-0.99999999999999989
10
455.61428571428593
20
44.998203538259176
10
491.61428571428587
20
44.998203538259105
42
-0.99999999999999989
10
491.61428571428587
20
40.99820353825919
0
LWPOLYLINE
5
220
100
AcDbEntity
8
INTERIOR_PROFILES
100
AcDbPolyline
90
4
70
1
43
0.0
10
548.26734693877586
20
40.998203538259119
42
-0.99999999999999989
10
548.26734693877575
20
44.998203538259176
10
584.26734693877552
20
44.998203538259141
42
-0.99999999999999989
10
584.26734693877563
20
40.99820353825919
0
LWPOLYLINE
5
221
100
AcDbEntity
8
INTERIOR_PROFILES
100
AcDbPolyline
90
4
70
1
43
0.0
10
640.92040816326562
20
40.998203538259119
42
-0.99999999999999989
10
640.92040816326539
20
44.998203538259176
10
676.92040816326528
20
44.998203538259141
42
-0.99999999999999989
10
676.92040816326539
20
40.99820353825919
0
LWPOLYLINE
5
222
100
AcDbEntity
8
INTERIOR_PROFILES
100
AcDbPolyline
90
4
70
1
43
0.0
10
733.57346938775538
20
40.998203538259119
42
-0.99999999999999989
10
733.57346938775527
20
44.998203538259176
10
769.57346938775515
20
44.998203538259141
42
-0.99999999999999989
10
769.57346938775515
20
40.99820353825919
0
LWPOLYLINE
5
223
100
AcDbEntity
8
INTERIOR_PROFILES
100
AcDbPolyline
90
4
70
1
43
0.0
10
455.61428571428587
20
48.998203538259162
42
-0.99999999999999989
10
455.61428571428587
20
52.998203538259219
10
468.45102040816346
20
52.998203538259219
42
-0.99999999999999989
10
468.45102040816346
20
48.998203538259162
0
LWPOLYLINE
5
224
100
AcDbEntity
8
INTERIOR_PROFILES
100
AcDbPolyline
90
4
70
1
43
0.0
10
525.10408163265299
20
48.998203538259304
42
-0.99999999999999989
10
525.10408163265322
20
52.998203538259219
10
561.10408163265322
20
52.998203538259219
42
-0.99999999999999989
10
561.10408163265322
20
48.998203538259162
0
LWPOLYLINE
5
225
100
AcDbEntity
8
INTERIOR_PROFILES
100
AcDbPolyline
90
4
70
1
43
0.0
10
617.75714285714298
20
48.998203538259162
42
-0.99999999999999989
10
617.75714285714298
20
52.998203538259219
10
653.75714285714275
20
52.998203538259219
42
-0.99999999999999989
10
653.75714285714298
20
48.998203538259162
0
LWPOLYLINE
5
226
100
AcDbEntity
8
INTERIOR_PROFILES
100
AcDbPolyline
90
4
70
1
43
0.0
10
710.41020408163274
20
48.998203538259162
42
-0.99999999999999989
10
710.41020408163274
20
52.998203538259219
10
746.41020408163274
20
52.998203538259219
42
-0.99999999999999989
10
746.41020408163274
20
48.998203538259162
0
LWPOLYLINE
5
227
100
AcDbEntity
8
INTERIOR_PROFILES
100
AcDbPolyline
90
4
70
1
43
0.0
10
803.0632653061225
20
48.998203538259162
42
-0.99999999999999989
10
803.0632653061225
20
52.998203538259219
10
815.90000000000009
20
52.998203538259219
42
-0.99999999999999989
10
815.90000000000009
20
48.998203538259162
0
LWPOLYLINE
5
228
100
AcDbEntity
8
INTERIOR_PROFILES
100
AcDbPolyline
90
4
70
1
43
0.0
10
501.94081632653081
20
56.998203538259133
42
-0.99999999999999989
10
501.94081632653081
20
60.99820353825919
10
537.94081632653069
20
60.998203538259226
42
-0.99999999999999989
10
537.94081632653069
20
56.998203538259204
0
LWPOLYLINE
5
229
100
AcDbEntity
8
INTERIOR_PROFILES
100
AcDbPolyline
90
4
70
1
43
0.0
10
594.59387755102068
20
56.998203538259133
42
-0.99999999999999989
10
594.59387755102057
20
60.99820353825919
10
630.59387755102046
20
60.998203538259226
42
-0.99999999999999989
10
630.59387755102057
20
56.998203538259204
0
LWPOLYLINE
5
230
100
AcDbEntity
8
INTERIOR_PROFILES
100
AcDbPolyline
90
4
70
1
43
0.0
10
687.24693877551033
20
56.998203538259133
42
-0.99999999999999989
10
687.24693877551033
20
60.99820353825919
10
723.24693877551022
20
60.998203538259226
42
-0.99999999999999989
10
723.24693877551022
20
56.998203538259204
0
LWPOLYLINE
5
231
100
AcDbEntity
8
INTERIOR_PROFILES
100
AcDbPolyline
90
4
70
1
43
0.0
10
779.90000000000009
20
56.998203538259133
42
-0.99999999999999989
10
779.90000000000009
20
60.99820353825919
10
815.90000000000009
20
60.998203538259226
42
-0.99999999999999989
10
815.90000000000009
20
56.998203538259204
0
LWPOLYLINE
5
232
100
AcDbEntity
8
INTERIOR_PROFILES
100
AcDbPolyline
90
4
70
1
43
0.0
10
478.77755102040805
20
64.998203538259389
42
-0.99999999999999989
10
478.77755102040828
20
68.998203538259162
10
514.7775510204084
20
68.998203538259162
42
-0.99999999999999989
10
514.77755102040828
20
64.998203538259176
0
LWPOLYLINE
5
233
100
AcDbEntity
8
INTERIOR_PROFILES
100
AcDbPolyline
90
4
70
1
43
0.0
10
571.43061224489827
20
64.998203538259247
42
-0.99999999999999989
10
571.43061224489816
20
68.998203538259162
10
607.43061224489804
20
68.99820353825919
42
-0.99999999999999989
10
607.43061224489804
20
64.998203538259176
0
LWPOLYLINE
5
234
100
AcDbEntity
8
INTERIOR_PROFILES
100
AcDbPolyline
90
4
70
1
43
0.0
10
664.08367346938792
20
64.998203538259247
42
-0.99999999999999989
10
664.08367346938792
20
68.998203538259162
10
700.0836734693878
20
68.99820353825919
42
-0.99999999999999989
10
700.0836734693878
20
64.998203538259176
0
LWPOLYLINE
5
235
100
AcDbEntity
8
INTERIOR_PROFILES
100
AcDbPolyline
90
4
70
1
43
0.0
10
756.73673469387779
20
64.998203538259247
42
-0.99999999999999989
10
756.73673469387768
20
68.998203538259162
10
792.73673469387757
20
68.99820353825919
42
-0.99999999999999989
10
792.73673469387757
20
64.998203538259176
0
LWPOLYLINE
5
236
100
AcDbEntity
8
INTERIOR_PROFILES
100
AcDbPolyline
90
4
70
1
43
0.0
10
455.61428571428587
20
72.998203538259148
42
-0.99999999999999989
10
455.61428571428593
20
76.998203538259204
10
491.61428571428593
20
76.998203538259204
42
-0.99999999999999989
10
491.61428571428587
20
72.998203538259219
0
LWPOLYLINE
5
237
100
AcDbEntity
8
INTERIOR_PROFILES
100
AcDbPolyline
90
4
70
1
43
0.0
10
875.90000000000009
20
230.99820353825913
10
875.90000000000009
20
194.99820353825919
42
0.99999999999999989
10
879.90000000000009
20
194.99820353825902
10
879.90000000000009
20
230.99820353825913
42
0.99999999999999989
0
LWPOLYLINE
5
238
100
AcDbEntity
8
INTERIOR_PROFILES
100
AcDbPolyline
90
4
70
1
43
0.0
10
883.89999999999998
20
254.99820353825908
10
883.89999999999998
20
218.99820353825913
42
0.99999999999999989
10
887.90000000000009
20
218.99820353825919
10
887.90000000000009
20
254.99820353825913
42
0.99999999999999989
0
LWPOLYLINE
5
239
100
AcDbEntity
8
INTERIOR_PROFILES
100
AcDbPolyline
90
4
70
1
43
0.0
10
891.90000000000009
20
278.99820353825913
10
891.89999999999998
20
242.99820353825908
42
0.99999999999999989
10
895.90000000000009
20
242.99820353825913
10
895.89999999999986
20
278.99820353825908
42
0.99999999999999989
0
LWPOLYLINE
5
240
100
AcDbEntity
8
INTERIOR_PROFILES
100
AcDbPolyline
90
4
70
1
43
0.0
10
891.89999999999998
20
182.99820353825908
10
891.89999999999998
20
160.99820353825905
42
0.99999999999999989
10
895.90000000000009
20
160.99820353825919
10
895.90000000000009
20
182.99820353825908
42
0.99999999999999989
0
LWPOLYLINE
5
241
100
AcDbEntity
8
INTERIOR_PROFILES
100
AcDbPolyline
90
4
70
1
43
0.0
10
899.90000000000009
20
206.99820353825913
10
899.90000000000009
20
170.99820353825905
42
0.99999999999999989
10
903.90000000000009
20
170.99820353825919
10
903.90000000000009
20
206.99820353825913
42
0.99999999999999989
0
LWPOLYLINE
5
242
100
AcDbEntity
8
INTERIOR_PROFILES
100
AcDbPolyline
90
4
70
1
43
0.0
10
907.90000000000009
20
182.99820353825908
10
907.90000000000009
20
160.99820353825913
42
0.99999999999999989
10
911.90000000000009
20
160.99820353825913
10
911.90000000000009
20
182.99820353825908
42
0.99999999999999989
0
LWPOLYLINE
5
243
100
AcDbEntity
8
INTERIOR_PROFILES
100
AcDbPolyline
90
4
70
1
43
0.0
10
-10.099999999999909
20
160.99820353825913
10
-10.099999999999909
20
182.99820353825908
42
0.99999999999999989
10
-14.099999999999966
20
182.99820353825908
10
-14.099999999999966
20
160.99820353825913
42
0.99999999999999989
0
LWPOLYLINE
5
244
100
AcDbEntity
8
INTERIOR_PROFILES
100
AcDbPolyline
90
4
70
1
43
0.0
10
-10.099999999999909
20
194.99820353825911
42
-0.99999999999999989
10
-14.099999999999966
20
194.99820353825911
10
-14.099999999999966
20
230.99820353825913
42
-0.99999999999999989
10
-10.099999999999909
20
230.99820353825913
0
LWPOLYLINE
5
245
100
AcDbEntity
8
INTERIOR_PROFILES
100
AcDbPolyline
90
4
70
1
43
0.0
10
-18.100000000000165
20
218.99820353825888
42
-0.99999999999999989
10
-22.099999999999937
20
218.99820353825913
10
-22.099999999999653
20
254.99820353825925
42
-0.99999999999999989
10
-18.099999999999881
20
254.99820353825911
0
LWPOLYLINE
5
246
100
AcDbEntity
8
INTERIOR_PROFILES
100
AcDbPolyline
90
4
70
1
43
0.0
10
-26.099999999999852
20
242.99820353825908
42
-0.99999999999999989
10
-30.099999999999909
20
242.99820353825911
10
-30.099999999999767
20
278.99820353825908
42
-0.99999999999999989
10
-26.099999999999994
20
278.99820353825913
0
LWPOLYLINE
5
247
100
AcDbEntity
8
INTERIOR_PROFILES
100
AcDbPolyline
90
4
70
1
43
0.0
10
-26.099999999999852
20
160.99820353825905
42
-0.99999999999999989
10
-30.099999999999909
20
160.99820353825913
10
-30.099999999999767
20
182.99820353825908
42
-0.99999999999999989
10
-26.099999999999994
20
182.99820353825913
0
LWPOLYLINE
5
248
100
AcDbEntity
8
INTERIOR_PROFILES
100
AcDbPolyline
90
4
70
1
43
0.0
10
-34.100000000000108
20
170.99820353825913
42
-0.99999999999999989
10
-38.099999999999881
20
170.99820353825913
10
-38.100000000000023
20
206.99820353825919
42
-0.99999999999999989
10
-34.099999999999966
20
206.99820353825913
0
LWPOLYLINE
5
249
100
AcDbEntity
8
INTERIOR_PROFILES
100
AcDbPolyline
90
4
70
1
43
0.0
10
-42.100000000000222
20
194.99820353825882
42
-0.99999999999999989
10
-46.099999999999994
20
194.99820353825911
10
-46.09999999999971
20
230.99820353825925
42
-0.99999999999999989
10
-42.099999999999937
20
230.99820353825913
0
LWPOLYLINE
5
250
100
AcDbEntity
8
INTERIOR_PROFILES
100
AcDbPolyline
90
4
70
1
43
0.0
10
-50.099999999999909
20
218.99820353825916
42
-0.99999999999999989
10
-54.099999999999966
20
218.99820353825913
10
-54.099999999999966
20
254.99820353825911
42
-0.99999999999999989
10
-50.099999999999909
20
254.99820353825911
0
LWPOLYLINE
5
251
100
AcDbEntity
8
INTERIOR_PROFILES
100
AcDbPolyline
90
4
70
1
43
0.0
10
-58.100000000000165
20
194.99820353825882
42
-0.99999999999999989
10
-62.099999999999937
20
194.99820353825911
10
-62.099999999999653
20
230.99820353825925
42
-0.99999999999999989
10
-58.099999999999881
20
230.99820353825913
0
LWPOLYLINE
5
252
100
AcDbEntity
8
INTERIOR_PROFILES
100
AcDbPolyline
90
4
70
1
43
0.0
10
-66.099999999999852
20
170.99820353825905
42
-0.99999999999999989
10
-70.099999999999909
20
170.99820353825913
10
-70.099999999999767
20
204.18002172007732
42
-0.99999999999999989
10
-66.099999999999994
20
204.18002172007732
0
CIRCLE
5
253
100
AcDbEntity
8
INTERIOR_PROFILES
100
AcDbCircle
10
19.189159114637135
20
361.40126655841726
30
0
40
2.3000000000000398
210
0
220
0
230
-1
0
CIRCLE
5
254
100
AcDbEntity
8
INTERIOR_PROFILES
100
AcDbCircle
10
-20.328571428571536
20
535.54278309557776
30
0
40
1.25
210
0
220
0
230
-1
0
CIRCLE
5
255
100
AcDbEntity
8
INTERIOR_PROFILES
100
AcDbCircle
10
-424.90000000000009
20
535.54278309557776
30
0
40
1.25
210
0
220
0
230
-1
0
CIRCLE
5
256
100
AcDbEntity
8
INTERIOR_PROFILES
100
AcDbCircle
10
-829.47142857142865
20
535.54278309557776
30
0
40
1.25
210
0
220
0
230
-1
0
CIRCLE
5
257
100
AcDbEntity
8
INTERIOR_PROFILES
100
AcDbCircle
10
-526.0428571428572
20
535.54278309557776
30
0
40
1.25
210
0
220
0
230
-1
0
CIRCLE
5
258
100
AcDbEntity
8
INTERIOR_PROFILES
100
AcDbCircle
10
-121.47142857142867
20
535.54278309557776
30
0
40
1.25
210
0
220
0
230
-1
0
CIRCLE
5
259
100
AcDbEntity
8
INTERIOR_PROFILES
100
AcDbCircle
10
-323.75714285714298
20
535.54278309557776
30
0
40
1.25
210
0
220
0
230
-1
0
CIRCLE
5
260
100
AcDbEntity
8
INTERIOR_PROFILES
100
AcDbCircle
10
-728.32857142857154
20
535.54278309557776
30
0
40
1.25
210
0
220
0
230
-1
0
CIRCLE
5
261
100
AcDbEntity
8
INTERIOR_PROFILES
100
AcDbCircle
10
-627.18571428571431
20
535.54278309557776
30
0
40
1.25
210
0
220
0
230
-1
0
CIRCLE
5
262
100
AcDbEntity
8
INTERIOR_PROFILES
100
AcDbCircle
10
-222.61428571428576
20
535.54278309557776
30
0
40
1.25
210
0
220
0
230
-1
0
LWPOLYLINE
5
263
100
AcDbEntity
8
INTERIOR_PROFILES
100
AcDbPolyline
90
4
70
1
43
0.0
10
-22.099999999999937
20
206.99820353825928
10
-22.099999999999937
20
170.99820353825942
42
0.99999999999999989
10
-18.100000000000165
20
170.99820353825885
10
-18.099999999999596
20
206.99820353825899
42
0.99999999999999989
0
LWPOLYLINE
5
264
100
AcDbEntity
8
INTERIOR_PROFILES
100
AcDbPolyline
90
4
70
1
43
0.0
10
-30.099999999999909
20
230.99820353825913
10
-30.099999999999909
20
194.99820353825919
42
0.99999999999999989
10
-26.099999999999852
20
194.99820353825902
10
-26.099999999999852
20
230.99820353825925
42
0.99999999999999989
0
LWPOLYLINE
5
265
100
AcDbEntity
8
INTERIOR_PROFILES
100
AcDbPolyline
90
4
70
1
43
0.0
10
-38.099999999999881
20
254.99820353825919
10
-38.099999999999881
20
218.99820353825902
42
0.99999999999999989
10
-34.100000000000108
20
218.99820353825916
10
-34.100000000000108
20
254.99820353825902
42
0.99999999999999989
0
LWPOLYLINE
5
266
100
AcDbEntity
8
INTERIOR_PROFILES
100
AcDbPolyline
90
4
70
1
43
0.0
10
-46.100000000000136
20
278.99820353825925
10
-46.099999999999994
20
242.99820353825942
42
0.99999999999999989
10
-42.100000000000222
20
242.99820353825885
10
-42.099999999999511
20
278.99820353825896
42
0.99999999999999989
0
LWPOLYLINE
5
267
100
AcDbEntity
8
INTERIOR_PROFILES
100
AcDbPolyline
90
4
70
1
43
0.0
10
-46.100000000000136
20
182.99820353825922
10
-46.099999999999994
20
160.99820353825942
42
0.99999999999999989
10
-42.100000000000222
20
160.99820353825885
10
-42.099999999999511
20
182.99820353825893
42
0.99999999999999989
0
LWPOLYLINE
5
268
100
AcDbEntity
8
INTERIOR_PROFILES
100
AcDbPolyline
90
4
70
1
43
0.0
10
-54.099999999999824
20
206.99820353825913
10
-54.099999999999966
20
170.99820353825913
42
0.99999999999999989
10
-50.099999999999909
20
170.99820353825913
10
-50.100000000000051
20
206.99820353825913
42
0.99999999999999989
0
LWPOLYLINE
5
269
100
AcDbEntity
8
INTERIOR_PROFILES
100
AcDbPolyline
90
4
70
1
43
0.0
10
-62.10000000000008
20
182.99820353825922
10
-62.099999999999937
20
160.99820353825942
42
0.99999999999999989
10
-58.100000000000165
20
160.99820353825885
10
-58.099999999999454
20
182.99820353825893
42
0.99999999999999989
0
LWPOLYLINE
5
270
100
AcDbEntity
8
INTERIOR_PROFILES
100
AcDbPolyline
90
4
70
1
43
0.0
10
-14.099999999999966
20
278.99820353825908
10
-14.099999999999966
20
242.99820353825913
42
0.99999999999999989
10
-10.099999999999909
20
242.99820353825913
10
-10.099999999999909
20
278.99820353825908
42
0.99999999999999989
0
LWPOLYLINE
5
271
100
AcDbEntity
8
INTERIOR_PROFILES
100
AcDbPolyline
90
4
70
1
43
0.0
10
537.94081632653058
20
44.998203538259105
10
501.94081632653069
20
44.998203538259176
42
0.99999999999999989
10
501.94081632653081
20
40.998203538259119
10
537.94081632653092
20
40.99820353825919
42
0.99999999999999989
0
LWPOLYLINE
5
272
100
AcDbEntity
8
INTERIOR_PROFILES
100
AcDbPolyline
90
4
70
1
43
0.0
10
630.59387755102034
20
44.998203538259105
10
594.59387755102046
20
44.998203538259176
42
0.99999999999999989
10
594.59387755102068
20
40.998203538259119
10
630.59387755102068
20
40.99820353825919
42
0.99999999999999989
0
LWPOLYLINE
5
273
100
AcDbEntity
8
INTERIOR_PROFILES
100
AcDbPolyline
90
4
70
1
43
0.0
10
723.24693877551022
20
44.998203538259105
10
687.24693877551022
20
44.998203538259176
42
0.99999999999999989
10
687.24693877551044
20
40.998203538259119
10
723.24693877551022
20
40.99820353825919
42
0.99999999999999989
0
LWPOLYLINE
5
274
100
AcDbEntity
8
INTERIOR_PROFILES
100
AcDbPolyline
90
4
70
1
43
0.0
10
815.90000000000009
20
44.998203538259105
10
779.89999999999998
20
44.998203538259176
42
0.99999999999999989
10
779.9000000000002
20
40.998203538259119
10
815.90000000000009
20
40.99820353825919
42
0.99999999999999989
0
LWPOLYLINE
5
275
100
AcDbEntity
8
INTERIOR_PROFILES
100
AcDbPolyline
90
4
70
1
43
0.0
10
514.77755102040828
20
52.998203538259219
10
478.77755102040845
20
52.998203538259219
42
0.99999999999999989
10
478.77755102040817
20
48.998203538259304
10
514.77755102040828
20
48.998203538259162
42
0.99999999999999989
0
LWPOLYLINE
5
276
100
AcDbEntity
8
INTERIOR_PROFILES
100
AcDbPolyline
90
4
70
1
43
0.0
10
607.43061224489804
20
52.998203538259219
10
571.43061224489816
20
52.998203538259219
42
0.99999999999999989
10
571.43061224489816
20
48.998203538259162
10
607.43061224489816
20
48.998203538259162
42
0.99999999999999989
0
LWPOLYLINE
5
277
100
AcDbEntity
8
INTERIOR_PROFILES
100
AcDbPolyline
90
4
70
1
43
0.0
10
700.0836734693878
20
52.998203538259219
10
664.08367346938792
20
52.998203538259219
42
0.99999999999999989
10
664.08367346938792
20
48.998203538259162
10
700.0836734693878
20
48.998203538259162
42
0.99999999999999989
0
LWPOLYLINE
5
278
100
AcDbEntity
8
INTERIOR_PROFILES
100
AcDbPolyline
90
4
70
1
43
0.0
10
792.73673469387757
20
52.998203538259219
10
756.73673469387768
20
52.998203538259219
42
0.99999999999999989
10
756.73673469387768
20
48.998203538259162
10
792.73673469387757
20
48.998203538259162
42
0.99999999999999989
0
LWPOLYLINE
5
279
100
AcDbEntity
8
INTERIOR_PROFILES
100
AcDbPolyline
90
4
70
1
43
0.0
10
491.61428571428587
20
60.998203538259261
10
455.61428571428593
20
60.99820353825919
42
0.99999999999999989
10
455.61428571428593
20
56.998203538259133
10
491.61428571428587
20
56.998203538259062
42
0.99999999999999989
0
LWPOLYLINE
5
280
100
AcDbEntity
8
INTERIOR_PROFILES
100
AcDbPolyline
90
4
70
1
43
0.0
10
584.26734693877552
20
60.99820353825919
10
548.26734693877552
20
60.99820353825919
42
0.99999999999999989
10
548.26734693877586
20
56.998203538259133
10
584.26734693877575
20
56.998203538259133
42
0.99999999999999989
0
LWPOLYLINE
5
281
100
AcDbEntity
8
INTERIOR_PROFILES
100
AcDbPolyline
90
4
70
1
43
0.0
10
676.92040816326539
20
60.99820353825919
10
640.92040816326539
20
60.99820353825919
42
0.99999999999999989
10
640.92040816326539
20
56.998203538259133
10
676.92040816326539
20
56.998203538259133
42
0.99999999999999989
0
LWPOLYLINE
5
282
100
AcDbEntity
8
INTERIOR_PROFILES
100
AcDbPolyline
90
4
70
1
43
0.0
10
769.57346938775515
20
60.99820353825919
10
733.57346938775527
20
60.99820353825919
42
0.99999999999999989
10
733.57346938775527
20
56.998203538259133
10
769.57346938775515
20
56.998203538259133
42
0.99999999999999989
0
LWPOLYLINE
5
283
100
AcDbEntity
8
INTERIOR_PROFILES
100
AcDbPolyline
90
4
70
1
43
0.0
10
468.45102040816352
20
68.998203538259162
10
455.61428571428576
20
68.998203538259162
42
0.99999999999999989
10
455.61428571428576
20
64.998203538259247
10
468.45102040816352
20
64.998203538259247
42
0.99999999999999989
0
LWPOLYLINE
5
284
100
AcDbEntity
8
INTERIOR_PROFILES
100
AcDbPolyline
90
4
70
1
43
0.0
10
561.10408163265322
20
68.998203538259162
10
525.10408163265322
20
68.998203538259162
42
0.99999999999999989
10
525.10408163265299
20
64.998203538259389
10
561.10408163265322
20
64.998203538259247
42
0.99999999999999989
0
LWPOLYLINE
5
285
100
AcDbEntity
8
INTERIOR_PROFILES
100
AcDbPolyline
90
4
70
1
43
0.0
10
653.75714285714298
20
68.998203538259162
10
617.75714285714298
20
68.998203538259162
42
0.99999999999999989
10
617.75714285714309
20
64.998203538259247
10
653.75714285714298
20
64.998203538259247
42
0.99999999999999989
0
LWPOLYLINE
5
286
100
AcDbEntity
8
INTERIOR_PROFILES
100
AcDbPolyline
90
4
70
1
43
0.0
10
746.41020408163274
20
68.998203538259162
10
710.41020408163263
20
68.998203538259162
42
0.99999999999999989
10
710.41020408163286
20
64.998203538259247
10
746.41020408163274
20
64.998203538259247
42
0.99999999999999989
0
LWPOLYLINE
5
287
100
AcDbEntity
8
INTERIOR_PROFILES
100
AcDbPolyline
90
4
70
1
43
0.0
10
815.90000000000009
20
68.998203538259162
10
803.06326530612239
20
68.998203538259162
42
0.99999999999999989
10
803.06326530612273
20
64.998203538259247
10
815.90000000000009
20
64.998203538259247
42
0.99999999999999989
0
LWPOLYLINE
5
288
100
AcDbEntity
8
INTERIOR_PROFILES
100
AcDbPolyline
90
4
70
1
43
0.0
10
537.94081632653069
20
76.998203538259133
10
501.94081632653086
20
76.998203538259204
42
0.99999999999999989
10
501.94081632653075
20
72.998203538259148
10
537.94081632653069
20
72.998203538259219
42
0.99999999999999989
0
LWPOLYLINE
5
289
100
AcDbEntity
8
INTERIOR_PROFILES
100
AcDbPolyline
90
4
70
1
43
0.0
10
630.59387755102057
20
76.998203538259133
10
594.59387755102057
20
76.998203538259204
42
0.99999999999999989
10
594.59387755102057
20
72.998203538259148
10
630.59387755102057
20
72.998203538259219
42
0.99999999999999989
0
LWPOLYLINE
5
290
100
AcDbEntity
8
INTERIOR_PROFILES
100
AcDbPolyline
90
4
70
1
43
0.0
10
723.24693877551022
20
76.998203538259133
10
687.24693877551033
20
76.998203538259204
42
0.99999999999999989
10
687.24693877551033
20
72.998203538259148
10
723.24693877551022
20
72.998203538259219
42
0.99999999999999989
0
LWPOLYLINE
5
291
100
AcDbEntity
8
INTERIOR_PROFILES
100
AcDbPolyline
90
4
70
1
43
0.0
10
815.90000000000009
20
76.998203538259133
10
779.90000000000009
20
76.998203538259204
42
0.99999999999999989
10
779.90000000000009
20
72.998203538259148
10
815.90000000000009
20
72.998203538259219
42
0.99999999999999989
0
LWPOLYLINE
5
292
100
AcDbEntity
8
INTERIOR_PROFILES
100
AcDbPolyline
90
4
70
1
43
0.0
10
514.77755102040828
20
84.998203538259105
10
478.77755102040828
20
84.998203538259176
42
0.99999999999999989
10
478.77755102040817
20
80.998203538259261
10
514.77755102040851
20
80.99820353825919
42
0.99999999999999989
0
LWPOLYLINE
5
293
100
AcDbEntity
8
INTERIOR_PROFILES
100
AcDbPolyline
90
4
70
1
43
0.0
10
607.43061224489793
20
84.998203538259105
10
571.43061224489793
20
84.998203538259176
42
0.99999999999999989
10
571.43061224489827
20
80.998203538259119
10
607.43061224489816
20
80.99820353825919
42
0.99999999999999989
0
LWPOLYLINE
5
294
100
AcDbEntity
8
INTERIOR_PROFILES
100
AcDbPolyline
90
4
70
1
43
0.0
10
746.41020408163274
20
84.998203538259105
10
710.41020408163263
20
84.998203538259176
42
0.99999999999999989
10
710.41020408163286
20
80.998203538259119
10
746.41020408163274
20
80.99820353825919
42
0.99999999999999989
0
LWPOLYLINE
5
295
100
AcDbEntity
8
INTERIOR_PROFILES
100
AcDbPolyline
90
4
70
1
43
0.0
10
815.90000000000009
20
84.998203538259105
10
803.06326530612239
20
84.998203538259176
42
0.99999999999999989
10
803.06326530612273
20
80.998203538259119
10
815.90000000000009
20
80.99820353825919
42
0.99999999999999989
0
LWPOLYLINE
5
296
100
AcDbEntity
8
INTERIOR_PROFILES
100
AcDbPolyline
90
4
70
1
43
0.0
10
537.94081632653069
20
92.998203538259219
10
501.94081632653081
20
92.998203538259219
42
0.99999999999999989
10
501.94081632653081
20
88.998203538259162
10
537.94081632653081
20
88.998203538259162
42
0.99999999999999989
0
LWPOLYLINE
5
297
100
AcDbEntity
8
INTERIOR_PROFILES
100
AcDbPolyline
90
4
70
1
43
0.0
10
630.59387755102046
20
92.998203538259219
10
594.59387755102057
20
92.998203538259219
42
0.99999999999999989
10
594.59387755102057
20
88.998203538259162
10
630.59387755102057
20
88.998203538259162
42
0.99999999999999989
0
LWPOLYLINE
5
298
100
AcDbEntity
8
INTERIOR_PROFILES
100
AcDbPolyline
90
4
70
1
43
0.0
10
723.24693877551022
20
92.998203538259219
10
687.24693877551033
20
92.998203538259219
42
0.99999999999999989
10
687.24693877551033
20
88.998203538259162
10
723.24693877551022
20
88.998203538259162
42
0.99999999999999989
0
LWPOLYLINE
5
299
100
AcDbEntity
8
INTERIOR_PROFILES
100
AcDbPolyline
90
4
70
1
43
0.0
10
815.90000000000009
20
92.998203538259219
10
779.90000000000009
20
92.998203538259219
42
0.99999999999999989
10
779.90000000000009
20
88.998203538259162
10
815.90000000000009
20
88.998203538259162
42
0.99999999999999989
0
LWPOLYLINE
5
300
100
AcDbEntity
8
INTERIOR_PROFILES
100
AcDbPolyline
90
4
70
1
43
0.0
10
769.57346938775515
20
92.998203538259219
10
733.57346938775527
20
92.998203538259219
42
0.99999999999999989
10
733.57346938775527
20
88.998203538259162
10
769.57346938775515
20
88.998203538259162
42
0.99999999999999989
0
LWPOLYLINE
5
301
100
AcDbEntity
8
INTERIOR_PROFILES
100
AcDbPolyline
90
4
70
1
43
0.0
10
676.92040816326539
20
92.998203538259219
10
640.92040816326539
20
92.998203538259219
42
0.99999999999999989
10
640.92040816326539
20
88.998203538259162
10
676.92040816326539
20
88.998203538259162
42
0.99999999999999989
0
LWPOLYLINE
5
302
100
AcDbEntity
8
INTERIOR_PROFILES
100
AcDbPolyline
90
4
70
1
43
0.0
10
584.26734693877552
20
92.998203538259219
10
548.26734693877575
20
92.998203538259219
42
0.99999999999999989
10
548.26734693877575
20
88.998203538259162
10
584.26734693877575
20
88.998203538259162
42
0.99999999999999989
0
LWPOLYLINE
5
303
100
AcDbEntity
8
INTERIOR_PROFILES
100
AcDbPolyline
90
4
70
1
43
0.0
10
491.61428571428587
20
92.998203538259219
10
455.61428571428593
20
92.998203538259219
42
0.99999999999999989
10
455.61428571428593
20
88.998203538259162
10
491.61428571428587
20
88.998203538259162
42
0.99999999999999989
0
LWPOLYLINE
5
304
100
AcDbEntity
8
INTERIOR_PROFILES
100
AcDbPolyline
90
4
70
1
43
0.0
10
792.73673469387757
20
84.998203538259105
10
756.73673469387745
20
84.998203538259176
42
0.99999999999999989
10
756.73673469387779
20
80.998203538259119
10
792.73673469387757
20
80.99820353825919
42
0.99999999999999989
0
LWPOLYLINE
5
305
100
AcDbEntity
8
INTERIOR_PROFILES
100
AcDbPolyline
90
4
70
1
43
0.0
10
700.0836734693878
20
84.998203538259105
10
664.0836734693878
20
84.998203538259176
42
0.99999999999999989
10
664.08367346938803
20
80.998203538259119
10
700.0836734693878
20
80.99820353825919
42
0.99999999999999989
0
LWPOLYLINE
5
306
100
AcDbEntity
8
INTERIOR_PROFILES
100
AcDbPolyline
90
4
70
1
43
0.0
10
653.75714285714275
20
84.998203538259105
10
617.75714285714287
20
84.998203538259176
42
0.99999999999999989
10
617.75714285714321
20
80.998203538259119
10
653.75714285714309
20
80.99820353825919
42
0.99999999999999989
0
LWPOLYLINE
5
307
100
AcDbEntity
8
INTERIOR_PROFILES
100
AcDbPolyline
90
4
70
1
43
0.0
10
561.10408163265322
20
84.998203538259105
10
525.10408163265322
20
84.998203538259176
42
0.99999999999999989
10
525.10408163265299
20
80.998203538259261
10
561.10408163265322
20
80.99820353825919
42
0.99999999999999989
0
LWPOLYLINE
5
308
100
AcDbEntity
8
INTERIOR_PROFILES
100
AcDbPolyline
90
4
70
1
43
0.0
10
468.45102040816346
20
84.998203538259105
10
455.6142857142857
20
84.998203538259176
42
0.99999999999999989
10
455.61428571428587
20
80.998203538259119
10
468.45102040816357
20
80.99820353825919
42
0.99999999999999989
0
LWPOLYLINE
5
309
100
AcDbEntity
8
INTERIOR_PROFILES
100
AcDbPolyline
90
4
70
1
43
0.0
10
769.57346938775515
20
76.998203538259133
10
733.57346938775527
20
76.998203538259204
42
0.99999999999999989
10
733.57346938775527
20
72.998203538259148
10
769.57346938775515
20
72.998203538259219
42
0.99999999999999989
0
LWPOLYLINE
5
310
100
AcDbEntity
8
INTERIOR_PROFILES
100
AcDbPolyline
90
4
70
1
43
0.0
10
676.92040816326539
20
76.998203538259133
10
640.92040816326539
20
76.998203538259204
42
0.99999999999999989
10
640.92040816326539
20
72.998203538259148
10
676.92040816326539
20
72.998203538259219
42
0.99999999999999989
0
LWPOLYLINE
5
311
100
AcDbEntity
8
INTERIOR_PROFILES
100
AcDbPolyline
90
4
70
1
43
0.0
10
584.26734693877563
20
76.998203538259133
10
548.26734693877575
20
76.998203538259204
42
0.99999999999999989
10
548.26734693877575
20
72.998203538259148
10
584.26734693877563
20
72.998203538259219
42
0.99999999999999989
0
LWPOLYLINE
5
312
100
AcDbEntity
8
BEND_EXTENT
100
AcDbPolyline
90
4
70
1
43
0.0
10
845.81084088536284
20
528.90904442362194
10
3.9891591146373173
20
528.90904442362194
10
3.9891591146373173
20
114.08736265289633
10
845.81084088536284
20
114.08736265289633
0
ENDSEC
0
SECTION
2
OBJECTS
0
DICTIONARY
5
C
100
AcDbDictionary
3
ACAD_GROUP
350
D
3
ACAD_MLINESTYLE
350
17
0
DICTIONARY
5
D
100
AcDbDictionary
0
DICTIONARY
5
1A
330
C
100
AcDbDictionary
0
DICTIONARY
5
17
100
AcDbDictionary
0
ENDSEC
0
EOF
