0
SECTION
2
HEADER
9
$INSUNITS
70
4
9
$ACADVER
1
AC1014
9
$HANDSEED
5
FFFF
0
ENDSEC
0
SECTION
2
TABLES
0
TABLE
2
VPORT
5
8
100
AcDbSymbolTable
0
ENDTAB
0
TABLE
2
LTYPE
5
5
100
AcDbSymbolTable
0
LTYPE
5
14
100
AcDbSymbolTableRecord
100
AcDbLinetypeTableRecord
2
BYBLOCK
70
0
0
LTYPE
5
15
100
AcDbSymbolTableRecord
100
AcDbLinetypeTableRecord
2
BYLAYER
70
0
0
LTYPE
5
16
100
AcDbSymbolTableRecord
100
AcDbLinetypeTableRecord
2
DASHED
70
0
3
Dashed __ __ __ __ __ __ __ __ __ __ __ __ __ _
72
65
73
2
40
0.75
49
0.5
74
0
49
-0.25
74
0
0
ENDTAB
0
TABLE
2
LAYER
5
2
100
AcDbSymbolTable
70
2
0
LAYER
5
50
100
AcDbSymbolTableRecord
100
AcDbLayerTableRecord
2
0
70
0
62
7
6
CONTINUOUS
0
ENDTAB
0
TABLE
2
STYLE
5
3
100
AcDbSymbolTable
70
1
0
STYLE
5
11
100
AcDbSymbolTableRecord
100
AcDbTextStyleTableRecord
2
STANDARD
70
0
0
ENDTAB
0
TABLE
2
VIEW
5
6
100
AcDbSymbolTable
70
0
0
ENDTAB
0
TABLE
2
UCS
5
7
100
AcDbSymbolTable
70
0
0
ENDTAB
0
TABLE
2
APPID
5
9
100
AcDbSymbolTable
70
2
0
APPID
5
12
100
AcDbSymbolTableRecord
100
AcDbRegAppTableRecord
2
ACAD
70
0
0
ENDTAB
0
TABLE
2
DIMSTYLE
5
A
100
AcDbSymbolTable
70
1
0
ENDTAB
0
TABLE
2
BLOCK_RECORD
5
1
100
AcDbSymbolTable
70
1
0
BLOCK_RECORD
5
1F
100
AcDbSymbolTableRecord
100
AcDbBlockTableRecord
2
*MODEL_SPACE
0
BLOCK_RECORD
5
1B
100
AcDbSymbolTableRecord
100
AcDbBlockTableRecord
2
*PAPER_SPACE
0
ENDTAB
0
ENDSEC
0
SECTION
2
BLOCKS
0
BLOCK
5
20
100
AcDbEntity
100
AcDbBlockBegin
2
*MODEL_SPACE
0
ENDBLK
5
21
100
AcDbEntity
100
AcDbBlockEnd
0
BLOCK
5
1C
100
AcDbEntity
100
AcDbBlockBegin
2
*PAPER_SPACE
0
ENDBLK
5
1D
100
AcDbEntity
100
AcDbBlockEnd
0
ENDSEC
0
SECTION
2
ENTITIES
0
LWPOLYLINE
5
100
100
AcDbEntity
8
OUTER_PROFILES
100
AcDbPolyline
90
74
70
1
43
0.0
10
871.54276719884388
20
522.85343757536464
10
954.78055581749481
20
147.3375048298596
10
939.47377220838143
20
143.94456539005617
42
0.99999999999999989
10
939.90659151848695
20
141.99196009333079
10
944.29995343611893
20
142.96580354106788
10
945.186058197693
20
138.96826274169356
10
944.97950408270253
20
138.5138436887145
10
945.46874526663953
20
136.30669880208927
42
-0.16260144785335459
10
945.3566537761094
20
135.23533738318773
10
945.20608662782729
20
134.90408965696702
10
943.65846361614103
20
135.60755466227909
10
933.4713455011655
20
113.1958948093329
42
-0.29410761505737471
10
931.65061254624015
20
112.02350069793532
10
924.98915911463723
20
112.02350069793532
10
924.98915911463723
20
116.22350069793541
42
0.99999999999999989
10
922.98915911463735
20
116.22350069793541
10
922.98915911463723
20
97.545182468660983
10
856.98915911463723
20
97.545182468660983
10
856.98915911463712
20
116.22350069793541
42
0.99999999999999989
10
854.98915911463723
20
116.22350069793541
10
854.98915911463723
20
112.02350069793532
10
849.98915911463723
20
112.02350069793532
10
845.81084088536284
20
113.5235006979353
10
848.81084088536284
20
109.34518246866098
10
848.81084088536284
20
27.911001764330692
10
849.80000000000007
20
24.867512666535845
10
849.80000000000007
20
24.318283367645108
10
849.80000000000007
20
0
10
0
20
0
10
0
20
24.318283300309176
10
-1.4196976927394189e-13
20
24.867512666535845
10
0.98915911463720363
20
27.911001764330692
10
0.98915911463720363
20
109.34518246866098
10
3.9891591146373173
20
113.5235006979353
10
-0.18915911463722068
20
112.02350069793532
10
-5.1891591146372207
20
112.02350069793532
10
-5.1891591146370786
20
116.22350069793512
42
0.99999999999999989
10
-7.1891591146372491
20
116.22350069793541
10
-7.1891591146372491
20
97.545182468660983
10
-73.189159114637192
20
97.545182468660983
10
-73.189159114637334
20
116.22350069793555
42
0.99999999999999989
10
-75.189159114637221
20
116.22350069793541
10
-75.189159114637221
20
112.02350069793532
10
-81.850612546240313
20
112.02350069793532
42
-0.29410761505728966
10
-83.67134550116532
20
113.19589480933288
10
-93.858463616140995
20
135.60755466227909
10
-95.406086627827307
20
134.90408965696702
10
-95.556653776109357
20
135.23533738318775
42
-0.1626014478534315
10
-95.668745266639519
20
136.30669880208927
10
-95.179504082702664
20
138.5138436887145
10
-95.386058197692734
20
138.96826274169356
10
-94.499953436118744
20
142.96580354106788
10
-90.106591518486567
20
141.99196009333065
42
0.99999999999999989
10
-89.673772208381166
20
143.94456539005617
10
-104.98055581749469
20
147.33750482985968
10
-21.742767198843609
20
522.85343757536464
10
-6.4359835897302142
20
519.4604981355609
42
0.99999999999999989
10
-6.0031642796248397
20
521.41310343228645
10
-10.396526197257145
20
522.38694688002352
10
-9.1337985327176501
20
528.08357054845624
42
-0.18073183902968651
10
-7.9903446546566652
20
529.84518246866094
10
-0.18915911463722068
20
529.84518246866094
10
3.9891591146373173
20
528.34518246866094
10
0.98915911463720363
20
532.52350069793533
10
0.98915911463720363
20
538.61828054153932
10
848.81084088536284
20
538.61828054153932
10
848.81084088536284
20
532.52350069793533
10
845.81084088536284
20
528.34518246866094
10
849.98915911463723
20
529.84518246866094
10
857.79034465465679
20
529.84518246866094
42
-0.18073183902966508
10
858.9337985327179
20
528.08357054845624
10
860.19652619725719
20
522.38694688002352
10
855.80316427962521
20
521.41310343228645
42
0.99999999999999989
10
856.23598358973049
20
519.46049813556112
0
CIRCLE
5
101
100
AcDbEntity
8
INTERIOR_PROFILES
100
AcDbCircle
10
19.189159114637278
20
360.83740460345638
30
0
40
2.3000000000000398
210
0
220
0
230
-1
0
CIRCLE
5
102
100
AcDbEntity
8
INTERIOR_PROFILES
100
AcDbCircle
10
-27.614285714285813
20
98.434341583298206
30
0
40
1.8000000000000682
210
0
220
0
230
-1
0
CIRCLE
5
103
100
AcDbEntity
8
INTERIOR_PROFILES
100
AcDbCircle
10
-417.61428571428587
20
98.434341583298206
30
0
40
1.7999999999999972
210
0
220
0
230
-1
0
CIRCLE
5
104
100
AcDbEntity
8
INTERIOR_PROFILES
100
AcDbCircle
10
-27.614285714285813
20
34.43434158329822
30
0
40
1.8000000000000682
210
0
220
0
230
-1
0
CIRCLE
5
105
100
AcDbEntity
8
INTERIOR_PROFILES
100
AcDbCircle
10
-438.61428571428587
20
66.434341583298178
30
0
40
3.2500000000000284
210
0
220
0
230
-1
0
CIRCLE
5
106
100
AcDbEntity
8
INTERIOR_PROFILES
100
AcDbCircle
10
-417.61428571428587
20
34.43434158329822
30
0
40
1.7999999999999972
210
0
220
0
230
-1
0
LWPOLYLINE
5
107
100
AcDbEntity
8
INTERIOR_PROFILES
100
AcDbPolyline
90
8
70
1
43
0.0
10
36.614285714285728
20
86.434341583298178
10
36.614285714285728
20
46.434341583298178
42
0.41421356237310197
10
39.614285714285842
20
43.434341583298277
10
405.61428571428587
20
43.434341583298206
42
0.41421356237306728
10
408.61428571428581
20
46.434341583298178
10
408.61428571428587
20
86.434341583298178
42
0.41421356237312973
10
405.61428571428587
20
89.434341583298149
10
39.614285714285842
20
89.434341583298149
42
0.4142135623730534
0
LWPOLYLINE
5
108
100
AcDbEntity
8
INTERIOR_PROFILES
100
AcDbPolyline
90
4
70
1
43
0.0
10
455.61428571428587
20
40.434341583298163
42
-0.99999999999999989
10
455.61428571428587
20
44.43434158329822
10
491.61428571428587
20
44.43434158329822
42
-0.99999999999999989
10
491.61428571428587
20
40.434341583298234
0
LWPOLYLINE
5
109
100
AcDbEntity
8
INTERIOR_PROFILES
100
AcDbPolyline
90
4
70
1
43
0.0
10
548.26734693877575
20
40.434341583298234
10
584.26734693877575
20
40.434341583298234
42
0.99999999999999989
10
584.26734693877552
20
44.434341583298291
10
548.26734693877575
20
44.434341583298149
42
0.99999999999999989
0
LWPOLYLINE
5
110
100
AcDbEntity
8
INTERIOR_PROFILES
100
AcDbPolyline
90
4
70
1
43
0.0
10
640.92040816326528
20
40.434341583298021
42
-0.99999999999999989
10
640.92040816326539
20
44.43434158329822
10
676.92040816326539
20
44.434341583298256
42
-0.99999999999999989
10
676.92040816326539
20
40.434341583298234
0
LWPOLYLINE
5
111
100
AcDbEntity
8
INTERIOR_PROFILES
100
AcDbPolyline
90
4
70
1
43
0.0
10
769.57346938775515
20
44.434341583298291
42
-0.99999999999999989
10
769.57346938775515
20
40.434341583298234
10
733.57346938775527
20
40.43434158329822
42
-0.99999999999999989
10
733.57346938775527
20
44.43434158329822
0
LWPOLYLINE
5
112
100
AcDbEntity
8
INTERIOR_PROFILES
100
AcDbPolyline
90
4
70
1
43
0.0
10
468.45102040816346
20
52.434341583298405
42
-0.99999999999999989
10
468.45102040816346
20
48.434341583298206
10
455.61428571428587
20
48.434341583298561
42
-0.99999999999999989
10
455.61428571428587
20
52.434341583298192
0
LWPOLYLINE
5
113
100
AcDbEntity
8
INTERIOR_PROFILES
100
AcDbPolyline
90
4
70
1
43
0.0
10
561.10408163265322
20
52.434341583298121
42
-0.99999999999999989
10
561.10408163265322
20
48.434341583298206
10
525.10408163265322
20
48.434341583298561
42
-0.99999999999999989
10
525.10408163265322
20
52.434341583298192
0
LWPOLYLINE
5
114
100
AcDbEntity
8
INTERIOR_PROFILES
100
AcDbPolyline
90
4
70
1
43
0.0
10
653.75714285714298
20
52.434341583298263
10
617.75714285714275
20
52.434341583298192
42
0.99999999999999989
10
617.75714285714298
20
48.434341583298419
10
653.75714285714298
20
48.434341583298206
42
0.99999999999999989
0
LWPOLYLINE
5
115
100
AcDbEntity
8
INTERIOR_PROFILES
100
AcDbPolyline
90
4
70
1
43
0.0
10
746.41020408163274
20
52.434341583298121
42
-0.99999999999999989
10
746.41020408163274
20
48.434341583298206
10
710.41020408163263
20
48.434341583298419
42
-0.99999999999999989
10
710.41020408163274
20
52.434341583298192
0
LWPOLYLINE
5
116
100
AcDbEntity
8
INTERIOR_PROFILES
100
AcDbPolyline
90
4
70
1
43
0.0
10
803.0632653061225
20
48.434341583298206
10
815.90000000000009
20
48.434341583298206
42
0.99999999999999989
10
815.90000000000009
20
52.434341583298121
10
803.06326530612228
20
52.434341583298405
42
0.99999999999999989
0
LWPOLYLINE
5
117
100
AcDbEntity
8
INTERIOR_PROFILES
100
AcDbPolyline
90
4
70
1
43
0.0
10
537.94081632653058
20
60.434341583298234
42
-0.99999999999999989
10
537.94081632653069
20
56.434341583298178
10
501.94081632653075
20
56.434341583298036
42
-0.99999999999999989
10
501.94081632653075
20
60.434341583298234
0
LWPOLYLINE
5
118
100
AcDbEntity
8
INTERIOR_PROFILES
100
AcDbPolyline
90
4
70
1
43
0.0
10
630.59387755102034
20
60.434341583298234
42
-0.99999999999999989
10
630.59387755102057
20
56.434341583298178
10
594.59387755102057
20
56.434341583298178
42
-0.99999999999999989
10
594.59387755102057
20
60.434341583298234
0
LWPOLYLINE
5
119
100
AcDbEntity
8
INTERIOR_PROFILES
100
AcDbPolyline
90
4
70
1
43
0.0
10
723.24693877551022
20
60.434341583298092
42
-0.99999999999999989
10
723.24693877551022
20
56.434341583298178
10
687.24693877551067
20
56.43434158329832
42
-0.99999999999999989
10
687.24693877551033
20
60.434341583298234
0
LWPOLYLINE
5
120
100
AcDbEntity
8
INTERIOR_PROFILES
100
AcDbPolyline
90
4
70
1
43
0.0
10
779.90000000000009
20
56.434341583298249
10
815.90000000000009
20
56.434341583298178
42
0.99999999999999989
10
815.90000000000009
20
60.434341583298092
10
779.90000000000009
20
60.434341583298306
42
0.99999999999999989
0
LWPOLYLINE
5
121
100
AcDbEntity
8
INTERIOR_PROFILES
100
AcDbPolyline
90
4
70
1
43
0.0
10
514.77755102040828
20
68.434341583298206
10
478.77755102040845
20
68.434341583298206
42
0.99999999999999989
10
478.77755102040828
20
64.434341583298007
10
514.77755102040862
20
64.434341583297865
42
0.99999999999999989
0
LWPOLYLINE
5
122
100
AcDbEntity
8
INTERIOR_PROFILES
100
AcDbPolyline
90
4
70
1
43
0.0
10
607.43061224489804
20
68.434341583297993
42
-0.99999999999999989
10
607.43061224489804
20
64.43434158329822
10
571.43061224489827
20
64.434341583298149
42
-0.99999999999999989
10
571.43061224489816
20
68.434341583298206
0
LWPOLYLINE
5
123
100
AcDbEntity
8
INTERIOR_PROFILES
100
AcDbPolyline
90
4
70
1
43
0.0
10
664.08367346938803
20
64.434341583298291
42
-0.99999999999999989
10
664.0836734693878
20
68.434341583298206
10
700.0836734693878
20
68.434341583297851
42
-0.99999999999999989
10
700.0836734693878
20
64.43434158329822
0
LWPOLYLINE
5
124
100
AcDbEntity
8
INTERIOR_PROFILES
100
AcDbPolyline
90
4
70
1
43
0.0
10
792.73673469387757
20
68.434341583298206
10
756.73673469387768
20
68.434341583298206
42
0.99999999999999989
10
756.73673469387768
20
64.434341583298291
10
792.73673469387791
20
64.434341583298007
42
0.99999999999999989
0
LWPOLYLINE
5
125
100
AcDbEntity
8
INTERIOR_PROFILES
100
AcDbPolyline
90
4
70
1
43
0.0
10
491.61428571428587
20
76.434341583298178
10
455.61428571428587
20
76.434341583298178
42
0.99999999999999989
10
455.61428571428587
20
72.434341583298263
10
491.61428571428576
20
72.434341583298405
42
0.99999999999999989
0
LWPOLYLINE
5
126
100
AcDbEntity
8
INTERIOR_PROFILES
100
AcDbPolyline
90
4
70
1
43
0.0
10
548.26734693877575
20
72.434341583298263
42
-0.99999999999999989
10
548.26734693877575
20
76.434341583298178
10
584.26734693877563
20
76.434341583298178
42
-0.99999999999999989
10
584.26734693877563
20
72.434341583298192
0
LWPOLYLINE
5
127
100
AcDbEntity
8
INTERIOR_PROFILES
100
AcDbPolyline
90
4
70
1
43
0.0
10
676.92040816326539
20
76.434341583298391
42
-0.99999999999999989
10
676.92040816326539
20
72.434341583298192
10
640.92040816326562
20
72.434341583298121
42
-0.99999999999999989
10
640.92040816326539
20
76.434341583298178
0
LWPOLYLINE
5
128
100
AcDbEntity
8
INTERIOR_PROFILES
100
AcDbPolyline
90
4
70
1
43
0.0
10
769.57346938775515
20
76.434341583298178
10
733.57346938775527
20
76.434341583298178
42
0.99999999999999989
10
733.57346938775527
20
72.434341583298121
10
769.57346938775515
20
72.434341583298405
42
0.99999999999999989
0
LWPOLYLINE
5
129
100
AcDbEntity
8
INTERIOR_PROFILES
100
AcDbPolyline
90
4
70
1
43
0.0
10
455.61428571428587
20
80.434341583298234
10
468.45102040816329
20
80.434341583298234
42
0.99999999999999989
10
468.45102040816346
20
84.434341583298291
10
455.61428571428598
20
84.434341583298149
42
0.99999999999999989
0
LWPOLYLINE
5
130
100
AcDbEntity
8
INTERIOR_PROFILES
100
AcDbPolyline
90
4
70
1
43
0.0
10
561.10408163265322
20
84.434341583298149
42
-0.99999999999999989
10
561.10408163265322
20
80.434341583298234
10
525.10408163265322
20
80.434341583298234
42
-0.99999999999999989
10
525.10408163265322
20
84.43434158329822
0
LWPOLYLINE
5
131
100
AcDbEntity
8
INTERIOR_PROFILES
100
AcDbPolyline
90
4
70
1
43
0.0
10
653.75714285714275
20
84.434341583298291
42
-0.99999999999999989
10
653.75714285714298
20
80.434341583298234
10
617.75714285714298
20
80.434341583298234
42
-0.99999999999999989
10
617.75714285714298
20
84.43434158329822
0
LWPOLYLINE
5
132
100
AcDbEntity
8
INTERIOR_PROFILES
100
AcDbPolyline
90
4
70
1
43
0.0
10
664.08367346938792
20
80.434341583298163
42
-0.99999999999999989
10
664.08367346938792
20
84.43434158329822
10
700.0836734693878
20
84.434341583298234
42
-0.99999999999999989
10
700.0836734693878
20
80.434341583298234
0
LWPOLYLINE
5
133
100
AcDbEntity
8
INTERIOR_PROFILES
100
AcDbPolyline
90
4
70
1
43
0.0
10
756.73673469387768
20
80.434341583298234
10
792.73673469387757
20
80.434341583298234
42
0.99999999999999989
10
792.73673469387757
20
84.434341583298291
10
756.73673469387768
20
84.434341583298007
42
0.99999999999999989
0
LWPOLYLINE
5
134
100
AcDbEntity
8
INTERIOR_PROFILES
100
AcDbPolyline
90
4
70
1
43
0.0
10
455.61428571428587
20
88.434341583298277
10
491.61428571428587
20
88.434341583298206
42
0.99999999999999989
10
491.61428571428587
20
92.434341583298263
10
455.6142857142857
20
92.434341583298476
42
0.99999999999999989
0
LWPOLYLINE
5
135
100
AcDbEntity
8
INTERIOR_PROFILES
100
AcDbPolyline
90
4
70
1
43
0.0
10
584.26734693877563
20
92.434341583298263
10
548.26734693877529
20
92.434341583298192
42
0.99999999999999989
10
548.26734693877586
20
88.434341583298561
10
584.26734693877563
20
88.434341583298206
42
0.99999999999999989
0
LWPOLYLINE
5
136
100
AcDbEntity
8
INTERIOR_PROFILES
100
AcDbPolyline
90
4
70
1
43
0.0
10
676.92040816326539
20
92.434341583298263
42
-0.99999999999999989
10
676.92040816326539
20
88.434341583298206
10
640.92040816326539
20
88.434341583298419
42
-0.99999999999999989
10
640.92040816326539
20
92.434341583298192
0
LWPOLYLINE
5
137
100
AcDbEntity
8
INTERIOR_PROFILES
100
AcDbPolyline
90
4
70
1
43
0.0
10
769.57346938775515
20
92.434341583298192
10
733.57346938775504
20
92.434341583298192
42
0.99999999999999989
10
733.57346938775504
20
88.434341583298419
10
769.57346938775515
20
88.434341583298277
42
0.99999999999999989
0
LWPOLYLINE
5
138
100
AcDbEntity
8
INTERIOR_PROFILES
100
AcDbPolyline
90
4
70
1
43
0.0
10
815.90000000000009
20
92.434341583298192
10
779.89999999999998
20
92.434341583298192
42
0.99999999999999989
10
779.89999999999998
20
88.434341583298419
10
815.90000000000009
20
88.434341583298135
42
0.99999999999999989
0
LWPOLYLINE
5
139
100
AcDbEntity
8
INTERIOR_PROFILES
100
AcDbPolyline
90
4
70
1
43
0.0
10
687.24693877551033
20
88.434341583298206
10
723.24693877551022
20
88.434341583298206
42
0.99999999999999989
10
723.24693877551022
20
92.434341583298121
10
687.24693877550999
20
92.434341583298547
42
0.99999999999999989
0
LWPOLYLINE
5
140
100
AcDbEntity
8
INTERIOR_PROFILES
100
AcDbPolyline
90
4
70
1
43
0.0
10
630.59387755102034
20
92.434341583298263
42
-0.99999999999999989
10
630.59387755102057
20
88.434341583298206
10
594.59387755102046
20
88.434341583298419
42
-0.99999999999999989
10
594.59387755102057
20
92.434341583298192
0
LWPOLYLINE
5
141
100
AcDbEntity
8
INTERIOR_PROFILES
100
AcDbPolyline
90
4
70
1
43
0.0
10
537.94081632653058
20
92.434341583298263
42
-0.99999999999999989
10
537.94081632653069
20
88.434341583298206
10
501.94081632653075
20
88.434341583298561
42
-0.99999999999999989
10
501.94081632653075
20
92.434341583298192
0
LWPOLYLINE
5
142
100
AcDbEntity
8
INTERIOR_PROFILES
100
AcDbPolyline
90
4
70
1
43
0.0
10
803.0632653061225
20
80.434341583298234
10
815.90000000000009
20
80.434341583298234
42
0.99999999999999989
10
815.90000000000009
20
84.434341583298291
10
803.06326530612284
20
84.434341583298007
42
0.99999999999999989
0
LWPOLYLINE
5
143
100
AcDbEntity
8
INTERIOR_PROFILES
100
AcDbPolyline
90
4
70
1
43
0.0
10
710.41020408163286
20
80.434341583298021
42
-0.99999999999999989
10
710.41020408163263
20
84.43434158329822
10
746.41020408163286
20
84.434341583298206
42
-0.99999999999999989
10
746.41020408163274
20
80.434341583298234
0
LWPOLYLINE
5
144
100
AcDbEntity
8
INTERIOR_PROFILES
100
AcDbPolyline
90
4
70
1
43
0.0
10
571.43061224489827
20
80.434341583298021
42
-0.99999999999999989
10
571.43061224489816
20
84.43434158329822
10
607.43061224489804
20
84.43434158329822
42
-0.99999999999999989
10
607.43061224489804
20
80.434341583298234
0
LWPOLYLINE
5
145
100
AcDbEntity
8
INTERIOR_PROFILES
100
AcDbPolyline
90
4
70
1
43
0.0
10
514.77755102040828
20
84.43434158329822
10
478.77755102040857
20
84.43434158329822
42
0.99999999999999989
10
478.77755102040828
20
80.434341583297879
10
514.77755102040817
20
80.434341583298306
42
0.99999999999999989
0
LWPOLYLINE
5
146
100
AcDbEntity
8
INTERIOR_PROFILES
100
AcDbPolyline
90
4
70
1
43
0.0
10
779.90000000000009
20
72.434341583298192
10
815.90000000000009
20
72.434341583298192
42
0.99999999999999989
10
815.90000000000009
20
76.434341583298391
10
779.90000000000009
20
76.434341583298107
42
0.99999999999999989
0
LWPOLYLINE
5
147
100
AcDbEntity
8
INTERIOR_PROFILES
100
AcDbPolyline
90
4
70
1
43
0.0
10
723.24693877551022
20
76.434341583298178
10
687.24693877550999
20
76.434341583298178
42
0.99999999999999989
10
687.24693877551067
20
72.434341583298263
10
723.24693877551022
20
72.434341583298405
42
0.99999999999999989
0
LWPOLYLINE
5
148
100
AcDbEntity
8
INTERIOR_PROFILES
100
AcDbPolyline
90
4
70
1
43
0.0
10
630.59387755102057
20
76.434341583298391
42
-0.99999999999999989
10
630.59387755102057
20
72.434341583298192
10
594.59387755102057
20
72.434341583298121
42
-0.99999999999999989
10
594.59387755102057
20
76.434341583298178
0
LWPOLYLINE
5
149
100
AcDbEntity
8
INTERIOR_PROFILES
100
AcDbPolyline
90
4
70
1
43
0.0
10
501.94081632653075
20
72.434341583298121
42
-0.99999999999999989
10
501.94081632653075
20
76.434341583298178
10
537.94081632653069
20
76.434341583298178
42
-0.99999999999999989
10
537.94081632653069
20
72.434341583298192
0
LWPOLYLINE
5
150
100
AcDbEntity
8
INTERIOR_PROFILES
100
AcDbPolyline
90
4
70
1
43
0.0
10
803.0632653061225
20
64.434341583298149
42
-0.99999999999999989
10
803.0632653061225
20
68.434341583298206
10
815.90000000000009
20
68.434341583298192
42
-0.99999999999999989
10
815.90000000000009
20
64.43434158329822
0
LWPOLYLINE
5
151
100
AcDbEntity
8
INTERIOR_PROFILES
100
AcDbPolyline
90
4
70
1
43
0.0
10
746.41020408163286
20
68.434341583297993
42
-0.99999999999999989
10
746.41020408163274
20
64.43434158329822
10
710.41020408163274
20
64.434341583298291
42
-0.99999999999999989
10
710.41020408163274
20
68.434341583298206
0
LWPOLYLINE
5
152
100
AcDbEntity
8
INTERIOR_PROFILES
100
AcDbPolyline
90
4
70
1
43
0.0
10
-70.099999999999767
20
203.61615976511638
42
-0.99999999999999989
10
-66.099999999999994
20
203.61615976511638
10
-66.100000000000279
20
170.43434158329816
42
-0.99999999999999989
10
-70.100000000000051
20
170.43434158329816
0
LWPOLYLINE
5
153
100
AcDbEntity
8
INTERIOR_PROFILES
100
AcDbPolyline
90
4
70
1
43
0.0
10
-58.099999999999881
20
194.43434158329813
42
-0.99999999999999989
10
-62.099999999999937
20
194.43434158329813
10
-62.099999999999795
20
230.43434158329816
42
-0.99999999999999989
10
-58.100000000000023
20
230.43434158329816
0
LWPOLYLINE
5
154
100
AcDbEntity
8
INTERIOR_PROFILES
100
AcDbPolyline
90
4
70
1
43
0.0
10
-50.100000000000193
20
218.43434158329813
10
-50.100000000000051
20
254.43434158329813
42
0.99999999999999989
10
-54.100000000000108
20
254.43434158329813
10
-54.099999999999966
20
218.43434158329799
42
0.99999999999999989
0
LWPOLYLINE
5
155
100
AcDbEntity
8
INTERIOR_PROFILES
100
AcDbPolyline
90
4
70
1
43
0.0
10
-42.099999999999937
20
194.43434158329813
42
-0.99999999999999989
10
-46.099999999999994
20
194.43434158329813
10
-46.099999999999994
20
230.43434158329816
42
-0.99999999999999989
10
-42.099999999999937
20
230.43434158329816
0
LWPOLYLINE
5
156
100
AcDbEntity
8
INTERIOR_PROFILES
100
AcDbPolyline
90
4
70
1
43
0.0
10
-38.099999999999739
20
206.43434158329819
42
-0.99999999999999989
10
-34.099999999999966
20
206.43434158329819
10
-34.099999999999966
20
170.43434158329816
42
-0.99999999999999989
10
-38.100000000000023
20
170.43434158329816
0
LWPOLYLINE
5
157
100
AcDbEntity
8
INTERIOR_PROFILES
100
AcDbPolyline
90
4
70
1
43
0.0
10
-26.099999999999994
20
160.43434158329816
10
-26.099999999999994
20
182.43434158329813
42
0.99999999999999989
10
-30.100000000000051
20
182.43434158329813
10
-30.099999999999767
20
160.43434158329774
42
0.99999999999999989
0
LWPOLYLINE
5
158
100
AcDbEntity
8
INTERIOR_PROFILES
100
AcDbPolyline
90
4
70
1
43
0.0
10
-26.099999999999994
20
242.43434158329816
10
-26.099999999999994
20
278.43434158329813
42
0.99999999999999989
10
-30.100000000000051
20
278.43434158329813
10
-30.100000000000051
20
242.43434158329802
42
0.99999999999999989
0
LWPOLYLINE
5
159
100
AcDbEntity
8
INTERIOR_PROFILES
100
AcDbPolyline
90
4
70
1
43
0.0
10
-18.099999999999881
20
218.43434158329813
42
-0.99999999999999989
10
-22.099999999999937
20
218.43434158329813
10
-22.099999999999795
20
254.43434158329813
42
-0.99999999999999989
10
-18.100000000000023
20
254.43434158329813
0
LWPOLYLINE
5
160
100
AcDbEntity
8
INTERIOR_PROFILES
100
AcDbPolyline
90
4
70
1
43
0.0
10
-14.099999999999824
20
230.43434158329816
10
-14.099999999999966
20
194.43434158329831
42
0.99999999999999989
10
-10.099999999999909
20
194.43434158329813
10
-10.099999999999483
20
230.43434158329774
42
0.99999999999999989
0
LWPOLYLINE
5
161
100
AcDbEntity
8
INTERIOR_PROFILES
100
AcDbPolyline
90
4
70
1
43
0.0
10
-14.100000000000108
20
182.43434158329813
10
-14.099999999999966
20
160.43434158329802
42
0.99999999999999989
10
-10.099999999999909
20
160.43434158329816
10
-10.099999999999767
20
182.43434158329796
42
0.99999999999999989
0
LWPOLYLINE
5
162
100
AcDbEntity
8
INTERIOR_PROFILES
100
AcDbPolyline
90
4
70
1
43
0.0
10
-22.099999999999795
20
206.43434158329819
42
-0.99999999999999989
10
-18.100000000000023
20
206.43434158329819
10
-18.099999999999881
20
170.43434158329816
42
-0.99999999999999989
10
-22.099999999999937
20
170.43434158329816
0
LWPOLYLINE
5
163
100
AcDbEntity
8
INTERIOR_PROFILES
100
AcDbPolyline
90
4
70
1
43
0.0
10
-30.100000000000051
20
230.43434158329816
10
-30.100000000000051
20
194.43434158329813
42
0.99999999999999989
10
-26.099999999999994
20
194.43434158329813
10
-26.099999999999994
20
230.43434158329825
42
0.99999999999999989
0
LWPOLYLINE
5
164
100
AcDbEntity
8
INTERIOR_PROFILES
100
AcDbPolyline
90
4
70
1
43
0.0
10
-34.10000000000025
20
218.43434158329813
42
-0.99999999999999989
10
-38.100000000000023
20
218.43434158329813
10
-38.099999999999739
20
254.43434158329813
42
-0.99999999999999989
10
-34.099999999999966
20
254.43434158329813
0
LWPOLYLINE
5
165
100
AcDbEntity
8
INTERIOR_PROFILES
100
AcDbPolyline
90
4
70
1
43
0.0
10
-42.099999999999937
20
242.43434158329816
10
-42.099999999999937
20
278.43434158329813
42
0.99999999999999989
10
-46.099999999999994
20
278.43434158329813
10
-46.09999999999971
20
242.43434158329788
42
0.99999999999999989
0
LWPOLYLINE
5
166
100
AcDbEntity
8
INTERIOR_PROFILES
100
AcDbPolyline
90
4
70
1
43
0.0
10
-46.099999999999994
20
182.43434158329813
10
-46.099999999999994
20
160.43434158329788
42
0.99999999999999989
10
-42.100000000000222
20
160.43434158329816
10
-42.100000000000222
20
182.43434158329853
42
0.99999999999999989
0
LWPOLYLINE
5
167
100
AcDbEntity
8
INTERIOR_PROFILES
100
AcDbPolyline
90
4
70
1
43
0.0
10
-54.099999999999824
20
206.43434158329819
42
-0.99999999999999989
10
-50.100000000000051
20
206.43434158329819
10
-50.099999999999909
20
170.43434158329816
42
-0.99999999999999989
10
-54.099999999999966
20
170.43434158329816
0
LWPOLYLINE
5
168
100
AcDbEntity
8
INTERIOR_PROFILES
100
AcDbPolyline
90
4
70
1
43
0.0
10
-58.099999999999881
20
160.43434158329816
42
-0.99999999999999989
10
-62.099999999999937
20
160.43434158329816
10
-62.10000000000008
20
182.43434158329813
42
-0.99999999999999989
10
-58.100000000000023
20
182.43434158329813
0
LWPOLYLINE
5
169
100
AcDbEntity
8
INTERIOR_PROFILES
100
AcDbPolyline
90
4
70
1
43
0.0
10
-10.100000000000193
20
242.43434158329816
10
-10.100000000000051
20
278.43434158329808
42
0.99999999999999989
10
-14.100000000000392
20
278.43434158329813
10
-14.099999999999966
20
242.43434158329808
42
0.99999999999999989
0
CIRCLE
5
170
100
AcDbEntity
8
INTERIOR_PROFILES
100
AcDbCircle
10
-718.25714285714298
20
381.4374046034564
30
0
40
2.3000000000000398
210
0
220
0
230
-1
0
CIRCLE
5
171
100
AcDbEntity
8
INTERIOR_PROFILES
100
AcDbCircle
10
-637.25714285714287
20
381.4374046034564
30
0
40
2.3000000000000398
210
0
220
0
230
-1
0
CIRCLE
5
172
100
AcDbEntity
8
INTERIOR_PROFILES
100
AcDbCircle
10
-121.47142857142867
20
11.971582874040507
30
0
40
1.25
210
0
220
0
230
-1
0
CIRCLE
5
173
100
AcDbEntity
8
INTERIOR_PROFILES
100
AcDbCircle
10
-627.18571428571431
20
11.971582874040507
30
0
40
1.25
210
0
220
0
230
-1
0
CIRCLE
5
174
100
AcDbEntity
8
INTERIOR_PROFILES
100
AcDbCircle
10
-222.61428571428581
20
11.971582874040507
30
0
40
1.25
210
0
220
0
230
-1
0
CIRCLE
5
175
100
AcDbEntity
8
INTERIOR_PROFILES
100
AcDbCircle
10
-526.0428571428572
20
11.971582874040507
30
0
40
1.25
210
0
220
0
230
-1
0
CIRCLE
5
176
100
AcDbEntity
8
INTERIOR_PROFILES
100
AcDbCircle
10
-20.328571428571394
20
11.971582874040507
30
0
40
1.25
210
0
220
0
230
-1
0
CIRCLE
5
177
100
AcDbEntity
8
INTERIOR_PROFILES
100
AcDbCircle
10
-424.90000000000003
20
11.971582874040507
30
0
40
1.25
210
0
220
0
230
-1
0
CIRCLE
5
178
100
AcDbEntity
8
INTERIOR_PROFILES
100
AcDbCircle
10
-728.32857142857154
20
11.971582874040507
30
0
40
1.25
210
0
220
0
230
-1
0
CIRCLE
5
179
100
AcDbEntity
8
INTERIOR_PROFILES
100
AcDbCircle
10
-323.75714285714298
20
11.971582874040507
30
0
40
1.25
210
0
220
0
230
-1
0
CIRCLE
5
180
100
AcDbEntity
8
INTERIOR_PROFILES
100
AcDbCircle
10
-829.47142857142865
20
11.971582874040507
30
0
40
1.25
210
0
220
0
230
-1
0
LWPOLYLINE
5
181
100
AcDbEntity
8
INTERIOR_PROFILES
100
AcDbPolyline
90
4
70
1
43
0.0
10
907.90000000000009
20
182.43434158329813
10
907.90000000000009
20
160.43434158329816
42
0.99999999999999989
10
911.90000000000009
20
160.43434158329816
10
911.89999999999986
20
182.43434158329796
42
0.99999999999999989
0
LWPOLYLINE
5
182
100
AcDbEntity
8
INTERIOR_PROFILES
100
AcDbPolyline
90
4
70
1
43
0.0
10
903.90000000000009
20
170.43434158329816
42
-0.99999999999999989
10
899.90000000000009
20
170.43434158329816
10
899.89999999999998
20
206.43434158329813
42
-0.99999999999999989
10
903.89999999999998
20
206.43434158329819
0
LWPOLYLINE
5
183
100
AcDbEntity
8
INTERIOR_PROFILES
100
AcDbPolyline
90
4
70
1
43
0.0
10
891.89999999999998
20
182.43434158329813
42
-0.99999999999999989
10
895.90000000000009
20
182.43434158329813
10
895.90000000000009
20
160.43434158329819
42
-0.99999999999999989
10
891.90000000000009
20
160.43434158329816
0
LWPOLYLINE
5
184
100
AcDbEntity
8
INTERIOR_PROFILES
100
AcDbPolyline
90
4
70
1
43
0.0
10
895.9000000000002
20
242.43434158329816
42
-0.99999999999999989
10
891.90000000000009
20
242.43434158329816
10
891.89999999999998
20
278.43434158329813
42
-0.99999999999999989
10
895.90000000000009
20
278.43434158329813
0
LWPOLYLINE
5
185
100
AcDbEntity
8
INTERIOR_PROFILES
100
AcDbPolyline
90
4
70
1
43
0.0
10
883.89999999999998
20
254.43434158329813
42
-0.99999999999999989
10
887.90000000000009
20
254.43434158329813
10
887.90000000000009
20
218.43434158329816
42
-0.99999999999999989
10
883.89999999999998
20
218.43434158329813
0
LWPOLYLINE
5
186
100
AcDbEntity
8
INTERIOR_PROFILES
100
AcDbPolyline
90
4
70
1
43
0.0
10
875.90000000000009
20
230.43434158329816
42
-0.99999999999999989
10
879.90000000000009
20
230.43434158329816
10
879.90000000000009
20
194.43434158329808
42
-0.99999999999999989
10
875.90000000000009
20
194.43434158329813
0
LWPOLYLINE
5
187
100
AcDbEntity
8
INTERIOR_PROFILES
100
AcDbPolyline
90
4
70
1
43
0.0
10
871.89999999999998
20
170.43434158329816
10
871.89999999999998
20
206.43434158329819
42
0.99999999999999989
10
867.9000000000002
20
206.43434158329819
10
867.9000000000002
20
170.43434158329816
42
0.99999999999999989
0
LWPOLYLINE
5
188
100
AcDbEntity
8
INTERIOR_PROFILES
100
AcDbPolyline
90
4
70
1
43
0.0
10
859.89999999999998
20
182.43434158329813
42
-0.99999999999999989
10
863.89999999999998
20
182.43434158329813
10
863.90000000000009
20
160.43434158329816
42
-0.99999999999999989
10
859.90000000000009
20
160.43434158329816
0
LWPOLYLINE
5
189
100
AcDbEntity
8
INTERIOR_PROFILES
100
AcDbPolyline
90
4
70
1
43
0.0
10
859.90000000000009
20
278.43434158329813
10
859.90000000000009
20
242.43434158329831
42
0.99999999999999989
10
863.90000000000009
20
242.43434158329816
10
863.89999999999986
20
278.43434158329808
42
0.99999999999999989
0
LWPOLYLINE
5
190
100
AcDbEntity
8
INTERIOR_PROFILES
100
AcDbPolyline
90
4
70
1
43
0.0
10
863.90000000000009
20
194.43434158329813
42
-0.99999999999999989
10
859.90000000000009
20
194.43434158329813
10
859.89999999999998
20
230.43434158329816
42
-0.99999999999999989
10
863.89999999999998
20
230.43434158329816
0
LWPOLYLINE
5
191
100
AcDbEntity
8
INTERIOR_PROFILES
100
AcDbPolyline
90
4
70
1
43
0.0
10
871.90000000000009
20
218.43434158329813
42
-0.99999999999999989
10
867.90000000000009
20
218.43434158329813
10
867.90000000000009
20
254.43434158329811
42
-0.99999999999999989
10
871.90000000000009
20
254.43434158329813
0
LWPOLYLINE
5
192
100
AcDbEntity
8
INTERIOR_PROFILES
100
AcDbPolyline
90
4
70
1
43
0.0
10
879.90000000000009
20
242.43434158329813
10
879.90000000000009
20
278.43434158329808
42
0.99999999999999989
10
875.90000000000009
20
278.43434158329813
10
875.90000000000009
20
242.43434158329833
42
0.99999999999999989
0
LWPOLYLINE
5
193
100
AcDbEntity
8
INTERIOR_PROFILES
100
AcDbPolyline
90
4
70
1
43
0.0
10
879.90000000000009
20
160.43434158329816
42
-0.99999999999999989
10
875.90000000000009
20
160.43434158329816
10
875.89999999999986
20
182.43434158329813
42
-0.99999999999999989
10
879.90000000000009
20
182.43434158329813
0
LWPOLYLINE
5
194
100
AcDbEntity
8
INTERIOR_PROFILES
100
AcDbPolyline
90
4
70
1
43
0.0
10
887.90000000000009
20
170.43434158329816
42
-0.99999999999999989
10
883.89999999999998
20
170.43434158329816
10
883.89999999999998
20
206.43434158329819
42
-0.99999999999999989
10
887.90000000000009
20
206.43434158329819
0
LWPOLYLINE
5
195
100
AcDbEntity
8
INTERIOR_PROFILES
100
AcDbPolyline
90
4
70
1
43
0.0
10
895.90000000000009
20
194.43434158329813
10
895.90000000000009
20
230.43434158329816
42
0.99999999999999989
10
891.89999999999998
20
230.43434158329816
10
891.90000000000032
20
194.43434158329831
42
0.99999999999999989
0
LWPOLYLINE
5
196
100
AcDbEntity
8
INTERIOR_PROFILES
100
AcDbPolyline
90
4
70
1
43
0.0
10
899.90000000000009
20
254.43434158329813
42
-0.99999999999999989
10
903.90000000000009
20
254.43434158329813
10
903.90000000000009
20
218.43434158329816
42
-0.99999999999999989
10
899.90000000000009
20
218.43434158329813
0
LWPOLYLINE
5
197
100
AcDbEntity
8
INTERIOR_PROFILES
100
AcDbPolyline
90
4
70
1
43
0.0
10
907.90000000000009
20
230.43434158329816
10
907.90000000000009
20
194.43434158329831
42
0.99999999999999989
10
911.90000000000009
20
194.43434158329813
10
911.90000000000009
20
230.43434158329816
42
0.99999999999999989
0
LWPOLYLINE
5
198
100
AcDbEntity
8
INTERIOR_PROFILES
100
AcDbPolyline
90
4
70
1
43
0.0
10
919.90000000000009
20
170.43434158329816
10
919.90000000000009
20
203.61615976511638
42
0.99999999999999989
10
915.90000000000009
20
203.61615976511638
10
915.90000000000009
20
170.43434158329816
42
0.99999999999999989
0
CIRCLE
5
199
100
AcDbEntity
8
INTERIOR_PROFILES
100
AcDbCircle
10
-868.98915911463735
20
360.83740460345638
30
0
40
2.3000000000000398
210
0
220
0
230
-1
0
CIRCLE
5
200
100
AcDbEntity
8
INTERIOR_PROFILES
100
AcDbCircle
10
-20.328571428571536
20
534.97892114061676
30
0
40
1.25
210
0
220
0
230
-1
0
CIRCLE
5
201
100
AcDbEntity
8
INTERIOR_PROFILES
100
AcDbCircle
10
-424.90000000000009
20
534.97892114061676
30
0
40
1.25
210
0
220
0
230
-1
0
CIRCLE
5
202
100
AcDbEntity
8
INTERIOR_PROFILES
100
AcDbCircle
10
-222.61428571428576
20
534.97892114061676
30
0
40
1.25
210
0
220
0
230
-1
0
CIRCLE
5
203
100
AcDbEntity
8
INTERIOR_PROFILES
100
AcDbCircle
10
-829.47142857142865
20
534.97892114061676
30
0
40
1.25
210
0
220
0
230
-1
0
CIRCLE
5
204
100
AcDbEntity
8
INTERIOR_PROFILES
100
AcDbCircle
10
-526.0428571428572
20
534.97892114061676
30
0
40
1.25
210
0
220
0
230
-1
0
CIRCLE
5
205
100
AcDbEntity
8
INTERIOR_PROFILES
100
AcDbCircle
10
-323.75714285714298
20
534.97892114061676
30
0
40
1.25
210
0
220
0
230
-1
0
CIRCLE
5
206
100
AcDbEntity
8
INTERIOR_PROFILES
100
AcDbCircle
10
-728.32857142857154
20
534.97892114061676
30
0
40
1.25
210
0
220
0
230
-1
0
CIRCLE
5
207
100
AcDbEntity
8
INTERIOR_PROFILES
100
AcDbCircle
10
-121.47142857142867
20
534.97892114061676
30
0
40
1.25
210
0
220
0
230
-1
0
CIRCLE
5
208
100
AcDbEntity
8
INTERIOR_PROFILES
100
AcDbCircle
10
-627.18571428571431
20
534.97892114061676
30
0
40
1.25
210
0
220
0
230
-1
0
CIRCLE
5
209
100
AcDbEntity
8
INTERIOR_PROFILES
100
AcDbCircle
10
-243.15000000000003
20
211.68434158329816
30
0
40
1.7999999999999972
210
0
220
0
230
-1
0
CIRCLE
5
210
100
AcDbEntity
8
INTERIOR_PROFILES
100
AcDbCircle
10
-409.40000000000003
20
324.21470597625557
30
0
40
2.2999999999999687
210
0
220
0
230
-1
0
CIRCLE
5
211
100
AcDbEntity
8
INTERIOR_PROFILES
100
AcDbCircle
10
-427
20
162.93434158329816
30
0
40
2.2999999999999687
210
0
220
0
230
-1
0
CIRCLE
5
212
100
AcDbEntity
8
INTERIOR_PROFILES
100
AcDbCircle
10
-359.90000000000003
20
187.18434158329813
30
0
40
2.4000000000000199
210
0
220
0
230
-1
0
CIRCLE
5
213
100
AcDbEntity
8
INTERIOR_PROFILES
100
AcDbCircle
10
-48.712500000000034
20
512.92131509967146
30
0
40
1.8000000000000682
210
0
220
0
230
-1
0
CIRCLE
5
214
100
AcDbEntity
8
INTERIOR_PROFILES
100
AcDbCircle
10
-453.28392857142859
20
512.92131509967146
30
0
40
1.7999999999999972
210
0
220
0
230
-1
0
CIRCLE
5
215
100
AcDbEntity
8
INTERIOR_PROFILES
100
AcDbCircle
10
-393.89999999999998
20
234.43434158329813
30
0
40
1.25
210
0
220
0
230
-1
0
CIRCLE
5
216
100
AcDbEntity
8
INTERIOR_PROFILES
100
AcDbCircle
10
-497.65892857142859
20
251.78038112917389
30
0
40
1.7999999999999972
210
0
220
0
230
-1
0
CIRCLE
5
217
100
AcDbEntity
8
INTERIOR_PROFILES
100
AcDbCircle
10
-453.28392857142859
20
349.15038112917387
30
0
40
1.7999999999999972
210
0
220
0
230
-1
0
CIRCLE
5
218
100
AcDbEntity
8
INTERIOR_PROFILES
100
AcDbCircle
10
-82.900000000000063
20
203.43434158329813
30
0
40
1.25
210
0
220
0
230
-1
0
CIRCLE
5
219
100
AcDbEntity
8
INTERIOR_PROFILES
100
AcDbCircle
10
-124.90000000000009
20
219.68434158329813
30
0
40
1.8000000000000682
210
0
220
0
230
-1
0
CIRCLE
5
220
100
AcDbEntity
8
INTERIOR_PROFILES
100
AcDbCircle
10
-367.90000000000009
20
325.43434158329819
30
0
40
1.25
210
0
220
0
230
-1
0
CIRCLE
5
221
100
AcDbEntity
8
INTERIOR_PROFILES
100
AcDbCircle
10
-516.18571428571431
20
187.18434158329813
30
0
40
2.4000000000000199
210
0
220
0
230
-1
0
CIRCLE
5
222
100
AcDbEntity
8
INTERIOR_PROFILES
100
AcDbCircle
10
-393.89999999999998
20
294.43434158329813
30
0
40
1.25
210
0
220
0
230
-1
0
CIRCLE
5
223
100
AcDbEntity
8
INTERIOR_PROFILES
100
AcDbCircle
10
-173.90000000000001
20
219.68434158329813
30
0
40
1.8000000000000682
210
0
220
0
230
-1
0
CIRCLE
5
224
100
AcDbEntity
8
INTERIOR_PROFILES
100
AcDbCircle
10
-93.087500000000034
20
415.5513150996714
30
0
40
1.8000000000000682
210
0
220
0
230
-1
0
CIRCLE
5
225
100
AcDbEntity
8
INTERIOR_PROFILES
100
AcDbCircle
10
-367.90000000000009
20
203.43434158329813
30
0
40
1.25
210
0
220
0
230
-1
0
CIRCLE
5
226
100
AcDbEntity
8
INTERIOR_PROFILES
100
AcDbCircle
10
-554.42678571428576
20
512.92131509967146
30
0
40
1.7999999999999972
210
0
220
0
230
-1
0
CIRCLE
5
227
100
AcDbEntity
8
INTERIOR_PROFILES
100
AcDbCircle
10
-699.94464285714287
20
415.5513150996714
30
0
40
1.8000000000000682
210
0
220
0
230
-1
0
CIRCLE
5
228
100
AcDbEntity
8
INTERIOR_PROFILES
100
AcDbCircle
10
-536.11428571428576
20
381.4374046034564
30
0
40
2.3000000000000398
210
0
220
0
230
-1
0
CIRCLE
5
229
100
AcDbEntity
8
INTERIOR_PROFILES
100
AcDbCircle
10
-598.80178571428576
20
349.15038112917387
30
0
40
1.7999999999999972
210
0
220
0
230
-1
0
CIRCLE
5
230
100
AcDbEntity
8
INTERIOR_PROFILES
100
AcDbCircle
10
-801.08749999999998
20
415.5513150996714
30
0
40
1.7999999999999261
210
0
220
0
230
-1
0
CIRCLE
5
231
100
AcDbEntity
8
INTERIOR_PROFILES
100
AcDbCircle
10
-756.71249999999998
20
512.92131509967146
30
0
40
1.7999999999999261
210
0
220
0
230
-1
0
CIRCLE
5
232
100
AcDbEntity
8
INTERIOR_PROFILES
100
AcDbCircle
10
-617.11428571428576
20
381.4374046034564
30
0
40
2.2999999999999687
210
0
220
0
230
-1
0
CIRCLE
5
233
100
AcDbEntity
8
INTERIOR_PROFILES
100
AcDbCircle
10
-699.94464285714287
20
512.92131509967146
30
0
40
1.8000000000000682
210
0
220
0
230
-1
0
CIRCLE
5
234
100
AcDbEntity
8
INTERIOR_PROFILES
100
AcDbCircle
10
-756.71249999999998
20
415.5513150996714
30
0
40
1.7999999999999261
210
0
220
0
230
-1
0
CIRCLE
5
235
100
AcDbEntity
8
INTERIOR_PROFILES
100
AcDbCircle
10
-497.65892857142859
20
415.5513150996714
30
0
40
1.7999999999999972
210
0
220
0
230
-1
0
CIRCLE
5
236
100
AcDbEntity
8
INTERIOR_PROFILES
100
AcDbCircle
10
-333.82857142857148
20
381.4374046034564
30
0
40
2.2999999999999687
210
0
220
0
230
-1
0
CIRCLE
5
237
100
AcDbEntity
8
INTERIOR_PROFILES
100
AcDbCircle
10
-554.42678571428576
20
349.15038112917387
30
0
40
1.7999999999999972
210
0
220
0
230
-1
0
CIRCLE
5
238
100
AcDbEntity
8
INTERIOR_PROFILES
100
AcDbCircle
10
-212.54285714285714
20
381.4374046034564
30
0
40
2.2999999999999687
210
0
220
0
230
-1
0
CIRCLE
5
239
100
AcDbEntity
8
INTERIOR_PROFILES
100
AcDbCircle
10
-738.40000000000009
20
381.4374046034564
30
0
40
2.3000000000000398
210
0
220
0
230
-1
0
CIRCLE
5
240
100
AcDbEntity
8
INTERIOR_PROFILES
100
AcDbCircle
10
-515.97142857142865
20
381.4374046034564
30
0
40
2.2999999999999687
210
0
220
0
230
-1
0
CIRCLE
5
241
100
AcDbEntity
8
INTERIOR_PROFILES
100
AcDbCircle
10
-111.61428571428587
20
187.18434158329813
30
0
40
2.3999999999999488
210
0
220
0
230
-1
0
CIRCLE
5
242
100
AcDbEntity
8
INTERIOR_PROFILES
100
AcDbCircle
10
-414.82857142857148
20
381.4374046034564
30
0
40
2.2999999999999687
210
0
220
0
230
-1
0
CIRCLE
5
243
100
AcDbEntity
8
INTERIOR_PROFILES
100
AcDbCircle
10
-801.08749999999998
20
512.92131509967146
30
0
40
1.7999999999999261
210
0
220
0
230
-1
0
CIRCLE
5
244
100
AcDbEntity
8
INTERIOR_PROFILES
100
AcDbCircle
10
-295.37321428571425
20
415.5513150996714
30
0
40
1.7999999999999972
210
0
220
0
230
-1
0
CIRCLE
5
245
100
AcDbEntity
8
INTERIOR_PROFILES
100
AcDbCircle
10
-250.99821428571425
20
512.92131509967146
30
0
40
1.7999999999999972
210
0
220
0
230
-1
0
CIRCLE
5
246
100
AcDbEntity
8
INTERIOR_PROFILES
100
AcDbCircle
10
-194.23035714285717
20
415.5513150996714
30
0
40
1.8000000000000682
210
0
220
0
230
-1
0
CIRCLE
5
247
100
AcDbEntity
8
INTERIOR_PROFILES
100
AcDbCircle
10
-352.14107142857142
20
415.5513150996714
30
0
40
1.7999999999999972
210
0
220
0
230
-1
0
CIRCLE
5
248
100
AcDbEntity
8
INTERIOR_PROFILES
100
AcDbCircle
10
-396.51607142857142
20
512.92131509967146
30
0
40
1.7999999999999972
210
0
220
0
230
-1
0
CIRCLE
5
249
100
AcDbEntity
8
INTERIOR_PROFILES
100
AcDbCircle
10
-149.85535714285717
20
512.92131509967146
30
0
40
1.8000000000000682
210
0
220
0
230
-1
0
CIRCLE
5
250
100
AcDbEntity
8
INTERIOR_PROFILES
100
AcDbCircle
10
-554.42678571428576
20
251.78038112917389
30
0
40
1.7999999999999972
210
0
220
0
230
-1
0
CIRCLE
5
251
100
AcDbEntity
8
INTERIOR_PROFILES
100
AcDbCircle
10
-630.10000000000002
20
170.93434158329813
30
0
40
1.25
210
0
220
0
230
-1
0
CIRCLE
5
252
100
AcDbEntity
8
INTERIOR_PROFILES
100
AcDbCircle
10
-554.42678571428576
20
415.5513150996714
30
0
40
1.7999999999999972
210
0
220
0
230
-1
0
CIRCLE
5
253
100
AcDbEntity
8
INTERIOR_PROFILES
100
AcDbCircle
10
-332.64999999999998
20
301.18434158329813
30
0
40
1.7999999999999972
210
0
220
0
230
-1
0
CIRCLE
5
254
100
AcDbEntity
8
INTERIOR_PROFILES
100
AcDbCircle
10
-726.10000000000014
20
284.33434158329817
30
0
40
1.25
210
0
220
0
230
-1
0
CIRCLE
5
255
100
AcDbEntity
8
INTERIOR_PROFILES
100
AcDbCircle
10
-295.37321428571425
20
512.92131509967146
30
0
40
1.7999999999999972
210
0
220
0
230
-1
0
CIRCLE
5
256
100
AcDbEntity
8
INTERIOR_PROFILES
100
AcDbCircle
10
-352.14107142857142
20
512.92131509967146
30
0
40
1.7999999999999972
210
0
220
0
230
-1
0
CIRCLE
5
257
100
AcDbEntity
8
INTERIOR_PROFILES
100
AcDbCircle
10
-149.85535714285717
20
415.5513150996714
30
0
40
1.8000000000000682
210
0
220
0
230
-1
0
CIRCLE
5
258
100
AcDbEntity
8
INTERIOR_PROFILES
100
AcDbCircle
10
-250.99821428571425
20
415.5513150996714
30
0
40
1.7999999999999972
210
0
220
0
230
-1
0
CIRCLE
5
259
100
AcDbEntity
8
INTERIOR_PROFILES
100
AcDbCircle
10
-396.51607142857142
20
415.5513150996714
30
0
40
1.7999999999999972
210
0
220
0
230
-1
0
CIRCLE
5
260
100
AcDbEntity
8
INTERIOR_PROFILES
100
AcDbCircle
10
-194.23035714285717
20
512.92131509967146
30
0
40
1.8000000000000682
210
0
220
0
230
-1
0
CIRCLE
5
261
100
AcDbEntity
8
INTERIOR_PROFILES
100
AcDbCircle
10
-93.087500000000034
20
512.92131509967146
30
0
40
1.8000000000000682
210
0
220
0
230
-1
0
CIRCLE
5
262
100
AcDbEntity
8
INTERIOR_PROFILES
100
AcDbCircle
10
-453.28392857142859
20
415.5513150996714
30
0
40
1.7999999999999972
210
0
220
0
230
-1
0
CIRCLE
5
263
100
AcDbEntity
8
INTERIOR_PROFILES
100
AcDbCircle
10
-598.80178571428576
20
251.78038112917389
30
0
40
1.7999999999999972
210
0
220
0
230
-1
0
CIRCLE
5
264
100
AcDbEntity
8
INTERIOR_PROFILES
100
AcDbCircle
10
-421.39999999999998
20
324.21470597625557
30
0
40
2.2999999999999687
210
0
220
0
230
-1
0
CIRCLE
5
265
100
AcDbEntity
8
INTERIOR_PROFILES
100
AcDbCircle
10
-48.712500000000034
20
415.5513150996714
30
0
40
1.8000000000000682
210
0
220
0
230
-1
0
CIRCLE
5
266
100
AcDbEntity
8
INTERIOR_PROFILES
100
AcDbCircle
10
-313.68571428571437
20
381.4374046034564
30
0
40
2.2999999999999687
210
0
220
0
230
-1
0
CIRCLE
5
267
100
AcDbEntity
8
INTERIOR_PROFILES
100
AcDbCircle
10
-497.65892857142859
20
349.15038112917387
30
0
40
1.7999999999999972
210
0
220
0
230
-1
0
CIRCLE
5
268
100
AcDbEntity
8
INTERIOR_PROFILES
100
AcDbCircle
10
-111.40000000000001
20
381.4374046034564
30
0
40
2.3000000000000398
210
0
220
0
230
-1
0
CIRCLE
5
269
100
AcDbEntity
8
INTERIOR_PROFILES
100
AcDbCircle
10
-822.10000000000014
20
170.93434158329813
30
0
40
1.25
210
0
220
0
230
-1
0
CIRCLE
5
270
100
AcDbEntity
8
INTERIOR_PROFILES
100
AcDbCircle
10
-232.68571428571425
20
381.4374046034564
30
0
40
2.2999999999999687
210
0
220
0
230
-1
0
CIRCLE
5
271
100
AcDbEntity
8
INTERIOR_PROFILES
100
AcDbCircle
10
-131.5428571428572
20
381.4374046034564
30
0
40
2.3000000000000398
210
0
220
0
230
-1
0
CIRCLE
5
272
100
AcDbEntity
8
INTERIOR_PROFILES
100
AcDbCircle
10
-434.97142857142865
20
381.4374046034564
30
0
40
2.2999999999999687
210
0
220
0
230
-1
0
CIRCLE
5
273
100
AcDbEntity
8
INTERIOR_PROFILES
100
AcDbCircle
10
-598.80178571428576
20
415.5513150996714
30
0
40
1.7999999999999972
210
0
220
0
230
-1
0
CIRCLE
5
274
100
AcDbEntity
8
INTERIOR_PROFILES
100
AcDbCircle
10
-655.56964285714287
20
415.5513150996714
30
0
40
1.8000000000000682
210
0
220
0
230
-1
0
CIRCLE
5
275
100
AcDbEntity
8
INTERIOR_PROFILES
100
AcDbCircle
10
-655.56964285714287
20
512.92131509967146
30
0
40
1.8000000000000682
210
0
220
0
230
-1
0
CIRCLE
5
276
100
AcDbEntity
8
INTERIOR_PROFILES
100
AcDbCircle
10
-598.80178571428576
20
512.92131509967146
30
0
40
1.7999999999999972
210
0
220
0
230
-1
0
CIRCLE
5
277
100
AcDbEntity
8
INTERIOR_PROFILES
100
AcDbCircle
10
-497.65892857142859
20
512.92131509967146
30
0
40
1.7999999999999972
210
0
220
0
230
-1
0
CIRCLE
5
278
100
AcDbEntity
8
INTERIOR_PROFILES
100
AcDbCircle
10
-718.47142857142853
20
187.18434158329813
30
0
40
2.3999999999999488
210
0
220
0
230
-1
0
CIRCLE
5
279
100
AcDbEntity
8
INTERIOR_PROFILES
100
AcDbCircle
10
-562.18571428571431
20
187.18434158329813
30
0
40
2.3999999999999488
210
0
220
0
230
-1
0
CIRCLE
5
280
100
AcDbEntity
8
INTERIOR_PROFILES
100
AcDbCircle
10
-157.61428571428581
20
187.18434158329813
30
0
40
2.3999999999999488
210
0
220
0
230
-1
0
CIRCLE
5
281
100
AcDbEntity
8
INTERIOR_PROFILES
100
AcDbCircle
10
-124.90000000000009
20
277.68434158329813
30
0
40
1.8000000000000682
210
0
220
0
230
-1
0
CIRCLE
5
282
100
AcDbEntity
8
INTERIOR_PROFILES
100
AcDbCircle
10
-82.900000000000063
20
325.43434158329819
30
0
40
1.25
210
0
220
0
230
-1
0
CIRCLE
5
283
100
AcDbEntity
8
INTERIOR_PROFILES
100
AcDbCircle
10
-764.47142857142865
20
187.18434158329813
30
0
40
2.3999999999999488
210
0
220
0
230
-1
0
CIRCLE
5
284
100
AcDbEntity
8
INTERIOR_PROFILES
100
AcDbCircle
10
-822.10000000000014
20
250.93434158329813
30
0
40
1.25
210
0
220
0
230
-1
0
CIRCLE
5
285
100
AcDbEntity
8
INTERIOR_PROFILES
100
AcDbCircle
10
-313.89999999999998
20
187.18434158329813
30
0
40
2.4000000000000199
210
0
220
0
230
-1
0
CIRCLE
5
286
100
AcDbEntity
8
INTERIOR_PROFILES
100
AcDbCircle
10
-453.28392857142859
20
251.78038112917389
30
0
40
1.7999999999999972
210
0
220
0
230
-1
0
CIRCLE
5
287
100
AcDbEntity
8
INTERIOR_PROFILES
100
AcDbCircle
10
-502.70000000000005
20
162.93434158329816
30
0
40
2.2999999999999687
210
0
220
0
230
-1
0
CIRCLE
5
288
100
AcDbEntity
8
INTERIOR_PROFILES
100
AcDbCircle
10
-630.10000000000002
20
250.93434158329813
30
0
40
1.25
210
0
220
0
230
-1
0
CIRCLE
5
289
100
AcDbEntity
8
INTERIOR_PROFILES
100
AcDbCircle
10
-726.10000000000014
20
137.63434158329815
30
0
40
1.25
210
0
220
0
230
-1
0
CIRCLE
5
290
100
AcDbEntity
8
INTERIOR_PROFILES
100
AcDbCircle
10
-332.64999999999998
20
211.68434158329816
30
0
40
1.7999999999999972
210
0
220
0
230
-1
0
CIRCLE
5
291
100
AcDbEntity
8
INTERIOR_PROFILES
100
AcDbCircle
10
-243.15000000000003
20
301.18434158329813
30
0
40
1.7999999999999972
210
0
220
0
230
-1
0
CIRCLE
5
292
100
AcDbEntity
8
INTERIOR_PROFILES
100
AcDbCircle
10
-108.90000000000001
20
294.43434158329813
30
0
40
1.25
210
0
220
0
230
-1
0
CIRCLE
5
293
100
AcDbEntity
8
INTERIOR_PROFILES
100
AcDbCircle
10
-448.80000000000001
20
162.93434158329816
30
0
40
2.2999999999999687
210
0
220
0
230
-1
0
CIRCLE
5
294
100
AcDbEntity
8
INTERIOR_PROFILES
100
AcDbCircle
10
-373.10000000000002
20
162.93434158329816
30
0
40
2.2999999999999687
210
0
220
0
230
-1
0
CIRCLE
5
295
100
AcDbEntity
8
INTERIOR_PROFILES
100
AcDbCircle
10
-173.90000000000001
20
277.68434158329813
30
0
40
1.8000000000000682
210
0
220
0
230
-1
0
CIRCLE
5
296
100
AcDbEntity
8
INTERIOR_PROFILES
100
AcDbCircle
10
-108.90000000000001
20
234.43434158329813
30
0
40
1.25
210
0
220
0
230
-1
0
LWPOLYLINE
5
297
100
AcDbEntity
8
INTERIOR_PROFILES
100
AcDbPolyline
90
4
70
1
43
0.0
10
501.94081632653075
20
40.434341583297879
42
-0.99999999999999989
10
501.94081632653075
20
44.43434158329822
10
537.94081632653069
20
44.434341583298291
42
-0.99999999999999989
10
537.94081632653069
20
40.434341583298234
0
LWPOLYLINE
5
298
100
AcDbEntity
8
INTERIOR_PROFILES
100
AcDbPolyline
90
4
70
1
43
0.0
10
630.59387755102057
20
44.434341583298149
10
594.59387755102068
20
44.43434158329822
42
0.99999999999999989
10
594.59387755102057
20
40.434341583298021
10
630.59387755102057
20
40.434341583298377
42
0.99999999999999989
0
LWPOLYLINE
5
299
100
AcDbEntity
8
INTERIOR_PROFILES
100
AcDbPolyline
90
4
70
1
43
0.0
10
723.24693877551022
20
44.434341583298291
42
-0.99999999999999989
10
723.24693877551022
20
40.434341583298234
10
687.24693877551033
20
40.434341583298163
42
-0.99999999999999989
10
687.24693877551033
20
44.43434158329822
0
LWPOLYLINE
5
300
100
AcDbEntity
8
INTERIOR_PROFILES
100
AcDbPolyline
90
4
70
1
43
0.0
10
815.90000000000009
20
44.434341583298291
10
779.90000000000009
20
44.43434158329822
42
0.99999999999999989
10
779.90000000000009
20
40.434341583298021
10
815.90000000000009
20
40.43434158329795
42
0.99999999999999989
0
LWPOLYLINE
5
301
100
AcDbEntity
8
INTERIOR_PROFILES
100
AcDbPolyline
90
4
70
1
43
0.0
10
478.77755102040828
20
48.434341583298561
42
-0.99999999999999989
10
478.77755102040828
20
52.434341583298192
10
514.77755102040828
20
52.434341583298405
42
-0.99999999999999989
10
514.77755102040828
20
48.434341583298206
0
LWPOLYLINE
5
302
100
AcDbEntity
8
INTERIOR_PROFILES
100
AcDbPolyline
90
4
70
1
43
0.0
10
607.43061224489793
20
52.434341583298263
42
-0.99999999999999989
10
607.43061224489804
20
48.434341583298206
10
571.43061224489816
20
48.434341583298419
42
-0.99999999999999989
10
571.43061224489816
20
52.434341583298192
0
LWPOLYLINE
5
303
100
AcDbEntity
8
INTERIOR_PROFILES
100
AcDbPolyline
90
4
70
1
43
0.0
10
700.08367346938803
20
52.434341583298121
42
-0.99999999999999989
10
700.08367346938803
20
48.434341583298206
10
664.08367346938803
20
48.434341583298561
42
-0.99999999999999989
10
664.08367346938792
20
52.434341583298192
0
LWPOLYLINE
5
304
100
AcDbEntity
8
INTERIOR_PROFILES
100
AcDbPolyline
90
4
70
1
43
0.0
10
792.73673469387757
20
52.434341583298192
10
756.73673469387745
20
52.434341583298192
42
0.99999999999999989
10
756.73673469387745
20
48.434341583298419
10
792.73673469387734
20
48.434341583297993
42
0.99999999999999989
0
LWPOLYLINE
5
305
100
AcDbEntity
8
INTERIOR_PROFILES
100
AcDbPolyline
90
4
70
1
43
0.0
10
491.61428571428587
20
60.434341583298234
10
455.61428571428587
20
60.434341583298234
42
0.99999999999999989
10
455.61428571428587
20
56.43434158329832
10
491.61428571428587
20
56.434341583298178
42
0.99999999999999989
0
LWPOLYLINE
5
306
100
AcDbEntity
8
INTERIOR_PROFILES
100
AcDbPolyline
90
4
70
1
43
0.0
10
584.26734693877563
20
60.434341583298234
10
548.26734693877552
20
60.434341583298234
42
0.99999999999999989
10
548.26734693877575
20
56.43434158329832
10
584.26734693877563
20
56.434341583298178
42
0.99999999999999989
0
LWPOLYLINE
5
307
100
AcDbEntity
8
INTERIOR_PROFILES
100
AcDbPolyline
90
4
70
1
43
0.0
10
640.92040816326539
20
56.434341583298178
10
676.92040816326539
20
56.434341583298178
42
0.99999999999999989
10
676.92040816326539
20
60.434341583298234
10
640.92040816326539
20
60.434341583298234
42
0.99999999999999989
0
LWPOLYLINE
5
308
100
AcDbEntity
8
INTERIOR_PROFILES
100
AcDbPolyline
90
4
70
1
43
0.0
10
769.57346938775515
20
60.434341583298234
10
733.57346938775527
20
60.434341583298234
42
0.99999999999999989
10
733.57346938775527
20
56.43434158329832
10
769.57346938775515
20
56.434341583298178
42
0.99999999999999989
0
LWPOLYLINE
5
309
100
AcDbEntity
8
INTERIOR_PROFILES
100
AcDbPolyline
90
4
70
1
43
0.0
10
468.45102040816346
20
68.434341583297851
42
-0.99999999999999989
10
468.45102040816346
20
64.43434158329822
10
455.61428571428587
20
64.434341583298291
42
-0.99999999999999989
10
455.61428571428587
20
68.434341583298206
0
LWPOLYLINE
5
310
100
AcDbEntity
8
INTERIOR_PROFILES
100
AcDbPolyline
90
4
70
1
43
0.0
10
525.10408163265322
20
64.43434158329822
10
561.10408163265356
20
64.43434158329822
42
0.99999999999999989
10
561.10408163265311
20
68.434341583297851
10
525.10408163265345
20
68.434341583298561
42
0.99999999999999989
0
LWPOLYLINE
5
311
100
AcDbEntity
8
INTERIOR_PROFILES
100
AcDbPolyline
90
4
70
1
43
0.0
10
617.75714285714298
20
64.43434158329822
10
653.75714285714321
20
64.43434158329822
42
0.99999999999999989
10
653.75714285714298
20
68.434341583297993
10
617.75714285714321
20
68.434341583298419
42
0.99999999999999989
0
LWPOLYLINE
5
312
100
AcDbEntity
8
BEND_EXTENT
100
AcDbPolyline
90
4
70
1
43
0.0
10
3.9891591146373173
20
528.34518246866094
10
845.81084088536284
20
528.34518246866094
10
845.81084088536284
20
113.5235006979353
10
3.9891591146373173
20
113.5235006979353
0
ENDSEC
0
SECTION
2
OBJECTS
0
DICTIONARY
5
C
100
AcDbDictionary
3
ACAD_GROUP
350
D
3
ACAD_MLINESTYLE
350
17
0
DICTIONARY
5
D
100
AcDbDictionary
0
DICTIONARY
5
1A
330
C
100
AcDbDictionary
0
DICTIONARY
5
17
100
AcDbDictionary
0
ENDSEC
0
EOF
