0
SECTION
2
HEADER
9
$INSUNITS
70
4
9
$ACADVER
1
AC1014
9
$HANDSEED
5
FFFF
0
ENDSEC
0
SECTION
2
TABLES
0
TABLE
2
VPORT
5
8
100
AcDbSymbolTable
0
ENDTAB
0
TABLE
2
LTYPE
5
5
100
AcDbSymbolTable
0
LTYPE
5
14
100
AcDbSymbolTableRecord
100
AcDbLinetypeTableRecord
2
BYBLOCK
70
0
0
LTYPE
5
15
100
AcDbSymbolTableRecord
100
AcDbLinetypeTableRecord
2
BYLAYER
70
0
0
LTYPE
5
16
100
AcDbSymbolTableRecord
100
AcDbLinetypeTableRecord
2
DASHED
70
0
3
Dashed __ __ __ __ __ __ __ __ __ __ __ __ __ _
72
65
73
2
40
0.75
49
0.5
74
0
49
-0.25
74
0
0
ENDTAB
0
TABLE
2
LAYER
5
2
100
AcDbSymbolTable
70
2
0
LAYER
5
50
100
AcDbSymbolTableRecord
100
AcDbLayerTableRecord
2
0
70
0
62
7
6
CONTINUOUS
0
ENDTAB
0
TABLE
2
STYLE
5
3
100
AcDbSymbolTable
70
1
0
STYLE
5
11
100
AcDbSymbolTableRecord
100
AcDbTextStyleTableRecord
2
STANDARD
70
0
0
ENDTAB
0
TABLE
2
VIEW
5
6
100
AcDbSymbolTable
70
0
0
ENDTAB
0
TABLE
2
UCS
5
7
100
AcDbSymbolTable
70
0
0
ENDTAB
0
TABLE
2
APPID
5
9
100
AcDbSymbolTable
70
2
0
APPID
5
12
100
AcDbSymbolTableRecord
100
AcDbRegAppTableRecord
2
ACAD
70
0
0
ENDTAB
0
TABLE
2
DIMSTYLE
5
A
100
AcDbSymbolTable
70
1
0
ENDTAB
0
TABLE
2
BLOCK_RECORD
5
1
100
AcDbSymbolTable
70
1
0
BLOCK_RECORD
5
1F
100
AcDbSymbolTableRecord
100
AcDbBlockTableRecord
2
*MODEL_SPACE
0
BLOCK_RECORD
5
1B
100
AcDbSymbolTableRecord
100
AcDbBlockTableRecord
2
*PAPER_SPACE
0
ENDTAB
0
ENDSEC
0
SECTION
2
BLOCKS
0
BLOCK
5
20
100
AcDbEntity
100
AcDbBlockBegin
2
*MODEL_SPACE
0
ENDBLK
5
21
100
AcDbEntity
100
AcDbBlockEnd
0
BLOCK
5
1C
100
AcDbEntity
100
AcDbBlockBegin
2
*PAPER_SPACE
0
ENDBLK
5
1D
100
AcDbEntity
100
AcDbBlockEnd
0
ENDSEC
0
SECTION
2
ENTITIES
0
LWPOLYLINE
5
100
100
AcDbEntity
8
OUTER_PROFILES
100
AcDbPolyline
90
39
70
1
43
0.0
10
-1.3470193625555598
20
111.57350069794455
42
-3.9608097209440789
10
7.2719608112947753e-14
20
108.79758220861119
10
-7.1054273576010019e-14
20
24.867512711551996
10
-7.1054273576010019e-14
20
24.81258769826276
10
7.1054273576010019e-14
20
-7.1054273576010019e-14
10
1.9891565724655891
20
-7.1054273576010019e-14
10
847.81084342753286
20
-7.1054273576010019e-14
10
849.79999999999995
20
-7.1054273576010019e-14
10
849.79999999999995
20
24.812587819188607
10
849.79999999999995
20
24.867512711551996
10
849.79999999999995
20
27.911001719552004
10
849.79999999999609
20
108.79758220860822
42
-3.9608097209499111
10
851.14701936255585
20
111.57350069793526
10
931.44606709169454
20
111.5735006979353
42
0.29410761505734662
10
933.26680004661966
20
112.74589480933294
10
943.65846361614081
20
135.60755466227903
10
945.20608662782706
20
134.90408965696696
10
945.35665377610928
20
135.23533738318767
42
0.16260144785334954
10
945.46874526663942
20
136.30669880208919
10
944.97950408270231
20
138.51384368871442
10
945.18605819769277
20
138.96826274169348
10
858.93379853271779
20
528.08357054845612
42
0.35167384246301631
10
856.00489058762969
20
530.43434158329808
10
851.14999999999998
20
530.43434158329808
42
-2.3375295075195872
10
847.74999999999977
20
533.68087819944765
10
847.74999999999977
20
538.61828054153921
10
2.0500000000001251
20
538.61828054153921
10
2.0500000000001282
20
533.68087819944765
42
-2.3375295075195863
10
-1.3500000000000434
20
530.43434158329808
10
-6.2048905876297766
20
530.43434158329808
42
0.35167384246301991
10
-9.1337985327177051
20
528.08357054845612
10
-95.386058197692805
20
138.96826274169354
10
-95.179504082702806
20
138.51384368871447
10
-95.668745266639661
20
136.30669880208924
42
0.1626014478534315
10
-95.556653776109499
20
135.23533738318773
10
-95.406086627827449
20
134.90408965696699
10
-93.858463616141137
20
135.60755466227906
10
-83.466800046620122
20
112.74589480933294
42
0.29410761505729943
10
-81.646067091694832
20
111.57350069793532
0
LWPOLYLINE
5
101
100
AcDbEntity
8
INTERIOR_PROFILES
100
AcDbPolyline
90
4
70
1
43
0.0
10
-66.100000000000136
20
170.43434158329808
42
-0.99999999999999989
10
-70.099999999999767
20
170.43434158329808
10
-70.099999999999909
20
203.61615976511629
42
-0.99999999999999989
10
-66.100000000000136
20
203.61615976511629
0
LWPOLYLINE
5
102
100
AcDbEntity
8
INTERIOR_PROFILES
100
AcDbPolyline
90
4
70
1
43
0.0
10
-54.099999999999895
20
254.43434158329808
10
-54.100000000000037
20
218.43434158329782
42
0.99999999999999989
10
-50.100000000000264
20
218.43434158329811
10
-50.100000000000406
20
254.43434158329813
42
0.99999999999999989
0
LWPOLYLINE
5
103
100
AcDbEntity
8
INTERIOR_PROFILES
100
AcDbPolyline
90
4
70
1
43
0.0
10
-38.100000000000165
20
206.43434158329808
10
-38.100000000000094
20
170.43434158329785
42
0.99999999999999989
10
-34.100000000000037
20
170.43434158329813
10
-34.099999999999824
20
206.43434158329808
42
0.99999999999999989
0
LWPOLYLINE
5
104
100
AcDbEntity
8
INTERIOR_PROFILES
100
AcDbPolyline
90
4
70
1
43
0.0
10
-46.100000000000065
20
230.43434158329813
42
-0.99999999999999989
10
-42.100000000000009
20
230.43434158329813
10
-42.10000000000008
20
194.43434158329805
42
-0.99999999999999989
10
-46.100000000000136
20
194.43434158329805
0
CIRCLE
5
105
100
AcDbEntity
8
INTERIOR_PROFILES
100
AcDbCircle
10
-173.90000000000001
20
277.68434158329802
30
0
40
1.8000000000000682
210
0
220
0
230
-1
0
LWPOLYLINE
5
106
100
AcDbEntity
8
INTERIOR_PROFILES
100
AcDbPolyline
90
4
70
1
43
0.0
10
-30.100000000000193
20
278.43434158329808
10
-30.099999999999909
20
242.43434158329785
42
0.99999999999999989
10
-26.099999999999994
20
242.43434158329813
10
-26.100000000000136
20
278.43434158329808
42
0.99999999999999989
0
CIRCLE
5
107
100
AcDbEntity
8
INTERIOR_PROFILES
100
AcDbCircle
10
-453.28392857142842
20
512.92131509967135
30
0
40
1.7999999999999972
210
0
220
0
230
-1
0
CIRCLE
5
108
100
AcDbEntity
8
INTERIOR_PROFILES
100
AcDbCircle
10
-121.47142857142865
20
398.99434158329814
30
0
40
2.3999999999999488
210
0
220
0
230
-1
0
CIRCLE
5
109
100
AcDbEntity
8
INTERIOR_PROFILES
100
AcDbCircle
10
-393.89999999999992
20
294.43434158329808
30
0
40
1.25
210
0
220
0
230
-1
0
CIRCLE
5
110
100
AcDbEntity
8
INTERIOR_PROFILES
100
AcDbCircle
10
-497.65892857142853
20
415.55131509967134
30
0
40
1.7999999999999972
210
0
220
0
230
-1
0
CIRCLE
5
111
100
AcDbEntity
8
INTERIOR_PROFILES
100
AcDbCircle
10
-801.08749999999986
20
415.55131509967134
30
0
40
1.8000000000000682
210
0
220
0
230
-1
0
CIRCLE
5
112
100
AcDbEntity
8
INTERIOR_PROFILES
100
AcDbCircle
10
-699.94464285714275
20
415.55131509967134
30
0
40
1.7999999999999261
210
0
220
0
230
-1
0
CIRCLE
5
113
100
AcDbEntity
8
INTERIOR_PROFILES
100
AcDbCircle
10
-352.14107142857137
20
512.92131509967135
30
0
40
1.7999999999999972
210
0
220
0
230
-1
0
CIRCLE
5
114
100
AcDbEntity
8
INTERIOR_PROFILES
100
AcDbCircle
10
-243.14999999999998
20
301.18434158329808
30
0
40
1.7999999999999972
210
0
220
0
230
-1
0
CIRCLE
5
115
100
AcDbEntity
8
INTERIOR_PROFILES
100
AcDbCircle
10
-82.899999999999991
20
325.43434158329808
30
0
40
1.25
210
0
220
0
230
-1
0
LWPOLYLINE
5
116
100
AcDbEntity
8
INTERIOR_PROFILES
100
AcDbPolyline
90
4
70
1
43
0.0
10
-38.099999999999952
20
254.43434158329808
10
-38.100000000000094
20
218.43434158329782
42
0.99999999999999989
10
-34.100000000000321
20
218.43434158329811
10
-34.099999999999895
20
254.43434158329836
42
0.99999999999999989
0
LWPOLYLINE
5
117
100
AcDbEntity
8
INTERIOR_PROFILES
100
AcDbPolyline
90
8
70
1
43
0.0
10
36.614285714285728
20
86.434341583297993
10
36.614285714285657
20
46.434341583297893
42
0.41421356237309453
10
39.614285714285764
20
43.434341583298064
10
405.61428571428576
20
43.434341583297993
42
0.41421356237306728
10
408.61428571428576
20
46.434341583297964
10
408.61428571428581
20
86.434341583297993
42
0.41421356237312973
10
405.61428571428576
20
89.434341583297964
10
39.614285714285842
20
89.434341583297964
42
0.4142135623730534
0
CIRCLE
5
118
100
AcDbEntity
8
INTERIOR_PROFILES
100
AcDbCircle
10
-414.82857142857142
20
381.43740460345623
30
0
40
2.2999999999999687
210
0
220
0
230
-1
0
CIRCLE
5
119
100
AcDbEntity
8
INTERIOR_PROFILES
100
AcDbCircle
10
-121.47142857142865
20
534.97892121215909
30
0
40
1.25
210
0
220
0
230
-1
0
CIRCLE
5
120
100
AcDbEntity
8
INTERIOR_PROFILES
100
AcDbCircle
10
-728.32857142857142
20
534.97892121215909
30
0
40
1.25
210
0
220
0
230
-1
0
LWPOLYLINE
5
121
100
AcDbEntity
8
INTERIOR_PROFILES
100
AcDbPolyline
90
4
70
1
43
0.0
10
-22.099999999999866
20
254.43434158329808
10
-22.100000000000009
20
218.43434158329811
42
0.99999999999999989
10
-18.099999999999952
20
218.43434158329811
10
-18.100000000000094
20
254.43434158329831
42
0.99999999999999989
0
LWPOLYLINE
5
122
100
AcDbEntity
8
INTERIOR_PROFILES
100
AcDbPolyline
90
4
70
1
43
0.0
10
-50.09999999999998
20
170.43434158329805
42
-0.99999999999999989
10
-54.100000000000037
20
170.43434158329805
10
-54.099999999999966
20
206.43434158329808
42
-0.99999999999999989
10
-50.100000000000193
20
206.43434158329808
0
CIRCLE
5
123
100
AcDbEntity
8
INTERIOR_PROFILES
100
AcDbCircle
10
-515.97142857142853
20
381.43740460345623
30
0
40
2.2999999999999687
210
0
220
0
230
-1
0
CIRCLE
5
124
100
AcDbEntity
8
INTERIOR_PROFILES
100
AcDbCircle
10
-409.39999999999998
20
324.21470597625546
30
0
40
2.2999999999999687
210
0
220
0
230
-1
0
LWPOLYLINE
5
125
100
AcDbEntity
8
INTERIOR_PROFILES
100
AcDbPolyline
90
4
70
1
43
0.0
10
-30.100000000000122
20
230.43434158329813
42
-0.99999999999999989
10
-26.100000000000065
20
230.43434158329813
10
-26.100000000000136
20
194.43434158329811
42
-0.99999999999999989
10
-30.100000000000193
20
194.43434158329811
0
CIRCLE
5
126
100
AcDbEntity
8
INTERIOR_PROFILES
100
AcDbCircle
10
-526.04285714285709
20
534.97892121215909
30
0
40
1.25
210
0
220
0
230
-1
0
LWPOLYLINE
5
127
100
AcDbEntity
8
INTERIOR_PROFILES
100
AcDbPolyline
90
4
70
1
43
0.0
10
-22.099999999999937
20
206.43434158329813
42
-0.99999999999999989
10
-18.100000000000165
20
206.43434158329813
10
-18.099999999999952
20
170.43434158329813
42
-0.99999999999999989
10
-22.100000000000009
20
170.43434158329813
0
LWPOLYLINE
5
128
100
AcDbEntity
8
INTERIOR_PROFILES
100
AcDbPolyline
90
4
70
1
43
0.0
10
-62.100000000000009
20
182.43434158329805
42
-0.99999999999999989
10
-58.100000000000094
20
182.43434158329805
10
-58.099999999999952
20
160.43434158329808
42
-0.99999999999999989
10
-62.100000000000009
20
160.43434158329808
0
LWPOLYLINE
5
129
100
AcDbEntity
8
INTERIOR_PROFILES
100
AcDbPolyline
90
4
70
1
43
0.0
10
-42.100000000000009
20
160.43434158329805
10
-42.100000000000009
20
182.43434158329802
42
0.99999999999999989
10
-46.100000000000065
20
182.43434158329802
10
-46.099999999999781
20
160.43434158329762
42
0.99999999999999989
0
LWPOLYLINE
5
130
100
AcDbEntity
8
INTERIOR_PROFILES
100
AcDbPolyline
90
4
70
1
43
0.0
10
-10.100000000000193
20
194.43434158329808
42
-0.99999999999999989
10
-14.100000000000108
20
194.43434158329808
10
-14.100000000000179
20
230.43434158329808
42
-0.99999999999999989
10
-10.100000000000122
20
230.43434158329808
0
CIRCLE
5
131
100
AcDbEntity
8
INTERIOR_PROFILES
100
AcDbCircle
10
-627.1857142857142
20
534.97892121215909
30
0
40
1.25
210
0
220
0
230
-1
0
CIRCLE
5
132
100
AcDbEntity
8
INTERIOR_PROFILES
100
AcDbCircle
10
-313.68571428571431
20
381.43740460345623
30
0
40
2.2999999999999687
210
0
220
0
230
-1
0
CIRCLE
5
133
100
AcDbEntity
8
INTERIOR_PROFILES
100
AcDbCircle
10
-222.6142857142857
20
534.97892121215909
30
0
40
1.25
210
0
220
0
230
-1
0
CIRCLE
5
134
100
AcDbEntity
8
INTERIOR_PROFILES
100
AcDbCircle
10
-421.39999999999998
20
324.21470597625546
30
0
40
2.2999999999999687
210
0
220
0
230
-1
0
CIRCLE
5
135
100
AcDbEntity
8
INTERIOR_PROFILES
100
AcDbCircle
10
-726.09999999999991
20
137.63434158329807
30
0
40
1.25
210
0
220
0
230
-1
0
CIRCLE
5
136
100
AcDbEntity
8
INTERIOR_PROFILES
100
AcDbCircle
10
-728.32857142857142
20
464.23631509967129
30
0
40
2.3999999999999488
210
0
220
0
230
-1
0
CIRCLE
5
137
100
AcDbEntity
8
INTERIOR_PROFILES
100
AcDbCircle
10
-16.199999999999832
20
485.43434158329808
30
0
40
2.3999999999999488
210
0
220
0
230
-1
0
CIRCLE
5
138
100
AcDbEntity
8
INTERIOR_PROFILES
100
AcDbCircle
10
-323.75714285714287
20
464.23631509967129
30
0
40
2.4000000000000199
210
0
220
0
230
-1
0
CIRCLE
5
139
100
AcDbEntity
8
INTERIOR_PROFILES
100
AcDbCircle
10
-243.14999999999998
20
211.68434158329805
30
0
40
1.7999999999999972
210
0
220
0
230
-1
0
CIRCLE
5
140
100
AcDbEntity
8
INTERIOR_PROFILES
100
AcDbCircle
10
-726.10000000000002
20
284.33434158329811
30
0
40
1.25
210
0
220
0
230
-1
0
CIRCLE
5
141
100
AcDbEntity
8
INTERIOR_PROFILES
100
AcDbCircle
10
-630.09999999999991
20
250.93434158329808
30
0
40
1.25
210
0
220
0
230
-1
0
CIRCLE
5
142
100
AcDbEntity
8
INTERIOR_PROFILES
100
AcDbCircle
10
-194.23035714285709
20
512.92131509967135
30
0
40
1.8000000000000682
210
0
220
0
230
-1
0
CIRCLE
5
143
100
AcDbEntity
8
INTERIOR_PROFILES
100
AcDbCircle
10
-393.89999999999992
20
234.43434158329808
30
0
40
1.25
210
0
220
0
230
-1
0
CIRCLE
5
144
100
AcDbEntity
8
INTERIOR_PROFILES
100
AcDbCircle
10
-630.09999999999991
20
170.93434158329808
30
0
40
1.25
210
0
220
0
230
-1
0
CIRCLE
5
145
100
AcDbEntity
8
INTERIOR_PROFILES
100
AcDbCircle
10
-82.900000000000034
20
203.43434158329808
30
0
40
1.25
210
0
220
0
230
-1
0
CIRCLE
5
146
100
AcDbEntity
8
INTERIOR_PROFILES
100
AcDbCircle
10
-250.9982142857142
20
415.55131509967134
30
0
40
1.7999999999999972
210
0
220
0
230
-1
0
CIRCLE
5
147
100
AcDbEntity
8
INTERIOR_PROFILES
100
AcDbCircle
10
-352.14107142857137
20
415.55131509967134
30
0
40
1.7999999999999972
210
0
220
0
230
-1
0
CIRCLE
5
148
100
AcDbEntity
8
INTERIOR_PROFILES
100
AcDbCircle
10
-554.42678571428564
20
415.55131509967134
30
0
40
1.7999999999999972
210
0
220
0
230
-1
0
CIRCLE
5
149
100
AcDbEntity
8
INTERIOR_PROFILES
100
AcDbCircle
10
-526.04285714285697
20
156.43434158329813
30
0
40
2.4000000000000199
210
0
220
0
230
-1
0
CIRCLE
5
150
100
AcDbEntity
8
INTERIOR_PROFILES
100
AcDbCircle
10
-655.56964285714275
20
512.92131509967135
30
0
40
1.7999999999999261
210
0
220
0
230
-1
0
CIRCLE
5
151
100
AcDbEntity
8
INTERIOR_PROFILES
100
AcDbCircle
10
-756.71249999999986
20
415.55131509967134
30
0
40
1.8000000000000682
210
0
220
0
230
-1
0
CIRCLE
5
152
100
AcDbEntity
8
INTERIOR_PROFILES
100
AcDbCircle
10
-655.56964285714275
20
415.55131509967134
30
0
40
1.7999999999999261
210
0
220
0
230
-1
0
CIRCLE
5
153
100
AcDbEntity
8
INTERIOR_PROFILES
100
AcDbCircle
10
-323.75714285714287
20
156.43434158329813
30
0
40
2.4000000000000199
210
0
220
0
230
-1
0
CIRCLE
5
154
100
AcDbEntity
8
INTERIOR_PROFILES
100
AcDbCircle
10
-756.71249999999986
20
512.92131509967135
30
0
40
1.8000000000000682
210
0
220
0
230
-1
0
CIRCLE
5
155
100
AcDbEntity
8
INTERIOR_PROFILES
100
AcDbCircle
10
-48.71250000000007
20
415.55131509967134
30
0
40
1.8000000000000682
210
0
220
0
230
-1
0
CIRCLE
5
156
100
AcDbEntity
8
INTERIOR_PROFILES
100
AcDbCircle
10
-526.04285714285697
20
300.46538112917381
30
0
40
2.4000000000000199
210
0
220
0
230
-1
0
CIRCLE
5
157
100
AcDbEntity
8
INTERIOR_PROFILES
100
AcDbCircle
10
-121.47142857142867
20
156.43434158329813
30
0
40
2.3999999999999488
210
0
220
0
230
-1
0
CIRCLE
5
158
100
AcDbEntity
8
INTERIOR_PROFILES
100
AcDbCircle
10
-373.09999999999997
20
162.93434158329808
30
0
40
2.2999999999999687
210
0
220
0
230
-1
0
CIRCLE
5
159
100
AcDbEntity
8
INTERIOR_PROFILES
100
AcDbCircle
10
-295.3732142857142
20
512.92131509967135
30
0
40
1.7999999999999972
210
0
220
0
230
-1
0
CIRCLE
5
160
100
AcDbEntity
8
INTERIOR_PROFILES
100
AcDbCircle
10
-426.99999999999994
20
162.93434158329808
30
0
40
2.2999999999999687
210
0
220
0
230
-1
0
CIRCLE
5
161
100
AcDbEntity
8
INTERIOR_PROFILES
100
AcDbCircle
10
-502.69999999999987
20
162.93434158329808
30
0
40
2.2999999999999687
210
0
220
0
230
-1
0
LWPOLYLINE
5
162
100
AcDbEntity
8
INTERIOR_PROFILES
100
AcDbPolyline
90
4
70
1
43
0.0
10
-58.100000000000023
20
194.43434158329808
10
-58.100000000000094
20
230.43434158329836
42
0.99999999999999989
10
-62.099999999999866
20
230.43434158329808
10
-62.10000000000008
20
194.43434158329808
42
0.99999999999999989
0
CIRCLE
5
163
100
AcDbEntity
8
INTERIOR_PROFILES
100
AcDbCircle
10
-332.64999999999992
20
301.18434158329813
30
0
40
1.7999999999999972
210
0
220
0
230
-1
0
CIRCLE
5
164
100
AcDbEntity
8
INTERIOR_PROFILES
100
AcDbCircle
10
-108.90000000000001
20
234.43434158329808
30
0
40
1.25
210
0
220
0
230
-1
0
CIRCLE
5
165
100
AcDbEntity
8
INTERIOR_PROFILES
100
AcDbCircle
10
-332.64999999999992
20
211.68434158329813
30
0
40
1.7999999999999972
210
0
220
0
230
-1
0
LWPOLYLINE
5
166
100
AcDbEntity
8
INTERIOR_PROFILES
100
AcDbPolyline
90
4
70
1
43
0.0
10
-26.100000000000065
20
160.43434158329813
10
-26.100000000000065
20
182.43434158329808
42
0.99999999999999989
10
-30.100000000000122
20
182.43434158329808
10
-30.100000000000406
20
160.43434158329785
42
0.99999999999999989
0
CIRCLE
5
167
100
AcDbEntity
8
INTERIOR_PROFILES
100
AcDbCircle
10
-536.11428571428564
20
381.43740460345623
30
0
40
2.3000000000000398
210
0
220
0
230
-1
0
LWPOLYLINE
5
168
100
AcDbEntity
8
INTERIOR_PROFILES
100
AcDbPolyline
90
4
70
1
43
0.0
10
-10.09999999999998
20
160.43434158329808
42
-0.99999999999999989
10
-14.100000000000037
20
160.43434158329808
10
-14.100000000000179
20
182.43434158329805
42
-0.99999999999999989
10
-10.100000000000122
20
182.43434158329805
0
LWPOLYLINE
5
169
100
AcDbEntity
8
INTERIOR_PROFILES
100
AcDbPolyline
90
4
70
1
43
0.0
10
-10.100000000000264
20
242.43434158329813
10
-10.100000000000158
20
278.43434158329825
42
0.99999999999999989
10
-14.100000000000286
20
278.43434158329808
10
-14.100000000000037
20
242.43434158329805
42
0.99999999999999989
0
CIRCLE
5
170
100
AcDbEntity
8
INTERIOR_PROFILES
100
AcDbCircle
10
-829.47142857142853
20
534.97892121215909
30
0
40
1.25
210
0
220
0
230
-1
0
CIRCLE
5
171
100
AcDbEntity
8
INTERIOR_PROFILES
100
AcDbCircle
10
-108.90000000000003
20
294.43434158329808
30
0
40
1.25
210
0
220
0
230
-1
0
CIRCLE
5
172
100
AcDbEntity
8
INTERIOR_PROFILES
100
AcDbCircle
10
56.189159114637448
20
121.43434158329804
30
0
40
1.6500000000000625
210
0
220
0
230
-1
0
CIRCLE
5
173
100
AcDbEntity
8
INTERIOR_PROFILES
100
AcDbCircle
10
-323.75714285714287
20
534.97892121215909
30
0
40
1.25
210
0
220
0
230
-1
0
LWPOLYLINE
5
174
100
AcDbEntity
8
INTERIOR_PROFILES
100
AcDbPolyline
90
4
70
1
43
0.0
10
-46.100000000000136
20
278.43434158329808
10
-46.100000000000065
20
242.43434158329796
42
0.99999999999999989
10
-42.100000000000009
20
242.43434158329813
10
-42.10000000000008
20
278.43434158329802
42
0.99999999999999989
0
CIRCLE
5
175
100
AcDbEntity
8
INTERIOR_PROFILES
100
AcDbCircle
10
24.189159114637349
20
121.43434158329808
30
0
40
1.6500000000000625
210
0
220
0
230
-1
0
CIRCLE
5
176
100
AcDbEntity
8
INTERIOR_PROFILES
100
AcDbCircle
10
-627.1857142857142
20
398.99434158329814
30
0
40
2.3999999999999488
210
0
220
0
230
-1
0
CIRCLE
5
177
100
AcDbEntity
8
INTERIOR_PROFILES
100
AcDbCircle
10
-738.40000000000009
20
381.43740460345623
30
0
40
2.3000000000000398
210
0
220
0
230
-1
0
CIRCLE
5
178
100
AcDbEntity
8
INTERIOR_PROFILES
100
AcDbCircle
10
-617.11428571428564
20
381.43740460345623
30
0
40
2.2999999999999687
210
0
220
0
230
-1
0
CIRCLE
5
179
100
AcDbEntity
8
INTERIOR_PROFILES
100
AcDbCircle
10
-526.04285714285709
20
398.99434158329814
30
0
40
2.4000000000000199
210
0
220
0
230
-1
0
CIRCLE
5
180
100
AcDbEntity
8
INTERIOR_PROFILES
100
AcDbCircle
10
-434.97142857142853
20
381.43740460345623
30
0
40
2.2999999999999687
210
0
220
0
230
-1
0
CIRCLE
5
181
100
AcDbEntity
8
INTERIOR_PROFILES
100
AcDbCircle
10
-718.25714285714275
20
381.43740460345623
30
0
40
2.3000000000000398
210
0
220
0
230
-1
0
CIRCLE
5
182
100
AcDbEntity
8
INTERIOR_PROFILES
100
AcDbCircle
10
-323.75714285714287
20
398.99434158329814
30
0
40
2.4000000000000199
210
0
220
0
230
-1
0
CIRCLE
5
183
100
AcDbEntity
8
INTERIOR_PROFILES
100
AcDbCircle
10
-424.90000000000003
20
398.99434158329814
30
0
40
2.4000000000000199
210
0
220
0
230
-1
0
CIRCLE
5
184
100
AcDbEntity
8
INTERIOR_PROFILES
100
AcDbCircle
10
-637.25714285714275
20
381.43740460345623
30
0
40
2.3000000000000398
210
0
220
0
230
-1
0
CIRCLE
5
185
100
AcDbEntity
8
INTERIOR_PROFILES
100
AcDbCircle
10
-728.32857142857142
20
398.99434158329814
30
0
40
2.3999999999999488
210
0
220
0
230
-1
0
CIRCLE
5
186
100
AcDbEntity
8
INTERIOR_PROFILES
100
AcDbCircle
10
-333.82857142857142
20
381.43740460345623
30
0
40
2.2999999999999687
210
0
220
0
230
-1
0
CIRCLE
5
187
100
AcDbEntity
8
INTERIOR_PROFILES
100
AcDbCircle
10
-20.328571428571536
20
534.97892121215909
30
0
40
1.25
210
0
220
0
230
-1
0
CIRCLE
5
188
100
AcDbEntity
8
INTERIOR_PROFILES
100
AcDbCircle
10
-453.28392857142853
20
415.55131509967134
30
0
40
1.7999999999999972
210
0
220
0
230
-1
0
CIRCLE
5
189
100
AcDbEntity
8
INTERIOR_PROFILES
100
AcDbCircle
10
-699.94464285714287
20
512.92131509967135
30
0
40
1.8000000000000682
210
0
220
0
230
-1
0
CIRCLE
5
190
100
AcDbEntity
8
INTERIOR_PROFILES
100
AcDbCircle
10
-728.32857142857142
20
156.43434158329811
30
0
40
2.3999999999999488
210
0
220
0
230
-1
0
CIRCLE
5
191
100
AcDbEntity
8
INTERIOR_PROFILES
100
AcDbCircle
10
-396.51607142857137
20
512.92131509967135
30
0
40
1.7999999999999972
210
0
220
0
230
-1
0
CIRCLE
5
192
100
AcDbEntity
8
INTERIOR_PROFILES
100
AcDbCircle
10
-497.65892857142842
20
512.92131509967135
30
0
40
1.7999999999999972
210
0
220
0
230
-1
0
CIRCLE
5
193
100
AcDbEntity
8
INTERIOR_PROFILES
100
AcDbCircle
10
-121.47142857142856
20
464.23631509967129
30
0
40
2.3999999999999488
210
0
220
0
230
-1
0
CIRCLE
5
194
100
AcDbEntity
8
INTERIOR_PROFILES
100
AcDbCircle
10
-222.61428571428578
20
398.99434158329814
30
0
40
2.4000000000000199
210
0
220
0
230
-1
0
CIRCLE
5
195
100
AcDbEntity
8
INTERIOR_PROFILES
100
AcDbCircle
10
-598.80178571428564
20
415.55131509967134
30
0
40
1.7999999999999972
210
0
220
0
230
-1
0
CIRCLE
5
196
100
AcDbEntity
8
INTERIOR_PROFILES
100
AcDbCircle
10
-801.08749999999986
20
512.92131509967135
30
0
40
1.8000000000000682
210
0
220
0
230
-1
0
CIRCLE
5
197
100
AcDbEntity
8
INTERIOR_PROFILES
100
AcDbCircle
10
-598.80178571428564
20
512.92131509967135
30
0
40
1.7999999999999972
210
0
220
0
230
-1
0
CIRCLE
5
198
100
AcDbEntity
8
INTERIOR_PROFILES
100
AcDbCircle
10
-396.51607142857137
20
415.55131509967134
30
0
40
1.7999999999999972
210
0
220
0
230
-1
0
CIRCLE
5
199
100
AcDbEntity
8
INTERIOR_PROFILES
100
AcDbCircle
10
-554.42678571428564
20
512.92131509967135
30
0
40
1.7999999999999972
210
0
220
0
230
-1
0
CIRCLE
5
200
100
AcDbEntity
8
INTERIOR_PROFILES
100
AcDbCircle
10
-554.42678571428564
20
349.15038112917381
30
0
40
1.7999999999999972
210
0
220
0
230
-1
0
CIRCLE
5
201
100
AcDbEntity
8
INTERIOR_PROFILES
100
AcDbCircle
10
-232.6857142857142
20
381.43740460345623
30
0
40
2.2999999999999687
210
0
220
0
230
-1
0
CIRCLE
5
202
100
AcDbEntity
8
INTERIOR_PROFILES
100
AcDbCircle
10
-111.40000000000001
20
381.43740460345623
30
0
40
2.3000000000000398
210
0
220
0
230
-1
0
CIRCLE
5
203
100
AcDbEntity
8
INTERIOR_PROFILES
100
AcDbCircle
10
-212.54285714285709
20
381.43740460345623
30
0
40
2.2999999999999687
210
0
220
0
230
-1
0
CIRCLE
5
204
100
AcDbEntity
8
INTERIOR_PROFILES
100
AcDbCircle
10
-448.79999999999995
20
162.93434158329808
30
0
40
2.2999999999999687
210
0
220
0
230
-1
0
CIRCLE
5
205
100
AcDbEntity
8
INTERIOR_PROFILES
100
AcDbCircle
10
-497.65892857142853
20
349.15038112917381
30
0
40
1.7999999999999972
210
0
220
0
230
-1
0
CIRCLE
5
206
100
AcDbEntity
8
INTERIOR_PROFILES
100
AcDbCircle
10
-149.85535714285709
20
512.92131509967135
30
0
40
1.8000000000000682
210
0
220
0
230
-1
0
CIRCLE
5
207
100
AcDbEntity
8
INTERIOR_PROFILES
100
AcDbCircle
10
-453.28392857142853
20
251.7803811291738
30
0
40
1.7999999999999972
210
0
220
0
230
-1
0
CIRCLE
5
208
100
AcDbEntity
8
INTERIOR_PROFILES
100
AcDbCircle
10
-194.23035714285717
20
415.55131509967134
30
0
40
1.8000000000000682
210
0
220
0
230
-1
0
CIRCLE
5
209
100
AcDbEntity
8
INTERIOR_PROFILES
100
AcDbCircle
10
-93.087500000000006
20
512.92131509967135
30
0
40
1.8000000000000682
210
0
220
0
230
-1
0
CIRCLE
5
210
100
AcDbEntity
8
INTERIOR_PROFILES
100
AcDbCircle
10
-124.90000000000009
20
277.68434158329808
30
0
40
1.8000000000000682
210
0
220
0
230
-1
0
CIRCLE
5
211
100
AcDbEntity
8
INTERIOR_PROFILES
100
AcDbCircle
10
-833.59999999999991
20
156.43434158329813
30
0
40
2.3999999999999488
210
0
220
0
230
-1
0
CIRCLE
5
212
100
AcDbEntity
8
INTERIOR_PROFILES
100
AcDbCircle
10
-497.65892857142842
20
251.78038112917378
30
0
40
1.7999999999999972
210
0
220
0
230
-1
0
CIRCLE
5
213
100
AcDbEntity
8
INTERIOR_PROFILES
100
AcDbCircle
10
-424.90000000000003
20
534.97892121215909
30
0
40
1.25
210
0
220
0
230
-1
0
CIRCLE
5
214
100
AcDbEntity
8
INTERIOR_PROFILES
100
AcDbCircle
10
-295.3732142857142
20
415.55131509967134
30
0
40
1.7999999999999972
210
0
220
0
230
-1
0
CIRCLE
5
215
100
AcDbEntity
8
INTERIOR_PROFILES
100
AcDbCircle
10
-598.80178571428564
20
251.7803811291738
30
0
40
1.7999999999999972
210
0
220
0
230
-1
0
CIRCLE
5
216
100
AcDbEntity
8
INTERIOR_PROFILES
100
AcDbCircle
10
-367.89999999999998
20
325.43434158329808
30
0
40
1.25
210
0
220
0
230
-1
0
CIRCLE
5
217
100
AcDbEntity
8
INTERIOR_PROFILES
100
AcDbCircle
10
-367.89999999999998
20
203.43434158329808
30
0
40
1.25
210
0
220
0
230
-1
0
CIRCLE
5
218
100
AcDbEntity
8
INTERIOR_PROFILES
100
AcDbCircle
10
-173.89999999999992
20
219.68434158329802
30
0
40
1.8000000000000682
210
0
220
0
230
-1
0
CIRCLE
5
219
100
AcDbEntity
8
INTERIOR_PROFILES
100
AcDbCircle
10
-598.80178571428564
20
349.15038112917381
30
0
40
1.7999999999999972
210
0
220
0
230
-1
0
CIRCLE
5
220
100
AcDbEntity
8
INTERIOR_PROFILES
100
AcDbCircle
10
-250.99821428571417
20
512.92131509967135
30
0
40
1.7999999999999972
210
0
220
0
230
-1
0
CIRCLE
5
221
100
AcDbEntity
8
INTERIOR_PROFILES
100
AcDbCircle
10
-526.04285714285709
20
464.23631509967129
30
0
40
2.4000000000000199
210
0
220
0
230
-1
0
CIRCLE
5
222
100
AcDbEntity
8
INTERIOR_PROFILES
100
AcDbCircle
10
-16.199999999999974
20
156.43434158329811
30
0
40
2.3999999999999488
210
0
220
0
230
-1
0
CIRCLE
5
223
100
AcDbEntity
8
INTERIOR_PROFILES
100
AcDbCircle
10
-131.54285714285717
20
381.43740460345623
30
0
40
2.3000000000000398
210
0
220
0
230
-1
0
CIRCLE
5
224
100
AcDbEntity
8
INTERIOR_PROFILES
100
AcDbCircle
10
-822.09999999999991
20
250.93434158329808
30
0
40
1.25
210
0
220
0
230
-1
0
CIRCLE
5
225
100
AcDbEntity
8
INTERIOR_PROFILES
100
AcDbCircle
10
-453.28392857142853
20
349.15038112917381
30
0
40
1.7999999999999972
210
0
220
0
230
-1
0
CIRCLE
5
226
100
AcDbEntity
8
INTERIOR_PROFILES
100
AcDbCircle
10
-822.09999999999991
20
170.93434158329811
30
0
40
1.25
210
0
220
0
230
-1
0
CIRCLE
5
227
100
AcDbEntity
8
INTERIOR_PROFILES
100
AcDbCircle
10
-93.087500000000063
20
415.55131509967134
30
0
40
1.8000000000000682
210
0
220
0
230
-1
0
CIRCLE
5
228
100
AcDbEntity
8
INTERIOR_PROFILES
100
AcDbCircle
10
-149.85535714285717
20
415.55131509967134
30
0
40
1.8000000000000682
210
0
220
0
230
-1
0
CIRCLE
5
229
100
AcDbEntity
8
INTERIOR_PROFILES
100
AcDbCircle
10
-554.42678571428564
20
251.7803811291738
30
0
40
1.7999999999999972
210
0
220
0
230
-1
0
CIRCLE
5
230
100
AcDbEntity
8
INTERIOR_PROFILES
100
AcDbCircle
10
-48.712499999999999
20
512.92131509967135
30
0
40
1.8000000000000682
210
0
220
0
230
-1
0
CIRCLE
5
231
100
AcDbEntity
8
INTERIOR_PROFILES
100
AcDbCircle
10
-124.90000000000002
20
219.68434158329811
30
0
40
1.8000000000000682
210
0
220
0
230
-1
0
CIRCLE
5
232
100
AcDbEntity
8
INTERIOR_PROFILES
100
AcDbCircle
10
-833.59999999999991
20
485.43434158329808
30
0
40
2.3999999999999488
210
0
220
0
230
-1
0
LWPOLYLINE
5
233
100
AcDbEntity
8
INTERIOR_PROFILES
100
AcDbPolyline
90
4
70
1
43
0.0
10
359.89999999999998
20
386.75648460193992
42
-0.99999999999999989
10
359.89999999999998
20
390.7564846019398
10
395.89999999999998
20
390.75648460193986
42
-0.99999999999999989
10
395.89999999999998
20
386.75648460193986
0
LWPOLYLINE
5
234
100
AcDbEntity
8
INTERIOR_PROFILES
100
AcDbPolyline
90
4
70
1
43
0.0
10
584.89999999999998
20
374.7564846019398
10
575.89999999999975
20
374.7564846019398
42
0.99999999999999989
10
575.89999999999975
20
370.75648460194003
10
584.89999999999998
20
370.75648460193975
42
0.99999999999999989
0
LWPOLYLINE
5
235
100
AcDbEntity
8
INTERIOR_PROFILES
100
AcDbPolyline
90
4
70
1
43
0.0
10
584.89999999999998
20
366.75648460193986
10
548.89999999999998
20
366.75648460193986
42
0.99999999999999989
10
548.89999999999998
20
362.75648460193975
10
584.90000000000009
20
362.75648460193992
42
0.99999999999999989
0
LWPOLYLINE
5
236
100
AcDbEntity
8
INTERIOR_PROFILES
100
AcDbPolyline
90
4
70
1
43
0.0
10
503.89999999999998
20
374.7564846019398
10
467.89999999999992
20
374.7564846019398
42
0.99999999999999989
10
467.89999999999992
20
370.75648460193975
10
503.89999999999986
20
370.75648460193975
42
0.99999999999999989
0
LWPOLYLINE
5
237
100
AcDbEntity
8
INTERIOR_PROFILES
100
AcDbPolyline
90
4
70
1
43
0.0
10
287.89999999999998
20
390.7564846019398
10
278.9000000000002
20
390.75648460193975
42
0.99999999999999989
10
278.89999999999992
20
386.75648460193952
10
287.90000000000015
20
386.75648460194003
42
0.99999999999999989
0
LWPOLYLINE
5
238
100
AcDbEntity
8
INTERIOR_PROFILES
100
AcDbPolyline
90
4
70
1
43
0.0
10
467.89999999999998
20
386.75648460193986
10
503.89999999999998
20
386.75648460193975
42
0.99999999999999989
10
503.89999999999998
20
390.75648460193969
10
467.89999999999986
20
390.75648460193986
42
0.99999999999999989
0
LWPOLYLINE
5
239
100
AcDbEntity
8
INTERIOR_PROFILES
100
AcDbPolyline
90
4
70
1
43
0.0
10
548.89999999999998
20
378.7564846019398
10
584.89999999999986
20
378.75648460193986
42
0.99999999999999989
10
584.89999999999998
20
382.75648460193992
10
548.89999999999998
20
382.75648460193986
42
0.99999999999999989
0
LWPOLYLINE
5
240
100
AcDbEntity
8
INTERIOR_PROFILES
100
AcDbPolyline
90
4
70
1
43
0.0
10
287.89999999999998
20
374.7564846019398
10
278.9000000000002
20
374.7564846019398
42
0.99999999999999989
10
278.89999999999992
20
370.75648460193963
10
287.89999999999969
20
370.75648460194003
42
0.99999999999999989
0
LWPOLYLINE
5
241
100
AcDbEntity
8
INTERIOR_PROFILES
100
AcDbPolyline
90
4
70
1
43
0.0
10
548.89999999999998
20
394.7564846019398
10
584.89999999999986
20
394.7564846019398
42
0.99999999999999989
10
584.90000000000009
20
398.75648460193986
10
548.89999999999998
20
398.75648460193986
42
0.99999999999999989
0
LWPOLYLINE
5
242
100
AcDbEntity
8
INTERIOR_PROFILES
100
AcDbPolyline
90
4
70
1
43
0.0
10
395.89999999999998
20
374.75648460193986
42
-0.99999999999999989
10
395.89999999999998
20
370.7564846019398
10
359.89999999999986
20
370.75648460193986
42
-0.99999999999999989
10
359.89999999999998
20
374.7564846019398
0
LWPOLYLINE
5
243
100
AcDbEntity
8
INTERIOR_PROFILES
100
AcDbPolyline
90
4
70
1
43
0.0
10
575.89999999999986
20
386.75648460193992
42
-0.99999999999999989
10
575.89999999999986
20
390.7564846019398
10
584.89999999999998
20
390.75648460193975
42
-0.99999999999999989
10
584.89999999999998
20
386.75648460193986
0
LWPOLYLINE
5
244
100
AcDbEntity
8
INTERIOR_PROFILES
100
AcDbPolyline
90
4
70
1
43
0.0
10
899.89999999999986
20
206.43434158329813
10
899.89999999999998
20
170.43434158329813
42
0.99999999999999989
10
903.89999999999998
20
170.43434158329813
10
903.89999999999986
20
206.43434158329813
42
0.99999999999999989
0
LWPOLYLINE
5
245
100
AcDbEntity
8
INTERIOR_PROFILES
100
AcDbPolyline
90
4
70
1
43
0.0
10
883.89999999999986
20
254.43434158329808
10
883.89999999999975
20
218.43434158329802
42
0.99999999999999989
10
887.89999999999975
20
218.43434158329802
10
887.89999999999964
20
254.43434158329808
42
0.99999999999999989
0
LWPOLYLINE
5
246
100
AcDbEntity
8
INTERIOR_PROFILES
100
AcDbPolyline
90
4
70
1
43
0.0
10
907.89999999999975
20
182.43434158329808
10
907.89999999999975
20
160.43434158329813
42
0.99999999999999989
10
911.89999999999986
20
160.43434158329813
10
911.89999999999986
20
182.43434158329794
42
0.99999999999999989
0
LWPOLYLINE
5
247
100
AcDbEntity
8
INTERIOR_PROFILES
100
AcDbPolyline
90
4
70
1
43
0.0
10
871.89999999999986
20
170.43434158329808
42
-0.99999999999999989
10
867.89999999999975
20
170.43434158329808
10
867.89999999999986
20
206.43434158329811
42
-0.99999999999999989
10
871.89999999999986
20
206.43434158329811
0
LWPOLYLINE
5
248
100
AcDbEntity
8
INTERIOR_PROFILES
100
AcDbPolyline
90
4
70
1
43
0.0
10
895.89999999999975
20
160.43434158329813
10
895.89999999999986
20
182.43434158329794
42
0.99999999999999989
10
891.89999999999986
20
182.43434158329808
10
891.89999999999998
20
160.43434158329813
42
0.99999999999999989
0
LWPOLYLINE
5
249
100
AcDbEntity
8
INTERIOR_PROFILES
100
AcDbPolyline
90
4
70
1
43
0.0
10
891.89999999999986
20
230.43434158329805
10
891.89999999999986
20
194.43434158329825
42
0.99999999999999989
10
895.89999999999986
20
194.43434158329811
10
895.89999999999986
20
230.43434158329805
42
0.99999999999999989
0
LWPOLYLINE
5
250
100
AcDbEntity
8
INTERIOR_PROFILES
100
AcDbPolyline
90
4
70
1
43
0.0
10
915.89999999999975
20
203.61615976511632
10
915.89999999999986
20
170.43434158329808
42
0.99999999999999989
10
919.89999999999998
20
170.43434158329808
10
919.89999999999986
20
203.61615976511612
42
0.99999999999999989
0
LWPOLYLINE
5
251
100
AcDbEntity
8
INTERIOR_PROFILES
100
AcDbPolyline
90
4
70
1
43
0.0
10
859.89999999999986
20
182.43434158329805
10
859.89999999999998
20
160.43434158329808
42
0.99999999999999989
10
863.89999999999998
20
160.43434158329808
10
863.89999999999964
20
182.43434158329791
42
0.99999999999999989
0
LWPOLYLINE
5
252
100
AcDbEntity
8
INTERIOR_PROFILES
100
AcDbPolyline
90
4
70
1
43
0.0
10
895.89999999999975
20
242.43434158329805
10
895.89999999999986
20
278.43434158329808
42
0.99999999999999989
10
891.89999999999986
20
278.43434158329808
10
891.89999999999998
20
242.43434158329819
42
0.99999999999999989
0
LWPOLYLINE
5
253
100
AcDbEntity
8
INTERIOR_PROFILES
100
AcDbPolyline
90
4
70
1
43
0.0
10
879.89999999999998
20
194.43434158329808
42
-0.99999999999999989
10
875.89999999999986
20
194.43434158329808
10
875.89999999999986
20
230.43434158329808
42
-0.99999999999999989
10
879.89999999999986
20
230.43434158329808
0
LWPOLYLINE
5
254
100
AcDbEntity
8
INTERIOR_PROFILES
100
AcDbPolyline
90
4
70
1
43
0.0
10
911.89999999999998
20
194.43434158329811
10
911.89999999999986
20
230.43434158329813
42
0.99999999999999989
10
907.89999999999975
20
230.43434158329813
10
907.89999999999964
20
194.43434158329825
42
0.99999999999999989
0
LWPOLYLINE
5
255
100
AcDbEntity
8
INTERIOR_PROFILES
100
AcDbPolyline
90
4
70
1
43
0.0
10
903.89999999999986
20
218.43434158329811
10
903.89999999999986
20
254.43434158329808
42
0.99999999999999989
10
899.89999999999986
20
254.43434158329808
10
899.89999999999986
20
218.43434158329796
42
0.99999999999999989
0
LWPOLYLINE
5
256
100
AcDbEntity
8
INTERIOR_PROFILES
100
AcDbPolyline
90
4
70
1
43
0.0
10
863.89999999999998
20
242.43434158329805
42
-0.99999999999999989
10
859.89999999999998
20
242.43434158329805
10
859.89999999999986
20
278.43434158329808
42
-0.99999999999999989
10
863.89999999999986
20
278.43434158329808
0
LWPOLYLINE
5
257
100
AcDbEntity
8
INTERIOR_PROFILES
100
AcDbPolyline
90
4
70
1
43
0.0
10
815.89999999999986
20
44.434341583298078
42
-0.99999999999999989
10
815.90000000000009
20
40.434341583298021
10
779.90000000000009
20
40.434341583297808
42
-0.99999999999999989
10
779.89999999999986
20
44.434341583298007
0
LWPOLYLINE
5
258
100
AcDbEntity
8
INTERIOR_PROFILES
100
AcDbPolyline
90
4
70
1
43
0.0
10
653.75714285714275
20
52.43434158329805
10
617.75714285714298
20
52.434341583298014
42
0.99999999999999989
10
617.75714285714275
20
48.434341583298028
10
653.75714285714275
20
48.434341583297993
42
0.99999999999999989
0
LWPOLYLINE
5
259
100
AcDbEntity
8
INTERIOR_PROFILES
100
AcDbPolyline
90
4
70
1
43
0.0
10
859.89999999999986
20
230.43434158329808
10
859.89999999999998
20
194.43434158329822
42
0.99999999999999989
10
863.89999999999998
20
194.43434158329808
10
863.90000000000009
20
230.43434158329808
42
0.99999999999999989
0
LWPOLYLINE
5
260
100
AcDbEntity
8
INTERIOR_PROFILES
100
AcDbPolyline
90
4
70
1
43
0.0
10
501.94081632653069
20
72.434341583297908
42
-0.99999999999999989
10
501.94081632653058
20
76.434341583297964
10
537.94081632653069
20
76.434341583298178
42
-0.99999999999999989
10
537.94081632653047
20
72.434341583297979
0
LWPOLYLINE
5
261
100
AcDbEntity
8
INTERIOR_PROFILES
100
AcDbPolyline
90
4
70
1
43
0.0
10
594.59387755102046
20
56.434341583297964
10
630.59387755102034
20
56.434341583297964
42
0.99999999999999989
10
630.59387755102046
20
60.434341583298021
10
594.59387755102046
20
60.434341583298021
42
0.99999999999999989
0
CIRCLE
5
262
100
AcDbEntity
8
INTERIOR_PROFILES
100
AcDbCircle
10
-526.04285714285709
20
11.971582874040436
30
0
40
1.25
210
0
220
0
230
-1
0
LWPOLYLINE
5
263
100
AcDbEntity
8
INTERIOR_PROFILES
100
AcDbPolyline
90
4
70
1
43
0.0
10
700.08367346938769
20
68.434341583297922
10
664.08367346938792
20
68.434341583297993
42
0.99999999999999989
10
664.08367346938758
20
64.434341583298078
10
700.08367346938769
20
64.434341583298007
42
0.99999999999999989
0
LWPOLYLINE
5
264
100
AcDbEntity
8
INTERIOR_PROFILES
100
AcDbPolyline
90
4
70
1
43
0.0
10
867.89999999999986
20
254.43434158329808
10
867.89999999999975
20
218.43434158329808
42
0.99999999999999989
10
871.89999999999986
20
218.43434158329808
10
871.89999999999964
20
254.43434158329808
42
0.99999999999999989
0
LWPOLYLINE
5
265
100
AcDbEntity
8
INTERIOR_PROFILES
100
AcDbPolyline
90
4
70
1
43
0.0
10
733.57346938775504
20
56.434341583298107
42
-0.99999999999999989
10
733.57346938775493
20
60.434341583298021
10
769.57346938775504
20
60.434341583298021
42
-0.99999999999999989
10
769.57346938775504
20
56.434341583297964
0
LWPOLYLINE
5
266
100
AcDbEntity
8
INTERIOR_PROFILES
100
AcDbPolyline
90
4
70
1
43
0.0
10
468.45102040816334
20
84.434341583298107
42
-0.99999999999999989
10
468.45102040816334
20
80.43434158329805
10
455.6142857142857
20
80.43434158329795
42
-0.99999999999999989
10
455.61428571428576
20
84.434341583298007
0
LWPOLYLINE
5
267
100
AcDbEntity
8
INTERIOR_PROFILES
100
AcDbPolyline
90
4
70
1
43
0.0
10
879.89999999999998
20
160.43434158329808
42
-0.99999999999999989
10
875.89999999999986
20
160.43434158329808
10
875.89999999999975
20
182.43434158329805
42
-0.99999999999999989
10
879.89999999999986
20
182.43434158329805
0
LWPOLYLINE
5
268
100
AcDbEntity
8
INTERIOR_PROFILES
100
AcDbPolyline
90
4
70
1
43
0.0
10
594.59387755102046
20
72.434341583297908
42
-0.99999999999999989
10
594.59387755102046
20
76.434341583297964
10
630.59387755102057
20
76.434341583298178
42
-0.99999999999999989
10
630.59387755102034
20
72.434341583297979
0
LWPOLYLINE
5
269
100
AcDbEntity
8
INTERIOR_PROFILES
100
AcDbPolyline
90
4
70
1
43
0.0
10
875.89999999999975
20
278.43434158329808
42
-0.99999999999999989
10
879.89999999999986
20
278.43434158329808
10
879.89999999999998
20
242.43434158329805
42
-0.99999999999999989
10
875.89999999999986
20
242.43434158329808
0
LWPOLYLINE
5
270
100
AcDbEntity
8
INTERIOR_PROFILES
100
AcDbPolyline
90
4
70
1
43
0.0
10
640.92040816326528
20
56.434341583297964
10
676.92040816326528
20
56.434341583298036
42
0.99999999999999989
10
676.92040816326528
20
60.434341583298092
10
640.92040816326528
20
60.434341583298021
42
0.99999999999999989
0
LWPOLYLINE
5
271
100
AcDbEntity
8
INTERIOR_PROFILES
100
AcDbPolyline
90
4
70
1
43
0.0
10
501.94081632653069
20
56.434341583297964
10
537.94081632653047
20
56.434341583298036
42
0.99999999999999989
10
537.94081632653069
20
60.434341583298092
10
501.94081632653081
20
60.434341583297879
42
0.99999999999999989
0
LWPOLYLINE
5
272
100
AcDbEntity
8
INTERIOR_PROFILES
100
AcDbPolyline
90
4
70
1
43
0.0
10
561.10408163265322
20
68.434341583297638
42
-0.99999999999999989
10
561.10408163265299
20
64.434341583298007
10
525.10408163265311
20
64.434341583297794
42
-0.99999999999999989
10
525.10408163265311
20
68.434341583298064
0
LWPOLYLINE
5
273
100
AcDbEntity
8
INTERIOR_PROFILES
100
AcDbPolyline
90
4
70
1
43
0.0
10
584.26734693877552
20
92.434341583298078
10
548.26734693877529
20
92.434341583298021
42
0.99999999999999989
10
548.26734693877552
20
88.434341583298391
10
584.26734693877575
20
88.434341583298021
42
0.99999999999999989
0
LWPOLYLINE
5
274
100
AcDbEntity
8
INTERIOR_PROFILES
100
AcDbPolyline
90
4
70
1
43
0.0
10
630.59387755102057
20
92.43434158329805
42
-0.99999999999999989
10
630.59387755102034
20
88.434341583297993
10
594.59387755102046
20
88.434341583298206
42
-0.99999999999999989
10
594.59387755102046
20
92.434341583297979
0
CIRCLE
5
275
100
AcDbEntity
8
INTERIOR_PROFILES
100
AcDbCircle
10
-11.899999999999977
20
101.34518246866082
30
0
40
1.6500000000000625
210
0
220
0
230
-1
0
LWPOLYLINE
5
276
100
AcDbEntity
8
INTERIOR_PROFILES
100
AcDbPolyline
90
4
70
1
43
0.0
10
723.24693877551022
20
92.434341583298078
10
687.24693877550976
20
92.434341583298021
42
0.99999999999999989
10
687.24693877551033
20
88.434341583298391
10
723.24693877551022
20
88.434341583297879
42
0.99999999999999989
0
LWPOLYLINE
5
277
100
AcDbEntity
8
INTERIOR_PROFILES
100
AcDbPolyline
90
4
70
1
43
0.0
10
723.24693877551022
20
76.434341583297964
10
687.24693877550999
20
76.434341583297993
42
0.99999999999999989
10
687.24693877550999
20
72.434341583298078
10
723.24693877550999
20
72.434341583298192
42
0.99999999999999989
0
LWPOLYLINE
5
278
100
AcDbEntity
8
INTERIOR_PROFILES
100
AcDbPolyline
90
4
70
1
43
0.0
10
792.73673469387745
20
84.434341583298007
10
756.73673469387779
20
84.43434158329805
42
0.99999999999999989
10
756.73673469387722
20
80.434341583297851
10
792.73673469387745
20
80.434341583298092
42
0.99999999999999989
0
CIRCLE
5
279
100
AcDbEntity
8
INTERIOR_PROFILES
100
AcDbCircle
10
-837.89999999999986
20
37.345182468660809
30
0
40
1.6500000000000625
210
0
220
0
230
-1
0
LWPOLYLINE
5
280
100
AcDbEntity
8
INTERIOR_PROFILES
100
AcDbPolyline
90
4
70
1
43
0.0
10
676.92040816326528
20
76.434341583297964
10
640.92040816326528
20
76.434341583298178
42
0.99999999999999989
10
640.92040816326528
20
72.434341583297979
10
676.92040816326528
20
72.434341583298192
42
0.99999999999999989
0
LWPOLYLINE
5
281
100
AcDbEntity
8
INTERIOR_PROFILES
100
AcDbPolyline
90
4
70
1
43
0.0
10
676.92040816326539
20
92.43434158329805
10
640.92040816326505
20
92.434341583297979
42
0.99999999999999989
10
640.92040816326528
20
88.434341583298206
10
676.92040816326517
20
88.434341583297709
42
0.99999999999999989
0
LWPOLYLINE
5
282
100
AcDbEntity
8
INTERIOR_PROFILES
100
AcDbPolyline
90
4
70
1
43
0.0
10
700.08367346938769
20
84.43434158329805
10
664.0836734693878
20
84.43434158329805
42
0.99999999999999989
10
664.0836734693878
20
80.434341583297993
10
700.08367346938769
20
80.434341583298135
42
0.99999999999999989
0
LWPOLYLINE
5
283
100
AcDbEntity
8
INTERIOR_PROFILES
100
AcDbPolyline
90
4
70
1
43
0.0
10
815.90000000000009
20
84.434341583298078
42
-0.99999999999999989
10
815.90000000000009
20
80.434341583298021
10
803.06326530612239
20
80.43434158329805
42
-0.99999999999999989
10
803.0632653061225
20
84.434341583297964
0
LWPOLYLINE
5
284
100
AcDbEntity
8
INTERIOR_PROFILES
100
AcDbPolyline
90
4
70
1
43
0.0
10
478.77755102040823
20
80.43434158329805
10
514.77755102040805
20
80.43434158329805
42
0.99999999999999989
10
514.77755102040817
20
84.434341583298107
10
478.77755102040851
20
84.43434158329768
42
0.99999999999999989
0
LWPOLYLINE
5
285
100
AcDbEntity
8
INTERIOR_PROFILES
100
AcDbPolyline
90
4
70
1
43
0.0
10
617.75714285714287
20
64.434341583298007
10
653.75714285714275
20
64.434341583297964
42
0.99999999999999989
10
653.75714285714275
20
68.434341583297964
10
617.75714285714287
20
68.434341583297922
42
0.99999999999999989
0
CIRCLE
5
286
100
AcDbEntity
8
INTERIOR_PROFILES
100
AcDbCircle
10
-323.75714285714298
20
11.971582874040436
30
0
40
1.25
210
0
220
0
230
-1
0
LWPOLYLINE
5
287
100
AcDbEntity
8
INTERIOR_PROFILES
100
AcDbPolyline
90
4
70
1
43
0.0
10
455.61428571428576
20
48.434341583298348
42
-0.99999999999999989
10
455.61428571428576
20
52.434341583297979
10
468.45102040816334
20
52.434341583298192
42
-0.99999999999999989
10
468.45102040816334
20
48.434341583297922
0
LWPOLYLINE
5
288
100
AcDbEntity
8
INTERIOR_PROFILES
100
AcDbPolyline
90
4
70
1
43
0.0
10
815.89999999999986
20
60.434341583298092
10
779.89999999999986
20
60.434341583298021
42
0.99999999999999989
10
779.89999999999986
20
56.434341583298107
10
815.89999999999986
20
56.434341583297751
42
0.99999999999999989
0
LWPOLYLINE
5
289
100
AcDbEntity
8
INTERIOR_PROFILES
100
AcDbPolyline
90
4
70
1
43
0.0
10
514.77755102040828
20
68.434341583297993
42
-0.99999999999999989
10
514.77755102040828
20
64.434341583298362
10
478.77755102040823
20
64.434341583297794
42
-0.99999999999999989
10
478.77755102040823
20
68.434341583297993
0
LWPOLYLINE
5
290
100
AcDbEntity
8
INTERIOR_PROFILES
100
AcDbPolyline
90
4
70
1
43
0.0
10
584.26734693877552
20
60.434341583298021
42
-0.99999999999999989
10
584.26734693877552
20
56.434341583297964
10
548.26734693877563
20
56.434341583298107
42
-0.99999999999999989
10
548.26734693877563
20
60.434341583298021
0
LWPOLYLINE
5
291
100
AcDbEntity
8
INTERIOR_PROFILES
100
AcDbPolyline
90
4
70
1
43
0.0
10
733.57346938775504
20
40.434341583298021
10
769.5734693877547
20
40.43434158329778
42
0.99999999999999989
10
769.57346938775504
20
44.434341583298036
10
733.57346938775504
20
44.434341583297794
42
0.99999999999999989
0
LWPOLYLINE
5
292
100
AcDbEntity
8
INTERIOR_PROFILES
100
AcDbPolyline
90
4
70
1
43
0.0
10
746.41020408163274
20
84.434341583297993
42
-0.99999999999999989
10
746.41020408163263
20
80.434341583297822
10
710.4102040816324
20
80.434341583297808
42
-0.99999999999999989
10
710.41020408163263
20
84.434341583298007
0
CIRCLE
5
293
100
AcDbEntity
8
INTERIOR_PROFILES
100
AcDbCircle
10
-27.614285714285813
20
98.434341583297993
30
0
40
1.8000000000000682
210
0
220
0
230
-1
0
LWPOLYLINE
5
294
100
AcDbEntity
8
INTERIOR_PROFILES
100
AcDbPolyline
90
4
70
1
43
0.0
10
733.57346938775493
20
88.434341583298249
42
-0.99999999999999989
10
733.57346938775504
20
92.434341583298021
10
769.57346938775515
20
92.434341583298078
42
-0.99999999999999989
10
769.57346938775515
20
88.434341583298021
0
LWPOLYLINE
5
295
100
AcDbEntity
8
INTERIOR_PROFILES
100
AcDbPolyline
90
4
70
1
43
0.0
10
491.61428571428576
20
76.434341583298178
42
-0.99999999999999989
10
491.61428571428581
20
72.434341583297979
10
455.61428571428576
20
72.43434158329805
42
-0.99999999999999989
10
455.61428571428576
20
76.434341583297964
0
CIRCLE
5
296
100
AcDbEntity
8
INTERIOR_PROFILES
100
AcDbCircle
10
-438.61428571428581
20
66.434341583297964
30
0
40
3.2500000000000284
210
0
220
0
230
-1
0
LWPOLYLINE
5
297
100
AcDbEntity
8
INTERIOR_PROFILES
100
AcDbPolyline
90
4
70
1
43
0.0
10
501.94081632653069
20
40.434341583297666
42
-0.99999999999999989
10
501.94081632653069
20
44.434341583298007
10
537.94081632653058
20
44.434341583298149
42
-0.99999999999999989
10
537.94081632653058
20
40.434341583298092
0
LWPOLYLINE
5
298
100
AcDbEntity
8
INTERIOR_PROFILES
100
AcDbPolyline
90
4
70
1
43
0.0
10
455.61428571428576
20
40.43434158329795
42
-0.99999999999999989
10
455.61428571428576
20
44.434341583298007
10
491.61428571428581
20
44.434341583297936
42
-0.99999999999999989
10
491.61428571428581
20
40.434341583298021
0
LWPOLYLINE
5
299
100
AcDbEntity
8
INTERIOR_PROFILES
100
AcDbPolyline
90
4
70
1
43
0.0
10
491.61428571428576
20
92.43434158329805
42
-0.99999999999999989
10
491.61428571428576
20
88.434341583297993
10
455.61428571428576
20
88.434341583298064
42
-0.99999999999999989
10
455.61428571428576
20
92.434341583297837
0
LWPOLYLINE
5
300
100
AcDbEntity
8
INTERIOR_PROFILES
100
AcDbPolyline
90
4
70
1
43
0.0
10
756.73673469387745
20
64.434341583298007
10
792.73673469387757
20
64.434341583298007
42
0.99999999999999989
10
792.73673469387757
20
68.43434158329778
10
756.73673469387745
20
68.434341583298064
42
0.99999999999999989
0
LWPOLYLINE
5
301
100
AcDbEntity
8
INTERIOR_PROFILES
100
AcDbPolyline
90
4
70
1
43
0.0
10
710.41020408163263
20
64.434341583298007
10
746.41020408163274
20
64.434341583298078
42
0.99999999999999989
10
746.41020408163274
20
68.434341583297851
10
710.41020408163263
20
68.434341583298064
42
0.99999999999999989
0
LWPOLYLINE
5
302
100
AcDbEntity
8
INTERIOR_PROFILES
100
AcDbPolyline
90
4
70
1
43
0.0
10
756.73673469387745
20
48.434341583297922
10
792.73673469387745
20
48.434341583297993
42
0.99999999999999989
10
792.73673469387745
20
52.434341583297908
10
756.73673469387722
20
52.434341583298263
42
0.99999999999999989
0
LWPOLYLINE
5
303
100
AcDbEntity
8
INTERIOR_PROFILES
100
AcDbPolyline
90
4
70
1
43
0.0
10
815.90000000000009
20
92.434341583297908
42
-0.99999999999999989
10
815.90000000000009
20
88.434341583297993
10
779.89999999999986
20
88.434341583298206
42
-0.99999999999999989
10
779.90000000000009
20
92.434341583297979
0
LWPOLYLINE
5
304
100
AcDbEntity
8
INTERIOR_PROFILES
100
AcDbPolyline
90
4
70
1
43
0.0
10
607.43061224489793
20
68.434341583297851
42
-0.99999999999999989
10
607.43061224489793
20
64.434341583298078
10
571.43061224489793
20
64.434341583297936
42
-0.99999999999999989
10
571.43061224489816
20
68.434341583297993
0
LWPOLYLINE
5
305
100
AcDbEntity
8
INTERIOR_PROFILES
100
AcDbPolyline
90
4
70
1
43
0.0
10
815.89999999999986
20
52.434341583297908
42
-0.99999999999999989
10
815.89999999999986
20
48.434341583297993
10
803.06326530612239
20
48.434341583298028
42
-0.99999999999999989
10
803.06326530612239
20
52.434341583297979
0
LWPOLYLINE
5
306
100
AcDbEntity
8
INTERIOR_PROFILES
100
AcDbPolyline
90
4
70
1
43
0.0
10
733.57346938775504
20
72.434341583298078
10
769.57346938775515
20
72.434341583298078
42
0.99999999999999989
10
769.57346938775515
20
76.434341583298007
10
733.57346938775504
20
76.434341583297851
42
0.99999999999999989
0
LWPOLYLINE
5
307
100
AcDbEntity
8
INTERIOR_PROFILES
100
AcDbPolyline
90
4
70
1
43
0.0
10
571.43061224489804
20
80.434341583298021
10
607.43061224489782
20
80.434341583298021
42
0.99999999999999989
10
607.43061224489804
20
84.434341583298078
10
571.43061224489793
20
84.434341583297936
42
0.99999999999999989
0
LWPOLYLINE
5
308
100
AcDbEntity
8
INTERIOR_PROFILES
100
AcDbPolyline
90
4
70
1
43
0.0
10
640.92040816326517
20
40.434341583297808
42
-0.99999999999999989
10
640.92040816326528
20
44.434341583298007
10
676.92040816326528
20
44.434341583298149
42
-0.99999999999999989
10
676.92040816326528
20
40.434341583298092
0
CIRCLE
5
309
100
AcDbEntity
8
INTERIOR_PROFILES
100
AcDbCircle
10
-20.328571428571323
20
11.971582874040436
30
0
40
1.25
210
0
220
0
230
-1
0
LWPOLYLINE
5
310
100
AcDbEntity
8
INTERIOR_PROFILES
100
AcDbPolyline
90
4
70
1
43
0.0
10
468.45102040816334
20
68.434341583297993
10
455.61428571428576
20
68.434341583298064
42
0.99999999999999989
10
455.61428571428576
20
64.434341583298149
10
468.45102040816363
20
64.434341583297652
42
0.99999999999999989
0
LWPOLYLINE
5
311
100
AcDbEntity
8
INTERIOR_PROFILES
100
AcDbPolyline
90
4
70
1
43
0.0
10
561.10408163265311
20
84.434341583298007
10
525.10408163265299
20
84.434341583298078
42
0.99999999999999989
10
525.10408163265299
20
80.434341583298021
10
561.10408163265333
20
80.43434158329795
42
0.99999999999999989
0
LWPOLYLINE
5
312
100
AcDbEntity
8
INTERIOR_PROFILES
100
AcDbPolyline
90
4
70
1
43
0.0
10
815.90000000000009
20
68.434341583298064
10
803.0632653061225
20
68.434341583297993
42
0.99999999999999989
10
803.06326530612228
20
64.434341583297936
10
815.90000000000009
20
64.434341583297723
42
0.99999999999999989
0
LWPOLYLINE
5
313
100
AcDbEntity
8
INTERIOR_PROFILES
100
AcDbPolyline
90
4
70
1
43
0.0
10
514.77755102040828
20
52.434341583298192
42
-0.99999999999999989
10
514.77755102040828
20
48.434341583297993
10
478.77755102040823
20
48.434341583298348
42
-0.99999999999999989
10
478.77755102040823
20
52.434341583297979
0
LWPOLYLINE
5
314
100
AcDbEntity
8
INTERIOR_PROFILES
100
AcDbPolyline
90
4
70
1
43
0.0
10
561.10408163265311
20
52.434341583297908
42
-0.99999999999999989
10
561.10408163265311
20
48.434341583297993
10
525.10408163265311
20
48.434341583298348
42
-0.99999999999999989
10
525.10408163265311
20
52.434341583297979
0
LWPOLYLINE
5
315
100
AcDbEntity
8
INTERIOR_PROFILES
100
AcDbPolyline
90
4
70
1
43
0.0
10
664.0836734693878
20
48.434341583297993
10
700.0836734693878
20
48.434341583297993
42
0.99999999999999989
10
700.08367346938758
20
52.434341583297908
10
664.08367346938746
20
52.434341583298334
42
0.99999999999999989
0
LWPOLYLINE
5
316
100
AcDbEntity
8
INTERIOR_PROFILES
100
AcDbPolyline
90
4
70
1
43
0.0
10
617.75714285714275
20
80.434341583297851
42
-0.99999999999999989
10
617.75714285714298
20
84.43434158329805
10
653.75714285714264
20
84.434341583298107
42
-0.99999999999999989
10
653.75714285714275
20
80.43434158329805
0
LWPOLYLINE
5
317
100
AcDbEntity
8
INTERIOR_PROFILES
100
AcDbPolyline
90
4
70
1
43
0.0
10
548.26734693877552
20
72.434341583298078
10
584.26734693877529
20
72.434341583298021
42
0.99999999999999989
10
584.26734693877563
20
76.43434158329822
10
548.26734693877552
20
76.434341583297993
42
0.99999999999999989
0
CIRCLE
5
318
100
AcDbEntity
8
INTERIOR_PROFILES
100
AcDbCircle
10
-728.32857142857142
20
11.971582874040365
30
0
40
1.25
210
0
220
0
230
-1
0
LWPOLYLINE
5
319
100
AcDbEntity
8
INTERIOR_PROFILES
100
AcDbPolyline
90
4
70
1
43
0.0
10
455.61428571428576
20
56.434341583297964
10
491.61428571428581
20
56.434341583297964
42
0.99999999999999989
10
491.61428571428581
20
60.434341583298021
10
455.61428571428576
20
60.434341583298163
42
0.99999999999999989
0
CIRCLE
5
320
100
AcDbEntity
8
INTERIOR_PROFILES
100
AcDbCircle
10
-417.61428571428581
20
34.434341583298007
30
0
40
1.7999999999999972
210
0
220
0
230
-1
0
CIRCLE
5
321
100
AcDbEntity
8
INTERIOR_PROFILES
100
AcDbCircle
10
-627.1857142857142
20
11.971582874040365
30
0
40
1.25
210
0
220
0
230
-1
0
LWPOLYLINE
5
322
100
AcDbEntity
8
INTERIOR_PROFILES
100
AcDbPolyline
90
4
70
1
43
0.0
10
710.41020408163251
20
48.434341583298206
42
-0.99999999999999989
10
710.41020408163263
20
52.434341583297979
10
746.41020408163263
20
52.434341583297908
42
-0.99999999999999989
10
746.41020408163263
20
48.434341583297993
0
LWPOLYLINE
5
323
100
AcDbEntity
8
INTERIOR_PROFILES
100
AcDbPolyline
90
4
70
1
43
0.0
10
607.43061224489804
20
52.43434158329805
42
-0.99999999999999989
10
607.43061224489782
20
48.434341583297993
10
571.43061224489804
20
48.434341583298206
42
-0.99999999999999989
10
571.43061224489804
20
52.434341583297979
0
LWPOLYLINE
5
324
100
AcDbEntity
8
INTERIOR_PROFILES
100
AcDbPolyline
90
4
70
1
43
0.0
10
687.24693877551022
20
56.434341583297893
10
723.2469387755101
20
56.434341583297964
42
0.99999999999999989
10
723.2469387755101
20
60.434341583297879
10
687.24693877551022
20
60.43434158329795
42
0.99999999999999989
0
CIRCLE
5
325
100
AcDbEntity
8
INTERIOR_PROFILES
100
AcDbCircle
10
-417.61428571428581
20
98.434341583297993
30
0
40
1.7999999999999972
210
0
220
0
230
-1
0
LWPOLYLINE
5
326
100
AcDbEntity
8
INTERIOR_PROFILES
100
AcDbPolyline
90
4
70
1
43
0.0
10
584.26734693877552
20
44.434341583297936
10
548.26734693877552
20
44.434341583298007
42
0.99999999999999989
10
548.26734693877552
20
40.43434158329795
10
584.26734693877563
20
40.434341583298163
42
0.99999999999999989
0
CIRCLE
5
327
100
AcDbEntity
8
INTERIOR_PROFILES
100
AcDbCircle
10
-905.989159114637
20
121.43434158329808
30
0
40
1.6500000000000625
210
0
220
0
230
-1
0
CIRCLE
5
328
100
AcDbEntity
8
INTERIOR_PROFILES
100
AcDbCircle
10
-27.614285714285884
20
34.434341583298007
30
0
40
1.8000000000000682
210
0
220
0
230
-1
0
LWPOLYLINE
5
329
100
AcDbEntity
8
INTERIOR_PROFILES
100
AcDbPolyline
90
4
70
1
43
0.0
10
723.2469387755101
20
44.434341583298078
42
-0.99999999999999989
10
723.2469387755101
20
40.434341583298021
10
687.24693877550999
20
40.434341583298021
42
-0.99999999999999989
10
687.24693877551022
20
44.434341583298007
0
LWPOLYLINE
5
330
100
AcDbEntity
8
INTERIOR_PROFILES
100
AcDbPolyline
90
4
70
1
43
0.0
10
537.94081632653069
20
92.434341583298078
42
-0.99999999999999989
10
537.94081632653058
20
88.434341583298021
10
501.94081632653058
20
88.434341583298348
42
-0.99999999999999989
10
501.94081632653058
20
92.434341583297979
0
LWPOLYLINE
5
331
100
AcDbEntity
8
INTERIOR_PROFILES
100
AcDbPolyline
90
4
70
1
43
0.0
10
594.59387755102046
20
40.434341583298021
10
630.59387755102034
20
40.434341583298021
42
0.99999999999999989
10
630.59387755102046
20
44.434341583298078
10
594.59387755102068
20
44.434341583297794
42
0.99999999999999989
0
CIRCLE
5
332
100
AcDbEntity
8
INTERIOR_PROFILES
100
AcDbCircle
10
-121.47142857142853
20
11.971582874040365
30
0
40
1.25
210
0
220
0
230
-1
0
LWPOLYLINE
5
333
100
AcDbEntity
8
INTERIOR_PROFILES
100
AcDbPolyline
90
4
70
1
43
0.0
10
815.90000000000009
20
76.434341583297964
10
779.89999999999998
20
76.434341583297964
42
0.99999999999999989
10
779.89999999999998
20
72.434341583297908
10
815.89999999999975
20
72.434341583298192
42
0.99999999999999989
0
LWPOLYLINE
5
334
100
AcDbEntity
8
INTERIOR_PROFILES
100
AcDbPolyline
90
4
70
1
43
0.0
10
883.89999999999998
20
206.43434158329808
42
-0.99999999999999989
10
887.89999999999975
20
206.43434158329813
10
887.89999999999986
20
170.43434158329813
42
-0.99999999999999989
10
883.89999999999986
20
170.43434158329805
0
CIRCLE
5
335
100
AcDbEntity
8
INTERIOR_PROFILES
100
AcDbCircle
10
-837.89999999999986
20
69.345182468660767
30
0
40
1.6500000000000625
210
0
220
0
230
-1
0
CIRCLE
5
336
100
AcDbEntity
8
INTERIOR_PROFILES
100
AcDbCircle
10
-11.899999999999977
20
69.345182468660767
30
0
40
1.6500000000000625
210
0
220
0
230
-1
0
CIRCLE
5
337
100
AcDbEntity
8
INTERIOR_PROFILES
100
AcDbCircle
10
-829.47142857142853
20
11.971582874040365
30
0
40
1.25
210
0
220
0
230
-1
0
CIRCLE
5
338
100
AcDbEntity
8
INTERIOR_PROFILES
100
AcDbCircle
10
-11.900000000000048
20
37.345182468660809
30
0
40
1.6500000000000625
210
0
220
0
230
-1
0
CIRCLE
5
339
100
AcDbEntity
8
INTERIOR_PROFILES
100
AcDbCircle
10
-837.89999999999986
20
101.34518246866082
30
0
40
1.6500000000000625
210
0
220
0
230
-1
0
CIRCLE
5
340
100
AcDbEntity
8
INTERIOR_PROFILES
100
AcDbCircle
10
-424.89999999999998
20
11.971582874040365
30
0
40
1.25
210
0
220
0
230
-1
0
CIRCLE
5
341
100
AcDbEntity
8
INTERIOR_PROFILES
100
AcDbCircle
10
-873.989159114637
20
121.43434158329804
30
0
40
1.6500000000000625
210
0
220
0
230
-1
0
CIRCLE
5
342
100
AcDbEntity
8
INTERIOR_PROFILES
100
AcDbCircle
10
-222.61428571428581
20
11.971582874040365
30
0
40
1.25
210
0
220
0
230
-1
0
ENDSEC
0
SECTION
2
OBJECTS
0
DICTIONARY
5
C
100
AcDbDictionary
3
ACAD_GROUP
350
D
3
ACAD_MLINESTYLE
350
17
0
DICTIONARY
5
D
100
AcDbDictionary
0
DICTIONARY
5
1A
330
C
100
AcDbDictionary
0
DICTIONARY
5
17
100
AcDbDictionary
0
ENDSEC
0
EOF
