0
SECTION
2
HEADER
9
$INSUNITS
70
4
9
$ACADVER
1
AC1014
9
$HANDSEED
5
FFFF
0
ENDSEC
0
SECTION
2
TABLES
0
TABLE
2
VPORT
5
8
100
AcDbSymbolTable
0
ENDTAB
0
TABLE
2
LTYPE
5
5
100
AcDbSymbolTable
0
LTYPE
5
14
100
AcDbSymbolTableRecord
100
AcDbLinetypeTableRecord
2
BYBLOCK
70
0
0
LTYPE
5
15
100
AcDbSymbolTableRecord
100
AcDbLinetypeTableRecord
2
BYLAYER
70
0
0
LTYPE
5
16
100
AcDbSymbolTableRecord
100
AcDbLinetypeTableRecord
2
DASHED
70
0
3
Dashed __ __ __ __ __ __ __ __ __ __ __ __ __ _
72
65
73
2
40
0.75
49
0.5
74
0
49
-0.25
74
0
0
ENDTAB
0
TABLE
2
LAYER
5
2
100
AcDbSymbolTable
70
2
0
LAYER
5
50
100
AcDbSymbolTableRecord
100
AcDbLayerTableRecord
2
0
70
0
62
7
6
CONTINUOUS
0
ENDTAB
0
TABLE
2
STYLE
5
3
100
AcDbSymbolTable
70
1
0
STYLE
5
11
100
AcDbSymbolTableRecord
100
AcDbTextStyleTableRecord
2
STANDARD
70
0
0
ENDTAB
0
TABLE
2
VIEW
5
6
100
AcDbSymbolTable
70
0
0
ENDTAB
0
TABLE
2
UCS
5
7
100
AcDbSymbolTable
70
0
0
ENDTAB
0
TABLE
2
APPID
5
9
100
AcDbSymbolTable
70
2
0
APPID
5
12
100
AcDbSymbolTableRecord
100
AcDbRegAppTableRecord
2
ACAD
70
0
0
ENDTAB
0
TABLE
2
DIMSTYLE
5
A
100
AcDbSymbolTable
70
1
0
ENDTAB
0
TABLE
2
BLOCK_RECORD
5
1
100
AcDbSymbolTable
70
1
0
BLOCK_RECORD
5
1F
100
AcDbSymbolTableRecord
100
AcDbBlockTableRecord
2
*MODEL_SPACE
0
BLOCK_RECORD
5
1B
100
AcDbSymbolTableRecord
100
AcDbBlockTableRecord
2
*PAPER_SPACE
0
ENDTAB
0
ENDSEC
0
SECTION
2
BLOCKS
0
BLOCK
5
20
100
AcDbEntity
100
AcDbBlockBegin
2
*MODEL_SPACE
0
ENDBLK
5
21
100
AcDbEntity
100
AcDbBlockEnd
0
BLOCK
5
1C
100
AcDbEntity
100
AcDbBlockBegin
2
*PAPER_SPACE
0
ENDBLK
5
1D
100
AcDbEntity
100
AcDbBlockEnd
0
ENDSEC
0
SECTION
2
ENTITIES
0
LWPOLYLINE
5
100
100
AcDbEntity
8
OUTER_PROFILES
100
AcDbPolyline
90
4
70
1
43
0.0
10
0
20
0
10
0
20
444.69588731085986
10
849.80000000000007
20
444.69588731085986
10
849.80000000000007
20
0
0
LWPOLYLINE
5
101
100
AcDbEntity
8
INTERIOR_PROFILES
100
AcDbPolyline
90
4
70
1
43
0.0
10
448.47142857142853
20
151.00476616917052
42
-0.99999999999999989
10
448.47142857142853
20
157.40476616917056
10
502.47142857142865
20
157.40476616917053
42
-0.99999999999999989
10
502.47142857142865
20
151.00476616917047
0
LWPOLYLINE
5
102
100
AcDbEntity
8
INTERIOR_PROFILES
100
AcDbPolyline
90
8
70
1
43
0.0
10
802.20357142857142
20
383.5951238217998
42
-0.4142135623730881
10
805.20357142857142
20
380.5951238217998
10
805.20357142857154
20
301.09512382179969
42
-0.41421356237309853
10
802.20357142857154
20
298.09512382179975
10
654.45357142857142
20
298.09512382179975
42
-0.41421356237309509
10
651.45357142857154
20
301.09512382179969
10
651.45357142857154
20
380.5951238217998
42
-0.41421356237309509
10
654.45357142857142
20
383.5951238217998
0
LWPOLYLINE
5
103
100
AcDbEntity
8
INTERIOR_PROFILES
100
AcDbPolyline
90
4
70
1
43
0.0
10
436.29642857142863
20
24.749052206453968
10
514.64642857142871
20
24.749052206453968
10
514.64642857142871
20
140.79913174891075
10
436.29642857142863
20
140.79913174891075
0
LWPOLYLINE
5
104
100
AcDbEntity
8
INTERIOR_PROFILES
100
AcDbPolyline
90
4
70
1
43
0.0
10
650.75714285714287
20
151.00476616917049
10
704.75714285714287
20
151.00476616917049
42
0.99999999999999989
10
704.75714285714287
20
157.4047661691705
10
650.75714285714287
20
157.40476616917036
42
0.99999999999999989
0
LWPOLYLINE
5
105
100
AcDbEntity
8
INTERIOR_PROFILES
100
AcDbPolyline
90
4
70
1
43
0.0
10
246.18571428571437
20
151.00476616917049
10
300.18571428571443
20
151.00476616917055
42
0.99999999999999989
10
300.18571428571425
20
157.40476616917053
10
246.1857142857142
20
157.4047661691705
42
0.99999999999999989
0
LWPOLYLINE
5
106
100
AcDbEntity
8
INTERIOR_PROFILES
100
AcDbPolyline
90
4
70
1
43
0.0
10
413.50357142857149
20
140.79913174891075
10
335.15357142857158
20
140.79913174891075
10
335.15357142857158
20
24.749052206453968
10
413.50357142857149
20
24.749052206453968
0
CIRCLE
5
107
100
AcDbEntity
8
INTERIOR_PROFILES
100
AcDbCircle
10
-424.90000000000009
20
6.4554205297536527
30
0
40
2.2500000000000142
210
0
220
0
230
-1
0
LWPOLYLINE
5
108
100
AcDbEntity
8
INTERIOR_PROFILES
100
AcDbPolyline
90
8
70
1
43
0.0
10
390.51428571428585
20
383.5951238217998
10
54.714285714285751
20
383.59512382179969
42
0.41421356237310197
10
51.714285714285637
20
380.5951238217998
10
51.714285714285602
20
195.49512382179984
42
0.4142135623730534
10
54.714285714285751
20
192.49512382179984
10
390.51428571428585
20
192.49512382179984
42
0.41421356237308465
10
393.51428571428585
20
195.49512382179984
10
393.51428571428585
20
380.5951238217998
42
0.41421356237308121
0
CIRCLE
5
109
100
AcDbEntity
8
INTERIOR_PROFILES
100
AcDbCircle
10
-829.47142857142865
20
432.72430443681969
30
0
40
2.2499999999999432
210
0
220
0
230
-1
0
LWPOLYLINE
5
110
100
AcDbEntity
8
INTERIOR_PROFILES
100
AcDbPolyline
90
4
70
1
43
0.0
10
502.47142857142865
20
325.15083778451634
10
448.47142857142842
20
325.15083778451634
42
0.99999999999999989
10
448.47142857142853
20
318.75083778451676
10
502.47142857142876
20
318.75083778451676
42
0.99999999999999989
0
LWPOLYLINE
5
111
100
AcDbEntity
8
INTERIOR_PROFILES
100
AcDbPolyline
90
4
70
1
43
0.0
10
132.86785714285713
20
140.79913174891075
10
132.86785714285713
20
24.749052206453968
10
211.21785714285707
20
24.749052206453968
10
211.21785714285707
20
140.79913174891075
0
LWPOLYLINE
5
112
100
AcDbEntity
8
INTERIOR_PROFILES
100
AcDbPolyline
90
4
70
1
43
0.0
10
716.93214285714294
20
140.79913174891075
10
638.58214285714291
20
140.79913174891075
10
638.58214285714291
20
24.749052206453968
10
716.93214285714294
20
24.749052206453968
0
CIRCLE
5
113
100
AcDbEntity
8
INTERIOR_PROFILES
100
AcDbCircle
10
-526.0428571428572
20
6.4554205297536527
30
0
40
2.2500000000000142
210
0
220
0
230
-1
0
LWPOLYLINE
5
114
100
AcDbEntity
8
INTERIOR_PROFILES
100
AcDbPolyline
90
4
70
1
43
0.0
10
97.900000000000063
20
157.40476616917053
42
-0.99999999999999989
10
97.900000000000063
20
151.00476616917061
10
43.900000000000148
20
151.00476616917041
42
-0.99999999999999989
10
43.900000000000148
20
157.40476616917056
0
LWPOLYLINE
5
115
100
AcDbEntity
8
INTERIOR_PROFILES
100
AcDbPolyline
90
4
70
1
43
0.0
10
234.01071428571427
20
140.79913174891075
10
234.01071428571427
20
24.749052206453968
10
312.36071428571421
20
24.749052206453968
10
312.36071428571421
20
140.79913174891075
0
LWPOLYLINE
5
116
100
AcDbEntity
8
INTERIOR_PROFILES
100
AcDbPolyline
90
4
70
1
43
0.0
10
436.29642857142863
20
308.54520336425657
10
436.29642857142863
20
192.49512382179984
10
514.64642857142871
20
192.49512382179984
10
514.64642857142871
20
308.54520336425657
0
LWPOLYLINE
5
117
100
AcDbEntity
8
INTERIOR_PROFILES
100
AcDbPolyline
90
4
70
1
43
0.0
10
603.61428571428576
20
157.4047661691705
10
549.61428571428576
20
157.4047661691705
42
0.99999999999999989
10
549.61428571428576
20
151.00476616917049
10
603.61428571428576
20
151.00476616917049
42
0.99999999999999989
0
CIRCLE
5
118
100
AcDbEntity
8
INTERIOR_PROFILES
100
AcDbCircle
10
-728.32857142857154
20
6.4554205297536527
30
0
40
2.2499999999999432
210
0
220
0
230
-1
0
LWPOLYLINE
5
119
100
AcDbEntity
8
INTERIOR_PROFILES
100
AcDbPolyline
90
4
70
1
43
0.0
10
199.0428571428572
20
157.40476616917064
42
-0.99999999999999989
10
199.0428571428572
20
151.00476616917049
10
145.04285714285729
20
151.00476616917052
42
-0.99999999999999989
10
145.04285714285729
20
157.40476616917044
0
LWPOLYLINE
5
120
100
AcDbEntity
8
INTERIOR_PROFILES
100
AcDbPolyline
90
4
70
1
43
0.0
10
347.32857142857148
20
151.00476616917049
10
401.32857142857148
20
151.00476616917049
42
0.99999999999999989
10
401.32857142857148
20
157.4047661691705
10
347.32857142857137
20
157.4047661691705
42
0.99999999999999989
0
LWPOLYLINE
5
121
100
AcDbEntity
8
INTERIOR_PROFILES
100
AcDbPolyline
90
4
70
1
43
0.0
10
603.61428571428576
20
325.15083778451634
10
549.61428571428587
20
325.15083778451634
42
0.99999999999999989
10
549.61428571428587
20
318.75083778451631
10
603.6142857142861
20
318.75083778451602
42
0.99999999999999989
0
LWPOLYLINE
5
122
100
AcDbEntity
8
INTERIOR_PROFILES
100
AcDbPolyline
90
4
70
1
43
0.0
10
751.90000000000009
20
151.00476616917049
42
-0.99999999999999989
10
751.90000000000009
20
157.4047661691705
10
805.90000000000009
20
157.40476616917053
42
-0.99999999999999989
10
805.90000000000009
20
151.00476616917047
0
CIRCLE
5
123
100
AcDbEntity
8
INTERIOR_PROFILES
100
AcDbCircle
10
-222.61428571428576
20
6.4554205297536527
30
0
40
2.2500000000000142
210
0
220
0
230
-1
0
LWPOLYLINE
5
124
100
AcDbEntity
8
INTERIOR_PROFILES
100
AcDbPolyline
90
4
70
1
43
0.0
10
615.78928571428582
20
140.79913174891075
10
537.4392857142858
20
140.79913174891075
10
537.4392857142858
20
24.749052206453968
10
615.78928571428582
20
24.749052206453968
0
LWPOLYLINE
5
125
100
AcDbEntity
8
INTERIOR_PROFILES
100
AcDbPolyline
90
4
70
1
43
0.0
10
739.72500000000014
20
140.79913174891075
10
739.72500000000014
20
24.749052206453968
10
818.07500000000005
20
24.749052206453968
10
818.07500000000005
20
140.79913174891075
0
CIRCLE
5
126
100
AcDbEntity
8
INTERIOR_PROFILES
100
AcDbCircle
10
-20.328571428571394
20
432.72430443681969
30
0
40
2.2499999999999432
210
0
220
0
230
-1
0
CIRCLE
5
127
100
AcDbEntity
8
INTERIOR_PROFILES
100
AcDbCircle
10
-121.47142857142867
20
432.72430443681969
30
0
40
2.2499999999999432
210
0
220
0
230
-1
0
CIRCLE
5
128
100
AcDbEntity
8
INTERIOR_PROFILES
100
AcDbCircle
10
-728.32857142857154
20
432.72430443681969
30
0
40
2.2499999999999432
210
0
220
0
230
-1
0
CIRCLE
5
129
100
AcDbEntity
8
INTERIOR_PROFILES
100
AcDbCircle
10
-323.75714285714298
20
6.4554205297536527
30
0
40
2.2500000000000142
210
0
220
0
230
-1
0
CIRCLE
5
130
100
AcDbEntity
8
INTERIOR_PROFILES
100
AcDbCircle
10
-222.61428571428567
20
432.72430443681969
30
0
40
2.2500000000000142
210
0
220
0
230
-1
0
LWPOLYLINE
5
131
100
AcDbEntity
8
INTERIOR_PROFILES
100
AcDbPolyline
90
4
70
1
43
0.0
10
31.724999999999994
20
24.749052206453968
10
110.07499999999993
20
24.749052206453968
10
110.07499999999993
20
140.79913174891075
10
31.724999999999994
20
140.79913174891075
0
CIRCLE
5
132
100
AcDbEntity
8
INTERIOR_PROFILES
100
AcDbCircle
10
-627.18571428571431
20
432.72430443681969
30
0
40
2.2500000000000142
210
0
220
0
230
-1
0
CIRCLE
5
133
100
AcDbEntity
8
INTERIOR_PROFILES
100
AcDbCircle
10
-728.32857142857154
20
241.7549449954852
30
0
40
33.700000000000045
210
0
220
0
230
-1
0
CIRCLE
5
134
100
AcDbEntity
8
INTERIOR_PROFILES
100
AcDbCircle
10
-526.0428571428572
20
432.72430443681969
30
0
40
2.2500000000000142
210
0
220
0
230
-1
0
CIRCLE
5
135
100
AcDbEntity
8
INTERIOR_PROFILES
100
AcDbCircle
10
-323.75714285714298
20
432.72430443681969
30
0
40
2.2500000000000142
210
0
220
0
230
-1
0
LWPOLYLINE
5
136
100
AcDbEntity
8
INTERIOR_PROFILES
100
AcDbPolyline
90
4
70
1
43
0.0
10
537.4392857142858
20
308.54520336425657
10
537.4392857142858
20
192.49512382179984
10
615.78928571428582
20
192.49512382179984
10
615.78928571428582
20
308.54520336425657
0
CIRCLE
5
137
100
AcDbEntity
8
INTERIOR_PROFILES
100
AcDbCircle
10
-121.47142857142867
20
6.4554205297536527
30
0
40
2.2499999999999432
210
0
220
0
230
-1
0
CIRCLE
5
138
100
AcDbEntity
8
INTERIOR_PROFILES
100
AcDbCircle
10
-627.18571428571431
20
6.4554205297536527
30
0
40
2.2500000000000142
210
0
220
0
230
-1
0
CIRCLE
5
139
100
AcDbEntity
8
INTERIOR_PROFILES
100
AcDbCircle
10
-20.328571428571536
20
6.4554205297536527
30
0
40
2.2499999999999432
210
0
220
0
230
-1
0
CIRCLE
5
140
100
AcDbEntity
8
INTERIOR_PROFILES
100
AcDbCircle
10
-829.47142857142865
20
6.4554205297536527
30
0
40
2.2499999999999432
210
0
220
0
230
-1
0
CIRCLE
5
141
100
AcDbEntity
8
INTERIOR_PROFILES
100
AcDbCircle
10
-424.90000000000003
20
432.72430443681969
30
0
40
2.2500000000000142
210
0
220
0
230
-1
0
ENDSEC
0
SECTION
2
OBJECTS
0
DICTIONARY
5
C
100
AcDbDictionary
3
ACAD_GROUP
350
D
3
ACAD_MLINESTYLE
350
17
0
DICTIONARY
5
D
100
AcDbDictionary
0
DICTIONARY
5
1A
330
C
100
AcDbDictionary
0
DICTIONARY
5
17
100
AcDbDictionary
0
ENDSEC
0
EOF
