0
SECTION
2
HEADER
9
$INSUNITS
70
4
9
$ACADVER
1
AC1014
9
$HANDSEED
5
FFFF
0
ENDSEC
0
SECTION
2
TABLES
0
TABLE
2
VPORT
5
8
100
AcDbSymbolTable
0
ENDTAB
0
TABLE
2
LTYPE
5
5
100
AcDbSymbolTable
0
LTYPE
5
14
100
AcDbSymbolTableRecord
100
AcDbLinetypeTableRecord
2
BYBLOCK
70
0
0
LTYPE
5
15
100
AcDbSymbolTableRecord
100
AcDbLinetypeTableRecord
2
BYLAYER
70
0
0
LTYPE
5
16
100
AcDbSymbolTableRecord
100
AcDbLinetypeTableRecord
2
DASHED
70
0
3
Dashed __ __ __ __ __ __ __ __ __ __ __ __ __ _
72
65
73
2
40
0.75
49
0.5
74
0
49
-0.25
74
0
0
ENDTAB
0
TABLE
2
LAYER
5
2
100
AcDbSymbolTable
70
2
0
LAYER
5
50
100
AcDbSymbolTableRecord
100
AcDbLayerTableRecord
2
0
70
0
62
7
6
CONTINUOUS
0
ENDTAB
0
TABLE
2
STYLE
5
3
100
AcDbSymbolTable
70
1
0
STYLE
5
11
100
AcDbSymbolTableRecord
100
AcDbTextStyleTableRecord
2
STANDARD
70
0
0
ENDTAB
0
TABLE
2
VIEW
5
6
100
AcDbSymbolTable
70
0
0
ENDTAB
0
TABLE
2
UCS
5
7
100
AcDbSymbolTable
70
0
0
ENDTAB
0
TABLE
2
APPID
5
9
100
AcDbSymbolTable
70
2
0
APPID
5
12
100
AcDbSymbolTableRecord
100
AcDbRegAppTableRecord
2
ACAD
70
0
0
ENDTAB
0
TABLE
2
DIMSTYLE
5
A
100
AcDbSymbolTable
70
1
0
ENDTAB
0
TABLE
2
BLOCK_RECORD
5
1
100
AcDbSymbolTable
70
1
0
BLOCK_RECORD
5
1F
100
AcDbSymbolTableRecord
100
AcDbBlockTableRecord
2
*MODEL_SPACE
0
BLOCK_RECORD
5
1B
100
AcDbSymbolTableRecord
100
AcDbBlockTableRecord
2
*PAPER_SPACE
0
ENDTAB
0
ENDSEC
0
SECTION
2
BLOCKS
0
BLOCK
5
20
100
AcDbEntity
100
AcDbBlockBegin
2
*MODEL_SPACE
0
ENDBLK
5
21
100
AcDbEntity
100
AcDbBlockEnd
0
BLOCK
5
1C
100
AcDbEntity
100
AcDbBlockBegin
2
*PAPER_SPACE
0
ENDBLK
5
1D
100
AcDbEntity
100
AcDbBlockEnd
0
ENDSEC
0
SECTION
2
ENTITIES
0
LWPOLYLINE
5
100
100
AcDbEntity
8
OUTER_PROFILES
100
AcDbPolyline
90
44
70
1
43
0.0
10
-0.98915911463719031
20
513.75076787476576
10
-0.98915911463719142
20
514.29999914854307
10
-0.98915911463720141
20
538.61828054153921
10
0.99999745782980654
20
538.61828054153921
10
846.82168431289733
20
538.61828054153921
10
848.81084088536284
20
538.61828054153921
10
848.81084088536284
20
514.29999926946903
10
848.81084088536284
20
513.75076787476564
10
847.82168177072549
20
510.70727877720867
10
847.82168177072549
20
429.27309807287838
10
844.82168177072549
20
425.09477984360393
10
849
20
426.59477984360393
10
930.66145343160304
20
426.59477984360399
42
-0.29410761505741068
10
932.48218638652816
20
425.42238573220629
10
942.66930450150369
20
403.01072587926024
10
944.21692751319017
20
403.71419088457225
10
944.36749466147216
20
403.38294315835157
42
-0.1626014478534315
10
944.47958615200241
20
402.31158173945005
10
943.9903449680653
20
400.10443685282473
10
944.19689908305577
20
399.65001779984573
10
857.94463941808067
20
10.534709993083096
42
-0.18073183902967874
10
856.80118554001967
20
8.7730980728783496
10
849
20
8.7730980728783585
10
844.82168177072549
20
10.273098072878359
10
847.82168177072549
20
6.0947798436039342
10
847.82168177072549
20
0
10
0
20
0
10
0
20
6.0947798436039342
10
2.9999999999999991
20
10.273098072878359
10
-1.1783182292744248
20
8.7730980728783585
10
-8.9795037692940163
20
8.7730980728783585
42
-0.18073183902966405
10
-10.122957647355076
20
10.534709993083094
10
-96.375217312330165
20
399.65001779984573
10
-96.168663197339669
20
400.10443685282473
10
-96.657904381276737
20
402.31158173944999
42
-0.16260144785334102
10
-96.545812890746618
20
403.38294315835157
10
-96.395245742464525
20
403.71419088457225
10
-94.847622730778113
20
403.01072587926024
10
-84.660504615802594
20
425.42238573220629
42
-0.29410761505739752
10
-82.839771660877389
20
426.59477984360393
10
-1.1783182292744243
20
426.59477984360393
10
2.9999999999999991
20
425.09477984360393
10
0
20
429.27309807287838
10
0
20
510.70727877720867
0
LWPOLYLINE
5
101
100
AcDbEntity
8
INTERIOR_PROFILES
100
AcDbPolyline
90
4
70
1
43
0.0
10
858.91084088536309
20
296.18393895824119
42
-0.99999999999999989
10
862.91084088536286
20
296.18393895824119
10
862.91084088536297
20
260.18393895824119
42
-0.99999999999999989
10
858.91084088536286
20
260.18393895824119
0
LWPOLYLINE
5
102
100
AcDbEntity
8
INTERIOR_PROFILES
100
AcDbPolyline
90
4
70
1
43
0.0
10
898.91084088536309
20
320.18393895824101
42
-0.99999999999999989
10
902.91084088536286
20
320.18393895824124
10
902.91084088536297
20
284.18393895824119
42
-0.99999999999999989
10
898.91084088536286
20
284.18393895824119
0
CIRCLE
5
103
100
AcDbEntity
8
INTERIOR_PROFILES
100
AcDbCircle
10
-504.62154088536272
20
472.18393895824124
30
0
40
9.9000000000000199
210
0
220
0
230
-1
0
CIRCLE
5
104
100
AcDbEntity
8
INTERIOR_PROFILES
100
AcDbCircle
10
-631.49654088536272
20
472.18393895824124
30
0
40
1.7999999999999972
210
0
220
0
230
-1
0
CIRCLE
5
105
100
AcDbEntity
8
INTERIOR_PROFILES
100
AcDbCircle
10
-420.69655517107697
20
472.18393895824124
30
0
40
3.2500000000000284
210
0
220
0
230
-1
0
LWPOLYLINE
5
106
100
AcDbEntity
8
INTERIOR_PROFILES
100
AcDbPolyline
90
4
70
1
43
0.0
10
882.91084088536297
20
320.18393895824119
10
882.91084088536286
20
284.18393895824096
42
0.99999999999999989
10
886.91084088536263
20
284.18393895824119
10
886.91084088536297
20
320.18393895824136
42
0.99999999999999989
0
LWPOLYLINE
5
107
100
AcDbEntity
8
INTERIOR_PROFILES
100
AcDbPolyline
90
8
70
1
43
0.0
10
754.90004088536284
20
483.58393895824128
42
-0.19285899999997652
10
761.4215408853629
20
477.06243895824122
10
761.4215408853629
20
467.30543895824127
42
-0.19285899999997513
10
754.90004088536284
20
460.78393895824127
10
745.14304088536278
20
460.78393895824138
42
-0.19285899999997613
10
738.62154088536272
20
467.30543895824127
10
738.62154088536272
20
477.06243895824122
42
-0.19285899999997747
10
745.14304088536278
20
483.58393895824122
0
CIRCLE
5
108
100
AcDbEntity
8
INTERIOR_PROFILES
100
AcDbCircle
10
-663.32154088536288
20
472.18393895824124
30
0
40
12.099999999999937
210
0
220
0
230
-1
0
LWPOLYLINE
5
109
100
AcDbEntity
8
INTERIOR_PROFILES
100
AcDbPolyline
90
4
70
1
43
0.0
10
906.91084088536275
20
378.18393895824113
42
-0.99999999999999989
10
910.91084088536275
20
378.18393895824113
10
910.91084088536263
20
356.18393895824119
42
-0.99999999999999989
10
906.91084088536286
20
356.18393895824119
0
LWPOLYLINE
5
110
100
AcDbEntity
8
INTERIOR_PROFILES
100
AcDbPolyline
90
4
70
1
43
0.0
10
393.19655517107697
20
490.18393895824124
10
380.35982047719972
20
490.18393895824124
42
0.99999999999999989
10
380.35982047719938
20
486.18393895824107
10
393.19655517107714
20
486.1839389582409
42
0.99999999999999989
0
LWPOLYLINE
5
111
100
AcDbEntity
8
INTERIOR_PROFILES
100
AcDbPolyline
90
4
70
1
43
0.0
10
195.05369802821988
20
486.18393895824119
42
-0.99999999999999989
10
195.05369802821988
20
490.18393895824124
10
231.05369802821986
20
490.18393895824119
42
-0.99999999999999989
10
231.05369802821986
20
486.18393895824124
0
LWPOLYLINE
5
112
100
AcDbEntity
8
INTERIOR_PROFILES
100
AcDbPolyline
90
4
70
1
43
0.0
10
357.19655517107697
20
494.1839389582413
42
-0.99999999999999989
10
357.19655517107697
20
498.18393895824124
10
393.19655517107697
20
498.1839389582413
42
-0.99999999999999989
10
393.19655517107697
20
494.18393895824124
0
CIRCLE
5
113
100
AcDbEntity
8
INTERIOR_PROFILES
100
AcDbCircle
10
-609.29654088536279
20
472.18393895824124
30
0
40
1.7999999999999972
210
0
220
0
230
-1
0
LWPOLYLINE
5
114
100
AcDbEntity
8
INTERIOR_PROFILES
100
AcDbPolyline
90
8
70
1
43
0.0
10
803.34654088536286
20
467.30543895824127
10
803.34654088536297
20
477.06243895824122
42
0.19285899999999936
10
796.8250408853628
20
483.58393895824122
10
787.06804088536273
20
483.58393895824122
42
0.19285899999999429
10
780.54654088536279
20
477.06243895824122
10
780.54654088536279
20
467.30543895824127
42
0.19285899999999129
10
787.06804088536273
20
460.78393895824127
10
796.8250408853628
20
460.78393895824121
42
0.19285899999999695
0
CIRCLE
5
115
100
AcDbEntity
8
INTERIOR_PROFILES
100
AcDbCircle
10
-626.19655517107708
20
3.6393593293801674
30
0
40
1.25
210
0
220
0
230
-1
0
CIRCLE
5
116
100
AcDbEntity
8
INTERIOR_PROFILES
100
AcDbCircle
10
-423.91084088536275
20
3.6393593293801674
30
0
40
1.25
210
0
220
0
230
-1
0
LWPOLYLINE
5
117
100
AcDbEntity
8
INTERIOR_PROFILES
100
AcDbPolyline
90
4
70
1
43
0.0
10
862.91084088536297
20
356.18393895824119
42
-0.99999999999999989
10
858.91084088536286
20
356.18393895824119
10
858.91084088536275
20
378.18393895824113
42
-0.99999999999999989
10
862.91084088536286
20
378.18393895824113
0
LWPOLYLINE
5
118
100
AcDbEntity
8
INTERIOR_PROFILES
100
AcDbPolyline
90
4
70
1
43
0.0
10
870.91084088536263
20
284.18393895824119
42
-0.99999999999999989
10
866.91084088536286
20
284.18393895824119
10
866.91084088536275
20
320.18393895824119
42
-0.99999999999999989
10
870.91084088536275
20
320.18393895824119
0
LWPOLYLINE
5
119
100
AcDbEntity
8
INTERIOR_PROFILES
100
AcDbPolyline
90
4
70
1
43
0.0
10
254.2169633343423
20
482.1839389582413
10
218.21696333434227
20
482.1839389582413
42
0.99999999999999989
10
218.21696333434232
20
478.18393895824124
10
254.21696333434224
20
478.18393895824124
42
0.99999999999999989
0
LWPOLYLINE
5
120
100
AcDbEntity
8
INTERIOR_PROFILES
100
AcDbPolyline
90
4
70
1
43
0.0
10
914.91084088536286
20
368.18393895824113
10
914.91084088536286
20
335.00212077642283
42
0.99999999999999989
10
918.91084088536263
20
335.00212077642294
10
918.91084088536263
20
368.18393895824158
42
0.99999999999999989
0
LWPOLYLINE
5
121
100
AcDbEntity
8
INTERIOR_PROFILES
100
AcDbPolyline
90
4
70
1
43
0.0
10
858.91084088536286
20
344.18393895824119
10
858.91084088536286
20
308.18393895824113
42
0.99999999999999989
10
862.91084088536297
20
308.18393895824113
10
862.91084088536297
20
344.18393895824119
42
0.99999999999999989
0
CIRCLE
5
122
100
AcDbEntity
8
INTERIOR_PROFILES
100
AcDbCircle
10
-461.39654088536275
20
472.18393895824124
30
0
40
12.100000000000009
210
0
220
0
230
-1
0
LWPOLYLINE
5
123
100
AcDbEntity
8
INTERIOR_PROFILES
100
AcDbPolyline
90
4
70
1
43
0.0
10
866.91084088536275
20
368.18393895824113
42
-0.99999999999999989
10
870.91084088536275
20
368.18393895824113
10
870.91084088536263
20
332.18393895824113
42
-0.99999999999999989
10
866.91084088536286
20
332.18393895824113
0
LWPOLYLINE
5
124
100
AcDbEntity
8
INTERIOR_PROFILES
100
AcDbPolyline
90
4
70
1
43
0.0
10
32.910840885362788
20
486.18393895824136
42
-0.99999999999999989
10
32.910840885362788
20
490.18393895824124
10
45.74757557924034
20
490.18393895824119
42
-0.99999999999999989
10
45.74757557924034
20
486.18393895824124
0
LWPOLYLINE
5
125
100
AcDbEntity
8
INTERIOR_PROFILES
100
AcDbPolyline
90
4
70
1
43
0.0
10
894.91084088536286
20
356.18393895824119
42
-0.99999999999999989
10
890.91084088536275
20
356.18393895824119
10
890.91084088536286
20
378.18393895824113
42
-0.99999999999999989
10
894.91084088536286
20
378.18393895824113
0
LWPOLYLINE
5
126
100
AcDbEntity
8
INTERIOR_PROFILES
100
AcDbPolyline
90
4
70
1
43
0.0
10
890.91084088536275
20
344.18393895824119
10
890.91084088536275
20
308.18393895824107
42
0.99999999999999989
10
894.91084088536286
20
308.18393895824113
10
894.91084088536286
20
344.18393895824119
42
0.99999999999999989
0
CIRCLE
5
127
100
AcDbEntity
8
INTERIOR_PROFILES
100
AcDbCircle
10
-727.33941231393419
20
3.6393593293801674
30
0
40
1.25
210
0
220
0
230
-1
0
LWPOLYLINE
5
128
100
AcDbEntity
8
INTERIOR_PROFILES
100
AcDbPolyline
90
4
70
1
43
0.0
10
171.89043272209742
20
494.18393895824119
42
-0.99999999999999989
10
171.89043272209742
20
498.18393895824124
10
207.89043272209739
20
498.18393895824147
42
-0.99999999999999989
10
207.89043272209739
20
494.18393895824124
0
LWPOLYLINE
5
129
100
AcDbEntity
8
INTERIOR_PROFILES
100
AcDbPolyline
90
4
70
1
43
0.0
10
878.91084088536286
20
260.18393895824119
10
878.91084088536275
20
296.18393895824147
42
0.99999999999999989
10
874.91084088536263
20
296.18393895824119
10
874.91084088536286
20
260.18393895824119
42
0.99999999999999989
0
LWPOLYLINE
5
130
100
AcDbEntity
8
INTERIOR_PROFILES
100
AcDbPolyline
90
4
70
1
43
0.0
10
906.91084088536275
20
344.18393895824119
42
-0.99999999999999989
10
910.91084088536275
20
344.18393895824119
10
910.91084088536263
20
308.18393895824113
42
-0.99999999999999989
10
906.91084088536286
20
308.18393895824113
0
LWPOLYLINE
5
131
100
AcDbEntity
8
INTERIOR_PROFILES
100
AcDbPolyline
90
4
70
1
43
0.0
10
874.91084088536286
20
344.18393895824119
10
874.91084088536286
20
308.18393895824107
42
0.99999999999999989
10
878.91084088536286
20
308.18393895824113
10
878.91084088536286
20
344.18393895824119
42
0.99999999999999989
0
CIRCLE
5
132
100
AcDbEntity
8
INTERIOR_PROFILES
100
AcDbCircle
10
-525.05369802821986
20
3.6393593293801674
30
0
40
1.25
210
0
220
0
230
-1
0
CIRCLE
5
133
100
AcDbEntity
8
INTERIOR_PROFILES
100
AcDbCircle
10
-697.64655517107701
20
460.18393895824124
30
0
40
1.8000000000000682
210
0
220
0
230
-1
0
LWPOLYLINE
5
134
100
AcDbEntity
8
INTERIOR_PROFILES
100
AcDbPolyline
90
4
70
1
43
0.0
10
878.91084088536286
20
356.18393895824119
42
-0.99999999999999989
10
874.91084088536286
20
356.18393895824119
10
874.91084088536309
20
378.18393895824113
42
-0.99999999999999989
10
878.91084088536286
20
378.18393895824113
0
CIRCLE
5
135
100
AcDbEntity
8
INTERIOR_PROFILES
100
AcDbCircle
10
-221.6251265996485
20
3.6393593293801674
30
0
40
1.25
210
0
220
0
230
-1
0
LWPOLYLINE
5
136
100
AcDbEntity
8
INTERIOR_PROFILES
100
AcDbPolyline
90
4
70
1
43
0.0
10
882.91084088536286
20
368.18393895824113
42
-0.99999999999999989
10
886.91084088536286
20
368.18393895824113
10
886.91084088536263
20
332.18393895824113
42
-0.99999999999999989
10
882.91084088536286
20
332.18393895824113
0
CIRCLE
5
137
100
AcDbEntity
8
INTERIOR_PROFILES
100
AcDbCircle
10
-620.3965408853627
20
472.18393895824124
30
0
40
7.8499999999999659
210
0
220
0
230
-1
0
LWPOLYLINE
5
138
100
AcDbEntity
8
INTERIOR_PROFILES
100
AcDbPolyline
90
4
70
1
43
0.0
10
898.91084088536275
20
368.18393895824113
42
-0.99999999999999989
10
902.91084088536286
20
368.18393895824113
10
902.91084088536263
20
332.18393895824113
42
-0.99999999999999989
10
898.91084088536286
20
332.18393895824113
0
CIRCLE
5
139
100
AcDbEntity
8
INTERIOR_PROFILES
100
AcDbCircle
10
-672.82155517107697
20
484.18393895824124
30
0
40
1.8000000000000682
210
0
220
0
230
-1
0
LWPOLYLINE
5
140
100
AcDbEntity
8
INTERIOR_PROFILES
100
AcDbPolyline
90
4
70
1
43
0.0
10
890.91084088536275
20
296.18393895824119
10
890.91084088536275
20
260.18393895824119
42
0.99999999999999989
10
894.91084088536286
20
260.18393895824119
10
894.91084088536286
20
296.1839389582413
42
0.99999999999999989
0
CIRCLE
5
141
100
AcDbEntity
8
INTERIOR_PROFILES
100
AcDbCircle
10
-707.14654088536281
20
472.18393895824124
30
0
40
12.099999999999937
210
0
220
0
230
-1
0
CIRCLE
5
142
100
AcDbEntity
8
INTERIOR_PROFILES
100
AcDbCircle
10
-470.89654088536281
20
484.18393895824124
30
0
40
1.7999999999999972
210
0
220
0
230
-1
0
CIRCLE
5
143
100
AcDbEntity
8
INTERIOR_PROFILES
100
AcDbCircle
10
-589.47154088536286
20
472.18393895824124
30
0
40
1.7999999999999972
210
0
220
0
230
-1
0
CIRCLE
5
144
100
AcDbEntity
8
INTERIOR_PROFILES
100
AcDbCircle
10
-120.48226945679136
20
3.6393593293801674
30
0
40
1.25
210
0
220
0
230
-1
0
CIRCLE
5
145
100
AcDbEntity
8
INTERIOR_PROFILES
100
AcDbCircle
10
-19.339412313934218
20
3.6393593293801674
30
0
40
1.25
210
0
220
0
230
-1
0
CIRCLE
5
146
100
AcDbEntity
8
INTERIOR_PROFILES
100
AcDbCircle
10
-567.2715408853627
20
472.18393895824124
30
0
40
1.7999999999999972
210
0
220
0
230
-1
0
CIRCLE
5
147
100
AcDbEntity
8
INTERIOR_PROFILES
100
AcDbCircle
10
-716.64655517107701
20
484.18393895824124
30
0
40
1.8000000000000682
210
0
220
0
230
-1
0
CIRCLE
5
148
100
AcDbEntity
8
INTERIOR_PROFILES
100
AcDbCircle
10
-541.6465408853627
20
472.18393895824124
30
0
40
6.25
210
0
220
0
230
-1
0
CIRCLE
5
149
100
AcDbEntity
8
INTERIOR_PROFILES
100
AcDbCircle
10
-578.37154088536272
20
472.18393895824124
30
0
40
7.8499999999999659
210
0
220
0
230
-1
0
CIRCLE
5
150
100
AcDbEntity
8
INTERIOR_PROFILES
100
AcDbCircle
10
-322.76798374250569
20
3.6393593293801674
30
0
40
1.25
210
0
220
0
230
-1
0
CIRCLE
5
151
100
AcDbEntity
8
INTERIOR_PROFILES
100
AcDbCircle
10
-828.4822694567913
20
3.6393593293801674
30
0
40
1.25
210
0
220
0
230
-1
0
CIRCLE
5
152
100
AcDbEntity
8
INTERIOR_PROFILES
100
AcDbCircle
10
-653.82155517107708
20
460.18393895824124
30
0
40
1.8000000000000682
210
0
220
0
230
-1
0
CIRCLE
5
153
100
AcDbEntity
8
INTERIOR_PROFILES
100
AcDbCircle
10
-451.89654088536281
20
460.18393895824124
30
0
40
1.7999999999999972
210
0
220
0
230
-1
0
LWPOLYLINE
5
154
100
AcDbEntity
8
INTERIOR_PROFILES
100
AcDbPolyline
90
4
70
1
43
0.0
10
68.910840885362802
20
450.18393895824124
10
32.910840885362788
20
450.18393895824124
42
0.99999999999999989
10
32.910840885362788
20
446.18393895824136
10
68.910840885362973
20
446.18393895824107
42
0.99999999999999989
0
LWPOLYLINE
5
155
100
AcDbEntity
8
INTERIOR_PROFILES
100
AcDbPolyline
90
4
70
1
43
0.0
10
161.56390210985251
20
450.1839389582409
42
-0.99999999999999989
10
161.56390210985251
20
446.18393895824124
10
125.56390210985256
20
446.18393895824136
42
-0.99999999999999989
10
125.56390210985256
20
450.18393895824124
0
LWPOLYLINE
5
156
100
AcDbEntity
8
INTERIOR_PROFILES
100
AcDbPolyline
90
4
70
1
43
0.0
10
218.21696333434232
20
446.18393895824119
42
-0.99999999999999989
10
218.21696333434232
20
450.18393895824124
10
254.2169633343423
20
450.18393895824101
42
-0.99999999999999989
10
254.2169633343423
20
446.18393895824124
0
LWPOLYLINE
5
157
100
AcDbEntity
8
INTERIOR_PROFILES
100
AcDbPolyline
90
4
70
1
43
0.0
10
346.87002455883209
20
450.1839389582409
42
-0.99999999999999989
10
346.87002455883209
20
446.18393895824124
10
310.87002455883214
20
446.18393895824119
42
-0.99999999999999989
10
310.87002455883214
20
450.18393895824124
0
LWPOLYLINE
5
158
100
AcDbEntity
8
INTERIOR_PROFILES
100
AcDbPolyline
90
4
70
1
43
0.0
10
45.74757557924034
20
458.18393895824124
10
32.910840885362752
20
458.18393895824124
42
0.99999999999999989
10
32.910840885362788
20
454.18393895824119
10
45.747575579240412
20
454.1839389582413
42
0.99999999999999989
0
LWPOLYLINE
5
159
100
AcDbEntity
8
INTERIOR_PROFILES
100
AcDbPolyline
90
4
70
1
43
0.0
10
102.40063680373011
20
454.18393895824124
10
138.40063680372998
20
454.18393895824124
42
0.99999999999999989
10
138.40063680373012
20
458.18393895824147
10
102.40063680373028
20
458.18393895824147
42
0.99999999999999989
0
LWPOLYLINE
5
160
100
AcDbEntity
8
INTERIOR_PROFILES
100
AcDbPolyline
90
4
70
1
43
0.0
10
195.05369802821988
20
454.18393895824119
42
-0.99999999999999989
10
195.05369802821988
20
458.18393895824124
10
231.05369802821986
20
458.18393895824147
42
-0.99999999999999989
10
231.05369802821986
20
454.18393895824124
0
LWPOLYLINE
5
161
100
AcDbEntity
8
INTERIOR_PROFILES
100
AcDbPolyline
90
4
70
1
43
0.0
10
323.70675925270967
20
458.18393895824124
10
287.7067592527095
20
458.18393895824124
42
0.99999999999999989
10
287.70675925270962
20
454.1839389582413
10
323.70675925270967
20
454.18393895824119
42
0.99999999999999989
0
LWPOLYLINE
5
162
100
AcDbEntity
8
INTERIOR_PROFILES
100
AcDbPolyline
90
4
70
1
43
0.0
10
380.35982047719938
20
454.18393895824124
10
393.19655517107685
20
454.18393895824124
42
0.99999999999999989
10
393.19655517107697
20
458.1839389582413
10
380.35982047719955
20
458.18393895824113
42
0.99999999999999989
0
LWPOLYLINE
5
163
100
AcDbEntity
8
INTERIOR_PROFILES
100
AcDbPolyline
90
4
70
1
43
0.0
10
79.237371497607668
20
462.1839389582413
10
115.23737149760765
20
462.1839389582413
42
0.99999999999999989
10
115.23737149760765
20
466.18393895824136
10
79.237371497607555
20
466.18393895824119
42
0.99999999999999989
0
LWPOLYLINE
5
164
100
AcDbEntity
8
INTERIOR_PROFILES
100
AcDbPolyline
90
4
70
1
43
0.0
10
207.89043272209739
20
466.18393895824124
10
171.89043272209756
20
466.18393895824124
42
0.99999999999999989
10
171.89043272209742
20
462.18393895824107
10
207.89043272209733
20
462.18393895824107
42
0.99999999999999989
0
LWPOLYLINE
5
165
100
AcDbEntity
8
INTERIOR_PROFILES
100
AcDbPolyline
90
4
70
1
43
0.0
10
264.5434939465872
20
462.18393895824107
42
-0.99999999999999989
10
264.5434939465872
20
466.18393895824124
10
300.54349394658715
20
466.18393895824119
42
-0.99999999999999989
10
300.54349394658715
20
462.1839389582413
0
LWPOLYLINE
5
166
100
AcDbEntity
8
INTERIOR_PROFILES
100
AcDbPolyline
90
4
70
1
43
0.0
10
393.19655517107697
20
466.18393895824119
42
-0.99999999999999989
10
393.19655517107697
20
462.1839389582413
10
357.19655517107697
20
462.18393895824107
42
-0.99999999999999989
10
357.19655517107697
20
466.18393895824124
0
LWPOLYLINE
5
167
100
AcDbEntity
8
INTERIOR_PROFILES
100
AcDbPolyline
90
4
70
1
43
0.0
10
56.074106191485228
20
470.18393895824124
10
92.074106191485242
20
470.18393895824124
42
0.99999999999999989
10
92.074106191485242
20
474.18393895824119
10
56.074106191485015
20
474.18393895824147
42
0.99999999999999989
0
LWPOLYLINE
5
168
100
AcDbEntity
8
INTERIOR_PROFILES
100
AcDbPolyline
90
4
70
1
43
0.0
10
195.05369802821988
20
470.18393895824124
10
231.0536980282198
20
470.18393895824124
42
0.99999999999999989
10
231.05369802821986
20
474.1839389582413
10
195.0536980282198
20
474.1839389582413
42
0.99999999999999989
0
LWPOLYLINE
5
169
100
AcDbEntity
8
INTERIOR_PROFILES
100
AcDbPolyline
90
4
70
1
43
0.0
10
380.35982047719938
20
470.18393895824158
42
-0.99999999999999989
10
380.35982047719938
20
474.18393895824124
10
393.19655517107697
20
474.18393895824119
42
-0.99999999999999989
10
393.19655517107697
20
470.18393895824124
0
LWPOLYLINE
5
170
100
AcDbEntity
8
INTERIOR_PROFILES
100
AcDbPolyline
90
4
70
1
43
0.0
10
102.40063680373011
20
470.18393895824147
42
-0.99999999999999989
10
102.40063680373011
20
474.18393895824124
10
138.40063680373012
20
474.18393895824119
42
-0.99999999999999989
10
138.40063680373012
20
470.18393895824124
0
CIRCLE
5
171
100
AcDbEntity
8
INTERIOR_PROFILES
100
AcDbCircle
10
-351.15191231393425
20
25.696965441867921
30
0
40
1.7999999999999972
210
0
220
0
230
-1
0
CIRCLE
5
172
100
AcDbEntity
8
INTERIOR_PROFILES
100
AcDbCircle
10
-698.95548374250563
20
25.696965441867921
30
0
40
1.8000000000000682
210
0
220
0
230
-1
0
CIRCLE
5
173
100
AcDbEntity
8
INTERIOR_PROFILES
100
AcDbCircle
10
-597.81262659964864
20
123.06696544186792
30
0
40
1.7999999999999972
210
0
220
0
230
-1
0
CIRCLE
5
174
100
AcDbEntity
8
INTERIOR_PROFILES
100
AcDbCircle
10
-294.38405517107708
20
189.46789941236545
30
0
40
1.7999999999999972
210
0
220
0
230
-1
0
CIRCLE
5
175
100
AcDbEntity
8
INTERIOR_PROFILES
100
AcDbCircle
10
-423.91084088536275
20
157.18083895824117
30
0
40
2.2999999999999687
210
0
220
0
230
-1
0
LWPOLYLINE
5
176
100
AcDbEntity
8
INTERIOR_PROFILES
100
AcDbPolyline
90
4
70
1
43
0.0
10
207.89043272209739
20
482.1839389582413
42
-0.99999999999999989
10
207.89043272209739
20
478.18393895824124
10
171.89043272209742
20
478.18393895824124
42
-0.99999999999999989
10
171.89043272209742
20
482.1839389582413
0
CIRCLE
5
177
100
AcDbEntity
8
INTERIOR_PROFILES
100
AcDbCircle
10
-294.38405517107708
20
123.06696544186792
30
0
40
1.7999999999999972
210
0
220
0
230
-1
0
LWPOLYLINE
5
178
100
AcDbEntity
8
INTERIOR_PROFILES
100
AcDbPolyline
90
4
70
1
43
0.0
10
79.237371497607668
20
478.18393895824124
42
-0.99999999999999989
10
79.237371497607668
20
482.1839389582413
10
115.23737149760765
20
482.18393895824113
42
-0.99999999999999989
10
115.23737149760765
20
478.18393895824124
0
LWPOLYLINE
5
179
100
AcDbEntity
8
INTERIOR_PROFILES
100
AcDbPolyline
90
4
70
1
43
0.0
10
32.910840885362788
20
470.18393895824124
10
45.747575579240305
20
470.18393895824124
42
0.99999999999999989
10
45.74757557924034
20
474.1839389582413
10
32.910840885362575
20
474.18393895824147
42
0.99999999999999989
0
LWPOLYLINE
5
180
100
AcDbEntity
8
INTERIOR_PROFILES
100
AcDbPolyline
90
4
70
1
43
0.0
10
357.19655517107697
20
478.18393895824124
10
393.19655517107697
20
478.18393895824124
42
0.99999999999999989
10
393.19655517107697
20
482.18393895824113
10
357.19655517107697
20
482.1839389582413
42
0.99999999999999989
0
LWPOLYLINE
5
181
100
AcDbEntity
8
INTERIOR_PROFILES
100
AcDbPolyline
90
4
70
1
43
0.0
10
241.38022864046476
20
454.1839389582413
10
277.38022864046474
20
454.1839389582413
42
0.99999999999999989
10
277.38022864046468
20
458.18393895824124
10
241.38022864046468
20
458.18393895824107
42
0.99999999999999989
0
LWPOLYLINE
5
182
100
AcDbEntity
8
INTERIOR_PROFILES
100
AcDbPolyline
90
4
70
1
43
0.0
10
68.910840885362788
20
498.18393895824147
42
-0.99999999999999989
10
68.910840885362788
20
494.18393895824124
10
32.910840885362788
20
494.18393895824119
42
-0.99999999999999989
10
32.910840885362788
20
498.18393895824124
0
LWPOLYLINE
5
183
100
AcDbEntity
8
INTERIOR_PROFILES
100
AcDbPolyline
90
4
70
1
43
0.0
10
300.54349394658715
20
498.18393895824124
10
264.54349394658715
20
498.18393895824124
42
0.99999999999999989
10
264.5434939465872
20
494.18393895824119
10
300.54349394658715
20
494.1839389582413
42
0.99999999999999989
0
LWPOLYLINE
5
184
100
AcDbEntity
8
INTERIOR_PROFILES
100
AcDbPolyline
90
4
70
1
43
0.0
10
310.87002455883214
20
462.18393895824107
42
-0.99999999999999989
10
310.87002455883214
20
466.18393895824124
10
346.87002455883209
20
466.18393895824136
42
-0.99999999999999989
10
346.87002455883209
20
462.1839389582413
0
LWPOLYLINE
5
185
100
AcDbEntity
8
INTERIOR_PROFILES
100
AcDbPolyline
90
4
70
1
43
0.0
10
393.19655517107697
20
450.18393895824119
42
-0.99999999999999989
10
393.19655517107697
20
446.18393895824141
10
357.19655517107697
20
446.18393895824119
42
-0.99999999999999989
10
357.19655517107697
20
450.18393895824124
0
LWPOLYLINE
5
186
100
AcDbEntity
8
INTERIOR_PROFILES
100
AcDbPolyline
90
4
70
1
43
0.0
10
287.70675925270962
20
486.18393895824119
10
323.70675925271007
20
486.18393895824124
42
0.99999999999999989
10
323.70675925270967
20
490.1839389582409
10
287.7067592527095
20
490.18393895824141
42
0.99999999999999989
0
CIRCLE
5
187
100
AcDbEntity
8
INTERIOR_PROFILES
100
AcDbCircle
10
-797.48184088536277
20
244.18393895824119
30
0
40
1.25
210
0
220
0
230
-1
0
CIRCLE
5
188
100
AcDbEntity
8
INTERIOR_PROFILES
100
AcDbCircle
10
-294.38405517107708
20
286.83789941236546
30
0
40
1.7999999999999972
210
0
220
0
230
-1
0
LWPOLYLINE
5
189
100
AcDbEntity
8
INTERIOR_PROFILES
100
AcDbPolyline
90
4
70
1
43
0.0
10
277.38022864046468
20
474.18393895824124
10
241.38022864046448
20
474.18393895824124
42
0.99999999999999989
10
241.38022864046476
20
470.18393895824147
10
277.38022864046462
20
470.18393895824136
42
0.99999999999999989
0
LWPOLYLINE
5
190
100
AcDbEntity
8
INTERIOR_PROFILES
100
AcDbPolyline
90
4
70
1
43
0.0
10
68.910840885362788
20
482.18393895824113
42
-0.99999999999999989
10
68.910840885362788
20
478.18393895824124
10
32.910840885362788
20
478.18393895824136
42
-0.99999999999999989
10
32.910840885362788
20
482.1839389582413
0
LWPOLYLINE
5
191
100
AcDbEntity
8
INTERIOR_PROFILES
100
AcDbPolyline
90
4
70
1
43
0.0
10
148.72716741597498
20
486.18393895824136
42
-0.99999999999999989
10
148.72716741597498
20
490.18393895824124
10
184.72716741597495
20
490.1839389582409
42
-0.99999999999999989
10
184.72716741597495
20
486.18393895824124
0
LWPOLYLINE
5
192
100
AcDbEntity
8
INTERIOR_PROFILES
100
AcDbPolyline
90
4
70
1
43
0.0
10
125.56390210985256
20
494.1839389582413
10
161.56390210985265
20
494.1839389582413
42
0.99999999999999989
10
161.56390210985251
20
498.18393895824124
10
125.56390210985256
20
498.18393895824107
42
0.99999999999999989
0
LWPOLYLINE
5
193
100
AcDbEntity
8
INTERIOR_PROFILES
100
AcDbPolyline
90
4
70
1
43
0.0
10
102.40063680373011
20
486.18393895824136
42
-0.99999999999999989
10
102.40063680373011
20
490.18393895824124
10
138.40063680373012
20
490.18393895824101
42
-0.99999999999999989
10
138.40063680373012
20
486.18393895824124
0
LWPOLYLINE
5
194
100
AcDbEntity
8
INTERIOR_PROFILES
100
AcDbPolyline
90
4
70
1
43
0.0
10
370.03328986495455
20
490.1839389582409
42
-0.99999999999999989
10
370.03328986495455
20
486.18393895824124
10
334.03328986495455
20
486.18393895824107
42
-0.99999999999999989
10
334.03328986495455
20
490.18393895824124
0
LWPOLYLINE
5
195
100
AcDbEntity
8
INTERIOR_PROFILES
100
AcDbPolyline
90
4
70
1
43
0.0
10
346.87002455883209
20
482.18393895824141
42
-0.99999999999999989
10
346.87002455883209
20
478.18393895824124
10
310.87002455883214
20
478.18393895824124
42
-0.99999999999999989
10
310.87002455883214
20
482.1839389582413
0
LWPOLYLINE
5
196
100
AcDbEntity
8
INTERIOR_PROFILES
100
AcDbPolyline
90
4
70
1
43
0.0
10
115.23737149760765
20
498.18393895824147
42
-0.99999999999999989
10
115.23737149760765
20
494.18393895824124
10
79.237371497607668
20
494.18393895824124
42
-0.99999999999999989
10
79.237371497607668
20
498.18393895824147
0
CIRCLE
5
197
100
AcDbEntity
8
INTERIOR_PROFILES
100
AcDbCircle
10
-452.29476945679141
20
123.06696544186792
30
0
40
1.7999999999999972
210
0
220
0
230
-1
0
LWPOLYLINE
5
198
100
AcDbEntity
8
INTERIOR_PROFILES
100
AcDbPolyline
90
4
70
1
43
0.0
10
125.56390210985256
20
478.18393895824136
42
-0.99999999999999989
10
125.56390210985256
20
482.1839389582413
10
161.56390210985251
20
482.18393895824136
42
-0.99999999999999989
10
161.56390210985251
20
478.18393895824124
0
CIRCLE
5
199
100
AcDbEntity
8
INTERIOR_PROFILES
100
AcDbCircle
10
-122.71084088536279
20
400.9839389582412
30
0
40
1.25
210
0
220
0
230
-1
0
LWPOLYLINE
5
200
100
AcDbEntity
8
INTERIOR_PROFILES
100
AcDbPolyline
90
4
70
1
43
0.0
10
218.21696333434232
20
494.18393895824124
10
254.2169633343421
20
494.18393895824124
42
0.99999999999999989
10
254.2169633343423
20
498.18393895824147
10
218.21696333434227
20
498.18393895824113
42
0.99999999999999989
0
LWPOLYLINE
5
201
100
AcDbEntity
8
INTERIOR_PROFILES
100
AcDbPolyline
90
4
70
1
43
0.0
10
92.074106191485242
20
490.18393895824101
42
-0.99999999999999989
10
92.074106191485242
20
486.18393895824124
10
56.074106191485214
20
486.18393895824136
42
-0.99999999999999989
10
56.074106191485214
20
490.18393895824124
0
LWPOLYLINE
5
202
100
AcDbEntity
8
INTERIOR_PROFILES
100
AcDbPolyline
90
4
70
1
43
0.0
10
323.70675925270967
20
474.18393895824124
10
287.70675925270928
20
474.18393895824124
42
0.99999999999999989
10
287.70675925270962
20
470.18393895824158
10
323.7067592527095
20
470.18393895824147
42
0.99999999999999989
0
LWPOLYLINE
5
203
100
AcDbEntity
8
INTERIOR_PROFILES
100
AcDbPolyline
90
4
70
1
43
0.0
10
370.03328986495455
20
474.18393895824147
42
-0.99999999999999989
10
370.03328986495455
20
470.18393895824124
10
334.03328986495455
20
470.18393895824124
42
-0.99999999999999989
10
334.03328986495455
20
474.18393895824124
0
CIRCLE
5
204
100
AcDbEntity
8
INTERIOR_PROFILES
100
AcDbCircle
10
-294.38405517107708
20
25.696965441867921
30
0
40
1.7999999999999972
210
0
220
0
230
-1
0
CIRCLE
5
205
100
AcDbEntity
8
INTERIOR_PROFILES
100
AcDbCircle
10
-286.62512659964852
20
351.43393895824119
30
0
40
2.3999999999999844
210
0
220
0
230
-1
0
LWPOLYLINE
5
206
100
AcDbEntity
8
INTERIOR_PROFILES
100
AcDbPolyline
90
4
70
1
43
0.0
10
32.910840885362788
20
462.1839389582413
10
68.91084088536283
20
462.1839389582413
42
0.99999999999999989
10
68.910840885362802
20
466.18393895824136
10
32.91084088536293
20
466.18393895824107
42
0.99999999999999989
0
CIRCLE
5
207
100
AcDbEntity
8
INTERIOR_PROFILES
100
AcDbCircle
10
-800.09834088536286
20
25.696965441867921
30
0
40
1.8000000000000682
210
0
220
0
230
-1
0
CIRCLE
5
208
100
AcDbEntity
8
INTERIOR_PROFILES
100
AcDbCircle
10
-47.723340885362795
20
123.06696544186792
30
0
40
1.7999999999999972
210
0
220
0
230
-1
0
LWPOLYLINE
5
209
100
AcDbEntity
8
INTERIOR_PROFILES
100
AcDbPolyline
90
4
70
1
43
0.0
10
148.72716741597498
20
470.18393895824136
42
-0.99999999999999989
10
148.72716741597498
20
474.18393895824124
10
184.72716741597495
20
474.18393895824119
42
-0.99999999999999989
10
184.72716741597495
20
470.18393895824124
0
LWPOLYLINE
5
210
100
AcDbEntity
8
INTERIOR_PROFILES
100
AcDbPolyline
90
4
70
1
43
0.0
10
310.87002455883214
20
494.18393895824119
42
-0.99999999999999989
10
310.87002455883214
20
498.18393895824124
10
346.87002455883209
20
498.18393895824158
42
-0.99999999999999989
10
346.87002455883209
20
494.18393895824124
0
LWPOLYLINE
5
211
100
AcDbEntity
8
INTERIOR_PROFILES
100
AcDbPolyline
90
4
70
1
43
0.0
10
148.72716741597498
20
454.18393895824124
10
184.72716741597495
20
454.18393895824124
42
0.99999999999999989
10
184.72716741597495
20
458.1839389582413
10
148.72716741597498
20
458.18393895824113
42
0.99999999999999989
0
CIRCLE
5
212
100
AcDbEntity
8
INTERIOR_PROFILES
100
AcDbCircle
10
-361.30584088536273
20
416.0289389582411
30
0
40
1.7999999999999972
210
0
220
0
230
-1
0
LWPOLYLINE
5
213
100
AcDbEntity
8
INTERIOR_PROFILES
100
AcDbPolyline
90
4
70
1
43
0.0
10
79.237371497607668
20
446.18393895824119
42
-0.99999999999999989
10
79.237371497607668
20
450.18393895824124
10
115.23737149760765
20
450.18393895824101
42
-0.99999999999999989
10
115.23737149760765
20
446.18393895824124
0
CIRCLE
5
214
100
AcDbEntity
8
INTERIOR_PROFILES
100
AcDbCircle
10
-771.48184088536277
20
335.18393895824119
30
0
40
1.25
210
0
220
0
230
-1
0
LWPOLYLINE
5
215
100
AcDbEntity
8
INTERIOR_PROFILES
100
AcDbPolyline
90
4
70
1
43
0.0
10
207.89043272209739
20
450.18393895824101
42
-0.99999999999999989
10
207.89043272209739
20
446.18393895824124
10
171.89043272209742
20
446.18393895824124
42
-0.99999999999999989
10
171.89043272209742
20
450.18393895824124
0
CIRCLE
5
216
100
AcDbEntity
8
INTERIOR_PROFILES
100
AcDbCircle
10
-691.19655517107719
20
351.43393895824119
30
0
40
2.3999999999999488
210
0
220
0
230
-1
0
CIRCLE
5
217
100
AcDbEntity
8
INTERIOR_PROFILES
100
AcDbCircle
10
-626.19654088536277
20
157.18083895824117
30
0
40
2.2999999999999687
210
0
220
0
230
-1
0
CIRCLE
5
218
100
AcDbEntity
8
INTERIOR_PROFILES
100
AcDbCircle
10
-698.95548374250563
20
123.06696544186792
30
0
40
1.8000000000000682
210
0
220
0
230
-1
0
CIRCLE
5
219
100
AcDbEntity
8
INTERIOR_PROFILES
100
AcDbCircle
10
-122.71084088536279
20
254.28393895824115
30
0
40
1.25
210
0
220
0
230
-1
0
CIRCLE
5
220
100
AcDbEntity
8
INTERIOR_PROFILES
100
AcDbCircle
10
-605.66084088536275
20
326.93393895824113
30
0
40
1.7999999999999972
210
0
220
0
230
-1
0
CIRCLE
5
221
100
AcDbEntity
8
INTERIOR_PROFILES
100
AcDbCircle
10
-130.33941231393425
20
351.43393895824119
30
0
40
2.3999999999999844
210
0
220
0
230
-1
0
CIRCLE
5
222
100
AcDbEntity
8
INTERIOR_PROFILES
100
AcDbCircle
10
-120.48224088536278
20
157.18083895824117
30
0
40
2.3000000000000043
210
0
220
0
230
-1
0
CIRCLE
5
223
100
AcDbEntity
8
INTERIOR_PROFILES
100
AcDbCircle
10
-737.19655517107708
20
351.43393895824119
30
0
40
2.3999999999999488
210
0
220
0
230
-1
0
LWPOLYLINE
5
224
100
AcDbEntity
8
INTERIOR_PROFILES
100
AcDbPolyline
90
4
70
1
43
0.0
10
125.56390210985256
20
462.18393895824107
42
-0.99999999999999989
10
125.56390210985256
20
466.18393895824124
10
161.56390210985251
20
466.18393895824119
42
-0.99999999999999989
10
161.56390210985251
20
462.1839389582413
0
LWPOLYLINE
5
225
100
AcDbEntity
8
INTERIOR_PROFILES
100
AcDbPolyline
90
4
70
1
43
0.0
10
264.5434939465872
20
478.18393895824124
42
-0.99999999999999989
10
264.5434939465872
20
482.1839389582413
10
300.54349394658715
20
482.18393895824113
42
-0.99999999999999989
10
300.54349394658715
20
478.18393895824124
0
LWPOLYLINE
5
226
100
AcDbEntity
8
INTERIOR_PROFILES
100
AcDbPolyline
90
4
70
1
43
0.0
10
277.38022864046468
20
490.18393895824101
42
-0.99999999999999989
10
277.38022864046468
20
486.18393895824124
10
241.38022864046476
20
486.18393895824119
42
-0.99999999999999989
10
241.38022864046476
20
490.18393895824124
0
LWPOLYLINE
5
227
100
AcDbEntity
8
INTERIOR_PROFILES
100
AcDbPolyline
90
4
70
1
43
0.0
10
264.5434939465872
20
446.18393895824119
10
300.54349394658749
20
446.18393895824124
42
0.99999999999999989
10
300.54349394658715
20
450.1839389582409
10
264.54349394658715
20
450.18393895824124
42
0.99999999999999989
0
LWPOLYLINE
5
228
100
AcDbEntity
8
INTERIOR_PROFILES
100
AcDbPolyline
90
4
70
1
43
0.0
10
334.03328986495455
20
454.18393895824119
42
-0.99999999999999989
10
334.03328986495455
20
458.18393895824124
10
370.03328986495455
20
458.18393895824158
42
-0.99999999999999989
10
370.03328986495455
20
454.18393895824124
0
CIRCLE
5
229
100
AcDbEntity
8
INTERIOR_PROFILES
100
AcDbCircle
10
-674.91084088536286
20
260.93393895824119
30
0
40
1.8000000000000682
210
0
220
0
230
-1
0
CIRCLE
5
230
100
AcDbEntity
8
INTERIOR_PROFILES
100
AcDbCircle
10
-250.00905517107708
20
25.696965441867921
30
0
40
1.7999999999999972
210
0
220
0
230
-1
0
CIRCLE
5
231
100
AcDbEntity
8
INTERIOR_PROFILES
100
AcDbCircle
10
-250.00905517107708
20
286.83789941236546
30
0
40
1.7999999999999972
210
0
220
0
230
-1
0
CIRCLE
5
232
100
AcDbEntity
8
INTERIOR_PROFILES
100
AcDbCircle
10
-395.52691231393425
20
286.83789941236546
30
0
40
1.7999999999999972
210
0
220
0
230
-1
0
CIRCLE
5
233
100
AcDbEntity
8
INTERIOR_PROFILES
100
AcDbCircle
10
-674.91084088536286
20
318.93393895824119
30
0
40
1.8000000000000682
210
0
220
0
230
-1
0
CIRCLE
5
234
100
AcDbEntity
8
INTERIOR_PROFILES
100
AcDbCircle
10
-755.72334088536286
20
25.696965441867921
30
0
40
1.8000000000000682
210
0
220
0
230
-1
0
CIRCLE
5
235
100
AcDbEntity
8
INTERIOR_PROFILES
100
AcDbCircle
10
-92.098340885362802
20
123.06696544186792
30
0
40
1.7999999999999972
210
0
220
0
230
-1
0
CIRCLE
5
236
100
AcDbEntity
8
INTERIOR_PROFILES
100
AcDbCircle
10
-221.62514088536278
20
157.18083895824117
30
0
40
2.3000000000000043
210
0
220
0
230
-1
0
CIRCLE
5
237
100
AcDbEntity
8
INTERIOR_PROFILES
100
AcDbCircle
10
-454.91084088536286
20
304.18393895824119
30
0
40
1.25
210
0
220
0
230
-1
0
CIRCLE
5
238
100
AcDbEntity
8
INTERIOR_PROFILES
100
AcDbCircle
10
-755.72334088536286
20
123.06696544186792
30
0
40
1.8000000000000682
210
0
220
0
230
-1
0
CIRCLE
5
239
100
AcDbEntity
8
INTERIOR_PROFILES
100
AcDbCircle
10
-250.00905517107708
20
189.46789941236545
30
0
40
1.7999999999999972
210
0
220
0
230
-1
0
CIRCLE
5
240
100
AcDbEntity
8
INTERIOR_PROFILES
100
AcDbCircle
10
-26.710840885362789
20
367.68393895824119
30
0
40
1.25
210
0
220
0
230
-1
0
CIRCLE
5
241
100
AcDbEntity
8
INTERIOR_PROFILES
100
AcDbCircle
10
-488.91084088536275
20
351.43393895824119
30
0
40
2.4000000000000199
210
0
220
0
230
-1
0
CIRCLE
5
242
100
AcDbEntity
8
INTERIOR_PROFILES
100
AcDbCircle
10
-727.33944088536282
20
157.18083895824117
30
0
40
2.3000000000000398
210
0
220
0
230
-1
0
CIRCLE
5
243
100
AcDbEntity
8
INTERIOR_PROFILES
100
AcDbCircle
10
-351.15191231393425
20
286.83789941236546
30
0
40
1.7999999999999972
210
0
220
0
230
-1
0
LWPOLYLINE
5
244
100
AcDbEntity
8
INTERIOR_PROFILES
100
AcDbPolyline
90
4
70
1
43
0.0
10
92.074106191485242
20
458.18393895824124
10
56.074106191485185
20
458.18393895824124
42
0.99999999999999989
10
56.074106191485228
20
454.18393895824119
10
92.0741061914851
20
454.18393895824147
42
0.99999999999999989
0
LWPOLYLINE
5
245
100
AcDbEntity
8
INTERIOR_PROFILES
100
AcDbPolyline
90
4
70
1
43
0.0
10
254.2169633343423
20
466.18393895824124
10
218.21696333434238
20
466.18393895824124
42
0.99999999999999989
10
218.21696333434232
20
462.18393895824107
10
254.2169633343423
20
462.18393895824136
42
0.99999999999999989
0
CIRCLE
5
246
100
AcDbEntity
8
INTERIOR_PROFILES
100
AcDbCircle
10
-439.4108408853628
20
214.4035745652838
30
0
40
2.2999999999999687
210
0
220
0
230
-1
0
CIRCLE
5
247
100
AcDbEntity
8
INTERIOR_PROFILES
100
AcDbCircle
10
-452.29476945679141
20
25.696965441867921
30
0
40
1.7999999999999972
210
0
220
0
230
-1
0
CIRCLE
5
248
100
AcDbEntity
8
INTERIOR_PROFILES
100
AcDbCircle
10
-218.71084088536279
20
367.68393895824119
30
0
40
1.25
210
0
220
0
230
-1
0
CIRCLE
5
249
100
AcDbEntity
8
INTERIOR_PROFILES
100
AcDbCircle
10
-193.24119802821994
20
123.06696544186792
30
0
40
1.7999999999999972
210
0
220
0
230
-1
0
CIRCLE
5
250
100
AcDbEntity
8
INTERIOR_PROFILES
100
AcDbCircle
10
-480.91084088536275
20
213.18393895824116
30
0
40
1.25
210
0
220
0
230
-1
0
CIRCLE
5
251
100
AcDbEntity
8
INTERIOR_PROFILES
100
AcDbCircle
10
-654.58048374250563
20
25.696965441867921
30
0
40
1.8000000000000682
210
0
220
0
230
-1
0
CIRCLE
5
252
100
AcDbEntity
8
INTERIOR_PROFILES
100
AcDbCircle
10
-525.05374088536291
20
157.18083895824117
30
0
40
2.2999999999999687
210
0
220
0
230
-1
0
CIRCLE
5
253
100
AcDbEntity
8
INTERIOR_PROFILES
100
AcDbCircle
10
-148.86619802821994
20
123.06696544186792
30
0
40
1.7999999999999972
210
0
220
0
230
-1
0
CIRCLE
5
254
100
AcDbEntity
8
INTERIOR_PROFILES
100
AcDbCircle
10
-828.4822408853629
20
157.18083895824117
30
0
40
2.3000000000000398
210
0
220
0
230
-1
0
CIRCLE
5
255
100
AcDbEntity
8
INTERIOR_PROFILES
100
AcDbCircle
10
-148.86619802821994
20
25.696965441867921
30
0
40
1.7999999999999972
210
0
220
0
230
-1
0
CIRCLE
5
256
100
AcDbEntity
8
INTERIOR_PROFILES
100
AcDbCircle
10
-19.339440885362787
20
157.18083895824117
30
0
40
2.2999999999999998
210
0
220
0
230
-1
0
CIRCLE
5
257
100
AcDbEntity
8
INTERIOR_PROFILES
100
AcDbCircle
10
-351.15191231393425
20
189.46789941236545
30
0
40
1.7999999999999972
210
0
220
0
230
-1
0
CIRCLE
5
258
100
AcDbEntity
8
INTERIOR_PROFILES
100
AcDbCircle
10
-84.339412313934218
20
351.43393895824119
30
0
40
2.4000000000000021
210
0
220
0
230
-1
0
CIRCLE
5
259
100
AcDbEntity
8
INTERIOR_PROFILES
100
AcDbCircle
10
-454.91084088536286
20
244.18393895824119
30
0
40
1.25
210
0
220
0
230
-1
0
CIRCLE
5
260
100
AcDbEntity
8
INTERIOR_PROFILES
100
AcDbCircle
10
-19.339412313934218
20
526.64669766749898
30
0
40
1.25
210
0
220
0
230
-1
0
CIRCLE
5
261
100
AcDbEntity
8
INTERIOR_PROFILES
100
AcDbCircle
10
-516.16084088536286
20
237.43393895824116
30
0
40
1.7999999999999972
210
0
220
0
230
-1
0
CIRCLE
5
262
100
AcDbEntity
8
INTERIOR_PROFILES
100
AcDbCircle
10
-427.41084088536275
20
214.4035745652838
30
0
40
2.2999999999999687
210
0
220
0
230
-1
0
CIRCLE
5
263
100
AcDbEntity
8
INTERIOR_PROFILES
100
AcDbCircle
10
-597.81262659964864
20
25.696965441867921
30
0
40
1.7999999999999972
210
0
220
0
230
-1
0
CIRCLE
5
264
100
AcDbEntity
8
INTERIOR_PROFILES
100
AcDbCircle
10
-322.7679408853628
20
157.18083895824117
30
0
40
2.2999999999999687
210
0
220
0
230
-1
0
CIRCLE
5
265
100
AcDbEntity
8
INTERIOR_PROFILES
100
AcDbCircle
10
-395.52691231393425
20
123.06696544186792
30
0
40
1.7999999999999972
210
0
220
0
230
-1
0
CIRCLE
5
266
100
AcDbEntity
8
INTERIOR_PROFILES
100
AcDbCircle
10
-516.16084088536286
20
326.93393895824113
30
0
40
1.7999999999999972
210
0
220
0
230
-1
0
CIRCLE
5
267
100
AcDbEntity
8
INTERIOR_PROFILES
100
AcDbCircle
10
-534.91084088536275
20
351.43393895824119
30
0
40
2.4000000000000199
210
0
220
0
230
-1
0
CIRCLE
5
268
100
AcDbEntity
8
INTERIOR_PROFILES
100
AcDbCircle
10
-553.43762659964864
20
25.696965441867921
30
0
40
1.7999999999999972
210
0
220
0
230
-1
0
CIRCLE
5
269
100
AcDbEntity
8
INTERIOR_PROFILES
100
AcDbCircle
10
-218.71084088536279
20
287.68393895824119
30
0
40
1.25
210
0
220
0
230
-1
0
CIRCLE
5
270
100
AcDbEntity
8
INTERIOR_PROFILES
100
AcDbCircle
10
-723.91084088536275
20
318.93393895824119
30
0
40
1.8000000000000682
210
0
220
0
230
-1
0
CIRCLE
5
271
100
AcDbEntity
8
INTERIOR_PROFILES
100
AcDbCircle
10
-727.33941231393419
20
526.64669766749898
30
0
40
1.25
210
0
220
0
230
-1
0
CIRCLE
5
272
100
AcDbEntity
8
INTERIOR_PROFILES
100
AcDbCircle
10
-800.09834088536286
20
123.06696544186792
30
0
40
1.8000000000000682
210
0
220
0
230
-1
0
CIRCLE
5
273
100
AcDbEntity
8
INTERIOR_PROFILES
100
AcDbCircle
10
-193.24119802821994
20
25.696965441867921
30
0
40
1.7999999999999972
210
0
220
0
230
-1
0
CIRCLE
5
274
100
AcDbEntity
8
INTERIOR_PROFILES
100
AcDbCircle
10
-367.01084088536277
20
346.48393895824114
30
0
40
2.2999999999999687
210
0
220
0
230
-1
0
CIRCLE
5
275
100
AcDbEntity
8
INTERIOR_PROFILES
100
AcDbCircle
10
-26.710840885362789
20
287.68393895824119
30
0
40
1.25
210
0
220
0
230
-1
0
CIRCLE
5
276
100
AcDbEntity
8
INTERIOR_PROFILES
100
AcDbCircle
10
-322.76798374250569
20
526.64669766749898
30
0
40
1.25
210
0
220
0
230
-1
0
LWPOLYLINE
5
277
100
AcDbEntity
8
INTERIOR_PROFILES
100
AcDbPolyline
90
4
70
1
43
0.0
10
-47.089159114637347
20
296.18393895824119
42
-0.99999999999999989
10
-43.089159114637205
20
296.18393895824119
10
-43.089159114637134
20
260.18393895824119
42
-0.99999999999999989
10
-47.089159114637212
20
260.18393895824119
0
LWPOLYLINE
5
278
100
AcDbEntity
8
INTERIOR_PROFILES
100
AcDbPolyline
90
4
70
1
43
0.0
10
-31.089159114637177
20
378.18393895824113
10
-31.089159114637219
20
356.18393895824136
42
0.99999999999999989
10
-27.089159114637038
20
356.18393895824119
10
-27.089159114637305
20
378.18393895824113
42
0.99999999999999989
0
LWPOLYLINE
5
279
100
AcDbEntity
8
INTERIOR_PROFILES
100
AcDbPolyline
90
4
70
1
43
0.0
10
-71.089159114637241
20
368.18393895824113
42
-0.99999999999999989
10
-67.089159114637212
20
368.18393895824113
10
-67.08915911463717
20
335.00212077642294
42
-0.99999999999999989
10
-71.089159114637198
20
335.00212077642294
0
LWPOLYLINE
5
280
100
AcDbEntity
8
INTERIOR_PROFILES
100
AcDbPolyline
90
4
70
1
43
0.0
10
-63.089159114637198
20
378.18393895824113
10
-63.089159114637219
20
356.18393895824136
42
0.99999999999999989
10
-59.089159114637077
20
356.18393895824119
10
-59.089159114637241
20
378.18393895824113
42
0.99999999999999989
0
LWPOLYLINE
5
281
100
AcDbEntity
8
INTERIOR_PROFILES
100
AcDbPolyline
90
4
70
1
43
0.0
10
-51.089159114637184
20
332.18393895824113
10
-51.089159114637212
20
368.18393895824113
42
0.99999999999999989
10
-55.089159114637248
20
368.18393895824113
10
-55.089159114637347
20
332.18393895824113
42
0.99999999999999989
0
LWPOLYLINE
5
282
100
AcDbEntity
8
INTERIOR_PROFILES
100
AcDbPolyline
90
4
70
1
43
0.0
10
-15.089159114637173
20
378.18393895824113
10
-15.089159114637214
20
356.18393895824136
42
0.99999999999999989
10
-11.089159114637042
20
356.18393895824119
10
-11.089159114637287
20
378.18393895824113
42
0.99999999999999989
0
LWPOLYLINE
5
283
100
AcDbEntity
8
INTERIOR_PROFILES
100
AcDbPolyline
90
4
70
1
43
0.0
10
-19.089159114637233
20
284.18393895824119
42
-0.99999999999999989
10
-23.089159114637212
20
284.18393895824119
10
-23.089159114637184
20
320.18393895824119
42
-0.99999999999999989
10
-19.089159114637209
20
320.18393895824119
0
LWPOLYLINE
5
284
100
AcDbEntity
8
INTERIOR_PROFILES
100
AcDbPolyline
90
4
70
1
43
0.0
10
-31.0891591146374
20
344.18393895824119
42
-0.99999999999999989
10
-27.089159114637219
20
344.18393895824119
10
-27.089159114637216
20
308.18393895824113
42
-0.99999999999999989
10
-31.089159114637219
20
308.18393895824113
0
LWPOLYLINE
5
285
100
AcDbEntity
8
INTERIOR_PROFILES
100
AcDbPolyline
90
4
70
1
43
0.0
10
-11.089159114637248
20
308.18393895824113
42
-0.99999999999999989
10
-15.089159114637212
20
308.18393895824113
10
-15.089159114637386
20
344.18393895824119
42
-0.99999999999999989
10
-11.089159114637216
20
344.18393895824119
0
LWPOLYLINE
5
286
100
AcDbEntity
8
INTERIOR_PROFILES
100
AcDbPolyline
90
4
70
1
43
0.0
10
-59.089159114637212
20
308.18393895824113
10
-59.089159114637219
20
344.18393895824101
42
0.99999999999999989
10
-63.089159114637361
20
344.18393895824119
10
-63.089159114637226
20
308.18393895824113
42
0.99999999999999989
0
CIRCLE
5
287
100
AcDbEntity
8
INTERIOR_PROFILES
100
AcDbCircle
10
-626.19655517107708
20
526.64669766749898
30
0
40
1.25
210
0
220
0
230
-1
0
LWPOLYLINE
5
288
100
AcDbEntity
8
INTERIOR_PROFILES
100
AcDbPolyline
90
4
70
1
43
0.0
10
-39.089159114637219
20
320.18393895824119
10
-39.089159114637212
20
284.18393895824119
42
0.99999999999999989
10
-35.089159114637248
20
284.18393895824119
10
-35.089159114637162
20
320.18393895824119
42
0.99999999999999989
0
LWPOLYLINE
5
289
100
AcDbEntity
8
INTERIOR_PROFILES
100
AcDbPolyline
90
4
70
1
43
0.0
10
-19.089159114637305
20
332.18393895824113
42
-0.99999999999999989
10
-23.089159114637212
20
332.18393895824113
10
-23.089159114637248
20
368.18393895824113
42
-0.99999999999999989
10
-19.089159114637212
20
368.18393895824113
0
LWPOLYLINE
5
290
100
AcDbEntity
8
INTERIOR_PROFILES
100
AcDbPolyline
90
4
70
1
43
0.0
10
-47.089159114637347
20
344.18393895824119
42
-0.99999999999999989
10
-43.089159114637205
20
344.18393895824119
10
-43.089159114637226
20
308.18393895824113
42
-0.99999999999999989
10
-47.089159114637212
20
308.18393895824113
0
LWPOLYLINE
5
291
100
AcDbEntity
8
INTERIOR_PROFILES
100
AcDbPolyline
90
4
70
1
43
0.0
10
-11.089159114637219
20
260.18393895824119
10
-11.089159114637216
20
296.18393895824101
42
0.99999999999999989
10
-15.089159114637351
20
296.18393895824119
10
-15.089159114637276
20
260.18393895824119
42
0.99999999999999989
0
LWPOLYLINE
5
292
100
AcDbEntity
8
INTERIOR_PROFILES
100
AcDbPolyline
90
4
70
1
43
0.0
10
-31.089159114637358
20
296.18393895824119
42
-0.99999999999999989
10
-27.089159114637219
20
296.18393895824119
10
-27.089159114637109
20
260.18393895824119
42
-0.99999999999999989
10
-31.089159114637219
20
260.18393895824119
0
LWPOLYLINE
5
293
100
AcDbEntity
8
INTERIOR_PROFILES
100
AcDbPolyline
90
4
70
1
43
0.0
10
-55.089159114637205
20
320.18393895824119
42
-0.99999999999999989
10
-51.089159114637219
20
320.18393895824119
10
-51.089159114637241
20
284.18393895824119
42
-0.99999999999999989
10
-55.089159114637226
20
284.18393895824119
0
LWPOLYLINE
5
294
100
AcDbEntity
8
INTERIOR_PROFILES
100
AcDbPolyline
90
4
70
1
43
0.0
10
-39.089159114637241
20
368.18393895824113
42
-0.99999999999999989
10
-35.089159114637212
20
368.18393895824113
10
-35.089159114637319
20
332.18393895824113
42
-0.99999999999999989
10
-39.089159114637212
20
332.18393895824113
0
CIRCLE
5
295
100
AcDbEntity
8
INTERIOR_PROFILES
100
AcDbCircle
10
-423.9108408853628
20
526.64669766749898
30
0
40
1.25
210
0
220
0
230
-1
0
CIRCLE
5
296
100
AcDbEntity
8
INTERIOR_PROFILES
100
AcDbCircle
10
-525.05369802821986
20
526.64669766749898
30
0
40
1.25
210
0
220
0
230
-1
0
LWPOLYLINE
5
297
100
AcDbEntity
8
INTERIOR_PROFILES
100
AcDbPolyline
90
4
70
1
43
0.0
10
-47.089159114637205
20
378.18393895824113
42
-0.99999999999999989
10
-43.089159114637205
20
378.18393895824113
10
-43.089159114637063
20
356.18393895824119
42
-0.99999999999999989
10
-47.089159114637205
20
356.18393895824119
0
CIRCLE
5
298
100
AcDbEntity
8
INTERIOR_PROFILES
100
AcDbCircle
10
-120.48226945679136
20
526.64669766749898
30
0
40
1.25
210
0
220
0
230
-1
0
CIRCLE
5
299
100
AcDbEntity
8
INTERIOR_PROFILES
100
AcDbCircle
10
-221.6251265996485
20
526.64669766749898
30
0
40
1.25
210
0
220
0
230
-1
0
CIRCLE
5
300
100
AcDbEntity
8
INTERIOR_PROFILES
100
AcDbCircle
10
-828.48226945679141
20
526.64669766749898
30
0
40
1.25
210
0
220
0
230
-1
0
CIRCLE
5
301
100
AcDbEntity
8
INTERIOR_PROFILES
100
AcDbCircle
10
-480.91084088536275
20
335.18393895824119
30
0
40
1.25
210
0
220
0
230
-1
0
CIRCLE
5
302
100
AcDbEntity
8
INTERIOR_PROFILES
100
AcDbCircle
10
-237.91084088536277
20
387.18393895824113
30
0
40
1.7999999999999972
210
0
220
0
230
-1
0
CIRCLE
5
303
100
AcDbEntity
8
INTERIOR_PROFILES
100
AcDbCircle
10
-384.81084088536278
20
346.48393895824114
30
0
40
2.2999999999999687
210
0
220
0
230
-1
0
CIRCLE
5
304
100
AcDbEntity
8
INTERIOR_PROFILES
100
AcDbCircle
10
-390.51584088536282
20
389.35893895824114
30
0
40
1.7999999999999972
210
0
220
0
230
-1
0
CIRCLE
5
305
100
AcDbEntity
8
INTERIOR_PROFILES
100
AcDbCircle
10
-438.71084088536281
20
346.48393895824114
30
0
40
2.2999999999999687
210
0
220
0
230
-1
0
CIRCLE
5
306
100
AcDbEntity
8
INTERIOR_PROFILES
100
AcDbCircle
10
-313.11084088536279
20
346.48393895824114
30
0
40
2.3000000000000043
210
0
220
0
230
-1
0
CIRCLE
5
307
100
AcDbEntity
8
INTERIOR_PROFILES
100
AcDbCircle
10
-797.48184088536277
20
304.18393895824119
30
0
40
1.25
210
0
220
0
230
-1
0
CIRCLE
5
308
100
AcDbEntity
8
INTERIOR_PROFILES
100
AcDbCircle
10
-605.66084088536275
20
237.43393895824116
30
0
40
1.7999999999999972
210
0
220
0
230
-1
0
CIRCLE
5
309
100
AcDbEntity
8
INTERIOR_PROFILES
100
AcDbCircle
10
-47.723340885362795
20
25.696965441867921
30
0
40
1.7999999999999972
210
0
220
0
230
-1
0
CIRCLE
5
310
100
AcDbEntity
8
INTERIOR_PROFILES
100
AcDbCircle
10
-654.58048374250563
20
123.06696544186792
30
0
40
1.8000000000000682
210
0
220
0
230
-1
0
CIRCLE
5
311
100
AcDbEntity
8
INTERIOR_PROFILES
100
AcDbCircle
10
-92.098340885362802
20
25.696965441867921
30
0
40
1.7999999999999972
210
0
220
0
230
-1
0
CIRCLE
5
312
100
AcDbEntity
8
INTERIOR_PROFILES
100
AcDbCircle
10
-553.43762659964864
20
123.06696544186792
30
0
40
1.7999999999999972
210
0
220
0
230
-1
0
CIRCLE
5
313
100
AcDbEntity
8
INTERIOR_PROFILES
100
AcDbCircle
10
-250.00905517107708
20
123.06696544186792
30
0
40
1.7999999999999972
210
0
220
0
230
-1
0
CIRCLE
5
314
100
AcDbEntity
8
INTERIOR_PROFILES
100
AcDbCircle
10
-395.52691231393425
20
25.696965441867921
30
0
40
1.7999999999999972
210
0
220
0
230
-1
0
CIRCLE
5
315
100
AcDbEntity
8
INTERIOR_PROFILES
100
AcDbCircle
10
-351.15191231393425
20
123.06696544186792
30
0
40
1.7999999999999972
210
0
220
0
230
-1
0
CIRCLE
5
316
100
AcDbEntity
8
INTERIOR_PROFILES
100
AcDbCircle
10
-771.48184088536277
20
213.18393895824116
30
0
40
1.25
210
0
220
0
230
-1
0
CIRCLE
5
317
100
AcDbEntity
8
INTERIOR_PROFILES
100
AcDbCircle
10
-496.66976945679141
20
25.696965441867921
30
0
40
1.7999999999999972
210
0
220
0
230
-1
0
CIRCLE
5
318
100
AcDbEntity
8
INTERIOR_PROFILES
100
AcDbCircle
10
-723.91084088536275
20
260.93393895824119
30
0
40
1.8000000000000682
210
0
220
0
230
-1
0
CIRCLE
5
319
100
AcDbEntity
8
INTERIOR_PROFILES
100
AcDbCircle
10
-496.66976945679141
20
123.06696544186792
30
0
40
1.7999999999999972
210
0
220
0
230
-1
0
CIRCLE
5
320
100
AcDbEntity
8
INTERIOR_PROFILES
100
AcDbCircle
10
-395.52691231393425
20
189.46789941236545
30
0
40
1.7999999999999972
210
0
220
0
230
-1
0
CIRCLE
5
321
100
AcDbEntity
8
INTERIOR_PROFILES
100
AcDbCircle
10
-297.91084088536275
20
387.18393895824113
30
0
40
1.7999999999999972
210
0
220
0
230
-1
0
CIRCLE
5
322
100
AcDbEntity
8
INTERIOR_PROFILES
100
AcDbCircle
10
-297.91084088536275
20
319.18393895824119
30
0
40
1.7999999999999972
210
0
220
0
230
-1
0
CIRCLE
5
323
100
AcDbEntity
8
INTERIOR_PROFILES
100
AcDbCircle
10
-361.30584088536273
20
389.35893895824114
30
0
40
1.7999999999999972
210
0
220
0
230
-1
0
CIRCLE
5
324
100
AcDbEntity
8
INTERIOR_PROFILES
100
AcDbCircle
10
-237.91084088536277
20
319.18393895824119
30
0
40
1.7999999999999972
210
0
220
0
230
-1
0
CIRCLE
5
325
100
AcDbEntity
8
INTERIOR_PROFILES
100
AcDbCircle
10
-390.51584088536282
20
416.0289389582411
30
0
40
1.7999999999999972
210
0
220
0
230
-1
0
CIRCLE
5
326
100
AcDbEntity
8
INTERIOR_PROFILES
100
AcDbCircle
10
-243.6251265996485
20
351.43393895824119
30
0
40
2.3999999999999844
210
0
220
0
230
-1
0
LWPOLYLINE
5
327
100
AcDbEntity
8
BEND_EXTENT
100
AcDbPolyline
90
4
70
1
43
0.0
10
844.82168177072549
20
10.273098072878359
10
2.9999999999999716
20
10.273098072878359
10
2.9999999999999991
20
425.09477984360393
10
844.82168177072549
20
425.09477984360393
0
ENDSEC
0
SECTION
2
OBJECTS
0
DICTIONARY
5
C
100
AcDbDictionary
3
ACAD_GROUP
350
D
3
ACAD_MLINESTYLE
350
17
0
DICTIONARY
5
D
100
AcDbDictionary
0
DICTIONARY
5
1A
330
C
100
AcDbDictionary
0
DICTIONARY
5
17
100
AcDbDictionary
0
ENDSEC
0
EOF
