0
SECTION
2
HEADER
9
$INSUNITS
70
4
9
$ACADVER
1
AC1014
9
$HANDSEED
5
FFFF
0
ENDSEC
0
SECTION
2
TABLES
0
TABLE
2
VPORT
5
8
100
AcDbSymbolTable
0
ENDTAB
0
TABLE
2
LTYPE
5
5
100
AcDbSymbolTable
0
LTYPE
5
14
100
AcDbSymbolTableRecord
100
AcDbLinetypeTableRecord
2
BYBLOCK
70
0
0
LTYPE
5
15
100
AcDbSymbolTableRecord
100
AcDbLinetypeTableRecord
2
BYLAYER
70
0
0
LTYPE
5
16
100
AcDbSymbolTableRecord
100
AcDbLinetypeTableRecord
2
DASHED
70
0
3
Dashed __ __ __ __ __ __ __ __ __ __ __ __ __ _
72
65
73
2
40
0.75
49
0.5
74
0
49
-0.25
74
0
0
ENDTAB
0
TABLE
2
LAYER
5
2
100
AcDbSymbolTable
70
2
0
LAYER
5
50
100
AcDbSymbolTableRecord
100
AcDbLayerTableRecord
2
0
70
0
62
7
6
CONTINUOUS
0
ENDTAB
0
TABLE
2
STYLE
5
3
100
AcDbSymbolTable
70
1
0
STYLE
5
11
100
AcDbSymbolTableRecord
100
AcDbTextStyleTableRecord
2
STANDARD
70
0
0
ENDTAB
0
TABLE
2
VIEW
5
6
100
AcDbSymbolTable
70
0
0
ENDTAB
0
TABLE
2
UCS
5
7
100
AcDbSymbolTable
70
0
0
ENDTAB
0
TABLE
2
APPID
5
9
100
AcDbSymbolTable
70
2
0
APPID
5
12
100
AcDbSymbolTableRecord
100
AcDbRegAppTableRecord
2
ACAD
70
0
0
ENDTAB
0
TABLE
2
DIMSTYLE
5
A
100
AcDbSymbolTable
70
1
0
ENDTAB
0
TABLE
2
BLOCK_RECORD
5
1
100
AcDbSymbolTable
70
1
0
BLOCK_RECORD
5
1F
100
AcDbSymbolTableRecord
100
AcDbBlockTableRecord
2
*MODEL_SPACE
0
BLOCK_RECORD
5
1B
100
AcDbSymbolTableRecord
100
AcDbBlockTableRecord
2
*PAPER_SPACE
0
ENDTAB
0
ENDSEC
0
SECTION
2
BLOCKS
0
BLOCK
5
20
100
AcDbEntity
100
AcDbBlockBegin
2
*MODEL_SPACE
0
ENDBLK
5
21
100
AcDbEntity
100
AcDbBlockEnd
0
BLOCK
5
1C
100
AcDbEntity
100
AcDbBlockBegin
2
*PAPER_SPACE
0
ENDBLK
5
1D
100
AcDbEntity
100
AcDbBlockEnd
0
ENDSEC
0
SECTION
2
ENTITIES
0
LWPOLYLINE
5
100
100
AcDbEntity
8
OUTER_PROFILES
100
AcDbPolyline
90
8
70
1
43
0.0
10
0
20
378.85535617193898
10
2.0000000000000284
20
418.85535617193898
10
2.0000000000001705
20
445.17745335777875
10
851.80000000000007
20
445.17745335777875
10
851.79999999999995
20
418.85535617193898
10
853.79999999999995
20
378.85535617193898
10
853.79999999999995
20
0
10
0
20
0
0
LWPOLYLINE
5
101
100
AcDbEntity
8
INTERIOR_PROFILES
100
AcDbPolyline
90
4
70
1
43
0.0
10
221.61428571428564
20
435.20587048373841
42
-0.99999999999999989
10
227.61428571428559
20
435.20587048373841
10
227.61428571428567
20
431.20587048373835
42
-0.99999999999999989
10
221.61428571428559
20
431.20587048373852
0
LWPOLYLINE
5
102
100
AcDbEntity
8
INTERIOR_PROFILES
100
AcDbPolyline
90
4
70
1
43
0.0
10
727.32857142857142
20
435.20587048373841
10
727.32857142857142
20
431.20587048373835
42
0.99999999999999989
10
733.32857142857142
20
431.20587048373835
10
733.32857142857142
20
435.20587048373841
42
0.99999999999999989
0
LWPOLYLINE
5
103
100
AcDbEntity
8
INTERIOR_PROFILES
100
AcDbPolyline
90
4
70
1
43
0.0
10
322.75714285714287
20
435.20587048373841
42
-0.99999999999999989
10
328.75714285714281
20
435.20587048373847
10
328.75714285714287
20
431.20587048373835
42
-0.99999999999999989
10
322.75714285714292
20
431.20587048373835
0
LWPOLYLINE
5
104
100
AcDbEntity
8
INTERIOR_PROFILES
100
AcDbPolyline
90
4
70
1
43
0.0
10
531.04285714285709
20
431.20587048373835
10
531.04285714285697
20
435.20587048373841
42
0.99999999999999989
10
525.04285714285709
20
435.20587048373841
10
525.0428571428572
20
431.20587048373835
42
0.99999999999999989
0
LWPOLYLINE
5
105
100
AcDbEntity
8
INTERIOR_PROFILES
100
AcDbPolyline
90
4
70
1
43
0.0
10
834.47142857142853
20
431.20587048373835
42
-0.99999999999999989
10
828.47142857142853
20
431.20587048373835
10
828.47142857142853
20
435.20587048373841
42
-0.99999999999999989
10
834.47142857142865
20
435.20587048373841
0
LWPOLYLINE
5
106
100
AcDbEntity
8
INTERIOR_PROFILES
100
AcDbPolyline
90
4
70
1
43
0.0
10
632.1857142857142
20
431.20587048373835
10
632.1857142857142
20
435.20587048373841
42
0.99999999999999989
10
626.18571428571431
20
435.20587048373841
10
626.18571428571431
20
431.20587048373835
42
0.99999999999999989
0
LWPOLYLINE
5
107
100
AcDbEntity
8
INTERIOR_PROFILES
100
AcDbPolyline
90
4
70
1
43
0.0
10
429.89999999999998
20
431.20587048373835
10
429.89999999999998
20
435.20587048373841
42
0.99999999999999989
10
423.89999999999998
20
435.20587048373841
10
423.89999999999998
20
431.20587048373835
42
0.99999999999999989
0
LWPOLYLINE
5
108
100
AcDbEntity
8
INTERIOR_PROFILES
100
AcDbPolyline
90
4
70
1
43
0.0
10
45.900000000000105
20
151.48633221608944
42
-0.99999999999999989
10
45.900000000000105
20
157.88633221608941
10
99.90000000000002
20
157.88633221608956
42
-0.99999999999999989
10
99.900000000000162
20
151.48633221608941
0
LWPOLYLINE
5
109
100
AcDbEntity
8
INTERIOR_PROFILES
100
AcDbPolyline
90
4
70
1
43
0.0
10
126.4714285714286
20
431.20587048373835
42
-0.99999999999999989
10
120.47142857142838
20
431.20587048373858
10
120.47142857142866
20
435.20587048373841
42
-0.99999999999999989
10
126.4714285714286
20
435.20587048373841
0
LWPOLYLINE
5
110
100
AcDbEntity
8
INTERIOR_PROFILES
100
AcDbPolyline
90
4
70
1
43
0.0
10
25.328571428571465
20
431.20587048373835
42
-0.99999999999999989
10
19.328571428571522
20
431.20587048373835
10
19.328571428571522
20
435.20587048373841
42
-0.99999999999999989
10
25.328571428571465
20
435.20587048373869
0
LWPOLYLINE
5
111
100
AcDbEntity
8
INTERIOR_PROFILES
100
AcDbPolyline
90
4
70
1
43
0.0
10
504.47142857142853
20
325.63240383143517
42
-0.99999999999999989
10
504.47142857142859
20
319.23240383143531
10
450.47142857142853
20
319.23240383143531
42
-0.99999999999999989
10
450.47142857142831
20
325.63240383143523
0
CIRCLE
5
112
100
AcDbEntity
8
INTERIOR_PROFILES
100
AcDbCircle
10
-22.328571428571422
20
6.4554204426813655
30
0
40
2.2499999999999432
210
0
220
0
230
-1
0
CIRCLE
5
113
100
AcDbEntity
8
INTERIOR_PROFILES
100
AcDbCircle
10
-831.47142857142853
20
6.4554204426813655
30
0
40
2.2499999999999432
210
0
220
0
230
-1
0
CIRCLE
5
114
100
AcDbEntity
8
INTERIOR_PROFILES
100
AcDbCircle
10
-426.89999999999998
20
6.4554204426813655
30
0
40
2.2500000000000142
210
0
220
0
230
-1
0
CIRCLE
5
115
100
AcDbEntity
8
INTERIOR_PROFILES
100
AcDbCircle
10
-730.32857142857142
20
6.4554204426813655
30
0
40
2.2499999999999432
210
0
220
0
230
-1
0
CIRCLE
5
116
100
AcDbEntity
8
INTERIOR_PROFILES
100
AcDbCircle
10
-528.04285714285709
20
6.45542044268133
30
0
40
2.2500000000000142
210
0
220
0
230
-1
0
CIRCLE
5
117
100
AcDbEntity
8
INTERIOR_PROFILES
100
AcDbCircle
10
-325.75714285714287
20
6.4554204426813655
30
0
40
2.2500000000000142
210
0
220
0
230
-1
0
CIRCLE
5
118
100
AcDbEntity
8
INTERIOR_PROFILES
100
AcDbCircle
10
-123.47142857142856
20
6.4554204426813655
30
0
40
2.2499999999999432
210
0
220
0
230
-1
0
CIRCLE
5
119
100
AcDbEntity
8
INTERIOR_PROFILES
100
AcDbCircle
10
-629.18571428571431
20
6.4554204426813655
30
0
40
2.2500000000000142
210
0
220
0
230
-1
0
CIRCLE
5
120
100
AcDbEntity
8
INTERIOR_PROFILES
100
AcDbCircle
10
-224.61428571428564
20
6.4554204426813655
30
0
40
2.2500000000000142
210
0
220
0
230
-1
0
LWPOLYLINE
5
121
100
AcDbEntity
8
INTERIOR_PROFILES
100
AcDbPolyline
90
4
70
1
43
0.0
10
753.89999999999998
20
151.48633221608944
10
807.89999999999986
20
151.48633221608944
42
0.99999999999999989
10
807.89999999999986
20
157.88633221608944
10
753.89999999999998
20
157.8863322160895
42
0.99999999999999989
0
LWPOLYLINE
5
122
100
AcDbEntity
8
INTERIOR_PROFILES
100
AcDbPolyline
90
4
70
1
43
0.0
10
33.724999999999952
20
141.2806977958297
10
33.724999999999881
20
25.230618253372832
10
112.07499999999996
20
25.230618253372867
10
112.07500000000003
20
141.2806977958297
0
LWPOLYLINE
5
123
100
AcDbEntity
8
INTERIOR_PROFILES
100
AcDbPolyline
90
4
70
1
43
0.0
10
349.32857142857142
20
151.48633221608944
10
403.32857142857154
20
151.48633221608947
42
0.99999999999999989
10
403.32857142857154
20
157.88633221608933
10
349.32857142857142
20
157.88633221608944
42
0.99999999999999989
0
LWPOLYLINE
5
124
100
AcDbEntity
8
INTERIOR_PROFILES
100
AcDbPolyline
90
4
70
1
43
0.0
10
314.36071428571421
20
141.28069779582967
10
236.01071428571413
20
141.2806977958297
10
236.01071428571413
20
25.230618253372832
10
314.36071428571421
20
25.230618253372832
0
LWPOLYLINE
5
125
100
AcDbEntity
8
INTERIOR_PROFILES
100
AcDbPolyline
90
4
70
1
43
0.0
10
504.47142857142853
20
157.88633221608933
42
-0.99999999999999989
10
504.47142857142842
20
151.48633221608947
10
450.47142857142842
20
151.48633221608941
42
-0.99999999999999989
10
450.47142857142836
20
157.88633221608944
0
LWPOLYLINE
5
126
100
AcDbEntity
8
INTERIOR_PROFILES
100
AcDbPolyline
90
4
70
1
43
0.0
10
516.64642857142849
20
141.28069779582967
10
438.29642857142858
20
141.2806977958297
10
438.29642857142858
20
25.230618253372867
10
516.64642857142849
20
25.230618253372832
0
LWPOLYLINE
5
127
100
AcDbEntity
8
INTERIOR_PROFILES
100
AcDbPolyline
90
4
70
1
43
0.0
10
516.64642857142849
20
309.02676941117551
10
438.29642857142858
20
309.02676941117556
10
438.29642857142858
20
192.97668986871869
10
516.64642857142849
20
192.97668986871867
0
LWPOLYLINE
5
128
100
AcDbEntity
8
INTERIOR_PROFILES
100
AcDbPolyline
90
8
70
1
43
0.0
10
656.45357142857154
20
298.57668986871874
10
804.20357142857142
20
298.57668986871874
42
0.41421356237309509
10
807.20357142857142
20
301.57668986871874
10
807.20357142857142
20
381.07668986871874
42
0.41421356237309509
10
804.20357142857142
20
384.07668986871869
10
656.45357142857142
20
384.07668986871869
42
0.41421356237309509
10
653.45357142857142
20
381.07668986871874
10
653.45357142857154
20
301.57668986871874
42
0.41421356237309509
0
LWPOLYLINE
5
129
100
AcDbEntity
8
INTERIOR_PROFILES
100
AcDbPolyline
90
4
70
1
43
0.0
10
605.61428571428576
20
157.88633221608944
10
551.61428571428576
20
157.88633221608944
42
0.99999999999999989
10
551.61428571428576
20
151.48633221608944
10
605.61428571428553
20
151.48633221608935
42
0.99999999999999989
0
LWPOLYLINE
5
130
100
AcDbEntity
8
INTERIOR_PROFILES
100
AcDbPolyline
90
8
70
1
43
0.0
10
395.51428571428573
20
195.97668986871867
10
395.51428571428573
20
381.07668986871863
42
0.41421356237309509
10
392.51428571428573
20
384.07668986871863
10
56.714285714285637
20
384.07668986871846
42
0.41421356237309509
10
53.714285714285808
20
381.07668986871863
10
53.714285714285772
20
195.97668986871867
42
0.41421356237309509
10
56.714285714285779
20
192.97668986871867
10
392.51428571428573
20
192.97668986871872
42
0.41421356237309165
0
LWPOLYLINE
5
131
100
AcDbEntity
8
INTERIOR_PROFILES
100
AcDbPolyline
90
4
70
1
43
0.0
10
617.78928571428571
20
141.2806977958297
10
539.43928571428569
20
141.2806977958297
10
539.43928571428569
20
25.230618253372867
10
617.78928571428571
20
25.230618253372832
0
LWPOLYLINE
5
132
100
AcDbEntity
8
INTERIOR_PROFILES
100
AcDbPolyline
90
4
70
1
43
0.0
10
302.1857142857142
20
157.88633221608939
10
248.18571428571428
20
157.88633221608953
42
0.99999999999999989
10
248.18571428571428
20
151.48633221608941
10
302.1857142857142
20
151.48633221608941
42
0.99999999999999989
0
LWPOLYLINE
5
133
100
AcDbEntity
8
INTERIOR_PROFILES
100
AcDbPolyline
90
4
70
1
43
0.0
10
605.61428571428576
20
325.63240383143523
10
551.61428571428564
20
325.63240383143523
42
0.99999999999999989
10
551.61428571428576
20
319.23240383143525
10
605.61428571428576
20
319.23240383143525
42
0.99999999999999989
0
LWPOLYLINE
5
134
100
AcDbEntity
8
INTERIOR_PROFILES
100
AcDbPolyline
90
4
70
1
43
0.0
10
741.72500000000002
20
141.28069779582967
10
741.72500000000002
20
25.230618253372832
10
820.07499999999993
20
25.230618253372867
10
820.07499999999993
20
141.2806977958297
0
LWPOLYLINE
5
135
100
AcDbEntity
8
INTERIOR_PROFILES
100
AcDbPolyline
90
4
70
1
43
0.0
10
539.43928571428569
20
192.97668986871869
10
617.78928571428571
20
192.97668986871867
10
617.78928571428571
20
309.02676941117551
10
539.43928571428569
20
309.02676941117556
0
LWPOLYLINE
5
136
100
AcDbEntity
8
INTERIOR_PROFILES
100
AcDbPolyline
90
4
70
1
43
0.0
10
718.93214285714282
20
25.230618253372867
10
718.93214285714282
20
141.2806977958297
10
640.5821428571428
20
141.2806977958297
10
640.5821428571428
20
25.230618253372867
0
LWPOLYLINE
5
137
100
AcDbEntity
8
INTERIOR_PROFILES
100
AcDbPolyline
90
4
70
1
43
0.0
10
337.15357142857147
20
25.230618253372867
10
415.50357142857149
20
25.230618253372832
10
415.50357142857149
20
141.28069779582967
10
337.15357142857147
20
141.2806977958297
0
CIRCLE
5
138
100
AcDbEntity
8
INTERIOR_PROFILES
100
AcDbCircle
10
-730.32857142857142
20
242.23651104240406
30
0
40
33.700000000000045
210
0
220
0
230
-1
0
LWPOLYLINE
5
139
100
AcDbEntity
8
INTERIOR_PROFILES
100
AcDbPolyline
90
4
70
1
43
0.0
10
213.21785714285713
20
141.2806977958297
10
134.86785714285708
20
141.2806977958297
10
134.86785714285702
20
25.230618253372832
10
213.21785714285707
20
25.230618253372867
0
LWPOLYLINE
5
140
100
AcDbEntity
8
INTERIOR_PROFILES
100
AcDbPolyline
90
4
70
1
43
0.0
10
201.04285714285712
20
157.8863322160895
42
-0.99999999999999989
10
201.04285714285712
20
151.48633221608935
10
147.04285714285726
20
151.48633221608941
42
-0.99999999999999989
10
147.04285714285703
20
157.88633221608947
0
LWPOLYLINE
5
141
100
AcDbEntity
8
INTERIOR_PROFILES
100
AcDbPolyline
90
4
70
1
43
0.0
10
652.75714285714287
20
151.48633221608944
10
706.75714285714275
20
151.48633221608941
42
0.99999999999999989
10
706.75714285714275
20
157.88633221608939
10
652.75714285714287
20
157.88633221608944
42
0.99999999999999989
0
ENDSEC
0
SECTION
2
OBJECTS
0
DICTIONARY
5
C
100
AcDbDictionary
3
ACAD_GROUP
350
D
3
ACAD_MLINESTYLE
350
17
0
DICTIONARY
5
D
100
AcDbDictionary
0
DICTIONARY
5
1A
330
C
100
AcDbDictionary
0
DICTIONARY
5
17
100
AcDbDictionary
0
ENDSEC
0
EOF
