ISO-10303-21;
HEADER;
/* Generated by software containing ST-Developer
 * from STEP Tools, Inc. (www.steptools.com) 
 */

FILE_DESCRIPTION(
/* description */ ('Open CASCADE Model'),
/* implementation_level */ '2;1');

FILE_NAME(
/* name */ 'switch_platform.step',
/* time_stamp */ '2026-08-20T03:22:17-03:00',
/* author */ (''),
/* organization */ (''),
/* preprocessor_version */ 'ST-DEVELOPER v20.1',
/* originating_system */ 'Autodesk Translation Framework v15.8.0.0',
/* authorisation */ '');

FILE_SCHEMA (('AUTOMOTIVE_DESIGN { 1 0 10303 214 3 1 1 }'));
ENDSEC;

DATA;
#10=MECHANICAL_DESIGN_GEOMETRIC_PRESENTATION_REPRESENTATION('',(#13),#2005);
#11=SHAPE_REPRESENTATION_RELATIONSHIP('SRR','None',#2012,#12);
#12=ADVANCED_BREP_SHAPE_REPRESENTATION('',(#14),#2004);
#13=STYLED_ITEM('',(#2021),#14);
#14=MANIFOLD_SOLID_BREP('Body4',#1163);
#15=TOROIDAL_SURFACE('',#1252,2.,1.);
#16=TOROIDAL_SURFACE('',#1257,2.00000000000001,1.);
#17=TOROIDAL_SURFACE('',#1262,2.00000000000001,1.);
#18=TOROIDAL_SURFACE('',#1267,2.,1.);
#19=FACE_BOUND('',#169,.T.);
#20=FACE_BOUND('',#176,.T.);
#21=FACE_BOUND('',#179,.T.);
#22=FACE_BOUND('',#183,.T.);
#23=FACE_BOUND('',#225,.T.);
#24=CIRCLE('',#1181,1.);
#25=CIRCLE('',#1182,1.);
#26=CIRCLE('',#1183,1.);
#27=CIRCLE('',#1186,10.);
#28=CIRCLE('',#1187,10.);
#29=CIRCLE('',#1189,5.);
#30=CIRCLE('',#1190,5.);
#31=CIRCLE('',#1192,10.);
#32=CIRCLE('',#1193,1.);
#33=CIRCLE('',#1194,1.);
#34=CIRCLE('',#1195,1.);
#35=CIRCLE('',#1196,1.);
#36=CIRCLE('',#1197,10.);
#37=CIRCLE('',#1198,10.);
#38=CIRCLE('',#1200,10.);
#39=CIRCLE('',#1202,10.);
#40=CIRCLE('',#1203,1.);
#41=CIRCLE('',#1204,1.);
#42=CIRCLE('',#1205,1.);
#43=CIRCLE('',#1206,2.);
#44=CIRCLE('',#1207,2.00000000000001);
#45=CIRCLE('',#1208,2.);
#46=CIRCLE('',#1209,2.);
#47=CIRCLE('',#1210,1.);
#48=CIRCLE('',#1211,1.);
#49=CIRCLE('',#1212,1.);
#50=CIRCLE('',#1213,1.);
#51=CIRCLE('',#1214,1.);
#52=CIRCLE('',#1215,10.);
#53=CIRCLE('',#1221,1.);
#54=CIRCLE('',#1222,1.);
#55=CIRCLE('',#1223,1.);
#56=CIRCLE('',#1224,1.);
#57=CIRCLE('',#1250,1.);
#58=CIRCLE('',#1251,0.999999999999996);
#59=CIRCLE('',#1253,1.);
#60=CIRCLE('',#1254,0.999999999999996);
#61=CIRCLE('',#1256,0.999999999999996);
#62=CIRCLE('',#1258,1.);
#63=CIRCLE('',#1259,1.00000000000001);
#64=CIRCLE('',#1261,1.);
#65=CIRCLE('',#1263,1.);
#66=CIRCLE('',#1264,1.00000000000001);
#67=CIRCLE('',#1266,1.);
#68=CIRCLE('',#1268,0.999999999999996);
#69=CIRCLE('',#1270,1.00000000000001);
#70=CIRCLE('',#1273,0.999999999999996);
#71=CIRCLE('',#1276,1.00000000000001);
#72=CIRCLE('',#1279,0.999999999999996);
#73=CIRCLE('',#1282,1.);
#74=PLANE('',#1180);
#75=PLANE('',#1184);
#76=PLANE('',#1191);
#77=PLANE('',#1201);
#78=PLANE('',#1216);
#79=PLANE('',#1217);
#80=PLANE('',#1218);
#81=PLANE('',#1219);
#82=PLANE('',#1220);
#83=PLANE('',#1226);
#84=PLANE('',#1228);
#85=PLANE('',#1229);
#86=PLANE('',#1230);
#87=PLANE('',#1231);
#88=PLANE('',#1232);
#89=PLANE('',#1233);
#90=PLANE('',#1234);
#91=PLANE('',#1235);
#92=PLANE('',#1237);
#93=PLANE('',#1240);
#94=PLANE('',#1243);
#95=PLANE('',#1245);
#96=PLANE('',#1248);
#97=PLANE('',#1271);
#98=PLANE('',#1274);
#99=PLANE('',#1277);
#100=PLANE('',#1280);
#101=PLANE('',#1281);
#102=PLANE('',#1285);
#103=PLANE('',#1287);
#104=PLANE('',#1288);
#105=PLANE('',#1289);
#106=FACE_OUTER_BOUND('',#167,.T.);
#107=FACE_OUTER_BOUND('',#168,.T.);
#108=FACE_OUTER_BOUND('',#170,.T.);
#109=FACE_OUTER_BOUND('',#171,.T.);
#110=FACE_OUTER_BOUND('',#172,.T.);
#111=FACE_OUTER_BOUND('',#173,.T.);
#112=FACE_OUTER_BOUND('',#174,.T.);
#113=FACE_OUTER_BOUND('',#175,.T.);
#114=FACE_OUTER_BOUND('',#177,.T.);
#115=FACE_OUTER_BOUND('',#178,.T.);
#116=FACE_OUTER_BOUND('',#180,.T.);
#117=FACE_OUTER_BOUND('',#181,.T.);
#118=FACE_OUTER_BOUND('',#182,.T.);
#119=FACE_OUTER_BOUND('',#184,.T.);
#120=FACE_OUTER_BOUND('',#185,.T.);
#121=FACE_OUTER_BOUND('',#186,.T.);
#122=FACE_OUTER_BOUND('',#187,.T.);
#123=FACE_OUTER_BOUND('',#188,.T.);
#124=FACE_OUTER_BOUND('',#189,.T.);
#125=FACE_OUTER_BOUND('',#190,.T.);
#126=FACE_OUTER_BOUND('',#191,.T.);
#127=FACE_OUTER_BOUND('',#192,.T.);
#128=FACE_OUTER_BOUND('',#193,.T.);
#129=FACE_OUTER_BOUND('',#194,.T.);
#130=FACE_OUTER_BOUND('',#195,.T.);
#131=FACE_OUTER_BOUND('',#196,.T.);
#132=FACE_OUTER_BOUND('',#197,.T.);
#133=FACE_OUTER_BOUND('',#198,.T.);
#134=FACE_OUTER_BOUND('',#199,.T.);
#135=FACE_OUTER_BOUND('',#200,.T.);
#136=FACE_OUTER_BOUND('',#201,.T.);
#137=FACE_OUTER_BOUND('',#202,.T.);
#138=FACE_OUTER_BOUND('',#203,.T.);
#139=FACE_OUTER_BOUND('',#204,.T.);
#140=FACE_OUTER_BOUND('',#205,.T.);
#141=FACE_OUTER_BOUND('',#206,.T.);
#142=FACE_OUTER_BOUND('',#207,.T.);
#143=FACE_OUTER_BOUND('',#208,.T.);
#144=FACE_OUTER_BOUND('',#209,.T.);
#145=FACE_OUTER_BOUND('',#210,.T.);
#146=FACE_OUTER_BOUND('',#211,.T.);
#147=FACE_OUTER_BOUND('',#212,.T.);
#148=FACE_OUTER_BOUND('',#213,.T.);
#149=FACE_OUTER_BOUND('',#214,.T.);
#150=FACE_OUTER_BOUND('',#215,.T.);
#151=FACE_OUTER_BOUND('',#216,.T.);
#152=FACE_OUTER_BOUND('',#217,.T.);
#153=FACE_OUTER_BOUND('',#218,.T.);
#154=FACE_OUTER_BOUND('',#219,.T.);
#155=FACE_OUTER_BOUND('',#220,.T.);
#156=FACE_OUTER_BOUND('',#221,.T.);
#157=FACE_OUTER_BOUND('',#222,.T.);
#158=FACE_OUTER_BOUND('',#223,.T.);
#159=FACE_OUTER_BOUND('',#224,.T.);
#160=FACE_OUTER_BOUND('',#226,.T.);
#161=FACE_OUTER_BOUND('',#227,.T.);
#162=FACE_OUTER_BOUND('',#228,.T.);
#163=FACE_OUTER_BOUND('',#229,.T.);
#164=FACE_OUTER_BOUND('',#230,.T.);
#165=FACE_OUTER_BOUND('',#231,.T.);
#166=FACE_OUTER_BOUND('',#232,.T.);
#167=EDGE_LOOP('',(#741,#742,#743,#744,#745,#746));
#168=EDGE_LOOP('',(#747,#748,#749,#750,#751,#752));
#169=EDGE_LOOP('',(#753));
#170=EDGE_LOOP('',(#754,#755,#756,#757));
#171=EDGE_LOOP('',(#758,#759,#760,#761));
#172=EDGE_LOOP('',(#762,#763,#764,#765));
#173=EDGE_LOOP('',(#766,#767,#768,#769,#770,#771,#772,#773,#774,#775,#776,
#777,#778,#779,#780,#781,#782,#783,#784,#785,#786,#787));
#174=EDGE_LOOP('',(#788,#789,#790,#791));
#175=EDGE_LOOP('',(#792,#793,#794,#795,#796,#797,#798,#799,#800,#801,#802,
#803,#804,#805,#806,#807,#808,#809,#810,#811,#812,#813,#814,#815,#816,#817,
#818,#819,#820,#821,#822,#823));
#176=EDGE_LOOP('',(#824,#825,#826,#827));
#177=EDGE_LOOP('',(#828,#829,#830,#831));
#178=EDGE_LOOP('',(#832,#833,#834,#835,#836,#837,#838,#839));
#179=EDGE_LOOP('',(#840,#841,#842,#843));
#180=EDGE_LOOP('',(#844,#845,#846,#847));
#181=EDGE_LOOP('',(#848,#849,#850,#851));
#182=EDGE_LOOP('',(#852,#853,#854,#855,#856,#857,#858,#859));
#183=EDGE_LOOP('',(#860,#861,#862,#863));
#184=EDGE_LOOP('',(#864,#865,#866,#867));
#185=EDGE_LOOP('',(#868,#869,#870,#871));
#186=EDGE_LOOP('',(#872,#873,#874,#875));
#187=EDGE_LOOP('',(#876,#877,#878,#879,#880,#881));
#188=EDGE_LOOP('',(#882,#883,#884,#885));
#189=EDGE_LOOP('',(#886,#887,#888,#889));
#190=EDGE_LOOP('',(#890,#891,#892,#893));
#191=EDGE_LOOP('',(#894,#895,#896,#897));
#192=EDGE_LOOP('',(#898,#899,#900,#901));
#193=EDGE_LOOP('',(#902,#903,#904,#905,#906,#907,#908,#909));
#194=EDGE_LOOP('',(#910,#911,#912,#913,#914,#915,#916,#917));
#195=EDGE_LOOP('',(#918,#919,#920,#921));
#196=EDGE_LOOP('',(#922,#923,#924,#925));
#197=EDGE_LOOP('',(#926,#927,#928,#929));
#198=EDGE_LOOP('',(#930,#931,#932,#933));
#199=EDGE_LOOP('',(#934,#935,#936,#937));
#200=EDGE_LOOP('',(#938,#939,#940,#941));
#201=EDGE_LOOP('',(#942,#943,#944,#945));
#202=EDGE_LOOP('',(#946,#947,#948,#949,#950));
#203=EDGE_LOOP('',(#951,#952,#953,#954));
#204=EDGE_LOOP('',(#955,#956,#957,#958,#959,#960));
#205=EDGE_LOOP('',(#961,#962,#963,#964));
#206=EDGE_LOOP('',(#965,#966,#967,#968));
#207=EDGE_LOOP('',(#969,#970,#971,#972,#973));
#208=EDGE_LOOP('',(#974,#975,#976,#977));
#209=EDGE_LOOP('',(#978,#979,#980,#981));
#210=EDGE_LOOP('',(#982,#983,#984,#985));
#211=EDGE_LOOP('',(#986,#987,#988,#989));
#212=EDGE_LOOP('',(#990,#991,#992,#993));
#213=EDGE_LOOP('',(#994,#995,#996,#997));
#214=EDGE_LOOP('',(#998,#999,#1000,#1001));
#215=EDGE_LOOP('',(#1002,#1003,#1004,#1005));
#216=EDGE_LOOP('',(#1006,#1007,#1008,#1009));
#217=EDGE_LOOP('',(#1010,#1011,#1012,#1013));
#218=EDGE_LOOP('',(#1014,#1015,#1016,#1017));
#219=EDGE_LOOP('',(#1018,#1019,#1020,#1021));
#220=EDGE_LOOP('',(#1022,#1023,#1024,#1025));
#221=EDGE_LOOP('',(#1026,#1027,#1028,#1029));
#222=EDGE_LOOP('',(#1030,#1031,#1032,#1033));
#223=EDGE_LOOP('',(#1034,#1035,#1036,#1037));
#224=EDGE_LOOP('',(#1038,#1039,#1040,#1041,#1042,#1043,#1044,#1045));
#225=EDGE_LOOP('',(#1046));
#226=EDGE_LOOP('',(#1047,#1048,#1049,#1050));
#227=EDGE_LOOP('',(#1051,#1052,#1053,#1054));
#228=EDGE_LOOP('',(#1055,#1056,#1057,#1058,#1059,#1060));
#229=EDGE_LOOP('',(#1061,#1062,#1063,#1064));
#230=EDGE_LOOP('',(#1065,#1066,#1067,#1068));
#231=EDGE_LOOP('',(#1069,#1070,#1071,#1072));
#232=EDGE_LOOP('',(#1073,#1074,#1075,#1076));
#233=ELLIPSE('',#1178,1.1001675608483,1.1);
#234=ELLIPSE('',#1179,1.1001675608483,1.1);
#235=LINE('',#1659,#349);
#236=LINE('',#1676,#350);
#237=LINE('',#1680,#351);
#238=LINE('',#1684,#352);
#239=LINE('',#1687,#353);
#240=LINE('',#1692,#354);
#241=LINE('',#1694,#355);
#242=LINE('',#1696,#356);
#243=LINE('',#1697,#357);
#244=LINE('',#1703,#358);
#245=LINE('',#1706,#359);
#246=LINE('',#1711,#360);
#247=LINE('',#1715,#361);
#248=LINE('',#1719,#362);
#249=LINE('',#1723,#363);
#250=LINE('',#1725,#364);
#251=LINE('',#1727,#365);
#252=LINE('',#1729,#366);
#253=LINE('',#1731,#367);
#254=LINE('',#1735,#368);
#255=LINE('',#1738,#369);
#256=LINE('',#1742,#370);
#257=LINE('',#1746,#371);
#258=LINE('',#1750,#372);
#259=LINE('',#1754,#373);
#260=LINE('',#1758,#374);
#261=LINE('',#1762,#375);
#262=LINE('',#1766,#376);
#263=LINE('',#1770,#377);
#264=LINE('',#1774,#378);
#265=LINE('',#1778,#379);
#266=LINE('',#1782,#380);
#267=LINE('',#1786,#381);
#268=LINE('',#1790,#382);
#269=LINE('',#1795,#383);
#270=LINE('',#1799,#384);
#271=LINE('',#1803,#385);
#272=LINE('',#1806,#386);
#273=LINE('',#1809,#387);
#274=LINE('',#1811,#388);
#275=LINE('',#1813,#389);
#276=LINE('',#1814,#390);
#277=LINE('',#1816,#391);
#278=LINE('',#1820,#392);
#279=LINE('',#1822,#393);
#280=LINE('',#1824,#394);
#281=LINE('',#1826,#395);
#282=LINE('',#1828,#396);
#283=LINE('',#1830,#397);
#284=LINE('',#1832,#398);
#285=LINE('',#1833,#399);
#286=LINE('',#1836,#400);
#287=LINE('',#1838,#401);
#288=LINE('',#1840,#402);
#289=LINE('',#1841,#403);
#290=LINE('',#1844,#404);
#291=LINE('',#1846,#405);
#292=LINE('',#1847,#406);
#293=LINE('',#1850,#407);
#294=LINE('',#1851,#408);
#295=LINE('',#1857,#409);
#296=LINE('',#1861,#410);
#297=LINE('',#1865,#411);
#298=LINE('',#1868,#412);
#299=LINE('',#1870,#413);
#300=LINE('',#1871,#414);
#301=LINE('',#1873,#415);
#302=LINE('',#1875,#416);
#303=LINE('',#1877,#417);
#304=LINE('',#1879,#418);
#305=LINE('',#1880,#419);
#306=LINE('',#1882,#420);
#307=LINE('',#1884,#421);
#308=LINE('',#1887,#422);
#309=LINE('',#1888,#423);
#310=LINE('',#1890,#424);
#311=LINE('',#1891,#425);
#312=LINE('',#1893,#426);
#313=LINE('',#1894,#427);
#314=LINE('',#1896,#428);
#315=LINE('',#1897,#429);
#316=LINE('',#1899,#430);
#317=LINE('',#1901,#431);
#318=LINE('',#1904,#432);
#319=LINE('',#1906,#433);
#320=LINE('',#1907,#434);
#321=LINE('',#1910,#435);
#322=LINE('',#1912,#436);
#323=LINE('',#1914,#437);
#324=LINE('',#1916,#438);
#325=LINE('',#1917,#439);
#326=LINE('',#1919,#440);
#327=LINE('',#1921,#441);
#328=LINE('',#1927,#442);
#329=LINE('',#1936,#443);
#330=LINE('',#1944,#444);
#331=LINE('',#1952,#445);
#332=LINE('',#1957,#446);
#333=LINE('',#1960,#447);
#334=LINE('',#1963,#448);
#335=LINE('',#1964,#449);
#336=LINE('',#1967,#450);
#337=LINE('',#1971,#451);
#338=LINE('',#1972,#452);
#339=LINE('',#1975,#453);
#340=LINE('',#1978,#454);
#341=LINE('',#1980,#455);
#342=LINE('',#1983,#456);
#343=LINE('',#1986,#457);
#344=LINE('',#1991,#458);
#345=LINE('',#1993,#459);
#346=LINE('',#1995,#460);
#347=LINE('',#1997,#461);
#348=LINE('',#2000,#462);
#349=VECTOR('',#1294,10.);
#350=VECTOR('',#1297,10.);
#351=VECTOR('',#1302,10.);
#352=VECTOR('',#1305,10.);
#353=VECTOR('',#1308,10.);
#354=VECTOR('',#1313,10.);
#355=VECTOR('',#1314,10.);
#356=VECTOR('',#1315,10.);
#357=VECTOR('',#1316,10.);
#358=VECTOR('',#1321,10.);
#359=VECTOR('',#1324,10.);
#360=VECTOR('',#1329,10.);
#361=VECTOR('',#1334,10.);
#362=VECTOR('',#1337,10.);
#363=VECTOR('',#1340,10.);
#364=VECTOR('',#1341,10.);
#365=VECTOR('',#1342,10.);
#366=VECTOR('',#1343,10.);
#367=VECTOR('',#1344,10.);
#368=VECTOR('',#1347,10.);
#369=VECTOR('',#1350,10.);
#370=VECTOR('',#1353,10.);
#371=VECTOR('',#1356,10.);
#372=VECTOR('',#1361,10.);
#373=VECTOR('',#1366,1.);
#374=VECTOR('',#1369,10.);
#375=VECTOR('',#1372,10.);
#376=VECTOR('',#1375,10.);
#377=VECTOR('',#1378,10.);
#378=VECTOR('',#1381,10.);
#379=VECTOR('',#1384,10.);
#380=VECTOR('',#1387,10.);
#381=VECTOR('',#1390,10.);
#382=VECTOR('',#1393,10.);
#383=VECTOR('',#1398,10.);
#384=VECTOR('',#1401,10.);
#385=VECTOR('',#1404,10.);
#386=VECTOR('',#1407,1.);
#387=VECTOR('',#1408,10.);
#388=VECTOR('',#1409,10.);
#389=VECTOR('',#1410,10.);
#390=VECTOR('',#1411,10.);
#391=VECTOR('',#1414,10.);
#392=VECTOR('',#1417,10.);
#393=VECTOR('',#1418,10.);
#394=VECTOR('',#1419,10.);
#395=VECTOR('',#1420,10.);
#396=VECTOR('',#1421,10.);
#397=VECTOR('',#1422,10.);
#398=VECTOR('',#1423,10.);
#399=VECTOR('',#1424,10.);
#400=VECTOR('',#1425,10.);
#401=VECTOR('',#1426,10.);
#402=VECTOR('',#1427,10.);
#403=VECTOR('',#1428,10.);
#404=VECTOR('',#1431,10.);
#405=VECTOR('',#1432,10.);
#406=VECTOR('',#1433,10.);
#407=VECTOR('',#1436,10.);
#408=VECTOR('',#1437,10.);
#409=VECTOR('',#1442,10.);
#410=VECTOR('',#1445,10.);
#411=VECTOR('',#1448,10.);
#412=VECTOR('',#1451,10.);
#413=VECTOR('',#1452,10.);
#414=VECTOR('',#1453,10.);
#415=VECTOR('',#1456,10.);
#416=VECTOR('',#1459,10.);
#417=VECTOR('',#1462,10.);
#418=VECTOR('',#1465,10.);
#419=VECTOR('',#1466,10.);
#420=VECTOR('',#1469,10.);
#421=VECTOR('',#1472,10.);
#422=VECTOR('',#1477,10.);
#423=VECTOR('',#1478,10.);
#424=VECTOR('',#1481,10.);
#425=VECTOR('',#1482,10.);
#426=VECTOR('',#1485,10.);
#427=VECTOR('',#1486,10.);
#428=VECTOR('',#1489,10.);
#429=VECTOR('',#1490,10.);
#430=VECTOR('',#1493,10.);
#431=VECTOR('',#1496,10.);
#432=VECTOR('',#1501,10.);
#433=VECTOR('',#1504,10.);
#434=VECTOR('',#1505,10.);
#435=VECTOR('',#1510,10.);
#436=VECTOR('',#1513,10.);
#437=VECTOR('',#1516,10.);
#438=VECTOR('',#1519,10.);
#439=VECTOR('',#1520,10.);
#440=VECTOR('',#1523,10.);
#441=VECTOR('',#1526,10.);
#442=VECTOR('',#1533,10.);
#443=VECTOR('',#1546,10.);
#444=VECTOR('',#1557,10.);
#445=VECTOR('',#1568,10.);
#446=VECTOR('',#1575,10.);
#447=VECTOR('',#1578,10.);
#448=VECTOR('',#1581,10.);
#449=VECTOR('',#1582,10.);
#450=VECTOR('',#1585,10.);
#451=VECTOR('',#1590,10.);
#452=VECTOR('',#1591,10.);
#453=VECTOR('',#1594,10.);
#454=VECTOR('',#1597,10.);
#455=VECTOR('',#1600,10.);
#456=VECTOR('',#1603,10.);
#457=VECTOR('',#1608,10.);
#458=VECTOR('',#1615,1.);
#459=VECTOR('',#1618,10.);
#460=VECTOR('',#1621,10.);
#461=VECTOR('',#1624,10.);
#462=VECTOR('',#1629,10.);
#463=B_SPLINE_CURVE_WITH_KNOTS('',3,(#1636,#1637,#1638,#1639,#1640,#1641,
#1642,#1643,#1644,#1645,#1646,#1647,#1648,#1649,#1650,#1651,#1652,#1653,
#1654,#1655,#1656,#1657),.UNSPECIFIED.,.F.,.F.,(4,2,2,2,2,2,2,2,2,2,4),
(0.160823376552649,0.18233925753703,0.222697941476616,0.263056625416201,
0.310896597320074,0.334816583272011,0.346776576247979,0.352756572735963,
0.355746570979956,0.357241570101952,0.358736569223948),.UNSPECIFIED.);
#464=B_SPLINE_CURVE_WITH_KNOTS('',3,(#1661,#1662,#1663,#1664,#1665,#1666,
#1667,#1668,#1669,#1670,#1671,#1672),.UNSPECIFIED.,.F.,.F.,(4,2,2,2,2,4),
(0.,0.0557551776929484,0.111510355385897,0.149435370781219,0.187360386176541,
0.18910956326503),.UNSPECIFIED.);
#465=VERTEX_POINT('',#1634);
#466=VERTEX_POINT('',#1635);
#467=VERTEX_POINT('',#1658);
#468=VERTEX_POINT('',#1660);
#469=VERTEX_POINT('',#1673);
#470=VERTEX_POINT('',#1675);
#471=VERTEX_POINT('',#1679);
#472=VERTEX_POINT('',#1681);
#473=VERTEX_POINT('',#1683);
#474=VERTEX_POINT('',#1685);
#475=VERTEX_POINT('',#1688);
#476=VERTEX_POINT('',#1691);
#477=VERTEX_POINT('',#1693);
#478=VERTEX_POINT('',#1695);
#479=VERTEX_POINT('',#1699);
#480=VERTEX_POINT('',#1700);
#481=VERTEX_POINT('',#1702);
#482=VERTEX_POINT('',#1704);
#483=VERTEX_POINT('',#1708);
#484=VERTEX_POINT('',#1710);
#485=VERTEX_POINT('',#1714);
#486=VERTEX_POINT('',#1716);
#487=VERTEX_POINT('',#1718);
#488=VERTEX_POINT('',#1720);
#489=VERTEX_POINT('',#1722);
#490=VERTEX_POINT('',#1724);
#491=VERTEX_POINT('',#1726);
#492=VERTEX_POINT('',#1728);
#493=VERTEX_POINT('',#1730);
#494=VERTEX_POINT('',#1732);
#495=VERTEX_POINT('',#1734);
#496=VERTEX_POINT('',#1737);
#497=VERTEX_POINT('',#1739);
#498=VERTEX_POINT('',#1741);
#499=VERTEX_POINT('',#1743);
#500=VERTEX_POINT('',#1745);
#501=VERTEX_POINT('',#1749);
#502=VERTEX_POINT('',#1753);
#503=VERTEX_POINT('',#1755);
#504=VERTEX_POINT('',#1757);
#505=VERTEX_POINT('',#1759);
#506=VERTEX_POINT('',#1761);
#507=VERTEX_POINT('',#1763);
#508=VERTEX_POINT('',#1765);
#509=VERTEX_POINT('',#1767);
#510=VERTEX_POINT('',#1769);
#511=VERTEX_POINT('',#1771);
#512=VERTEX_POINT('',#1773);
#513=VERTEX_POINT('',#1775);
#514=VERTEX_POINT('',#1777);
#515=VERTEX_POINT('',#1779);
#516=VERTEX_POINT('',#1781);
#517=VERTEX_POINT('',#1783);
#518=VERTEX_POINT('',#1785);
#519=VERTEX_POINT('',#1787);
#520=VERTEX_POINT('',#1789);
#521=VERTEX_POINT('',#1792);
#522=VERTEX_POINT('',#1794);
#523=VERTEX_POINT('',#1796);
#524=VERTEX_POINT('',#1798);
#525=VERTEX_POINT('',#1800);
#526=VERTEX_POINT('',#1802);
#527=VERTEX_POINT('',#1804);
#528=VERTEX_POINT('',#1807);
#529=VERTEX_POINT('',#1808);
#530=VERTEX_POINT('',#1810);
#531=VERTEX_POINT('',#1812);
#532=VERTEX_POINT('',#1818);
#533=VERTEX_POINT('',#1819);
#534=VERTEX_POINT('',#1821);
#535=VERTEX_POINT('',#1823);
#536=VERTEX_POINT('',#1825);
#537=VERTEX_POINT('',#1827);
#538=VERTEX_POINT('',#1829);
#539=VERTEX_POINT('',#1831);
#540=VERTEX_POINT('',#1834);
#541=VERTEX_POINT('',#1835);
#542=VERTEX_POINT('',#1837);
#543=VERTEX_POINT('',#1839);
#544=VERTEX_POINT('',#1843);
#545=VERTEX_POINT('',#1845);
#546=VERTEX_POINT('',#1849);
#547=VERTEX_POINT('',#1853);
#548=VERTEX_POINT('',#1854);
#549=VERTEX_POINT('',#1856);
#550=VERTEX_POINT('',#1858);
#551=VERTEX_POINT('',#1860);
#552=VERTEX_POINT('',#1862);
#553=VERTEX_POINT('',#1864);
#554=VERTEX_POINT('',#1866);
#555=VERTEX_POINT('',#1869);
#556=VERTEX_POINT('',#1924);
#557=VERTEX_POINT('',#1926);
#558=VERTEX_POINT('',#1930);
#559=VERTEX_POINT('',#1934);
#560=VERTEX_POINT('',#1938);
#561=VERTEX_POINT('',#1942);
#562=VERTEX_POINT('',#1946);
#563=VERTEX_POINT('',#1950);
#564=VERTEX_POINT('',#1956);
#565=VERTEX_POINT('',#1958);
#566=VERTEX_POINT('',#1962);
#567=VERTEX_POINT('',#1966);
#568=VERTEX_POINT('',#1970);
#569=VERTEX_POINT('',#1974);
#570=VERTEX_POINT('',#1976);
#571=VERTEX_POINT('',#1982);
#572=VERTEX_POINT('',#1988);
#573=EDGE_CURVE('',#465,#466,#463,.F.);
#574=EDGE_CURVE('',#465,#467,#235,.T.);
#575=EDGE_CURVE('',#467,#468,#464,.T.);
#576=EDGE_CURVE('',#468,#469,#233,.T.);
#577=EDGE_CURVE('',#469,#470,#236,.T.);
#578=EDGE_CURVE('',#466,#470,#234,.F.);
#579=EDGE_CURVE('',#469,#471,#237,.T.);
#580=EDGE_CURVE('',#472,#471,#24,.T.);
#581=EDGE_CURVE('',#472,#473,#238,.T.);
#582=EDGE_CURVE('',#474,#473,#25,.T.);
#583=EDGE_CURVE('',#474,#470,#239,.T.);
#584=EDGE_CURVE('',#475,#475,#26,.T.);
#585=EDGE_CURVE('',#476,#467,#240,.T.);
#586=EDGE_CURVE('',#467,#477,#241,.T.);
#587=EDGE_CURVE('',#478,#477,#242,.T.);
#588=EDGE_CURVE('',#478,#476,#243,.T.);
#589=EDGE_CURVE('',#479,#480,#27,.T.);
#590=EDGE_CURVE('',#480,#481,#244,.T.);
#591=EDGE_CURVE('',#481,#482,#28,.T.);
#592=EDGE_CURVE('',#482,#479,#245,.T.);
#593=EDGE_CURVE('',#483,#482,#29,.T.);
#594=EDGE_CURVE('',#484,#483,#246,.T.);
#595=EDGE_CURVE('',#479,#484,#30,.T.);
#596=EDGE_CURVE('',#485,#481,#247,.T.);
#597=EDGE_CURVE('',#486,#485,#31,.T.);
#598=EDGE_CURVE('',#487,#486,#248,.T.);
#599=EDGE_CURVE('',#488,#487,#32,.F.);
#600=EDGE_CURVE('',#488,#489,#249,.T.);
#601=EDGE_CURVE('',#489,#490,#250,.T.);
#602=EDGE_CURVE('',#491,#490,#251,.T.);
#603=EDGE_CURVE('',#492,#491,#252,.T.);
#604=EDGE_CURVE('',#492,#493,#253,.T.);
#605=EDGE_CURVE('',#494,#493,#33,.F.);
#606=EDGE_CURVE('',#495,#494,#254,.T.);
#607=EDGE_CURVE('',#477,#495,#34,.T.);
#608=EDGE_CURVE('',#496,#465,#255,.T.);
#609=EDGE_CURVE('',#497,#496,#35,.T.);
#610=EDGE_CURVE('',#498,#497,#256,.T.);
#611=EDGE_CURVE('',#499,#498,#36,.T.);
#612=EDGE_CURVE('',#500,#499,#257,.T.);
#613=EDGE_CURVE('',#483,#500,#37,.T.);
#614=EDGE_CURVE('',#500,#501,#258,.T.);
#615=EDGE_CURVE('',#501,#484,#38,.T.);
#616=EDGE_CURVE('',#502,#501,#259,.T.);
#617=EDGE_CURVE('',#503,#502,#39,.T.);
#618=EDGE_CURVE('',#503,#504,#260,.T.);
#619=EDGE_CURVE('',#505,#504,#40,.T.);
#620=EDGE_CURVE('',#506,#505,#261,.T.);
#621=EDGE_CURVE('',#507,#506,#41,.T.);
#622=EDGE_CURVE('',#508,#507,#262,.T.);
#623=EDGE_CURVE('',#509,#508,#42,.T.);
#624=EDGE_CURVE('',#510,#509,#263,.T.);
#625=EDGE_CURVE('',#511,#510,#43,.T.);
#626=EDGE_CURVE('',#512,#511,#264,.T.);
#627=EDGE_CURVE('',#513,#512,#44,.T.);
#628=EDGE_CURVE('',#514,#513,#265,.T.);
#629=EDGE_CURVE('',#515,#514,#45,.T.);
#630=EDGE_CURVE('',#516,#515,#266,.T.);
#631=EDGE_CURVE('',#517,#516,#46,.T.);
#632=EDGE_CURVE('',#518,#517,#267,.T.);
#633=EDGE_CURVE('',#519,#518,#47,.T.);
#634=EDGE_CURVE('',#520,#519,#268,.T.);
#635=EDGE_CURVE('',#476,#520,#48,.T.);
#636=EDGE_CURVE('',#521,#478,#49,.T.);
#637=EDGE_CURVE('',#522,#521,#269,.T.);
#638=EDGE_CURVE('',#523,#522,#50,.T.);
#639=EDGE_CURVE('',#524,#523,#270,.T.);
#640=EDGE_CURVE('',#525,#524,#51,.T.);
#641=EDGE_CURVE('',#526,#525,#271,.T.);
#642=EDGE_CURVE('',#527,#526,#52,.T.);
#643=EDGE_CURVE('',#480,#527,#272,.T.);
#644=EDGE_CURVE('',#528,#529,#273,.T.);
#645=EDGE_CURVE('',#529,#530,#274,.T.);
#646=EDGE_CURVE('',#530,#531,#275,.T.);
#647=EDGE_CURVE('',#531,#528,#276,.T.);
#648=EDGE_CURVE('',#502,#499,#277,.T.);
#649=EDGE_CURVE('',#532,#533,#278,.T.);
#650=EDGE_CURVE('',#534,#532,#279,.T.);
#651=EDGE_CURVE('',#535,#534,#280,.T.);
#652=EDGE_CURVE('',#536,#535,#281,.T.);
#653=EDGE_CURVE('',#537,#536,#282,.T.);
#654=EDGE_CURVE('',#538,#537,#283,.T.);
#655=EDGE_CURVE('',#539,#538,#284,.T.);
#656=EDGE_CURVE('',#533,#539,#285,.T.);
#657=EDGE_CURVE('',#540,#541,#286,.T.);
#658=EDGE_CURVE('',#542,#540,#287,.T.);
#659=EDGE_CURVE('',#543,#542,#288,.T.);
#660=EDGE_CURVE('',#541,#543,#289,.T.);
#661=EDGE_CURVE('',#543,#544,#290,.T.);
#662=EDGE_CURVE('',#545,#544,#291,.T.);
#663=EDGE_CURVE('',#541,#545,#292,.T.);
#664=EDGE_CURVE('',#542,#546,#293,.T.);
#665=EDGE_CURVE('',#544,#546,#294,.T.);
#666=EDGE_CURVE('',#547,#548,#53,.T.);
#667=EDGE_CURVE('',#548,#549,#295,.T.);
#668=EDGE_CURVE('',#549,#550,#54,.T.);
#669=EDGE_CURVE('',#550,#551,#296,.T.);
#670=EDGE_CURVE('',#551,#552,#55,.T.);
#671=EDGE_CURVE('',#552,#553,#297,.T.);
#672=EDGE_CURVE('',#553,#554,#56,.T.);
#673=EDGE_CURVE('',#554,#547,#298,.T.);
#674=EDGE_CURVE('',#555,#545,#299,.T.);
#675=EDGE_CURVE('',#546,#555,#300,.T.);
#676=EDGE_CURVE('',#498,#503,#301,.T.);
#677=EDGE_CURVE('',#485,#527,#302,.T.);
#678=EDGE_CURVE('',#526,#486,#303,.T.);
#679=EDGE_CURVE('',#551,#525,#304,.T.);
#680=EDGE_CURVE('',#487,#550,#305,.T.);
#681=EDGE_CURVE('',#504,#497,#306,.T.);
#682=EDGE_CURVE('',#540,#555,#307,.T.);
#683=EDGE_CURVE('',#492,#533,#308,.T.);
#684=EDGE_CURVE('',#491,#532,#309,.T.);
#685=EDGE_CURVE('',#539,#489,#310,.T.);
#686=EDGE_CURVE('',#490,#538,#311,.T.);
#687=EDGE_CURVE('',#549,#488,#312,.T.);
#688=EDGE_CURVE('',#493,#548,#313,.T.);
#689=EDGE_CURVE('',#537,#529,#314,.T.);
#690=EDGE_CURVE('',#534,#528,#315,.T.);
#691=EDGE_CURVE('',#524,#552,#316,.T.);
#692=EDGE_CURVE('',#531,#535,#317,.T.);
#693=EDGE_CURVE('',#495,#521,#318,.T.);
#694=EDGE_CURVE('',#465,#506,#319,.T.);
#695=EDGE_CURVE('',#496,#505,#320,.T.);
#696=EDGE_CURVE('',#520,#468,#321,.T.);
#697=EDGE_CURVE('',#471,#519,#322,.T.);
#698=EDGE_CURVE('',#518,#472,#323,.T.);
#699=EDGE_CURVE('',#517,#510,#324,.T.);
#700=EDGE_CURVE('',#473,#509,#325,.T.);
#701=EDGE_CURVE('',#508,#474,#326,.T.);
#702=EDGE_CURVE('',#466,#507,#327,.T.);
#703=EDGE_CURVE('',#517,#556,#57,.T.);
#704=EDGE_CURVE('',#556,#557,#328,.T.);
#705=EDGE_CURVE('',#557,#510,#58,.T.);
#706=EDGE_CURVE('',#558,#511,#59,.T.);
#707=EDGE_CURVE('',#557,#558,#60,.T.);
#708=EDGE_CURVE('',#559,#512,#61,.T.);
#709=EDGE_CURVE('',#558,#559,#329,.T.);
#710=EDGE_CURVE('',#560,#513,#62,.T.);
#711=EDGE_CURVE('',#559,#560,#63,.T.);
#712=EDGE_CURVE('',#561,#514,#64,.T.);
#713=EDGE_CURVE('',#560,#561,#330,.T.);
#714=EDGE_CURVE('',#562,#515,#65,.T.);
#715=EDGE_CURVE('',#561,#562,#66,.T.);
#716=EDGE_CURVE('',#563,#516,#67,.T.);
#717=EDGE_CURVE('',#562,#563,#331,.T.);
#718=EDGE_CURVE('',#563,#556,#68,.T.);
#719=EDGE_CURVE('',#559,#564,#332,.T.);
#720=EDGE_CURVE('',#564,#565,#69,.T.);
#721=EDGE_CURVE('',#560,#565,#333,.T.);
#722=EDGE_CURVE('',#558,#566,#334,.T.);
#723=EDGE_CURVE('',#566,#564,#335,.T.);
#724=EDGE_CURVE('',#557,#567,#336,.T.);
#725=EDGE_CURVE('',#567,#566,#70,.T.);
#726=EDGE_CURVE('',#556,#568,#337,.T.);
#727=EDGE_CURVE('',#568,#567,#338,.T.);
#728=EDGE_CURVE('',#561,#569,#339,.T.);
#729=EDGE_CURVE('',#569,#570,#71,.T.);
#730=EDGE_CURVE('',#562,#570,#340,.T.);
#731=EDGE_CURVE('',#565,#569,#341,.T.);
#732=EDGE_CURVE('',#563,#571,#342,.T.);
#733=EDGE_CURVE('',#571,#568,#72,.T.);
#734=EDGE_CURVE('',#570,#571,#343,.T.);
#735=EDGE_CURVE('',#572,#572,#73,.T.);
#736=EDGE_CURVE('',#475,#572,#344,.T.);
#737=EDGE_CURVE('',#547,#494,#345,.T.);
#738=EDGE_CURVE('',#522,#554,#346,.T.);
#739=EDGE_CURVE('',#553,#523,#347,.T.);
#740=EDGE_CURVE('',#536,#530,#348,.T.);
#741=ORIENTED_EDGE('',*,*,#573,.F.);
#742=ORIENTED_EDGE('',*,*,#574,.T.);
#743=ORIENTED_EDGE('',*,*,#575,.T.);
#744=ORIENTED_EDGE('',*,*,#576,.T.);
#745=ORIENTED_EDGE('',*,*,#577,.T.);
#746=ORIENTED_EDGE('',*,*,#578,.F.);
#747=ORIENTED_EDGE('',*,*,#577,.F.);
#748=ORIENTED_EDGE('',*,*,#579,.T.);
#749=ORIENTED_EDGE('',*,*,#580,.F.);
#750=ORIENTED_EDGE('',*,*,#581,.T.);
#751=ORIENTED_EDGE('',*,*,#582,.F.);
#752=ORIENTED_EDGE('',*,*,#583,.T.);
#753=ORIENTED_EDGE('',*,*,#584,.T.);
#754=ORIENTED_EDGE('',*,*,#585,.T.);
#755=ORIENTED_EDGE('',*,*,#586,.T.);
#756=ORIENTED_EDGE('',*,*,#587,.F.);
#757=ORIENTED_EDGE('',*,*,#588,.T.);
#758=ORIENTED_EDGE('',*,*,#589,.T.);
#759=ORIENTED_EDGE('',*,*,#590,.T.);
#760=ORIENTED_EDGE('',*,*,#591,.T.);
#761=ORIENTED_EDGE('',*,*,#592,.T.);
#762=ORIENTED_EDGE('',*,*,#592,.F.);
#763=ORIENTED_EDGE('',*,*,#593,.F.);
#764=ORIENTED_EDGE('',*,*,#594,.F.);
#765=ORIENTED_EDGE('',*,*,#595,.F.);
#766=ORIENTED_EDGE('',*,*,#591,.F.);
#767=ORIENTED_EDGE('',*,*,#596,.F.);
#768=ORIENTED_EDGE('',*,*,#597,.F.);
#769=ORIENTED_EDGE('',*,*,#598,.F.);
#770=ORIENTED_EDGE('',*,*,#599,.F.);
#771=ORIENTED_EDGE('',*,*,#600,.T.);
#772=ORIENTED_EDGE('',*,*,#601,.T.);
#773=ORIENTED_EDGE('',*,*,#602,.F.);
#774=ORIENTED_EDGE('',*,*,#603,.F.);
#775=ORIENTED_EDGE('',*,*,#604,.T.);
#776=ORIENTED_EDGE('',*,*,#605,.F.);
#777=ORIENTED_EDGE('',*,*,#606,.F.);
#778=ORIENTED_EDGE('',*,*,#607,.F.);
#779=ORIENTED_EDGE('',*,*,#586,.F.);
#780=ORIENTED_EDGE('',*,*,#574,.F.);
#781=ORIENTED_EDGE('',*,*,#608,.F.);
#782=ORIENTED_EDGE('',*,*,#609,.F.);
#783=ORIENTED_EDGE('',*,*,#610,.F.);
#784=ORIENTED_EDGE('',*,*,#611,.F.);
#785=ORIENTED_EDGE('',*,*,#612,.F.);
#786=ORIENTED_EDGE('',*,*,#613,.F.);
#787=ORIENTED_EDGE('',*,*,#593,.T.);
#788=ORIENTED_EDGE('',*,*,#613,.T.);
#789=ORIENTED_EDGE('',*,*,#614,.T.);
#790=ORIENTED_EDGE('',*,*,#615,.T.);
#791=ORIENTED_EDGE('',*,*,#594,.T.);
#792=ORIENTED_EDGE('',*,*,#589,.F.);
#793=ORIENTED_EDGE('',*,*,#595,.T.);
#794=ORIENTED_EDGE('',*,*,#615,.F.);
#795=ORIENTED_EDGE('',*,*,#616,.F.);
#796=ORIENTED_EDGE('',*,*,#617,.F.);
#797=ORIENTED_EDGE('',*,*,#618,.T.);
#798=ORIENTED_EDGE('',*,*,#619,.F.);
#799=ORIENTED_EDGE('',*,*,#620,.F.);
#800=ORIENTED_EDGE('',*,*,#621,.F.);
#801=ORIENTED_EDGE('',*,*,#622,.F.);
#802=ORIENTED_EDGE('',*,*,#623,.F.);
#803=ORIENTED_EDGE('',*,*,#624,.F.);
#804=ORIENTED_EDGE('',*,*,#625,.F.);
#805=ORIENTED_EDGE('',*,*,#626,.F.);
#806=ORIENTED_EDGE('',*,*,#627,.F.);
#807=ORIENTED_EDGE('',*,*,#628,.F.);
#808=ORIENTED_EDGE('',*,*,#629,.F.);
#809=ORIENTED_EDGE('',*,*,#630,.F.);
#810=ORIENTED_EDGE('',*,*,#631,.F.);
#811=ORIENTED_EDGE('',*,*,#632,.F.);
#812=ORIENTED_EDGE('',*,*,#633,.F.);
#813=ORIENTED_EDGE('',*,*,#634,.F.);
#814=ORIENTED_EDGE('',*,*,#635,.F.);
#815=ORIENTED_EDGE('',*,*,#588,.F.);
#816=ORIENTED_EDGE('',*,*,#636,.F.);
#817=ORIENTED_EDGE('',*,*,#637,.F.);
#818=ORIENTED_EDGE('',*,*,#638,.F.);
#819=ORIENTED_EDGE('',*,*,#639,.F.);
#820=ORIENTED_EDGE('',*,*,#640,.F.);
#821=ORIENTED_EDGE('',*,*,#641,.F.);
#822=ORIENTED_EDGE('',*,*,#642,.F.);
#823=ORIENTED_EDGE('',*,*,#643,.F.);
#824=ORIENTED_EDGE('',*,*,#644,.T.);
#825=ORIENTED_EDGE('',*,*,#645,.T.);
#826=ORIENTED_EDGE('',*,*,#646,.T.);
#827=ORIENTED_EDGE('',*,*,#647,.T.);
#828=ORIENTED_EDGE('',*,*,#614,.F.);
#829=ORIENTED_EDGE('',*,*,#612,.T.);
#830=ORIENTED_EDGE('',*,*,#648,.F.);
#831=ORIENTED_EDGE('',*,*,#616,.T.);
#832=ORIENTED_EDGE('',*,*,#649,.F.);
#833=ORIENTED_EDGE('',*,*,#650,.F.);
#834=ORIENTED_EDGE('',*,*,#651,.F.);
#835=ORIENTED_EDGE('',*,*,#652,.F.);
#836=ORIENTED_EDGE('',*,*,#653,.F.);
#837=ORIENTED_EDGE('',*,*,#654,.F.);
#838=ORIENTED_EDGE('',*,*,#655,.F.);
#839=ORIENTED_EDGE('',*,*,#656,.F.);
#840=ORIENTED_EDGE('',*,*,#657,.F.);
#841=ORIENTED_EDGE('',*,*,#658,.F.);
#842=ORIENTED_EDGE('',*,*,#659,.F.);
#843=ORIENTED_EDGE('',*,*,#660,.F.);
#844=ORIENTED_EDGE('',*,*,#660,.T.);
#845=ORIENTED_EDGE('',*,*,#661,.T.);
#846=ORIENTED_EDGE('',*,*,#662,.F.);
#847=ORIENTED_EDGE('',*,*,#663,.F.);
#848=ORIENTED_EDGE('',*,*,#659,.T.);
#849=ORIENTED_EDGE('',*,*,#664,.T.);
#850=ORIENTED_EDGE('',*,*,#665,.F.);
#851=ORIENTED_EDGE('',*,*,#661,.F.);
#852=ORIENTED_EDGE('',*,*,#666,.T.);
#853=ORIENTED_EDGE('',*,*,#667,.T.);
#854=ORIENTED_EDGE('',*,*,#668,.T.);
#855=ORIENTED_EDGE('',*,*,#669,.T.);
#856=ORIENTED_EDGE('',*,*,#670,.T.);
#857=ORIENTED_EDGE('',*,*,#671,.T.);
#858=ORIENTED_EDGE('',*,*,#672,.T.);
#859=ORIENTED_EDGE('',*,*,#673,.T.);
#860=ORIENTED_EDGE('',*,*,#674,.T.);
#861=ORIENTED_EDGE('',*,*,#662,.T.);
#862=ORIENTED_EDGE('',*,*,#665,.T.);
#863=ORIENTED_EDGE('',*,*,#675,.T.);
#864=ORIENTED_EDGE('',*,*,#611,.T.);
#865=ORIENTED_EDGE('',*,*,#676,.T.);
#866=ORIENTED_EDGE('',*,*,#617,.T.);
#867=ORIENTED_EDGE('',*,*,#648,.T.);
#868=ORIENTED_EDGE('',*,*,#590,.F.);
#869=ORIENTED_EDGE('',*,*,#643,.T.);
#870=ORIENTED_EDGE('',*,*,#677,.F.);
#871=ORIENTED_EDGE('',*,*,#596,.T.);
#872=ORIENTED_EDGE('',*,*,#597,.T.);
#873=ORIENTED_EDGE('',*,*,#677,.T.);
#874=ORIENTED_EDGE('',*,*,#642,.T.);
#875=ORIENTED_EDGE('',*,*,#678,.T.);
#876=ORIENTED_EDGE('',*,*,#678,.F.);
#877=ORIENTED_EDGE('',*,*,#641,.T.);
#878=ORIENTED_EDGE('',*,*,#679,.F.);
#879=ORIENTED_EDGE('',*,*,#669,.F.);
#880=ORIENTED_EDGE('',*,*,#680,.F.);
#881=ORIENTED_EDGE('',*,*,#598,.T.);
#882=ORIENTED_EDGE('',*,*,#676,.F.);
#883=ORIENTED_EDGE('',*,*,#610,.T.);
#884=ORIENTED_EDGE('',*,*,#681,.F.);
#885=ORIENTED_EDGE('',*,*,#618,.F.);
#886=ORIENTED_EDGE('',*,*,#657,.T.);
#887=ORIENTED_EDGE('',*,*,#663,.T.);
#888=ORIENTED_EDGE('',*,*,#674,.F.);
#889=ORIENTED_EDGE('',*,*,#682,.F.);
#890=ORIENTED_EDGE('',*,*,#658,.T.);
#891=ORIENTED_EDGE('',*,*,#682,.T.);
#892=ORIENTED_EDGE('',*,*,#675,.F.);
#893=ORIENTED_EDGE('',*,*,#664,.F.);
#894=ORIENTED_EDGE('',*,*,#683,.F.);
#895=ORIENTED_EDGE('',*,*,#603,.T.);
#896=ORIENTED_EDGE('',*,*,#684,.T.);
#897=ORIENTED_EDGE('',*,*,#649,.T.);
#898=ORIENTED_EDGE('',*,*,#685,.F.);
#899=ORIENTED_EDGE('',*,*,#655,.T.);
#900=ORIENTED_EDGE('',*,*,#686,.F.);
#901=ORIENTED_EDGE('',*,*,#601,.F.);
#902=ORIENTED_EDGE('',*,*,#685,.T.);
#903=ORIENTED_EDGE('',*,*,#600,.F.);
#904=ORIENTED_EDGE('',*,*,#687,.F.);
#905=ORIENTED_EDGE('',*,*,#667,.F.);
#906=ORIENTED_EDGE('',*,*,#688,.F.);
#907=ORIENTED_EDGE('',*,*,#604,.F.);
#908=ORIENTED_EDGE('',*,*,#683,.T.);
#909=ORIENTED_EDGE('',*,*,#656,.T.);
#910=ORIENTED_EDGE('',*,*,#686,.T.);
#911=ORIENTED_EDGE('',*,*,#654,.T.);
#912=ORIENTED_EDGE('',*,*,#689,.T.);
#913=ORIENTED_EDGE('',*,*,#644,.F.);
#914=ORIENTED_EDGE('',*,*,#690,.F.);
#915=ORIENTED_EDGE('',*,*,#650,.T.);
#916=ORIENTED_EDGE('',*,*,#684,.F.);
#917=ORIENTED_EDGE('',*,*,#602,.T.);
#918=ORIENTED_EDGE('',*,*,#679,.T.);
#919=ORIENTED_EDGE('',*,*,#640,.T.);
#920=ORIENTED_EDGE('',*,*,#691,.T.);
#921=ORIENTED_EDGE('',*,*,#670,.F.);
#922=ORIENTED_EDGE('',*,*,#690,.T.);
#923=ORIENTED_EDGE('',*,*,#647,.F.);
#924=ORIENTED_EDGE('',*,*,#692,.T.);
#925=ORIENTED_EDGE('',*,*,#651,.T.);
#926=ORIENTED_EDGE('',*,*,#687,.T.);
#927=ORIENTED_EDGE('',*,*,#599,.T.);
#928=ORIENTED_EDGE('',*,*,#680,.T.);
#929=ORIENTED_EDGE('',*,*,#668,.F.);
#930=ORIENTED_EDGE('',*,*,#636,.T.);
#931=ORIENTED_EDGE('',*,*,#587,.T.);
#932=ORIENTED_EDGE('',*,*,#607,.T.);
#933=ORIENTED_EDGE('',*,*,#693,.T.);
#934=ORIENTED_EDGE('',*,*,#694,.T.);
#935=ORIENTED_EDGE('',*,*,#620,.T.);
#936=ORIENTED_EDGE('',*,*,#695,.F.);
#937=ORIENTED_EDGE('',*,*,#608,.T.);
#938=ORIENTED_EDGE('',*,*,#609,.T.);
#939=ORIENTED_EDGE('',*,*,#695,.T.);
#940=ORIENTED_EDGE('',*,*,#619,.T.);
#941=ORIENTED_EDGE('',*,*,#681,.T.);
#942=ORIENTED_EDGE('',*,*,#585,.F.);
#943=ORIENTED_EDGE('',*,*,#635,.T.);
#944=ORIENTED_EDGE('',*,*,#696,.T.);
#945=ORIENTED_EDGE('',*,*,#575,.F.);
#946=ORIENTED_EDGE('',*,*,#696,.F.);
#947=ORIENTED_EDGE('',*,*,#634,.T.);
#948=ORIENTED_EDGE('',*,*,#697,.F.);
#949=ORIENTED_EDGE('',*,*,#579,.F.);
#950=ORIENTED_EDGE('',*,*,#576,.F.);
#951=ORIENTED_EDGE('',*,*,#580,.T.);
#952=ORIENTED_EDGE('',*,*,#697,.T.);
#953=ORIENTED_EDGE('',*,*,#633,.T.);
#954=ORIENTED_EDGE('',*,*,#698,.T.);
#955=ORIENTED_EDGE('',*,*,#698,.F.);
#956=ORIENTED_EDGE('',*,*,#632,.T.);
#957=ORIENTED_EDGE('',*,*,#699,.T.);
#958=ORIENTED_EDGE('',*,*,#624,.T.);
#959=ORIENTED_EDGE('',*,*,#700,.F.);
#960=ORIENTED_EDGE('',*,*,#581,.F.);
#961=ORIENTED_EDGE('',*,*,#582,.T.);
#962=ORIENTED_EDGE('',*,*,#700,.T.);
#963=ORIENTED_EDGE('',*,*,#623,.T.);
#964=ORIENTED_EDGE('',*,*,#701,.T.);
#965=ORIENTED_EDGE('',*,*,#694,.F.);
#966=ORIENTED_EDGE('',*,*,#573,.T.);
#967=ORIENTED_EDGE('',*,*,#702,.T.);
#968=ORIENTED_EDGE('',*,*,#621,.T.);
#969=ORIENTED_EDGE('',*,*,#701,.F.);
#970=ORIENTED_EDGE('',*,*,#622,.T.);
#971=ORIENTED_EDGE('',*,*,#702,.F.);
#972=ORIENTED_EDGE('',*,*,#578,.T.);
#973=ORIENTED_EDGE('',*,*,#583,.F.);
#974=ORIENTED_EDGE('',*,*,#703,.T.);
#975=ORIENTED_EDGE('',*,*,#704,.T.);
#976=ORIENTED_EDGE('',*,*,#705,.T.);
#977=ORIENTED_EDGE('',*,*,#699,.F.);
#978=ORIENTED_EDGE('',*,*,#706,.T.);
#979=ORIENTED_EDGE('',*,*,#625,.T.);
#980=ORIENTED_EDGE('',*,*,#705,.F.);
#981=ORIENTED_EDGE('',*,*,#707,.T.);
#982=ORIENTED_EDGE('',*,*,#708,.T.);
#983=ORIENTED_EDGE('',*,*,#626,.T.);
#984=ORIENTED_EDGE('',*,*,#706,.F.);
#985=ORIENTED_EDGE('',*,*,#709,.T.);
#986=ORIENTED_EDGE('',*,*,#710,.T.);
#987=ORIENTED_EDGE('',*,*,#627,.T.);
#988=ORIENTED_EDGE('',*,*,#708,.F.);
#989=ORIENTED_EDGE('',*,*,#711,.T.);
#990=ORIENTED_EDGE('',*,*,#712,.T.);
#991=ORIENTED_EDGE('',*,*,#628,.T.);
#992=ORIENTED_EDGE('',*,*,#710,.F.);
#993=ORIENTED_EDGE('',*,*,#713,.T.);
#994=ORIENTED_EDGE('',*,*,#714,.T.);
#995=ORIENTED_EDGE('',*,*,#629,.T.);
#996=ORIENTED_EDGE('',*,*,#712,.F.);
#997=ORIENTED_EDGE('',*,*,#715,.T.);
#998=ORIENTED_EDGE('',*,*,#716,.T.);
#999=ORIENTED_EDGE('',*,*,#630,.T.);
#1000=ORIENTED_EDGE('',*,*,#714,.F.);
#1001=ORIENTED_EDGE('',*,*,#717,.T.);
#1002=ORIENTED_EDGE('',*,*,#703,.F.);
#1003=ORIENTED_EDGE('',*,*,#631,.T.);
#1004=ORIENTED_EDGE('',*,*,#716,.F.);
#1005=ORIENTED_EDGE('',*,*,#718,.T.);
#1006=ORIENTED_EDGE('',*,*,#711,.F.);
#1007=ORIENTED_EDGE('',*,*,#719,.T.);
#1008=ORIENTED_EDGE('',*,*,#720,.T.);
#1009=ORIENTED_EDGE('',*,*,#721,.F.);
#1010=ORIENTED_EDGE('',*,*,#709,.F.);
#1011=ORIENTED_EDGE('',*,*,#722,.T.);
#1012=ORIENTED_EDGE('',*,*,#723,.T.);
#1013=ORIENTED_EDGE('',*,*,#719,.F.);
#1014=ORIENTED_EDGE('',*,*,#707,.F.);
#1015=ORIENTED_EDGE('',*,*,#724,.T.);
#1016=ORIENTED_EDGE('',*,*,#725,.T.);
#1017=ORIENTED_EDGE('',*,*,#722,.F.);
#1018=ORIENTED_EDGE('',*,*,#704,.F.);
#1019=ORIENTED_EDGE('',*,*,#726,.T.);
#1020=ORIENTED_EDGE('',*,*,#727,.T.);
#1021=ORIENTED_EDGE('',*,*,#724,.F.);
#1022=ORIENTED_EDGE('',*,*,#715,.F.);
#1023=ORIENTED_EDGE('',*,*,#728,.T.);
#1024=ORIENTED_EDGE('',*,*,#729,.T.);
#1025=ORIENTED_EDGE('',*,*,#730,.F.);
#1026=ORIENTED_EDGE('',*,*,#713,.F.);
#1027=ORIENTED_EDGE('',*,*,#721,.T.);
#1028=ORIENTED_EDGE('',*,*,#731,.T.);
#1029=ORIENTED_EDGE('',*,*,#728,.F.);
#1030=ORIENTED_EDGE('',*,*,#718,.F.);
#1031=ORIENTED_EDGE('',*,*,#732,.T.);
#1032=ORIENTED_EDGE('',*,*,#733,.T.);
#1033=ORIENTED_EDGE('',*,*,#726,.F.);
#1034=ORIENTED_EDGE('',*,*,#717,.F.);
#1035=ORIENTED_EDGE('',*,*,#730,.T.);
#1036=ORIENTED_EDGE('',*,*,#734,.T.);
#1037=ORIENTED_EDGE('',*,*,#732,.F.);
#1038=ORIENTED_EDGE('',*,*,#734,.F.);
#1039=ORIENTED_EDGE('',*,*,#729,.F.);
#1040=ORIENTED_EDGE('',*,*,#731,.F.);
#1041=ORIENTED_EDGE('',*,*,#720,.F.);
#1042=ORIENTED_EDGE('',*,*,#723,.F.);
#1043=ORIENTED_EDGE('',*,*,#725,.F.);
#1044=ORIENTED_EDGE('',*,*,#727,.F.);
#1045=ORIENTED_EDGE('',*,*,#733,.F.);
#1046=ORIENTED_EDGE('',*,*,#735,.F.);
#1047=ORIENTED_EDGE('',*,*,#584,.F.);
#1048=ORIENTED_EDGE('',*,*,#736,.T.);
#1049=ORIENTED_EDGE('',*,*,#735,.T.);
#1050=ORIENTED_EDGE('',*,*,#736,.F.);
#1051=ORIENTED_EDGE('',*,*,#737,.T.);
#1052=ORIENTED_EDGE('',*,*,#605,.T.);
#1053=ORIENTED_EDGE('',*,*,#688,.T.);
#1054=ORIENTED_EDGE('',*,*,#666,.F.);
#1055=ORIENTED_EDGE('',*,*,#738,.F.);
#1056=ORIENTED_EDGE('',*,*,#637,.T.);
#1057=ORIENTED_EDGE('',*,*,#693,.F.);
#1058=ORIENTED_EDGE('',*,*,#606,.T.);
#1059=ORIENTED_EDGE('',*,*,#737,.F.);
#1060=ORIENTED_EDGE('',*,*,#673,.F.);
#1061=ORIENTED_EDGE('',*,*,#739,.T.);
#1062=ORIENTED_EDGE('',*,*,#638,.T.);
#1063=ORIENTED_EDGE('',*,*,#738,.T.);
#1064=ORIENTED_EDGE('',*,*,#672,.F.);
#1065=ORIENTED_EDGE('',*,*,#691,.F.);
#1066=ORIENTED_EDGE('',*,*,#639,.T.);
#1067=ORIENTED_EDGE('',*,*,#739,.F.);
#1068=ORIENTED_EDGE('',*,*,#671,.F.);
#1069=ORIENTED_EDGE('',*,*,#692,.F.);
#1070=ORIENTED_EDGE('',*,*,#646,.F.);
#1071=ORIENTED_EDGE('',*,*,#740,.F.);
#1072=ORIENTED_EDGE('',*,*,#652,.T.);
#1073=ORIENTED_EDGE('',*,*,#740,.T.);
#1074=ORIENTED_EDGE('',*,*,#645,.F.);
#1075=ORIENTED_EDGE('',*,*,#689,.F.);
#1076=ORIENTED_EDGE('',*,*,#653,.T.);
#1077=CYLINDRICAL_SURFACE('',#1177,1.1);
#1078=CYLINDRICAL_SURFACE('',#1185,10.);
#1079=CYLINDRICAL_SURFACE('',#1188,5.);
#1080=CYLINDRICAL_SURFACE('',#1199,10.);
#1081=CYLINDRICAL_SURFACE('',#1225,10.);
#1082=CYLINDRICAL_SURFACE('',#1227,10.);
#1083=CYLINDRICAL_SURFACE('',#1236,1.);
#1084=CYLINDRICAL_SURFACE('',#1238,1.);
#1085=CYLINDRICAL_SURFACE('',#1239,1.);
#1086=CYLINDRICAL_SURFACE('',#1241,1.);
#1087=CYLINDRICAL_SURFACE('',#1242,1.);
#1088=CYLINDRICAL_SURFACE('',#1244,1.);
#1089=CYLINDRICAL_SURFACE('',#1246,1.);
#1090=CYLINDRICAL_SURFACE('',#1247,1.);
#1091=CYLINDRICAL_SURFACE('',#1249,1.);
#1092=CYLINDRICAL_SURFACE('',#1255,1.);
#1093=CYLINDRICAL_SURFACE('',#1260,1.);
#1094=CYLINDRICAL_SURFACE('',#1265,1.);
#1095=CYLINDRICAL_SURFACE('',#1269,1.00000000000001);
#1096=CYLINDRICAL_SURFACE('',#1272,0.999999999999996);
#1097=CYLINDRICAL_SURFACE('',#1275,1.00000000000001);
#1098=CYLINDRICAL_SURFACE('',#1278,0.999999999999996);
#1099=CYLINDRICAL_SURFACE('',#1283,1.);
#1100=CYLINDRICAL_SURFACE('',#1284,1.);
#1101=CYLINDRICAL_SURFACE('',#1286,1.);
#1102=ADVANCED_FACE('',(#106),#1077,.F.);
#1103=ADVANCED_FACE('',(#107,#19),#74,.T.);
#1104=ADVANCED_FACE('',(#108),#75,.T.);
#1105=ADVANCED_FACE('',(#109),#1078,.T.);
#1106=ADVANCED_FACE('',(#110),#1079,.F.);
#1107=ADVANCED_FACE('',(#111),#76,.T.);
#1108=ADVANCED_FACE('',(#112),#1080,.T.);
#1109=ADVANCED_FACE('',(#113,#20),#77,.T.);
#1110=ADVANCED_FACE('',(#114),#78,.F.);
#1111=ADVANCED_FACE('',(#115,#21),#79,.F.);
#1112=ADVANCED_FACE('',(#116),#80,.T.);
#1113=ADVANCED_FACE('',(#117),#81,.T.);
#1114=ADVANCED_FACE('',(#118,#22),#82,.T.);
#1115=ADVANCED_FACE('',(#119),#1081,.T.);
#1116=ADVANCED_FACE('',(#120),#83,.F.);
#1117=ADVANCED_FACE('',(#121),#1082,.T.);
#1118=ADVANCED_FACE('',(#122),#84,.T.);
#1119=ADVANCED_FACE('',(#123),#85,.F.);
#1120=ADVANCED_FACE('',(#124),#86,.T.);
#1121=ADVANCED_FACE('',(#125),#87,.T.);
#1122=ADVANCED_FACE('',(#126),#88,.F.);
#1123=ADVANCED_FACE('',(#127),#89,.F.);
#1124=ADVANCED_FACE('',(#128),#90,.T.);
#1125=ADVANCED_FACE('',(#129),#91,.F.);
#1126=ADVANCED_FACE('',(#130),#1083,.T.);
#1127=ADVANCED_FACE('',(#131),#92,.F.);
#1128=ADVANCED_FACE('',(#132),#1084,.T.);
#1129=ADVANCED_FACE('',(#133),#1085,.F.);
#1130=ADVANCED_FACE('',(#134),#93,.T.);
#1131=ADVANCED_FACE('',(#135),#1086,.T.);
#1132=ADVANCED_FACE('',(#136),#1087,.F.);
#1133=ADVANCED_FACE('',(#137),#94,.T.);
#1134=ADVANCED_FACE('',(#138),#1088,.T.);
#1135=ADVANCED_FACE('',(#139),#95,.T.);
#1136=ADVANCED_FACE('',(#140),#1089,.T.);
#1137=ADVANCED_FACE('',(#141),#1090,.F.);
#1138=ADVANCED_FACE('',(#142),#96,.T.);
#1139=ADVANCED_FACE('',(#143),#1091,.T.);
#1140=ADVANCED_FACE('',(#144),#15,.T.);
#1141=ADVANCED_FACE('',(#145),#1092,.T.);
#1142=ADVANCED_FACE('',(#146),#16,.T.);
#1143=ADVANCED_FACE('',(#147),#1093,.T.);
#1144=ADVANCED_FACE('',(#148),#17,.T.);
#1145=ADVANCED_FACE('',(#149),#1094,.T.);
#1146=ADVANCED_FACE('',(#150),#18,.T.);
#1147=ADVANCED_FACE('',(#151),#1095,.F.);
#1148=ADVANCED_FACE('',(#152),#97,.F.);
#1149=ADVANCED_FACE('',(#153),#1096,.F.);
#1150=ADVANCED_FACE('',(#154),#98,.F.);
#1151=ADVANCED_FACE('',(#155),#1097,.F.);
#1152=ADVANCED_FACE('',(#156),#99,.F.);
#1153=ADVANCED_FACE('',(#157),#1098,.F.);
#1154=ADVANCED_FACE('',(#158),#100,.F.);
#1155=ADVANCED_FACE('',(#159,#23),#101,.F.);
#1156=ADVANCED_FACE('',(#160),#1099,.F.);
#1157=ADVANCED_FACE('',(#161),#1100,.T.);
#1158=ADVANCED_FACE('',(#162),#102,.T.);
#1159=ADVANCED_FACE('',(#163),#1101,.T.);
#1160=ADVANCED_FACE('',(#164),#103,.T.);
#1161=ADVANCED_FACE('',(#165),#104,.F.);
#1162=ADVANCED_FACE('',(#166),#105,.F.);
#1163=CLOSED_SHELL('',(#1102,#1103,#1104,#1105,#1106,#1107,#1108,#1109,
#1110,#1111,#1112,#1113,#1114,#1115,#1116,#1117,#1118,#1119,#1120,#1121,
#1122,#1123,#1124,#1125,#1126,#1127,#1128,#1129,#1130,#1131,#1132,#1133,
#1134,#1135,#1136,#1137,#1138,#1139,#1140,#1141,#1142,#1143,#1144,#1145,
#1146,#1147,#1148,#1149,#1150,#1151,#1152,#1153,#1154,#1155,#1156,#1157,
#1158,#1159,#1160,#1161,#1162));
#1164=DERIVED_UNIT_ELEMENT(#1166,1.);
#1165=DERIVED_UNIT_ELEMENT(#2007,-3.);
#1166=(
MASS_UNIT()
NAMED_UNIT(*)
SI_UNIT(.KILO.,.GRAM.)
);
#1167=DERIVED_UNIT((#1164,#1165));
#1168=MEASURE_REPRESENTATION_ITEM('density measure',
POSITIVE_RATIO_MEASURE(7850.),#1167);
#1169=PROPERTY_DEFINITION_REPRESENTATION(#1174,#1171);
#1170=PROPERTY_DEFINITION_REPRESENTATION(#1175,#1172);
#1171=REPRESENTATION('material name',(#1173),#2004);
#1172=REPRESENTATION('density',(#1168),#2004);
#1173=DESCRIPTIVE_REPRESENTATION_ITEM('Steel','Steel');
#1174=PROPERTY_DEFINITION('material property','material name',#2014);
#1175=PROPERTY_DEFINITION('material property','density of part',#2014);
#1176=AXIS2_PLACEMENT_3D('',#1632,#1290,#1291);
#1177=AXIS2_PLACEMENT_3D('',#1633,#1292,#1293);
#1178=AXIS2_PLACEMENT_3D('',#1674,#1295,#1296);
#1179=AXIS2_PLACEMENT_3D('',#1677,#1298,#1299);
#1180=AXIS2_PLACEMENT_3D('',#1678,#1300,#1301);
#1181=AXIS2_PLACEMENT_3D('',#1682,#1303,#1304);
#1182=AXIS2_PLACEMENT_3D('',#1686,#1306,#1307);
#1183=AXIS2_PLACEMENT_3D('',#1689,#1309,#1310);
#1184=AXIS2_PLACEMENT_3D('',#1690,#1311,#1312);
#1185=AXIS2_PLACEMENT_3D('',#1698,#1317,#1318);
#1186=AXIS2_PLACEMENT_3D('',#1701,#1319,#1320);
#1187=AXIS2_PLACEMENT_3D('',#1705,#1322,#1323);
#1188=AXIS2_PLACEMENT_3D('',#1707,#1325,#1326);
#1189=AXIS2_PLACEMENT_3D('',#1709,#1327,#1328);
#1190=AXIS2_PLACEMENT_3D('',#1712,#1330,#1331);
#1191=AXIS2_PLACEMENT_3D('',#1713,#1332,#1333);
#1192=AXIS2_PLACEMENT_3D('',#1717,#1335,#1336);
#1193=AXIS2_PLACEMENT_3D('',#1721,#1338,#1339);
#1194=AXIS2_PLACEMENT_3D('',#1733,#1345,#1346);
#1195=AXIS2_PLACEMENT_3D('',#1736,#1348,#1349);
#1196=AXIS2_PLACEMENT_3D('',#1740,#1351,#1352);
#1197=AXIS2_PLACEMENT_3D('',#1744,#1354,#1355);
#1198=AXIS2_PLACEMENT_3D('',#1747,#1357,#1358);
#1199=AXIS2_PLACEMENT_3D('',#1748,#1359,#1360);
#1200=AXIS2_PLACEMENT_3D('',#1751,#1362,#1363);
#1201=AXIS2_PLACEMENT_3D('',#1752,#1364,#1365);
#1202=AXIS2_PLACEMENT_3D('',#1756,#1367,#1368);
#1203=AXIS2_PLACEMENT_3D('',#1760,#1370,#1371);
#1204=AXIS2_PLACEMENT_3D('',#1764,#1373,#1374);
#1205=AXIS2_PLACEMENT_3D('',#1768,#1376,#1377);
#1206=AXIS2_PLACEMENT_3D('',#1772,#1379,#1380);
#1207=AXIS2_PLACEMENT_3D('',#1776,#1382,#1383);
#1208=AXIS2_PLACEMENT_3D('',#1780,#1385,#1386);
#1209=AXIS2_PLACEMENT_3D('',#1784,#1388,#1389);
#1210=AXIS2_PLACEMENT_3D('',#1788,#1391,#1392);
#1211=AXIS2_PLACEMENT_3D('',#1791,#1394,#1395);
#1212=AXIS2_PLACEMENT_3D('',#1793,#1396,#1397);
#1213=AXIS2_PLACEMENT_3D('',#1797,#1399,#1400);
#1214=AXIS2_PLACEMENT_3D('',#1801,#1402,#1403);
#1215=AXIS2_PLACEMENT_3D('',#1805,#1405,#1406);
#1216=AXIS2_PLACEMENT_3D('',#1815,#1412,#1413);
#1217=AXIS2_PLACEMENT_3D('',#1817,#1415,#1416);
#1218=AXIS2_PLACEMENT_3D('',#1842,#1429,#1430);
#1219=AXIS2_PLACEMENT_3D('',#1848,#1434,#1435);
#1220=AXIS2_PLACEMENT_3D('',#1852,#1438,#1439);
#1221=AXIS2_PLACEMENT_3D('',#1855,#1440,#1441);
#1222=AXIS2_PLACEMENT_3D('',#1859,#1443,#1444);
#1223=AXIS2_PLACEMENT_3D('',#1863,#1446,#1447);
#1224=AXIS2_PLACEMENT_3D('',#1867,#1449,#1450);
#1225=AXIS2_PLACEMENT_3D('',#1872,#1454,#1455);
#1226=AXIS2_PLACEMENT_3D('',#1874,#1457,#1458);
#1227=AXIS2_PLACEMENT_3D('',#1876,#1460,#1461);
#1228=AXIS2_PLACEMENT_3D('',#1878,#1463,#1464);
#1229=AXIS2_PLACEMENT_3D('',#1881,#1467,#1468);
#1230=AXIS2_PLACEMENT_3D('',#1883,#1470,#1471);
#1231=AXIS2_PLACEMENT_3D('',#1885,#1473,#1474);
#1232=AXIS2_PLACEMENT_3D('',#1886,#1475,#1476);
#1233=AXIS2_PLACEMENT_3D('',#1889,#1479,#1480);
#1234=AXIS2_PLACEMENT_3D('',#1892,#1483,#1484);
#1235=AXIS2_PLACEMENT_3D('',#1895,#1487,#1488);
#1236=AXIS2_PLACEMENT_3D('',#1898,#1491,#1492);
#1237=AXIS2_PLACEMENT_3D('',#1900,#1494,#1495);
#1238=AXIS2_PLACEMENT_3D('',#1902,#1497,#1498);
#1239=AXIS2_PLACEMENT_3D('',#1903,#1499,#1500);
#1240=AXIS2_PLACEMENT_3D('',#1905,#1502,#1503);
#1241=AXIS2_PLACEMENT_3D('',#1908,#1506,#1507);
#1242=AXIS2_PLACEMENT_3D('',#1909,#1508,#1509);
#1243=AXIS2_PLACEMENT_3D('',#1911,#1511,#1512);
#1244=AXIS2_PLACEMENT_3D('',#1913,#1514,#1515);
#1245=AXIS2_PLACEMENT_3D('',#1915,#1517,#1518);
#1246=AXIS2_PLACEMENT_3D('',#1918,#1521,#1522);
#1247=AXIS2_PLACEMENT_3D('',#1920,#1524,#1525);
#1248=AXIS2_PLACEMENT_3D('',#1922,#1527,#1528);
#1249=AXIS2_PLACEMENT_3D('',#1923,#1529,#1530);
#1250=AXIS2_PLACEMENT_3D('',#1925,#1531,#1532);
#1251=AXIS2_PLACEMENT_3D('',#1928,#1534,#1535);
#1252=AXIS2_PLACEMENT_3D('',#1929,#1536,#1537);
#1253=AXIS2_PLACEMENT_3D('',#1931,#1538,#1539);
#1254=AXIS2_PLACEMENT_3D('',#1932,#1540,#1541);
#1255=AXIS2_PLACEMENT_3D('',#1933,#1542,#1543);
#1256=AXIS2_PLACEMENT_3D('',#1935,#1544,#1545);
#1257=AXIS2_PLACEMENT_3D('',#1937,#1547,#1548);
#1258=AXIS2_PLACEMENT_3D('',#1939,#1549,#1550);
#1259=AXIS2_PLACEMENT_3D('',#1940,#1551,#1552);
#1260=AXIS2_PLACEMENT_3D('',#1941,#1553,#1554);
#1261=AXIS2_PLACEMENT_3D('',#1943,#1555,#1556);
#1262=AXIS2_PLACEMENT_3D('',#1945,#1558,#1559);
#1263=AXIS2_PLACEMENT_3D('',#1947,#1560,#1561);
#1264=AXIS2_PLACEMENT_3D('',#1948,#1562,#1563);
#1265=AXIS2_PLACEMENT_3D('',#1949,#1564,#1565);
#1266=AXIS2_PLACEMENT_3D('',#1951,#1566,#1567);
#1267=AXIS2_PLACEMENT_3D('',#1953,#1569,#1570);
#1268=AXIS2_PLACEMENT_3D('',#1954,#1571,#1572);
#1269=AXIS2_PLACEMENT_3D('',#1955,#1573,#1574);
#1270=AXIS2_PLACEMENT_3D('',#1959,#1576,#1577);
#1271=AXIS2_PLACEMENT_3D('',#1961,#1579,#1580);
#1272=AXIS2_PLACEMENT_3D('',#1965,#1583,#1584);
#1273=AXIS2_PLACEMENT_3D('',#1968,#1586,#1587);
#1274=AXIS2_PLACEMENT_3D('',#1969,#1588,#1589);
#1275=AXIS2_PLACEMENT_3D('',#1973,#1592,#1593);
#1276=AXIS2_PLACEMENT_3D('',#1977,#1595,#1596);
#1277=AXIS2_PLACEMENT_3D('',#1979,#1598,#1599);
#1278=AXIS2_PLACEMENT_3D('',#1981,#1601,#1602);
#1279=AXIS2_PLACEMENT_3D('',#1984,#1604,#1605);
#1280=AXIS2_PLACEMENT_3D('',#1985,#1606,#1607);
#1281=AXIS2_PLACEMENT_3D('',#1987,#1609,#1610);
#1282=AXIS2_PLACEMENT_3D('',#1989,#1611,#1612);
#1283=AXIS2_PLACEMENT_3D('',#1990,#1613,#1614);
#1284=AXIS2_PLACEMENT_3D('',#1992,#1616,#1617);
#1285=AXIS2_PLACEMENT_3D('',#1994,#1619,#1620);
#1286=AXIS2_PLACEMENT_3D('',#1996,#1622,#1623);
#1287=AXIS2_PLACEMENT_3D('',#1998,#1625,#1626);
#1288=AXIS2_PLACEMENT_3D('',#1999,#1627,#1628);
#1289=AXIS2_PLACEMENT_3D('',#2001,#1630,#1631);
#1290=DIRECTION('axis',(0.,0.,1.));
#1291=DIRECTION('refdir',(1.,0.,0.));
#1292=DIRECTION('center_axis',(-1.,0.,0.));
#1293=DIRECTION('ref_axis',(0.,-0.707106781186545,-0.70710678118655));
#1294=DIRECTION('',(1.,0.,0.));
#1295=DIRECTION('center_axis',(0.999847695156391,-0.0174524064372835,0.));
#1296=DIRECTION('ref_axis',(-0.0174524064372835,-0.999847695156391,-3.21663355376886E-15));
#1297=DIRECTION('',(-1.,0.,0.));
#1298=DIRECTION('center_axis',(-0.999847695156391,0.0174524064372835,0.));
#1299=DIRECTION('ref_axis',(-0.0174524064372835,-0.999847695156391,-3.21663355376886E-15));
#1300=DIRECTION('center_axis',(0.,0.,1.));
#1301=DIRECTION('ref_axis',(0.999847695156391,-0.0174524064372835,0.));
#1302=DIRECTION('',(0.0174524064372835,0.999847695156391,0.));
#1303=DIRECTION('center_axis',(0.,0.,-1.));
#1304=DIRECTION('ref_axis',(0.719339800338653,0.694658370458996,0.));
#1305=DIRECTION('',(-0.999847695156391,0.0174524064372835,0.));
#1306=DIRECTION('center_axis',(0.,0.,-1.));
#1307=DIRECTION('ref_axis',(-0.694658370458998,0.71933980033865,0.));
#1308=DIRECTION('',(-0.0174524064372835,-0.999847695156391,0.));
#1309=DIRECTION('center_axis',(0.,0.,-1.));
#1310=DIRECTION('ref_axis',(0.999847695156391,-0.0174524064372835,0.));
#1311=DIRECTION('center_axis',(0.,1.,0.));
#1312=DIRECTION('ref_axis',(0.,0.,1.));
#1313=DIRECTION('',(0.,0.,1.));
#1314=DIRECTION('',(1.,0.,0.));
#1315=DIRECTION('',(0.,0.,1.));
#1316=DIRECTION('',(-1.,0.,0.));
#1317=DIRECTION('center_axis',(0.,0.,-1.));
#1318=DIRECTION('ref_axis',(-0.418162920126462,-0.908372045051646,0.));
#1319=DIRECTION('center_axis',(0.,0.,1.));
#1320=DIRECTION('ref_axis',(-0.418162920126462,-0.908372045051646,0.));
#1321=DIRECTION('',(0.,0.,1.));
#1322=DIRECTION('center_axis',(0.,0.,-1.));
#1323=DIRECTION('ref_axis',(-0.418162920126462,-0.908372045051646,0.));
#1324=DIRECTION('',(0.,0.,-1.));
#1325=DIRECTION('center_axis',(0.,0.,-1.));
#1326=DIRECTION('ref_axis',(-1.,0.,0.));
#1327=DIRECTION('center_axis',(0.,0.,-1.));
#1328=DIRECTION('ref_axis',(-1.,0.,0.));
#1329=DIRECTION('',(0.,0.,1.));
#1330=DIRECTION('center_axis',(0.,0.,1.));
#1331=DIRECTION('ref_axis',(-1.,0.,0.));
#1332=DIRECTION('center_axis',(0.,0.,1.));
#1333=DIRECTION('ref_axis',(-0.0174524064372834,0.999847695156391,0.));
#1334=DIRECTION('',(-1.,0.,0.));
#1335=DIRECTION('center_axis',(0.,0.,-1.));
#1336=DIRECTION('ref_axis',(0.713250449154182,-0.700909264299851,0.));
#1337=DIRECTION('',(0.0174524064372834,-0.999847695156391,0.));
#1338=DIRECTION('center_axis',(0.,0.,-1.));
#1339=DIRECTION('ref_axis',(0.719339800338653,-0.694658370458995,0.));
#1340=DIRECTION('',(-0.999847695156391,-0.0174524064372834,0.));
#1341=DIRECTION('',(-0.0174524064372831,0.999847695156391,0.));
#1342=DIRECTION('',(0.999847695156391,0.0174524064372835,0.));
#1343=DIRECTION('',(-0.0174524064372831,0.999847695156391,0.));
#1344=DIRECTION('',(-0.999847695156391,-0.0174524064372834,0.));
#1345=DIRECTION('center_axis',(0.,0.,-1.));
#1346=DIRECTION('ref_axis',(-0.694658370458999,-0.71933980033865,0.));
#1347=DIRECTION('',(-0.0174524064372834,0.999847695156391,0.));
#1348=DIRECTION('center_axis',(0.,0.,1.));
#1349=DIRECTION('ref_axis',(0.713250449154183,-0.70090926429985,0.));
#1350=DIRECTION('',(1.,0.,0.));
#1351=DIRECTION('center_axis',(0.,0.,-1.));
#1352=DIRECTION('ref_axis',(-0.700909264299851,0.713250449154181,0.));
#1353=DIRECTION('',(0.0174524064372835,0.999847695156391,0.));
#1354=DIRECTION('center_axis',(0.,0.,-1.));
#1355=DIRECTION('ref_axis',(-0.713250449154182,-0.700909264299851,0.));
#1356=DIRECTION('',(-1.,0.,0.));
#1357=DIRECTION('center_axis',(0.,0.,-1.));
#1358=DIRECTION('ref_axis',(0.418162920126462,-0.908372045051646,0.));
#1359=DIRECTION('center_axis',(0.,0.,1.));
#1360=DIRECTION('ref_axis',(0.418162920126462,-0.908372045051646,0.));
#1361=DIRECTION('',(0.,0.,-1.));
#1362=DIRECTION('center_axis',(0.,0.,1.));
#1363=DIRECTION('ref_axis',(0.418162920126462,-0.908372045051646,0.));
#1364=DIRECTION('center_axis',(0.,0.,-1.));
#1365=DIRECTION('ref_axis',(0.0174524064372834,-0.999847695156391,0.));
#1366=DIRECTION('',(1.,0.,0.));
#1367=DIRECTION('center_axis',(0.,0.,1.));
#1368=DIRECTION('ref_axis',(-0.713250449154182,-0.700909264299851,0.));
#1369=DIRECTION('',(0.0174524064372835,0.999847695156391,0.));
#1370=DIRECTION('center_axis',(0.,0.,1.));
#1371=DIRECTION('ref_axis',(-0.700909264299851,0.713250449154181,0.));
#1372=DIRECTION('',(-1.,0.,0.));
#1373=DIRECTION('center_axis',(0.,0.,-1.));
#1374=DIRECTION('ref_axis',(0.694658370458998,-0.71933980033865,0.));
#1375=DIRECTION('',(-0.0174524064372835,-0.999847695156391,0.));
#1376=DIRECTION('center_axis',(0.,0.,1.));
#1377=DIRECTION('ref_axis',(-0.694658370458998,0.71933980033865,0.));
#1378=DIRECTION('',(-0.999847695156391,0.0174524064372835,0.));
#1379=DIRECTION('center_axis',(0.,0.,-1.));
#1380=DIRECTION('ref_axis',(-0.694658370458996,0.719339800338653,0.));
#1381=DIRECTION('',(0.0174524064372835,0.999847695156391,0.));
#1382=DIRECTION('center_axis',(0.,0.,-1.));
#1383=DIRECTION('ref_axis',(-0.719339800338649,-0.694658370459,0.));
#1384=DIRECTION('',(-0.999847695156391,0.0174524064372835,0.));
#1385=DIRECTION('center_axis',(0.,0.,-1.));
#1386=DIRECTION('ref_axis',(0.694658370458997,-0.719339800338651,0.));
#1387=DIRECTION('',(-0.0174524064372831,-0.999847695156391,0.));
#1388=DIRECTION('center_axis',(0.,0.,-1.));
#1389=DIRECTION('ref_axis',(0.71933980033865,0.694658370458998,0.));
#1390=DIRECTION('',(-0.999847695156391,0.0174524064372835,0.));
#1391=DIRECTION('center_axis',(0.,0.,1.));
#1392=DIRECTION('ref_axis',(0.719339800338653,0.694658370458996,0.));
#1393=DIRECTION('',(0.0174524064372835,0.999847695156391,0.));
#1394=DIRECTION('center_axis',(0.,0.,-1.));
#1395=DIRECTION('ref_axis',(-0.713250449154181,-0.700909264299851,0.));
#1396=DIRECTION('center_axis',(0.,0.,-1.));
#1397=DIRECTION('ref_axis',(0.713250449154183,-0.70090926429985,0.));
#1398=DIRECTION('',(0.0174524064372834,-0.999847695156391,0.));
#1399=DIRECTION('center_axis',(0.,0.,1.));
#1400=DIRECTION('ref_axis',(-0.719339800338653,0.694658370458995,0.));
#1401=DIRECTION('',(-0.999847695156391,-0.0174524064372834,0.));
#1402=DIRECTION('center_axis',(0.,0.,1.));
#1403=DIRECTION('ref_axis',(0.694658370458995,0.719339800338653,0.));
#1404=DIRECTION('',(-0.0174524064372834,0.999847695156391,0.));
#1405=DIRECTION('center_axis',(0.,0.,1.));
#1406=DIRECTION('ref_axis',(0.713250449154182,-0.700909264299851,0.));
#1407=DIRECTION('',(1.,0.,0.));
#1408=DIRECTION('',(0.999847695156391,0.0174524064372835,0.));
#1409=DIRECTION('',(-0.0174524064372835,0.999847695156391,0.));
#1410=DIRECTION('',(-0.999847695156391,-0.0174524064372835,0.));
#1411=DIRECTION('',(0.0174524064372835,-0.999847695156391,0.));
#1412=DIRECTION('center_axis',(0.,1.,0.));
#1413=DIRECTION('ref_axis',(0.,0.,1.));
#1414=DIRECTION('',(0.,0.,1.));
#1415=DIRECTION('center_axis',(0.,0.,1.));
#1416=DIRECTION('ref_axis',(1.,0.,0.));
#1417=DIRECTION('',(0.0174524064372831,-0.999847695156391,0.));
#1418=DIRECTION('',(0.999847695156391,0.0174524064372835,0.));
#1419=DIRECTION('',(0.0174524064372835,-0.999847695156391,0.));
#1420=DIRECTION('',(-0.999847695156391,-0.0174524064372835,0.));
#1421=DIRECTION('',(-0.0174524064372835,0.999847695156391,0.));
#1422=DIRECTION('',(0.999847695156391,0.0174524064372835,0.));
#1423=DIRECTION('',(-0.0174524064372831,0.999847695156391,0.));
#1424=DIRECTION('',(0.999847695156391,0.0174524064372834,0.));
#1425=DIRECTION('',(-0.0174524064372835,0.999847695156391,0.));
#1426=DIRECTION('',(-0.999847695156391,-0.0174524064372832,0.));
#1427=DIRECTION('',(0.0174524064372835,-0.999847695156391,0.));
#1428=DIRECTION('',(0.999847695156391,0.0174524064372835,0.));
#1429=DIRECTION('center_axis',(0.0174524064372835,-0.999847695156391,0.));
#1430=DIRECTION('ref_axis',(0.999847695156391,0.0174524064372835,0.));
#1431=DIRECTION('',(0.,0.,1.));
#1432=DIRECTION('',(0.999847695156391,0.0174524064372835,0.));
#1433=DIRECTION('',(0.,0.,1.));
#1434=DIRECTION('center_axis',(-0.999847695156391,-0.0174524064372835,0.));
#1435=DIRECTION('ref_axis',(0.0174524064372835,-0.999847695156391,0.));
#1436=DIRECTION('',(0.,0.,1.));
#1437=DIRECTION('',(0.0174524064372835,-0.999847695156391,0.));
#1438=DIRECTION('center_axis',(0.,0.,1.));
#1439=DIRECTION('ref_axis',(1.,0.,0.));
#1440=DIRECTION('center_axis',(0.,0.,1.));
#1441=DIRECTION('ref_axis',(-0.694658370458999,-0.71933980033865,0.));
#1442=DIRECTION('',(0.999847695156391,0.0174524064372834,0.));
#1443=DIRECTION('center_axis',(0.,0.,1.));
#1444=DIRECTION('ref_axis',(0.719339800338653,-0.694658370458995,0.));
#1445=DIRECTION('',(-0.0174524064372834,0.999847695156391,0.));
#1446=DIRECTION('center_axis',(0.,0.,1.));
#1447=DIRECTION('ref_axis',(0.694658370458995,0.719339800338653,0.));
#1448=DIRECTION('',(-0.999847695156391,-0.0174524064372834,0.));
#1449=DIRECTION('center_axis',(0.,0.,1.));
#1450=DIRECTION('ref_axis',(-0.719339800338653,0.694658370458995,0.));
#1451=DIRECTION('',(0.0174524064372834,-0.999847695156391,0.));
#1452=DIRECTION('',(-0.0174524064372835,0.999847695156391,0.));
#1453=DIRECTION('',(-0.999847695156391,-0.0174524064372832,0.));
#1454=DIRECTION('center_axis',(0.,0.,1.));
#1455=DIRECTION('ref_axis',(-0.713250449154182,-0.700909264299851,0.));
#1456=DIRECTION('',(0.,0.,-1.));
#1457=DIRECTION('center_axis',(0.,1.,0.));
#1458=DIRECTION('ref_axis',(0.,0.,1.));
#1459=DIRECTION('',(0.,0.,-1.));
#1460=DIRECTION('center_axis',(0.,0.,1.));
#1461=DIRECTION('ref_axis',(0.713250449154182,-0.700909264299851,0.));
#1462=DIRECTION('',(0.,0.,1.));
#1463=DIRECTION('center_axis',(0.999847695156391,0.0174524064372834,0.));
#1464=DIRECTION('ref_axis',(-0.0174524064372834,0.999847695156391,0.));
#1465=DIRECTION('',(0.,0.,-1.));
#1466=DIRECTION('',(0.,0.,1.));
#1467=DIRECTION('center_axis',(0.999847695156391,-0.0174524064372835,0.));
#1468=DIRECTION('ref_axis',(0.,0.,1.));
#1469=DIRECTION('',(0.,0.,1.));
#1470=DIRECTION('center_axis',(0.999847695156391,0.0174524064372835,0.));
#1471=DIRECTION('ref_axis',(-0.0174524064372835,0.999847695156391,0.));
#1472=DIRECTION('',(0.,0.,1.));
#1473=DIRECTION('center_axis',(-0.0174524064372832,0.999847695156391,0.));
#1474=DIRECTION('ref_axis',(-0.999847695156391,-0.0174524064372832,0.));
#1475=DIRECTION('center_axis',(-0.999847695156391,-0.0174524064372831,0.));
#1476=DIRECTION('ref_axis',(0.,0.,1.));
#1477=DIRECTION('',(0.,0.,1.));
#1478=DIRECTION('',(0.,0.,1.));
#1479=DIRECTION('center_axis',(0.999847695156391,0.0174524064372831,0.));
#1480=DIRECTION('ref_axis',(0.,0.,-1.));
#1481=DIRECTION('',(0.,0.,-1.));
#1482=DIRECTION('',(0.,0.,1.));
#1483=DIRECTION('center_axis',(0.0174524064372834,-0.999847695156391,0.));
#1484=DIRECTION('ref_axis',(0.999847695156391,0.0174524064372834,0.));
#1485=DIRECTION('',(0.,0.,-1.));
#1486=DIRECTION('',(0.,0.,1.));
#1487=DIRECTION('center_axis',(0.0174524064372835,-0.999847695156391,0.));
#1488=DIRECTION('ref_axis',(0.999847695156391,0.0174524064372835,0.));
#1489=DIRECTION('',(0.,0.,-1.));
#1490=DIRECTION('',(0.,0.,-1.));
#1491=DIRECTION('center_axis',(0.,0.,1.));
#1492=DIRECTION('ref_axis',(0.694658370458995,0.719339800338653,0.));
#1493=DIRECTION('',(0.,0.,1.));
#1494=DIRECTION('center_axis',(-0.999847695156391,-0.0174524064372835,0.));
#1495=DIRECTION('ref_axis',(0.0174524064372835,-0.999847695156391,0.));
#1496=DIRECTION('',(0.,0.,1.));
#1497=DIRECTION('center_axis',(0.,0.,1.));
#1498=DIRECTION('ref_axis',(0.719339800338653,-0.694658370458995,0.));
#1499=DIRECTION('center_axis',(0.,0.,1.));
#1500=DIRECTION('ref_axis',(0.713250449154183,-0.70090926429985,0.));
#1501=DIRECTION('',(0.,0.,-1.));
#1502=DIRECTION('center_axis',(0.,1.,0.));
#1503=DIRECTION('ref_axis',(0.,0.,1.));
#1504=DIRECTION('',(0.,0.,-1.));
#1505=DIRECTION('',(0.,0.,-1.));
#1506=DIRECTION('center_axis',(0.,0.,1.));
#1507=DIRECTION('ref_axis',(-0.700909264299851,0.713250449154181,0.));
#1508=DIRECTION('center_axis',(0.,0.,-1.));
#1509=DIRECTION('ref_axis',(-0.713250449154181,-0.700909264299851,0.));
#1510=DIRECTION('',(0.,0.,1.));
#1511=DIRECTION('center_axis',(0.999847695156391,-0.0174524064372835,0.));
#1512=DIRECTION('ref_axis',(0.0174524064372835,0.999847695156391,0.));
#1513=DIRECTION('',(0.,0.,-1.));
#1514=DIRECTION('center_axis',(0.,0.,1.));
#1515=DIRECTION('ref_axis',(0.719339800338653,0.694658370458996,0.));
#1516=DIRECTION('',(0.,0.,1.));
#1517=DIRECTION('center_axis',(0.0174524064372835,0.999847695156391,0.));
#1518=DIRECTION('ref_axis',(-0.999847695156391,0.0174524064372835,0.));
#1519=DIRECTION('',(-0.999847695156391,0.0174524064372835,0.));
#1520=DIRECTION('',(0.,0.,-1.));
#1521=DIRECTION('center_axis',(0.,0.,1.));
#1522=DIRECTION('ref_axis',(-0.694658370458998,0.71933980033865,0.));
#1523=DIRECTION('',(0.,0.,1.));
#1524=DIRECTION('center_axis',(0.,0.,-1.));
#1525=DIRECTION('ref_axis',(0.694658370458998,-0.71933980033865,0.));
#1526=DIRECTION('',(0.,0.,-1.));
#1527=DIRECTION('center_axis',(-0.999847695156391,0.0174524064372835,0.));
#1528=DIRECTION('ref_axis',(-0.0174524064372835,-0.999847695156391,0.));
#1529=DIRECTION('center_axis',(-0.999847695156391,0.0174524064372835,0.));
#1530=DIRECTION('ref_axis',(-0.0123407149398269,-0.706999085398823,-0.707106781186549));
#1531=DIRECTION('center_axis',(-0.999847695156391,0.0174524064372835,0.));
#1532=DIRECTION('ref_axis',(0.,0.,-1.));
#1533=DIRECTION('',(-0.999847695156391,0.0174524064372835,0.));
#1534=DIRECTION('center_axis',(0.999847695156391,-0.0174524064372835,0.));
#1535=DIRECTION('ref_axis',(-0.0174524064372835,-0.999847695156391,0.));
#1536=DIRECTION('center_axis',(0.,0.,1.));
#1537=DIRECTION('ref_axis',(0.999847695156391,-0.0174524064372837,0.));
#1538=DIRECTION('center_axis',(0.0174524064372835,0.999847695156391,0.));
#1539=DIRECTION('ref_axis',(0.999847695156391,-0.0174524064372835,0.));
#1540=DIRECTION('center_axis',(0.,0.,1.));
#1541=DIRECTION('ref_axis',(-0.694658370458996,0.719339800338653,0.));
#1542=DIRECTION('center_axis',(-0.0174524064372835,-0.999847695156391,0.));
#1543=DIRECTION('ref_axis',(0.706999085398824,-0.0123407149398269,-0.707106781186548));
#1544=DIRECTION('center_axis',(0.0174524064372835,0.999847695156391,0.));
#1545=DIRECTION('ref_axis',(0.999847695156391,-0.0174524064372835,0.));
#1546=DIRECTION('',(-0.0174524064372835,-0.999847695156391,0.));
#1547=DIRECTION('center_axis',(0.,0.,1.));
#1548=DIRECTION('ref_axis',(0.999847695156391,-0.0174524064372837,0.));
#1549=DIRECTION('center_axis',(-0.999847695156391,0.0174524064372857,0.));
#1550=DIRECTION('ref_axis',(0.0174524064372857,0.999847695156391,0.));
#1551=DIRECTION('center_axis',(0.,0.,1.));
#1552=DIRECTION('ref_axis',(-0.719339800338649,-0.694658370459,0.));
#1553=DIRECTION('center_axis',(0.999847695156391,-0.0174524064372835,0.));
#1554=DIRECTION('ref_axis',(0.0123407149398269,0.706999085398823,-0.707106781186549));
#1555=DIRECTION('center_axis',(-0.999847695156391,0.0174524064372835,0.));
#1556=DIRECTION('ref_axis',(0.0174524064372835,0.999847695156391,0.));
#1557=DIRECTION('',(0.999847695156391,-0.0174524064372835,0.));
#1558=DIRECTION('center_axis',(0.,0.,1.));
#1559=DIRECTION('ref_axis',(0.999847695156391,-0.0174524064372837,0.));
#1560=DIRECTION('center_axis',(-0.017452406437288,-0.999847695156391,0.));
#1561=DIRECTION('ref_axis',(-0.999847695156391,0.017452406437288,0.));
#1562=DIRECTION('center_axis',(0.,0.,1.));
#1563=DIRECTION('ref_axis',(0.694658370458997,-0.719339800338651,0.));
#1564=DIRECTION('center_axis',(0.0174524064372831,0.999847695156391,0.));
#1565=DIRECTION('ref_axis',(-0.706999085398825,0.0123407149398269,-0.707106781186547));
#1566=DIRECTION('center_axis',(-0.0174524064372835,-0.999847695156391,0.));
#1567=DIRECTION('ref_axis',(-0.999847695156391,0.0174524064372835,0.));
#1568=DIRECTION('',(0.0174524064372831,0.999847695156391,0.));
#1569=DIRECTION('center_axis',(0.,0.,1.));
#1570=DIRECTION('ref_axis',(0.999847695156391,-0.0174524064372837,0.));
#1571=DIRECTION('center_axis',(0.,0.,1.));
#1572=DIRECTION('ref_axis',(0.71933980033865,0.694658370458998,0.));
#1573=DIRECTION('center_axis',(0.,0.,1.));
#1574=DIRECTION('ref_axis',(-0.999847695156391,0.0174524064372791,0.));
#1575=DIRECTION('',(0.,0.,1.));
#1576=DIRECTION('center_axis',(0.,0.,1.));
#1577=DIRECTION('ref_axis',(-0.999847695156391,0.0174524064372791,0.));
#1578=DIRECTION('',(0.,0.,1.));
#1579=DIRECTION('center_axis',(-0.999847695156391,0.0174524064372835,0.));
#1580=DIRECTION('ref_axis',(-0.0174524064372835,-0.999847695156391,0.));
#1581=DIRECTION('',(0.,0.,1.));
#1582=DIRECTION('',(-0.0174524064372835,-0.999847695156391,0.));
#1583=DIRECTION('center_axis',(0.,0.,1.));
#1584=DIRECTION('ref_axis',(0.0174524064372891,0.999847695156391,0.));
#1585=DIRECTION('',(0.,0.,1.));
#1586=DIRECTION('center_axis',(0.,0.,1.));
#1587=DIRECTION('ref_axis',(0.0174524064372891,0.999847695156391,0.));
#1588=DIRECTION('center_axis',(0.0174524064372835,0.999847695156391,0.));
#1589=DIRECTION('ref_axis',(-0.999847695156391,0.0174524064372835,0.));
#1590=DIRECTION('',(0.,0.,1.));
#1591=DIRECTION('',(-0.999847695156391,0.0174524064372835,0.));
#1592=DIRECTION('center_axis',(0.,0.,1.));
#1593=DIRECTION('ref_axis',(-0.0174524064372791,-0.999847695156391,0.));
#1594=DIRECTION('',(0.,0.,1.));
#1595=DIRECTION('center_axis',(0.,0.,1.));
#1596=DIRECTION('ref_axis',(-0.0174524064372791,-0.999847695156391,0.));
#1597=DIRECTION('',(0.,0.,1.));
#1598=DIRECTION('center_axis',(-0.0174524064372835,-0.999847695156391,0.));
#1599=DIRECTION('ref_axis',(0.999847695156391,-0.0174524064372835,0.));
#1600=DIRECTION('',(0.999847695156391,-0.0174524064372835,0.));
#1601=DIRECTION('center_axis',(0.,0.,1.));
#1602=DIRECTION('ref_axis',(0.999847695156391,-0.0174524064372835,0.));
#1603=DIRECTION('',(0.,0.,1.));
#1604=DIRECTION('center_axis',(0.,0.,1.));
#1605=DIRECTION('ref_axis',(0.999847695156391,-0.0174524064372835,0.));
#1606=DIRECTION('center_axis',(0.999847695156391,-0.0174524064372831,0.));
#1607=DIRECTION('ref_axis',(0.0174524064372831,0.999847695156391,0.));
#1608=DIRECTION('',(0.0174524064372831,0.999847695156391,0.));
#1609=DIRECTION('center_axis',(0.,0.,1.));
#1610=DIRECTION('ref_axis',(0.999847695156391,-0.0174524064372835,0.));
#1611=DIRECTION('center_axis',(0.,0.,-1.));
#1612=DIRECTION('ref_axis',(0.999847695156391,-0.0174524064372835,0.));
#1613=DIRECTION('center_axis',(0.,0.,1.));
#1614=DIRECTION('ref_axis',(0.999847695156391,-0.0174524064372835,0.));
#1615=DIRECTION('',(0.,0.,-1.));
#1616=DIRECTION('center_axis',(0.,0.,1.));
#1617=DIRECTION('ref_axis',(-0.694658370458999,-0.71933980033865,0.));
#1618=DIRECTION('',(0.,0.,-1.));
#1619=DIRECTION('center_axis',(-0.999847695156391,-0.0174524064372834,0.));
#1620=DIRECTION('ref_axis',(0.,0.,1.));
#1621=DIRECTION('',(0.,0.,1.));
#1622=DIRECTION('center_axis',(0.,0.,1.));
#1623=DIRECTION('ref_axis',(-0.719339800338653,0.694658370458995,0.));
#1624=DIRECTION('',(0.,0.,-1.));
#1625=DIRECTION('center_axis',(-0.0174524064372834,0.999847695156391,0.));
#1626=DIRECTION('ref_axis',(0.,0.,-1.));
#1627=DIRECTION('center_axis',(-0.0174524064372835,0.999847695156391,0.));
#1628=DIRECTION('ref_axis',(-0.999847695156391,-0.0174524064372835,0.));
#1629=DIRECTION('',(0.,0.,-1.));
#1630=DIRECTION('center_axis',(0.999847695156391,0.0174524064372835,0.));
#1631=DIRECTION('ref_axis',(-0.0174524064372835,0.999847695156391,0.));
#1632=CARTESIAN_POINT('',(0.,0.,0.));
#1633=CARTESIAN_POINT('Origin',(5.09763671925709,23.5,3.1));
#1634=CARTESIAN_POINT('',(3.03490481287449,22.4,3.1));
#1635=CARTESIAN_POINT('',(4.01730010159367,23.3823952887191,2.00630482679837));
#1636=CARTESIAN_POINT('Ctrl Pts',(4.01730010159367,23.3823952887191,2.00630482679838));
#1637=CARTESIAN_POINT('Ctrl Pts',(4.01599799597013,23.3077977075071,2.01432628215052));
#1638=CARTESIAN_POINT('Ctrl Pts',(4.00613278485924,23.234893816815,2.03013538062373));
#1639=CARTESIAN_POINT('Ctrl Pts',(3.96047156690721,23.0431306181123,2.09080162388136));
#1640=CARTESIAN_POINT('Ctrl Pts',(3.90591893224358,22.9252462351427,2.1537669022647));
#1641=CARTESIAN_POINT('Ctrl Pts',(3.76720098829891,22.7271692150471,2.30726332194476));
#1642=CARTESIAN_POINT('Ctrl Pts',(3.68319283499293,22.6467683597232,2.39766765950592));
#1643=CARTESIAN_POINT('Ctrl Pts',(3.50267692392079,22.5171902072525,2.59016927956492));
#1644=CARTESIAN_POINT('Ctrl Pts',(3.39106637877032,22.4663796418109,2.70795283722707));
#1645=CARTESIAN_POINT('Ctrl Pts',(3.24006163304972,22.4235368976066,2.86709439084447));
#1646=CARTESIAN_POINT('Ctrl Pts',(3.19040069214707,22.4138818908607,2.91978913931512));
#1647=CARTESIAN_POINT('Ctrl Pts',(3.12415446584927,22.4053213193781,2.98931740077357));
#1648=CARTESIAN_POINT('Ctrl Pts',(3.10307597409904,22.4033282189756,3.01200321696665));
#1649=CARTESIAN_POINT('Ctrl Pts',(3.0740730551637,22.4014066403644,3.04337978470531));
#1650=CARTESIAN_POINT('Ctrl Pts',(3.06487577813801,22.4009348613016,3.05352158466478));
#1651=CARTESIAN_POINT('Ctrl Pts',(3.05183057655206,22.4004293445735,3.06884661568649));
#1652=CARTESIAN_POINT('Ctrl Pts',(3.047668687581,22.4002966128172,3.0738647198324));
#1653=CARTESIAN_POINT('Ctrl Pts',(3.04176906721442,22.4001414307233,3.08214760227965));
#1654=CARTESIAN_POINT('Ctrl Pts',(3.03992515196307,22.400098074956,3.08500347354559));
#1655=CARTESIAN_POINT('Ctrl Pts',(3.03649158705535,22.4000280399016,3.09143724756011));
#1656=CARTESIAN_POINT('Ctrl Pts',(3.03490481287449,22.4,3.09501666959335));
#1657=CARTESIAN_POINT('Ctrl Pts',(3.03490481287449,22.4,3.1));
#1658=CARTESIAN_POINT('',(17.0195876575429,22.4,3.1));
#1659=CARTESIAN_POINT('',(0.,22.4,3.1));
#1660=CARTESIAN_POINT('',(16.0197399623865,23.4174524064373,2.00310169350254));
#1661=CARTESIAN_POINT('Ctrl Pts',(17.0195876575429,22.4,3.1));
#1662=CARTESIAN_POINT('Ctrl Pts',(16.8913385646065,22.4,2.96549121655852));
#1663=CARTESIAN_POINT('Ctrl Pts',(16.7522432419805,22.4258140155641,2.81964563402568));
#1664=CARTESIAN_POINT('Ctrl Pts',(16.4895568915929,22.5400123776288,2.54241777089729));
#1665=CARTESIAN_POINT('Ctrl Pts',(16.3659443020941,22.6282585238163,2.41099901109853));
#1666=CARTESIAN_POINT('Ctrl Pts',(16.1988936235091,22.8194602527692,2.22921110526292));
#1667=CARTESIAN_POINT('Ctrl Pts',(16.1345488191117,22.9187232938231,2.15773227398665));
#1668=CARTESIAN_POINT('Ctrl Pts',(16.0447229316795,23.1459137131428,2.05101282739728));
#1669=CARTESIAN_POINT('Ctrl Pts',(16.0195876575429,23.2741067489349,2.01604731389734));
#1670=CARTESIAN_POINT('Ctrl Pts',(16.0195876575429,23.4058064469602,2.00402483132649));
#1671=CARTESIAN_POINT('Ctrl Pts',(16.0196382357885,23.4116244935391,2.00354027580537));
#1672=CARTESIAN_POINT('Ctrl Pts',(16.0197399623865,23.4174524064373,2.00310169350254));
#1673=CARTESIAN_POINT('',(16.0211808359918,23.5,2.));
#1674=CARTESIAN_POINT('Origin',(16.0211808359918,23.5,3.1));
#1675=CARTESIAN_POINT('',(4.01935289946495,23.5,2.));
#1676=CARTESIAN_POINT('',(5.09763671925709,23.5,2.));
#1677=CARTESIAN_POINT('Origin',(4.01935289946495,23.5,3.1));
#1678=CARTESIAN_POINT('Origin',(10.1952734385142,33.5261197254484,2.));
#1679=CARTESIAN_POINT('',(16.3732467754347,43.6698441621777,2.));
#1680=CARTESIAN_POINT('',(15.9980200370331,22.1731187163153,2.));
#1681=CARTESIAN_POINT('',(15.3908514867156,44.6871442637714,2.));
#1682=CARTESIAN_POINT('Origin',(15.3733990802783,43.687296568615,2.));
#1683=CARTESIAN_POINT('',(5.39237453515166,44.8616683281442,2.));
#1684=CARTESIAN_POINT('',(16.390699181872,44.6696918573341,2.));
#1685=CARTESIAN_POINT('',(4.37507443355799,43.8792730394251,2.));
#1686=CARTESIAN_POINT('Origin',(5.37492212871438,43.8618206329878,2.));
#1687=CARTESIAN_POINT('',(4.252907588497,36.8803391733304,2.));
#1688=CARTESIAN_POINT('',(9.25214606427896,36.793077141144,2.));
#1689=CARTESIAN_POINT('Origin',(10.2519937594354,36.7756247347067,2.));
#1690=CARTESIAN_POINT('Origin',(0.,22.4,0.));
#1691=CARTESIAN_POINT('',(17.0195876575429,22.4,0.));
#1692=CARTESIAN_POINT('',(17.0195876575429,22.4,0.));
#1693=CARTESIAN_POINT('',(43.3879870044523,22.4,3.1));
#1694=CARTESIAN_POINT('',(0.,22.4,3.1));
#1695=CARTESIAN_POINT('',(43.3879870044523,22.4,0.));
#1696=CARTESIAN_POINT('',(43.3879870044523,22.4,0.775));
#1697=CARTESIAN_POINT('',(16.8,22.4,0.));
#1698=CARTESIAN_POINT('Origin',(55.7832599072099,10.,3.1));
#1699=CARTESIAN_POINT('',(48.1863097688091,3.49720455537379,0.));
#1700=CARTESIAN_POINT('',(55.7832599072099,0.,0.));
#1701=CARTESIAN_POINT('Origin',(55.7832599072099,10.,0.));
#1702=CARTESIAN_POINT('',(55.7832599072099,0.,3.1));
#1703=CARTESIAN_POINT('',(55.7832599072099,0.,3.1));
#1704=CARTESIAN_POINT('',(48.1863097688091,3.49720455537379,3.1));
#1705=CARTESIAN_POINT('Origin',(55.7832599072099,10.,3.1));
#1706=CARTESIAN_POINT('',(48.1863097688091,3.49720455537379,3.1));
#1707=CARTESIAN_POINT('Origin',(44.3878346996087,0.245806833060693,3.1));
#1708=CARTESIAN_POINT('',(40.5893596304082,3.49720455537379,3.1));
#1709=CARTESIAN_POINT('Origin',(44.3878346996087,0.245806833060693,3.1));
#1710=CARTESIAN_POINT('',(40.5893596304082,3.49720455537379,0.));
#1711=CARTESIAN_POINT('',(40.5893596304082,3.49720455537379,3.1));
#1712=CARTESIAN_POINT('Origin',(44.3878346996087,0.245806833060693,0.));
#1713=CARTESIAN_POINT('Origin',(66.8090065456079,22.4,3.1));
#1714=CARTESIAN_POINT('',(57.0239260702787,0.,3.1));
#1715=CARTESIAN_POINT('',(0.,0.,3.1));
#1716=CARTESIAN_POINT('',(67.0224030218427,10.1745240643728,3.1));
#1717=CARTESIAN_POINT('Origin',(57.0239260702787,10.,3.1));
#1718=CARTESIAN_POINT('',(66.5716538180609,35.9979286541269,3.1));
#1719=CARTESIAN_POINT('',(67.1897658939208,0.586311544602012,3.1));
#1720=CARTESIAN_POINT('',(65.5892585293418,34.9806285525332,3.1));
#1721=CARTESIAN_POINT('Origin',(65.5718061229045,35.9804762476896,3.1));
#1722=CARTESIAN_POINT('',(57.8904312766376,34.8462450229662,3.1));
#1723=CARTESIAN_POINT('',(55.3908120387466,34.802614006873,3.1));
#1724=CARTESIAN_POINT('',(57.8380740573257,37.8457881084353,3.1));
#1725=CARTESIAN_POINT('',(57.8904312766376,34.8462450229662,3.1));
#1726=CARTESIAN_POINT('',(52.8388355815438,37.7585260762489,3.1));
#1727=CARTESIAN_POINT('',(52.488888888239,37.7524177339959,3.1));
#1728=CARTESIAN_POINT('',(52.8911928008556,34.7589829907797,3.1));
#1729=CARTESIAN_POINT('',(52.8911928008556,34.7589829907797,3.1));
#1730=CARTESIAN_POINT('',(45.1923655481514,34.6245994612127,3.1));
#1731=CARTESIAN_POINT('',(55.3908120387466,34.802614006873,3.1));
#1732=CARTESIAN_POINT('',(44.1750654465577,35.6069947499318,3.1));
#1733=CARTESIAN_POINT('Origin',(45.1749131417141,35.6244471563691,3.1));
#1734=CARTESIAN_POINT('',(44.3878346996087,23.4174524064373,3.1));
#1735=CARTESIAN_POINT('',(43.8015839487999,57.0037354262785,3.1));
#1736=CARTESIAN_POINT('Origin',(43.3879870044523,23.4,3.1));
#1737=CARTESIAN_POINT('',(1.37369071750776,22.4,3.1));
#1738=CARTESIAN_POINT('',(0.,22.4,3.1));
#1739=CARTESIAN_POINT('',(0.373843022351373,21.4174524064373,3.1));
#1740=CARTESIAN_POINT('Origin',(1.37369071750776,21.4,3.1));
#1741=CARTESIAN_POINT('',(0.17759697815734,10.1745240643728,3.1));
#1742=CARTESIAN_POINT('',(0.,0.,3.1));
#1743=CARTESIAN_POINT('',(10.1760739297213,0.,3.1));
#1744=CARTESIAN_POINT('Origin',(10.1760739297213,10.,3.1));
#1745=CARTESIAN_POINT('',(32.9924094920074,0.,3.1));
#1746=CARTESIAN_POINT('',(0.,0.,3.1));
#1747=CARTESIAN_POINT('Origin',(32.9924094920074,10.,3.1));
#1748=CARTESIAN_POINT('Origin',(32.9924094920074,10.,3.1));
#1749=CARTESIAN_POINT('',(32.9924094920074,0.,0.));
#1750=CARTESIAN_POINT('',(32.9924094920074,0.,3.1));
#1751=CARTESIAN_POINT('Origin',(32.9924094920074,10.,0.));
#1752=CARTESIAN_POINT('Origin',(66.198172320303,57.3946693304737,0.));
#1753=CARTESIAN_POINT('',(10.1760739297213,0.,0.));
#1754=CARTESIAN_POINT('',(0.,0.,0.));
#1755=CARTESIAN_POINT('',(0.17759697815734,10.1745240643728,0.));
#1756=CARTESIAN_POINT('Origin',(10.1760739297213,10.,0.));
#1757=CARTESIAN_POINT('',(0.373843022351373,21.4174524064373,0.));
#1758=CARTESIAN_POINT('',(0.,0.,0.));
#1759=CARTESIAN_POINT('',(1.37369071750777,22.4,0.));
#1760=CARTESIAN_POINT('Origin',(1.37369071750776,21.4,0.));
#1761=CARTESIAN_POINT('',(3.03490481287449,22.4,0.));
#1762=CARTESIAN_POINT('',(16.8,22.4,0.));
#1763=CARTESIAN_POINT('',(4.01730010159367,23.3823952887191,0.));
#1764=CARTESIAN_POINT('Origin',(3.01745240643728,23.3998476951564,0.));
#1765=CARTESIAN_POINT('',(4.37507443355799,43.8792730394251,0.));
#1766=CARTESIAN_POINT('',(4.252907588497,36.8803391733304,0.));
#1767=CARTESIAN_POINT('',(5.39237453515166,44.8616683281442,0.));
#1768=CARTESIAN_POINT('Origin',(5.37492212871438,43.8618206329878,0.));
#1769=CARTESIAN_POINT('',(6.64218415409715,44.8398528200976,0.));
#1770=CARTESIAN_POINT('',(16.390699181872,44.6696918573341,0.));
#1771=CARTESIAN_POINT('',(4.6075839509098,42.8750622426594,0.));
#1772=CARTESIAN_POINT('Origin',(6.60727934122258,42.8401574297849,0.));
#1773=CARTESIAN_POINT('',(4.3981550736624,30.8768899007827,0.));
#1774=CARTESIAN_POINT('',(4.23322983283007,21.4283291815548,0.));
#1775=CARTESIAN_POINT('',(6.36294565110061,28.8422896975954,0.));
#1776=CARTESIAN_POINT('Origin',(6.39785046397518,30.8419850879082,0.));
#1777=CARTESIAN_POINT('',(13.8618033647736,28.7113966493157,0.));
#1778=CARTESIAN_POINT('',(3.23842160373689,28.8968284677119,0.));
#1779=CARTESIAN_POINT('',(15.8964035679609,30.676187226754,0.));
#1780=CARTESIAN_POINT('Origin',(13.8967081776481,30.7110920396285,0.));
#1781=CARTESIAN_POINT('',(16.1058324452083,42.6743595686307,0.));
#1782=CARTESIAN_POINT('',(15.6267638885049,15.2285403365877,0.));
#1783=CARTESIAN_POINT('',(14.1410418677701,44.708959771818,0.));
#1784=CARTESIAN_POINT('Origin',(14.1061370548955,42.7092643815052,0.));
#1785=CARTESIAN_POINT('',(15.3908514867156,44.6871442637714,0.));
#1786=CARTESIAN_POINT('',(16.390699181872,44.6696918573341,0.));
#1787=CARTESIAN_POINT('',(16.3732467754347,43.6698441621777,0.));
#1788=CARTESIAN_POINT('Origin',(15.3733990802783,43.687296568615,0.));
#1789=CARTESIAN_POINT('',(16.0197399623865,23.4174524064373,0.));
#1790=CARTESIAN_POINT('',(15.9980200370331,22.1731187163153,0.));
#1791=CARTESIAN_POINT('Origin',(17.0195876575429,23.4,0.));
#1792=CARTESIAN_POINT('',(44.3878346996087,23.4174524064373,0.));
#1793=CARTESIAN_POINT('Origin',(43.3879870044523,23.4,0.));
#1794=CARTESIAN_POINT('',(43.8190363552371,56.0038877311221,0.));
#1795=CARTESIAN_POINT('',(44.4124181741048,22.0090660958049,0.));
#1796=CARTESIAN_POINT('',(44.8014316439562,57.0211878327158,0.));
#1797=CARTESIAN_POINT('Origin',(44.8188840503935,56.0213401375594,0.));
#1798=CARTESIAN_POINT('',(65.1983246251466,57.3772169240364,0.));
#1799=CARTESIAN_POINT('',(66.198172320303,57.3946693304737,0.));
#1800=CARTESIAN_POINT('',(66.2156247267403,56.3948216353173,0.));
#1801=CARTESIAN_POINT('Origin',(65.2157770315839,56.37736922888,0.));
#1802=CARTESIAN_POINT('',(67.0224030218427,10.1745240643728,0.));
#1803=CARTESIAN_POINT('',(66.8090065456079,22.4,0.));
#1804=CARTESIAN_POINT('',(57.0239260702787,0.,0.));
#1805=CARTESIAN_POINT('Origin',(57.0239260702787,10.,0.));
#1806=CARTESIAN_POINT('',(0.,0.,0.));
#1807=CARTESIAN_POINT('',(47.1397037191523,37.6590473595564,0.));
#1808=CARTESIAN_POINT('',(63.5372059197171,37.9452668251278,0.));
#1809=CARTESIAN_POINT('',(65.0369774624517,37.9714454347838,0.));
#1810=CARTESIAN_POINT('',(63.2509864541457,54.3427690256927,0.));
#1811=CARTESIAN_POINT('',(63.2248078444898,55.8425405684272,0.));
#1812=CARTESIAN_POINT('',(46.8534842535809,54.0565495601212,0.));
#1813=CARTESIAN_POINT('',(56.5520068965979,54.2258379025629,0.));
#1814=CARTESIAN_POINT('',(46.9704153767107,47.3575700025734,0.));
#1815=CARTESIAN_POINT('Origin',(0.,0.,0.));
#1816=CARTESIAN_POINT('',(10.1760739297213,0.,0.));
#1817=CARTESIAN_POINT('Origin',(55.195345086649,46.0009081926245,9.1));
#1818=CARTESIAN_POINT('',(52.8388355815438,37.7585260762489,9.1));
#1819=CARTESIAN_POINT('',(52.8911928008556,34.7589829907797,9.1));
#1820=CARTESIAN_POINT('',(52.9412174720417,31.8930714979343,9.1));
#1821=CARTESIAN_POINT('',(47.1397037191523,37.6590473595564,9.1));
#1822=CARTESIAN_POINT('',(40.2936485787341,37.5395490225782,9.1));
#1823=CARTESIAN_POINT('',(46.8534842535809,54.0565495601212,9.1));
#1824=CARTESIAN_POINT('',(47.0727972672087,41.4921154242588,9.1));
#1825=CARTESIAN_POINT('',(63.2509864541457,54.3427690256927,9.1));
#1826=CARTESIAN_POINT('',(48.2061802134451,54.0801609559288,9.1));
#1827=CARTESIAN_POINT('',(63.5372059197171,37.9452668251278,9.1));
#1828=CARTESIAN_POINT('',(63.6134092005592,33.5795837895478,9.1));
#1829=CARTESIAN_POINT('',(57.8380740573257,37.8457881084353,9.1));
#1830=CARTESIAN_POINT('',(40.2936485787341,37.5395490225782,9.1));
#1831=CARTESIAN_POINT('',(57.8904312766376,34.8462450229662,9.1));
#1832=CARTESIAN_POINT('',(57.9404559478237,31.9803335301207,9.1));
#1833=CARTESIAN_POINT('',(49.7916649458708,34.7048805308242,9.1));
#1834=CARTESIAN_POINT('',(48.3185780656152,38.8798074814688,9.1));
#1835=CARTESIAN_POINT('',(48.0742443754933,52.8776752136583,9.1));
#1836=CARTESIAN_POINT('',(48.2574946430848,42.3792744145162,9.1));
#1837=CARTESIAN_POINT('',(62.3164457978047,39.1241411715908,9.1));
#1838=CARTESIAN_POINT('',(58.8169788647574,39.0630577490603,9.1));
#1839=CARTESIAN_POINT('',(62.0721121076828,53.1220089037803,9.1));
#1840=CARTESIAN_POINT('',(62.1331955302133,49.6225419707329,9.1));
#1841=CARTESIAN_POINT('',(51.5737113085407,52.9387586361888,9.1));
#1842=CARTESIAN_POINT('Origin',(48.0742443754933,52.8776752136583,0.1));
#1843=CARTESIAN_POINT('',(62.0721121076828,53.1220089037803,10.6));
#1844=CARTESIAN_POINT('',(62.0721121076828,53.1220089037803,0.1));
#1845=CARTESIAN_POINT('',(48.0742443754933,52.8776752136583,10.6));
#1846=CARTESIAN_POINT('',(48.0742443754933,52.8776752136583,10.6));
#1847=CARTESIAN_POINT('',(48.0742443754933,52.8776752136583,0.1));
#1848=CARTESIAN_POINT('Origin',(62.0721121076828,53.1220089037803,0.1));
#1849=CARTESIAN_POINT('',(62.3164457978047,39.1241411715908,10.6));
#1850=CARTESIAN_POINT('',(62.3164457978047,39.1241411715908,0.1));
#1851=CARTESIAN_POINT('',(62.0721121076828,53.1220089037803,10.6));
#1852=CARTESIAN_POINT('Origin',(55.195345086649,46.0009081926245,10.6));
#1853=CARTESIAN_POINT('',(44.1750654465577,35.6069947499318,10.6));
#1854=CARTESIAN_POINT('',(45.1923655481514,34.6245994612127,10.6));
#1855=CARTESIAN_POINT('Origin',(45.1749131417141,35.6244471563691,10.6));
#1856=CARTESIAN_POINT('',(65.5892585293418,34.9806285525332,10.6));
#1857=CARTESIAN_POINT('',(66.5891062244982,34.9980809589705,10.6));
#1858=CARTESIAN_POINT('',(66.5716538180609,35.9979286541269,10.6));
#1859=CARTESIAN_POINT('Origin',(65.5718061229045,35.9804762476896,10.6));
#1860=CARTESIAN_POINT('',(66.2156247267403,56.3948216353173,10.6));
#1861=CARTESIAN_POINT('',(66.198172320303,57.3946693304737,10.6));
#1862=CARTESIAN_POINT('',(65.1983246251466,57.3772169240364,10.6));
#1863=CARTESIAN_POINT('Origin',(65.2157770315839,56.37736922888,10.6));
#1864=CARTESIAN_POINT('',(44.8014316439562,57.0211878327158,10.6));
#1865=CARTESIAN_POINT('',(43.8015839487998,57.0037354262785,10.6));
#1866=CARTESIAN_POINT('',(43.8190363552371,56.0038877311221,10.6));
#1867=CARTESIAN_POINT('Origin',(44.8188840503935,56.0213401375594,10.6));
#1868=CARTESIAN_POINT('',(44.192517852995,34.6071470547754,10.6));
#1869=CARTESIAN_POINT('',(48.3185780656152,38.8798074814688,10.6));
#1870=CARTESIAN_POINT('',(48.3185780656152,38.8798074814688,10.6));
#1871=CARTESIAN_POINT('',(62.3164457978047,39.1241411715908,10.6));
#1872=CARTESIAN_POINT('Origin',(10.1760739297213,10.,0.));
#1873=CARTESIAN_POINT('',(0.177596978157339,10.1745240643728,0.));
#1874=CARTESIAN_POINT('Origin',(0.,0.,0.));
#1875=CARTESIAN_POINT('',(57.0239260702787,0.,0.775));
#1876=CARTESIAN_POINT('Origin',(57.0239260702787,10.,0.775));
#1877=CARTESIAN_POINT('',(67.0224030218427,10.1745240643728,0.775));
#1878=CARTESIAN_POINT('Origin',(66.5035894329555,39.8973346652368,1.55));
#1879=CARTESIAN_POINT('',(66.2156247267403,56.3948216353173,2.325));
#1880=CARTESIAN_POINT('',(66.5716538180609,35.9979286541269,-0.675));
#1881=CARTESIAN_POINT('Origin',(0.,0.,0.));
#1882=CARTESIAN_POINT('',(0.373843022351373,21.4174524064373,0.));
#1883=CARTESIAN_POINT('Origin',(48.3185780656152,38.8798074814688,0.1));
#1884=CARTESIAN_POINT('',(48.3185780656152,38.8798074814688,0.1));
#1885=CARTESIAN_POINT('Origin',(62.3164457978047,39.1241411715908,0.1));
#1886=CARTESIAN_POINT('Origin',(52.8911928008556,34.7589829907797,3.1));
#1887=CARTESIAN_POINT('',(52.8911928008556,34.7589829907797,5.35));
#1888=CARTESIAN_POINT('',(52.8388355815438,37.7585260762489,7.6));
#1889=CARTESIAN_POINT('Origin',(57.8904312766376,34.8462450229662,7.6));
#1890=CARTESIAN_POINT('',(57.8904312766376,34.8462450229662,5.35));
#1891=CARTESIAN_POINT('',(57.8380740573257,37.8457881084353,7.6));
#1892=CARTESIAN_POINT('Origin',(44.192517852995,34.6071470547754,3.1));
#1893=CARTESIAN_POINT('',(65.5892585293418,34.9806285525332,2.325));
#1894=CARTESIAN_POINT('',(45.1923655481514,34.6245994612127,2.325));
#1895=CARTESIAN_POINT('Origin',(47.1397037191523,37.6590473595564,3.1));
#1896=CARTESIAN_POINT('',(63.5372059197171,37.9452668251278,3.1));
#1897=CARTESIAN_POINT('',(47.1397037191523,37.6590473595564,3.1));
#1898=CARTESIAN_POINT('Origin',(65.2157770315839,56.37736922888,2.325));
#1899=CARTESIAN_POINT('',(65.1983246251466,57.3772169240364,-0.675));
#1900=CARTESIAN_POINT('Origin',(46.8534842535809,54.0565495601212,3.1));
#1901=CARTESIAN_POINT('',(46.8534842535809,54.0565495601212,7.6));
#1902=CARTESIAN_POINT('Origin',(65.5718061229045,35.9804762476896,2.325));
#1903=CARTESIAN_POINT('Origin',(43.3879870044523,23.4,0.775));
#1904=CARTESIAN_POINT('',(44.3878346996087,23.4174524064373,0.775));
#1905=CARTESIAN_POINT('Origin',(0.,22.4,0.));
#1906=CARTESIAN_POINT('',(3.03490481287449,22.4,0.));
#1907=CARTESIAN_POINT('',(1.37369071750776,22.4,0.));
#1908=CARTESIAN_POINT('Origin',(1.37369071750776,21.4,0.));
#1909=CARTESIAN_POINT('Origin',(17.0195876575429,23.4,0.));
#1910=CARTESIAN_POINT('',(16.0197399623865,23.4174524064373,0.));
#1911=CARTESIAN_POINT('Origin',(15.9980200370331,22.1731187163153,0.));
#1912=CARTESIAN_POINT('',(16.3732467754347,43.6698441621777,0.));
#1913=CARTESIAN_POINT('Origin',(15.3733990802783,43.687296568615,0.));
#1914=CARTESIAN_POINT('',(15.3908514867156,44.6871442637714,0.));
#1915=CARTESIAN_POINT('Origin',(16.390699181872,44.6696918573341,0.));
#1916=CARTESIAN_POINT('',(16.390699181872,44.6696918573341,0.));
#1917=CARTESIAN_POINT('',(5.39237453515166,44.8616683281442,0.));
#1918=CARTESIAN_POINT('Origin',(5.37492212871438,43.8618206329878,0.));
#1919=CARTESIAN_POINT('',(4.37507443355799,43.8792730394251,0.));
#1920=CARTESIAN_POINT('Origin',(3.01745240643728,23.3998476951564,0.));
#1921=CARTESIAN_POINT('',(4.01730010159367,23.3823952887191,0.));
#1922=CARTESIAN_POINT('Origin',(4.39252683999527,44.8791207345815,0.));
#1923=CARTESIAN_POINT('Origin',(7.2670889635699,44.8289450660743,1.));
#1924=CARTESIAN_POINT('',(14.1235894613328,43.7091120766616,1.));
#1925=CARTESIAN_POINT('Origin',(14.1410418677701,44.708959771818,1.));
#1926=CARTESIAN_POINT('',(6.62473174765987,43.8400051249412,1.));
#1927=CARTESIAN_POINT('',(7.24963655713261,43.8290973709179,1.));
#1928=CARTESIAN_POINT('Origin',(6.64218415409715,44.8398528200976,1.));
#1929=CARTESIAN_POINT('Origin',(6.60727934122258,42.8401574297849,1.));
#1930=CARTESIAN_POINT('',(5.60743164606619,42.8576098362221,1.));
#1931=CARTESIAN_POINT('Origin',(4.6075839509098,42.8750622426594,1.));
#1932=CARTESIAN_POINT('Origin',(6.60727934122258,42.8401574297849,1.));
#1933=CARTESIAN_POINT('Origin',(4.23322983283007,21.4283291815548,1.));
#1934=CARTESIAN_POINT('',(5.39800276881879,30.8594374943454,1.));
#1935=CARTESIAN_POINT('Origin',(4.3981550736624,30.8768899007827,1.));
#1936=CARTESIAN_POINT('',(5.23307752798646,21.4108767751175,1.));
#1937=CARTESIAN_POINT('Origin',(6.39785046397518,30.8419850879082,1.));
#1938=CARTESIAN_POINT('',(6.3803980575379,29.8421373927518,1.));
#1939=CARTESIAN_POINT('Origin',(6.36294565110061,28.8422896975954,1.));
#1940=CARTESIAN_POINT('Origin',(6.39785046397518,30.8419850879082,1.));
#1941=CARTESIAN_POINT('Origin',(3.23842160373689,28.8968284677119,1.));
#1942=CARTESIAN_POINT('',(13.8792557712108,29.7112443444721,1.));
#1943=CARTESIAN_POINT('Origin',(13.8618033647736,28.7113966493157,1.));
#1944=CARTESIAN_POINT('',(3.25587401017418,29.8966761628683,1.));
#1945=CARTESIAN_POINT('Origin',(13.8967081776481,30.7110920396285,1.));
#1946=CARTESIAN_POINT('',(14.8965558728045,30.6936396331912,1.));
#1947=CARTESIAN_POINT('Origin',(15.8964035679609,30.676187226754,1.));
#1948=CARTESIAN_POINT('Origin',(13.8967081776481,30.7110920396285,1.));
#1949=CARTESIAN_POINT('Origin',(15.6267638885049,15.2285403365877,1.));
#1950=CARTESIAN_POINT('',(15.1059847500519,42.6918119750679,1.));
#1951=CARTESIAN_POINT('Origin',(16.1058324452083,42.6743595686307,1.));
#1952=CARTESIAN_POINT('',(14.6269161933485,15.245992743025,1.));
#1953=CARTESIAN_POINT('Origin',(14.1061370548955,42.7092643815052,1.));
#1954=CARTESIAN_POINT('Origin',(14.1061370548955,42.7092643815052,1.));
#1955=CARTESIAN_POINT('Origin',(6.39785046397518,30.8419850879082,0.));
#1956=CARTESIAN_POINT('',(5.39800276881879,30.8594374943454,1.15));
#1957=CARTESIAN_POINT('',(5.39800276881879,30.8594374943454,0.));
#1958=CARTESIAN_POINT('',(6.3803980575379,29.8421373927518,1.15));
#1959=CARTESIAN_POINT('Origin',(6.39785046397518,30.8419850879082,1.15));
#1960=CARTESIAN_POINT('',(6.3803980575379,29.8421373927518,0.));
#1961=CARTESIAN_POINT('Origin',(5.60743164606619,42.8576098362221,0.));
#1962=CARTESIAN_POINT('',(5.60743164606619,42.8576098362221,1.15));
#1963=CARTESIAN_POINT('',(5.60743164606619,42.8576098362221,0.));
#1964=CARTESIAN_POINT('',(5.50271720744249,36.8585236652838,1.15));
#1965=CARTESIAN_POINT('Origin',(6.60727934122258,42.8401574297849,0.));
#1966=CARTESIAN_POINT('',(6.62473174765987,43.8400051249412,1.15));
#1967=CARTESIAN_POINT('',(6.62473174765987,43.8400051249412,0.));
#1968=CARTESIAN_POINT('Origin',(6.60727934122258,42.8401574297849,1.15));
#1969=CARTESIAN_POINT('Origin',(14.1235894613328,43.7091120766616,0.));
#1970=CARTESIAN_POINT('',(14.1235894613328,43.7091120766616,1.15));
#1971=CARTESIAN_POINT('',(14.1235894613328,43.7091120766616,0.));
#1972=CARTESIAN_POINT('',(14.1235894613328,43.7091120766616,1.15));
#1973=CARTESIAN_POINT('Origin',(13.8967081776481,30.7110920396285,0.));
#1974=CARTESIAN_POINT('',(13.8792557712108,29.7112443444721,1.15));
#1975=CARTESIAN_POINT('',(13.8792557712108,29.7112443444721,0.));
#1976=CARTESIAN_POINT('',(14.8965558728045,30.6936396331912,1.15));
#1977=CARTESIAN_POINT('Origin',(13.8967081776481,30.7110920396285,1.15));
#1978=CARTESIAN_POINT('',(14.8965558728045,30.6936396331912,0.));
#1979=CARTESIAN_POINT('Origin',(6.3803980575379,29.8421373927518,0.));
#1980=CARTESIAN_POINT('',(6.3803980575379,29.8421373927518,1.15));
#1981=CARTESIAN_POINT('Origin',(14.1061370548955,42.7092643815052,0.));
#1982=CARTESIAN_POINT('',(15.1059847500519,42.6918119750679,1.15));
#1983=CARTESIAN_POINT('',(15.1059847500519,42.6918119750679,0.));
#1984=CARTESIAN_POINT('Origin',(14.1061370548955,42.7092643815052,1.15));
#1985=CARTESIAN_POINT('Origin',(14.8965558728045,30.6936396331912,0.));
#1986=CARTESIAN_POINT('',(15.0012703114282,36.6927258041296,1.15));
#1987=CARTESIAN_POINT('Origin',(10.2519937594353,36.7756247347067,1.15));
#1988=CARTESIAN_POINT('',(9.25214606427896,36.793077141144,1.15));
#1989=CARTESIAN_POINT('Origin',(10.2519937594354,36.7756247347067,1.15));
#1990=CARTESIAN_POINT('Origin',(10.2519937594354,36.7756247347067,0.));
#1991=CARTESIAN_POINT('',(9.25214606427896,36.793077141144,0.));
#1992=CARTESIAN_POINT('Origin',(45.1749131417141,35.6244471563691,2.325));
#1993=CARTESIAN_POINT('',(44.1750654465577,35.6069947499318,2.325));
#1994=CARTESIAN_POINT('Origin',(44.1070010614523,39.5064007610417,1.55));
#1995=CARTESIAN_POINT('',(43.8190363552371,56.0038877311221,2.325));
#1996=CARTESIAN_POINT('Origin',(44.8188840503935,56.0213401375594,2.325));
#1997=CARTESIAN_POINT('',(44.8014316439562,57.0211878327158,2.325));
#1998=CARTESIAN_POINT('Origin',(66.198172320303,57.3946693304737,3.1));
#1999=CARTESIAN_POINT('Origin',(63.2509864541457,54.3427690256927,3.1));
#2000=CARTESIAN_POINT('',(63.2509864541457,54.3427690256927,3.1));
#2001=CARTESIAN_POINT('Origin',(63.5372059197171,37.9452668251278,3.1));
#2002=UNCERTAINTY_MEASURE_WITH_UNIT(LENGTH_MEASURE(0.01),#2006,
'DISTANCE_ACCURACY_VALUE',
'Maximum model space distance between geometric entities at asserted c
onnectivities');
#2003=UNCERTAINTY_MEASURE_WITH_UNIT(LENGTH_MEASURE(0.01),#2006,
'DISTANCE_ACCURACY_VALUE',
'Maximum model space distance between geometric entities at asserted c
onnectivities');
#2004=(
GEOMETRIC_REPRESENTATION_CONTEXT(3)
GLOBAL_UNCERTAINTY_ASSIGNED_CONTEXT((#2002))
GLOBAL_UNIT_ASSIGNED_CONTEXT((#2006,#2008,#2009))
REPRESENTATION_CONTEXT('','3D')
);
#2005=(
GEOMETRIC_REPRESENTATION_CONTEXT(3)
GLOBAL_UNCERTAINTY_ASSIGNED_CONTEXT((#2003))
GLOBAL_UNIT_ASSIGNED_CONTEXT((#2006,#2008,#2009))
REPRESENTATION_CONTEXT('','3D')
);
#2006=(
LENGTH_UNIT()
NAMED_UNIT(*)
SI_UNIT(.MILLI.,.METRE.)
);
#2007=(
LENGTH_UNIT()
NAMED_UNIT(*)
SI_UNIT($,.METRE.)
);
#2008=(
NAMED_UNIT(*)
PLANE_ANGLE_UNIT()
SI_UNIT($,.RADIAN.)
);
#2009=(
NAMED_UNIT(*)
SI_UNIT($,.STERADIAN.)
SOLID_ANGLE_UNIT()
);
#2010=SHAPE_DEFINITION_REPRESENTATION(#2011,#2012);
#2011=PRODUCT_DEFINITION_SHAPE('',$,#2014);
#2012=SHAPE_REPRESENTATION('',(#1176),#2004);
#2013=PRODUCT_DEFINITION_CONTEXT('part definition',#2018,'design');
#2014=PRODUCT_DEFINITION('Open CASCADE STEP translator 7.9 1',
'Cherub WTB-006 silent switch platform',#2015,#2013);
#2015=PRODUCT_DEFINITION_FORMATION('',$,#2020);
#2016=PRODUCT_RELATED_PRODUCT_CATEGORY(
'Cherub WTB-006 silent switch platform',
'Cherub WTB-006 silent switch platform',(#2020));
#2017=APPLICATION_PROTOCOL_DEFINITION('international standard',
'automotive_design',2009,#2018);
#2018=APPLICATION_CONTEXT(
'Core Data for Automotive Mechanical Design Process');
#2019=PRODUCT_CONTEXT('part definition',#2018,'mechanical');
#2020=PRODUCT('Open CASCADE STEP translator 7.9 1',
'Cherub WTB-006 silent switch platform','Open CASCADE Model',(#2019));
#2021=PRESENTATION_STYLE_ASSIGNMENT((#2022));
#2022=SURFACE_STYLE_USAGE(.BOTH.,#2023);
#2023=SURFACE_SIDE_STYLE('',(#2024));
#2024=SURFACE_STYLE_FILL_AREA(#2025);
#2025=FILL_AREA_STYLE('Steel - Satin',(#2026));
#2026=FILL_AREA_STYLE_COLOUR('Steel - Satin',#2027);
#2027=COLOUR_RGB('Steel - Satin',0.627450980392157,0.627450980392157,0.627450980392157);
ENDSEC;
END-ISO-10303-21;
