%TF.GenerationSoftware,KiCad,Pcbnew,10.0.4*%
%TF.CreationDate,2026-09-26T13:56:40-03:00*%
%TF.ProjectId,segno_pedal_ring,7365676e-6f5f-4706-9564-616c5f72696e,rev?*%
%TF.SameCoordinates,Original*%
%TF.FileFunction,Copper,L2,Bot*%
%TF.FilePolarity,Positive*%
%FSLAX46Y46*%
G04 Gerber Fmt 4.6, Leading zero omitted, Abs format (unit mm)*
G04 Created by KiCad (PCBNEW 10.0.4) date 2026-09-26 13:56:40*
%MOMM*%
%LPD*%
G01*
G04 APERTURE LIST*
G04 Aperture macros list*
%AMRoundRect*
0 Rectangle with rounded corners*
0 $1 Rounding radius*
0 $2 $3 $4 $5 $6 $7 $8 $9 X,Y pos of 4 corners*
0 Add a 4 corners polygon primitive as box body*
4,1,4,$2,$3,$4,$5,$6,$7,$8,$9,$2,$3,0*
0 Add four circle primitives for the rounded corners*
1,1,$1+$1,$2,$3*
1,1,$1+$1,$4,$5*
1,1,$1+$1,$6,$7*
1,1,$1+$1,$8,$9*
0 Add four rect primitives between the rounded corners*
20,1,$1+$1,$2,$3,$4,$5,0*
20,1,$1+$1,$4,$5,$6,$7,0*
20,1,$1+$1,$6,$7,$8,$9,0*
20,1,$1+$1,$8,$9,$2,$3,0*%
G04 Aperture macros list end*
%TA.AperFunction,ComponentPad*%
%ADD10C,1.900000*%
%TD*%
%TA.AperFunction,ComponentPad*%
%ADD11O,2.300000X4.000000*%
%TD*%
%TA.AperFunction,ComponentPad*%
%ADD12C,1.800000*%
%TD*%
%TA.AperFunction,ComponentPad*%
%ADD13C,1.600000*%
%TD*%
%TA.AperFunction,ComponentPad*%
%ADD14RoundRect,0.250000X-0.550000X-0.550000X0.550000X-0.550000X0.550000X0.550000X-0.550000X0.550000X0*%
%TD*%
%TA.AperFunction,SMDPad,CuDef*%
%ADD15RoundRect,0.200000X-0.800000X1.175000X-0.800000X-1.175000X0.800000X-1.175000X0.800000X1.175000X0*%
%TD*%
%TA.AperFunction,SMDPad,CuDef*%
%ADD16RoundRect,0.200000X0.800000X-1.175000X0.800000X1.175000X-0.800000X1.175000X-0.800000X-1.175000X0*%
%TD*%
%TA.AperFunction,ComponentPad*%
%ADD17RoundRect,0.250000X-0.600000X-0.725000X0.600000X-0.725000X0.600000X0.725000X-0.600000X0.725000X0*%
%TD*%
%TA.AperFunction,ComponentPad*%
%ADD18O,1.700000X1.950000*%
%TD*%
%TA.AperFunction,ComponentPad*%
%ADD19RoundRect,0.249999X0.850001X0.850001X-0.850001X0.850001X-0.850001X-0.850001X0.850001X-0.850001X0*%
%TD*%
%TA.AperFunction,ComponentPad*%
%ADD20C,2.200000*%
%TD*%
%TA.AperFunction,ViaPad*%
%ADD21C,0.800000*%
%TD*%
%TA.AperFunction,Conductor*%
%ADD22C,0.650000*%
%TD*%
%TA.AperFunction,Conductor*%
%ADD23C,0.550000*%
%TD*%
%TA.AperFunction,Conductor*%
%ADD24C,0.300000*%
%TD*%
G04 APERTURE END LIST*
D10*
%TO.P,J3,1*%
%TO.N,RING_DATA*%
X40140000Y-4682000D03*
%TO.P,J3,2*%
%TO.N,+5V_LED*%
X31860000Y-67318000D03*
%TO.P,J3,3*%
%TO.N,GND*%
X48090000Y-65185000D03*
%TO.P,J3,4*%
%TO.N,RING_DOUT*%
X23935000Y-6790000D03*
%TD*%
%TO.P,J4,1*%
%TO.N,RING_DATA*%
X24370000Y-18450000D03*
%TO.P,J4,2*%
%TO.N,+5V_LED*%
X18450000Y-47630000D03*
%TO.P,J4,3*%
%TO.N,GND*%
X47680000Y-53530000D03*
%TO.P,J4,4*%
%TO.N,RING_DOUT*%
X40110000Y-15350000D03*
%TD*%
D11*
%TO.P,ENC1,6*%
%TO.N,N/C*%
X41482500Y-35767500D03*
%TO.P,ENC1,7*%
X30482500Y-35767500D03*
D12*
%TO.P,ENC1,A*%
%TO.N,ENC_A*%
X33442500Y-43267500D03*
%TO.P,ENC1,B*%
%TO.N,ENC_B*%
X38522500Y-43267500D03*
%TO.P,ENC1,C*%
%TO.N,GND*%
X35982500Y-43267500D03*
%TO.P,ENC1,S1*%
%TO.N,ENC_SW*%
X33442500Y-28767500D03*
%TO.P,ENC1,S2*%
%TO.N,GND*%
X38522500Y-28767500D03*
%TD*%
D13*
%TO.P,C2,1*%
%TO.N,ENC_A*%
X58000000Y-53500000D03*
%TO.P,C2,2*%
%TO.N,GND*%
X63000000Y-53500000D03*
%TD*%
%TO.P,R2,1*%
%TO.N,+3V3*%
X32000000Y-48000000D03*
%TO.P,R2,2*%
%TO.N,ENC_A*%
X21840000Y-48000000D03*
%TD*%
D14*
%TO.P,U2,1*%
%TO.N,GND*%
X28000000Y-20000000D03*
D13*
%TO.P,U2,2*%
%TO.N,RING_DATA_3V3*%
X28000000Y-17460000D03*
%TO.P,U2,3*%
%TO.N,RING_DATA_5V*%
X28000000Y-14920000D03*
%TO.P,U2,4*%
%TO.N,+5V_LED*%
X28000000Y-12380000D03*
%TO.P,U2,5*%
%TO.N,GND*%
X28000000Y-9840000D03*
%TO.P,U2,6*%
%TO.N,N/C*%
X28000000Y-7300000D03*
%TO.P,U2,7*%
%TO.N,GND*%
X28000000Y-4760000D03*
%TO.P,U2,8*%
%TO.N,N/C*%
X35620000Y-4760000D03*
%TO.P,U2,9*%
%TO.N,GND*%
X35620000Y-7300000D03*
%TO.P,U2,10*%
%TO.N,+5V_LED*%
X35620000Y-9840000D03*
%TO.P,U2,11*%
%TO.N,N/C*%
X35620000Y-12380000D03*
%TO.P,U2,12*%
%TO.N,GND*%
X35620000Y-14920000D03*
%TO.P,U2,13*%
%TO.N,+5V_LED*%
X35620000Y-17460000D03*
%TO.P,U2,14*%
X35620000Y-20000000D03*
%TD*%
%TO.P,C3,1*%
%TO.N,ENC_B*%
X63000000Y-49000000D03*
%TO.P,C3,2*%
%TO.N,GND*%
X68000000Y-49000000D03*
%TD*%
%TO.P,R4,1*%
%TO.N,+3V3*%
X32000000Y-56000000D03*
%TO.P,R4,2*%
%TO.N,ENC_SW*%
X21840000Y-56000000D03*
%TD*%
D14*
%TO.P,C1,1*%
%TO.N,+5V_LED*%
X36000000Y-62000000D03*
D13*
%TO.P,C1,2*%
%TO.N,GND*%
X39500000Y-62000000D03*
%TD*%
D15*
%TO.P,U1,1*%
%TO.N,RING_DATA_3V3*%
X65620000Y-44082500D03*
%TO.P,U1,2*%
%TO.N,ENC_A*%
X63080000Y-44082500D03*
%TO.P,U1,3*%
%TO.N,ENC_B*%
X60540000Y-44082500D03*
%TO.P,U1,4*%
%TO.N,ENC_SW*%
X58000000Y-44082500D03*
%TO.P,U1,5*%
%TO.N,N/C*%
X55460000Y-44082500D03*
%TO.P,U1,6*%
X52920000Y-44082500D03*
%TO.P,U1,7*%
X50380000Y-44082500D03*
D16*
%TO.P,U1,8*%
X50380000Y-27917500D03*
%TO.P,U1,9*%
X52920000Y-27917500D03*
%TO.P,U1,10*%
%TO.N,LINK_TO_RING*%
X55460000Y-27917500D03*
%TO.P,U1,11*%
%TO.N,LINK_TO_CONSOLE*%
X58000000Y-27917500D03*
%TO.P,U1,12*%
%TO.N,+3V3*%
X60540000Y-27917500D03*
%TO.P,U1,13*%
%TO.N,GND*%
X63080000Y-27917500D03*
%TO.P,U1,14*%
%TO.N,+5V_MCU*%
X65620000Y-27917500D03*
%TD*%
D17*
%TO.P,J1,1*%
%TO.N,+5V_LED*%
X52000000Y-20000000D03*
D18*
%TO.P,J1,2*%
%TO.N,GND*%
X54500000Y-20000000D03*
%TO.P,J1,3*%
%TO.N,LINK_TO_RING*%
X57000000Y-20000000D03*
%TO.P,J1,4*%
%TO.N,LINK_TO_CONSOLE*%
X59500000Y-20000000D03*
%TD*%
D19*
%TO.P,D1,1*%
%TO.N,+5V_MCU*%
X63000000Y-12000000D03*
D20*
%TO.P,D1,2*%
%TO.N,+5V_LED*%
X52840000Y-12000000D03*
%TD*%
D13*
%TO.P,R3,1*%
%TO.N,+3V3*%
X32000000Y-52000000D03*
%TO.P,R3,2*%
%TO.N,ENC_B*%
X21840000Y-52000000D03*
%TD*%
%TO.P,R5,1*%
%TO.N,RING_DATA_3V3*%
X25160000Y-23000000D03*
%TO.P,R5,2*%
%TO.N,GND*%
X15000000Y-23000000D03*
%TD*%
%TO.P,R1,1*%
%TO.N,RING_DATA_5V*%
X39000000Y-8000000D03*
%TO.P,R1,2*%
%TO.N,RING_DATA*%
X49160000Y-8000000D03*
%TD*%
%TO.P,C5,1*%
%TO.N,+5V_LED*%
X39000000Y-18500000D03*
%TO.P,C5,2*%
%TO.N,GND*%
X44000000Y-18500000D03*
%TD*%
%TO.P,C4,1*%
%TO.N,ENC_SW*%
X54000000Y-49000000D03*
%TO.P,C4,2*%
%TO.N,GND*%
X59000000Y-49000000D03*
%TD*%
D21*
%TO.N,GND*%
X63456200Y-28951200D03*
X34730000Y-23500000D03*
X31763300Y-14782400D03*
X35230000Y-24000000D03*
X33463300Y-14982400D03*
X39606200Y-70311000D03*
X18750000Y-65877900D03*
X70500000Y-36000000D03*
X32393800Y-70311000D03*
X33363300Y-17582400D03*
X25338900Y-68811400D03*
X53250000Y-65877900D03*
X33263300Y-12482400D03*
X34230000Y-24000000D03*
X46661100Y-68811400D03*
X63911100Y-56278600D03*
X30563300Y-19382400D03*
X69746100Y-43173000D03*
X32863300Y-13882400D03*
X59085000Y-61638500D03*
%TO.N,RING_DOUT*%
X39810000Y-24900000D03*
%TD*%
%TO.N,+5V_LED*%
D22*
X19448360Y-21247438D02*
X19429280Y-21376060D01*
X19422900Y-47630000D02*
X31471916Y-59679016D01*
X31834540Y-60357438D02*
X31853620Y-60486060D01*
X52840000Y-12000000D02*
X52388084Y-12451916D01*
X19723661Y-20665362D02*
X19646203Y-20769802D01*
X31559239Y-59775362D02*
X31636697Y-59879802D01*
X30352702Y-10063303D02*
X30248262Y-10140761D01*
X52057054Y-13004206D02*
X52025460Y-13130338D01*
X30464232Y-9996454D02*
X30352702Y-10063303D01*
X31088833Y-9840000D02*
X30958960Y-9846380D01*
X35620000Y-9840000D02*
X31088833Y-9840000D01*
X52300761Y-12548262D02*
X52223303Y-12652702D01*
X52025460Y-13130338D02*
X52006380Y-13258960D01*
X30958960Y-9846380D02*
X30830338Y-9865460D01*
X30248262Y-10140761D02*
X30151916Y-10228084D01*
X31759140Y-60108877D02*
X31802946Y-60231306D01*
X19429280Y-21376060D02*
X19422900Y-21505933D01*
X31471916Y-59679016D02*
X31559239Y-59775362D01*
X52100860Y-12881777D02*
X52057054Y-13004206D01*
X31636697Y-59879802D02*
X31703546Y-59991332D01*
X19523760Y-20998877D02*
X19479954Y-21121306D01*
X19479954Y-21121306D02*
X19448360Y-21247438D01*
X31860000Y-62000000D02*
X36000000Y-62000000D01*
X52388084Y-12451916D02*
X52300761Y-12548262D01*
X31860000Y-60615933D02*
X31860000Y-62000000D01*
X31802946Y-60231306D02*
X31834540Y-60357438D01*
X31703546Y-59991332D02*
X31759140Y-60108877D01*
X52000000Y-13388833D02*
X52000000Y-20000000D01*
X31860000Y-62000000D02*
X31860000Y-67318000D01*
X19422900Y-21505933D02*
X19422900Y-47630000D01*
X30151916Y-10228084D02*
X28000000Y-12380000D01*
X19810984Y-20569016D02*
X19723661Y-20665362D01*
X19579354Y-20881332D02*
X19523760Y-20998877D01*
X30704206Y-9897054D02*
X30581777Y-9940860D01*
X28000000Y-12380000D02*
X19810984Y-20569016D01*
X52006380Y-13258960D02*
X52000000Y-13388833D01*
X19646203Y-20769802D02*
X19579354Y-20881332D01*
X52223303Y-12652702D02*
X52156454Y-12764232D01*
X18450000Y-47630000D02*
X19422900Y-47630000D01*
X30830338Y-9865460D02*
X30704206Y-9897054D01*
X30581777Y-9940860D02*
X30464232Y-9996454D01*
X52156454Y-12764232D02*
X52100860Y-12881777D01*
X31853620Y-60486060D02*
X31860000Y-60615933D01*
%TO.N,RING_DOUT*%
D23*
X36282309Y-3514550D02*
X36389630Y-3578876D01*
X27519009Y-3418901D02*
X27640382Y-3388499D01*
X36389630Y-3578876D02*
X36490129Y-3653412D01*
X37550699Y-12486818D02*
X37581101Y-12608191D01*
X37311324Y-4500570D02*
X37375650Y-4607891D01*
X27180770Y-3578876D02*
X27288091Y-3514550D01*
X37501701Y-4960182D02*
X37520061Y-5083950D01*
X36051391Y-3418901D02*
X36169199Y-3461054D01*
X26987561Y-3737439D02*
X27080271Y-3653412D01*
X36582839Y-3737439D02*
X37152761Y-4307361D01*
D24*
X40371081Y-24146882D02*
X40333061Y-24253140D01*
D23*
X37532339Y-12363050D02*
X37550699Y-12486818D01*
D24*
X40420600Y-23813054D02*
X40415062Y-23925774D01*
D23*
X35806250Y-3370139D02*
X35930018Y-3388499D01*
D24*
X40398503Y-24037408D02*
X40371081Y-24146882D01*
D23*
X37236788Y-4400071D02*
X37311324Y-4500570D01*
X27080271Y-3653412D02*
X27180770Y-3578876D01*
X37526200Y-5208922D02*
X37526200Y-12238078D01*
X37815612Y-13046929D02*
X37899639Y-13139639D01*
D24*
X40159562Y-24542607D02*
X40083773Y-24626227D01*
D23*
X35681278Y-3364000D02*
X35806250Y-3370139D01*
X40110000Y-15350000D02*
X40420600Y-15660600D01*
X37375650Y-4607891D02*
X37429146Y-4721001D01*
X37471299Y-4838809D02*
X37501701Y-4960182D01*
X35930018Y-3388499D02*
X36051391Y-3418901D01*
X27288091Y-3514550D02*
X27401201Y-3461054D01*
X37623254Y-12725999D02*
X37676750Y-12839109D01*
X37741076Y-12946430D02*
X37815612Y-13046929D01*
D24*
X40415062Y-23925774D02*
X40398503Y-24037408D01*
X40226790Y-24451960D02*
X40159562Y-24542607D01*
X40420600Y-15660600D02*
X40420600Y-23813054D01*
D23*
X37676750Y-12839109D02*
X37741076Y-12946430D01*
D24*
X40284809Y-24355161D02*
X40226790Y-24451960D01*
X40083773Y-24626227D02*
X39810000Y-24900000D01*
D23*
X27401201Y-3461054D02*
X27519009Y-3418901D01*
X37152761Y-4307361D02*
X37236788Y-4400071D01*
X27889122Y-3364000D02*
X35681278Y-3364000D01*
X37520061Y-5083950D02*
X37526200Y-5208922D01*
D24*
X40333061Y-24253140D02*
X40284809Y-24355161D01*
D23*
X37581101Y-12608191D02*
X37623254Y-12725999D01*
X27640382Y-3388499D02*
X27764150Y-3370139D01*
X27764150Y-3370139D02*
X27889122Y-3364000D01*
X37899639Y-13139639D02*
X40110000Y-15350000D01*
X23935000Y-6790000D02*
X26987561Y-3737439D01*
X36490129Y-3653412D02*
X36582839Y-3737439D01*
X36169199Y-3461054D02*
X36282309Y-3514550D01*
X37429146Y-4721001D02*
X37471299Y-4838809D01*
X37526200Y-12238078D02*
X37532339Y-12363050D01*
%TO.N,ENC_A*%
D24*
X53866893Y-53238962D02*
X53783273Y-53163173D01*
X58000000Y-53500000D02*
X54596446Y-53500000D01*
X63416827Y-47514727D02*
X63341038Y-47431107D01*
X46516927Y-45896827D02*
X46433307Y-45821038D01*
X53783273Y-53163173D02*
X46516927Y-45896827D01*
X64271600Y-49041554D02*
X64271600Y-48845846D01*
X36211346Y-45560000D02*
X36098626Y-45554462D01*
X35771260Y-45472461D02*
X35669239Y-45424209D01*
X46342660Y-45753810D02*
X46245861Y-45695791D01*
X64184061Y-49481640D02*
X64222081Y-49375382D01*
X64249503Y-49265908D02*
X64266062Y-49154274D01*
X35669239Y-45424209D02*
X35572440Y-45366190D01*
X64010562Y-49771107D02*
X64077790Y-49680460D01*
X60452060Y-53306190D02*
X60542707Y-53238962D01*
X46037582Y-45609519D02*
X45928108Y-45582097D01*
X45816474Y-45565538D02*
X45703754Y-45560000D01*
X60037508Y-53477903D02*
X60146982Y-53450481D01*
X63934773Y-49854727D02*
X64010562Y-49771107D01*
X63341038Y-47431107D02*
X63273810Y-47340460D01*
X35481793Y-45298962D02*
X35398173Y-45223173D01*
X60626327Y-53163173D02*
X63934773Y-49854727D01*
X60355261Y-53364209D02*
X60452060Y-53306190D01*
X63273810Y-47340460D02*
X63215791Y-47243661D01*
X60253240Y-53412461D02*
X60355261Y-53364209D01*
X54483726Y-53494462D02*
X54372092Y-53477903D01*
X54262618Y-53450481D02*
X54156360Y-53412461D01*
X63085538Y-46814274D02*
X63080000Y-46701554D01*
X64135809Y-48303739D02*
X64077790Y-48206940D01*
X45928108Y-45582097D02*
X45816474Y-45565538D01*
X64222081Y-49375382D02*
X64249503Y-49265908D01*
X36098626Y-45554462D02*
X35986992Y-45537903D01*
X64222081Y-48512018D02*
X64184061Y-48405760D01*
X54156360Y-53412461D02*
X54054339Y-53364209D01*
X63080000Y-46701554D02*
X63080000Y-44082500D01*
X64271600Y-48845846D02*
X64266062Y-48733126D01*
X46143840Y-45647539D02*
X46037582Y-45609519D01*
X63934773Y-48032673D02*
X63416827Y-47514727D01*
X59925874Y-53494462D02*
X60037508Y-53477903D01*
X60542707Y-53238962D02*
X60626327Y-53163173D01*
X63129519Y-47035382D02*
X63102097Y-46925908D01*
X35398173Y-45223173D02*
X33442500Y-43267500D01*
X35572440Y-45366190D02*
X35481793Y-45298962D01*
X64135809Y-49583661D02*
X64184061Y-49481640D01*
X63215791Y-47243661D02*
X63167539Y-47141640D01*
X58000000Y-53500000D02*
X59813154Y-53500000D01*
X64077790Y-49680460D02*
X64135809Y-49583661D01*
X64077790Y-48206940D02*
X64010562Y-48116293D01*
X54372092Y-53477903D02*
X54262618Y-53450481D01*
X45703754Y-45560000D02*
X36211346Y-45560000D01*
X53957540Y-53306190D02*
X53866893Y-53238962D01*
X64266062Y-49154274D02*
X64271600Y-49041554D01*
X54596446Y-53500000D02*
X54483726Y-53494462D01*
X46245861Y-45695791D02*
X46143840Y-45647539D01*
X54054339Y-53364209D02*
X53957540Y-53306190D01*
X60146982Y-53450481D02*
X60253240Y-53412461D01*
X46433307Y-45821038D02*
X46342660Y-45753810D01*
X64184061Y-48405760D02*
X64135809Y-48303739D01*
X35877518Y-45510481D02*
X35771260Y-45472461D01*
X64010562Y-48116293D02*
X63934773Y-48032673D01*
X59813154Y-53500000D02*
X59925874Y-53494462D01*
X63102097Y-46925908D02*
X63085538Y-46814274D01*
X64249503Y-48621492D02*
X64222081Y-48512018D01*
X35986992Y-45537903D02*
X35877518Y-45510481D01*
X63167539Y-47141640D02*
X63129519Y-47035382D01*
X64266062Y-48733126D02*
X64249503Y-48621492D01*
%TO.N,ENC_B*%
X60540000Y-43626000D02*
X59493627Y-42579627D01*
X59014282Y-42292319D02*
X58904808Y-42264897D01*
X59222561Y-42378591D02*
X59120540Y-42330339D01*
X60801038Y-46793207D02*
X60733810Y-46702560D01*
X58793174Y-42248338D02*
X58680454Y-42242800D01*
X60540000Y-46063654D02*
X60540000Y-44082500D01*
X39210373Y-42579627D02*
X38522500Y-43267500D01*
X39481439Y-42378591D02*
X39384640Y-42436610D01*
X60545538Y-46176374D02*
X60540000Y-46063654D01*
X60627539Y-46503740D02*
X60589519Y-46397482D01*
X39689718Y-42292319D02*
X39583460Y-42330339D01*
X39384640Y-42436610D02*
X39293993Y-42503838D01*
X59493627Y-42579627D02*
X59410007Y-42503838D01*
X39293993Y-42503838D02*
X39210373Y-42579627D01*
X60562097Y-46288008D02*
X60545538Y-46176374D01*
X59319360Y-42436610D02*
X59222561Y-42378591D01*
X40023546Y-42242800D02*
X39910826Y-42248338D01*
X58680454Y-42242800D02*
X40023546Y-42242800D01*
X60540000Y-44082500D02*
X60540000Y-43626000D01*
X59410007Y-42503838D02*
X59319360Y-42436610D01*
X39799192Y-42264897D02*
X39689718Y-42292319D01*
X39910826Y-42248338D02*
X39799192Y-42264897D01*
X60589519Y-46397482D02*
X60562097Y-46288008D01*
X60876827Y-46876827D02*
X60801038Y-46793207D01*
X59120540Y-42330339D02*
X59014282Y-42292319D01*
X60733810Y-46702560D02*
X60675791Y-46605761D01*
X60675791Y-46605761D02*
X60627539Y-46503740D01*
X39583460Y-42330339D02*
X39481439Y-42378591D01*
X58904808Y-42264897D02*
X58793174Y-42248338D01*
X63000000Y-49000000D02*
X60876827Y-46876827D01*
%TO.N,ENC_SW*%
X58000000Y-44082500D02*
X58000000Y-45000000D01*
X58000000Y-45000000D02*
X54000000Y-49000000D01*
%TO.N,+3V3*%
X32000000Y-56000000D02*
X32223900Y-56000000D01*
X66973209Y-42526939D02*
X66915190Y-42430140D01*
X59610882Y-54882181D02*
X59717140Y-54844161D01*
X59389774Y-54926162D02*
X59501408Y-54909603D01*
X67109000Y-47099754D02*
X67109000Y-43069046D01*
X67021461Y-42628960D02*
X66973209Y-42526939D01*
X67059481Y-47433582D02*
X67086903Y-47324108D01*
X59717140Y-54844161D02*
X59819161Y-54795909D01*
X66772173Y-47912927D02*
X66847962Y-47829307D01*
X33098390Y-53129640D02*
X33031162Y-53038993D01*
X66772173Y-42255873D02*
X60876827Y-36360527D01*
X60733810Y-36186260D02*
X60675791Y-36089461D01*
X67086903Y-47324108D02*
X67103462Y-47212474D01*
X66915190Y-42430140D02*
X66847962Y-42339493D01*
X60006607Y-54670662D02*
X60090227Y-54594873D01*
X60801038Y-36276907D02*
X60733810Y-36186260D01*
X67021461Y-47539840D02*
X67059481Y-47433582D01*
X59819161Y-54795909D02*
X59915960Y-54737890D01*
X60090227Y-54594873D02*
X66772173Y-47912927D01*
X33242681Y-53434718D02*
X33204661Y-53328460D01*
X32955373Y-52955373D02*
X32000000Y-52000000D01*
X59915960Y-54737890D02*
X60006607Y-54670662D01*
X66973209Y-47641861D02*
X67021461Y-47539840D01*
X32223900Y-56000000D02*
X33292200Y-54931700D01*
X60540000Y-35547354D02*
X60540000Y-27917500D01*
X67103462Y-47212474D02*
X67109000Y-47099754D01*
X33292200Y-54931700D02*
X59277054Y-54931700D01*
X60589519Y-35881182D02*
X60562097Y-35771708D01*
X33286662Y-53655826D02*
X33270103Y-53544192D01*
X33204661Y-53328460D02*
X33156409Y-53226439D01*
X60545538Y-35660074D02*
X60540000Y-35547354D01*
X66847962Y-42339493D02*
X66772173Y-42255873D01*
X33031162Y-53038993D02*
X32955373Y-52955373D01*
X60562097Y-35771708D02*
X60545538Y-35660074D01*
X33292200Y-53768546D02*
X33286662Y-53655826D01*
X59277054Y-54931700D02*
X59389774Y-54926162D01*
X67103462Y-42956326D02*
X67086903Y-42844692D01*
X59501408Y-54909603D02*
X59610882Y-54882181D01*
X67059481Y-42735218D02*
X67021461Y-42628960D01*
X67086903Y-42844692D02*
X67059481Y-42735218D01*
X66847962Y-47829307D02*
X66915190Y-47738660D01*
X32000000Y-52000000D02*
X32000000Y-48000000D01*
X60627539Y-35987440D02*
X60589519Y-35881182D01*
X33292200Y-54931700D02*
X33292200Y-53768546D01*
X60876827Y-36360527D02*
X60801038Y-36276907D01*
X33156409Y-53226439D02*
X33098390Y-53129640D01*
X60675791Y-36089461D02*
X60627539Y-35987440D01*
X67109000Y-43069046D02*
X67103462Y-42956326D01*
X66915190Y-47738660D02*
X66973209Y-47641861D01*
X33270103Y-53544192D02*
X33242681Y-53434718D01*
%TO.N,RING_DATA_3V3*%
D23*
X51784191Y-29924901D02*
X51662818Y-29894499D01*
X30817518Y-17484499D02*
X30693750Y-17466139D01*
X31470339Y-17833439D02*
X31377629Y-17749412D01*
X28000000Y-17460000D02*
X25533439Y-19926561D01*
X31169809Y-17610550D02*
X31056699Y-17557054D01*
X51414078Y-29870000D02*
X44035022Y-29870000D01*
X25160000Y-20828122D02*
X25160000Y-23000000D01*
X52315639Y-30243439D02*
X52222929Y-30159412D01*
X51662818Y-29894499D02*
X51539050Y-29876139D01*
X30938891Y-17514901D02*
X30817518Y-17484499D01*
X65620000Y-43547800D02*
X52315639Y-30243439D01*
X52222929Y-30159412D02*
X52122430Y-30084876D01*
X43547101Y-29772946D02*
X43433991Y-29719450D01*
X31056699Y-17557054D02*
X30938891Y-17514901D01*
X52122430Y-30084876D02*
X52015109Y-30020550D01*
X25214901Y-20458009D02*
X25184499Y-20579382D01*
X25310550Y-20227091D02*
X25257054Y-20340201D01*
X25257054Y-20340201D02*
X25214901Y-20458009D01*
X51539050Y-29876139D02*
X51414078Y-29870000D01*
X43226171Y-29580588D02*
X43133461Y-29496561D01*
X44035022Y-29870000D02*
X43910050Y-29863861D01*
X25533439Y-19926561D02*
X25449412Y-20019271D01*
X43433991Y-29719450D02*
X43326670Y-29655124D01*
X43133461Y-29496561D02*
X31470339Y-17833439D01*
X30568778Y-17460000D02*
X28000000Y-17460000D01*
X25374876Y-20119770D02*
X25310550Y-20227091D01*
X65620000Y-44082500D02*
X65620000Y-43547800D01*
X25184499Y-20579382D02*
X25166139Y-20703150D01*
X43786282Y-29845501D02*
X43664909Y-29815099D01*
X52015109Y-30020550D02*
X51901999Y-29967054D01*
X25166139Y-20703150D02*
X25160000Y-20828122D01*
X30693750Y-17466139D02*
X30568778Y-17460000D01*
X25449412Y-20019271D02*
X25374876Y-20119770D01*
X43326670Y-29655124D02*
X43226171Y-29580588D01*
X43664909Y-29815099D02*
X43547101Y-29772946D01*
X31377629Y-17749412D02*
X31277130Y-17674876D01*
X31277130Y-17674876D02*
X31169809Y-17610550D01*
X43910050Y-29863861D02*
X43786282Y-29845501D01*
X51901999Y-29967054D02*
X51784191Y-29924901D01*
%TO.N,LINK_TO_RING*%
X55674876Y-21359770D02*
X55610550Y-21467091D01*
X55484499Y-21819382D02*
X55466139Y-21943150D01*
X55466139Y-21943150D02*
X55460000Y-22068122D01*
X55557054Y-21580201D02*
X55514901Y-21698009D01*
X57000000Y-20000000D02*
X55833439Y-21166561D01*
X55610550Y-21467091D02*
X55557054Y-21580201D01*
X55833439Y-21166561D02*
X55749412Y-21259271D01*
X55749412Y-21259271D02*
X55674876Y-21359770D01*
X55460000Y-22068122D02*
X55460000Y-27917500D01*
X55514901Y-21698009D02*
X55484499Y-21819382D01*
%TO.N,LINK_TO_CONSOLE*%
D24*
X58336827Y-21163173D02*
X58261038Y-21246793D01*
X58049519Y-21642518D02*
X58022097Y-21751992D01*
X58000000Y-21976346D02*
X58000000Y-27917500D01*
X58261038Y-21246793D02*
X58193810Y-21337440D01*
X58005538Y-21863626D02*
X58000000Y-21976346D01*
X58087539Y-21536260D02*
X58049519Y-21642518D01*
X58193810Y-21337440D02*
X58135791Y-21434239D01*
X58135791Y-21434239D02*
X58087539Y-21536260D01*
X59500000Y-20000000D02*
X58336827Y-21163173D01*
X58022097Y-21751992D02*
X58005538Y-21863626D01*
%TO.N,+5V_MCU*%
X65614462Y-14983626D02*
X65620000Y-15096346D01*
X65532461Y-14656260D02*
X65570481Y-14762518D01*
X65426190Y-14457440D02*
X65484209Y-14554239D01*
X65358962Y-14366793D02*
X65426190Y-14457440D01*
X65570481Y-14762518D02*
X65597903Y-14871992D01*
X65620000Y-15096346D02*
X65620000Y-27917500D01*
X65484209Y-14554239D02*
X65532461Y-14656260D01*
X65283173Y-14283173D02*
X65358962Y-14366793D01*
X63000000Y-12000000D02*
X65283173Y-14283173D01*
X65597903Y-14871992D02*
X65614462Y-14983626D01*
%TD*%
%TA.AperFunction,Conductor*%
%TO.N,GND*%
G36*
X48822539Y-42912985D02*
G01*
X48868294Y-42965789D01*
X48879500Y-43017300D01*
X48879500Y-45314116D01*
X48880145Y-45321215D01*
X48885913Y-45384692D01*
X48885913Y-45384694D01*
X48885914Y-45384696D01*
X48908077Y-45455820D01*
X48936522Y-45547106D01*
X49024530Y-45692688D01*
X49144811Y-45812969D01*
X49144813Y-45812970D01*
X49144815Y-45812972D01*
X49290394Y-45900978D01*
X49452804Y-45951586D01*
X49523384Y-45958000D01*
X49523387Y-45958000D01*
X51236613Y-45958000D01*
X51236616Y-45958000D01*
X51307196Y-45951586D01*
X51469606Y-45900978D01*
X51585852Y-45830704D01*
X51653404Y-45812869D01*
X51714147Y-45830704D01*
X51830394Y-45900978D01*
X51992804Y-45951586D01*
X52063384Y-45958000D01*
X52063387Y-45958000D01*
X53776613Y-45958000D01*
X53776616Y-45958000D01*
X53847196Y-45951586D01*
X54009606Y-45900978D01*
X54125852Y-45830704D01*
X54193404Y-45812869D01*
X54254147Y-45830704D01*
X54370394Y-45900978D01*
X54532804Y-45951586D01*
X54603384Y-45958000D01*
X55822692Y-45958000D01*
X55889731Y-45977685D01*
X55935486Y-46030489D01*
X55945430Y-46099647D01*
X55916405Y-46163203D01*
X55910373Y-46169681D01*
X54387190Y-47692862D01*
X54325867Y-47726347D01*
X54280111Y-47727654D01*
X54134611Y-47704609D01*
X54102352Y-47699500D01*
X53897648Y-47699500D01*
X53874767Y-47703124D01*
X53695465Y-47731522D01*
X53500776Y-47794781D01*
X53318386Y-47887715D01*
X53152786Y-48008028D01*
X53008028Y-48152786D01*
X52887715Y-48318386D01*
X52794781Y-48500776D01*
X52731522Y-48695465D01*
X52699500Y-48897648D01*
X52699500Y-49102351D01*
X52731522Y-49304534D01*
X52794781Y-49499223D01*
X52887715Y-49681613D01*
X53008028Y-49847213D01*
X53152786Y-49991971D01*
X53307749Y-50104556D01*
X53318390Y-50112287D01*
X53434607Y-50171503D01*
X53500776Y-50205218D01*
X53500778Y-50205218D01*
X53500781Y-50205220D01*
X53579865Y-50230916D01*
X53695465Y-50268477D01*
X53796557Y-50284488D01*
X53897648Y-50300500D01*
X53897649Y-50300500D01*
X54102351Y-50300500D01*
X54102352Y-50300500D01*
X54304534Y-50268477D01*
X54499219Y-50205220D01*
X54681610Y-50112287D01*
X54774590Y-50044732D01*
X54847213Y-49991971D01*
X54847215Y-49991968D01*
X54847219Y-49991966D01*
X54991966Y-49847219D01*
X54991968Y-49847215D01*
X54991971Y-49847213D01*
X55044732Y-49774590D01*
X55112287Y-49681610D01*
X55205220Y-49499219D01*
X55268477Y-49304534D01*
X55300500Y-49102352D01*
X55300500Y-48897648D01*
X55272345Y-48719886D01*
X55281300Y-48650593D01*
X55307134Y-48612810D01*
X57925627Y-45994319D01*
X57986950Y-45960834D01*
X58013308Y-45958000D01*
X58856613Y-45958000D01*
X58856616Y-45958000D01*
X58927196Y-45951586D01*
X59089606Y-45900978D01*
X59205852Y-45830704D01*
X59273404Y-45812869D01*
X59334147Y-45830704D01*
X59450394Y-45900978D01*
X59612804Y-45951586D01*
X59683384Y-45958000D01*
X59765467Y-45958000D01*
X59771190Y-45959680D01*
X59777046Y-45958542D01*
X59804331Y-45969411D01*
X59832506Y-45977685D01*
X59836411Y-45982191D01*
X59841954Y-45984400D01*
X59859031Y-46008297D01*
X59878261Y-46030489D01*
X59880002Y-46037642D01*
X59882578Y-46041246D01*
X59889316Y-46075891D01*
X59889349Y-46076560D01*
X59889500Y-46082669D01*
X59889500Y-46127725D01*
X59890854Y-46134533D01*
X59893085Y-46152628D01*
X59893953Y-46170285D01*
X59893954Y-46182455D01*
X59892677Y-46208441D01*
X59892678Y-46208447D01*
X59896495Y-46234183D01*
X59897390Y-46240219D01*
X59898966Y-46272287D01*
X59906765Y-46303425D01*
X59907660Y-46309455D01*
X59913053Y-46345813D01*
X59914245Y-46357919D01*
X59915522Y-46383913D01*
X59915523Y-46383920D01*
X59921845Y-46409159D01*
X59921846Y-46409159D01*
X59923327Y-46415071D01*
X59928038Y-46446829D01*
X59938852Y-46477055D01*
X59940333Y-46482965D01*
X59940335Y-46482970D01*
X59949270Y-46518644D01*
X59951642Y-46530572D01*
X59955460Y-46556305D01*
X59955460Y-46556306D01*
X59964226Y-46580806D01*
X59967757Y-46592445D01*
X59974080Y-46617686D01*
X59974083Y-46617694D01*
X59985205Y-46641210D01*
X59989858Y-46652443D01*
X60001719Y-46685590D01*
X60002248Y-46687066D01*
X60005781Y-46698716D01*
X60012098Y-46723939D01*
X60012102Y-46723950D01*
X60023226Y-46747472D01*
X60027878Y-46758703D01*
X60036647Y-46783208D01*
X60036651Y-46783217D01*
X60050023Y-46805525D01*
X60055759Y-46816257D01*
X60071475Y-46849485D01*
X60076132Y-46860728D01*
X60082352Y-46878112D01*
X60084900Y-46885231D01*
X60098280Y-46907555D01*
X60098279Y-46907555D01*
X60101413Y-46912784D01*
X60115138Y-46941802D01*
X60134260Y-46967586D01*
X60137390Y-46972807D01*
X60137396Y-46972816D01*
X60156299Y-47004353D01*
X60162032Y-47015079D01*
X60173157Y-47038600D01*
X60173159Y-47038602D01*
X60173162Y-47038608D01*
X60188656Y-47059500D01*
X60195415Y-47069614D01*
X60208794Y-47091936D01*
X60226274Y-47111223D01*
X60233991Y-47120626D01*
X60255886Y-47150148D01*
X60262647Y-47160267D01*
X60276023Y-47182584D01*
X60276025Y-47182587D01*
X60293494Y-47201860D01*
X60301211Y-47211264D01*
X60316716Y-47232169D01*
X60321721Y-47236705D01*
X60335998Y-47249646D01*
X60344594Y-47258241D01*
X60356470Y-47271343D01*
X60367693Y-47285723D01*
X60371550Y-47291496D01*
X60403404Y-47323350D01*
X60407601Y-47327758D01*
X60437862Y-47361146D01*
X60437868Y-47361152D01*
X60443436Y-47365281D01*
X60457253Y-47377199D01*
X61692862Y-48612808D01*
X61726347Y-48674131D01*
X61727654Y-48719886D01*
X61699500Y-48897647D01*
X61699500Y-49102351D01*
X61731522Y-49304534D01*
X61794781Y-49499223D01*
X61887715Y-49681613D01*
X62008028Y-49847213D01*
X62152786Y-49991971D01*
X62318385Y-50112284D01*
X62318387Y-50112285D01*
X62318390Y-50112287D01*
X62457060Y-50182943D01*
X62507855Y-50230916D01*
X62524650Y-50298737D01*
X62502113Y-50364872D01*
X62488445Y-50381108D01*
X60179797Y-52689755D01*
X60175390Y-52693951D01*
X60134049Y-52731421D01*
X60124641Y-52739142D01*
X60095128Y-52761030D01*
X60085007Y-52767792D01*
X60053467Y-52786695D01*
X60042739Y-52792430D01*
X60009506Y-52808148D01*
X59998265Y-52812804D01*
X59963656Y-52825188D01*
X59952009Y-52828721D01*
X59916358Y-52837651D01*
X59904423Y-52840025D01*
X59868059Y-52845419D01*
X59855952Y-52846611D01*
X59800225Y-52849350D01*
X59794138Y-52849500D01*
X59198071Y-52849500D01*
X59131032Y-52829815D01*
X59097754Y-52798386D01*
X58991966Y-52652781D01*
X58847219Y-52508034D01*
X58847213Y-52508028D01*
X58681613Y-52387715D01*
X58681612Y-52387714D01*
X58681610Y-52387713D01*
X58583535Y-52337741D01*
X58499223Y-52294781D01*
X58304534Y-52231522D01*
X58129995Y-52203878D01*
X58102352Y-52199500D01*
X57897648Y-52199500D01*
X57873329Y-52203351D01*
X57695465Y-52231522D01*
X57500776Y-52294781D01*
X57318386Y-52387715D01*
X57152786Y-52508028D01*
X57008034Y-52652780D01*
X56958483Y-52720982D01*
X56902246Y-52798386D01*
X56846918Y-52841051D01*
X56801929Y-52849500D01*
X54615461Y-52849500D01*
X54609378Y-52849351D01*
X54601534Y-52848965D01*
X54553645Y-52846612D01*
X54541538Y-52845419D01*
X54505180Y-52840026D01*
X54493245Y-52837652D01*
X54457586Y-52828720D01*
X54445938Y-52825187D01*
X54411332Y-52812804D01*
X54400092Y-52808148D01*
X54366859Y-52792430D01*
X54356131Y-52786695D01*
X54324591Y-52767792D01*
X54314470Y-52761030D01*
X54286469Y-52740263D01*
X54284955Y-52739140D01*
X54275549Y-52731421D01*
X54259053Y-52716470D01*
X54234208Y-52693951D01*
X54229801Y-52689755D01*
X47017299Y-45477253D01*
X47005381Y-45463436D01*
X47001252Y-45457868D01*
X47001246Y-45457862D01*
X46967858Y-45427601D01*
X46965605Y-45425559D01*
X46931596Y-45391550D01*
X46918222Y-45382614D01*
X46898341Y-45364594D01*
X46889746Y-45355998D01*
X46880589Y-45345896D01*
X46872269Y-45336716D01*
X46846475Y-45317586D01*
X46822685Y-45296024D01*
X46795143Y-45279516D01*
X46760723Y-45253989D01*
X46751323Y-45246274D01*
X46732036Y-45228794D01*
X46709714Y-45215415D01*
X46709714Y-45215414D01*
X46704483Y-45212278D01*
X46678700Y-45193157D01*
X46649686Y-45179434D01*
X46644462Y-45176303D01*
X46644453Y-45176299D01*
X46612916Y-45157396D01*
X46602800Y-45150636D01*
X46581908Y-45135142D01*
X46581902Y-45135138D01*
X46558381Y-45124013D01*
X46547655Y-45118280D01*
X46541591Y-45114645D01*
X46525331Y-45104900D01*
X46525327Y-45104898D01*
X46525324Y-45104897D01*
X46500828Y-45096132D01*
X46489585Y-45091475D01*
X46456357Y-45075759D01*
X46445625Y-45070023D01*
X46423317Y-45056651D01*
X46423308Y-45056647D01*
X46398803Y-45047878D01*
X46398803Y-45047877D01*
X46393059Y-45045822D01*
X46364045Y-45032100D01*
X46332907Y-45024301D01*
X46327180Y-45022252D01*
X46327171Y-45022249D01*
X46292543Y-45009858D01*
X46281310Y-45005205D01*
X46257794Y-44994083D01*
X46257795Y-44994083D01*
X46257790Y-44994081D01*
X46232545Y-44987756D01*
X46226627Y-44986273D01*
X46196407Y-44975461D01*
X46164664Y-44970751D01*
X46158758Y-44969272D01*
X46158744Y-44969270D01*
X46140818Y-44964780D01*
X46123062Y-44960332D01*
X46111424Y-44956802D01*
X46086927Y-44948037D01*
X46061191Y-44944219D01*
X46049262Y-44941846D01*
X46024020Y-44935523D01*
X46024013Y-44935522D01*
X45998019Y-44934245D01*
X45985913Y-44933053D01*
X45949555Y-44927660D01*
X45937622Y-44925286D01*
X45912388Y-44918965D01*
X45912380Y-44918964D01*
X45886392Y-44917687D01*
X45886392Y-44917688D01*
X45880304Y-44917388D01*
X45848545Y-44912678D01*
X45816474Y-44914252D01*
X45810390Y-44913954D01*
X45810387Y-44913953D01*
X45792728Y-44913085D01*
X45774633Y-44910854D01*
X45767825Y-44909500D01*
X45767823Y-44909500D01*
X45722770Y-44909500D01*
X45716685Y-44909351D01*
X45671684Y-44907140D01*
X45671681Y-44907140D01*
X45664820Y-44908158D01*
X45646625Y-44909500D01*
X38683518Y-44909500D01*
X38616479Y-44889815D01*
X38570724Y-44837011D01*
X38560780Y-44767853D01*
X38589805Y-44704297D01*
X38648583Y-44666523D01*
X38664120Y-44663027D01*
X38850451Y-44633515D01*
X39060106Y-44565395D01*
X39256522Y-44465315D01*
X39434865Y-44335742D01*
X39590742Y-44179865D01*
X39720315Y-44001522D01*
X39820395Y-43805106D01*
X39888515Y-43595451D01*
X39923000Y-43377722D01*
X39923000Y-43157278D01*
X39904026Y-43037483D01*
X39906039Y-43021902D01*
X39903044Y-43006478D01*
X39910425Y-42987963D01*
X39912980Y-42968193D01*
X39923100Y-42956170D01*
X39928919Y-42941576D01*
X39945138Y-42929991D01*
X39957976Y-42914741D01*
X39973732Y-42909567D01*
X39985775Y-42900966D01*
X40020418Y-42894237D01*
X40030929Y-42893721D01*
X40036481Y-42893449D01*
X40042558Y-42893300D01*
X48755500Y-42893300D01*
X48822539Y-42912985D01*
G37*
%TD.AperFunction*%
%TA.AperFunction,Conductor*%
G36*
X34621992Y-10685185D02*
G01*
X34642634Y-10701819D01*
X34772786Y-10831971D01*
X34927749Y-10944556D01*
X34938390Y-10952287D01*
X35029840Y-10998883D01*
X35031080Y-10999515D01*
X35081876Y-11047490D01*
X35098671Y-11115311D01*
X35076134Y-11181446D01*
X35031080Y-11220485D01*
X34938386Y-11267715D01*
X34772786Y-11388028D01*
X34628028Y-11532786D01*
X34507715Y-11698386D01*
X34414781Y-11880776D01*
X34351522Y-12075465D01*
X34319500Y-12277648D01*
X34319500Y-12482351D01*
X34351522Y-12684534D01*
X34414781Y-12879223D01*
X34460572Y-12969091D01*
X34506472Y-13059175D01*
X34507715Y-13061613D01*
X34628028Y-13227213D01*
X34772786Y-13371971D01*
X34919138Y-13478300D01*
X34938390Y-13492287D01*
X35021850Y-13534812D01*
X35120776Y-13585218D01*
X35120778Y-13585218D01*
X35120781Y-13585220D01*
X35200955Y-13611270D01*
X35315465Y-13648477D01*
X35416557Y-13664488D01*
X35517648Y-13680500D01*
X35517649Y-13680500D01*
X35722351Y-13680500D01*
X35722352Y-13680500D01*
X35924534Y-13648477D01*
X36119219Y-13585220D01*
X36301610Y-13492287D01*
X36414001Y-13410631D01*
X36467213Y-13371971D01*
X36467215Y-13371968D01*
X36467219Y-13371966D01*
X36611966Y-13227219D01*
X36725051Y-13071569D01*
X36751505Y-13051170D01*
X36777413Y-13030104D01*
X36779063Y-13029919D01*
X36780379Y-13028905D01*
X36813652Y-13026047D01*
X36846849Y-13022331D01*
X36848337Y-13023068D01*
X36849992Y-13022926D01*
X36879524Y-13038507D01*
X36909465Y-13053331D01*
X36910852Y-13055037D01*
X36911788Y-13055531D01*
X36931731Y-13080715D01*
X36935371Y-13086789D01*
X36941103Y-13097514D01*
X36956809Y-13130722D01*
X36961465Y-13141962D01*
X36972313Y-13172281D01*
X36972314Y-13172282D01*
X36972315Y-13172284D01*
X36988865Y-13199896D01*
X36994598Y-13210622D01*
X37008358Y-13239717D01*
X37008359Y-13239718D01*
X37008360Y-13239720D01*
X37017256Y-13251715D01*
X37027543Y-13265587D01*
X37034300Y-13275700D01*
X37053191Y-13307217D01*
X37058928Y-13317950D01*
X37072691Y-13347050D01*
X37091867Y-13372906D01*
X37095497Y-13377800D01*
X37115175Y-13410631D01*
X37140883Y-13438995D01*
X37155626Y-13458874D01*
X37166403Y-13473404D01*
X37173163Y-13483521D01*
X37181327Y-13497141D01*
X37189710Y-13511127D01*
X37189713Y-13511130D01*
X37211325Y-13534975D01*
X37219044Y-13544380D01*
X37238227Y-13570246D01*
X37262086Y-13591870D01*
X37270675Y-13600459D01*
X37280474Y-13611270D01*
X37291694Y-13625647D01*
X37297271Y-13633994D01*
X37297273Y-13633995D01*
X37335654Y-13672376D01*
X37339831Y-13676762D01*
X37376324Y-13717026D01*
X37384382Y-13723002D01*
X37398197Y-13734919D01*
X38647586Y-14984308D01*
X38681071Y-15045631D01*
X38682378Y-15091386D01*
X38659500Y-15235837D01*
X38659500Y-15464162D01*
X38695215Y-15689660D01*
X38765770Y-15906803D01*
X38829708Y-16032287D01*
X38869421Y-16110228D01*
X39003621Y-16294937D01*
X39165063Y-16456379D01*
X39349772Y-16590579D01*
X39553201Y-16694231D01*
X39684418Y-16736866D01*
X39742094Y-16776304D01*
X39769292Y-16840662D01*
X39770100Y-16854797D01*
X39770100Y-17230450D01*
X39750415Y-17297489D01*
X39697611Y-17343244D01*
X39628453Y-17353188D01*
X39589806Y-17340935D01*
X39499226Y-17294782D01*
X39304534Y-17231522D01*
X39129995Y-17203878D01*
X39102352Y-17199500D01*
X38897648Y-17199500D01*
X38873329Y-17203351D01*
X38695465Y-17231522D01*
X38500776Y-17294781D01*
X38318386Y-17387715D01*
X38152786Y-17508028D01*
X38008028Y-17652786D01*
X37887715Y-17818386D01*
X37794781Y-18000776D01*
X37731522Y-18195465D01*
X37699500Y-18397648D01*
X37699500Y-18602351D01*
X37731522Y-18804534D01*
X37794781Y-18999223D01*
X37799271Y-19008034D01*
X37884769Y-19175833D01*
X37887715Y-19181613D01*
X38008028Y-19347213D01*
X38152786Y-19491971D01*
X38307749Y-19604556D01*
X38318390Y-19612287D01*
X38410195Y-19659064D01*
X38500776Y-19705218D01*
X38500778Y-19705218D01*
X38500781Y-19705220D01*
X38575664Y-19729551D01*
X38695465Y-19768477D01*
X38796557Y-19784488D01*
X38897648Y-19800500D01*
X38897649Y-19800500D01*
X39102351Y-19800500D01*
X39102352Y-19800500D01*
X39304534Y-19768477D01*
X39499219Y-19705220D01*
X39527956Y-19690578D01*
X39589805Y-19659064D01*
X39658474Y-19646168D01*
X39723215Y-19672444D01*
X39763472Y-19729551D01*
X39770100Y-19769549D01*
X39770100Y-23794037D01*
X39769951Y-23800124D01*
X39767212Y-23855853D01*
X39766019Y-23867960D01*
X39760626Y-23904318D01*
X39758250Y-23916259D01*
X39757321Y-23919967D01*
X39721935Y-23980213D01*
X39661231Y-24011449D01*
X39547340Y-24034104D01*
X39547332Y-24034106D01*
X39383459Y-24101983D01*
X39383446Y-24101990D01*
X39235965Y-24200535D01*
X39235961Y-24200538D01*
X39172742Y-24263758D01*
X39111419Y-24297243D01*
X39041727Y-24292259D01*
X38997380Y-24263758D01*
X36120409Y-21386787D01*
X36086924Y-21325464D01*
X36091908Y-21255772D01*
X36133780Y-21199839D01*
X36151789Y-21188624D01*
X36301610Y-21112287D01*
X36345810Y-21080174D01*
X36467213Y-20991971D01*
X36467215Y-20991968D01*
X36467219Y-20991966D01*
X36611966Y-20847219D01*
X36611968Y-20847215D01*
X36611971Y-20847213D01*
X36676089Y-20758960D01*
X36732287Y-20681610D01*
X36825220Y-20499219D01*
X36888477Y-20304534D01*
X36920500Y-20102352D01*
X36920500Y-19897648D01*
X36888477Y-19695466D01*
X36825220Y-19500781D01*
X36825218Y-19500778D01*
X36825218Y-19500776D01*
X36771290Y-19394938D01*
X36732287Y-19318390D01*
X36724556Y-19307749D01*
X36611971Y-19152786D01*
X36467213Y-19008028D01*
X36301614Y-18887715D01*
X36295006Y-18884348D01*
X36208917Y-18840483D01*
X36158123Y-18792511D01*
X36141328Y-18724690D01*
X36163865Y-18658555D01*
X36208917Y-18619516D01*
X36301610Y-18572287D01*
X36334865Y-18548126D01*
X36467213Y-18451971D01*
X36467215Y-18451968D01*
X36467219Y-18451966D01*
X36611966Y-18307219D01*
X36611970Y-18307214D01*
X36611971Y-18307213D01*
X36664732Y-18234590D01*
X36732287Y-18141610D01*
X36825220Y-17959219D01*
X36888477Y-17764534D01*
X36920500Y-17562352D01*
X36920500Y-17357648D01*
X36906873Y-17271611D01*
X36888477Y-17155465D01*
X36848499Y-17032427D01*
X36825220Y-16960781D01*
X36825218Y-16960778D01*
X36825218Y-16960776D01*
X36790794Y-16893216D01*
X36732287Y-16778390D01*
X36703992Y-16739445D01*
X36611971Y-16612786D01*
X36467213Y-16468028D01*
X36301613Y-16347715D01*
X36301612Y-16347714D01*
X36301610Y-16347713D01*
X36244653Y-16318691D01*
X36119223Y-16254781D01*
X35924534Y-16191522D01*
X35749995Y-16163878D01*
X35722352Y-16159500D01*
X35517648Y-16159500D01*
X35493329Y-16163351D01*
X35315465Y-16191522D01*
X35120776Y-16254781D01*
X34938386Y-16347715D01*
X34772786Y-16468028D01*
X34628028Y-16612786D01*
X34507715Y-16778386D01*
X34414781Y-16960776D01*
X34351522Y-17155465D01*
X34319500Y-17357648D01*
X34319500Y-17562351D01*
X34351522Y-17764534D01*
X34414781Y-17959223D01*
X34507715Y-18141613D01*
X34628028Y-18307213D01*
X34772786Y-18451971D01*
X34918387Y-18557754D01*
X34938390Y-18572287D01*
X34997396Y-18602352D01*
X35031080Y-18619515D01*
X35081876Y-18667490D01*
X35098671Y-18735311D01*
X35076134Y-18801446D01*
X35031080Y-18840485D01*
X34938386Y-18887715D01*
X34772786Y-19008028D01*
X34628028Y-19152786D01*
X34507712Y-19318389D01*
X34507711Y-19318391D01*
X34431377Y-19468204D01*
X34383403Y-19519000D01*
X34315582Y-19535795D01*
X34249447Y-19513257D01*
X34233212Y-19499590D01*
X32059151Y-17325529D01*
X32047726Y-17310124D01*
X32005233Y-17271611D01*
X31964695Y-17231073D01*
X31964694Y-17231071D01*
X31956347Y-17225494D01*
X31941970Y-17214274D01*
X31931159Y-17204475D01*
X31922570Y-17195886D01*
X31900946Y-17172027D01*
X31870189Y-17149216D01*
X31841827Y-17123510D01*
X31809000Y-17103834D01*
X31774587Y-17078311D01*
X31765184Y-17070594D01*
X31741333Y-17048977D01*
X31741328Y-17048973D01*
X31713723Y-17032427D01*
X31703607Y-17025668D01*
X31677750Y-17006491D01*
X31648643Y-16992724D01*
X31637917Y-16986991D01*
X31606400Y-16968100D01*
X31596287Y-16961343D01*
X31582415Y-16951056D01*
X31570420Y-16942160D01*
X31570418Y-16942159D01*
X31570417Y-16942158D01*
X31541322Y-16928398D01*
X31535815Y-16925793D01*
X31502984Y-16906115D01*
X31466935Y-16893216D01*
X31428213Y-16874902D01*
X31417482Y-16869167D01*
X31389878Y-16852622D01*
X31389875Y-16852620D01*
X31359563Y-16841774D01*
X31348323Y-16837118D01*
X31319220Y-16823353D01*
X31319216Y-16823352D01*
X31305673Y-16819959D01*
X31287997Y-16815532D01*
X31276352Y-16811999D01*
X31241756Y-16799620D01*
X31230516Y-16794965D01*
X31201411Y-16781200D01*
X31170181Y-16773377D01*
X31170181Y-16773376D01*
X31164269Y-16771895D01*
X31128237Y-16759003D01*
X31090370Y-16753384D01*
X31084458Y-16751904D01*
X31084456Y-16751903D01*
X31048819Y-16742977D01*
X31037174Y-16739445D01*
X31006867Y-16728601D01*
X30993047Y-16726551D01*
X30975013Y-16723875D01*
X30963094Y-16721504D01*
X30931858Y-16713681D01*
X30931845Y-16713679D01*
X30899698Y-16712099D01*
X30887596Y-16710907D01*
X30851260Y-16705518D01*
X30839323Y-16703144D01*
X30827341Y-16700142D01*
X30808080Y-16695318D01*
X30808082Y-16695318D01*
X30775927Y-16693738D01*
X30775927Y-16693739D01*
X30769838Y-16693439D01*
X30731991Y-16687826D01*
X30693760Y-16689702D01*
X30687675Y-16689404D01*
X30687674Y-16689403D01*
X30673095Y-16688688D01*
X30654985Y-16686454D01*
X30645162Y-16684500D01*
X30645158Y-16684500D01*
X30590875Y-16684500D01*
X30584791Y-16684351D01*
X30530540Y-16681685D01*
X30530538Y-16681686D01*
X30520616Y-16683158D01*
X30502420Y-16684500D01*
X29107254Y-16684500D01*
X29040215Y-16664815D01*
X29006936Y-16633385D01*
X28991969Y-16612785D01*
X28991964Y-16612779D01*
X28847213Y-16468028D01*
X28681614Y-16347715D01*
X28675006Y-16344348D01*
X28588917Y-16300483D01*
X28538123Y-16252511D01*
X28521328Y-16184690D01*
X28543865Y-16118555D01*
X28588917Y-16079516D01*
X28681610Y-16032287D01*
X28702770Y-16016913D01*
X28847213Y-15911971D01*
X28847215Y-15911968D01*
X28847219Y-15911966D01*
X28991966Y-15767219D01*
X28991968Y-15767215D01*
X28991971Y-15767213D01*
X29048315Y-15689660D01*
X29112287Y-15601610D01*
X29205220Y-15419219D01*
X29268477Y-15224534D01*
X29300500Y-15022352D01*
X29300500Y-14817648D01*
X29293816Y-14775449D01*
X29268477Y-14615465D01*
X29220302Y-14467200D01*
X29205220Y-14420781D01*
X29205218Y-14420778D01*
X29205218Y-14420776D01*
X29168771Y-14349246D01*
X29112287Y-14238390D01*
X29097617Y-14218198D01*
X28991971Y-14072786D01*
X28847213Y-13928028D01*
X28681614Y-13807715D01*
X28656096Y-13794713D01*
X28588917Y-13760483D01*
X28538123Y-13712511D01*
X28521328Y-13644690D01*
X28543865Y-13578555D01*
X28588917Y-13539516D01*
X28681610Y-13492287D01*
X28707600Y-13473404D01*
X28847213Y-13371971D01*
X28847215Y-13371968D01*
X28847219Y-13371966D01*
X28991966Y-13227219D01*
X28991968Y-13227215D01*
X28991971Y-13227213D01*
X29058069Y-13136235D01*
X29112287Y-13061610D01*
X29205220Y-12879219D01*
X29268477Y-12684534D01*
X29300500Y-12482352D01*
X29300500Y-12298294D01*
X29320185Y-12231255D01*
X29336819Y-12210613D01*
X30014651Y-11532781D01*
X30719167Y-10828264D01*
X30723533Y-10824107D01*
X30768080Y-10783731D01*
X30777462Y-10776031D01*
X30806994Y-10754129D01*
X30817101Y-10747378D01*
X30843316Y-10731665D01*
X30848619Y-10728486D01*
X30859330Y-10722760D01*
X30892572Y-10707038D01*
X30903778Y-10702397D01*
X30938401Y-10690007D01*
X30950009Y-10686486D01*
X30985687Y-10677549D01*
X30997593Y-10675181D01*
X31033947Y-10669788D01*
X31046057Y-10668596D01*
X31106058Y-10665649D01*
X31112141Y-10665500D01*
X34554953Y-10665500D01*
X34621992Y-10685185D01*
G37*
%TD.AperFunction*%
%TA.AperFunction,Conductor*%
G36*
X38576100Y3365666D02*
G01*
X38584197Y3365135D01*
X41145216Y3112897D01*
X41153261Y3111838D01*
X43692308Y2692640D01*
X43700266Y2691057D01*
X46206454Y2106695D01*
X46214292Y2104595D01*
X48676909Y1357568D01*
X48684593Y1354959D01*
X51093057Y448478D01*
X51100554Y445373D01*
X52272574Y-85661D01*
X53444613Y-616704D01*
X53451855Y-620276D01*
X55476781Y-1702621D01*
X55721419Y-1833383D01*
X55728446Y-1837440D01*
X57913795Y-3196378D01*
X57920542Y-3200886D01*
X60012337Y-4699845D01*
X60018775Y-4704785D01*
X62008058Y-6337347D01*
X62014158Y-6342697D01*
X63892412Y-8101874D01*
X63898124Y-8107586D01*
X65178382Y-9474503D01*
X65657301Y-9985840D01*
X65662651Y-9991940D01*
X67295213Y-11981223D01*
X67300153Y-11987661D01*
X68799112Y-14079456D01*
X68803620Y-14086203D01*
X70162558Y-16271552D01*
X70166615Y-16278579D01*
X70822183Y-17505061D01*
X71367084Y-18524500D01*
X71379713Y-18548126D01*
X71383299Y-18555398D01*
X71564657Y-18955663D01*
X72445373Y-20899445D01*
X72448478Y-20906942D01*
X73354959Y-23315405D01*
X73357568Y-23323089D01*
X74104595Y-25785706D01*
X74106695Y-25793544D01*
X74691057Y-28299732D01*
X74692640Y-28307690D01*
X74796505Y-28936789D01*
X75075535Y-30626856D01*
X75111838Y-30846737D01*
X75112897Y-30854782D01*
X75365135Y-33415801D01*
X75365666Y-33423898D01*
X75449867Y-35995942D01*
X75449867Y-36004056D01*
X75365666Y-38576100D01*
X75365135Y-38584197D01*
X75112897Y-41145216D01*
X75111838Y-41153261D01*
X74692640Y-43692308D01*
X74691057Y-43700266D01*
X74415897Y-44880363D01*
X74107616Y-46202509D01*
X74106697Y-46206449D01*
X74104597Y-46214287D01*
X73357568Y-48676909D01*
X73354959Y-48684593D01*
X72448478Y-51093056D01*
X72445373Y-51100553D01*
X71383302Y-53444595D01*
X71379713Y-53451872D01*
X70166615Y-55721418D01*
X70162558Y-55728445D01*
X68803620Y-57913795D01*
X68799112Y-57920542D01*
X67300153Y-60012337D01*
X67295213Y-60018775D01*
X65662651Y-62008058D01*
X65657301Y-62014158D01*
X63898137Y-63892399D01*
X63892399Y-63898137D01*
X62014158Y-65657301D01*
X62008058Y-65662651D01*
X60018775Y-67295213D01*
X60012337Y-67300153D01*
X57920542Y-68799112D01*
X57913795Y-68803620D01*
X55728446Y-70162558D01*
X55721419Y-70166615D01*
X53451872Y-71379713D01*
X53444595Y-71383302D01*
X51100553Y-72445373D01*
X51093056Y-72448478D01*
X48684593Y-73354959D01*
X48676909Y-73357568D01*
X46214292Y-74104595D01*
X46206454Y-74106695D01*
X43700266Y-74691057D01*
X43692308Y-74692640D01*
X41153261Y-75111838D01*
X41145216Y-75112897D01*
X38584197Y-75365135D01*
X38576100Y-75365666D01*
X36004056Y-75449867D01*
X35995942Y-75449867D01*
X33423898Y-75365666D01*
X33415801Y-75365135D01*
X30854782Y-75112897D01*
X30846737Y-75111838D01*
X28307690Y-74692640D01*
X28299732Y-74691057D01*
X25793544Y-74106695D01*
X25785706Y-74104595D01*
X23323089Y-73357568D01*
X23315405Y-73354959D01*
X20906942Y-72448478D01*
X20899445Y-72445373D01*
X18555403Y-71383302D01*
X18548126Y-71379713D01*
X16278580Y-70166615D01*
X16271553Y-70162558D01*
X14086203Y-68803620D01*
X14079456Y-68799112D01*
X11987661Y-67300153D01*
X11981223Y-67295213D01*
X9991940Y-65662651D01*
X9985840Y-65657301D01*
X9771643Y-65456684D01*
X8107586Y-63898124D01*
X8101874Y-63892412D01*
X6342697Y-62014158D01*
X6337347Y-62008058D01*
X4704785Y-60018775D01*
X4699845Y-60012337D01*
X3200886Y-57920542D01*
X3196378Y-57913795D01*
X1980347Y-55958258D01*
X1980346Y-55958257D01*
X1942657Y-55897648D01*
X20539500Y-55897648D01*
X20539500Y-56102351D01*
X20571522Y-56304534D01*
X20634781Y-56499223D01*
X20727715Y-56681613D01*
X20848028Y-56847213D01*
X20992786Y-56991971D01*
X21147749Y-57104556D01*
X21158390Y-57112287D01*
X21260008Y-57164064D01*
X21340776Y-57205218D01*
X21340778Y-57205218D01*
X21340781Y-57205220D01*
X21445137Y-57239127D01*
X21535465Y-57268477D01*
X21636557Y-57284488D01*
X21737648Y-57300500D01*
X21737649Y-57300500D01*
X21942351Y-57300500D01*
X21942352Y-57300500D01*
X22144534Y-57268477D01*
X22339219Y-57205220D01*
X22521610Y-57112287D01*
X22614590Y-57044732D01*
X22687213Y-56991971D01*
X22687215Y-56991968D01*
X22687219Y-56991966D01*
X22831966Y-56847219D01*
X22831968Y-56847215D01*
X22831971Y-56847213D01*
X22884732Y-56774590D01*
X22952287Y-56681610D01*
X23045220Y-56499219D01*
X23108477Y-56304534D01*
X23140500Y-56102352D01*
X23140500Y-55897648D01*
X23126147Y-55807026D01*
X23108477Y-55695465D01*
X23070130Y-55577446D01*
X23045220Y-55500781D01*
X23045218Y-55500778D01*
X23045218Y-55500776D01*
X23004915Y-55421678D01*
X22952287Y-55318390D01*
X22944556Y-55307749D01*
X22831971Y-55152786D01*
X22687213Y-55008028D01*
X22521613Y-54887715D01*
X22521612Y-54887714D01*
X22521610Y-54887713D01*
X22464653Y-54858691D01*
X22339223Y-54794781D01*
X22144534Y-54731522D01*
X21969995Y-54703878D01*
X21942352Y-54699500D01*
X21737648Y-54699500D01*
X21713329Y-54703351D01*
X21535465Y-54731522D01*
X21340776Y-54794781D01*
X21158386Y-54887715D01*
X20992786Y-55008028D01*
X20848028Y-55152786D01*
X20727715Y-55318386D01*
X20634781Y-55500776D01*
X20571522Y-55695465D01*
X20539500Y-55897648D01*
X1942657Y-55897648D01*
X1940828Y-55894707D01*
X1837433Y-55728435D01*
X1833383Y-55721418D01*
X1673169Y-55421678D01*
X620276Y-53451855D01*
X616704Y-53444613D01*
X-175823Y-51695465D01*
X-445373Y-51100554D01*
X-448478Y-51093057D01*
X-1354959Y-48684593D01*
X-1357568Y-48676909D01*
X-1700333Y-47546966D01*
X-1709776Y-47515837D01*
X16999500Y-47515837D01*
X16999500Y-47744162D01*
X17035215Y-47969660D01*
X17105770Y-48186803D01*
X17190550Y-48353191D01*
X17209421Y-48390228D01*
X17343621Y-48574937D01*
X17505063Y-48736379D01*
X17689772Y-48870579D01*
X17742898Y-48897648D01*
X17893196Y-48974229D01*
X17893198Y-48974229D01*
X17893201Y-48974231D01*
X18009592Y-49012049D01*
X18110339Y-49044784D01*
X18335838Y-49080500D01*
X18335843Y-49080500D01*
X18564162Y-49080500D01*
X18789660Y-49044784D01*
X19006799Y-48974231D01*
X19210228Y-48870579D01*
X19290091Y-48812555D01*
X19355897Y-48789074D01*
X19423951Y-48804899D01*
X19450658Y-48825191D01*
X21272741Y-50647274D01*
X21306226Y-50708597D01*
X21301242Y-50778289D01*
X21259370Y-50834222D01*
X21241355Y-50845440D01*
X21158386Y-50887715D01*
X20992786Y-51008028D01*
X20848028Y-51152786D01*
X20727715Y-51318386D01*
X20634781Y-51500776D01*
X20571522Y-51695465D01*
X20539500Y-51897648D01*
X20539500Y-52102351D01*
X20571522Y-52304534D01*
X20634781Y-52499223D01*
X20672859Y-52573954D01*
X20713023Y-52652780D01*
X20727715Y-52681613D01*
X20848028Y-52847213D01*
X20992786Y-52991971D01*
X21120458Y-53084728D01*
X21158390Y-53112287D01*
X21274607Y-53171503D01*
X21340776Y-53205218D01*
X21340778Y-53205218D01*
X21340781Y-53205220D01*
X21445137Y-53239127D01*
X21535465Y-53268477D01*
X21636557Y-53284488D01*
X21737648Y-53300500D01*
X21737649Y-53300500D01*
X21942351Y-53300500D01*
X21942352Y-53300500D01*
X22144534Y-53268477D01*
X22339219Y-53205220D01*
X22521610Y-53112287D01*
X22614590Y-53044732D01*
X22687213Y-52991971D01*
X22687215Y-52991968D01*
X22687219Y-52991966D01*
X22831966Y-52847219D01*
X22831968Y-52847215D01*
X22831971Y-52847213D01*
X22952286Y-52681611D01*
X22957220Y-52671928D01*
X22994560Y-52598643D01*
X23042532Y-52547849D01*
X23110353Y-52531053D01*
X23176488Y-52553590D01*
X23192725Y-52567258D01*
X30871714Y-60246247D01*
X30875910Y-60250654D01*
X30916256Y-60295168D01*
X30923979Y-60304578D01*
X30945863Y-60334087D01*
X30952620Y-60344201D01*
X30971507Y-60375711D01*
X30977245Y-60386445D01*
X30992952Y-60419655D01*
X30997608Y-60430895D01*
X31009986Y-60465488D01*
X31013517Y-60477128D01*
X31015755Y-60486060D01*
X31022444Y-60512767D01*
X31024817Y-60524698D01*
X31030209Y-60561046D01*
X31031402Y-60573155D01*
X31034351Y-60633156D01*
X31034500Y-60639243D01*
X31034500Y-66061663D01*
X31014815Y-66128702D01*
X30983386Y-66161980D01*
X30915069Y-66211616D01*
X30915060Y-66211623D01*
X30753622Y-66373061D01*
X30619421Y-66557771D01*
X30515770Y-66761196D01*
X30445215Y-66978339D01*
X30409500Y-67203837D01*
X30409500Y-67432162D01*
X30445215Y-67657660D01*
X30515770Y-67874803D01*
X30619421Y-68078228D01*
X30753621Y-68262937D01*
X30915063Y-68424379D01*
X31099772Y-68558579D01*
X31195884Y-68607550D01*
X31303196Y-68662229D01*
X31303198Y-68662229D01*
X31303201Y-68662231D01*
X31419592Y-68700049D01*
X31520339Y-68732784D01*
X31745838Y-68768500D01*
X31745843Y-68768500D01*
X31974162Y-68768500D01*
X32199660Y-68732784D01*
X32416799Y-68662231D01*
X32620228Y-68558579D01*
X32804937Y-68424379D01*
X32966379Y-68262937D01*
X33100579Y-68078228D01*
X33204231Y-67874799D01*
X33274784Y-67657660D01*
X33285953Y-67587144D01*
X33310500Y-67432162D01*
X33310500Y-67203837D01*
X33274784Y-66978339D01*
X33225484Y-66826611D01*
X33204231Y-66761201D01*
X33204229Y-66761198D01*
X33204229Y-66761196D01*
X33100578Y-66557771D01*
X32966379Y-66373063D01*
X32804937Y-66211621D01*
X32798963Y-66207280D01*
X32736614Y-66161980D01*
X32693948Y-66106650D01*
X32685500Y-66061663D01*
X32685500Y-62949500D01*
X32705185Y-62882461D01*
X32757989Y-62836706D01*
X32809500Y-62825500D01*
X34668942Y-62825500D01*
X34735981Y-62845185D01*
X34774479Y-62884401D01*
X34857288Y-63018656D01*
X34981344Y-63142712D01*
X35130666Y-63234814D01*
X35297203Y-63289999D01*
X35399991Y-63300500D01*
X36600008Y-63300499D01*
X36702797Y-63289999D01*
X36869334Y-63234814D01*
X37018656Y-63142712D01*
X37142712Y-63018656D01*
X37234814Y-62869334D01*
X37289999Y-62702797D01*
X37300500Y-62600009D01*
X37300499Y-61399992D01*
X37289999Y-61297203D01*
X37234814Y-61130666D01*
X37142712Y-60981344D01*
X37018656Y-60857288D01*
X36869334Y-60765186D01*
X36702797Y-60710001D01*
X36702795Y-60710000D01*
X36600010Y-60699500D01*
X35399998Y-60699500D01*
X35399981Y-60699501D01*
X35297203Y-60710000D01*
X35297200Y-60710001D01*
X35130668Y-60765185D01*
X35130663Y-60765187D01*
X34981342Y-60857289D01*
X34857289Y-60981342D01*
X34857288Y-60981344D01*
X34782861Y-61102011D01*
X34774481Y-61115597D01*
X34722533Y-61162321D01*
X34668942Y-61174500D01*
X32809500Y-61174500D01*
X32742461Y-61154815D01*
X32696706Y-61102011D01*
X32685500Y-61050500D01*
X32685500Y-60676826D01*
X32688495Y-60656637D01*
X32685500Y-60595671D01*
X32685500Y-60534628D01*
X32683302Y-60523579D01*
X32681068Y-60505465D01*
X32680414Y-60492138D01*
X32680414Y-60479975D01*
X32680844Y-60471222D01*
X32682115Y-60445354D01*
X32676135Y-60405042D01*
X32674136Y-60364349D01*
X32664234Y-60324822D01*
X32657949Y-60282453D01*
X32656756Y-60270340D01*
X32655057Y-60235729D01*
X32645153Y-60196191D01*
X32639174Y-60155883D01*
X32625447Y-60117520D01*
X32615037Y-60075962D01*
X32612666Y-60064037D01*
X32607582Y-60029759D01*
X32607581Y-60029757D01*
X32607581Y-60029754D01*
X32593852Y-59991386D01*
X32583952Y-59951860D01*
X32566529Y-59915022D01*
X32552095Y-59874685D01*
X32548570Y-59863064D01*
X32540147Y-59829433D01*
X32522721Y-59792589D01*
X32508993Y-59754221D01*
X32488045Y-59719272D01*
X32469723Y-59680534D01*
X32465075Y-59669309D01*
X32453400Y-59636679D01*
X32453399Y-59636676D01*
X32435578Y-59606946D01*
X32429845Y-59596218D01*
X32415029Y-59564891D01*
X32415026Y-59564885D01*
X32394377Y-59537044D01*
X32387621Y-59526933D01*
X32368733Y-59495420D01*
X32362997Y-59484690D01*
X32348178Y-59453357D01*
X32327534Y-59425522D01*
X32320773Y-59415404D01*
X32302953Y-59385674D01*
X32302951Y-59385670D01*
X32279675Y-59359989D01*
X32271958Y-59350586D01*
X32250073Y-59321078D01*
X32243311Y-59310958D01*
X32225496Y-59281235D01*
X32225495Y-59281233D01*
X32202211Y-59255543D01*
X32194502Y-59246149D01*
X32173853Y-59218307D01*
X32148176Y-59195035D01*
X32139574Y-59186433D01*
X32130603Y-59176535D01*
X32119381Y-59162156D01*
X32113124Y-59152791D01*
X32113123Y-59152790D01*
X32113121Y-59152787D01*
X32072119Y-59111786D01*
X32067921Y-59107377D01*
X32028972Y-59064403D01*
X32028967Y-59064398D01*
X32019919Y-59057688D01*
X32006105Y-59045772D01*
X22344855Y-49384522D01*
X22311370Y-49323199D01*
X22316354Y-49253507D01*
X22358226Y-49197574D01*
X22376238Y-49186357D01*
X22521610Y-49112287D01*
X22542770Y-49096913D01*
X22687213Y-48991971D01*
X22687215Y-48991968D01*
X22687219Y-48991966D01*
X22831966Y-48847219D01*
X22831968Y-48847215D01*
X22831971Y-48847213D01*
X22912495Y-48736379D01*
X22952287Y-48681610D01*
X23045220Y-48499219D01*
X23108477Y-48304534D01*
X23140500Y-48102352D01*
X23140500Y-47897648D01*
X23131627Y-47841624D01*
X23108477Y-47695465D01*
X23062752Y-47554740D01*
X23045220Y-47500781D01*
X23045218Y-47500778D01*
X23045218Y-47500776D01*
X23005816Y-47423447D01*
X22952287Y-47318390D01*
X22936097Y-47296106D01*
X22831971Y-47152786D01*
X22687213Y-47008028D01*
X22521613Y-46887715D01*
X22521612Y-46887714D01*
X22521610Y-46887713D01*
X22464653Y-46858691D01*
X22339223Y-46794781D01*
X22144534Y-46731522D01*
X21969995Y-46703878D01*
X21942352Y-46699500D01*
X21737648Y-46699500D01*
X21713329Y-46703351D01*
X21535465Y-46731522D01*
X21340776Y-46794781D01*
X21158386Y-46887715D01*
X20992786Y-47008028D01*
X20848028Y-47152786D01*
X20727713Y-47318388D01*
X20653642Y-47463759D01*
X20634326Y-47484210D01*
X20617468Y-47506730D01*
X20610658Y-47509269D01*
X20605668Y-47514554D01*
X20578361Y-47521316D01*
X20552004Y-47531147D01*
X20544901Y-47529601D01*
X20537847Y-47531349D01*
X20511220Y-47522275D01*
X20483731Y-47516295D01*
X20475423Y-47510075D01*
X20471712Y-47508811D01*
X20455477Y-47495144D01*
X20284719Y-47324386D01*
X20251234Y-47263063D01*
X20248400Y-47236705D01*
X20248400Y-34787597D01*
X28832000Y-34787597D01*
X28832000Y-36747402D01*
X28872640Y-37003993D01*
X28952922Y-37251076D01*
X29034034Y-37410264D01*
X29070866Y-37482551D01*
X29223569Y-37692729D01*
X29407271Y-37876431D01*
X29617449Y-38029134D01*
X29764945Y-38104287D01*
X29848923Y-38147077D01*
X29848925Y-38147077D01*
X29848928Y-38147079D01*
X30096007Y-38227360D01*
X30228206Y-38248297D01*
X30352598Y-38268000D01*
X30352603Y-38268000D01*
X30612402Y-38268000D01*
X30725798Y-38250039D01*
X30868993Y-38227360D01*
X31116072Y-38147079D01*
X31347551Y-38029134D01*
X31557729Y-37876431D01*
X31741431Y-37692729D01*
X31894134Y-37482551D01*
X32012079Y-37251072D01*
X32092360Y-37003993D01*
X32117565Y-36844852D01*
X32133000Y-36747402D01*
X32133000Y-34787597D01*
X39832000Y-34787597D01*
X39832000Y-36747402D01*
X39872640Y-37003993D01*
X39952922Y-37251076D01*
X40034034Y-37410264D01*
X40070866Y-37482551D01*
X40223569Y-37692729D01*
X40407271Y-37876431D01*
X40617449Y-38029134D01*
X40764945Y-38104287D01*
X40848923Y-38147077D01*
X40848925Y-38147077D01*
X40848928Y-38147079D01*
X41096007Y-38227360D01*
X41228206Y-38248297D01*
X41352598Y-38268000D01*
X41352603Y-38268000D01*
X41612402Y-38268000D01*
X41725798Y-38250039D01*
X41868993Y-38227360D01*
X42116072Y-38147079D01*
X42347551Y-38029134D01*
X42557729Y-37876431D01*
X42741431Y-37692729D01*
X42894134Y-37482551D01*
X43012079Y-37251072D01*
X43092360Y-37003993D01*
X43117565Y-36844852D01*
X43133000Y-36747402D01*
X43133000Y-34787597D01*
X43111447Y-34651521D01*
X43092360Y-34531007D01*
X43012079Y-34283928D01*
X43012077Y-34283925D01*
X43012077Y-34283923D01*
X42969287Y-34199945D01*
X42894134Y-34052449D01*
X42741431Y-33842271D01*
X42557729Y-33658569D01*
X42347551Y-33505866D01*
X42275264Y-33469034D01*
X42116076Y-33387922D01*
X41868993Y-33307640D01*
X41612402Y-33267000D01*
X41612397Y-33267000D01*
X41352603Y-33267000D01*
X41352598Y-33267000D01*
X41096006Y-33307640D01*
X40848923Y-33387922D01*
X40617445Y-33505868D01*
X40407274Y-33658566D01*
X40407268Y-33658571D01*
X40223571Y-33842268D01*
X40223566Y-33842274D01*
X40070868Y-34052445D01*
X39952922Y-34283923D01*
X39872640Y-34531006D01*
X39832000Y-34787597D01*
X32133000Y-34787597D01*
X32111447Y-34651521D01*
X32092360Y-34531007D01*
X32012079Y-34283928D01*
X32012077Y-34283925D01*
X32012077Y-34283923D01*
X31969287Y-34199945D01*
X31894134Y-34052449D01*
X31741431Y-33842271D01*
X31557729Y-33658569D01*
X31347551Y-33505866D01*
X31275264Y-33469034D01*
X31116076Y-33387922D01*
X30868993Y-33307640D01*
X30612402Y-33267000D01*
X30612397Y-33267000D01*
X30352603Y-33267000D01*
X30352598Y-33267000D01*
X30096006Y-33307640D01*
X29848923Y-33387922D01*
X29617445Y-33505868D01*
X29407274Y-33658566D01*
X29407268Y-33658571D01*
X29223571Y-33842268D01*
X29223566Y-33842274D01*
X29070868Y-34052445D01*
X28952922Y-34283923D01*
X28872640Y-34531006D01*
X28832000Y-34787597D01*
X20248400Y-34787597D01*
X20248400Y-28657278D01*
X32042000Y-28657278D01*
X32042000Y-28877722D01*
X32051032Y-28934747D01*
X32076485Y-29095452D01*
X32144603Y-29305103D01*
X32144604Y-29305106D01*
X32244687Y-29501525D01*
X32374252Y-29679858D01*
X32374256Y-29679863D01*
X32530136Y-29835743D01*
X32530141Y-29835747D01*
X32678257Y-29943358D01*
X32708478Y-29965315D01*
X32815559Y-30019876D01*
X32904893Y-30065395D01*
X32904896Y-30065396D01*
X33008109Y-30098931D01*
X33114549Y-30133515D01*
X33332278Y-30168000D01*
X33332279Y-30168000D01*
X33552721Y-30168000D01*
X33552722Y-30168000D01*
X33770451Y-30133515D01*
X33980106Y-30065395D01*
X34176522Y-29965315D01*
X34354865Y-29835742D01*
X34510742Y-29679865D01*
X34640315Y-29501522D01*
X34740395Y-29305106D01*
X34808515Y-29095451D01*
X34843000Y-28877722D01*
X34843000Y-28657278D01*
X34808515Y-28439549D01*
X34765672Y-28307690D01*
X34740396Y-28229896D01*
X34740395Y-28229893D01*
X34705737Y-28161875D01*
X34640315Y-28033478D01*
X34608729Y-27990003D01*
X34510747Y-27855141D01*
X34510743Y-27855136D01*
X34354863Y-27699256D01*
X34354858Y-27699252D01*
X34176525Y-27569687D01*
X34176524Y-27569686D01*
X34176522Y-27569685D01*
X34113596Y-27537622D01*
X33980106Y-27469604D01*
X33980103Y-27469603D01*
X33770452Y-27401485D01*
X33661586Y-27384242D01*
X33552722Y-27367000D01*
X33332278Y-27367000D01*
X33259701Y-27378495D01*
X33114547Y-27401485D01*
X32904896Y-27469603D01*
X32904893Y-27469604D01*
X32708474Y-27569687D01*
X32530141Y-27699252D01*
X32530136Y-27699256D01*
X32374256Y-27855136D01*
X32374252Y-27855141D01*
X32244687Y-28033474D01*
X32144604Y-28229893D01*
X32144603Y-28229896D01*
X32076485Y-28439547D01*
X32076485Y-28439549D01*
X32042000Y-28657278D01*
X20248400Y-28657278D01*
X20248400Y-21529240D01*
X20248549Y-21523157D01*
X20250487Y-21483693D01*
X20251496Y-21463157D01*
X20252689Y-21451046D01*
X20253520Y-21445443D01*
X20258081Y-21414693D01*
X20260449Y-21402787D01*
X20269386Y-21367109D01*
X20272907Y-21355501D01*
X20285297Y-21320878D01*
X20289938Y-21309672D01*
X20305661Y-21276429D01*
X20311380Y-21265729D01*
X20330284Y-21234189D01*
X20337027Y-21224097D01*
X20358932Y-21194561D01*
X20366628Y-21185184D01*
X20407007Y-21140633D01*
X20411164Y-21136267D01*
X22763714Y-18783718D01*
X22825035Y-18750235D01*
X22894727Y-18755219D01*
X22950660Y-18797091D01*
X22969324Y-18833082D01*
X23025770Y-19006803D01*
X23128509Y-19208438D01*
X23129421Y-19210228D01*
X23263621Y-19394937D01*
X23425063Y-19556379D01*
X23609772Y-19690579D01*
X23638503Y-19705218D01*
X23813196Y-19794229D01*
X23813198Y-19794229D01*
X23813201Y-19794231D01*
X23929592Y-19832049D01*
X24030339Y-19864784D01*
X24255838Y-19900500D01*
X24411336Y-19900500D01*
X24478375Y-19920185D01*
X24524130Y-19972989D01*
X24534074Y-20042147D01*
X24530222Y-20059742D01*
X24527508Y-20068895D01*
X24523352Y-20077684D01*
X24514896Y-20111442D01*
X24514134Y-20114013D01*
X24513845Y-20114460D01*
X24511998Y-20120548D01*
X24499617Y-20155148D01*
X24494965Y-20166382D01*
X24481201Y-20195487D01*
X24481198Y-20195495D01*
X24473377Y-20226710D01*
X24473378Y-20226711D01*
X24471895Y-20232628D01*
X24459003Y-20268663D01*
X24453385Y-20306524D01*
X24451906Y-20312431D01*
X24451905Y-20312441D01*
X24442976Y-20348086D01*
X24439445Y-20359726D01*
X24428600Y-20390035D01*
X24425475Y-20411098D01*
X24423874Y-20421889D01*
X24421504Y-20433807D01*
X24413681Y-20465041D01*
X24413679Y-20465057D01*
X24412099Y-20497200D01*
X24410907Y-20509305D01*
X24405517Y-20545643D01*
X24403144Y-20557575D01*
X24395319Y-20588817D01*
X24395318Y-20588820D01*
X24393738Y-20620972D01*
X24393739Y-20620973D01*
X24393440Y-20627059D01*
X24387826Y-20664909D01*
X24389702Y-20703137D01*
X24389404Y-20709221D01*
X24388688Y-20723802D01*
X24386456Y-20741904D01*
X24384500Y-20751740D01*
X24384500Y-20806025D01*
X24384351Y-20812109D01*
X24381685Y-20866359D01*
X24382480Y-20871713D01*
X24383038Y-20875477D01*
X24383158Y-20876282D01*
X24384500Y-20894479D01*
X24384500Y-21892746D01*
X24364815Y-21959785D01*
X24333387Y-21993062D01*
X24330228Y-21995358D01*
X24312779Y-22008035D01*
X24168028Y-22152786D01*
X24047715Y-22318386D01*
X23954781Y-22500776D01*
X23891522Y-22695465D01*
X23859500Y-22897648D01*
X23859500Y-23102351D01*
X23891522Y-23304534D01*
X23954781Y-23499223D01*
X24047715Y-23681613D01*
X24168028Y-23847213D01*
X24312786Y-23991971D01*
X24447370Y-24089750D01*
X24478390Y-24112287D01*
X24569214Y-24158564D01*
X24660776Y-24205218D01*
X24660778Y-24205218D01*
X24660781Y-24205220D01*
X24744359Y-24232376D01*
X24855465Y-24268477D01*
X24928073Y-24279977D01*
X25057648Y-24300500D01*
X25057649Y-24300500D01*
X25262351Y-24300500D01*
X25262352Y-24300500D01*
X25464534Y-24268477D01*
X25659219Y-24205220D01*
X25841610Y-24112287D01*
X25949221Y-24034104D01*
X26007213Y-23991971D01*
X26007215Y-23991968D01*
X26007219Y-23991966D01*
X26151966Y-23847219D01*
X26151968Y-23847215D01*
X26151971Y-23847213D01*
X26218294Y-23755925D01*
X26272287Y-23681610D01*
X26365220Y-23499219D01*
X26428477Y-23304534D01*
X26460500Y-23102352D01*
X26460500Y-22897648D01*
X26428477Y-22695466D01*
X26365220Y-22500781D01*
X26365218Y-22500778D01*
X26365218Y-22500776D01*
X26331503Y-22434607D01*
X26272287Y-22318390D01*
X26264556Y-22307749D01*
X26151971Y-22152786D01*
X26007220Y-22008035D01*
X26007219Y-22008034D01*
X25986613Y-21993063D01*
X25943949Y-21937733D01*
X25935500Y-21892746D01*
X25935500Y-20850216D01*
X25935649Y-20844133D01*
X25937222Y-20812109D01*
X25938537Y-20785328D01*
X25939730Y-20773220D01*
X25945120Y-20736884D01*
X25947493Y-20724952D01*
X25948875Y-20719435D01*
X25956428Y-20689280D01*
X25959946Y-20677685D01*
X25972341Y-20643044D01*
X25976985Y-20631832D01*
X25992701Y-20598604D01*
X25998433Y-20587881D01*
X26008383Y-20571280D01*
X26017328Y-20556354D01*
X26024077Y-20546253D01*
X26045985Y-20516714D01*
X26053690Y-20507326D01*
X26093242Y-20463687D01*
X26097399Y-20459321D01*
X27765416Y-18791305D01*
X27826737Y-18757822D01*
X27872489Y-18756515D01*
X27897648Y-18760500D01*
X27897653Y-18760500D01*
X28102351Y-18760500D01*
X28102352Y-18760500D01*
X28304534Y-18728477D01*
X28499219Y-18665220D01*
X28681610Y-18572287D01*
X28774590Y-18504732D01*
X28847213Y-18451971D01*
X28847215Y-18451968D01*
X28847219Y-18451966D01*
X28991966Y-18307219D01*
X29002517Y-18292697D01*
X29006936Y-18286615D01*
X29062266Y-18243949D01*
X29107254Y-18235500D01*
X30546683Y-18235500D01*
X30552765Y-18235648D01*
X30611568Y-18238537D01*
X30623678Y-18239730D01*
X30660014Y-18245120D01*
X30671943Y-18247492D01*
X30707612Y-18256427D01*
X30719219Y-18259948D01*
X30753846Y-18272338D01*
X30765073Y-18276988D01*
X30798286Y-18292697D01*
X30809017Y-18298433D01*
X30840536Y-18317324D01*
X30850657Y-18324086D01*
X30880177Y-18345980D01*
X30889582Y-18353699D01*
X30933189Y-18393222D01*
X30937596Y-18397418D01*
X42544654Y-30004477D01*
X42556075Y-30019876D01*
X42598550Y-30058373D01*
X42639109Y-30098932D01*
X42647453Y-30104507D01*
X42661832Y-30115728D01*
X42672628Y-30125513D01*
X42681228Y-30134114D01*
X42702848Y-30157967D01*
X42702851Y-30157970D01*
X42702854Y-30157973D01*
X42733604Y-30180779D01*
X42761973Y-30206491D01*
X42794807Y-30226171D01*
X42799692Y-30229794D01*
X42799696Y-30229797D01*
X42829210Y-30251686D01*
X42838617Y-30259407D01*
X42862469Y-30281025D01*
X42881991Y-30292726D01*
X42890077Y-30297573D01*
X42900192Y-30304331D01*
X42926051Y-30323509D01*
X42926052Y-30323509D01*
X42926056Y-30323512D01*
X42955153Y-30337274D01*
X42965875Y-30343004D01*
X42997411Y-30361906D01*
X43007509Y-30368653D01*
X43033380Y-30387840D01*
X43033383Y-30387842D01*
X43062470Y-30401598D01*
X43073204Y-30407335D01*
X43100816Y-30423885D01*
X43131134Y-30434733D01*
X43142360Y-30439382D01*
X43175586Y-30455096D01*
X43186311Y-30460830D01*
X43213916Y-30477376D01*
X43213919Y-30477377D01*
X43213924Y-30477380D01*
X43249977Y-30490280D01*
X43284585Y-30506648D01*
X43321711Y-30515947D01*
X43362069Y-30530387D01*
X43373274Y-30535029D01*
X43402389Y-30548800D01*
X43433620Y-30556622D01*
X43445233Y-30560144D01*
X43475562Y-30570997D01*
X43507407Y-30575720D01*
X43519330Y-30578091D01*
X43554995Y-30587025D01*
X43566622Y-30590552D01*
X43596935Y-30601399D01*
X43634808Y-30607017D01*
X43671944Y-30616319D01*
X43710176Y-30618197D01*
X43752551Y-30624483D01*
X43764460Y-30626851D01*
X43795713Y-30634680D01*
X43833953Y-30636558D01*
X43871809Y-30642174D01*
X43910041Y-30640296D01*
X43930710Y-30641310D01*
X43948807Y-30643543D01*
X43958642Y-30645500D01*
X44012925Y-30645500D01*
X44019009Y-30645649D01*
X44073259Y-30648314D01*
X44073259Y-30648313D01*
X44073261Y-30648314D01*
X44083184Y-30646842D01*
X44101380Y-30645500D01*
X51391983Y-30645500D01*
X51398065Y-30645648D01*
X51456868Y-30648537D01*
X51468978Y-30649730D01*
X51505314Y-30655120D01*
X51517243Y-30657492D01*
X51552912Y-30666427D01*
X51564519Y-30669948D01*
X51599146Y-30682338D01*
X51610376Y-30686990D01*
X51643586Y-30702697D01*
X51654317Y-30708433D01*
X51685836Y-30727324D01*
X51695957Y-30734086D01*
X51725477Y-30755980D01*
X51734882Y-30763699D01*
X51778489Y-30803222D01*
X51782897Y-30807419D01*
X62970797Y-41995319D01*
X63004282Y-42056642D01*
X62999298Y-42126334D01*
X62957426Y-42182267D01*
X62891962Y-42206684D01*
X62883116Y-42207000D01*
X62223384Y-42207000D01*
X62204145Y-42208748D01*
X62152807Y-42213413D01*
X61990393Y-42264022D01*
X61874150Y-42334294D01*
X61806595Y-42352130D01*
X61745850Y-42334294D01*
X61629606Y-42264022D01*
X61576507Y-42247476D01*
X61467196Y-42213414D01*
X61467194Y-42213413D01*
X61467192Y-42213413D01*
X61417778Y-42208923D01*
X61396616Y-42207000D01*
X61396613Y-42207000D01*
X60092308Y-42207000D01*
X60062867Y-42198355D01*
X60032881Y-42191832D01*
X60027865Y-42188077D01*
X60025269Y-42187315D01*
X60004627Y-42170681D01*
X59993999Y-42160053D01*
X59982081Y-42146236D01*
X59977952Y-42140668D01*
X59977946Y-42140662D01*
X59944558Y-42110401D01*
X59942305Y-42108359D01*
X59908296Y-42074350D01*
X59894922Y-42065414D01*
X59875041Y-42047394D01*
X59866446Y-42038798D01*
X59857289Y-42028696D01*
X59848969Y-42019516D01*
X59823175Y-42000386D01*
X59799385Y-41978824D01*
X59771843Y-41962316D01*
X59737423Y-41936789D01*
X59728023Y-41929074D01*
X59708736Y-41911594D01*
X59686414Y-41898215D01*
X59686414Y-41898214D01*
X59681183Y-41895078D01*
X59655400Y-41875957D01*
X59626386Y-41862234D01*
X59621162Y-41859103D01*
X59621153Y-41859099D01*
X59589616Y-41840196D01*
X59579500Y-41833436D01*
X59558608Y-41817942D01*
X59558602Y-41817938D01*
X59535081Y-41806813D01*
X59524355Y-41801080D01*
X59518291Y-41797445D01*
X59502031Y-41787700D01*
X59502027Y-41787698D01*
X59502024Y-41787697D01*
X59477528Y-41778932D01*
X59466285Y-41774275D01*
X59433057Y-41758559D01*
X59422325Y-41752823D01*
X59400017Y-41739451D01*
X59400008Y-41739447D01*
X59375503Y-41730678D01*
X59375503Y-41730677D01*
X59369759Y-41728622D01*
X59340745Y-41714900D01*
X59309607Y-41707101D01*
X59303880Y-41705052D01*
X59303871Y-41705049D01*
X59269243Y-41692658D01*
X59258010Y-41688005D01*
X59234494Y-41676883D01*
X59234495Y-41676883D01*
X59234490Y-41676881D01*
X59209245Y-41670556D01*
X59203327Y-41669073D01*
X59173107Y-41658261D01*
X59141364Y-41653551D01*
X59135458Y-41652072D01*
X59135444Y-41652070D01*
X59117518Y-41647580D01*
X59099762Y-41643132D01*
X59088124Y-41639602D01*
X59063627Y-41630837D01*
X59037891Y-41627019D01*
X59025962Y-41624646D01*
X59000720Y-41618323D01*
X59000713Y-41618322D01*
X58974719Y-41617045D01*
X58962613Y-41615853D01*
X58926255Y-41610460D01*
X58914322Y-41608086D01*
X58889088Y-41601765D01*
X58889080Y-41601764D01*
X58863092Y-41600487D01*
X58863092Y-41600488D01*
X58857004Y-41600188D01*
X58825245Y-41595478D01*
X58793174Y-41597052D01*
X58787090Y-41596754D01*
X58787087Y-41596753D01*
X58769428Y-41595885D01*
X58751333Y-41593654D01*
X58744525Y-41592300D01*
X58744523Y-41592300D01*
X58699470Y-41592300D01*
X58693385Y-41592151D01*
X58648384Y-41589940D01*
X58648381Y-41589940D01*
X58641520Y-41590958D01*
X58623325Y-41592300D01*
X40071526Y-41592300D01*
X40055617Y-41589940D01*
X40007582Y-41592300D01*
X39959474Y-41592300D01*
X39952668Y-41593654D01*
X39934572Y-41595886D01*
X39916910Y-41596754D01*
X39904740Y-41596754D01*
X39878758Y-41595477D01*
X39878748Y-41595478D01*
X39853015Y-41599295D01*
X39840911Y-41600487D01*
X39814920Y-41601764D01*
X39814914Y-41601765D01*
X39789674Y-41608087D01*
X39777743Y-41610460D01*
X39741386Y-41615853D01*
X39729280Y-41617045D01*
X39703290Y-41618322D01*
X39703279Y-41618324D01*
X39678034Y-41624645D01*
X39678035Y-41624646D01*
X39672121Y-41626127D01*
X39640370Y-41630838D01*
X39610141Y-41641652D01*
X39604225Y-41643135D01*
X39568555Y-41652070D01*
X39556623Y-41654443D01*
X39530897Y-41658259D01*
X39506387Y-41667027D01*
X39506388Y-41667028D01*
X39500656Y-41669079D01*
X39469509Y-41676882D01*
X39440491Y-41690605D01*
X39434752Y-41692659D01*
X39434751Y-41692660D01*
X39400134Y-41705047D01*
X39388487Y-41708580D01*
X39363251Y-41714901D01*
X39363245Y-41714903D01*
X39339729Y-41726025D01*
X39328496Y-41730679D01*
X39303984Y-41739450D01*
X39281670Y-41752825D01*
X39270938Y-41758561D01*
X39237706Y-41774278D01*
X39226468Y-41778933D01*
X39201973Y-41787697D01*
X39201963Y-41787702D01*
X39179649Y-41801075D01*
X39179650Y-41801076D01*
X39174417Y-41804211D01*
X39145398Y-41817938D01*
X39119620Y-41837054D01*
X39114386Y-41840192D01*
X39082846Y-41859097D01*
X39072118Y-41864832D01*
X39048607Y-41875952D01*
X39048592Y-41875961D01*
X39027695Y-41891459D01*
X39017588Y-41898213D01*
X39017585Y-41898215D01*
X39003700Y-41906537D01*
X38936081Y-41924122D01*
X38901630Y-41918113D01*
X38850453Y-41901485D01*
X38850454Y-41901485D01*
X38679791Y-41874455D01*
X38632722Y-41867000D01*
X38412278Y-41867000D01*
X38355726Y-41875957D01*
X38194547Y-41901485D01*
X37984896Y-41969603D01*
X37984893Y-41969604D01*
X37788474Y-42069687D01*
X37610141Y-42199252D01*
X37610136Y-42199256D01*
X37454256Y-42355136D01*
X37454252Y-42355141D01*
X37324687Y-42533474D01*
X37224604Y-42729893D01*
X37224603Y-42729896D01*
X37156485Y-42939547D01*
X37122000Y-43157278D01*
X37122000Y-43377721D01*
X37156485Y-43595452D01*
X37224603Y-43805103D01*
X37224604Y-43805106D01*
X37324687Y-44001525D01*
X37454252Y-44179858D01*
X37454256Y-44179863D01*
X37610136Y-44335743D01*
X37610141Y-44335747D01*
X37765692Y-44448760D01*
X37788478Y-44465315D01*
X37916875Y-44530737D01*
X37984893Y-44565395D01*
X37984896Y-44565396D01*
X38089721Y-44599455D01*
X38194549Y-44633515D01*
X38380880Y-44663027D01*
X38444015Y-44692956D01*
X38480946Y-44752268D01*
X38479948Y-44822130D01*
X38441338Y-44880363D01*
X38377375Y-44908477D01*
X38361482Y-44909500D01*
X36230361Y-44909500D01*
X36224278Y-44909351D01*
X36216434Y-44908965D01*
X36168545Y-44906612D01*
X36156438Y-44905419D01*
X36120080Y-44900026D01*
X36108145Y-44897652D01*
X36072486Y-44888720D01*
X36060838Y-44885187D01*
X36026232Y-44872804D01*
X36014992Y-44868148D01*
X35981759Y-44852430D01*
X35971031Y-44846695D01*
X35939491Y-44827792D01*
X35929370Y-44821030D01*
X35899857Y-44799142D01*
X35890449Y-44791421D01*
X35849108Y-44753951D01*
X35844701Y-44749755D01*
X34833279Y-43738333D01*
X34799794Y-43677010D01*
X34803031Y-43612329D01*
X34808513Y-43595457D01*
X34808512Y-43595457D01*
X34808515Y-43595451D01*
X34843000Y-43377722D01*
X34843000Y-43157278D01*
X34808515Y-42939549D01*
X34746532Y-42748781D01*
X34740396Y-42729896D01*
X34740395Y-42729893D01*
X34681374Y-42614060D01*
X34640315Y-42533478D01*
X34572327Y-42439900D01*
X34510747Y-42355141D01*
X34510743Y-42355136D01*
X34354863Y-42199256D01*
X34354858Y-42199252D01*
X34176525Y-42069687D01*
X34176524Y-42069686D01*
X34176522Y-42069685D01*
X34101559Y-42031489D01*
X33980106Y-41969604D01*
X33980103Y-41969603D01*
X33770452Y-41901485D01*
X33661586Y-41884242D01*
X33552722Y-41867000D01*
X33332278Y-41867000D01*
X33275726Y-41875957D01*
X33114547Y-41901485D01*
X32904896Y-41969603D01*
X32904893Y-41969604D01*
X32708474Y-42069687D01*
X32530141Y-42199252D01*
X32530136Y-42199256D01*
X32374256Y-42355136D01*
X32374252Y-42355141D01*
X32244687Y-42533474D01*
X32144604Y-42729893D01*
X32144603Y-42729896D01*
X32076485Y-42939547D01*
X32042000Y-43157278D01*
X32042000Y-43377721D01*
X32076485Y-43595452D01*
X32144603Y-43805103D01*
X32144604Y-43805106D01*
X32244687Y-44001525D01*
X32374252Y-44179858D01*
X32374256Y-44179863D01*
X32530136Y-44335743D01*
X32530141Y-44335747D01*
X32685692Y-44448760D01*
X32708478Y-44465315D01*
X32836875Y-44530737D01*
X32904893Y-44565395D01*
X32904896Y-44565396D01*
X33009721Y-44599455D01*
X33114549Y-44633515D01*
X33332278Y-44668000D01*
X33332279Y-44668000D01*
X33552721Y-44668000D01*
X33552722Y-44668000D01*
X33770451Y-44633515D01*
X33787329Y-44628031D01*
X33857170Y-44626032D01*
X33913333Y-44658279D01*
X34904269Y-45649215D01*
X34913851Y-45662135D01*
X34949493Y-45694439D01*
X34951648Y-45696594D01*
X34983499Y-45728446D01*
X34983503Y-45728449D01*
X34989262Y-45732297D01*
X35003651Y-45743526D01*
X35016758Y-45755406D01*
X35025359Y-45764007D01*
X35042831Y-45783284D01*
X35063738Y-45798789D01*
X35073134Y-45806501D01*
X35092412Y-45823974D01*
X35092414Y-45823975D01*
X35092415Y-45823976D01*
X35114735Y-45837354D01*
X35124849Y-45844112D01*
X35154376Y-45866011D01*
X35163783Y-45873731D01*
X35183060Y-45891203D01*
X35183066Y-45891208D01*
X35205384Y-45904584D01*
X35205387Y-45904585D01*
X35210610Y-45907716D01*
X35236400Y-45926843D01*
X35265420Y-45940568D01*
X35270642Y-45943698D01*
X35270646Y-45943700D01*
X35302189Y-45962607D01*
X35312293Y-45969358D01*
X35329597Y-45982191D01*
X35333201Y-45984864D01*
X35356716Y-45995985D01*
X35367444Y-46001718D01*
X35389769Y-46015100D01*
X35389773Y-46015101D01*
X35389776Y-46015103D01*
X35414269Y-46023866D01*
X35425513Y-46028523D01*
X35458736Y-46044236D01*
X35469472Y-46049974D01*
X35491788Y-46063351D01*
X35522025Y-46074170D01*
X35551055Y-46087900D01*
X35582190Y-46095697D01*
X35587921Y-46097748D01*
X35587933Y-46097751D01*
X35622558Y-46110141D01*
X35633788Y-46114793D01*
X35657309Y-46125918D01*
X35657313Y-46125919D01*
X35657316Y-46125920D01*
X35682551Y-46132241D01*
X35682552Y-46132241D01*
X35688456Y-46133720D01*
X35718693Y-46144539D01*
X35750454Y-46149250D01*
X35792036Y-46159666D01*
X35803666Y-46163194D01*
X35828170Y-46171962D01*
X35853907Y-46175779D01*
X35865832Y-46178151D01*
X35891081Y-46184476D01*
X35917077Y-46185752D01*
X35929184Y-46186945D01*
X35936564Y-46188039D01*
X35965549Y-46192339D01*
X35977472Y-46194710D01*
X36002713Y-46201034D01*
X36028710Y-46202310D01*
X36040807Y-46203502D01*
X36066555Y-46207322D01*
X36092541Y-46206045D01*
X36104711Y-46206045D01*
X36112954Y-46206449D01*
X36122360Y-46206912D01*
X36140472Y-46209147D01*
X36147273Y-46210500D01*
X36195382Y-46210500D01*
X36243417Y-46212860D01*
X36259326Y-46210500D01*
X45684741Y-46210500D01*
X45690824Y-46210649D01*
X45746550Y-46213386D01*
X45758659Y-46214579D01*
X45768543Y-46216045D01*
X45795027Y-46219973D01*
X45806951Y-46222345D01*
X45842612Y-46231277D01*
X45854256Y-46234810D01*
X45888865Y-46247194D01*
X45900106Y-46251850D01*
X45933339Y-46267568D01*
X45944067Y-46273303D01*
X45975607Y-46292206D01*
X45985723Y-46298965D01*
X46015246Y-46320860D01*
X46024645Y-46328574D01*
X46050315Y-46351840D01*
X46065990Y-46366047D01*
X46070397Y-46370243D01*
X53282900Y-53582746D01*
X53294813Y-53596555D01*
X53298951Y-53602135D01*
X53334593Y-53634439D01*
X53368604Y-53668450D01*
X53381977Y-53677385D01*
X53388755Y-53683528D01*
X53388756Y-53683530D01*
X53388760Y-53683533D01*
X53401854Y-53695402D01*
X53410449Y-53703996D01*
X53427931Y-53723284D01*
X53448838Y-53738789D01*
X53458234Y-53746501D01*
X53477512Y-53763974D01*
X53477514Y-53763975D01*
X53477515Y-53763976D01*
X53499835Y-53777354D01*
X53509949Y-53784112D01*
X53539476Y-53806011D01*
X53548883Y-53813731D01*
X53568160Y-53831203D01*
X53568166Y-53831208D01*
X53590484Y-53844584D01*
X53590487Y-53844585D01*
X53595710Y-53847716D01*
X53621500Y-53866843D01*
X53650520Y-53880568D01*
X53655742Y-53883698D01*
X53655746Y-53883700D01*
X53687289Y-53902607D01*
X53697393Y-53909358D01*
X53718298Y-53924862D01*
X53718301Y-53924864D01*
X53741816Y-53935985D01*
X53752544Y-53941718D01*
X53774869Y-53955100D01*
X53774873Y-53955101D01*
X53774876Y-53955103D01*
X53799369Y-53963866D01*
X53810613Y-53968523D01*
X53843836Y-53984236D01*
X53854572Y-53989974D01*
X53876888Y-54003351D01*
X53907125Y-54014170D01*
X53936155Y-54027900D01*
X53967293Y-54035698D01*
X53973033Y-54037752D01*
X53973036Y-54037753D01*
X53980573Y-54040450D01*
X54037061Y-54081570D01*
X54062351Y-54146702D01*
X54048413Y-54215167D01*
X53999672Y-54265228D01*
X53938796Y-54281200D01*
X34066700Y-54281200D01*
X33999661Y-54261515D01*
X33953906Y-54208711D01*
X33942700Y-54157200D01*
X33942700Y-53816526D01*
X33945060Y-53800617D01*
X33942700Y-53752582D01*
X33942700Y-53704477D01*
X33942700Y-53704472D01*
X33941347Y-53697672D01*
X33939112Y-53679560D01*
X33938245Y-53661910D01*
X33938245Y-53649740D01*
X33939522Y-53623755D01*
X33934809Y-53591987D01*
X33933234Y-53559913D01*
X33925432Y-53528769D01*
X33919899Y-53491470D01*
X33919145Y-53486384D01*
X33917952Y-53474273D01*
X33916676Y-53448281D01*
X33908873Y-53417130D01*
X33904162Y-53385370D01*
X33893343Y-53355133D01*
X33882927Y-53313552D01*
X33880555Y-53301622D01*
X33880389Y-53300500D01*
X33876739Y-53275893D01*
X33867971Y-53251389D01*
X33864441Y-53239751D01*
X33858120Y-53214516D01*
X33858119Y-53214513D01*
X33858118Y-53214509D01*
X33846993Y-53190988D01*
X33842339Y-53179753D01*
X33829952Y-53145135D01*
X33826422Y-53133498D01*
X33820100Y-53108255D01*
X33808967Y-53084716D01*
X33804322Y-53073501D01*
X33795551Y-53048988D01*
X33782174Y-53026671D01*
X33776436Y-53015936D01*
X33760723Y-52982713D01*
X33756066Y-52971469D01*
X33747303Y-52946976D01*
X33747301Y-52946973D01*
X33747300Y-52946969D01*
X33730790Y-52919424D01*
X33717062Y-52890398D01*
X33697935Y-52864608D01*
X33694804Y-52859384D01*
X33675899Y-52827843D01*
X33670162Y-52817109D01*
X33659046Y-52793606D01*
X33659043Y-52793600D01*
X33653922Y-52786695D01*
X33643532Y-52772685D01*
X33636790Y-52762595D01*
X33623405Y-52740263D01*
X33615391Y-52731421D01*
X33605930Y-52720982D01*
X33598212Y-52711578D01*
X33582027Y-52689755D01*
X33576306Y-52682041D01*
X33569554Y-52671935D01*
X33556176Y-52649615D01*
X33556175Y-52649614D01*
X33556174Y-52649612D01*
X33538701Y-52630334D01*
X33538699Y-52630332D01*
X33534611Y-52625822D01*
X33515484Y-52600031D01*
X33491692Y-52578467D01*
X33487603Y-52573955D01*
X33487602Y-52573954D01*
X33475726Y-52560851D01*
X33464497Y-52546462D01*
X33460649Y-52540703D01*
X33460646Y-52540699D01*
X33428794Y-52508848D01*
X33424596Y-52504439D01*
X33394337Y-52471053D01*
X33394336Y-52471052D01*
X33394335Y-52471051D01*
X33388755Y-52466913D01*
X33374946Y-52455000D01*
X33307137Y-52387191D01*
X33273652Y-52325868D01*
X33272345Y-52280112D01*
X33300500Y-52102351D01*
X33300500Y-51897648D01*
X33268477Y-51695465D01*
X33239127Y-51605137D01*
X33205220Y-51500781D01*
X33205218Y-51500778D01*
X33205218Y-51500776D01*
X33171503Y-51434607D01*
X33112287Y-51318390D01*
X33104556Y-51307749D01*
X32991971Y-51152786D01*
X32847217Y-51008032D01*
X32847212Y-51008028D01*
X32701615Y-50902246D01*
X32658949Y-50846916D01*
X32650500Y-50801928D01*
X32650500Y-49198070D01*
X32670185Y-49131031D01*
X32701613Y-49097753D01*
X32847219Y-48991966D01*
X32991966Y-48847219D01*
X32991968Y-48847215D01*
X32991971Y-48847213D01*
X33072495Y-48736379D01*
X33112287Y-48681610D01*
X33205220Y-48499219D01*
X33268477Y-48304534D01*
X33300500Y-48102352D01*
X33300500Y-47897648D01*
X33291627Y-47841624D01*
X33268477Y-47695465D01*
X33222752Y-47554740D01*
X33205220Y-47500781D01*
X33205218Y-47500778D01*
X33205218Y-47500776D01*
X33165816Y-47423447D01*
X33112287Y-47318390D01*
X33096097Y-47296106D01*
X32991971Y-47152786D01*
X32847213Y-47008028D01*
X32681613Y-46887715D01*
X32681612Y-46887714D01*
X32681610Y-46887713D01*
X32624653Y-46858691D01*
X32499223Y-46794781D01*
X32304534Y-46731522D01*
X32129995Y-46703878D01*
X32102352Y-46699500D01*
X31897648Y-46699500D01*
X31873329Y-46703351D01*
X31695465Y-46731522D01*
X31500776Y-46794781D01*
X31318386Y-46887715D01*
X31152786Y-47008028D01*
X31008028Y-47152786D01*
X30887715Y-47318386D01*
X30794781Y-47500776D01*
X30731522Y-47695465D01*
X30701410Y-47885588D01*
X30699500Y-47897648D01*
X30699500Y-48102352D01*
X30700033Y-48105716D01*
X30731522Y-48304534D01*
X30794781Y-48499223D01*
X30858691Y-48624653D01*
X30883902Y-48674131D01*
X30887715Y-48681613D01*
X31008028Y-48847213D01*
X31152784Y-48991969D01*
X31221863Y-49042157D01*
X31298385Y-49097753D01*
X31341051Y-49153081D01*
X31349500Y-49198070D01*
X31349500Y-50801928D01*
X31329815Y-50868967D01*
X31298385Y-50902246D01*
X31152787Y-51008028D01*
X31152782Y-51008032D01*
X31008028Y-51152786D01*
X30887715Y-51318386D01*
X30794781Y-51500776D01*
X30731522Y-51695465D01*
X30699500Y-51897648D01*
X30699500Y-52102351D01*
X30731522Y-52304534D01*
X30794781Y-52499223D01*
X30832859Y-52573954D01*
X30873023Y-52652780D01*
X30887715Y-52681613D01*
X31008028Y-52847213D01*
X31152786Y-52991971D01*
X31280458Y-53084728D01*
X31318390Y-53112287D01*
X31434607Y-53171503D01*
X31500776Y-53205218D01*
X31500778Y-53205218D01*
X31500781Y-53205220D01*
X31605137Y-53239127D01*
X31695465Y-53268477D01*
X31796557Y-53284488D01*
X31897648Y-53300500D01*
X31897649Y-53300500D01*
X32102351Y-53300500D01*
X32102352Y-53300500D01*
X32280112Y-53272345D01*
X32285537Y-53273046D01*
X32290664Y-53271134D01*
X32319814Y-53277475D01*
X32349405Y-53281299D01*
X32355010Y-53285131D01*
X32358937Y-53285986D01*
X32387191Y-53307137D01*
X32481955Y-53401901D01*
X32486151Y-53406308D01*
X32523621Y-53447649D01*
X32531342Y-53457057D01*
X32553230Y-53486570D01*
X32559992Y-53496691D01*
X32578895Y-53528231D01*
X32584630Y-53538959D01*
X32600348Y-53572192D01*
X32605004Y-53583432D01*
X32617387Y-53618038D01*
X32620920Y-53629686D01*
X32629852Y-53665345D01*
X32632226Y-53677280D01*
X32637619Y-53713638D01*
X32638812Y-53725745D01*
X32641551Y-53781474D01*
X32641700Y-53787561D01*
X32641700Y-54610890D01*
X32633055Y-54640327D01*
X32626532Y-54670318D01*
X32622777Y-54675333D01*
X32622015Y-54677929D01*
X32605380Y-54698572D01*
X32560461Y-54743490D01*
X32499138Y-54776975D01*
X32434463Y-54773739D01*
X32304536Y-54731523D01*
X32169746Y-54710174D01*
X32102352Y-54699500D01*
X31897648Y-54699500D01*
X31873329Y-54703351D01*
X31695465Y-54731522D01*
X31500776Y-54794781D01*
X31318386Y-54887715D01*
X31152786Y-55008028D01*
X31008028Y-55152786D01*
X30887715Y-55318386D01*
X30794781Y-55500776D01*
X30731522Y-55695465D01*
X30699500Y-55897648D01*
X30699500Y-56102351D01*
X30731522Y-56304534D01*
X30794781Y-56499223D01*
X30887715Y-56681613D01*
X31008028Y-56847213D01*
X31152786Y-56991971D01*
X31307749Y-57104556D01*
X31318390Y-57112287D01*
X31420008Y-57164064D01*
X31500776Y-57205218D01*
X31500778Y-57205218D01*
X31500781Y-57205220D01*
X31605137Y-57239127D01*
X31695465Y-57268477D01*
X31796557Y-57284488D01*
X31897648Y-57300500D01*
X31897649Y-57300500D01*
X32102351Y-57300500D01*
X32102352Y-57300500D01*
X32304534Y-57268477D01*
X32499219Y-57205220D01*
X32681610Y-57112287D01*
X32774590Y-57044732D01*
X32847213Y-56991971D01*
X32847215Y-56991968D01*
X32847219Y-56991966D01*
X32991966Y-56847219D01*
X32991968Y-56847215D01*
X32991971Y-56847213D01*
X33044732Y-56774590D01*
X33112287Y-56681610D01*
X33205220Y-56499219D01*
X33268477Y-56304534D01*
X33300500Y-56102352D01*
X33300500Y-55897648D01*
X33300500Y-55894707D01*
X33320185Y-55827668D01*
X33336819Y-55807026D01*
X33525327Y-55618519D01*
X33586650Y-55585034D01*
X33613008Y-55582200D01*
X59229074Y-55582200D01*
X59244983Y-55584560D01*
X59293018Y-55582200D01*
X59341123Y-55582200D01*
X59347931Y-55580845D01*
X59366036Y-55578612D01*
X59375148Y-55578164D01*
X59383689Y-55577745D01*
X59395858Y-55577745D01*
X59421845Y-55579022D01*
X59447590Y-55575202D01*
X59459688Y-55574010D01*
X59485687Y-55572734D01*
X59510927Y-55566410D01*
X59522851Y-55564038D01*
X59559215Y-55558644D01*
X59571322Y-55557452D01*
X59597319Y-55556176D01*
X59628471Y-55548372D01*
X59660229Y-55543662D01*
X59690459Y-55532845D01*
X59732047Y-55522427D01*
X59743969Y-55520056D01*
X59769707Y-55516239D01*
X59794215Y-55507469D01*
X59805841Y-55503943D01*
X59831090Y-55497619D01*
X59854621Y-55486488D01*
X59865841Y-55481840D01*
X59900479Y-55469446D01*
X59912090Y-55465924D01*
X59937345Y-55459600D01*
X59960879Y-55448468D01*
X59972105Y-55443819D01*
X59996612Y-55435051D01*
X60018929Y-55421673D01*
X60029652Y-55415941D01*
X60062897Y-55400217D01*
X60074129Y-55395566D01*
X60098631Y-55386800D01*
X60126175Y-55370290D01*
X60155202Y-55356562D01*
X60180992Y-55337434D01*
X60217764Y-55315393D01*
X60228467Y-55309672D01*
X60252000Y-55298543D01*
X60272909Y-55283034D01*
X60283003Y-55276290D01*
X60305337Y-55262905D01*
X60324624Y-55245422D01*
X60334017Y-55237714D01*
X60363552Y-55215809D01*
X60373668Y-55209052D01*
X60395977Y-55195681D01*
X60395978Y-55195679D01*
X60395985Y-55195676D01*
X60415270Y-55178195D01*
X60424651Y-55170496D01*
X60445569Y-55154984D01*
X60463060Y-55135684D01*
X60471631Y-55127113D01*
X60484748Y-55115224D01*
X60499129Y-55104002D01*
X60504896Y-55100150D01*
X60538906Y-55066139D01*
X60574549Y-55033835D01*
X60584130Y-55020915D01*
X67191750Y-48413294D01*
X67205564Y-48401379D01*
X67211135Y-48397249D01*
X67241408Y-48363846D01*
X67245586Y-48359459D01*
X67251854Y-48353191D01*
X67277450Y-48327596D01*
X67281302Y-48321829D01*
X67292524Y-48307448D01*
X67304413Y-48294331D01*
X67312984Y-48285760D01*
X67332284Y-48268269D01*
X67351413Y-48242475D01*
X67372976Y-48218685D01*
X67389483Y-48191143D01*
X67415014Y-48156717D01*
X67422722Y-48147324D01*
X67440205Y-48128037D01*
X67456716Y-48100489D01*
X67475843Y-48074700D01*
X67489569Y-48045677D01*
X67511605Y-48008913D01*
X67518357Y-47998807D01*
X67533862Y-47977902D01*
X67544992Y-47954367D01*
X67550716Y-47943658D01*
X67564100Y-47921331D01*
X67572867Y-47896824D01*
X67577513Y-47885605D01*
X67593246Y-47852340D01*
X67598976Y-47841624D01*
X67612349Y-47819315D01*
X67612348Y-47819315D01*
X67612351Y-47819312D01*
X67623170Y-47789074D01*
X67636900Y-47760045D01*
X67644700Y-47728899D01*
X67659144Y-47688531D01*
X67663790Y-47677317D01*
X67674918Y-47653791D01*
X67681241Y-47628544D01*
X67684773Y-47616905D01*
X67693537Y-47592412D01*
X67693539Y-47592407D01*
X67697356Y-47566670D01*
X67699729Y-47554740D01*
X67701329Y-47548353D01*
X67708665Y-47519064D01*
X67712193Y-47507434D01*
X67720962Y-47482930D01*
X67724778Y-47457199D01*
X67727152Y-47445264D01*
X67733476Y-47420019D01*
X67734752Y-47394019D01*
X67735945Y-47381913D01*
X67741339Y-47345545D01*
X67743708Y-47333635D01*
X67750034Y-47308387D01*
X67751609Y-47276312D01*
X67756322Y-47244545D01*
X67754746Y-47212473D01*
X67755912Y-47188736D01*
X67758146Y-47170627D01*
X67758575Y-47168472D01*
X67759500Y-47163823D01*
X67759500Y-47118769D01*
X67759649Y-47112684D01*
X67760668Y-47091936D01*
X67761860Y-47067683D01*
X67760842Y-47060819D01*
X67759500Y-47042625D01*
X67759500Y-43117026D01*
X67761860Y-43101117D01*
X67759500Y-43053082D01*
X67759500Y-43004977D01*
X67759500Y-43004972D01*
X67758147Y-42998172D01*
X67755912Y-42980060D01*
X67755045Y-42962410D01*
X67755045Y-42950240D01*
X67756322Y-42924255D01*
X67751609Y-42892487D01*
X67750034Y-42860413D01*
X67742232Y-42829269D01*
X67735945Y-42786884D01*
X67734752Y-42774773D01*
X67733476Y-42748781D01*
X67725673Y-42717630D01*
X67720962Y-42685870D01*
X67710143Y-42655633D01*
X67699727Y-42614052D01*
X67697355Y-42602122D01*
X67693539Y-42576393D01*
X67684771Y-42551889D01*
X67681241Y-42540251D01*
X67674920Y-42515016D01*
X67674919Y-42515013D01*
X67674918Y-42515009D01*
X67663793Y-42491488D01*
X67659139Y-42480253D01*
X67646752Y-42445635D01*
X67643222Y-42433998D01*
X67636900Y-42408755D01*
X67625767Y-42385216D01*
X67621122Y-42374001D01*
X67612351Y-42349488D01*
X67598974Y-42327171D01*
X67593236Y-42316436D01*
X67577523Y-42283213D01*
X67572866Y-42271969D01*
X67564103Y-42247476D01*
X67564101Y-42247473D01*
X67564100Y-42247469D01*
X67547590Y-42219924D01*
X67533862Y-42190898D01*
X67514735Y-42165108D01*
X67507828Y-42153584D01*
X67492699Y-42128343D01*
X67486962Y-42117609D01*
X67475846Y-42094106D01*
X67475843Y-42094100D01*
X67460332Y-42073185D01*
X67453590Y-42063095D01*
X67440205Y-42040763D01*
X67433981Y-42033896D01*
X67422730Y-42021482D01*
X67415012Y-42012078D01*
X67409032Y-42004015D01*
X67393106Y-41982541D01*
X67386354Y-41972435D01*
X67372976Y-41950115D01*
X67372975Y-41950114D01*
X67372974Y-41950112D01*
X67355501Y-41930834D01*
X67355499Y-41930832D01*
X67351411Y-41926322D01*
X67332284Y-41900531D01*
X67308492Y-41878967D01*
X67304403Y-41874455D01*
X67304402Y-41874454D01*
X67292526Y-41861351D01*
X67281297Y-41846962D01*
X67277449Y-41841203D01*
X67277446Y-41841199D01*
X67245594Y-41809348D01*
X67241396Y-41804939D01*
X67237898Y-41801080D01*
X67211135Y-41771551D01*
X67205555Y-41767413D01*
X67191746Y-41755500D01*
X61350243Y-35913997D01*
X61346047Y-35909590D01*
X61308577Y-35868249D01*
X61300856Y-35858841D01*
X61288083Y-35841619D01*
X61278965Y-35829323D01*
X61272206Y-35819207D01*
X61253303Y-35787667D01*
X61247568Y-35776939D01*
X61231850Y-35743706D01*
X61227194Y-35732465D01*
X61214810Y-35697856D01*
X61211277Y-35686209D01*
X61206254Y-35666155D01*
X61202345Y-35650551D01*
X61199973Y-35638623D01*
X61196948Y-35618233D01*
X61194579Y-35602259D01*
X61193386Y-35590148D01*
X61190649Y-35534423D01*
X61190500Y-35528340D01*
X61190500Y-29917000D01*
X61210185Y-29849961D01*
X61262989Y-29804206D01*
X61314500Y-29793000D01*
X61396613Y-29793000D01*
X61396616Y-29793000D01*
X61467196Y-29786586D01*
X61629606Y-29735978D01*
X61775185Y-29647972D01*
X61895472Y-29527685D01*
X61983478Y-29382106D01*
X62034086Y-29219696D01*
X62040500Y-29149116D01*
X62040500Y-26685884D01*
X62034086Y-26615304D01*
X61983478Y-26452894D01*
X61895472Y-26307315D01*
X61895470Y-26307313D01*
X61895469Y-26307311D01*
X61775188Y-26187030D01*
X61745849Y-26169294D01*
X61629606Y-26099022D01*
X61467196Y-26048414D01*
X61467194Y-26048413D01*
X61467192Y-26048413D01*
X61417778Y-26043923D01*
X61396616Y-26042000D01*
X59683384Y-26042000D01*
X59664145Y-26043748D01*
X59612807Y-26048413D01*
X59450393Y-26099022D01*
X59334150Y-26169294D01*
X59266595Y-26187130D01*
X59205850Y-26169294D01*
X59089606Y-26099022D01*
X58927196Y-26048414D01*
X58927194Y-26048413D01*
X58927192Y-26048413D01*
X58877778Y-26043923D01*
X58856616Y-26042000D01*
X58856613Y-26042000D01*
X58774500Y-26042000D01*
X58707461Y-26022315D01*
X58661706Y-25969511D01*
X58650500Y-25918000D01*
X58650500Y-21995358D01*
X58650649Y-21989275D01*
X58652068Y-21960382D01*
X58653386Y-21933546D01*
X58654579Y-21921439D01*
X58655938Y-21912277D01*
X58659974Y-21885067D01*
X58662344Y-21873151D01*
X58671279Y-21837481D01*
X58674810Y-21825842D01*
X58686309Y-21793708D01*
X58687195Y-21791229D01*
X58691850Y-21779992D01*
X58697658Y-21767713D01*
X58707571Y-21746753D01*
X58713303Y-21736031D01*
X58732206Y-21704491D01*
X58738958Y-21694384D01*
X58760867Y-21664842D01*
X58768565Y-21655463D01*
X58806067Y-21614086D01*
X58810223Y-21609721D01*
X58974503Y-21445441D01*
X59035824Y-21411958D01*
X59100497Y-21415192D01*
X59183757Y-21442246D01*
X59393713Y-21475500D01*
X59393714Y-21475500D01*
X59606286Y-21475500D01*
X59606287Y-21475500D01*
X59816243Y-21442246D01*
X60018412Y-21376557D01*
X60207816Y-21280051D01*
X60305891Y-21208796D01*
X60379786Y-21155109D01*
X60379788Y-21155106D01*
X60379792Y-21155104D01*
X60530104Y-21004792D01*
X60530106Y-21004788D01*
X60530109Y-21004786D01*
X60655048Y-20832820D01*
X60655047Y-20832820D01*
X60655051Y-20832816D01*
X60751557Y-20643412D01*
X60817246Y-20441243D01*
X60850500Y-20231287D01*
X60850500Y-19768713D01*
X60817246Y-19558757D01*
X60751557Y-19356588D01*
X60655051Y-19167184D01*
X60655049Y-19167181D01*
X60655048Y-19167179D01*
X60530109Y-18995213D01*
X60379786Y-18844890D01*
X60207820Y-18719951D01*
X60018414Y-18623444D01*
X60018413Y-18623443D01*
X60018412Y-18623443D01*
X59816243Y-18557754D01*
X59816241Y-18557753D01*
X59816240Y-18557753D01*
X59654957Y-18532208D01*
X59606287Y-18524500D01*
X59393713Y-18524500D01*
X59345042Y-18532208D01*
X59183760Y-18557753D01*
X58981585Y-18623444D01*
X58792179Y-18719951D01*
X58620213Y-18844890D01*
X58469894Y-18995209D01*
X58469890Y-18995214D01*
X58350318Y-19159793D01*
X58294989Y-19202459D01*
X58225375Y-19208438D01*
X58163580Y-19175833D01*
X58149682Y-19159793D01*
X58030109Y-18995214D01*
X58030105Y-18995209D01*
X57879786Y-18844890D01*
X57707820Y-18719951D01*
X57518414Y-18623444D01*
X57518413Y-18623443D01*
X57518412Y-18623443D01*
X57316243Y-18557754D01*
X57316241Y-18557753D01*
X57316240Y-18557753D01*
X57154957Y-18532208D01*
X57106287Y-18524500D01*
X56893713Y-18524500D01*
X56845042Y-18532208D01*
X56683760Y-18557753D01*
X56481585Y-18623444D01*
X56292179Y-18719951D01*
X56120213Y-18844890D01*
X55969890Y-18995213D01*
X55844951Y-19167179D01*
X55748444Y-19356585D01*
X55682753Y-19558760D01*
X55649500Y-19768713D01*
X55649500Y-20202415D01*
X55629815Y-20269454D01*
X55613181Y-20290096D01*
X55331996Y-20571280D01*
X55325525Y-20577750D01*
X55310124Y-20589174D01*
X55271620Y-20631655D01*
X55269458Y-20633818D01*
X55231072Y-20672205D01*
X55231064Y-20672214D01*
X55225488Y-20680559D01*
X55214273Y-20694928D01*
X55204484Y-20705729D01*
X55195880Y-20714334D01*
X55172024Y-20735956D01*
X55152841Y-20761819D01*
X55152842Y-20761820D01*
X55149211Y-20766714D01*
X55123510Y-20795073D01*
X55103838Y-20827892D01*
X55100204Y-20832792D01*
X55078315Y-20862307D01*
X55070596Y-20871713D01*
X55048973Y-20895570D01*
X55032427Y-20923176D01*
X55025669Y-20933291D01*
X55006489Y-20959151D01*
X55006484Y-20959160D01*
X54992721Y-20988258D01*
X54986988Y-20998985D01*
X54968099Y-21030500D01*
X54961341Y-21040614D01*
X54942161Y-21066477D01*
X54942159Y-21066480D01*
X54928396Y-21095579D01*
X54922662Y-21106307D01*
X54906118Y-21133909D01*
X54906113Y-21133919D01*
X54895263Y-21164241D01*
X54890611Y-21175470D01*
X54874898Y-21208694D01*
X54869167Y-21219417D01*
X54852620Y-21247025D01*
X54852619Y-21247026D01*
X54841774Y-21277336D01*
X54837120Y-21288572D01*
X54823352Y-21317684D01*
X54823349Y-21317691D01*
X54815531Y-21348903D01*
X54811998Y-21360548D01*
X54799617Y-21395148D01*
X54794965Y-21406382D01*
X54781201Y-21435487D01*
X54781198Y-21435495D01*
X54773377Y-21466710D01*
X54773378Y-21466711D01*
X54771895Y-21472628D01*
X54759003Y-21508663D01*
X54753385Y-21546524D01*
X54751906Y-21552431D01*
X54751905Y-21552441D01*
X54742976Y-21588086D01*
X54739445Y-21599726D01*
X54728600Y-21630035D01*
X54725475Y-21651098D01*
X54723874Y-21661889D01*
X54721504Y-21673807D01*
X54713681Y-21705041D01*
X54713679Y-21705057D01*
X54712099Y-21737200D01*
X54710907Y-21749305D01*
X54705517Y-21785643D01*
X54703144Y-21797575D01*
X54695319Y-21828817D01*
X54695318Y-21828820D01*
X54693738Y-21860972D01*
X54693739Y-21860973D01*
X54693440Y-21867059D01*
X54687826Y-21904909D01*
X54689702Y-21943137D01*
X54689404Y-21949221D01*
X54688688Y-21963802D01*
X54686456Y-21981904D01*
X54684500Y-21991740D01*
X54684500Y-22046025D01*
X54684351Y-22052109D01*
X54681685Y-22106359D01*
X54683158Y-22116282D01*
X54684500Y-22134479D01*
X54684500Y-25921386D01*
X54664815Y-25988425D01*
X54612011Y-26034180D01*
X54571724Y-26044877D01*
X54556126Y-26046294D01*
X54532804Y-26048414D01*
X54424530Y-26082152D01*
X54370393Y-26099022D01*
X54254150Y-26169294D01*
X54186595Y-26187130D01*
X54125850Y-26169294D01*
X54009606Y-26099022D01*
X53847196Y-26048414D01*
X53847194Y-26048413D01*
X53847192Y-26048413D01*
X53797778Y-26043923D01*
X53776616Y-26042000D01*
X52063384Y-26042000D01*
X52044145Y-26043748D01*
X51992807Y-26048413D01*
X51830393Y-26099022D01*
X51714150Y-26169294D01*
X51646595Y-26187130D01*
X51585850Y-26169294D01*
X51469606Y-26099022D01*
X51307196Y-26048414D01*
X51307194Y-26048413D01*
X51307192Y-26048413D01*
X51257778Y-26043923D01*
X51236616Y-26042000D01*
X49523384Y-26042000D01*
X49504145Y-26043748D01*
X49452807Y-26048413D01*
X49290393Y-26099022D01*
X49144811Y-26187030D01*
X49024530Y-26307311D01*
X48936522Y-26452893D01*
X48885913Y-26615307D01*
X48879500Y-26685886D01*
X48879500Y-28970500D01*
X48859815Y-29037539D01*
X48807011Y-29083294D01*
X48755500Y-29094500D01*
X44057120Y-29094500D01*
X44051037Y-29094351D01*
X44042501Y-29093931D01*
X43992227Y-29091461D01*
X43980119Y-29090268D01*
X43943784Y-29084878D01*
X43931850Y-29082504D01*
X43896207Y-29073576D01*
X43884562Y-29070044D01*
X43849962Y-29057664D01*
X43838721Y-29053007D01*
X43805506Y-29037298D01*
X43794774Y-29031562D01*
X43763265Y-29012677D01*
X43753142Y-29005913D01*
X43723621Y-28984017D01*
X43714219Y-28976301D01*
X43670623Y-28936789D01*
X43666214Y-28932591D01*
X40446241Y-25712619D01*
X40412756Y-25651296D01*
X40417740Y-25581604D01*
X40446238Y-25537260D01*
X40509464Y-25474035D01*
X40608013Y-25326547D01*
X40614167Y-25311691D01*
X40617958Y-25302535D01*
X40675894Y-25162666D01*
X40710500Y-24988691D01*
X40710500Y-24934741D01*
X40716340Y-24914851D01*
X40717334Y-24894143D01*
X40727417Y-24877127D01*
X40730185Y-24867702D01*
X40733518Y-24862778D01*
X40737736Y-24856858D01*
X40751805Y-24841337D01*
X40767716Y-24814789D01*
X40770558Y-24810802D01*
X40770794Y-24810615D01*
X40771934Y-24808909D01*
X40787443Y-24788000D01*
X40798574Y-24764463D01*
X40804300Y-24753753D01*
X40823205Y-24722213D01*
X40829957Y-24712107D01*
X40845462Y-24691202D01*
X40856592Y-24667667D01*
X40862316Y-24656958D01*
X40875700Y-24634631D01*
X40884467Y-24610124D01*
X40889113Y-24598905D01*
X40904846Y-24565640D01*
X40910576Y-24554924D01*
X40923949Y-24532615D01*
X40923948Y-24532615D01*
X40923951Y-24532612D01*
X40934770Y-24502374D01*
X40948500Y-24473345D01*
X40956300Y-24442199D01*
X40970744Y-24401831D01*
X40975390Y-24390617D01*
X40986518Y-24367091D01*
X40992841Y-24341844D01*
X40996373Y-24330205D01*
X41005137Y-24305712D01*
X41005139Y-24305707D01*
X41008956Y-24279970D01*
X41011329Y-24268040D01*
X41012402Y-24263758D01*
X41020265Y-24232364D01*
X41023793Y-24220734D01*
X41032562Y-24196230D01*
X41036378Y-24170499D01*
X41038752Y-24158564D01*
X41045076Y-24133319D01*
X41046352Y-24107319D01*
X41047545Y-24095213D01*
X41052939Y-24058845D01*
X41055308Y-24046935D01*
X41061634Y-24021687D01*
X41063209Y-23989612D01*
X41067922Y-23957845D01*
X41066346Y-23925773D01*
X41067512Y-23902036D01*
X41069746Y-23883927D01*
X41071100Y-23877123D01*
X41071100Y-23832069D01*
X41071249Y-23825984D01*
X41073460Y-23780983D01*
X41072442Y-23774119D01*
X41071100Y-23755925D01*
X41071100Y-19224983D01*
X50649500Y-19224983D01*
X50649500Y-20775001D01*
X50649501Y-20775018D01*
X50660000Y-20877796D01*
X50660001Y-20877799D01*
X50698427Y-20993758D01*
X50715186Y-21044334D01*
X50807288Y-21193656D01*
X50931344Y-21317712D01*
X51080666Y-21409814D01*
X51247203Y-21464999D01*
X51349991Y-21475500D01*
X52650008Y-21475499D01*
X52752797Y-21464999D01*
X52919334Y-21409814D01*
X53068656Y-21317712D01*
X53192712Y-21193656D01*
X53284814Y-21044334D01*
X53339999Y-20877797D01*
X53350500Y-20775009D01*
X53350499Y-19224992D01*
X53346067Y-19181610D01*
X53339999Y-19122203D01*
X53339998Y-19122200D01*
X53301759Y-19006803D01*
X53284814Y-18955666D01*
X53192712Y-18806344D01*
X53068656Y-18682288D01*
X52919334Y-18590186D01*
X52919333Y-18590185D01*
X52919332Y-18590185D01*
X52910493Y-18587256D01*
X52853049Y-18547482D01*
X52826228Y-18482965D01*
X52825500Y-18469551D01*
X52825500Y-13724500D01*
X52845185Y-13657461D01*
X52897989Y-13611706D01*
X52949500Y-13600500D01*
X52965961Y-13600500D01*
X52965962Y-13600500D01*
X53214785Y-13561090D01*
X53454379Y-13483241D01*
X53678845Y-13368870D01*
X53882656Y-13220793D01*
X54060793Y-13042656D01*
X54208870Y-12838845D01*
X54323241Y-12614379D01*
X54401090Y-12374785D01*
X54440500Y-12125962D01*
X54440500Y-11874038D01*
X54401090Y-11625215D01*
X54323241Y-11385621D01*
X54323239Y-11385618D01*
X54323239Y-11385616D01*
X54239100Y-11220485D01*
X54208870Y-11161155D01*
X54208865Y-11161148D01*
X54164426Y-11099982D01*
X61399500Y-11099982D01*
X61399500Y-12900017D01*
X61410000Y-13002796D01*
X61465185Y-13169332D01*
X61465187Y-13169337D01*
X61496926Y-13220793D01*
X61557288Y-13318656D01*
X61681344Y-13442712D01*
X61830665Y-13534814D01*
X61997202Y-13589999D01*
X62099990Y-13600500D01*
X63629192Y-13600500D01*
X63696231Y-13620185D01*
X63716873Y-13636819D01*
X64809745Y-14729690D01*
X64813941Y-14734097D01*
X64851421Y-14775449D01*
X64859140Y-14784855D01*
X64865330Y-14793201D01*
X64881030Y-14814370D01*
X64887792Y-14824491D01*
X64906695Y-14856031D01*
X64912430Y-14866759D01*
X64928148Y-14899992D01*
X64932804Y-14911232D01*
X64945187Y-14945838D01*
X64948720Y-14957486D01*
X64957652Y-14993145D01*
X64960026Y-15005080D01*
X64965419Y-15041438D01*
X64966612Y-15053545D01*
X64969351Y-15109274D01*
X64969500Y-15115361D01*
X64969500Y-25918000D01*
X64949815Y-25985039D01*
X64897011Y-26030794D01*
X64845500Y-26042000D01*
X64763384Y-26042000D01*
X64744145Y-26043748D01*
X64692807Y-26048413D01*
X64530393Y-26099022D01*
X64384811Y-26187030D01*
X64264530Y-26307311D01*
X64176522Y-26452893D01*
X64125913Y-26615307D01*
X64119500Y-26685886D01*
X64119500Y-29149113D01*
X64125913Y-29219692D01*
X64176522Y-29382106D01*
X64264530Y-29527688D01*
X64384811Y-29647969D01*
X64384813Y-29647970D01*
X64384815Y-29647972D01*
X64530394Y-29735978D01*
X64692804Y-29786586D01*
X64763384Y-29793000D01*
X64763387Y-29793000D01*
X66476613Y-29793000D01*
X66476616Y-29793000D01*
X66547196Y-29786586D01*
X66709606Y-29735978D01*
X66855185Y-29647972D01*
X66975472Y-29527685D01*
X67063478Y-29382106D01*
X67114086Y-29219696D01*
X67120500Y-29149116D01*
X67120500Y-26685884D01*
X67114086Y-26615304D01*
X67063478Y-26452894D01*
X66975472Y-26307315D01*
X66975470Y-26307313D01*
X66975469Y-26307311D01*
X66855188Y-26187030D01*
X66825849Y-26169294D01*
X66709606Y-26099022D01*
X66547196Y-26048414D01*
X66547194Y-26048413D01*
X66547192Y-26048413D01*
X66497778Y-26043923D01*
X66476616Y-26042000D01*
X66476613Y-26042000D01*
X66394500Y-26042000D01*
X66327461Y-26022315D01*
X66281706Y-25969511D01*
X66270500Y-25918000D01*
X66270500Y-15144326D01*
X66272860Y-15128417D01*
X66270500Y-15080382D01*
X66270500Y-15032277D01*
X66270500Y-15032272D01*
X66269147Y-15025472D01*
X66266912Y-15007360D01*
X66266045Y-14989710D01*
X66266045Y-14977540D01*
X66267322Y-14951555D01*
X66262609Y-14919787D01*
X66261034Y-14887713D01*
X66253232Y-14856569D01*
X66247459Y-14817648D01*
X66246945Y-14814184D01*
X66245752Y-14802073D01*
X66244476Y-14776081D01*
X66236673Y-14744930D01*
X66231962Y-14713170D01*
X66221143Y-14682933D01*
X66210727Y-14641352D01*
X66208355Y-14629422D01*
X66206285Y-14615465D01*
X66204539Y-14603693D01*
X66195771Y-14579189D01*
X66192241Y-14567551D01*
X66185920Y-14542316D01*
X66185919Y-14542313D01*
X66185918Y-14542309D01*
X66174793Y-14518788D01*
X66170139Y-14507553D01*
X66157752Y-14472935D01*
X66154222Y-14461298D01*
X66147900Y-14436055D01*
X66136767Y-14412516D01*
X66132122Y-14401301D01*
X66123351Y-14376788D01*
X66109974Y-14354471D01*
X66104236Y-14343736D01*
X66088523Y-14310513D01*
X66083866Y-14299269D01*
X66075103Y-14274776D01*
X66075101Y-14274773D01*
X66075100Y-14274769D01*
X66058590Y-14247224D01*
X66044862Y-14218198D01*
X66025735Y-14192408D01*
X66022604Y-14187184D01*
X66003699Y-14155643D01*
X65997962Y-14144909D01*
X65986846Y-14121406D01*
X65986843Y-14121400D01*
X65971332Y-14100485D01*
X65964590Y-14090395D01*
X65951205Y-14068063D01*
X65944981Y-14061196D01*
X65933730Y-14048782D01*
X65926012Y-14039378D01*
X65922310Y-14034386D01*
X65904106Y-14009841D01*
X65897354Y-13999735D01*
X65883976Y-13977415D01*
X65883975Y-13977414D01*
X65883974Y-13977412D01*
X65866501Y-13958134D01*
X65866500Y-13958133D01*
X65862411Y-13953622D01*
X65843284Y-13927831D01*
X65819490Y-13906265D01*
X65803518Y-13888643D01*
X65792299Y-13874266D01*
X65788449Y-13868504D01*
X65788446Y-13868501D01*
X65788443Y-13868497D01*
X65756603Y-13836658D01*
X65752405Y-13832249D01*
X65722137Y-13798853D01*
X65722136Y-13798852D01*
X65716555Y-13794713D01*
X65702742Y-13782797D01*
X64636819Y-12716873D01*
X64603334Y-12655550D01*
X64600500Y-12629192D01*
X64600500Y-11099995D01*
X64600499Y-11099982D01*
X64595136Y-11047490D01*
X64589999Y-10997202D01*
X64534814Y-10830665D01*
X64442712Y-10681344D01*
X64318656Y-10557288D01*
X64169335Y-10465186D01*
X64002798Y-10410001D01*
X64002796Y-10410000D01*
X63900017Y-10399500D01*
X63900010Y-10399500D01*
X62099990Y-10399500D01*
X62099982Y-10399500D01*
X61997203Y-10410000D01*
X61997202Y-10410001D01*
X61914669Y-10437349D01*
X61830667Y-10465185D01*
X61830662Y-10465187D01*
X61681342Y-10557289D01*
X61557289Y-10681342D01*
X61465187Y-10830662D01*
X61465185Y-10830667D01*
X61459492Y-10847847D01*
X61410001Y-10997202D01*
X61410001Y-10997203D01*
X61410000Y-10997203D01*
X61399500Y-11099982D01*
X54164426Y-11099982D01*
X54060798Y-10957350D01*
X54060794Y-10957345D01*
X53882654Y-10779205D01*
X53882649Y-10779201D01*
X53678848Y-10631132D01*
X53678847Y-10631131D01*
X53678845Y-10631130D01*
X53608747Y-10595413D01*
X53454383Y-10516760D01*
X53214785Y-10438910D01*
X52965962Y-10399500D01*
X52714038Y-10399500D01*
X52647738Y-10410001D01*
X52465214Y-10438910D01*
X52225616Y-10516760D01*
X52001151Y-10631132D01*
X51797350Y-10779201D01*
X51797345Y-10779205D01*
X51619205Y-10957345D01*
X51619201Y-10957350D01*
X51471132Y-11161151D01*
X51356760Y-11385616D01*
X51278910Y-11625214D01*
X51239500Y-11874038D01*
X51239500Y-12125961D01*
X51278910Y-12374786D01*
X51324194Y-12514158D01*
X51326189Y-12584000D01*
X51325566Y-12586280D01*
X51322757Y-12596190D01*
X51319853Y-12602333D01*
X51310974Y-12637777D01*
X51310450Y-12639629D01*
X51310191Y-12640039D01*
X51307898Y-12647600D01*
X51295522Y-12682188D01*
X51290866Y-12693430D01*
X51276047Y-12724760D01*
X51276045Y-12724766D01*
X51267626Y-12758377D01*
X51264095Y-12770017D01*
X51252420Y-12802647D01*
X51252417Y-12802657D01*
X51247330Y-12836948D01*
X51244957Y-12848877D01*
X51236032Y-12884508D01*
X51232501Y-12896149D01*
X51220825Y-12928784D01*
X51215737Y-12963074D01*
X51215738Y-12963075D01*
X51214846Y-12969091D01*
X51204943Y-13008629D01*
X51202944Y-13049312D01*
X51202049Y-13055350D01*
X51196658Y-13091696D01*
X51194284Y-13103630D01*
X51185864Y-13137246D01*
X51185862Y-13137256D01*
X51184161Y-13171868D01*
X51182969Y-13183971D01*
X51177885Y-13218246D01*
X51177885Y-13218250D01*
X51179585Y-13252878D01*
X51179585Y-13265042D01*
X51178930Y-13278374D01*
X51176698Y-13296471D01*
X51174500Y-13307522D01*
X51174500Y-13365518D01*
X51174351Y-13371602D01*
X51171504Y-13429534D01*
X51173158Y-13440677D01*
X51174500Y-13458874D01*
X51174500Y-18469551D01*
X51154815Y-18536590D01*
X51102011Y-18582345D01*
X51089507Y-18587256D01*
X51080667Y-18590185D01*
X50931342Y-18682289D01*
X50807289Y-18806342D01*
X50715187Y-18955663D01*
X50715185Y-18955668D01*
X50698242Y-19006799D01*
X50660001Y-19122203D01*
X50660001Y-19122204D01*
X50660000Y-19122204D01*
X50649500Y-19224983D01*
X41071100Y-19224983D01*
X41071100Y-16491578D01*
X41090785Y-16424539D01*
X41107419Y-16403897D01*
X41216379Y-16294937D01*
X41350579Y-16110228D01*
X41454231Y-15906799D01*
X41524784Y-15689660D01*
X41560500Y-15464162D01*
X41560500Y-15235837D01*
X41524784Y-15010339D01*
X41484940Y-14887713D01*
X41454231Y-14793201D01*
X41454229Y-14793198D01*
X41454229Y-14793196D01*
X41373855Y-14635454D01*
X41350579Y-14589772D01*
X41216379Y-14405063D01*
X41054937Y-14243621D01*
X40870228Y-14109421D01*
X40852720Y-14100500D01*
X40666803Y-14005770D01*
X40449660Y-13935215D01*
X40224162Y-13899500D01*
X40224157Y-13899500D01*
X39995843Y-13899500D01*
X39995837Y-13899500D01*
X39851386Y-13922378D01*
X39782093Y-13913423D01*
X39744308Y-13887586D01*
X38463619Y-12606897D01*
X38459422Y-12602489D01*
X38419899Y-12558882D01*
X38412180Y-12549477D01*
X38390286Y-12519957D01*
X38383524Y-12509836D01*
X38364633Y-12478317D01*
X38358897Y-12467586D01*
X38343190Y-12434376D01*
X38338538Y-12423146D01*
X38326148Y-12388519D01*
X38322627Y-12376912D01*
X38313692Y-12341243D01*
X38311320Y-12329314D01*
X38305930Y-12292978D01*
X38304737Y-12280866D01*
X38301849Y-12222065D01*
X38301700Y-12215982D01*
X38301700Y-9306133D01*
X38321385Y-9239094D01*
X38374189Y-9193339D01*
X38443347Y-9183395D01*
X38481996Y-9195649D01*
X38500774Y-9205217D01*
X38500777Y-9205217D01*
X38500781Y-9205220D01*
X38628139Y-9246601D01*
X38695465Y-9268477D01*
X38796557Y-9284488D01*
X38897648Y-9300500D01*
X38897649Y-9300500D01*
X39102351Y-9300500D01*
X39102352Y-9300500D01*
X39304534Y-9268477D01*
X39499219Y-9205220D01*
X39681610Y-9112287D01*
X39785705Y-9036658D01*
X39847213Y-8991971D01*
X39847215Y-8991968D01*
X39847219Y-8991966D01*
X39991966Y-8847219D01*
X39991968Y-8847215D01*
X39991971Y-8847213D01*
X40078791Y-8727713D01*
X40112287Y-8681610D01*
X40205220Y-8499219D01*
X40268477Y-8304534D01*
X40300500Y-8102352D01*
X40300500Y-7897648D01*
X47859500Y-7897648D01*
X47859500Y-8102352D01*
X47860329Y-8107586D01*
X47891522Y-8304534D01*
X47954781Y-8499223D01*
X48047715Y-8681613D01*
X48168028Y-8847213D01*
X48312786Y-8991971D01*
X48440773Y-9084957D01*
X48478390Y-9112287D01*
X48594607Y-9171503D01*
X48660776Y-9205218D01*
X48660778Y-9205218D01*
X48660781Y-9205220D01*
X48765034Y-9239094D01*
X48855465Y-9268477D01*
X48956557Y-9284488D01*
X49057648Y-9300500D01*
X49057649Y-9300500D01*
X49262351Y-9300500D01*
X49262352Y-9300500D01*
X49464534Y-9268477D01*
X49659219Y-9205220D01*
X49841610Y-9112287D01*
X49945705Y-9036658D01*
X50007213Y-8991971D01*
X50007215Y-8991968D01*
X50007219Y-8991966D01*
X50151966Y-8847219D01*
X50151968Y-8847215D01*
X50151971Y-8847213D01*
X50238791Y-8727713D01*
X50272287Y-8681610D01*
X50365220Y-8499219D01*
X50428477Y-8304534D01*
X50460500Y-8102352D01*
X50460500Y-7897648D01*
X50428477Y-7695466D01*
X50365220Y-7500781D01*
X50365218Y-7500778D01*
X50365218Y-7500776D01*
X50315067Y-7402351D01*
X50272287Y-7318390D01*
X50184564Y-7197648D01*
X50151971Y-7152786D01*
X50007213Y-7008028D01*
X49841613Y-6887715D01*
X49841612Y-6887714D01*
X49841610Y-6887713D01*
X49784653Y-6858691D01*
X49659223Y-6794781D01*
X49464534Y-6731522D01*
X49289995Y-6703878D01*
X49262352Y-6699500D01*
X49057648Y-6699500D01*
X49033329Y-6703351D01*
X48855465Y-6731522D01*
X48660776Y-6794781D01*
X48478386Y-6887715D01*
X48312786Y-7008028D01*
X48168028Y-7152786D01*
X48047715Y-7318386D01*
X47954781Y-7500776D01*
X47891522Y-7695465D01*
X47875089Y-7799223D01*
X47859500Y-7897648D01*
X40300500Y-7897648D01*
X40268477Y-7695466D01*
X40205220Y-7500781D01*
X40205218Y-7500778D01*
X40205218Y-7500776D01*
X40155067Y-7402351D01*
X40112287Y-7318390D01*
X40024564Y-7197648D01*
X39991971Y-7152786D01*
X39847213Y-7008028D01*
X39681613Y-6887715D01*
X39681612Y-6887714D01*
X39681610Y-6887713D01*
X39624653Y-6858691D01*
X39499223Y-6794781D01*
X39304534Y-6731522D01*
X39129995Y-6703878D01*
X39102352Y-6699500D01*
X38897648Y-6699500D01*
X38873329Y-6703351D01*
X38695465Y-6731522D01*
X38545976Y-6780095D01*
X38500781Y-6794780D01*
X38500778Y-6794781D01*
X38500773Y-6794783D01*
X38481992Y-6804352D01*
X38413322Y-6817247D01*
X38348583Y-6790969D01*
X38308327Y-6733861D01*
X38301700Y-6693866D01*
X38301700Y-5266130D01*
X38304514Y-5247161D01*
X38301700Y-5189876D01*
X38301700Y-5132542D01*
X38299743Y-5122707D01*
X38297510Y-5104595D01*
X38296795Y-5090015D01*
X38296795Y-5077857D01*
X38298374Y-5045708D01*
X38293652Y-5013879D01*
X38292459Y-5001766D01*
X38290880Y-4969613D01*
X38283051Y-4938360D01*
X38280682Y-4926445D01*
X38275291Y-4890100D01*
X38274098Y-4877990D01*
X38272519Y-4845847D01*
X38272519Y-4845844D01*
X38264694Y-4814607D01*
X38262323Y-4802683D01*
X38261355Y-4796157D01*
X38257599Y-4770835D01*
X38246752Y-4740522D01*
X38243225Y-4728895D01*
X38234291Y-4693230D01*
X38231919Y-4681301D01*
X38227197Y-4649465D01*
X38227197Y-4649462D01*
X38216344Y-4619133D01*
X38212822Y-4607520D01*
X38205000Y-4576289D01*
X38201002Y-4567837D01*
X38689500Y-4567837D01*
X38689500Y-4796162D01*
X38725215Y-5021660D01*
X38795770Y-5238803D01*
X38880693Y-5405472D01*
X38899421Y-5442228D01*
X39033621Y-5626937D01*
X39195063Y-5788379D01*
X39379772Y-5922579D01*
X39461743Y-5964345D01*
X39583196Y-6026229D01*
X39583198Y-6026229D01*
X39583201Y-6026231D01*
X39688670Y-6060500D01*
X39800339Y-6096784D01*
X40025838Y-6132500D01*
X40025843Y-6132500D01*
X40254162Y-6132500D01*
X40479660Y-6096784D01*
X40485828Y-6094780D01*
X40696799Y-6026231D01*
X40900228Y-5922579D01*
X41084937Y-5788379D01*
X41246379Y-5626937D01*
X41380579Y-5442228D01*
X41484231Y-5238799D01*
X41554784Y-5021660D01*
X41563027Y-4969615D01*
X41590500Y-4796162D01*
X41590500Y-4567837D01*
X41554784Y-4342339D01*
X41509326Y-4202436D01*
X41484231Y-4125201D01*
X41484229Y-4125198D01*
X41484229Y-4125196D01*
X41422023Y-4003110D01*
X41380579Y-3921772D01*
X41246379Y-3737063D01*
X41084937Y-3575621D01*
X40900228Y-3441421D01*
X40696803Y-3337770D01*
X40479660Y-3267215D01*
X40254162Y-3231500D01*
X40254157Y-3231500D01*
X40025843Y-3231500D01*
X40025838Y-3231500D01*
X39800339Y-3267215D01*
X39583196Y-3337770D01*
X39379771Y-3441421D01*
X39195061Y-3575622D01*
X39033622Y-3737061D01*
X38899421Y-3921771D01*
X38795770Y-4125196D01*
X38725215Y-4342339D01*
X38689500Y-4567837D01*
X38201002Y-4567837D01*
X38191229Y-4547174D01*
X38186587Y-4535969D01*
X38174192Y-4501326D01*
X38170670Y-4489716D01*
X38162848Y-4458485D01*
X38149082Y-4429378D01*
X38144431Y-4418150D01*
X38133580Y-4387824D01*
X38133577Y-4387819D01*
X38133576Y-4387816D01*
X38117030Y-4360211D01*
X38111296Y-4349486D01*
X38095582Y-4316260D01*
X38090933Y-4305034D01*
X38080085Y-4274716D01*
X38063536Y-4247106D01*
X38060405Y-4241882D01*
X38044040Y-4207280D01*
X38021233Y-4176528D01*
X37999204Y-4139775D01*
X37993474Y-4129053D01*
X37979712Y-4099956D01*
X37979708Y-4099950D01*
X37960531Y-4074092D01*
X37960531Y-4074091D01*
X37956903Y-4069199D01*
X37937225Y-4036369D01*
X37911512Y-4007999D01*
X37885997Y-3973596D01*
X37879236Y-3963476D01*
X37862694Y-3935877D01*
X37862692Y-3935875D01*
X37862691Y-3935873D01*
X37841067Y-3912014D01*
X37833349Y-3902610D01*
X37814173Y-3876754D01*
X37814170Y-3876751D01*
X37814167Y-3876748D01*
X37790314Y-3855128D01*
X37781713Y-3846528D01*
X37771928Y-3835732D01*
X37760707Y-3821353D01*
X37755132Y-3813009D01*
X37716729Y-3774606D01*
X37714574Y-3772451D01*
X37676076Y-3729975D01*
X37660676Y-3718554D01*
X37178119Y-3235996D01*
X37166204Y-3222184D01*
X37160225Y-3214123D01*
X37119987Y-3177654D01*
X37117733Y-3175611D01*
X37077191Y-3135069D01*
X37061246Y-3124415D01*
X37043659Y-3108475D01*
X37035070Y-3099886D01*
X37013446Y-3076027D01*
X36987581Y-3056844D01*
X36982687Y-3053214D01*
X36954327Y-3027510D01*
X36921500Y-3007834D01*
X36887087Y-2982311D01*
X36877684Y-2974594D01*
X36853833Y-2952977D01*
X36853828Y-2952973D01*
X36826223Y-2936427D01*
X36816107Y-2929668D01*
X36790250Y-2910491D01*
X36790242Y-2910487D01*
X36761143Y-2896724D01*
X36750417Y-2890991D01*
X36718900Y-2872100D01*
X36718899Y-2872099D01*
X36708787Y-2865343D01*
X36694915Y-2855056D01*
X36682920Y-2846160D01*
X36682918Y-2846159D01*
X36682917Y-2846158D01*
X36653822Y-2832398D01*
X36648315Y-2829793D01*
X36615484Y-2810115D01*
X36579435Y-2797216D01*
X36540713Y-2778902D01*
X36529982Y-2773167D01*
X36502378Y-2756622D01*
X36502375Y-2756620D01*
X36472063Y-2745774D01*
X36460823Y-2741118D01*
X36431720Y-2727353D01*
X36431716Y-2727352D01*
X36418173Y-2723959D01*
X36400497Y-2719532D01*
X36388852Y-2715999D01*
X36354256Y-2703620D01*
X36343016Y-2698965D01*
X36313911Y-2685200D01*
X36282681Y-2677377D01*
X36282681Y-2677376D01*
X36276769Y-2675895D01*
X36240737Y-2663003D01*
X36202870Y-2657384D01*
X36196958Y-2655904D01*
X36196956Y-2655903D01*
X36161319Y-2646977D01*
X36149674Y-2643445D01*
X36119367Y-2632601D01*
X36105547Y-2630551D01*
X36087513Y-2627875D01*
X36075594Y-2625504D01*
X36044358Y-2617681D01*
X36044345Y-2617679D01*
X36012198Y-2616099D01*
X36000096Y-2614907D01*
X35963760Y-2609518D01*
X35951823Y-2607144D01*
X35939841Y-2604142D01*
X35920580Y-2599318D01*
X35920582Y-2599318D01*
X35888427Y-2597738D01*
X35888427Y-2597739D01*
X35882338Y-2597439D01*
X35844491Y-2591826D01*
X35806260Y-2593702D01*
X35800175Y-2593404D01*
X35800174Y-2593403D01*
X35785595Y-2592688D01*
X35767485Y-2590454D01*
X35757662Y-2588500D01*
X35757658Y-2588500D01*
X35703375Y-2588500D01*
X35697291Y-2588351D01*
X35643040Y-2585685D01*
X35643038Y-2585686D01*
X35633116Y-2587158D01*
X35614920Y-2588500D01*
X27946330Y-2588500D01*
X27927361Y-2585686D01*
X27870076Y-2588500D01*
X27812741Y-2588500D01*
X27802904Y-2590456D01*
X27784802Y-2592688D01*
X27770221Y-2593404D01*
X27758062Y-2593404D01*
X27732683Y-2592158D01*
X27725909Y-2591826D01*
X27725908Y-2591826D01*
X27725906Y-2591826D01*
X27725901Y-2591826D01*
X27694081Y-2596546D01*
X27681977Y-2597738D01*
X27649824Y-2599318D01*
X27649808Y-2599320D01*
X27618574Y-2607143D01*
X27606645Y-2609516D01*
X27570300Y-2614907D01*
X27558196Y-2616099D01*
X27526057Y-2617679D01*
X27526041Y-2617681D01*
X27494810Y-2625502D01*
X27494811Y-2625503D01*
X27488902Y-2626982D01*
X27451035Y-2632601D01*
X27415009Y-2645490D01*
X27409102Y-2646970D01*
X27409088Y-2646975D01*
X27373443Y-2655904D01*
X27361511Y-2658277D01*
X27329668Y-2663001D01*
X27329661Y-2663003D01*
X27299355Y-2673846D01*
X27287718Y-2677376D01*
X27256492Y-2685198D01*
X27256479Y-2685203D01*
X27227375Y-2698967D01*
X27216142Y-2703620D01*
X27216140Y-2703621D01*
X27181553Y-2715997D01*
X27169910Y-2719529D01*
X27138689Y-2727350D01*
X27109579Y-2741117D01*
X27098345Y-2745770D01*
X27068024Y-2756619D01*
X27068022Y-2756621D01*
X27040416Y-2773167D01*
X27029684Y-2778903D01*
X26996473Y-2794610D01*
X26985235Y-2799265D01*
X26954920Y-2810112D01*
X26954918Y-2810113D01*
X26927305Y-2826662D01*
X26927306Y-2826663D01*
X26922082Y-2829794D01*
X26887480Y-2846160D01*
X26856731Y-2868963D01*
X26851500Y-2872099D01*
X26851498Y-2872099D01*
X26819980Y-2890991D01*
X26809253Y-2896725D01*
X26780157Y-2910487D01*
X26780141Y-2910497D01*
X26754298Y-2929663D01*
X26744191Y-2936417D01*
X26716565Y-2952977D01*
X26692713Y-2974595D01*
X26683310Y-2982312D01*
X26683309Y-2982313D01*
X26653795Y-3004202D01*
X26643680Y-3010960D01*
X26616076Y-3027506D01*
X26592215Y-3049132D01*
X26582814Y-3056846D01*
X26556954Y-3076026D01*
X26535334Y-3099880D01*
X26526733Y-3108480D01*
X26515934Y-3118268D01*
X26501557Y-3129489D01*
X26493215Y-3135063D01*
X26493203Y-3135073D01*
X26454805Y-3173470D01*
X26454806Y-3173471D01*
X26452651Y-3175626D01*
X26410175Y-3214124D01*
X26398753Y-3229522D01*
X26392288Y-3235988D01*
X26392285Y-3235989D01*
X24300689Y-5327586D01*
X24239366Y-5361071D01*
X24193610Y-5362378D01*
X24049161Y-5339500D01*
X24049157Y-5339500D01*
X23820843Y-5339500D01*
X23820838Y-5339500D01*
X23595339Y-5375215D01*
X23378196Y-5445770D01*
X23174771Y-5549421D01*
X22990061Y-5683622D01*
X22828622Y-5845061D01*
X22694421Y-6029771D01*
X22590770Y-6233196D01*
X22520215Y-6450339D01*
X22484500Y-6675837D01*
X22484500Y-6904162D01*
X22520215Y-7129660D01*
X22590770Y-7346803D01*
X22694421Y-7550228D01*
X22828621Y-7734937D01*
X22990063Y-7896379D01*
X23174772Y-8030579D01*
X23270884Y-8079550D01*
X23378196Y-8134229D01*
X23378198Y-8134229D01*
X23378201Y-8134231D01*
X23494592Y-8172049D01*
X23595339Y-8204784D01*
X23820838Y-8240500D01*
X23820843Y-8240500D01*
X24049162Y-8240500D01*
X24274660Y-8204784D01*
X24491799Y-8134231D01*
X24695228Y-8030579D01*
X24879937Y-7896379D01*
X25041379Y-7734937D01*
X25175579Y-7550228D01*
X25279231Y-7346799D01*
X25327693Y-7197648D01*
X26699500Y-7197648D01*
X26699500Y-7402351D01*
X26731522Y-7604534D01*
X26794781Y-7799223D01*
X26887715Y-7981613D01*
X27008028Y-8147213D01*
X27152786Y-8291971D01*
X27307749Y-8404556D01*
X27318390Y-8412287D01*
X27434607Y-8471503D01*
X27500776Y-8505218D01*
X27500778Y-8505218D01*
X27500781Y-8505220D01*
X27521008Y-8511792D01*
X27695465Y-8568477D01*
X27714697Y-8571523D01*
X27897648Y-8600500D01*
X27897649Y-8600500D01*
X28102351Y-8600500D01*
X28102352Y-8600500D01*
X28304534Y-8568477D01*
X28499219Y-8505220D01*
X28681610Y-8412287D01*
X28774590Y-8344732D01*
X28847213Y-8291971D01*
X28847215Y-8291968D01*
X28847219Y-8291966D01*
X28991966Y-8147219D01*
X28991968Y-8147215D01*
X28991971Y-8147213D01*
X29076710Y-8030578D01*
X29112287Y-7981610D01*
X29205220Y-7799219D01*
X29268477Y-7604534D01*
X29300500Y-7402352D01*
X29300500Y-7197648D01*
X29268477Y-6995466D01*
X29205220Y-6800781D01*
X29205218Y-6800778D01*
X29205218Y-6800776D01*
X29171503Y-6734607D01*
X29112287Y-6618390D01*
X29049078Y-6531389D01*
X28991971Y-6452786D01*
X28847213Y-6308028D01*
X28681613Y-6187715D01*
X28681612Y-6187714D01*
X28681610Y-6187713D01*
X28573249Y-6132500D01*
X28499223Y-6094781D01*
X28304534Y-6031522D01*
X28129995Y-6003878D01*
X28102352Y-5999500D01*
X27897648Y-5999500D01*
X27873329Y-6003351D01*
X27695465Y-6031522D01*
X27500776Y-6094781D01*
X27318386Y-6187715D01*
X27152786Y-6308028D01*
X27008028Y-6452786D01*
X26887715Y-6618386D01*
X26794781Y-6800776D01*
X26731522Y-6995465D01*
X26699500Y-7197648D01*
X25327693Y-7197648D01*
X25349784Y-7129660D01*
X25369049Y-7008028D01*
X25385500Y-6904162D01*
X25385500Y-6675838D01*
X25374088Y-6603794D01*
X25362620Y-6531386D01*
X25371574Y-6462095D01*
X25397409Y-6424312D01*
X27520334Y-4301387D01*
X27524700Y-4297230D01*
X27568322Y-4257694D01*
X27577721Y-4249981D01*
X27581597Y-4247106D01*
X27607252Y-4228077D01*
X27617350Y-4221330D01*
X27648886Y-4202429D01*
X27659600Y-4196703D01*
X27692821Y-4180990D01*
X27704053Y-4176337D01*
X27738673Y-4163950D01*
X27750300Y-4160423D01*
X27785950Y-4151494D01*
X27797881Y-4149120D01*
X27834225Y-4143729D01*
X27846326Y-4142537D01*
X27905134Y-4139648D01*
X27911217Y-4139500D01*
X34283515Y-4139500D01*
X34350554Y-4159185D01*
X34396309Y-4211989D01*
X34406253Y-4281147D01*
X34401446Y-4301818D01*
X34351523Y-4455461D01*
X34351523Y-4455464D01*
X34319500Y-4657648D01*
X34319500Y-4862351D01*
X34351522Y-5064534D01*
X34414781Y-5259223D01*
X34507715Y-5441613D01*
X34628028Y-5607213D01*
X34772786Y-5751971D01*
X34900916Y-5845061D01*
X34938390Y-5872287D01*
X35054607Y-5931503D01*
X35120776Y-5965218D01*
X35120778Y-5965218D01*
X35120781Y-5965220D01*
X35225137Y-5999127D01*
X35315465Y-6028477D01*
X35416557Y-6044488D01*
X35517648Y-6060500D01*
X35517649Y-6060500D01*
X35722351Y-6060500D01*
X35722352Y-6060500D01*
X35924534Y-6028477D01*
X36119219Y-5965220D01*
X36301610Y-5872287D01*
X36394590Y-5804732D01*
X36467213Y-5751971D01*
X36467215Y-5751968D01*
X36467219Y-5751966D01*
X36539019Y-5680166D01*
X36600342Y-5646681D01*
X36670034Y-5651665D01*
X36725967Y-5693537D01*
X36750384Y-5759001D01*
X36750700Y-5767847D01*
X36750700Y-8832153D01*
X36731015Y-8899192D01*
X36678211Y-8944947D01*
X36609053Y-8954891D01*
X36545497Y-8925866D01*
X36539019Y-8919834D01*
X36467213Y-8848028D01*
X36301613Y-8727715D01*
X36301612Y-8727714D01*
X36301610Y-8727713D01*
X36211128Y-8681610D01*
X36119223Y-8634781D01*
X35924534Y-8571522D01*
X35749995Y-8543878D01*
X35722352Y-8539500D01*
X35517648Y-8539500D01*
X35493329Y-8543351D01*
X35315465Y-8571522D01*
X35120776Y-8634781D01*
X34938386Y-8727715D01*
X34772786Y-8848028D01*
X34772782Y-8848032D01*
X34642634Y-8978181D01*
X34581311Y-9011666D01*
X34554953Y-9014500D01*
X31149726Y-9014500D01*
X31129537Y-9011505D01*
X31068572Y-9014500D01*
X31007528Y-9014500D01*
X30996474Y-9016698D01*
X30978375Y-9018930D01*
X30965043Y-9019585D01*
X30952879Y-9019585D01*
X30930200Y-9018471D01*
X30918254Y-9017885D01*
X30918253Y-9017885D01*
X30918250Y-9017885D01*
X30918245Y-9017885D01*
X30883973Y-9022968D01*
X30883974Y-9022969D01*
X30877940Y-9023864D01*
X30837249Y-9025864D01*
X30797731Y-9035762D01*
X30791696Y-9036658D01*
X30755355Y-9042049D01*
X30743245Y-9043242D01*
X30712711Y-9044742D01*
X30708629Y-9044943D01*
X30674999Y-9053366D01*
X30663078Y-9055737D01*
X30628784Y-9060825D01*
X30596149Y-9072501D01*
X30584508Y-9076032D01*
X30548877Y-9084957D01*
X30536948Y-9087330D01*
X30502657Y-9092417D01*
X30502647Y-9092420D01*
X30470019Y-9104093D01*
X30470020Y-9104094D01*
X30464273Y-9106150D01*
X30424760Y-9116048D01*
X30387935Y-9133463D01*
X30382202Y-9135515D01*
X30382189Y-9135521D01*
X30347594Y-9147900D01*
X30335951Y-9151432D01*
X30302335Y-9159852D01*
X30302329Y-9159854D01*
X30270989Y-9174676D01*
X30270988Y-9174675D01*
X30265470Y-9177284D01*
X30227121Y-9191007D01*
X30192186Y-9211945D01*
X30186671Y-9214554D01*
X30186662Y-9214560D01*
X30153446Y-9230269D01*
X30142211Y-9234923D01*
X30109573Y-9246602D01*
X30109570Y-9246603D01*
X30079855Y-9264414D01*
X30069129Y-9270148D01*
X30037785Y-9284973D01*
X30009942Y-9305622D01*
X29999829Y-9312379D01*
X29968320Y-9331265D01*
X29957594Y-9336999D01*
X29926260Y-9351820D01*
X29926252Y-9351825D01*
X29898411Y-9372473D01*
X29898410Y-9372472D01*
X29893510Y-9376105D01*
X29858570Y-9397049D01*
X29828389Y-9424402D01*
X29823492Y-9428034D01*
X29823486Y-9428040D01*
X29793978Y-9449925D01*
X29783864Y-9456683D01*
X29754135Y-9474503D01*
X29754126Y-9474510D01*
X29728450Y-9497778D01*
X29728451Y-9497779D01*
X29723927Y-9501878D01*
X29691207Y-9526147D01*
X29663855Y-9556323D01*
X29659344Y-9560413D01*
X29659336Y-9560422D01*
X29649435Y-9569396D01*
X29635053Y-9580620D01*
X29625691Y-9586875D01*
X29625685Y-9586880D01*
X29584683Y-9627882D01*
X29580278Y-9632077D01*
X29537299Y-9671032D01*
X29530585Y-9680084D01*
X29518672Y-9693893D01*
X28169385Y-11043181D01*
X28108062Y-11076666D01*
X28081704Y-11079500D01*
X27897648Y-11079500D01*
X27873329Y-11083351D01*
X27695465Y-11111522D01*
X27500776Y-11174781D01*
X27318386Y-11267715D01*
X27152786Y-11388028D01*
X27008028Y-11532786D01*
X26887715Y-11698386D01*
X26794781Y-11880776D01*
X26731522Y-12075465D01*
X26699500Y-12277648D01*
X26699500Y-12461703D01*
X26679815Y-12528742D01*
X26663181Y-12549384D01*
X19270321Y-19942243D01*
X19253930Y-19954401D01*
X19212944Y-19999620D01*
X19169780Y-20042785D01*
X19169771Y-20042796D01*
X19163515Y-20052159D01*
X19152294Y-20066537D01*
X19143333Y-20076424D01*
X19134733Y-20085025D01*
X19109044Y-20108309D01*
X19109039Y-20108315D01*
X19088398Y-20136143D01*
X19088399Y-20136144D01*
X19084761Y-20141048D01*
X19057405Y-20171233D01*
X19036464Y-20206169D01*
X19032829Y-20211071D01*
X19032825Y-20211078D01*
X19010940Y-20240586D01*
X19003224Y-20249988D01*
X18979949Y-20275669D01*
X18962130Y-20305398D01*
X18955373Y-20315511D01*
X18934725Y-20343352D01*
X18934721Y-20343359D01*
X18919904Y-20374685D01*
X18914168Y-20385415D01*
X18895274Y-20416936D01*
X18888518Y-20427047D01*
X18867872Y-20454887D01*
X18853054Y-20486216D01*
X18847321Y-20496942D01*
X18829502Y-20526672D01*
X18817817Y-20559324D01*
X18813164Y-20570555D01*
X18797461Y-20603759D01*
X18791725Y-20614492D01*
X18773907Y-20644220D01*
X18773902Y-20644231D01*
X18762229Y-20676854D01*
X18757576Y-20688089D01*
X18742754Y-20719429D01*
X18742752Y-20719435D01*
X18734331Y-20753055D01*
X18730798Y-20764700D01*
X18718422Y-20799288D01*
X18713766Y-20810530D01*
X18698947Y-20841860D01*
X18698945Y-20841866D01*
X18690526Y-20875477D01*
X18686995Y-20887117D01*
X18675320Y-20919747D01*
X18675317Y-20919757D01*
X18670230Y-20954048D01*
X18667857Y-20965977D01*
X18658932Y-21001608D01*
X18655401Y-21013249D01*
X18643725Y-21045884D01*
X18638637Y-21080174D01*
X18638638Y-21080175D01*
X18637746Y-21086191D01*
X18627843Y-21125729D01*
X18625844Y-21166412D01*
X18624949Y-21172450D01*
X18619558Y-21208796D01*
X18617184Y-21220730D01*
X18608764Y-21254346D01*
X18608762Y-21254356D01*
X18607061Y-21288968D01*
X18605869Y-21301071D01*
X18600785Y-21335346D01*
X18600785Y-21335350D01*
X18602485Y-21369978D01*
X18602485Y-21382142D01*
X18601830Y-21395474D01*
X18599598Y-21413571D01*
X18597400Y-21424622D01*
X18597400Y-21482618D01*
X18597251Y-21488702D01*
X18594404Y-21546634D01*
X18596058Y-21557777D01*
X18597400Y-21575974D01*
X18597400Y-46055500D01*
X18577715Y-46122539D01*
X18524911Y-46168294D01*
X18473400Y-46179500D01*
X18335838Y-46179500D01*
X18110339Y-46215215D01*
X17893196Y-46285770D01*
X17689771Y-46389421D01*
X17505061Y-46523622D01*
X17343622Y-46685061D01*
X17209421Y-46869771D01*
X17105770Y-47073196D01*
X17035215Y-47290339D01*
X16999500Y-47515837D01*
X-1709776Y-47515837D01*
X-2104597Y-46214287D01*
X-2106697Y-46206449D01*
X-2107616Y-46202509D01*
X-2415897Y-44880363D01*
X-2691057Y-43700266D01*
X-2692640Y-43692308D01*
X-3111838Y-41153261D01*
X-3112897Y-41145216D01*
X-3365135Y-38584197D01*
X-3365666Y-38576100D01*
X-3449867Y-36004056D01*
X-3449867Y-35995942D01*
X-3365666Y-33423898D01*
X-3365135Y-33415801D01*
X-3112897Y-30854782D01*
X-3111838Y-30846737D01*
X-3075535Y-30626856D01*
X-2796505Y-28936789D01*
X-2692640Y-28307690D01*
X-2691057Y-28299732D01*
X-2106695Y-25793544D01*
X-2104595Y-25785706D01*
X-1357568Y-23323089D01*
X-1354959Y-23315405D01*
X-448478Y-20906941D01*
X-445373Y-20899444D01*
X-193415Y-20343359D01*
X616710Y-18555373D01*
X620270Y-18548155D01*
X1833389Y-16278569D01*
X1837440Y-16271553D01*
X1849282Y-16252511D01*
X3196381Y-14086197D01*
X3200886Y-14079456D01*
X3209053Y-14068060D01*
X4699848Y-11987655D01*
X4704785Y-11981223D01*
X4787220Y-11880776D01*
X6337359Y-9991925D01*
X6342683Y-9985855D01*
X8101889Y-8107570D01*
X8107570Y-8101889D01*
X9985855Y-6342683D01*
X9991925Y-6337359D01*
X11981228Y-4704780D01*
X11987661Y-4699845D01*
X12046547Y-4657648D01*
X14079462Y-3200881D01*
X14086203Y-3196378D01*
X14116314Y-3177654D01*
X16271562Y-1837433D01*
X16278568Y-1833389D01*
X18548155Y-620270D01*
X18555373Y-616710D01*
X20460301Y246400D01*
X20899444Y445373D01*
X20906941Y448478D01*
X23315405Y1354959D01*
X23323089Y1357568D01*
X25785706Y2104595D01*
X25793544Y2106695D01*
X28299732Y2691057D01*
X28307690Y2692640D01*
X30846737Y3111838D01*
X30854782Y3112897D01*
X33415801Y3365135D01*
X33423898Y3365666D01*
X35995942Y3449867D01*
X36004056Y3449867D01*
X38576100Y3365666D01*
G37*
%TD.AperFunction*%
%TD*%
M02*
