%TF.GenerationSoftware,KiCad,Pcbnew,10.0.4*%
%TF.CreationDate,2026-09-24T02:07:23-03:00*%
%TF.ProjectId,segno_pedal_ring,7365676e-6f5f-4706-9564-616c5f72696e,rev?*%
%TF.SameCoordinates,Original*%
%TF.FileFunction,Copper,L2,Bot*%
%TF.FilePolarity,Positive*%
%FSLAX46Y46*%
G04 Gerber Fmt 4.6, Leading zero omitted, Abs format (unit mm)*
G04 Created by KiCad (PCBNEW 10.0.4) date 2026-09-24 02:07:23*
%MOMM*%
%LPD*%
G01*
G04 APERTURE LIST*
G04 Aperture macros list*
%AMRoundRect*
0 Rectangle with rounded corners*
0 $1 Rounding radius*
0 $2 $3 $4 $5 $6 $7 $8 $9 X,Y pos of 4 corners*
0 Add a 4 corners polygon primitive as box body*
4,1,4,$2,$3,$4,$5,$6,$7,$8,$9,$2,$3,0*
0 Add four circle primitives for the rounded corners*
1,1,$1+$1,$2,$3*
1,1,$1+$1,$4,$5*
1,1,$1+$1,$6,$7*
1,1,$1+$1,$8,$9*
0 Add four rect primitives between the rounded corners*
20,1,$1+$1,$2,$3,$4,$5,0*
20,1,$1+$1,$4,$5,$6,$7,0*
20,1,$1+$1,$6,$7,$8,$9,0*
20,1,$1+$1,$8,$9,$2,$3,0*%
G04 Aperture macros list end*
%TA.AperFunction,ComponentPad*%
%ADD10C,1.900000*%
%TD*%
%TA.AperFunction,ComponentPad*%
%ADD11O,2.300000X4.000000*%
%TD*%
%TA.AperFunction,ComponentPad*%
%ADD12C,1.800000*%
%TD*%
%TA.AperFunction,ComponentPad*%
%ADD13C,1.600000*%
%TD*%
%TA.AperFunction,ComponentPad*%
%ADD14RoundRect,0.250000X-0.550000X-0.550000X0.550000X-0.550000X0.550000X0.550000X-0.550000X0.550000X0*%
%TD*%
%TA.AperFunction,SMDPad,CuDef*%
%ADD15RoundRect,0.200000X-0.800000X1.175000X-0.800000X-1.175000X0.800000X-1.175000X0.800000X1.175000X0*%
%TD*%
%TA.AperFunction,SMDPad,CuDef*%
%ADD16RoundRect,0.200000X0.800000X-1.175000X0.800000X1.175000X-0.800000X1.175000X-0.800000X-1.175000X0*%
%TD*%
%TA.AperFunction,ComponentPad*%
%ADD17RoundRect,0.250000X-0.600000X-0.725000X0.600000X-0.725000X0.600000X0.725000X-0.600000X0.725000X0*%
%TD*%
%TA.AperFunction,ComponentPad*%
%ADD18O,1.700000X1.950000*%
%TD*%
%TA.AperFunction,ComponentPad*%
%ADD19RoundRect,0.249999X0.850001X0.850001X-0.850001X0.850001X-0.850001X-0.850001X0.850001X-0.850001X0*%
%TD*%
%TA.AperFunction,ComponentPad*%
%ADD20C,2.200000*%
%TD*%
%TA.AperFunction,ViaPad*%
%ADD21C,0.800000*%
%TD*%
%TA.AperFunction,Conductor*%
%ADD22C,0.650000*%
%TD*%
%TA.AperFunction,Conductor*%
%ADD23C,0.550000*%
%TD*%
%TA.AperFunction,Conductor*%
%ADD24C,0.300000*%
%TD*%
G04 APERTURE END LIST*
D10*
%TO.P,J3,1*%
%TO.N,RING_DATA*%
X40140000Y-4682000D03*
%TO.P,J3,2*%
%TO.N,+5V_LED*%
X31860000Y-67318000D03*
%TO.P,J3,3*%
%TO.N,GND*%
X48090000Y-65185000D03*
%TO.P,J3,4*%
%TO.N,RING_DOUT*%
X23935000Y-6790000D03*
%TD*%
%TO.P,J4,1*%
%TO.N,RING_DATA*%
X24370000Y-18450000D03*
%TO.P,J4,2*%
%TO.N,+5V_LED*%
X18450000Y-47630000D03*
%TO.P,J4,3*%
%TO.N,GND*%
X47680000Y-53530000D03*
%TO.P,J4,4*%
%TO.N,RING_DOUT*%
X40110000Y-15350000D03*
%TD*%
D11*
%TO.P,ENC1,6*%
%TO.N,N/C*%
X41482500Y-35767500D03*
%TO.P,ENC1,7*%
X30482500Y-35767500D03*
D12*
%TO.P,ENC1,A*%
%TO.N,ENC_A*%
X33442500Y-43267500D03*
%TO.P,ENC1,B*%
%TO.N,ENC_B*%
X38522500Y-43267500D03*
%TO.P,ENC1,C*%
%TO.N,GND*%
X35982500Y-43267500D03*
%TO.P,ENC1,S1*%
%TO.N,ENC_SW*%
X33442500Y-28767500D03*
%TO.P,ENC1,S2*%
%TO.N,GND*%
X38522500Y-28767500D03*
%TD*%
D13*
%TO.P,C2,1*%
%TO.N,ENC_A*%
X58000000Y-53500000D03*
%TO.P,C2,2*%
%TO.N,GND*%
X63000000Y-53500000D03*
%TD*%
%TO.P,R2,1*%
%TO.N,+3V3*%
X32000000Y-48000000D03*
%TO.P,R2,2*%
%TO.N,ENC_A*%
X21840000Y-48000000D03*
%TD*%
D14*
%TO.P,U2,1*%
%TO.N,GND*%
X28000000Y-20000000D03*
D13*
%TO.P,U2,2*%
%TO.N,RING_DATA_3V3*%
X28000000Y-17460000D03*
%TO.P,U2,3*%
%TO.N,RING_DATA_5V*%
X28000000Y-14920000D03*
%TO.P,U2,4*%
%TO.N,+5V_LED*%
X28000000Y-12380000D03*
%TO.P,U2,5*%
%TO.N,GND*%
X28000000Y-9840000D03*
%TO.P,U2,6*%
%TO.N,N/C*%
X28000000Y-7300000D03*
%TO.P,U2,7*%
%TO.N,GND*%
X28000000Y-4760000D03*
%TO.P,U2,8*%
%TO.N,N/C*%
X35620000Y-4760000D03*
%TO.P,U2,9*%
%TO.N,GND*%
X35620000Y-7300000D03*
%TO.P,U2,10*%
%TO.N,+5V_LED*%
X35620000Y-9840000D03*
%TO.P,U2,11*%
%TO.N,N/C*%
X35620000Y-12380000D03*
%TO.P,U2,12*%
%TO.N,GND*%
X35620000Y-14920000D03*
%TO.P,U2,13*%
%TO.N,+5V_LED*%
X35620000Y-17460000D03*
%TO.P,U2,14*%
X35620000Y-20000000D03*
%TD*%
%TO.P,C3,1*%
%TO.N,ENC_B*%
X63000000Y-49000000D03*
%TO.P,C3,2*%
%TO.N,GND*%
X68000000Y-49000000D03*
%TD*%
%TO.P,R4,1*%
%TO.N,+3V3*%
X32000000Y-56000000D03*
%TO.P,R4,2*%
%TO.N,ENC_SW*%
X21840000Y-56000000D03*
%TD*%
D14*
%TO.P,C1,1*%
%TO.N,+5V_LED*%
X36000000Y-62000000D03*
D13*
%TO.P,C1,2*%
%TO.N,GND*%
X39500000Y-62000000D03*
%TD*%
D15*
%TO.P,U1,1*%
%TO.N,RING_DATA_3V3*%
X65620000Y-44082500D03*
%TO.P,U1,2*%
%TO.N,ENC_A*%
X63080000Y-44082500D03*
%TO.P,U1,3*%
%TO.N,ENC_B*%
X60540000Y-44082500D03*
%TO.P,U1,4*%
%TO.N,ENC_SW*%
X58000000Y-44082500D03*
%TO.P,U1,5*%
%TO.N,N/C*%
X55460000Y-44082500D03*
%TO.P,U1,6*%
X52920000Y-44082500D03*
%TO.P,U1,7*%
X50380000Y-44082500D03*
D16*
%TO.P,U1,8*%
X50380000Y-27917500D03*
%TO.P,U1,9*%
X52920000Y-27917500D03*
%TO.P,U1,10*%
%TO.N,LINK_TO_RING*%
X55460000Y-27917500D03*
%TO.P,U1,11*%
%TO.N,LINK_TO_CONSOLE*%
X58000000Y-27917500D03*
%TO.P,U1,12*%
%TO.N,+3V3*%
X60540000Y-27917500D03*
%TO.P,U1,13*%
%TO.N,GND*%
X63080000Y-27917500D03*
%TO.P,U1,14*%
%TO.N,+5V_MCU*%
X65620000Y-27917500D03*
%TD*%
D17*
%TO.P,J1,1*%
%TO.N,+5V_LED*%
X52000000Y-20000000D03*
D18*
%TO.P,J1,2*%
%TO.N,GND*%
X54500000Y-20000000D03*
%TO.P,J1,3*%
%TO.N,LINK_TO_RING*%
X57000000Y-20000000D03*
%TO.P,J1,4*%
%TO.N,LINK_TO_CONSOLE*%
X59500000Y-20000000D03*
%TD*%
D19*
%TO.P,D1,1*%
%TO.N,+5V_MCU*%
X63000000Y-12000000D03*
D20*
%TO.P,D1,2*%
%TO.N,+5V_LED*%
X52840000Y-12000000D03*
%TD*%
D13*
%TO.P,R3,1*%
%TO.N,+3V3*%
X32000000Y-52000000D03*
%TO.P,R3,2*%
%TO.N,ENC_B*%
X21840000Y-52000000D03*
%TD*%
%TO.P,R5,1*%
%TO.N,RING_DATA_3V3*%
X25160000Y-23000000D03*
%TO.P,R5,2*%
%TO.N,GND*%
X15000000Y-23000000D03*
%TD*%
%TO.P,R1,1*%
%TO.N,RING_DATA_5V*%
X39000000Y-8000000D03*
%TO.P,R1,2*%
%TO.N,RING_DATA*%
X49160000Y-8000000D03*
%TD*%
%TO.P,C5,1*%
%TO.N,+5V_LED*%
X39000000Y-18500000D03*
%TO.P,C5,2*%
%TO.N,GND*%
X44000000Y-18500000D03*
%TD*%
%TO.P,C4,1*%
%TO.N,ENC_SW*%
X54000000Y-49000000D03*
%TO.P,C4,2*%
%TO.N,GND*%
X59000000Y-49000000D03*
%TD*%
D21*
%TO.N,GND*%
X37890500Y-22154700D03*
X63456200Y-28951200D03*
X31763300Y-14782400D03*
X33463300Y-14982400D03*
X39606200Y-70311000D03*
X18750000Y-65877900D03*
X70500000Y-36000000D03*
X32393800Y-70311000D03*
X33363300Y-17582400D03*
X25338900Y-68811400D03*
X53250000Y-65877900D03*
X36990500Y-21554700D03*
X33263300Y-12482400D03*
X46661100Y-68811400D03*
X63911100Y-56278600D03*
X30563300Y-19382400D03*
X69746100Y-43173000D03*
X32863300Y-13882400D03*
X59085000Y-61638500D03*
%TO.N,RING_DOUT*%
X40420600Y-21453600D03*
%TD*%
%TO.N,+5V_LED*%
D22*
X35620000Y-9840000D02*
X30540000Y-9840000D01*
X52000000Y-12840000D02*
X52000000Y-20000000D01*
X28000000Y-12380000D02*
X19422900Y-20957100D01*
X52840000Y-12000000D02*
X52000000Y-12840000D01*
X31860000Y-60067100D02*
X31860000Y-62000000D01*
X19422900Y-20957100D02*
X19422900Y-47630000D01*
X31860000Y-62000000D02*
X36000000Y-62000000D01*
X31860000Y-62000000D02*
X31860000Y-67318000D01*
X30540000Y-9840000D02*
X28000000Y-12380000D01*
X18450000Y-47630000D02*
X19422900Y-47630000D01*
X19422900Y-47630000D02*
X31860000Y-60067100D01*
%TO.N,RING_DOUT*%
D23*
X40420600Y-15660600D02*
X40420600Y-21453600D01*
X37526200Y-12766200D02*
X40110000Y-15350000D01*
X40110000Y-15350000D02*
X40420600Y-15660600D01*
X23935000Y-6790000D02*
X27361000Y-3364000D01*
X36209400Y-3364000D02*
X37526200Y-4680800D01*
X27361000Y-3364000D02*
X36209400Y-3364000D01*
X37526200Y-4680800D02*
X37526200Y-12766200D01*
%TO.N,ENC_A*%
D24*
X63080000Y-47177900D02*
X63080000Y-44082500D01*
X64271600Y-49517900D02*
X64271600Y-48369500D01*
X58000000Y-53500000D02*
X54120100Y-53500000D01*
X46180100Y-45560000D02*
X35735000Y-45560000D01*
X60289500Y-53500000D02*
X64271600Y-49517900D01*
X58000000Y-53500000D02*
X60289500Y-53500000D01*
X54120100Y-53500000D02*
X46180100Y-45560000D01*
X35735000Y-45560000D02*
X33442500Y-43267500D01*
X64271600Y-48369500D02*
X63080000Y-47177900D01*
%TO.N,ENC_B*%
X60540000Y-46540000D02*
X60540000Y-44082500D01*
X59156800Y-42242800D02*
X39547200Y-42242800D01*
X63000000Y-49000000D02*
X60540000Y-46540000D01*
X60540000Y-43626000D02*
X59156800Y-42242800D01*
X60540000Y-44082500D02*
X60540000Y-43626000D01*
X39547200Y-42242800D02*
X38522500Y-43267500D01*
%TO.N,ENC_SW*%
X58000000Y-44082500D02*
X58000000Y-45000000D01*
X58000000Y-45000000D02*
X54000000Y-49000000D01*
%TO.N,+3V3*%
X32000000Y-56000000D02*
X32223900Y-56000000D01*
X67109000Y-42592700D02*
X60540000Y-36023700D01*
X60540000Y-36023700D02*
X60540000Y-27917500D01*
X33292200Y-54931700D02*
X59753400Y-54931700D01*
X32223900Y-56000000D02*
X33292200Y-54931700D01*
X59753400Y-54931700D02*
X67109000Y-47576100D01*
X67109000Y-47576100D02*
X67109000Y-42592700D01*
X32000000Y-52000000D02*
X32000000Y-48000000D01*
X33292200Y-53292200D02*
X32000000Y-52000000D01*
X33292200Y-54931700D02*
X33292200Y-53292200D01*
%TO.N,RING_DATA_3V3*%
D23*
X51942200Y-29870000D02*
X43506900Y-29870000D01*
X65620000Y-43547800D02*
X51942200Y-29870000D01*
X25160000Y-20300000D02*
X25160000Y-23000000D01*
X31096900Y-17460000D02*
X28000000Y-17460000D01*
X65620000Y-44082500D02*
X65620000Y-43547800D01*
X28000000Y-17460000D02*
X25160000Y-20300000D01*
X43506900Y-29870000D02*
X31096900Y-17460000D01*
%TO.N,LINK_TO_RING*%
X57000000Y-20000000D02*
X55460000Y-21540000D01*
X55460000Y-21540000D02*
X55460000Y-27917500D01*
%TO.N,LINK_TO_CONSOLE*%
D24*
X59500000Y-20000000D02*
X58000000Y-21500000D01*
X58000000Y-21500000D02*
X58000000Y-27917500D01*
%TO.N,+5V_MCU*%
X63000000Y-12000000D02*
X65620000Y-14620000D01*
X65620000Y-14620000D02*
X65620000Y-27917500D01*
%TD*%
%TA.AperFunction,Conductor*%
%TO.N,GND*%
G36*
X48822539Y-42912985D02*
G01*
X48868294Y-42965789D01*
X48879500Y-43017300D01*
X48879500Y-45314113D01*
X48885913Y-45384692D01*
X48936522Y-45547106D01*
X49024530Y-45692688D01*
X49144811Y-45812969D01*
X49144813Y-45812970D01*
X49144815Y-45812972D01*
X49290394Y-45900978D01*
X49452804Y-45951586D01*
X49523384Y-45958000D01*
X49523387Y-45958000D01*
X51236613Y-45958000D01*
X51236616Y-45958000D01*
X51307196Y-45951586D01*
X51469606Y-45900978D01*
X51585852Y-45830704D01*
X51653404Y-45812869D01*
X51714147Y-45830704D01*
X51830394Y-45900978D01*
X51992804Y-45951586D01*
X52063384Y-45958000D01*
X52063387Y-45958000D01*
X53776613Y-45958000D01*
X53776616Y-45958000D01*
X53847196Y-45951586D01*
X54009606Y-45900978D01*
X54125852Y-45830704D01*
X54193404Y-45812869D01*
X54254147Y-45830704D01*
X54370394Y-45900978D01*
X54532804Y-45951586D01*
X54603384Y-45958000D01*
X55822692Y-45958000D01*
X55889731Y-45977685D01*
X55935486Y-46030489D01*
X55945430Y-46099647D01*
X55916405Y-46163203D01*
X55910373Y-46169681D01*
X54387190Y-47692862D01*
X54325867Y-47726347D01*
X54280111Y-47727654D01*
X54134611Y-47704609D01*
X54102352Y-47699500D01*
X53897648Y-47699500D01*
X53873329Y-47703351D01*
X53695465Y-47731522D01*
X53500776Y-47794781D01*
X53318386Y-47887715D01*
X53152786Y-48008028D01*
X53008028Y-48152786D01*
X52887715Y-48318386D01*
X52794781Y-48500776D01*
X52731522Y-48695465D01*
X52699500Y-48897648D01*
X52699500Y-49102351D01*
X52731522Y-49304534D01*
X52794781Y-49499223D01*
X52887715Y-49681613D01*
X53008028Y-49847213D01*
X53152786Y-49991971D01*
X53307749Y-50104556D01*
X53318390Y-50112287D01*
X53434607Y-50171503D01*
X53500776Y-50205218D01*
X53500778Y-50205218D01*
X53500781Y-50205220D01*
X53605137Y-50239127D01*
X53695465Y-50268477D01*
X53796557Y-50284488D01*
X53897648Y-50300500D01*
X53897649Y-50300500D01*
X54102351Y-50300500D01*
X54102352Y-50300500D01*
X54304534Y-50268477D01*
X54499219Y-50205220D01*
X54681610Y-50112287D01*
X54774590Y-50044732D01*
X54847213Y-49991971D01*
X54847215Y-49991968D01*
X54847219Y-49991966D01*
X54991966Y-49847219D01*
X54991968Y-49847215D01*
X54991971Y-49847213D01*
X55044732Y-49774590D01*
X55112287Y-49681610D01*
X55205220Y-49499219D01*
X55268477Y-49304534D01*
X55300500Y-49102352D01*
X55300500Y-48897648D01*
X55272345Y-48719886D01*
X55281300Y-48650593D01*
X55307134Y-48612810D01*
X57925627Y-45994319D01*
X57986950Y-45960834D01*
X58013308Y-45958000D01*
X58856613Y-45958000D01*
X58856616Y-45958000D01*
X58927196Y-45951586D01*
X59089606Y-45900978D01*
X59205852Y-45830704D01*
X59273404Y-45812869D01*
X59334147Y-45830704D01*
X59450394Y-45900978D01*
X59612804Y-45951586D01*
X59683384Y-45958000D01*
X59765500Y-45958000D01*
X59832539Y-45977685D01*
X59878294Y-46030489D01*
X59889500Y-46082000D01*
X59889500Y-46604070D01*
X59906257Y-46688308D01*
X59906257Y-46688310D01*
X59914497Y-46729737D01*
X59914499Y-46729744D01*
X59963535Y-46848127D01*
X60003844Y-46908454D01*
X60034726Y-46954673D01*
X60034727Y-46954674D01*
X61692862Y-48612808D01*
X61726347Y-48674131D01*
X61727654Y-48719886D01*
X61699500Y-48897647D01*
X61699500Y-49102351D01*
X61731522Y-49304534D01*
X61794781Y-49499223D01*
X61887715Y-49681613D01*
X62008028Y-49847213D01*
X62152786Y-49991971D01*
X62307749Y-50104556D01*
X62318390Y-50112287D01*
X62454832Y-50181808D01*
X62457058Y-50182942D01*
X62507854Y-50230917D01*
X62524649Y-50298738D01*
X62502112Y-50364873D01*
X62488444Y-50381108D01*
X60056373Y-52813181D01*
X59995050Y-52846666D01*
X59968692Y-52849500D01*
X59198071Y-52849500D01*
X59131032Y-52829815D01*
X59097754Y-52798386D01*
X58991966Y-52652781D01*
X58847219Y-52508034D01*
X58847213Y-52508028D01*
X58681613Y-52387715D01*
X58681612Y-52387714D01*
X58681610Y-52387713D01*
X58583535Y-52337741D01*
X58499223Y-52294781D01*
X58304534Y-52231522D01*
X58129995Y-52203878D01*
X58102352Y-52199500D01*
X57897648Y-52199500D01*
X57873329Y-52203351D01*
X57695465Y-52231522D01*
X57500776Y-52294781D01*
X57318386Y-52387715D01*
X57152786Y-52508028D01*
X57008034Y-52652780D01*
X56987086Y-52681613D01*
X56902246Y-52798386D01*
X56846918Y-52841051D01*
X56801929Y-52849500D01*
X54440908Y-52849500D01*
X54373869Y-52829815D01*
X54353227Y-52813181D01*
X46594774Y-45054727D01*
X46594773Y-45054726D01*
X46594769Y-45054723D01*
X46488227Y-44983535D01*
X46369844Y-44934499D01*
X46369838Y-44934497D01*
X46244171Y-44909500D01*
X46244169Y-44909500D01*
X38683518Y-44909500D01*
X38616479Y-44889815D01*
X38570724Y-44837011D01*
X38560780Y-44767853D01*
X38589805Y-44704297D01*
X38648583Y-44666523D01*
X38664120Y-44663027D01*
X38850451Y-44633515D01*
X39060106Y-44565395D01*
X39256522Y-44465315D01*
X39434865Y-44335742D01*
X39590742Y-44179865D01*
X39720315Y-44001522D01*
X39820395Y-43805106D01*
X39888515Y-43595451D01*
X39923000Y-43377722D01*
X39923000Y-43157278D01*
X39903902Y-43036698D01*
X39912857Y-42967404D01*
X39957853Y-42913952D01*
X40024604Y-42893313D01*
X40026375Y-42893300D01*
X48755500Y-42893300D01*
X48822539Y-42912985D01*
G37*
%TD.AperFunction*%
%TA.AperFunction,Conductor*%
G36*
X38576100Y3365666D02*
G01*
X38584197Y3365135D01*
X41145216Y3112897D01*
X41153261Y3111838D01*
X43692308Y2692640D01*
X43700266Y2691057D01*
X46206454Y2106695D01*
X46214292Y2104595D01*
X48676909Y1357568D01*
X48684593Y1354959D01*
X51093057Y448478D01*
X51100554Y445373D01*
X52272574Y-85661D01*
X53444613Y-616704D01*
X53451855Y-620276D01*
X55476781Y-1702621D01*
X55721419Y-1833383D01*
X55728446Y-1837440D01*
X57913795Y-3196378D01*
X57920542Y-3200886D01*
X60012337Y-4699845D01*
X60018775Y-4704785D01*
X62008058Y-6337347D01*
X62014158Y-6342697D01*
X63892412Y-8101874D01*
X63898124Y-8107586D01*
X64920154Y-9198796D01*
X65657301Y-9985840D01*
X65662651Y-9991940D01*
X67295213Y-11981223D01*
X67300153Y-11987661D01*
X68799112Y-14079456D01*
X68803620Y-14086203D01*
X70162558Y-16271552D01*
X70166615Y-16278579D01*
X70901144Y-17652786D01*
X71367084Y-18524500D01*
X71379713Y-18548126D01*
X71383299Y-18555398D01*
X71564657Y-18955663D01*
X72445373Y-20899445D01*
X72448478Y-20906942D01*
X73354959Y-23315405D01*
X73357568Y-23323089D01*
X74104595Y-25785706D01*
X74106695Y-25793544D01*
X74691057Y-28299732D01*
X74692640Y-28307690D01*
X75073693Y-30615699D01*
X75111838Y-30846737D01*
X75112897Y-30854782D01*
X75365135Y-33415801D01*
X75365666Y-33423898D01*
X75449867Y-35995942D01*
X75449867Y-36004056D01*
X75365666Y-38576100D01*
X75365135Y-38584197D01*
X75112897Y-41145216D01*
X75111838Y-41153261D01*
X74692640Y-43692308D01*
X74691057Y-43700266D01*
X74106695Y-46206454D01*
X74104595Y-46214292D01*
X73357568Y-48676909D01*
X73354959Y-48684593D01*
X72448478Y-51093056D01*
X72445373Y-51100553D01*
X71383302Y-53444595D01*
X71379713Y-53451872D01*
X70166615Y-55721418D01*
X70162558Y-55728445D01*
X68803620Y-57913795D01*
X68799112Y-57920542D01*
X67300153Y-60012337D01*
X67295213Y-60018775D01*
X65662651Y-62008058D01*
X65657301Y-62014158D01*
X63898137Y-63892399D01*
X63892399Y-63898137D01*
X62014158Y-65657301D01*
X62008058Y-65662651D01*
X60018775Y-67295213D01*
X60012337Y-67300153D01*
X57920542Y-68799112D01*
X57913795Y-68803620D01*
X55728446Y-70162558D01*
X55721419Y-70166615D01*
X53451872Y-71379713D01*
X53444595Y-71383302D01*
X51100553Y-72445373D01*
X51093056Y-72448478D01*
X48684593Y-73354959D01*
X48676909Y-73357568D01*
X46214292Y-74104595D01*
X46206454Y-74106695D01*
X43700266Y-74691057D01*
X43692308Y-74692640D01*
X41153261Y-75111838D01*
X41145216Y-75112897D01*
X38584197Y-75365135D01*
X38576100Y-75365666D01*
X36004056Y-75449867D01*
X35995942Y-75449867D01*
X33423898Y-75365666D01*
X33415801Y-75365135D01*
X30854782Y-75112897D01*
X30846737Y-75111838D01*
X28307690Y-74692640D01*
X28299732Y-74691057D01*
X25793544Y-74106695D01*
X25785706Y-74104595D01*
X23323089Y-73357568D01*
X23315405Y-73354959D01*
X20906942Y-72448478D01*
X20899445Y-72445373D01*
X18555403Y-71383302D01*
X18548126Y-71379713D01*
X16278580Y-70166615D01*
X16271553Y-70162558D01*
X14086203Y-68803620D01*
X14079456Y-68799112D01*
X11987661Y-67300153D01*
X11981223Y-67295213D01*
X9991940Y-65662651D01*
X9985840Y-65657301D01*
X9771643Y-65456684D01*
X8107586Y-63898124D01*
X8101874Y-63892412D01*
X6342697Y-62014158D01*
X6337347Y-62008058D01*
X4704785Y-60018775D01*
X4699845Y-60012337D01*
X3200886Y-57920542D01*
X3196378Y-57913795D01*
X1980347Y-55958258D01*
X1980346Y-55958257D01*
X1942657Y-55897648D01*
X20539500Y-55897648D01*
X20539500Y-56102351D01*
X20571522Y-56304534D01*
X20634781Y-56499223D01*
X20727715Y-56681613D01*
X20848028Y-56847213D01*
X20992786Y-56991971D01*
X21147749Y-57104556D01*
X21158390Y-57112287D01*
X21260008Y-57164064D01*
X21340776Y-57205218D01*
X21340778Y-57205218D01*
X21340781Y-57205220D01*
X21445137Y-57239127D01*
X21535465Y-57268477D01*
X21636557Y-57284488D01*
X21737648Y-57300500D01*
X21737649Y-57300500D01*
X21942351Y-57300500D01*
X21942352Y-57300500D01*
X22144534Y-57268477D01*
X22339219Y-57205220D01*
X22521610Y-57112287D01*
X22614590Y-57044732D01*
X22687213Y-56991971D01*
X22687215Y-56991968D01*
X22687219Y-56991966D01*
X22831966Y-56847219D01*
X22831968Y-56847215D01*
X22831971Y-56847213D01*
X22884732Y-56774590D01*
X22952287Y-56681610D01*
X23045220Y-56499219D01*
X23108477Y-56304534D01*
X23140500Y-56102352D01*
X23140500Y-55897648D01*
X23126147Y-55807026D01*
X23108477Y-55695465D01*
X23063552Y-55557201D01*
X23045220Y-55500781D01*
X23045218Y-55500778D01*
X23045218Y-55500776D01*
X23011503Y-55434607D01*
X22952287Y-55318390D01*
X22944556Y-55307749D01*
X22831971Y-55152786D01*
X22687213Y-55008028D01*
X22521613Y-54887715D01*
X22521612Y-54887714D01*
X22521610Y-54887713D01*
X22464653Y-54858691D01*
X22339223Y-54794781D01*
X22144534Y-54731522D01*
X21969995Y-54703878D01*
X21942352Y-54699500D01*
X21737648Y-54699500D01*
X21713329Y-54703351D01*
X21535465Y-54731522D01*
X21340776Y-54794781D01*
X21158386Y-54887715D01*
X20992786Y-55008028D01*
X20848028Y-55152786D01*
X20727715Y-55318386D01*
X20634781Y-55500776D01*
X20571522Y-55695465D01*
X20539500Y-55897648D01*
X1942657Y-55897648D01*
X1940828Y-55894707D01*
X1837433Y-55728435D01*
X1833383Y-55721418D01*
X1452068Y-55008028D01*
X620276Y-53451855D01*
X616704Y-53444613D01*
X-175823Y-51695465D01*
X-445373Y-51100554D01*
X-448478Y-51093057D01*
X-1354959Y-48684593D01*
X-1357568Y-48676909D01*
X-1700333Y-47546966D01*
X-1709776Y-47515837D01*
X16999500Y-47515837D01*
X16999500Y-47744162D01*
X17035215Y-47969660D01*
X17105770Y-48186803D01*
X17209421Y-48390228D01*
X17343621Y-48574937D01*
X17505063Y-48736379D01*
X17689772Y-48870579D01*
X17742898Y-48897648D01*
X17893196Y-48974229D01*
X17893198Y-48974229D01*
X17893201Y-48974231D01*
X18009592Y-49012049D01*
X18110339Y-49044784D01*
X18335838Y-49080500D01*
X18335843Y-49080500D01*
X18564162Y-49080500D01*
X18789660Y-49044784D01*
X19006799Y-48974231D01*
X19210228Y-48870579D01*
X19290092Y-48812552D01*
X19355896Y-48789074D01*
X19423950Y-48804899D01*
X19450657Y-48825191D01*
X21272740Y-50647274D01*
X21306225Y-50708597D01*
X21301241Y-50778289D01*
X21259369Y-50834222D01*
X21241355Y-50845439D01*
X21158388Y-50887713D01*
X20992786Y-51008028D01*
X20848028Y-51152786D01*
X20727715Y-51318386D01*
X20634781Y-51500776D01*
X20571522Y-51695465D01*
X20539500Y-51897648D01*
X20539500Y-52102351D01*
X20571522Y-52304534D01*
X20634781Y-52499223D01*
X20698691Y-52624653D01*
X20713023Y-52652780D01*
X20727715Y-52681613D01*
X20848028Y-52847213D01*
X20992786Y-52991971D01*
X21144857Y-53102455D01*
X21158390Y-53112287D01*
X21274607Y-53171503D01*
X21340776Y-53205218D01*
X21340778Y-53205218D01*
X21340781Y-53205220D01*
X21411285Y-53228128D01*
X21535465Y-53268477D01*
X21636557Y-53284488D01*
X21737648Y-53300500D01*
X21737649Y-53300500D01*
X21942351Y-53300500D01*
X21942352Y-53300500D01*
X22144534Y-53268477D01*
X22339219Y-53205220D01*
X22521610Y-53112287D01*
X22614590Y-53044732D01*
X22687213Y-52991971D01*
X22687215Y-52991968D01*
X22687219Y-52991966D01*
X22831966Y-52847219D01*
X22831968Y-52847215D01*
X22831971Y-52847213D01*
X22952286Y-52681611D01*
X22966977Y-52652780D01*
X22994559Y-52598645D01*
X23042533Y-52547850D01*
X23110354Y-52531054D01*
X23176489Y-52553591D01*
X23192725Y-52567259D01*
X30998181Y-60372714D01*
X31031666Y-60434037D01*
X31034500Y-60460395D01*
X31034500Y-66061663D01*
X31014815Y-66128702D01*
X30983386Y-66161980D01*
X30915069Y-66211616D01*
X30915060Y-66211623D01*
X30753622Y-66373061D01*
X30619421Y-66557771D01*
X30515770Y-66761196D01*
X30445215Y-66978339D01*
X30409500Y-67203837D01*
X30409500Y-67432162D01*
X30445215Y-67657660D01*
X30515770Y-67874803D01*
X30619421Y-68078228D01*
X30753621Y-68262937D01*
X30915063Y-68424379D01*
X31099772Y-68558579D01*
X31195884Y-68607550D01*
X31303196Y-68662229D01*
X31303198Y-68662229D01*
X31303201Y-68662231D01*
X31419592Y-68700049D01*
X31520339Y-68732784D01*
X31745838Y-68768500D01*
X31745843Y-68768500D01*
X31974162Y-68768500D01*
X32199660Y-68732784D01*
X32416799Y-68662231D01*
X32620228Y-68558579D01*
X32804937Y-68424379D01*
X32966379Y-68262937D01*
X33100579Y-68078228D01*
X33204231Y-67874799D01*
X33274784Y-67657660D01*
X33285953Y-67587144D01*
X33310500Y-67432162D01*
X33310500Y-67203837D01*
X33274784Y-66978339D01*
X33225484Y-66826611D01*
X33204231Y-66761201D01*
X33204229Y-66761198D01*
X33204229Y-66761196D01*
X33100578Y-66557771D01*
X32966379Y-66373063D01*
X32804937Y-66211621D01*
X32798963Y-66207280D01*
X32736614Y-66161980D01*
X32693948Y-66106650D01*
X32685500Y-66061663D01*
X32685500Y-62949500D01*
X32705185Y-62882461D01*
X32757989Y-62836706D01*
X32809500Y-62825500D01*
X34668942Y-62825500D01*
X34735981Y-62845185D01*
X34774479Y-62884401D01*
X34857288Y-63018656D01*
X34981344Y-63142712D01*
X35130666Y-63234814D01*
X35297203Y-63289999D01*
X35399991Y-63300500D01*
X36600008Y-63300499D01*
X36702797Y-63289999D01*
X36869334Y-63234814D01*
X37018656Y-63142712D01*
X37142712Y-63018656D01*
X37234814Y-62869334D01*
X37289999Y-62702797D01*
X37300500Y-62600009D01*
X37300499Y-61399992D01*
X37289999Y-61297203D01*
X37234814Y-61130666D01*
X37142712Y-60981344D01*
X37018656Y-60857288D01*
X36869334Y-60765186D01*
X36702797Y-60710001D01*
X36702795Y-60710000D01*
X36600010Y-60699500D01*
X35399998Y-60699500D01*
X35399981Y-60699501D01*
X35297203Y-60710000D01*
X35297200Y-60710001D01*
X35130668Y-60765185D01*
X35130663Y-60765187D01*
X34981342Y-60857289D01*
X34857289Y-60981342D01*
X34857288Y-60981344D01*
X34782861Y-61102011D01*
X34774481Y-61115597D01*
X34722533Y-61162321D01*
X34668942Y-61174500D01*
X32809500Y-61174500D01*
X32742461Y-61154815D01*
X32696706Y-61102011D01*
X32685500Y-61050500D01*
X32685500Y-59985792D01*
X32653777Y-59826316D01*
X32653776Y-59826315D01*
X32653776Y-59826311D01*
X32608208Y-59716299D01*
X32591549Y-59676080D01*
X32591547Y-59676076D01*
X32501209Y-59540875D01*
X32501203Y-59540868D01*
X22344855Y-49384522D01*
X22311370Y-49323199D01*
X22316354Y-49253507D01*
X22358226Y-49197574D01*
X22376238Y-49186357D01*
X22521610Y-49112287D01*
X22542770Y-49096913D01*
X22687213Y-48991971D01*
X22687215Y-48991968D01*
X22687219Y-48991966D01*
X22831966Y-48847219D01*
X22831968Y-48847215D01*
X22831971Y-48847213D01*
X22912495Y-48736379D01*
X22952287Y-48681610D01*
X23045220Y-48499219D01*
X23108477Y-48304534D01*
X23140500Y-48102352D01*
X23140500Y-47897648D01*
X23114188Y-47731522D01*
X23108477Y-47695465D01*
X23055152Y-47531349D01*
X23045220Y-47500781D01*
X23045218Y-47500778D01*
X23045218Y-47500776D01*
X22977383Y-47367644D01*
X22952287Y-47318390D01*
X22930256Y-47288066D01*
X22831971Y-47152786D01*
X22687213Y-47008028D01*
X22521613Y-46887715D01*
X22521612Y-46887714D01*
X22521610Y-46887713D01*
X22461511Y-46857091D01*
X22339223Y-46794781D01*
X22144534Y-46731522D01*
X21969995Y-46703878D01*
X21942352Y-46699500D01*
X21737648Y-46699500D01*
X21713329Y-46703351D01*
X21535465Y-46731522D01*
X21340776Y-46794781D01*
X21158386Y-46887715D01*
X20992786Y-47008028D01*
X20848028Y-47152786D01*
X20727713Y-47318388D01*
X20653642Y-47463759D01*
X20634326Y-47484210D01*
X20617468Y-47506730D01*
X20610658Y-47509269D01*
X20605668Y-47514554D01*
X20578361Y-47521316D01*
X20552004Y-47531147D01*
X20544901Y-47529601D01*
X20537847Y-47531349D01*
X20511220Y-47522275D01*
X20483731Y-47516295D01*
X20475423Y-47510075D01*
X20471712Y-47508811D01*
X20455477Y-47495144D01*
X20284719Y-47324385D01*
X20251234Y-47263062D01*
X20248400Y-47236704D01*
X20248400Y-34787597D01*
X28832000Y-34787597D01*
X28832000Y-36747402D01*
X28872640Y-37003993D01*
X28952922Y-37251076D01*
X29034034Y-37410264D01*
X29070866Y-37482551D01*
X29223569Y-37692729D01*
X29407271Y-37876431D01*
X29617449Y-38029134D01*
X29764945Y-38104287D01*
X29848923Y-38147077D01*
X29848925Y-38147077D01*
X29848928Y-38147079D01*
X30096007Y-38227360D01*
X30228206Y-38248297D01*
X30352598Y-38268000D01*
X30352603Y-38268000D01*
X30612402Y-38268000D01*
X30725798Y-38250039D01*
X30868993Y-38227360D01*
X31116072Y-38147079D01*
X31347551Y-38029134D01*
X31557729Y-37876431D01*
X31741431Y-37692729D01*
X31894134Y-37482551D01*
X32012079Y-37251072D01*
X32092360Y-37003993D01*
X32115039Y-36860798D01*
X32133000Y-36747402D01*
X32133000Y-34787597D01*
X39832000Y-34787597D01*
X39832000Y-36747402D01*
X39872640Y-37003993D01*
X39952922Y-37251076D01*
X40034034Y-37410264D01*
X40070866Y-37482551D01*
X40223569Y-37692729D01*
X40407271Y-37876431D01*
X40617449Y-38029134D01*
X40764945Y-38104287D01*
X40848923Y-38147077D01*
X40848925Y-38147077D01*
X40848928Y-38147079D01*
X41096007Y-38227360D01*
X41228206Y-38248297D01*
X41352598Y-38268000D01*
X41352603Y-38268000D01*
X41612402Y-38268000D01*
X41725798Y-38250039D01*
X41868993Y-38227360D01*
X42116072Y-38147079D01*
X42347551Y-38029134D01*
X42557729Y-37876431D01*
X42741431Y-37692729D01*
X42894134Y-37482551D01*
X43012079Y-37251072D01*
X43092360Y-37003993D01*
X43115039Y-36860798D01*
X43133000Y-36747402D01*
X43133000Y-34787597D01*
X43111447Y-34651521D01*
X43092360Y-34531007D01*
X43012079Y-34283928D01*
X43012077Y-34283925D01*
X43012077Y-34283923D01*
X42969287Y-34199945D01*
X42894134Y-34052449D01*
X42741431Y-33842271D01*
X42557729Y-33658569D01*
X42347551Y-33505866D01*
X42275264Y-33469034D01*
X42116076Y-33387922D01*
X41868993Y-33307640D01*
X41612402Y-33267000D01*
X41612397Y-33267000D01*
X41352603Y-33267000D01*
X41352598Y-33267000D01*
X41096006Y-33307640D01*
X40848923Y-33387922D01*
X40617445Y-33505868D01*
X40407274Y-33658566D01*
X40407268Y-33658571D01*
X40223571Y-33842268D01*
X40223566Y-33842274D01*
X40070868Y-34052445D01*
X39952922Y-34283923D01*
X39872640Y-34531006D01*
X39832000Y-34787597D01*
X32133000Y-34787597D01*
X32111447Y-34651521D01*
X32092360Y-34531007D01*
X32012079Y-34283928D01*
X32012077Y-34283925D01*
X32012077Y-34283923D01*
X31969287Y-34199945D01*
X31894134Y-34052449D01*
X31741431Y-33842271D01*
X31557729Y-33658569D01*
X31347551Y-33505866D01*
X31275264Y-33469034D01*
X31116076Y-33387922D01*
X30868993Y-33307640D01*
X30612402Y-33267000D01*
X30612397Y-33267000D01*
X30352603Y-33267000D01*
X30352598Y-33267000D01*
X30096006Y-33307640D01*
X29848923Y-33387922D01*
X29617445Y-33505868D01*
X29407274Y-33658566D01*
X29407268Y-33658571D01*
X29223571Y-33842268D01*
X29223566Y-33842274D01*
X29070868Y-34052445D01*
X28952922Y-34283923D01*
X28872640Y-34531006D01*
X28832000Y-34787597D01*
X20248400Y-34787597D01*
X20248400Y-28657278D01*
X32042000Y-28657278D01*
X32042000Y-28877721D01*
X32076485Y-29095452D01*
X32144603Y-29305103D01*
X32144604Y-29305106D01*
X32244687Y-29501525D01*
X32374252Y-29679858D01*
X32374256Y-29679863D01*
X32530136Y-29835743D01*
X32530141Y-29835747D01*
X32678257Y-29943358D01*
X32708478Y-29965315D01*
X32836875Y-30030737D01*
X32904893Y-30065395D01*
X32904896Y-30065396D01*
X33009721Y-30099455D01*
X33114549Y-30133515D01*
X33332278Y-30168000D01*
X33332279Y-30168000D01*
X33552721Y-30168000D01*
X33552722Y-30168000D01*
X33770451Y-30133515D01*
X33980106Y-30065395D01*
X34176522Y-29965315D01*
X34354865Y-29835742D01*
X34510742Y-29679865D01*
X34640315Y-29501522D01*
X34740395Y-29305106D01*
X34808515Y-29095451D01*
X34843000Y-28877722D01*
X34843000Y-28657278D01*
X34808515Y-28439549D01*
X34765672Y-28307690D01*
X34740396Y-28229896D01*
X34740395Y-28229893D01*
X34705737Y-28161875D01*
X34640315Y-28033478D01*
X34608729Y-27990003D01*
X34510747Y-27855141D01*
X34510743Y-27855136D01*
X34354863Y-27699256D01*
X34354858Y-27699252D01*
X34176525Y-27569687D01*
X34176524Y-27569686D01*
X34176522Y-27569685D01*
X34113596Y-27537622D01*
X33980106Y-27469604D01*
X33980103Y-27469603D01*
X33770452Y-27401485D01*
X33661586Y-27384242D01*
X33552722Y-27367000D01*
X33332278Y-27367000D01*
X33259701Y-27378495D01*
X33114547Y-27401485D01*
X32904896Y-27469603D01*
X32904893Y-27469604D01*
X32708474Y-27569687D01*
X32530141Y-27699252D01*
X32530136Y-27699256D01*
X32374256Y-27855136D01*
X32374252Y-27855141D01*
X32244687Y-28033474D01*
X32144604Y-28229893D01*
X32144603Y-28229896D01*
X32076485Y-28439547D01*
X32042000Y-28657278D01*
X20248400Y-28657278D01*
X20248400Y-21350394D01*
X20268085Y-21283355D01*
X20284714Y-21262718D01*
X22763715Y-18783716D01*
X22825036Y-18750233D01*
X22894728Y-18755217D01*
X22950661Y-18797089D01*
X22969323Y-18833077D01*
X23025769Y-19006799D01*
X23129421Y-19210228D01*
X23263621Y-19394937D01*
X23425063Y-19556379D01*
X23609772Y-19690579D01*
X23705884Y-19739550D01*
X23813196Y-19794229D01*
X23813198Y-19794229D01*
X23813201Y-19794231D01*
X23853562Y-19807345D01*
X24030339Y-19864784D01*
X24255838Y-19900500D01*
X24300504Y-19900500D01*
X24367543Y-19920185D01*
X24413298Y-19972989D01*
X24423242Y-20042147D01*
X24415066Y-20071950D01*
X24414303Y-20073791D01*
X24414300Y-20073802D01*
X24384500Y-20223615D01*
X24384500Y-21892746D01*
X24364815Y-21959785D01*
X24333387Y-21993062D01*
X24323274Y-22000409D01*
X24312779Y-22008035D01*
X24168028Y-22152786D01*
X24047715Y-22318386D01*
X23954781Y-22500776D01*
X23891522Y-22695465D01*
X23859500Y-22897648D01*
X23859500Y-23102351D01*
X23891522Y-23304534D01*
X23954781Y-23499223D01*
X24047715Y-23681613D01*
X24168028Y-23847213D01*
X24312786Y-23991971D01*
X24447370Y-24089750D01*
X24478390Y-24112287D01*
X24594607Y-24171503D01*
X24660776Y-24205218D01*
X24660778Y-24205218D01*
X24660781Y-24205220D01*
X24765137Y-24239127D01*
X24855465Y-24268477D01*
X24956557Y-24284488D01*
X25057648Y-24300500D01*
X25057649Y-24300500D01*
X25262351Y-24300500D01*
X25262352Y-24300500D01*
X25464534Y-24268477D01*
X25659219Y-24205220D01*
X25841610Y-24112287D01*
X25934590Y-24044732D01*
X26007213Y-23991971D01*
X26007215Y-23991968D01*
X26007219Y-23991966D01*
X26151966Y-23847219D01*
X26151968Y-23847215D01*
X26151971Y-23847213D01*
X26204732Y-23774590D01*
X26272287Y-23681610D01*
X26365220Y-23499219D01*
X26428477Y-23304534D01*
X26460500Y-23102352D01*
X26460500Y-22897648D01*
X26428477Y-22695466D01*
X26365220Y-22500781D01*
X26365218Y-22500778D01*
X26365218Y-22500776D01*
X26290482Y-22354100D01*
X26272287Y-22318390D01*
X26264556Y-22307749D01*
X26151971Y-22152786D01*
X26007220Y-22008035D01*
X26007219Y-22008034D01*
X25986613Y-21993063D01*
X25943949Y-21937733D01*
X25935500Y-21892746D01*
X25935500Y-20672583D01*
X25955185Y-20605544D01*
X25971814Y-20584907D01*
X27765415Y-18791305D01*
X27826736Y-18757822D01*
X27872490Y-18756515D01*
X27897648Y-18760500D01*
X27897652Y-18760500D01*
X28102351Y-18760500D01*
X28102352Y-18760500D01*
X28304534Y-18728477D01*
X28499219Y-18665220D01*
X28681610Y-18572287D01*
X28774590Y-18504732D01*
X28847213Y-18451971D01*
X28847215Y-18451968D01*
X28847219Y-18451966D01*
X28991966Y-18307219D01*
X28999794Y-18296443D01*
X29006936Y-18286615D01*
X29062266Y-18243949D01*
X29107254Y-18235500D01*
X30724316Y-18235500D01*
X30791355Y-18255185D01*
X30811997Y-18271819D01*
X43012543Y-30472367D01*
X43012551Y-30472373D01*
X43139560Y-30557238D01*
X43180897Y-30574360D01*
X43280695Y-30615698D01*
X43430515Y-30645499D01*
X43430519Y-30645500D01*
X43430520Y-30645500D01*
X51569616Y-30645500D01*
X51636655Y-30665185D01*
X51657297Y-30681819D01*
X62970796Y-41995319D01*
X63004281Y-42056642D01*
X62999297Y-42126334D01*
X62957425Y-42182267D01*
X62891961Y-42206684D01*
X62883115Y-42207000D01*
X62223384Y-42207000D01*
X62204145Y-42208748D01*
X62152807Y-42213413D01*
X61990393Y-42264022D01*
X61874150Y-42334294D01*
X61806595Y-42352130D01*
X61745850Y-42334294D01*
X61629606Y-42264022D01*
X61629593Y-42264018D01*
X61467196Y-42213414D01*
X61467194Y-42213413D01*
X61467192Y-42213413D01*
X61417778Y-42208923D01*
X61396616Y-42207000D01*
X61396613Y-42207000D01*
X60092308Y-42207000D01*
X60025269Y-42187315D01*
X60004627Y-42170681D01*
X59571474Y-41737527D01*
X59571473Y-41737526D01*
X59464934Y-41666340D01*
X59464927Y-41666335D01*
X59346544Y-41617299D01*
X59346538Y-41617297D01*
X59220871Y-41592300D01*
X59220869Y-41592300D01*
X39483131Y-41592300D01*
X39483129Y-41592300D01*
X39357461Y-41617297D01*
X39357451Y-41617300D01*
X39308420Y-41637610D01*
X39239081Y-41666330D01*
X39239063Y-41666340D01*
X39132536Y-41737519D01*
X39132533Y-41737521D01*
X39132531Y-41737523D01*
X38993331Y-41876721D01*
X38932010Y-41910205D01*
X38867335Y-41906970D01*
X38850454Y-41901485D01*
X38687154Y-41875621D01*
X38632722Y-41867000D01*
X38412278Y-41867000D01*
X38350902Y-41876721D01*
X38194547Y-41901485D01*
X37984896Y-41969603D01*
X37984893Y-41969604D01*
X37788474Y-42069687D01*
X37610141Y-42199252D01*
X37610136Y-42199256D01*
X37454256Y-42355136D01*
X37454252Y-42355141D01*
X37324687Y-42533474D01*
X37224604Y-42729893D01*
X37224603Y-42729896D01*
X37156485Y-42939547D01*
X37122000Y-43157278D01*
X37122000Y-43377721D01*
X37156485Y-43595452D01*
X37224603Y-43805103D01*
X37224604Y-43805106D01*
X37324687Y-44001525D01*
X37454252Y-44179858D01*
X37454256Y-44179863D01*
X37610136Y-44335743D01*
X37610141Y-44335747D01*
X37765692Y-44448760D01*
X37788478Y-44465315D01*
X37916875Y-44530737D01*
X37984893Y-44565395D01*
X37984896Y-44565396D01*
X38089721Y-44599455D01*
X38194549Y-44633515D01*
X38380880Y-44663027D01*
X38444015Y-44692956D01*
X38480946Y-44752268D01*
X38479948Y-44822130D01*
X38441338Y-44880363D01*
X38377375Y-44908477D01*
X38361482Y-44909500D01*
X36055808Y-44909500D01*
X35988769Y-44889815D01*
X35968127Y-44873181D01*
X34833279Y-43738333D01*
X34799794Y-43677010D01*
X34803031Y-43612329D01*
X34808513Y-43595457D01*
X34808512Y-43595457D01*
X34808515Y-43595451D01*
X34843000Y-43377722D01*
X34843000Y-43157278D01*
X34808515Y-42939549D01*
X34740395Y-42729894D01*
X34740395Y-42729893D01*
X34705737Y-42661875D01*
X34640315Y-42533478D01*
X34623760Y-42510692D01*
X34510747Y-42355141D01*
X34510743Y-42355136D01*
X34354863Y-42199256D01*
X34354858Y-42199252D01*
X34176525Y-42069687D01*
X34176524Y-42069686D01*
X34176522Y-42069685D01*
X34101559Y-42031489D01*
X33980106Y-41969604D01*
X33980103Y-41969603D01*
X33770452Y-41901485D01*
X33661586Y-41884242D01*
X33552722Y-41867000D01*
X33332278Y-41867000D01*
X33270902Y-41876721D01*
X33114547Y-41901485D01*
X32904896Y-41969603D01*
X32904893Y-41969604D01*
X32708474Y-42069687D01*
X32530141Y-42199252D01*
X32530136Y-42199256D01*
X32374256Y-42355136D01*
X32374252Y-42355141D01*
X32244687Y-42533474D01*
X32144604Y-42729893D01*
X32144603Y-42729896D01*
X32076485Y-42939547D01*
X32042000Y-43157278D01*
X32042000Y-43377721D01*
X32076485Y-43595452D01*
X32144603Y-43805103D01*
X32144604Y-43805106D01*
X32244687Y-44001525D01*
X32374252Y-44179858D01*
X32374256Y-44179863D01*
X32530136Y-44335743D01*
X32530141Y-44335747D01*
X32685692Y-44448760D01*
X32708478Y-44465315D01*
X32836875Y-44530737D01*
X32904893Y-44565395D01*
X32904896Y-44565396D01*
X33009721Y-44599455D01*
X33114549Y-44633515D01*
X33332278Y-44668000D01*
X33332279Y-44668000D01*
X33552721Y-44668000D01*
X33552722Y-44668000D01*
X33770451Y-44633515D01*
X33787329Y-44628031D01*
X33857170Y-44626032D01*
X33913333Y-44658279D01*
X35320325Y-46065272D01*
X35320332Y-46065278D01*
X35426868Y-46136462D01*
X35426874Y-46136466D01*
X35496221Y-46165189D01*
X35545256Y-46185501D01*
X35545259Y-46185501D01*
X35545260Y-46185502D01*
X35670928Y-46210500D01*
X35670931Y-46210500D01*
X35799069Y-46210500D01*
X45859292Y-46210500D01*
X45926331Y-46230185D01*
X45946973Y-46246819D01*
X53705425Y-54005272D01*
X53705428Y-54005275D01*
X53778497Y-54054098D01*
X53823302Y-54107710D01*
X53832009Y-54177035D01*
X53801854Y-54240063D01*
X53742411Y-54276782D01*
X53709606Y-54281200D01*
X34066700Y-54281200D01*
X33999661Y-54261515D01*
X33953906Y-54208711D01*
X33942700Y-54157200D01*
X33942700Y-53228128D01*
X33917702Y-53102461D01*
X33917701Y-53102460D01*
X33917701Y-53102456D01*
X33868665Y-52984073D01*
X33828215Y-52923535D01*
X33812846Y-52900533D01*
X33797479Y-52877533D01*
X33307137Y-52387191D01*
X33273652Y-52325868D01*
X33272345Y-52280112D01*
X33300500Y-52102351D01*
X33300500Y-51897648D01*
X33268477Y-51695465D01*
X33239127Y-51605137D01*
X33205220Y-51500781D01*
X33205218Y-51500778D01*
X33205218Y-51500776D01*
X33171503Y-51434607D01*
X33112287Y-51318390D01*
X33104556Y-51307749D01*
X32991971Y-51152786D01*
X32847217Y-51008032D01*
X32847212Y-51008028D01*
X32701615Y-50902246D01*
X32658949Y-50846916D01*
X32650500Y-50801928D01*
X32650500Y-49198070D01*
X32670185Y-49131031D01*
X32701613Y-49097753D01*
X32847219Y-48991966D01*
X32991966Y-48847219D01*
X32991968Y-48847215D01*
X32991971Y-48847213D01*
X33072495Y-48736379D01*
X33112287Y-48681610D01*
X33205220Y-48499219D01*
X33268477Y-48304534D01*
X33300500Y-48102352D01*
X33300500Y-47897648D01*
X33274188Y-47731522D01*
X33268477Y-47695465D01*
X33215152Y-47531349D01*
X33205220Y-47500781D01*
X33205218Y-47500778D01*
X33205218Y-47500776D01*
X33137383Y-47367644D01*
X33112287Y-47318390D01*
X33090256Y-47288066D01*
X32991971Y-47152786D01*
X32847213Y-47008028D01*
X32681613Y-46887715D01*
X32681612Y-46887714D01*
X32681610Y-46887713D01*
X32621511Y-46857091D01*
X32499223Y-46794781D01*
X32304534Y-46731522D01*
X32129995Y-46703878D01*
X32102352Y-46699500D01*
X31897648Y-46699500D01*
X31873329Y-46703351D01*
X31695465Y-46731522D01*
X31500776Y-46794781D01*
X31318386Y-46887715D01*
X31152786Y-47008028D01*
X31008028Y-47152786D01*
X30887715Y-47318386D01*
X30794781Y-47500776D01*
X30731522Y-47695465D01*
X30699500Y-47897648D01*
X30699500Y-48102351D01*
X30731522Y-48304534D01*
X30794781Y-48499223D01*
X30855303Y-48618002D01*
X30883902Y-48674131D01*
X30887715Y-48681613D01*
X31008028Y-48847213D01*
X31152784Y-48991969D01*
X31221863Y-49042157D01*
X31298385Y-49097753D01*
X31341051Y-49153081D01*
X31349500Y-49198070D01*
X31349500Y-50801928D01*
X31329815Y-50868967D01*
X31298385Y-50902246D01*
X31152787Y-51008028D01*
X31152782Y-51008032D01*
X31008028Y-51152786D01*
X30887715Y-51318386D01*
X30794781Y-51500776D01*
X30731522Y-51695465D01*
X30699500Y-51897648D01*
X30699500Y-52102351D01*
X30731522Y-52304534D01*
X30794781Y-52499223D01*
X30858691Y-52624653D01*
X30873023Y-52652780D01*
X30887715Y-52681613D01*
X31008028Y-52847213D01*
X31152786Y-52991971D01*
X31304857Y-53102455D01*
X31318390Y-53112287D01*
X31434607Y-53171503D01*
X31500776Y-53205218D01*
X31500778Y-53205218D01*
X31500781Y-53205220D01*
X31571285Y-53228128D01*
X31695465Y-53268477D01*
X31796557Y-53284488D01*
X31897648Y-53300500D01*
X31897649Y-53300500D01*
X32102351Y-53300500D01*
X32102352Y-53300500D01*
X32280112Y-53272345D01*
X32349405Y-53281299D01*
X32387191Y-53307137D01*
X32605381Y-53525327D01*
X32638866Y-53586650D01*
X32641700Y-53613008D01*
X32641700Y-54610890D01*
X32633055Y-54640327D01*
X32626532Y-54670318D01*
X32622777Y-54675333D01*
X32622015Y-54677929D01*
X32605380Y-54698572D01*
X32560461Y-54743490D01*
X32499138Y-54776975D01*
X32434463Y-54773739D01*
X32304536Y-54731523D01*
X32169746Y-54710174D01*
X32102352Y-54699500D01*
X31897648Y-54699500D01*
X31873329Y-54703351D01*
X31695465Y-54731522D01*
X31500776Y-54794781D01*
X31318386Y-54887715D01*
X31152786Y-55008028D01*
X31008028Y-55152786D01*
X30887715Y-55318386D01*
X30794781Y-55500776D01*
X30731522Y-55695465D01*
X30699500Y-55897648D01*
X30699500Y-56102351D01*
X30731522Y-56304534D01*
X30794781Y-56499223D01*
X30887715Y-56681613D01*
X31008028Y-56847213D01*
X31152786Y-56991971D01*
X31307749Y-57104556D01*
X31318390Y-57112287D01*
X31420008Y-57164064D01*
X31500776Y-57205218D01*
X31500778Y-57205218D01*
X31500781Y-57205220D01*
X31605137Y-57239127D01*
X31695465Y-57268477D01*
X31796557Y-57284488D01*
X31897648Y-57300500D01*
X31897649Y-57300500D01*
X32102351Y-57300500D01*
X32102352Y-57300500D01*
X32304534Y-57268477D01*
X32499219Y-57205220D01*
X32681610Y-57112287D01*
X32774590Y-57044732D01*
X32847213Y-56991971D01*
X32847215Y-56991968D01*
X32847219Y-56991966D01*
X32991966Y-56847219D01*
X32991968Y-56847215D01*
X32991971Y-56847213D01*
X33044732Y-56774590D01*
X33112287Y-56681610D01*
X33205220Y-56499219D01*
X33268477Y-56304534D01*
X33300500Y-56102352D01*
X33300500Y-55897648D01*
X33300500Y-55894707D01*
X33320185Y-55827668D01*
X33336819Y-55807026D01*
X33525327Y-55618519D01*
X33586650Y-55585034D01*
X33613008Y-55582200D01*
X59817471Y-55582200D01*
X59902015Y-55565382D01*
X59943144Y-55557201D01*
X60061527Y-55508165D01*
X60081643Y-55494724D01*
X60168069Y-55436977D01*
X67614276Y-47990770D01*
X67668077Y-47910250D01*
X67685464Y-47884229D01*
X67685465Y-47884227D01*
X67734501Y-47765844D01*
X67741473Y-47730790D01*
X67743819Y-47719001D01*
X67743819Y-47718999D01*
X67748501Y-47695465D01*
X67759500Y-47640169D01*
X67759500Y-42528631D01*
X67759500Y-42528628D01*
X67734502Y-42402961D01*
X67734501Y-42402960D01*
X67734501Y-42402956D01*
X67685465Y-42284573D01*
X67671733Y-42264022D01*
X67671731Y-42264019D01*
X67671731Y-42264018D01*
X67614280Y-42178036D01*
X67614277Y-42178031D01*
X61226819Y-35790573D01*
X61193334Y-35729250D01*
X61190500Y-35702892D01*
X61190500Y-29917000D01*
X61210185Y-29849961D01*
X61262989Y-29804206D01*
X61314500Y-29793000D01*
X61396613Y-29793000D01*
X61396616Y-29793000D01*
X61467196Y-29786586D01*
X61629606Y-29735978D01*
X61775185Y-29647972D01*
X61895472Y-29527685D01*
X61983478Y-29382106D01*
X62034086Y-29219696D01*
X62040500Y-29149116D01*
X62040500Y-26685884D01*
X62034086Y-26615304D01*
X61983478Y-26452894D01*
X61895472Y-26307315D01*
X61895470Y-26307313D01*
X61895469Y-26307311D01*
X61775188Y-26187030D01*
X61745849Y-26169294D01*
X61629606Y-26099022D01*
X61467196Y-26048414D01*
X61467194Y-26048413D01*
X61467192Y-26048413D01*
X61417778Y-26043923D01*
X61396616Y-26042000D01*
X59683384Y-26042000D01*
X59664145Y-26043748D01*
X59612807Y-26048413D01*
X59450393Y-26099022D01*
X59334150Y-26169294D01*
X59266595Y-26187130D01*
X59205850Y-26169294D01*
X59089606Y-26099022D01*
X58927196Y-26048414D01*
X58927194Y-26048413D01*
X58927192Y-26048413D01*
X58877778Y-26043923D01*
X58856616Y-26042000D01*
X58856613Y-26042000D01*
X58774500Y-26042000D01*
X58707461Y-26022315D01*
X58661706Y-25969511D01*
X58650500Y-25918000D01*
X58650500Y-21820807D01*
X58670185Y-21753768D01*
X58686815Y-21733130D01*
X58974503Y-21445441D01*
X59035824Y-21411958D01*
X59100497Y-21415192D01*
X59183757Y-21442246D01*
X59393713Y-21475500D01*
X59393714Y-21475500D01*
X59606286Y-21475500D01*
X59606287Y-21475500D01*
X59816243Y-21442246D01*
X60018412Y-21376557D01*
X60207816Y-21280051D01*
X60310813Y-21205220D01*
X60379786Y-21155109D01*
X60379788Y-21155106D01*
X60379792Y-21155104D01*
X60530104Y-21004792D01*
X60530106Y-21004788D01*
X60530109Y-21004786D01*
X60655048Y-20832820D01*
X60655047Y-20832820D01*
X60655051Y-20832816D01*
X60751557Y-20643412D01*
X60817246Y-20441243D01*
X60850500Y-20231287D01*
X60850500Y-19768713D01*
X60817246Y-19558757D01*
X60751557Y-19356588D01*
X60655051Y-19167184D01*
X60655049Y-19167181D01*
X60655048Y-19167179D01*
X60530109Y-18995213D01*
X60379786Y-18844890D01*
X60207820Y-18719951D01*
X60018414Y-18623444D01*
X60018413Y-18623443D01*
X60018412Y-18623443D01*
X59816243Y-18557754D01*
X59816241Y-18557753D01*
X59816240Y-18557753D01*
X59654957Y-18532208D01*
X59606287Y-18524500D01*
X59393713Y-18524500D01*
X59345042Y-18532208D01*
X59183760Y-18557753D01*
X58981585Y-18623444D01*
X58792179Y-18719951D01*
X58620213Y-18844890D01*
X58469894Y-18995209D01*
X58469890Y-18995214D01*
X58350318Y-19159793D01*
X58294989Y-19202459D01*
X58225375Y-19208438D01*
X58163580Y-19175833D01*
X58149682Y-19159793D01*
X58030109Y-18995214D01*
X58030105Y-18995209D01*
X57879786Y-18844890D01*
X57707820Y-18719951D01*
X57518414Y-18623444D01*
X57518413Y-18623443D01*
X57518412Y-18623443D01*
X57316243Y-18557754D01*
X57316241Y-18557753D01*
X57316240Y-18557753D01*
X57154957Y-18532208D01*
X57106287Y-18524500D01*
X56893713Y-18524500D01*
X56845042Y-18532208D01*
X56683760Y-18557753D01*
X56481585Y-18623444D01*
X56292179Y-18719951D01*
X56120213Y-18844890D01*
X55969890Y-18995213D01*
X55844951Y-19167179D01*
X55748444Y-19356585D01*
X55682753Y-19558760D01*
X55649500Y-19768713D01*
X55649500Y-20202415D01*
X55629815Y-20269454D01*
X55613181Y-20290096D01*
X55282056Y-20621222D01*
X54965648Y-20937630D01*
X54911638Y-20991640D01*
X54857628Y-21045649D01*
X54772764Y-21172656D01*
X54772759Y-21172665D01*
X54714302Y-21313794D01*
X54714300Y-21313802D01*
X54684500Y-21463615D01*
X54684500Y-25921386D01*
X54664815Y-25988425D01*
X54612011Y-26034180D01*
X54571724Y-26044877D01*
X54556126Y-26046294D01*
X54532804Y-26048414D01*
X54424530Y-26082152D01*
X54370393Y-26099022D01*
X54254150Y-26169294D01*
X54186595Y-26187130D01*
X54125850Y-26169294D01*
X54009606Y-26099022D01*
X53847196Y-26048414D01*
X53847194Y-26048413D01*
X53847192Y-26048413D01*
X53797778Y-26043923D01*
X53776616Y-26042000D01*
X52063384Y-26042000D01*
X52044145Y-26043748D01*
X51992807Y-26048413D01*
X51830393Y-26099022D01*
X51714150Y-26169294D01*
X51646595Y-26187130D01*
X51585850Y-26169294D01*
X51469606Y-26099022D01*
X51307196Y-26048414D01*
X51307194Y-26048413D01*
X51307192Y-26048413D01*
X51257778Y-26043923D01*
X51236616Y-26042000D01*
X49523384Y-26042000D01*
X49504145Y-26043748D01*
X49452807Y-26048413D01*
X49290393Y-26099022D01*
X49144811Y-26187030D01*
X49024530Y-26307311D01*
X48936522Y-26452893D01*
X48885913Y-26615307D01*
X48879500Y-26685886D01*
X48879500Y-28970500D01*
X48859815Y-29037539D01*
X48807011Y-29083294D01*
X48755500Y-29094500D01*
X43879485Y-29094500D01*
X43812446Y-29074815D01*
X43791804Y-29058181D01*
X36120409Y-21386787D01*
X36086924Y-21325464D01*
X36091908Y-21255772D01*
X36133780Y-21199839D01*
X36151789Y-21188624D01*
X36301610Y-21112287D01*
X36322770Y-21096913D01*
X36467213Y-20991971D01*
X36467215Y-20991968D01*
X36467219Y-20991966D01*
X36611966Y-20847219D01*
X36611968Y-20847215D01*
X36611971Y-20847213D01*
X36664732Y-20774590D01*
X36732287Y-20681610D01*
X36825220Y-20499219D01*
X36888477Y-20304534D01*
X36920500Y-20102352D01*
X36920500Y-19897648D01*
X36888477Y-19695466D01*
X36825220Y-19500781D01*
X36825218Y-19500778D01*
X36825218Y-19500776D01*
X36771290Y-19394938D01*
X36732287Y-19318390D01*
X36724556Y-19307749D01*
X36611971Y-19152786D01*
X36467213Y-19008028D01*
X36301614Y-18887715D01*
X36295006Y-18884348D01*
X36208917Y-18840483D01*
X36158123Y-18792511D01*
X36141328Y-18724690D01*
X36163865Y-18658555D01*
X36208917Y-18619516D01*
X36301610Y-18572287D01*
X36334865Y-18548126D01*
X36467213Y-18451971D01*
X36467215Y-18451968D01*
X36467219Y-18451966D01*
X36611966Y-18307219D01*
X36611970Y-18307214D01*
X36611971Y-18307213D01*
X36664732Y-18234590D01*
X36732287Y-18141610D01*
X36825220Y-17959219D01*
X36888477Y-17764534D01*
X36920500Y-17562352D01*
X36920500Y-17357648D01*
X36901636Y-17238547D01*
X36888477Y-17155465D01*
X36849405Y-17035216D01*
X36825220Y-16960781D01*
X36825218Y-16960778D01*
X36825218Y-16960776D01*
X36772661Y-16857629D01*
X36732287Y-16778390D01*
X36724556Y-16767749D01*
X36611971Y-16612786D01*
X36467213Y-16468028D01*
X36301613Y-16347715D01*
X36301612Y-16347714D01*
X36301610Y-16347713D01*
X36237831Y-16315216D01*
X36119223Y-16254781D01*
X35924534Y-16191522D01*
X35749995Y-16163878D01*
X35722352Y-16159500D01*
X35517648Y-16159500D01*
X35493329Y-16163351D01*
X35315465Y-16191522D01*
X35120776Y-16254781D01*
X34938386Y-16347715D01*
X34772786Y-16468028D01*
X34628028Y-16612786D01*
X34507715Y-16778386D01*
X34414781Y-16960776D01*
X34351522Y-17155465D01*
X34319500Y-17357648D01*
X34319500Y-17562351D01*
X34351522Y-17764534D01*
X34414781Y-17959223D01*
X34507715Y-18141613D01*
X34628028Y-18307213D01*
X34772786Y-18451971D01*
X34918387Y-18557754D01*
X34938390Y-18572287D01*
X34997396Y-18602352D01*
X35031080Y-18619515D01*
X35081876Y-18667490D01*
X35098671Y-18735311D01*
X35076134Y-18801446D01*
X35031080Y-18840485D01*
X34938386Y-18887715D01*
X34772786Y-19008028D01*
X34628028Y-19152786D01*
X34507712Y-19318389D01*
X34507711Y-19318391D01*
X34431377Y-19468204D01*
X34383403Y-19519000D01*
X34315582Y-19535795D01*
X34249447Y-19513257D01*
X34233212Y-19499590D01*
X31591255Y-16857632D01*
X31591251Y-16857629D01*
X31464243Y-16772764D01*
X31464234Y-16772759D01*
X31323105Y-16714302D01*
X31323097Y-16714300D01*
X31173284Y-16684500D01*
X31173280Y-16684500D01*
X29107254Y-16684500D01*
X29040215Y-16664815D01*
X29006936Y-16633385D01*
X28991969Y-16612785D01*
X28991964Y-16612779D01*
X28847213Y-16468028D01*
X28681614Y-16347715D01*
X28675006Y-16344348D01*
X28588917Y-16300483D01*
X28538123Y-16252511D01*
X28521328Y-16184690D01*
X28543865Y-16118555D01*
X28588917Y-16079516D01*
X28681610Y-16032287D01*
X28702770Y-16016913D01*
X28847213Y-15911971D01*
X28847215Y-15911968D01*
X28847219Y-15911966D01*
X28991966Y-15767219D01*
X28991968Y-15767215D01*
X28991971Y-15767213D01*
X29048315Y-15689660D01*
X29112287Y-15601610D01*
X29205220Y-15419219D01*
X29268477Y-15224534D01*
X29300500Y-15022352D01*
X29300500Y-14817648D01*
X29268477Y-14615466D01*
X29205220Y-14420781D01*
X29205218Y-14420778D01*
X29205218Y-14420776D01*
X29171503Y-14354607D01*
X29112287Y-14238390D01*
X29088269Y-14205332D01*
X28991971Y-14072786D01*
X28847213Y-13928028D01*
X28681614Y-13807715D01*
X28675006Y-13804348D01*
X28588917Y-13760483D01*
X28538123Y-13712511D01*
X28521328Y-13644690D01*
X28543865Y-13578555D01*
X28588917Y-13539516D01*
X28681610Y-13492287D01*
X28749845Y-13442712D01*
X28847213Y-13371971D01*
X28847215Y-13371968D01*
X28847219Y-13371966D01*
X28991966Y-13227219D01*
X28991968Y-13227215D01*
X28991971Y-13227213D01*
X29073587Y-13114876D01*
X29112287Y-13061610D01*
X29205220Y-12879219D01*
X29268477Y-12684534D01*
X29300500Y-12482352D01*
X29300500Y-12298294D01*
X29320185Y-12231255D01*
X29336819Y-12210613D01*
X30845615Y-10701819D01*
X30906938Y-10668334D01*
X30933296Y-10665500D01*
X34554953Y-10665500D01*
X34621992Y-10685185D01*
X34642634Y-10701819D01*
X34772786Y-10831971D01*
X34927749Y-10944556D01*
X34938390Y-10952287D01*
X35029840Y-10998883D01*
X35031080Y-10999515D01*
X35081876Y-11047490D01*
X35098671Y-11115311D01*
X35076134Y-11181446D01*
X35031080Y-11220485D01*
X34938386Y-11267715D01*
X34772786Y-11388028D01*
X34628028Y-11532786D01*
X34507715Y-11698386D01*
X34414781Y-11880776D01*
X34351522Y-12075465D01*
X34319500Y-12277648D01*
X34319500Y-12482351D01*
X34351522Y-12684534D01*
X34414781Y-12879223D01*
X34472451Y-12992405D01*
X34498055Y-13042656D01*
X34507715Y-13061613D01*
X34628028Y-13227213D01*
X34772786Y-13371971D01*
X34870155Y-13442712D01*
X34938390Y-13492287D01*
X35021850Y-13534812D01*
X35120776Y-13585218D01*
X35120778Y-13585218D01*
X35120781Y-13585220D01*
X35202297Y-13611706D01*
X35315465Y-13648477D01*
X35416557Y-13664488D01*
X35517648Y-13680500D01*
X35517649Y-13680500D01*
X35722351Y-13680500D01*
X35722352Y-13680500D01*
X35924534Y-13648477D01*
X36119219Y-13585220D01*
X36301610Y-13492287D01*
X36394590Y-13424732D01*
X36467213Y-13371971D01*
X36467215Y-13371968D01*
X36467219Y-13371966D01*
X36611966Y-13227219D01*
X36658244Y-13163522D01*
X36713572Y-13120857D01*
X36783185Y-13114876D01*
X36844981Y-13147481D01*
X36861664Y-13167516D01*
X36923829Y-13260551D01*
X36923832Y-13260555D01*
X38647586Y-14984308D01*
X38681071Y-15045631D01*
X38682378Y-15091386D01*
X38659500Y-15235837D01*
X38659500Y-15464162D01*
X38695215Y-15689660D01*
X38765770Y-15906803D01*
X38829708Y-16032287D01*
X38869421Y-16110228D01*
X39003621Y-16294937D01*
X39165063Y-16456379D01*
X39349772Y-16590579D01*
X39393354Y-16612785D01*
X39553200Y-16694231D01*
X39553202Y-16694231D01*
X39556170Y-16695195D01*
X39559414Y-16696250D01*
X39617091Y-16735685D01*
X39644291Y-16800043D01*
X39645100Y-16814182D01*
X39645100Y-17171508D01*
X39625415Y-17238547D01*
X39572611Y-17284302D01*
X39503453Y-17294246D01*
X39482782Y-17289439D01*
X39304536Y-17231523D01*
X39164990Y-17209421D01*
X39102352Y-17199500D01*
X38897648Y-17199500D01*
X38873329Y-17203351D01*
X38695465Y-17231522D01*
X38500776Y-17294781D01*
X38318386Y-17387715D01*
X38152786Y-17508028D01*
X38008028Y-17652786D01*
X37887715Y-17818386D01*
X37794781Y-18000776D01*
X37731522Y-18195465D01*
X37699500Y-18397648D01*
X37699500Y-18602351D01*
X37731522Y-18804534D01*
X37794781Y-18999223D01*
X37799271Y-19008034D01*
X37884769Y-19175833D01*
X37887715Y-19181613D01*
X38008028Y-19347213D01*
X38152786Y-19491971D01*
X38307749Y-19604556D01*
X38318390Y-19612287D01*
X38434607Y-19671503D01*
X38500776Y-19705218D01*
X38500778Y-19705218D01*
X38500781Y-19705220D01*
X38605137Y-19739127D01*
X38695465Y-19768477D01*
X38796557Y-19784488D01*
X38897648Y-19800500D01*
X38897649Y-19800500D01*
X39102351Y-19800500D01*
X39102352Y-19800500D01*
X39304534Y-19768477D01*
X39482784Y-19710559D01*
X39552622Y-19708565D01*
X39612455Y-19744645D01*
X39643284Y-19807345D01*
X39645100Y-19828491D01*
X39645100Y-20955744D01*
X39625415Y-21022783D01*
X39624202Y-21024635D01*
X39622588Y-21027049D01*
X39622587Y-21027052D01*
X39554706Y-21190932D01*
X39554703Y-21190941D01*
X39520100Y-21364904D01*
X39520100Y-21542295D01*
X39554703Y-21716258D01*
X39554706Y-21716267D01*
X39622583Y-21880140D01*
X39622590Y-21880153D01*
X39721135Y-22027634D01*
X39721138Y-22027638D01*
X39846561Y-22153061D01*
X39846565Y-22153064D01*
X39994046Y-22251609D01*
X39994059Y-22251616D01*
X40116963Y-22302523D01*
X40157934Y-22319494D01*
X40157936Y-22319494D01*
X40157941Y-22319496D01*
X40331904Y-22354099D01*
X40331907Y-22354100D01*
X40331909Y-22354100D01*
X40509293Y-22354100D01*
X40509294Y-22354099D01*
X40567282Y-22342564D01*
X40683258Y-22319496D01*
X40683261Y-22319494D01*
X40683266Y-22319494D01*
X40847147Y-22251613D01*
X40994635Y-22153064D01*
X41120064Y-22027635D01*
X41218613Y-21880147D01*
X41286494Y-21716266D01*
X41321100Y-21542291D01*
X41321100Y-21364909D01*
X41321100Y-21364906D01*
X41321099Y-21364904D01*
X41286496Y-21190941D01*
X41286493Y-21190932D01*
X41271653Y-21155104D01*
X41218613Y-21027053D01*
X41218611Y-21027051D01*
X41218611Y-21027049D01*
X41216998Y-21024635D01*
X41216541Y-21023175D01*
X41215738Y-21021673D01*
X41216022Y-21021520D01*
X41196120Y-20957957D01*
X41196100Y-20955744D01*
X41196100Y-19224983D01*
X50649500Y-19224983D01*
X50649500Y-20775001D01*
X50649501Y-20775018D01*
X50660000Y-20877796D01*
X50660001Y-20877799D01*
X50708658Y-21024635D01*
X50715186Y-21044334D01*
X50807288Y-21193656D01*
X50931344Y-21317712D01*
X51080666Y-21409814D01*
X51247203Y-21464999D01*
X51349991Y-21475500D01*
X52650008Y-21475499D01*
X52752797Y-21464999D01*
X52919334Y-21409814D01*
X53068656Y-21317712D01*
X53192712Y-21193656D01*
X53284814Y-21044334D01*
X53339999Y-20877797D01*
X53350500Y-20775009D01*
X53350499Y-19224992D01*
X53346067Y-19181610D01*
X53339999Y-19122203D01*
X53339998Y-19122200D01*
X53301758Y-19006801D01*
X53284814Y-18955666D01*
X53192712Y-18806344D01*
X53068656Y-18682288D01*
X52919334Y-18590186D01*
X52919333Y-18590185D01*
X52919332Y-18590185D01*
X52910493Y-18587256D01*
X52853049Y-18547482D01*
X52826228Y-18482965D01*
X52825500Y-18469551D01*
X52825500Y-13724500D01*
X52845185Y-13657461D01*
X52897989Y-13611706D01*
X52949500Y-13600500D01*
X52965961Y-13600500D01*
X52965962Y-13600500D01*
X53214785Y-13561090D01*
X53454379Y-13483241D01*
X53678845Y-13368870D01*
X53882656Y-13220793D01*
X54060793Y-13042656D01*
X54208870Y-12838845D01*
X54323241Y-12614379D01*
X54401090Y-12374785D01*
X54440500Y-12125962D01*
X54440500Y-11874038D01*
X54401090Y-11625215D01*
X54323241Y-11385621D01*
X54323239Y-11385618D01*
X54323239Y-11385616D01*
X54239100Y-11220485D01*
X54208870Y-11161155D01*
X54208865Y-11161148D01*
X54164426Y-11099982D01*
X61399500Y-11099982D01*
X61399500Y-12900017D01*
X61410000Y-13002796D01*
X61429489Y-13061610D01*
X61465186Y-13169335D01*
X61557288Y-13318656D01*
X61681344Y-13442712D01*
X61830665Y-13534814D01*
X61997202Y-13589999D01*
X62099990Y-13600500D01*
X63629192Y-13600500D01*
X63696231Y-13620185D01*
X63716873Y-13636819D01*
X64933181Y-14853127D01*
X64966666Y-14914450D01*
X64969500Y-14940808D01*
X64969500Y-25918000D01*
X64949815Y-25985039D01*
X64897011Y-26030794D01*
X64845500Y-26042000D01*
X64763384Y-26042000D01*
X64744145Y-26043748D01*
X64692807Y-26048413D01*
X64530393Y-26099022D01*
X64384811Y-26187030D01*
X64264530Y-26307311D01*
X64176522Y-26452893D01*
X64125913Y-26615307D01*
X64119500Y-26685886D01*
X64119500Y-29149113D01*
X64125913Y-29219692D01*
X64176522Y-29382106D01*
X64264530Y-29527688D01*
X64384811Y-29647969D01*
X64384813Y-29647970D01*
X64384815Y-29647972D01*
X64530394Y-29735978D01*
X64692804Y-29786586D01*
X64763384Y-29793000D01*
X64763387Y-29793000D01*
X66476613Y-29793000D01*
X66476616Y-29793000D01*
X66547196Y-29786586D01*
X66709606Y-29735978D01*
X66855185Y-29647972D01*
X66975472Y-29527685D01*
X67063478Y-29382106D01*
X67114086Y-29219696D01*
X67120500Y-29149116D01*
X67120500Y-26685884D01*
X67114086Y-26615304D01*
X67063478Y-26452894D01*
X66975472Y-26307315D01*
X66975470Y-26307313D01*
X66975469Y-26307311D01*
X66855188Y-26187030D01*
X66825849Y-26169294D01*
X66709606Y-26099022D01*
X66547196Y-26048414D01*
X66547194Y-26048413D01*
X66547192Y-26048413D01*
X66497778Y-26043923D01*
X66476616Y-26042000D01*
X66476613Y-26042000D01*
X66394500Y-26042000D01*
X66327461Y-26022315D01*
X66281706Y-25969511D01*
X66270500Y-25918000D01*
X66270500Y-14555928D01*
X66245502Y-14430260D01*
X66245500Y-14430254D01*
X66225189Y-14381221D01*
X66225187Y-14381216D01*
X66196468Y-14311878D01*
X66196462Y-14311868D01*
X66125278Y-14205332D01*
X66125272Y-14205325D01*
X64636819Y-12716872D01*
X64603334Y-12655549D01*
X64600500Y-12629191D01*
X64600500Y-11099995D01*
X64600499Y-11099982D01*
X64595136Y-11047490D01*
X64589999Y-10997202D01*
X64534814Y-10830665D01*
X64442712Y-10681344D01*
X64318656Y-10557288D01*
X64169335Y-10465186D01*
X64002798Y-10410001D01*
X64002796Y-10410000D01*
X63900017Y-10399500D01*
X63900010Y-10399500D01*
X62099990Y-10399500D01*
X62099982Y-10399500D01*
X61997203Y-10410000D01*
X61997202Y-10410001D01*
X61914669Y-10437349D01*
X61830667Y-10465185D01*
X61830662Y-10465187D01*
X61681342Y-10557289D01*
X61557289Y-10681342D01*
X61465187Y-10830662D01*
X61465185Y-10830667D01*
X61459492Y-10847847D01*
X61410001Y-10997202D01*
X61410001Y-10997203D01*
X61410000Y-10997203D01*
X61399500Y-11099982D01*
X54164426Y-11099982D01*
X54060798Y-10957350D01*
X54060794Y-10957345D01*
X53882654Y-10779205D01*
X53882649Y-10779201D01*
X53678848Y-10631132D01*
X53678847Y-10631131D01*
X53678845Y-10631130D01*
X53608747Y-10595413D01*
X53454383Y-10516760D01*
X53214785Y-10438910D01*
X52965962Y-10399500D01*
X52714038Y-10399500D01*
X52647738Y-10410001D01*
X52465214Y-10438910D01*
X52225616Y-10516760D01*
X52001151Y-10631132D01*
X51797350Y-10779201D01*
X51797345Y-10779205D01*
X51619205Y-10957345D01*
X51619201Y-10957350D01*
X51471132Y-11161151D01*
X51356760Y-11385616D01*
X51278910Y-11625214D01*
X51239500Y-11874038D01*
X51239500Y-12125961D01*
X51279070Y-12375798D01*
X51270362Y-12443177D01*
X51270783Y-12443352D01*
X51270138Y-12444906D01*
X51270115Y-12445092D01*
X51269756Y-12445830D01*
X51206224Y-12599210D01*
X51206222Y-12599216D01*
X51174500Y-12758692D01*
X51174500Y-18469551D01*
X51154815Y-18536590D01*
X51102011Y-18582345D01*
X51089507Y-18587256D01*
X51080667Y-18590185D01*
X50931342Y-18682289D01*
X50807289Y-18806342D01*
X50715187Y-18955663D01*
X50715185Y-18955668D01*
X50697835Y-19008028D01*
X50660001Y-19122203D01*
X50660001Y-19122204D01*
X50660000Y-19122204D01*
X50649500Y-19224983D01*
X41196100Y-19224983D01*
X41196100Y-16363138D01*
X41215785Y-16296099D01*
X41219768Y-16290272D01*
X41350579Y-16110228D01*
X41454231Y-15906799D01*
X41524784Y-15689660D01*
X41560500Y-15464162D01*
X41560500Y-15235837D01*
X41524784Y-15010339D01*
X41473702Y-14853127D01*
X41454231Y-14793201D01*
X41454229Y-14793198D01*
X41454229Y-14793196D01*
X41399550Y-14685884D01*
X41350579Y-14589772D01*
X41216379Y-14405063D01*
X41054937Y-14243621D01*
X40870228Y-14109421D01*
X40824660Y-14086203D01*
X40666803Y-14005770D01*
X40449660Y-13935215D01*
X40224162Y-13899500D01*
X40224157Y-13899500D01*
X39995843Y-13899500D01*
X39995837Y-13899500D01*
X39851386Y-13922378D01*
X39782093Y-13913423D01*
X39744308Y-13887586D01*
X38338019Y-12481297D01*
X38304534Y-12419974D01*
X38301700Y-12393616D01*
X38301700Y-9306133D01*
X38321385Y-9239094D01*
X38374189Y-9193339D01*
X38443347Y-9183395D01*
X38481996Y-9195649D01*
X38500774Y-9205217D01*
X38500777Y-9205217D01*
X38500781Y-9205220D01*
X38635245Y-9248910D01*
X38695465Y-9268477D01*
X38796557Y-9284488D01*
X38897648Y-9300500D01*
X38897649Y-9300500D01*
X39102351Y-9300500D01*
X39102352Y-9300500D01*
X39304534Y-9268477D01*
X39499219Y-9205220D01*
X39681610Y-9112287D01*
X39774590Y-9044732D01*
X39847213Y-8991971D01*
X39847215Y-8991968D01*
X39847219Y-8991966D01*
X39991966Y-8847219D01*
X39991968Y-8847215D01*
X39991971Y-8847213D01*
X40078791Y-8727713D01*
X40112287Y-8681610D01*
X40205220Y-8499219D01*
X40268477Y-8304534D01*
X40300500Y-8102352D01*
X40300500Y-7897648D01*
X47859500Y-7897648D01*
X47859500Y-8102352D01*
X47860329Y-8107586D01*
X47891522Y-8304534D01*
X47954781Y-8499223D01*
X48047715Y-8681613D01*
X48168028Y-8847213D01*
X48312786Y-8991971D01*
X48461700Y-9100161D01*
X48478390Y-9112287D01*
X48594607Y-9171503D01*
X48660776Y-9205218D01*
X48660778Y-9205218D01*
X48660781Y-9205220D01*
X48765034Y-9239094D01*
X48855465Y-9268477D01*
X48956557Y-9284488D01*
X49057648Y-9300500D01*
X49057649Y-9300500D01*
X49262351Y-9300500D01*
X49262352Y-9300500D01*
X49464534Y-9268477D01*
X49659219Y-9205220D01*
X49841610Y-9112287D01*
X49934590Y-9044732D01*
X50007213Y-8991971D01*
X50007215Y-8991968D01*
X50007219Y-8991966D01*
X50151966Y-8847219D01*
X50151968Y-8847215D01*
X50151971Y-8847213D01*
X50238791Y-8727713D01*
X50272287Y-8681610D01*
X50365220Y-8499219D01*
X50428477Y-8304534D01*
X50460500Y-8102352D01*
X50460500Y-7897648D01*
X50428477Y-7695466D01*
X50365220Y-7500781D01*
X50365218Y-7500778D01*
X50365218Y-7500776D01*
X50315067Y-7402351D01*
X50272287Y-7318390D01*
X50184564Y-7197648D01*
X50151971Y-7152786D01*
X50007213Y-7008028D01*
X49841613Y-6887715D01*
X49841612Y-6887714D01*
X49841610Y-6887713D01*
X49784653Y-6858691D01*
X49659223Y-6794781D01*
X49464534Y-6731522D01*
X49289995Y-6703878D01*
X49262352Y-6699500D01*
X49057648Y-6699500D01*
X49033329Y-6703351D01*
X48855465Y-6731522D01*
X48660776Y-6794781D01*
X48478386Y-6887715D01*
X48312786Y-7008028D01*
X48168028Y-7152786D01*
X48047715Y-7318386D01*
X47954781Y-7500776D01*
X47891522Y-7695465D01*
X47875089Y-7799223D01*
X47859500Y-7897648D01*
X40300500Y-7897648D01*
X40268477Y-7695466D01*
X40205220Y-7500781D01*
X40205218Y-7500778D01*
X40205218Y-7500776D01*
X40155067Y-7402351D01*
X40112287Y-7318390D01*
X40024564Y-7197648D01*
X39991971Y-7152786D01*
X39847213Y-7008028D01*
X39681613Y-6887715D01*
X39681612Y-6887714D01*
X39681610Y-6887713D01*
X39624653Y-6858691D01*
X39499223Y-6794781D01*
X39304534Y-6731522D01*
X39129995Y-6703878D01*
X39102352Y-6699500D01*
X38897648Y-6699500D01*
X38873329Y-6703351D01*
X38695465Y-6731522D01*
X38545976Y-6780095D01*
X38500781Y-6794780D01*
X38500778Y-6794781D01*
X38500773Y-6794783D01*
X38481992Y-6804352D01*
X38413322Y-6817247D01*
X38348583Y-6790969D01*
X38308327Y-6733861D01*
X38301700Y-6693866D01*
X38301700Y-4604421D01*
X38298267Y-4587161D01*
X38298267Y-4587158D01*
X38294424Y-4567837D01*
X38689500Y-4567837D01*
X38689500Y-4796162D01*
X38725215Y-5021660D01*
X38795770Y-5238803D01*
X38880693Y-5405472D01*
X38899421Y-5442228D01*
X39033621Y-5626937D01*
X39195063Y-5788379D01*
X39379772Y-5922579D01*
X39461743Y-5964345D01*
X39583196Y-6026229D01*
X39583198Y-6026229D01*
X39583201Y-6026231D01*
X39688670Y-6060500D01*
X39800339Y-6096784D01*
X40025838Y-6132500D01*
X40025843Y-6132500D01*
X40254162Y-6132500D01*
X40479660Y-6096784D01*
X40485828Y-6094780D01*
X40696799Y-6026231D01*
X40900228Y-5922579D01*
X41084937Y-5788379D01*
X41246379Y-5626937D01*
X41380579Y-5442228D01*
X41484231Y-5238799D01*
X41554784Y-5021660D01*
X41580016Y-4862352D01*
X41590500Y-4796162D01*
X41590500Y-4567837D01*
X41554784Y-4342339D01*
X41484229Y-4125196D01*
X41380578Y-3921771D01*
X41246379Y-3737063D01*
X41084937Y-3575621D01*
X40900228Y-3441421D01*
X40696803Y-3337770D01*
X40479660Y-3267215D01*
X40254162Y-3231500D01*
X40254157Y-3231500D01*
X40025843Y-3231500D01*
X40025838Y-3231500D01*
X39800339Y-3267215D01*
X39583196Y-3337770D01*
X39379771Y-3441421D01*
X39195061Y-3575622D01*
X39033622Y-3737061D01*
X38899421Y-3921771D01*
X38795770Y-4125196D01*
X38725215Y-4342339D01*
X38689500Y-4567837D01*
X38294424Y-4567837D01*
X38272071Y-4455466D01*
X38271898Y-4454595D01*
X38213439Y-4313463D01*
X38178238Y-4260781D01*
X38128570Y-4186447D01*
X38128567Y-4186443D01*
X36703755Y-2761632D01*
X36703751Y-2761629D01*
X36576743Y-2676764D01*
X36576734Y-2676759D01*
X36435605Y-2618302D01*
X36435597Y-2618300D01*
X36285784Y-2588500D01*
X36285780Y-2588500D01*
X27437380Y-2588500D01*
X27284620Y-2588500D01*
X27284615Y-2588500D01*
X27134802Y-2618300D01*
X27134794Y-2618302D01*
X26993665Y-2676759D01*
X26993656Y-2676764D01*
X26866648Y-2761629D01*
X26866644Y-2761632D01*
X24300690Y-5327586D01*
X24239367Y-5361071D01*
X24193612Y-5362378D01*
X24049163Y-5339500D01*
X24049157Y-5339500D01*
X23820843Y-5339500D01*
X23820838Y-5339500D01*
X23595339Y-5375215D01*
X23378196Y-5445770D01*
X23174771Y-5549421D01*
X22990061Y-5683622D01*
X22828622Y-5845061D01*
X22694421Y-6029771D01*
X22590770Y-6233196D01*
X22520215Y-6450339D01*
X22484500Y-6675837D01*
X22484500Y-6904162D01*
X22520215Y-7129660D01*
X22590770Y-7346803D01*
X22694421Y-7550228D01*
X22828621Y-7734937D01*
X22990063Y-7896379D01*
X23174772Y-8030579D01*
X23270884Y-8079550D01*
X23378196Y-8134229D01*
X23378198Y-8134229D01*
X23378201Y-8134231D01*
X23494592Y-8172049D01*
X23595339Y-8204784D01*
X23820838Y-8240500D01*
X23820843Y-8240500D01*
X24049162Y-8240500D01*
X24274660Y-8204784D01*
X24491799Y-8134231D01*
X24695228Y-8030579D01*
X24879937Y-7896379D01*
X25041379Y-7734937D01*
X25175579Y-7550228D01*
X25279231Y-7346799D01*
X25327693Y-7197648D01*
X26699500Y-7197648D01*
X26699500Y-7402351D01*
X26731522Y-7604534D01*
X26794781Y-7799223D01*
X26887715Y-7981613D01*
X27008028Y-8147213D01*
X27152786Y-8291971D01*
X27307749Y-8404556D01*
X27318390Y-8412287D01*
X27434607Y-8471503D01*
X27500776Y-8505218D01*
X27500778Y-8505218D01*
X27500781Y-8505220D01*
X27521008Y-8511792D01*
X27695465Y-8568477D01*
X27714697Y-8571523D01*
X27897648Y-8600500D01*
X27897649Y-8600500D01*
X28102351Y-8600500D01*
X28102352Y-8600500D01*
X28304534Y-8568477D01*
X28499219Y-8505220D01*
X28681610Y-8412287D01*
X28774590Y-8344732D01*
X28847213Y-8291971D01*
X28847215Y-8291968D01*
X28847219Y-8291966D01*
X28991966Y-8147219D01*
X28991968Y-8147215D01*
X28991971Y-8147213D01*
X29076710Y-8030578D01*
X29112287Y-7981610D01*
X29205220Y-7799219D01*
X29268477Y-7604534D01*
X29300500Y-7402352D01*
X29300500Y-7197648D01*
X29268477Y-6995466D01*
X29205220Y-6800781D01*
X29205218Y-6800778D01*
X29205218Y-6800776D01*
X29171503Y-6734607D01*
X29112287Y-6618390D01*
X29104556Y-6607749D01*
X28991971Y-6452786D01*
X28847213Y-6308028D01*
X28681613Y-6187715D01*
X28681612Y-6187714D01*
X28681610Y-6187713D01*
X28573249Y-6132500D01*
X28499223Y-6094781D01*
X28304534Y-6031522D01*
X28129995Y-6003878D01*
X28102352Y-5999500D01*
X27897648Y-5999500D01*
X27873329Y-6003351D01*
X27695465Y-6031522D01*
X27500776Y-6094781D01*
X27318386Y-6187715D01*
X27152786Y-6308028D01*
X27008028Y-6452786D01*
X26887715Y-6618386D01*
X26794781Y-6800776D01*
X26731522Y-6995465D01*
X26699500Y-7197648D01*
X25327693Y-7197648D01*
X25349784Y-7129660D01*
X25369049Y-7008028D01*
X25385500Y-6904162D01*
X25385500Y-6675838D01*
X25373734Y-6601558D01*
X25362620Y-6531385D01*
X25371574Y-6462094D01*
X25397409Y-6424311D01*
X27645903Y-4175819D01*
X27707226Y-4142334D01*
X27733584Y-4139500D01*
X34283515Y-4139500D01*
X34350554Y-4159185D01*
X34396309Y-4211989D01*
X34406253Y-4281147D01*
X34401446Y-4301818D01*
X34351523Y-4455461D01*
X34351523Y-4455464D01*
X34319500Y-4657648D01*
X34319500Y-4862351D01*
X34351522Y-5064534D01*
X34414781Y-5259223D01*
X34507715Y-5441613D01*
X34628028Y-5607213D01*
X34772786Y-5751971D01*
X34900916Y-5845061D01*
X34938390Y-5872287D01*
X35054607Y-5931503D01*
X35120776Y-5965218D01*
X35120778Y-5965218D01*
X35120781Y-5965220D01*
X35225137Y-5999127D01*
X35315465Y-6028477D01*
X35416557Y-6044488D01*
X35517648Y-6060500D01*
X35517649Y-6060500D01*
X35722351Y-6060500D01*
X35722352Y-6060500D01*
X35924534Y-6028477D01*
X36119219Y-5965220D01*
X36301610Y-5872287D01*
X36394590Y-5804732D01*
X36467213Y-5751971D01*
X36467215Y-5751968D01*
X36467219Y-5751966D01*
X36539019Y-5680166D01*
X36600342Y-5646681D01*
X36670034Y-5651665D01*
X36725967Y-5693537D01*
X36750384Y-5759001D01*
X36750700Y-5767847D01*
X36750700Y-8832153D01*
X36731015Y-8899192D01*
X36678211Y-8944947D01*
X36609053Y-8954891D01*
X36545497Y-8925866D01*
X36539019Y-8919834D01*
X36467213Y-8848028D01*
X36301613Y-8727715D01*
X36301612Y-8727714D01*
X36301610Y-8727713D01*
X36211128Y-8681610D01*
X36119223Y-8634781D01*
X35924534Y-8571522D01*
X35749995Y-8543878D01*
X35722352Y-8539500D01*
X35517648Y-8539500D01*
X35493329Y-8543351D01*
X35315465Y-8571522D01*
X35120776Y-8634781D01*
X34938386Y-8727715D01*
X34772786Y-8848028D01*
X34772782Y-8848032D01*
X34642634Y-8978181D01*
X34581311Y-9011666D01*
X34554953Y-9014500D01*
X30458693Y-9014500D01*
X30299216Y-9046222D01*
X30299206Y-9046225D01*
X30148980Y-9108450D01*
X30148976Y-9108452D01*
X30013775Y-9198790D01*
X30013768Y-9198796D01*
X28169385Y-11043181D01*
X28108062Y-11076666D01*
X28081704Y-11079500D01*
X27897648Y-11079500D01*
X27873329Y-11083351D01*
X27695465Y-11111522D01*
X27500776Y-11174781D01*
X27318386Y-11267715D01*
X27152786Y-11388028D01*
X27008028Y-11532786D01*
X26887715Y-11698386D01*
X26794781Y-11880776D01*
X26731522Y-12075465D01*
X26699500Y-12277648D01*
X26699500Y-12461704D01*
X26679815Y-12528743D01*
X26663181Y-12549385D01*
X22756190Y-16456377D01*
X18896675Y-20315892D01*
X18839182Y-20373384D01*
X18781690Y-20430876D01*
X18781688Y-20430879D01*
X18691352Y-20566076D01*
X18691350Y-20566080D01*
X18629125Y-20716306D01*
X18629122Y-20716316D01*
X18597400Y-20875792D01*
X18597400Y-46055500D01*
X18577715Y-46122539D01*
X18524911Y-46168294D01*
X18473400Y-46179500D01*
X18335838Y-46179500D01*
X18110339Y-46215215D01*
X17893196Y-46285770D01*
X17689771Y-46389421D01*
X17505061Y-46523622D01*
X17343622Y-46685061D01*
X17209421Y-46869771D01*
X17105770Y-47073196D01*
X17035215Y-47290339D01*
X16999500Y-47515837D01*
X-1709776Y-47515837D01*
X-2104595Y-46214292D01*
X-2106695Y-46206454D01*
X-2691057Y-43700266D01*
X-2692640Y-43692308D01*
X-3111838Y-41153261D01*
X-3112897Y-41145216D01*
X-3365135Y-38584197D01*
X-3365666Y-38576100D01*
X-3449867Y-36004056D01*
X-3449867Y-35995942D01*
X-3365666Y-33423898D01*
X-3365135Y-33415801D01*
X-3112897Y-30854782D01*
X-3111838Y-30846737D01*
X-3073693Y-30615699D01*
X-2692640Y-28307690D01*
X-2691057Y-28299732D01*
X-2106695Y-25793544D01*
X-2104595Y-25785706D01*
X-1357568Y-23323089D01*
X-1354959Y-23315405D01*
X-448478Y-20906941D01*
X-445373Y-20899444D01*
X-180970Y-20315893D01*
X616710Y-18555373D01*
X620270Y-18548155D01*
X1833389Y-16278569D01*
X1837440Y-16271553D01*
X1849282Y-16252511D01*
X3196381Y-14086197D01*
X3200886Y-14079456D01*
X3313447Y-13922378D01*
X4699848Y-11987655D01*
X4704785Y-11981223D01*
X4787220Y-11880776D01*
X6337359Y-9991925D01*
X6342683Y-9985855D01*
X8101889Y-8107570D01*
X8107570Y-8101889D01*
X9985855Y-6342683D01*
X9991925Y-6337359D01*
X11981228Y-4704780D01*
X11987661Y-4699845D01*
X12120825Y-4604421D01*
X14079462Y-3200881D01*
X14086203Y-3196378D01*
X16271562Y-1837433D01*
X16278568Y-1833389D01*
X18548155Y-620270D01*
X18555373Y-616710D01*
X20460301Y246400D01*
X20899444Y445373D01*
X20906941Y448478D01*
X23315405Y1354959D01*
X23323089Y1357568D01*
X25785706Y2104595D01*
X25793544Y2106695D01*
X28299732Y2691057D01*
X28307690Y2692640D01*
X30846737Y3111838D01*
X30854782Y3112897D01*
X33415801Y3365135D01*
X33423898Y3365666D01*
X35995942Y3449867D01*
X36004056Y3449867D01*
X38576100Y3365666D01*
G37*
%TD.AperFunction*%
%TD*%
M02*
