M48
; DRILL file KiCad 10.0.4 date 2026-09-26T02:36:05
; FORMAT={-:-/ absolute / metric / decimal}
; #@! TF.CreationDate,2026-09-26T02:36:05-03:00
; #@! TF.GenerationSoftware,Kicad,Pcbnew,10.0.4
; #@! TF.FileFunction,Plated,1,2,PTH
FMAT,2
METRIC
; #@! TA.AperFunction,Plated,PTH,ViaDrill
T1C0.400
; #@! TA.AperFunction,Plated,PTH,ComponentDrill
T2C0.800
; #@! TA.AperFunction,Plated,PTH,ComponentDrill
T3C1.100
; #@! TA.AperFunction,Plated,PTH,ComponentDrill
T4C1.250
; #@! TA.AperFunction,Plated,PTH,ComponentDrill
T5C1.300
; #@! TA.AperFunction,Plated,PTH,ComponentDrill
T6C1.500
%
G90
G05
T1
X18.75Y-65.878
X25.339Y-68.811
X30.563Y-19.382
X31.763Y-14.782
X32.394Y-70.311
X32.863Y-13.882
X33.263Y-12.482
X33.363Y-17.582
X33.463Y-14.982
X34.23Y-24.0
X34.73Y-23.5
X35.23Y-24.0
X39.606Y-70.311
X39.81Y-24.9
X46.661Y-68.811
X53.25Y-65.878
X59.085Y-61.639
X63.456Y-28.951
X63.911Y-56.279
X69.746Y-43.173
X70.5Y-36.0
T2
X15.0Y-23.0
X21.84Y-48.0
X21.84Y-52.0
X21.84Y-56.0
X25.16Y-23.0
X28.0Y-4.76
X28.0Y-7.3
X28.0Y-9.84
X28.0Y-12.38
X28.0Y-14.92
X28.0Y-17.46
X28.0Y-20.0
X32.0Y-48.0
X32.0Y-52.0
X32.0Y-56.0
X35.62Y-4.76
X35.62Y-7.3
X35.62Y-9.84
X35.62Y-12.38
X35.62Y-14.92
X35.62Y-17.46
X35.62Y-20.0
X36.0Y-62.0
X39.0Y-8.0
X39.0Y-18.5
X39.5Y-62.0
X44.0Y-18.5
X49.16Y-8.0
X54.0Y-49.0
X58.0Y-53.5
X59.0Y-49.0
X63.0Y-49.0
X63.0Y-53.5
X68.0Y-49.0
T3
X52.0Y-20.0
X52.84Y-12.0
X54.5Y-20.0
X57.0Y-20.0
X59.5Y-20.0
X63.0Y-12.0
T4
X18.45Y-47.63
X23.935Y-6.79
X24.37Y-18.45
X31.86Y-67.318
X40.11Y-15.35
X40.14Y-4.682
X47.68Y-53.53
X48.09Y-65.185
T5
X33.442Y-28.767
X33.442Y-43.267
X35.983Y-43.267
X38.523Y-28.767
X38.523Y-43.267
T6
X30.482Y-36.517G85X30.482Y-35.018
G05
X41.482Y-36.517G85X41.482Y-35.018
G05
M30
