%TF.GenerationSoftware,KiCad,Pcbnew,10.0.4*%
%TF.CreationDate,2026-09-24T02:07:23-03:00*%
%TF.ProjectId,segno_pedal_ring,7365676e-6f5f-4706-9564-616c5f72696e,rev?*%
%TF.SameCoordinates,Original*%
%TF.FileFunction,Copper,L1,Top*%
%TF.FilePolarity,Positive*%
%FSLAX46Y46*%
G04 Gerber Fmt 4.6, Leading zero omitted, Abs format (unit mm)*
G04 Created by KiCad (PCBNEW 10.0.4) date 2026-09-24 02:07:23*
%MOMM*%
%LPD*%
G01*
G04 APERTURE LIST*
G04 Aperture macros list*
%AMRoundRect*
0 Rectangle with rounded corners*
0 $1 Rounding radius*
0 $2 $3 $4 $5 $6 $7 $8 $9 X,Y pos of 4 corners*
0 Add a 4 corners polygon primitive as box body*
4,1,4,$2,$3,$4,$5,$6,$7,$8,$9,$2,$3,0*
0 Add four circle primitives for the rounded corners*
1,1,$1+$1,$2,$3*
1,1,$1+$1,$4,$5*
1,1,$1+$1,$6,$7*
1,1,$1+$1,$8,$9*
0 Add four rect primitives between the rounded corners*
20,1,$1+$1,$2,$3,$4,$5,0*
20,1,$1+$1,$4,$5,$6,$7,0*
20,1,$1+$1,$6,$7,$8,$9,0*
20,1,$1+$1,$8,$9,$2,$3,0*%
G04 Aperture macros list end*
%TA.AperFunction,ComponentPad*%
%ADD10C,1.900000*%
%TD*%
%TA.AperFunction,SMDPad,CuDef*%
%ADD11R,1.800000X1.800000*%
%TD*%
%TA.AperFunction,ComponentPad*%
%ADD12O,2.300000X4.000000*%
%TD*%
%TA.AperFunction,ComponentPad*%
%ADD13C,1.800000*%
%TD*%
%TA.AperFunction,ComponentPad*%
%ADD14C,1.600000*%
%TD*%
%TA.AperFunction,ComponentPad*%
%ADD15RoundRect,0.250000X-0.550000X-0.550000X0.550000X-0.550000X0.550000X0.550000X-0.550000X0.550000X0*%
%TD*%
%TA.AperFunction,ComponentPad*%
%ADD16RoundRect,0.250000X-0.600000X-0.725000X0.600000X-0.725000X0.600000X0.725000X-0.600000X0.725000X0*%
%TD*%
%TA.AperFunction,ComponentPad*%
%ADD17O,1.700000X1.950000*%
%TD*%
%TA.AperFunction,ComponentPad*%
%ADD18RoundRect,0.249999X0.850001X0.850001X-0.850001X0.850001X-0.850001X-0.850001X0.850001X-0.850001X0*%
%TD*%
%TA.AperFunction,ComponentPad*%
%ADD19C,2.200000*%
%TD*%
%TA.AperFunction,ViaPad*%
%ADD20C,0.800000*%
%TD*%
%TA.AperFunction,Conductor*%
%ADD21C,0.550000*%
%TD*%
%TA.AperFunction,Conductor*%
%ADD22C,0.650000*%
%TD*%
%TA.AperFunction,Conductor*%
%ADD23C,0.300000*%
%TD*%
G04 APERTURE END LIST*
D10*
%TO.P,J3,1*%
%TO.N,RING_DATA*%
X40140000Y-4682000D03*
%TO.P,J3,2*%
%TO.N,+5V_LED*%
X31860000Y-67318000D03*
%TO.P,J3,3*%
%TO.N,GND*%
X48090000Y-65185000D03*
%TO.P,J3,4*%
%TO.N,RING_DOUT*%
X23935000Y-6790000D03*
%TD*%
D11*
%TO.P,J2,1*%
%TO.N,+5V_LED*%
X32190000Y-24000000D03*
%TO.P,J2,2*%
%TO.N,GND*%
X34730000Y-24000000D03*
%TO.P,J2,3*%
%TO.N,RING_DATA*%
X37270000Y-24000000D03*
%TO.P,J2,4*%
%TO.N,RING_DOUT*%
X39810000Y-24000000D03*
%TD*%
D10*
%TO.P,J4,1*%
%TO.N,RING_DATA*%
X24370000Y-18450000D03*
%TO.P,J4,2*%
%TO.N,+5V_LED*%
X18450000Y-47630000D03*
%TO.P,J4,3*%
%TO.N,GND*%
X47680000Y-53530000D03*
%TO.P,J4,4*%
%TO.N,RING_DOUT*%
X40110000Y-15350000D03*
%TD*%
D12*
%TO.P,ENC1,6*%
%TO.N,N/C*%
X41482500Y-35767500D03*
%TO.P,ENC1,7*%
X30482500Y-35767500D03*
D13*
%TO.P,ENC1,A*%
%TO.N,ENC_A*%
X33442500Y-43267500D03*
%TO.P,ENC1,B*%
%TO.N,ENC_B*%
X38522500Y-43267500D03*
%TO.P,ENC1,C*%
%TO.N,GND*%
X35982500Y-43267500D03*
%TO.P,ENC1,S1*%
%TO.N,ENC_SW*%
X33442500Y-28767500D03*
%TO.P,ENC1,S2*%
%TO.N,GND*%
X38522500Y-28767500D03*
%TD*%
D14*
%TO.P,C2,1*%
%TO.N,ENC_A*%
X58000000Y-53500000D03*
%TO.P,C2,2*%
%TO.N,GND*%
X63000000Y-53500000D03*
%TD*%
%TO.P,R2,1*%
%TO.N,+3V3*%
X32000000Y-48000000D03*
%TO.P,R2,2*%
%TO.N,ENC_A*%
X21840000Y-48000000D03*
%TD*%
D15*
%TO.P,U2,1*%
%TO.N,GND*%
X28000000Y-20000000D03*
D14*
%TO.P,U2,2*%
%TO.N,RING_DATA_3V3*%
X28000000Y-17460000D03*
%TO.P,U2,3*%
%TO.N,RING_DATA_5V*%
X28000000Y-14920000D03*
%TO.P,U2,4*%
%TO.N,+5V_LED*%
X28000000Y-12380000D03*
%TO.P,U2,5*%
%TO.N,GND*%
X28000000Y-9840000D03*
%TO.P,U2,6*%
%TO.N,N/C*%
X28000000Y-7300000D03*
%TO.P,U2,7*%
%TO.N,GND*%
X28000000Y-4760000D03*
%TO.P,U2,8*%
%TO.N,N/C*%
X35620000Y-4760000D03*
%TO.P,U2,9*%
%TO.N,GND*%
X35620000Y-7300000D03*
%TO.P,U2,10*%
%TO.N,+5V_LED*%
X35620000Y-9840000D03*
%TO.P,U2,11*%
%TO.N,N/C*%
X35620000Y-12380000D03*
%TO.P,U2,12*%
%TO.N,GND*%
X35620000Y-14920000D03*
%TO.P,U2,13*%
%TO.N,+5V_LED*%
X35620000Y-17460000D03*
%TO.P,U2,14*%
X35620000Y-20000000D03*
%TD*%
%TO.P,C3,1*%
%TO.N,ENC_B*%
X63000000Y-49000000D03*
%TO.P,C3,2*%
%TO.N,GND*%
X68000000Y-49000000D03*
%TD*%
%TO.P,R4,1*%
%TO.N,+3V3*%
X32000000Y-56000000D03*
%TO.P,R4,2*%
%TO.N,ENC_SW*%
X21840000Y-56000000D03*
%TD*%
D15*
%TO.P,C1,1*%
%TO.N,+5V_LED*%
X36000000Y-62000000D03*
D14*
%TO.P,C1,2*%
%TO.N,GND*%
X39500000Y-62000000D03*
%TD*%
D16*
%TO.P,J1,1*%
%TO.N,+5V_LED*%
X52000000Y-20000000D03*
D17*
%TO.P,J1,2*%
%TO.N,GND*%
X54500000Y-20000000D03*
%TO.P,J1,3*%
%TO.N,LINK_TO_RING*%
X57000000Y-20000000D03*
%TO.P,J1,4*%
%TO.N,LINK_TO_CONSOLE*%
X59500000Y-20000000D03*
%TD*%
D18*
%TO.P,D1,1*%
%TO.N,+5V_MCU*%
X63000000Y-12000000D03*
D19*
%TO.P,D1,2*%
%TO.N,+5V_LED*%
X52840000Y-12000000D03*
%TD*%
D14*
%TO.P,R3,1*%
%TO.N,+3V3*%
X32000000Y-52000000D03*
%TO.P,R3,2*%
%TO.N,ENC_B*%
X21840000Y-52000000D03*
%TD*%
%TO.P,R5,1*%
%TO.N,RING_DATA_3V3*%
X25160000Y-23000000D03*
%TO.P,R5,2*%
%TO.N,GND*%
X15000000Y-23000000D03*
%TD*%
%TO.P,R1,1*%
%TO.N,RING_DATA_5V*%
X39000000Y-8000000D03*
%TO.P,R1,2*%
%TO.N,RING_DATA*%
X49160000Y-8000000D03*
%TD*%
%TO.P,C5,1*%
%TO.N,+5V_LED*%
X39000000Y-18500000D03*
%TO.P,C5,2*%
%TO.N,GND*%
X44000000Y-18500000D03*
%TD*%
%TO.P,C4,1*%
%TO.N,ENC_SW*%
X54000000Y-49000000D03*
%TO.P,C4,2*%
%TO.N,GND*%
X59000000Y-49000000D03*
%TD*%
D20*
%TO.N,GND*%
X37890500Y-22154700D03*
X63456200Y-28951200D03*
X31763300Y-14782400D03*
X33463300Y-14982400D03*
X39606200Y-70311000D03*
X18750000Y-65877900D03*
X70500000Y-36000000D03*
X32393800Y-70311000D03*
X33363300Y-17582400D03*
X25338900Y-68811400D03*
X53250000Y-65877900D03*
X36990500Y-21554700D03*
X33263300Y-12482400D03*
X46661100Y-68811400D03*
X63911100Y-56278600D03*
X30563300Y-19382400D03*
X69746100Y-43173000D03*
X32863300Y-13882400D03*
X59085000Y-61638500D03*
%TO.N,RING_DOUT*%
X40420600Y-21453600D03*
%TD*%
%TO.N,RING_DATA*%
D21*
X37270000Y-24000000D02*
X37270000Y-25263300D01*
X28287600Y-2480400D02*
X26623300Y-4144700D01*
X26623300Y-16196700D02*
X24370000Y-18450000D01*
X49160000Y-8000000D02*
X45842000Y-4682000D01*
X40140000Y-4682000D02*
X37938400Y-2480400D01*
X37056600Y-25476700D02*
X31051100Y-25476700D01*
X45842000Y-4682000D02*
X40140000Y-4682000D01*
X37270000Y-25263300D02*
X37056600Y-25476700D01*
X26623300Y-4144700D02*
X26623300Y-16196700D01*
X31051100Y-25476700D02*
X24370000Y-18795600D01*
X37938400Y-2480400D02*
X28287600Y-2480400D01*
X24370000Y-18795600D02*
X24370000Y-18450000D01*
%TO.N,+5V_LED*%
D22*
X52000000Y-20000000D02*
X40500000Y-20000000D01*
X40500000Y-20000000D02*
X39000000Y-18500000D01*
X37041800Y-16038200D02*
X36790000Y-16290000D01*
X35620000Y-17460000D02*
X35620000Y-20000000D01*
X32190000Y-24000000D02*
X32190000Y-22523300D01*
X35620000Y-9840000D02*
X37041800Y-11261800D01*
X37041800Y-11261800D02*
X37041800Y-16038200D01*
X39000000Y-18500000D02*
X36790000Y-16290000D01*
X35620000Y-20000000D02*
X33096700Y-22523300D01*
X33096700Y-22523300D02*
X32190000Y-22523300D01*
X36790000Y-16290000D02*
X35620000Y-17460000D01*
%TO.N,RING_DOUT*%
D21*
X39810000Y-22064200D02*
X39810000Y-24000000D01*
X40420600Y-21453600D02*
X39810000Y-22064200D01*
%TO.N,ENC_A*%
D23*
X26572500Y-43267500D02*
X33442500Y-43267500D01*
X21840000Y-48000000D02*
X26572500Y-43267500D01*
%TO.N,ENC_B*%
X21840000Y-52000000D02*
X29790000Y-52000000D01*
X29790000Y-52000000D02*
X38522500Y-43267500D01*
%TO.N,ENC_SW*%
X23840000Y-54000000D02*
X21840000Y-56000000D01*
X41839100Y-44011100D02*
X31850200Y-54000000D01*
X31850200Y-54000000D02*
X23840000Y-54000000D01*
X41839100Y-44011100D02*
X33442500Y-35614600D01*
X46827900Y-49000000D02*
X41839100Y-44011100D01*
X33442500Y-35614600D02*
X33442500Y-28767500D01*
X54000000Y-49000000D02*
X46827900Y-49000000D01*
%TO.N,RING_DATA_5V*%
D21*
X39000000Y-6169100D02*
X36167000Y-3336100D01*
X36167000Y-3336100D02*
X35058200Y-3336100D01*
X35058200Y-3336100D02*
X30788100Y-7606200D01*
X30788100Y-7606200D02*
X30788100Y-12131900D01*
X39000000Y-8000000D02*
X39000000Y-6169100D01*
X30788100Y-12131900D02*
X28000000Y-14920000D01*
%TD*%
%TA.AperFunction,Conductor*%
%TO.N,GND*%
G36*
X37049753Y-17726559D02*
G01*
X37082722Y-17750155D01*
X37663181Y-18330614D01*
X37696666Y-18391937D01*
X37699500Y-18418295D01*
X37699500Y-18602352D01*
X37702711Y-18622623D01*
X37731522Y-18804534D01*
X37794781Y-18999223D01*
X37857442Y-19122200D01*
X37884769Y-19175833D01*
X37887715Y-19181613D01*
X38008028Y-19347213D01*
X38152786Y-19491971D01*
X38307749Y-19604556D01*
X38318390Y-19612287D01*
X38434607Y-19671503D01*
X38500776Y-19705218D01*
X38500778Y-19705218D01*
X38500781Y-19705220D01*
X38605137Y-19739127D01*
X38695465Y-19768477D01*
X38796557Y-19784488D01*
X38897648Y-19800500D01*
X38897649Y-19800500D01*
X39081704Y-19800500D01*
X39148743Y-19820185D01*
X39169385Y-19836819D01*
X39883676Y-20551110D01*
X39917161Y-20612433D01*
X39912177Y-20682125D01*
X39870305Y-20738058D01*
X39864889Y-20741891D01*
X39846566Y-20754134D01*
X39846561Y-20754138D01*
X39721138Y-20879561D01*
X39721135Y-20879565D01*
X39622590Y-21027046D01*
X39622583Y-21027059D01*
X39554706Y-21190931D01*
X39554703Y-21190943D01*
X39554137Y-21193789D01*
X39553429Y-21195141D01*
X39552936Y-21196768D01*
X39552627Y-21196674D01*
X39521750Y-21255699D01*
X39520203Y-21257274D01*
X39315648Y-21461830D01*
X39261638Y-21515840D01*
X39207628Y-21569849D01*
X39122764Y-21696856D01*
X39122759Y-21696865D01*
X39064302Y-21837994D01*
X39064300Y-21838002D01*
X39034500Y-21987815D01*
X39034500Y-22475500D01*
X39014815Y-22542539D01*
X38962011Y-22588294D01*
X38910502Y-22599500D01*
X38862131Y-22599500D01*
X38862123Y-22599501D01*
X38802516Y-22605908D01*
X38667671Y-22656202D01*
X38667669Y-22656203D01*
X38614311Y-22696148D01*
X38548847Y-22720565D01*
X38480574Y-22705714D01*
X38465689Y-22696148D01*
X38412330Y-22656203D01*
X38412328Y-22656202D01*
X38277482Y-22605908D01*
X38277483Y-22605908D01*
X38217883Y-22599501D01*
X38217881Y-22599500D01*
X38217873Y-22599500D01*
X38217864Y-22599500D01*
X36322129Y-22599500D01*
X36322123Y-22599501D01*
X36262516Y-22605908D01*
X36127671Y-22656202D01*
X36127664Y-22656206D01*
X36012455Y-22742452D01*
X36012452Y-22742455D01*
X35926206Y-22857664D01*
X35926202Y-22857671D01*
X35875908Y-22992517D01*
X35869501Y-23052116D01*
X35869500Y-23052127D01*
X35869500Y-23847219D01*
X35869501Y-24577200D01*
X35849816Y-24644239D01*
X35797013Y-24689994D01*
X35745501Y-24701200D01*
X33714500Y-24701200D01*
X33647461Y-24681515D01*
X33601706Y-24628711D01*
X33590500Y-24577200D01*
X33590499Y-23248296D01*
X33610184Y-23181257D01*
X33626818Y-23160615D01*
X35450613Y-21336819D01*
X35511936Y-21303334D01*
X35538294Y-21300500D01*
X35722351Y-21300500D01*
X35722352Y-21300500D01*
X35924534Y-21268477D01*
X36119219Y-21205220D01*
X36301610Y-21112287D01*
X36395144Y-21044331D01*
X36467213Y-20991971D01*
X36467215Y-20991968D01*
X36467219Y-20991966D01*
X36611966Y-20847219D01*
X36611968Y-20847215D01*
X36611971Y-20847213D01*
X36679594Y-20754136D01*
X36732287Y-20681610D01*
X36825220Y-20499219D01*
X36888477Y-20304534D01*
X36920500Y-20102352D01*
X36920500Y-19897648D01*
X36915295Y-19864784D01*
X36888477Y-19695465D01*
X36859127Y-19605137D01*
X36825220Y-19500781D01*
X36825218Y-19500778D01*
X36825218Y-19500776D01*
X36771290Y-19394938D01*
X36732287Y-19318390D01*
X36724556Y-19307749D01*
X36611971Y-19152786D01*
X36481819Y-19022634D01*
X36448334Y-18961311D01*
X36445500Y-18934953D01*
X36445500Y-18525047D01*
X36465185Y-18458008D01*
X36481819Y-18437366D01*
X36527248Y-18391937D01*
X36611966Y-18307219D01*
X36611968Y-18307215D01*
X36611971Y-18307213D01*
X36664732Y-18234590D01*
X36732287Y-18141610D01*
X36825220Y-17959219D01*
X36877110Y-17799517D01*
X36916548Y-17741842D01*
X36980906Y-17714644D01*
X37049753Y-17726559D01*
G37*
%TD.AperFunction*%
%TA.AperFunction,Conductor*%
G36*
X33809354Y-3275585D02*
G01*
X33855109Y-3328389D01*
X33865053Y-3397547D01*
X33836028Y-3461103D01*
X33829996Y-3467581D01*
X32048497Y-5249081D01*
X30293748Y-7003830D01*
X30239738Y-7057840D01*
X30185728Y-7111849D01*
X30100864Y-7238856D01*
X30100859Y-7238865D01*
X30042402Y-7379994D01*
X30042400Y-7380002D01*
X30012600Y-7529815D01*
X30012600Y-11759315D01*
X29992915Y-11826354D01*
X29976281Y-11846996D01*
X29506099Y-12317177D01*
X29444776Y-12350662D01*
X29375084Y-12345678D01*
X29319151Y-12303806D01*
X29295946Y-12248896D01*
X29268477Y-12075466D01*
X29205220Y-11880781D01*
X29205218Y-11880778D01*
X29205218Y-11880776D01*
X29169501Y-11810678D01*
X29112287Y-11698390D01*
X29059123Y-11625215D01*
X28991971Y-11532786D01*
X28847213Y-11388028D01*
X28681613Y-11267715D01*
X28681612Y-11267714D01*
X28681610Y-11267713D01*
X28601198Y-11226741D01*
X28499223Y-11174781D01*
X28304534Y-11111522D01*
X28129995Y-11083878D01*
X28102352Y-11079500D01*
X27897648Y-11079500D01*
X27830254Y-11090174D01*
X27695464Y-11111523D01*
X27695461Y-11111523D01*
X27561118Y-11155174D01*
X27491276Y-11157169D01*
X27431444Y-11121088D01*
X27400616Y-11058387D01*
X27398800Y-11037243D01*
X27398800Y-8642755D01*
X27418485Y-8575716D01*
X27471289Y-8529961D01*
X27540447Y-8520017D01*
X27561108Y-8524821D01*
X27662701Y-8557831D01*
X27695465Y-8568477D01*
X27796557Y-8584488D01*
X27897648Y-8600500D01*
X27897649Y-8600500D01*
X28102351Y-8600500D01*
X28102352Y-8600500D01*
X28304534Y-8568477D01*
X28499219Y-8505220D01*
X28681610Y-8412287D01*
X28774590Y-8344732D01*
X28847213Y-8291971D01*
X28847215Y-8291968D01*
X28847219Y-8291966D01*
X28991966Y-8147219D01*
X28991968Y-8147215D01*
X28991971Y-8147213D01*
X29076710Y-8030578D01*
X29112287Y-7981610D01*
X29205220Y-7799219D01*
X29268477Y-7604534D01*
X29300500Y-7402352D01*
X29300500Y-7197648D01*
X29268477Y-6995466D01*
X29249718Y-6937733D01*
X29205218Y-6800776D01*
X29155645Y-6703485D01*
X29112287Y-6618390D01*
X29104556Y-6607749D01*
X28991971Y-6452786D01*
X28847213Y-6308028D01*
X28681613Y-6187715D01*
X28681612Y-6187714D01*
X28681610Y-6187713D01*
X28573249Y-6132500D01*
X28499223Y-6094781D01*
X28304534Y-6031522D01*
X28129995Y-6003878D01*
X28102352Y-5999500D01*
X27897648Y-5999500D01*
X27830254Y-6010174D01*
X27695464Y-6031523D01*
X27695461Y-6031523D01*
X27561118Y-6075174D01*
X27491276Y-6077169D01*
X27431444Y-6041088D01*
X27400616Y-5978387D01*
X27398800Y-5957243D01*
X27398800Y-4517284D01*
X27418485Y-4450245D01*
X27435119Y-4429603D01*
X28572503Y-3292219D01*
X28633826Y-3258734D01*
X28660184Y-3255900D01*
X33742315Y-3255900D01*
X33809354Y-3275585D01*
G37*
%TD.AperFunction*%
%TA.AperFunction,Conductor*%
G36*
X38576100Y3365666D02*
G01*
X38584197Y3365135D01*
X41145216Y3112897D01*
X41153261Y3111838D01*
X43692308Y2692640D01*
X43700266Y2691057D01*
X46206454Y2106695D01*
X46214292Y2104595D01*
X48676909Y1357568D01*
X48684593Y1354959D01*
X51093057Y448478D01*
X51100554Y445373D01*
X52272574Y-85661D01*
X53444613Y-616704D01*
X53451855Y-620276D01*
X55476781Y-1702621D01*
X55721419Y-1833383D01*
X55728446Y-1837440D01*
X57913795Y-3196378D01*
X57920542Y-3200886D01*
X60012337Y-4699845D01*
X60018775Y-4704785D01*
X62008058Y-6337347D01*
X62014158Y-6342697D01*
X63892412Y-8101874D01*
X63898124Y-8107586D01*
X64839127Y-9112284D01*
X65657301Y-9985840D01*
X65662651Y-9991940D01*
X67295213Y-11981223D01*
X67300153Y-11987661D01*
X68799112Y-14079456D01*
X68803620Y-14086203D01*
X70162558Y-16271552D01*
X70166615Y-16278579D01*
X70852805Y-17562351D01*
X71372697Y-18535001D01*
X71379713Y-18548126D01*
X71383299Y-18555398D01*
X71440793Y-18682289D01*
X72445373Y-20899445D01*
X72448478Y-20906942D01*
X73354959Y-23315405D01*
X73357568Y-23323089D01*
X74104595Y-25785706D01*
X74106695Y-25793544D01*
X74691057Y-28299732D01*
X74692640Y-28307690D01*
X75111838Y-30846737D01*
X75112897Y-30854782D01*
X75365135Y-33415801D01*
X75365666Y-33423898D01*
X75449867Y-35995942D01*
X75449867Y-36004056D01*
X75365666Y-38576100D01*
X75365135Y-38584197D01*
X75112897Y-41145216D01*
X75111838Y-41153261D01*
X74692640Y-43692308D01*
X74691057Y-43700266D01*
X74106695Y-46206454D01*
X74104595Y-46214292D01*
X73357568Y-48676909D01*
X73354959Y-48684593D01*
X72448478Y-51093056D01*
X72445373Y-51100553D01*
X71383302Y-53444595D01*
X71379713Y-53451872D01*
X70166615Y-55721418D01*
X70162558Y-55728445D01*
X68803620Y-57913795D01*
X68799112Y-57920542D01*
X67300153Y-60012337D01*
X67295213Y-60018775D01*
X65662651Y-62008058D01*
X65657301Y-62014158D01*
X63898137Y-63892399D01*
X63892399Y-63898137D01*
X62014158Y-65657301D01*
X62008058Y-65662651D01*
X60018775Y-67295213D01*
X60012337Y-67300153D01*
X57920542Y-68799112D01*
X57913795Y-68803620D01*
X55728446Y-70162558D01*
X55721419Y-70166615D01*
X53451872Y-71379713D01*
X53444595Y-71383302D01*
X51100553Y-72445373D01*
X51093056Y-72448478D01*
X48684593Y-73354959D01*
X48676909Y-73357568D01*
X46214292Y-74104595D01*
X46206454Y-74106695D01*
X43700266Y-74691057D01*
X43692308Y-74692640D01*
X41153261Y-75111838D01*
X41145216Y-75112897D01*
X38584197Y-75365135D01*
X38576100Y-75365666D01*
X36004056Y-75449867D01*
X35995942Y-75449867D01*
X33423898Y-75365666D01*
X33415801Y-75365135D01*
X30854782Y-75112897D01*
X30846737Y-75111838D01*
X28307690Y-74692640D01*
X28299732Y-74691057D01*
X25793544Y-74106695D01*
X25785706Y-74104595D01*
X23323089Y-73357568D01*
X23315405Y-73354959D01*
X20906942Y-72448478D01*
X20899445Y-72445373D01*
X18555403Y-71383302D01*
X18548126Y-71379713D01*
X16278580Y-70166615D01*
X16271553Y-70162558D01*
X14086203Y-68803620D01*
X14079456Y-68799112D01*
X11987661Y-67300153D01*
X11981223Y-67295213D01*
X11980749Y-67294824D01*
X11869881Y-67203837D01*
X30409500Y-67203837D01*
X30409500Y-67432162D01*
X30445215Y-67657660D01*
X30515770Y-67874803D01*
X30619421Y-68078228D01*
X30753621Y-68262937D01*
X30915063Y-68424379D01*
X31099772Y-68558579D01*
X31195884Y-68607550D01*
X31303196Y-68662229D01*
X31303198Y-68662229D01*
X31303201Y-68662231D01*
X31419592Y-68700049D01*
X31520339Y-68732784D01*
X31745838Y-68768500D01*
X31745843Y-68768500D01*
X31974162Y-68768500D01*
X32199660Y-68732784D01*
X32416799Y-68662231D01*
X32620228Y-68558579D01*
X32804937Y-68424379D01*
X32966379Y-68262937D01*
X33100579Y-68078228D01*
X33204231Y-67874799D01*
X33274784Y-67657660D01*
X33285953Y-67587144D01*
X33310500Y-67432162D01*
X33310500Y-67203837D01*
X33274784Y-66978339D01*
X33225484Y-66826611D01*
X33204231Y-66761201D01*
X33204229Y-66761198D01*
X33204229Y-66761196D01*
X33100578Y-66557771D01*
X32966379Y-66373063D01*
X32804937Y-66211621D01*
X32620228Y-66077421D01*
X32416803Y-65973770D01*
X32199660Y-65903215D01*
X31974162Y-65867500D01*
X31974157Y-65867500D01*
X31745843Y-65867500D01*
X31745838Y-65867500D01*
X31520339Y-65903215D01*
X31303196Y-65973770D01*
X31099771Y-66077421D01*
X30915061Y-66211622D01*
X30753622Y-66373061D01*
X30619421Y-66557771D01*
X30515770Y-66761196D01*
X30445215Y-66978339D01*
X30409500Y-67203837D01*
X11869881Y-67203837D01*
X9991940Y-65662651D01*
X9985840Y-65657301D01*
X9771643Y-65456684D01*
X8107586Y-63898124D01*
X8101874Y-63892412D01*
X6342697Y-62014158D01*
X6337347Y-62008058D01*
X5900287Y-61475499D01*
X5838313Y-61399983D01*
X34699500Y-61399983D01*
X34699500Y-62600001D01*
X34699501Y-62600018D01*
X34710000Y-62702796D01*
X34710001Y-62702799D01*
X34765185Y-62869331D01*
X34765186Y-62869334D01*
X34857288Y-63018656D01*
X34981344Y-63142712D01*
X35130666Y-63234814D01*
X35297203Y-63289999D01*
X35399991Y-63300500D01*
X36600008Y-63300499D01*
X36702797Y-63289999D01*
X36869334Y-63234814D01*
X37018656Y-63142712D01*
X37142712Y-63018656D01*
X37234814Y-62869334D01*
X37289999Y-62702797D01*
X37300500Y-62600009D01*
X37300499Y-61399992D01*
X37289999Y-61297203D01*
X37234814Y-61130666D01*
X37142712Y-60981344D01*
X37018656Y-60857288D01*
X36869334Y-60765186D01*
X36702797Y-60710001D01*
X36702795Y-60710000D01*
X36600010Y-60699500D01*
X35399998Y-60699500D01*
X35399981Y-60699501D01*
X35297203Y-60710000D01*
X35297200Y-60710001D01*
X35130668Y-60765185D01*
X35130663Y-60765187D01*
X34981342Y-60857289D01*
X34857289Y-60981342D01*
X34765187Y-61130663D01*
X34765186Y-61130666D01*
X34710001Y-61297203D01*
X34710001Y-61297204D01*
X34710000Y-61297204D01*
X34699500Y-61399983D01*
X5838313Y-61399983D01*
X4704785Y-60018775D01*
X4699845Y-60012337D01*
X3200886Y-57920542D01*
X3196378Y-57913795D01*
X1837440Y-55728445D01*
X1833383Y-55721418D01*
X1452068Y-55008028D01*
X620276Y-53451855D01*
X616704Y-53444613D01*
X50556Y-52195095D01*
X-63235Y-51943952D01*
X-84215Y-51897648D01*
X20539500Y-51897648D01*
X20539500Y-52102351D01*
X20571522Y-52304534D01*
X20634781Y-52499223D01*
X20698691Y-52624653D01*
X20713026Y-52652786D01*
X20727715Y-52681613D01*
X20848028Y-52847213D01*
X20992786Y-52991971D01*
X21147749Y-53104556D01*
X21158390Y-53112287D01*
X21257902Y-53162991D01*
X21340776Y-53205218D01*
X21340778Y-53205218D01*
X21340781Y-53205220D01*
X21419545Y-53230812D01*
X21535465Y-53268477D01*
X21636557Y-53284488D01*
X21737648Y-53300500D01*
X21737649Y-53300500D01*
X21942351Y-53300500D01*
X21942352Y-53300500D01*
X22144534Y-53268477D01*
X22339219Y-53205220D01*
X22521610Y-53112287D01*
X22614590Y-53044732D01*
X22687213Y-52991971D01*
X22687215Y-52991968D01*
X22687219Y-52991966D01*
X22831966Y-52847219D01*
X22937753Y-52701613D01*
X22993082Y-52658949D01*
X23038071Y-52650500D01*
X29854071Y-52650500D01*
X29938615Y-52633682D01*
X29979744Y-52625501D01*
X30098127Y-52576465D01*
X30100836Y-52574654D01*
X30101772Y-52574030D01*
X30128185Y-52556380D01*
X30204669Y-52505277D01*
X30514853Y-52195092D01*
X30576173Y-52161610D01*
X30645864Y-52166594D01*
X30701798Y-52208465D01*
X30725004Y-52263377D01*
X30731523Y-52304535D01*
X30794781Y-52499223D01*
X30858691Y-52624653D01*
X30873026Y-52652786D01*
X30887715Y-52681613D01*
X31008028Y-52847213D01*
X31152786Y-52991971D01*
X31318388Y-53112286D01*
X31323745Y-53115016D01*
X31374541Y-53162991D01*
X31391335Y-53230812D01*
X31368797Y-53296947D01*
X31314081Y-53340398D01*
X31267449Y-53349500D01*
X23775929Y-53349500D01*
X23650261Y-53374497D01*
X23650255Y-53374499D01*
X23531875Y-53423533D01*
X23531866Y-53423538D01*
X23425331Y-53494723D01*
X23425327Y-53494726D01*
X22227190Y-54692862D01*
X22165867Y-54726347D01*
X22120111Y-54727654D01*
X21974611Y-54704609D01*
X21942352Y-54699500D01*
X21737648Y-54699500D01*
X21713329Y-54703351D01*
X21535465Y-54731522D01*
X21340776Y-54794781D01*
X21158386Y-54887715D01*
X20992786Y-55008028D01*
X20848028Y-55152786D01*
X20727715Y-55318386D01*
X20634781Y-55500776D01*
X20571522Y-55695465D01*
X20539500Y-55897648D01*
X20539500Y-56102351D01*
X20571522Y-56304534D01*
X20634781Y-56499223D01*
X20727715Y-56681613D01*
X20848028Y-56847213D01*
X20992786Y-56991971D01*
X21147749Y-57104556D01*
X21158390Y-57112287D01*
X21260008Y-57164064D01*
X21340776Y-57205218D01*
X21340778Y-57205218D01*
X21340781Y-57205220D01*
X21445137Y-57239127D01*
X21535465Y-57268477D01*
X21636557Y-57284488D01*
X21737648Y-57300500D01*
X21737649Y-57300500D01*
X21942351Y-57300500D01*
X21942352Y-57300500D01*
X22144534Y-57268477D01*
X22339219Y-57205220D01*
X22521610Y-57112287D01*
X22614590Y-57044732D01*
X22687213Y-56991971D01*
X22687215Y-56991968D01*
X22687219Y-56991966D01*
X22831966Y-56847219D01*
X22831968Y-56847215D01*
X22831971Y-56847213D01*
X22884732Y-56774590D01*
X22952287Y-56681610D01*
X23045220Y-56499219D01*
X23108477Y-56304534D01*
X23140500Y-56102352D01*
X23140500Y-55897648D01*
X23112345Y-55719886D01*
X23121300Y-55650593D01*
X23147134Y-55612810D01*
X24073126Y-54686819D01*
X24134449Y-54653334D01*
X24160807Y-54650500D01*
X31267449Y-54650500D01*
X31334488Y-54670185D01*
X31380243Y-54722989D01*
X31390187Y-54792147D01*
X31361162Y-54855703D01*
X31323745Y-54884984D01*
X31318388Y-54887713D01*
X31152786Y-55008028D01*
X31008028Y-55152786D01*
X30887715Y-55318386D01*
X30794781Y-55500776D01*
X30731522Y-55695465D01*
X30699500Y-55897648D01*
X30699500Y-56102351D01*
X30731522Y-56304534D01*
X30794781Y-56499223D01*
X30887715Y-56681613D01*
X31008028Y-56847213D01*
X31152786Y-56991971D01*
X31307749Y-57104556D01*
X31318390Y-57112287D01*
X31420008Y-57164064D01*
X31500776Y-57205218D01*
X31500778Y-57205218D01*
X31500781Y-57205220D01*
X31605137Y-57239127D01*
X31695465Y-57268477D01*
X31796557Y-57284488D01*
X31897648Y-57300500D01*
X31897649Y-57300500D01*
X32102351Y-57300500D01*
X32102352Y-57300500D01*
X32304534Y-57268477D01*
X32499219Y-57205220D01*
X32681610Y-57112287D01*
X32774590Y-57044732D01*
X32847213Y-56991971D01*
X32847215Y-56991968D01*
X32847219Y-56991966D01*
X32991966Y-56847219D01*
X32991968Y-56847215D01*
X32991971Y-56847213D01*
X33044732Y-56774590D01*
X33112287Y-56681610D01*
X33205220Y-56499219D01*
X33268477Y-56304534D01*
X33300500Y-56102352D01*
X33300500Y-55897648D01*
X33268477Y-55695465D01*
X33205218Y-55500776D01*
X33171503Y-55434607D01*
X33112287Y-55318390D01*
X33104556Y-55307749D01*
X32991971Y-55152786D01*
X32847213Y-55008028D01*
X32681613Y-54887715D01*
X32681612Y-54887714D01*
X32681610Y-54887713D01*
X32618787Y-54855703D01*
X32499223Y-54794781D01*
X32304531Y-54731521D01*
X32301904Y-54730891D01*
X32301010Y-54730377D01*
X32299900Y-54730017D01*
X32299975Y-54729783D01*
X32241314Y-54696098D01*
X32209152Y-54634070D01*
X32215631Y-54564502D01*
X32258693Y-54509479D01*
X32261945Y-54507230D01*
X32264869Y-54505277D01*
X32770927Y-53999219D01*
X33372499Y-53397648D01*
X56699500Y-53397648D01*
X56699500Y-53602351D01*
X56731522Y-53804534D01*
X56794781Y-53999223D01*
X56887715Y-54181613D01*
X57008028Y-54347213D01*
X57152786Y-54491971D01*
X57307749Y-54604556D01*
X57318390Y-54612287D01*
X57432021Y-54670185D01*
X57500776Y-54705218D01*
X57500778Y-54705218D01*
X57500781Y-54705220D01*
X57605137Y-54739127D01*
X57695465Y-54768477D01*
X57796557Y-54784488D01*
X57897648Y-54800500D01*
X57897649Y-54800500D01*
X58102351Y-54800500D01*
X58102352Y-54800500D01*
X58304534Y-54768477D01*
X58499219Y-54705220D01*
X58681610Y-54612287D01*
X58774590Y-54544732D01*
X58847213Y-54491971D01*
X58847215Y-54491968D01*
X58847219Y-54491966D01*
X58991966Y-54347219D01*
X58991968Y-54347215D01*
X58991971Y-54347213D01*
X59044732Y-54274590D01*
X59112287Y-54181610D01*
X59205220Y-53999219D01*
X59268477Y-53804534D01*
X59300500Y-53602352D01*
X59300500Y-53397648D01*
X59297289Y-53377377D01*
X59268477Y-53195465D01*
X59205218Y-53000776D01*
X59171503Y-52934607D01*
X59112287Y-52818390D01*
X59104556Y-52807749D01*
X58991971Y-52652786D01*
X58847213Y-52508028D01*
X58681613Y-52387715D01*
X58681612Y-52387714D01*
X58681610Y-52387713D01*
X58624653Y-52358691D01*
X58499223Y-52294781D01*
X58304534Y-52231522D01*
X58129995Y-52203878D01*
X58102352Y-52199500D01*
X57897648Y-52199500D01*
X57873329Y-52203351D01*
X57695465Y-52231522D01*
X57500776Y-52294781D01*
X57318386Y-52387715D01*
X57152786Y-52508028D01*
X57008028Y-52652786D01*
X56887715Y-52818386D01*
X56794781Y-53000776D01*
X56731522Y-53195465D01*
X56699500Y-53397648D01*
X33372499Y-53397648D01*
X33465052Y-53305095D01*
X40347291Y-46422854D01*
X41751415Y-45018729D01*
X41812736Y-44985246D01*
X41882428Y-44990230D01*
X41926773Y-45018730D01*
X43634356Y-46726347D01*
X46413218Y-49505266D01*
X46413221Y-49505269D01*
X46413224Y-49505271D01*
X46413225Y-49505272D01*
X46519767Y-49576462D01*
X46519770Y-49576463D01*
X46519773Y-49576465D01*
X46519794Y-49576473D01*
X46521205Y-49577165D01*
X46523819Y-49578141D01*
X46580700Y-49601701D01*
X46634112Y-49623826D01*
X46637490Y-49625368D01*
X46638154Y-49625500D01*
X46638156Y-49625501D01*
X46709110Y-49639615D01*
X46763829Y-49650500D01*
X46763831Y-49650500D01*
X46891962Y-49650500D01*
X52801929Y-49650500D01*
X52868968Y-49670185D01*
X52902245Y-49701613D01*
X53008030Y-49847213D01*
X53008034Y-49847219D01*
X53152786Y-49991971D01*
X53307749Y-50104556D01*
X53318390Y-50112287D01*
X53434607Y-50171503D01*
X53500776Y-50205218D01*
X53500778Y-50205218D01*
X53500781Y-50205220D01*
X53605137Y-50239127D01*
X53695465Y-50268477D01*
X53796557Y-50284488D01*
X53897648Y-50300500D01*
X53897649Y-50300500D01*
X54102351Y-50300500D01*
X54102352Y-50300500D01*
X54304534Y-50268477D01*
X54499219Y-50205220D01*
X54681610Y-50112287D01*
X54774590Y-50044732D01*
X54847213Y-49991971D01*
X54847215Y-49991968D01*
X54847219Y-49991966D01*
X54991966Y-49847219D01*
X54991968Y-49847215D01*
X54991971Y-49847213D01*
X55044732Y-49774590D01*
X55112287Y-49681610D01*
X55205220Y-49499219D01*
X55268477Y-49304534D01*
X55300500Y-49102352D01*
X55300500Y-48897648D01*
X61699500Y-48897648D01*
X61699500Y-49102351D01*
X61731522Y-49304534D01*
X61794781Y-49499223D01*
X61887715Y-49681613D01*
X62008028Y-49847213D01*
X62152786Y-49991971D01*
X62307749Y-50104556D01*
X62318390Y-50112287D01*
X62434607Y-50171503D01*
X62500776Y-50205218D01*
X62500778Y-50205218D01*
X62500781Y-50205220D01*
X62605137Y-50239127D01*
X62695465Y-50268477D01*
X62796557Y-50284488D01*
X62897648Y-50300500D01*
X62897649Y-50300500D01*
X63102351Y-50300500D01*
X63102352Y-50300500D01*
X63304534Y-50268477D01*
X63499219Y-50205220D01*
X63681610Y-50112287D01*
X63774590Y-50044732D01*
X63847213Y-49991971D01*
X63847215Y-49991968D01*
X63847219Y-49991966D01*
X63991966Y-49847219D01*
X63991968Y-49847215D01*
X63991971Y-49847213D01*
X64044732Y-49774590D01*
X64112287Y-49681610D01*
X64205220Y-49499219D01*
X64268477Y-49304534D01*
X64300500Y-49102352D01*
X64300500Y-48897648D01*
X64268477Y-48695466D01*
X64262447Y-48676909D01*
X64205218Y-48500776D01*
X64123833Y-48341051D01*
X64112287Y-48318390D01*
X64097753Y-48298385D01*
X63991971Y-48152786D01*
X63847213Y-48008028D01*
X63681613Y-47887715D01*
X63681612Y-47887714D01*
X63681610Y-47887713D01*
X63624653Y-47858691D01*
X63499223Y-47794781D01*
X63304534Y-47731522D01*
X63129995Y-47703878D01*
X63102352Y-47699500D01*
X62897648Y-47699500D01*
X62873329Y-47703351D01*
X62695465Y-47731522D01*
X62500776Y-47794781D01*
X62318386Y-47887715D01*
X62152786Y-48008028D01*
X62008028Y-48152786D01*
X61887715Y-48318386D01*
X61794781Y-48500776D01*
X61731522Y-48695465D01*
X61699500Y-48897648D01*
X55300500Y-48897648D01*
X55268477Y-48695466D01*
X55262447Y-48676909D01*
X55205218Y-48500776D01*
X55123833Y-48341051D01*
X55112287Y-48318390D01*
X55097753Y-48298385D01*
X54991971Y-48152786D01*
X54847213Y-48008028D01*
X54681613Y-47887715D01*
X54681612Y-47887714D01*
X54681610Y-47887713D01*
X54624653Y-47858691D01*
X54499223Y-47794781D01*
X54304534Y-47731522D01*
X54129995Y-47703878D01*
X54102352Y-47699500D01*
X53897648Y-47699500D01*
X53873329Y-47703351D01*
X53695465Y-47731522D01*
X53500776Y-47794781D01*
X53318386Y-47887715D01*
X53152786Y-48008028D01*
X53008034Y-48152780D01*
X52951597Y-48230460D01*
X52902246Y-48298386D01*
X52846918Y-48341051D01*
X52801929Y-48349500D01*
X47148714Y-48349500D01*
X47081675Y-48329815D01*
X47061032Y-48313180D01*
X42349764Y-43601820D01*
X42344379Y-43596435D01*
X42344377Y-43596431D01*
X42253769Y-43505823D01*
X42253768Y-43505822D01*
X42250665Y-43502719D01*
X42250650Y-43502705D01*
X34129319Y-35381470D01*
X34095834Y-35320147D01*
X34093000Y-35293788D01*
X34093000Y-34787597D01*
X39832000Y-34787597D01*
X39832000Y-36747402D01*
X39872640Y-37003993D01*
X39952922Y-37251076D01*
X40034034Y-37410264D01*
X40070866Y-37482551D01*
X40223569Y-37692729D01*
X40407271Y-37876431D01*
X40617449Y-38029134D01*
X40764945Y-38104287D01*
X40848923Y-38147077D01*
X40848925Y-38147077D01*
X40848928Y-38147079D01*
X41096007Y-38227360D01*
X41228206Y-38248297D01*
X41352598Y-38268000D01*
X41352603Y-38268000D01*
X41612402Y-38268000D01*
X41725798Y-38250039D01*
X41868993Y-38227360D01*
X42116072Y-38147079D01*
X42347551Y-38029134D01*
X42557729Y-37876431D01*
X42741431Y-37692729D01*
X42894134Y-37482551D01*
X43012079Y-37251072D01*
X43092360Y-37003993D01*
X43115039Y-36860798D01*
X43133000Y-36747402D01*
X43133000Y-34787597D01*
X43111447Y-34651521D01*
X43092360Y-34531007D01*
X43012079Y-34283928D01*
X43012077Y-34283925D01*
X43012077Y-34283923D01*
X42969287Y-34199945D01*
X42894134Y-34052449D01*
X42741431Y-33842271D01*
X42557729Y-33658569D01*
X42347551Y-33505866D01*
X42275264Y-33469034D01*
X42116076Y-33387922D01*
X41868993Y-33307640D01*
X41612402Y-33267000D01*
X41612397Y-33267000D01*
X41352603Y-33267000D01*
X41352598Y-33267000D01*
X41096006Y-33307640D01*
X40848923Y-33387922D01*
X40617445Y-33505868D01*
X40407274Y-33658566D01*
X40407268Y-33658571D01*
X40223571Y-33842268D01*
X40223566Y-33842274D01*
X40070868Y-34052445D01*
X39952922Y-34283923D01*
X39872640Y-34531006D01*
X39832000Y-34787597D01*
X34093000Y-34787597D01*
X34093000Y-30083859D01*
X34112685Y-30016820D01*
X34160705Y-29973374D01*
X34176522Y-29965315D01*
X34354865Y-29835742D01*
X34510742Y-29679865D01*
X34640315Y-29501522D01*
X34740395Y-29305106D01*
X34808515Y-29095451D01*
X34843000Y-28877722D01*
X34843000Y-28657278D01*
X34808515Y-28439549D01*
X34765672Y-28307690D01*
X34740396Y-28229896D01*
X34740395Y-28229893D01*
X34705737Y-28161875D01*
X34640315Y-28033478D01*
X34608729Y-27990003D01*
X34510747Y-27855141D01*
X34510743Y-27855136D01*
X34354863Y-27699256D01*
X34354858Y-27699252D01*
X34176525Y-27569687D01*
X34176524Y-27569686D01*
X34176522Y-27569685D01*
X34113596Y-27537622D01*
X33980106Y-27469604D01*
X33980103Y-27469603D01*
X33770452Y-27401485D01*
X33661586Y-27384242D01*
X33552722Y-27367000D01*
X33332278Y-27367000D01*
X33259701Y-27378495D01*
X33114547Y-27401485D01*
X32904896Y-27469603D01*
X32904893Y-27469604D01*
X32708474Y-27569687D01*
X32530141Y-27699252D01*
X32530136Y-27699256D01*
X32374256Y-27855136D01*
X32374252Y-27855141D01*
X32244687Y-28033474D01*
X32144604Y-28229893D01*
X32144603Y-28229896D01*
X32076485Y-28439547D01*
X32042000Y-28657278D01*
X32042000Y-28877721D01*
X32076485Y-29095452D01*
X32144603Y-29305103D01*
X32144604Y-29305106D01*
X32244687Y-29501525D01*
X32374252Y-29679858D01*
X32374256Y-29679863D01*
X32530136Y-29835743D01*
X32530141Y-29835747D01*
X32708473Y-29965312D01*
X32708475Y-29965313D01*
X32708478Y-29965315D01*
X32724295Y-29973374D01*
X32775091Y-30021348D01*
X32792000Y-30083859D01*
X32792000Y-35678669D01*
X32792000Y-35678671D01*
X32791999Y-35678671D01*
X32816997Y-35804338D01*
X32816999Y-35804344D01*
X32866037Y-35922732D01*
X32866041Y-35922740D01*
X32866156Y-35922971D01*
X32867262Y-35924564D01*
X32937222Y-36029267D01*
X32937223Y-36029268D01*
X32937226Y-36029272D01*
X36007085Y-39099095D01*
X38563338Y-41655318D01*
X38596823Y-41716641D01*
X38591839Y-41786333D01*
X38549968Y-41842267D01*
X38484504Y-41866684D01*
X38475657Y-41867000D01*
X38412278Y-41867000D01*
X38339701Y-41878495D01*
X38194547Y-41901485D01*
X37984896Y-41969603D01*
X37984893Y-41969604D01*
X37788474Y-42069687D01*
X37610141Y-42199252D01*
X37610136Y-42199256D01*
X37454256Y-42355136D01*
X37454252Y-42355141D01*
X37324687Y-42533474D01*
X37224604Y-42729893D01*
X37224603Y-42729896D01*
X37156485Y-42939547D01*
X37122000Y-43157278D01*
X37122000Y-43377721D01*
X37156485Y-43595452D01*
X37161970Y-43612333D01*
X37163965Y-43682174D01*
X37131720Y-43738332D01*
X33381277Y-47488775D01*
X33319954Y-47522260D01*
X33250262Y-47517276D01*
X33194329Y-47475404D01*
X33183111Y-47457389D01*
X33163724Y-47419342D01*
X33112287Y-47318390D01*
X33091907Y-47290339D01*
X32991971Y-47152786D01*
X32847213Y-47008028D01*
X32681613Y-46887715D01*
X32681612Y-46887714D01*
X32681610Y-46887713D01*
X32624653Y-46858691D01*
X32499223Y-46794781D01*
X32304534Y-46731522D01*
X32129995Y-46703878D01*
X32102352Y-46699500D01*
X31897648Y-46699500D01*
X31873329Y-46703351D01*
X31695465Y-46731522D01*
X31500776Y-46794781D01*
X31318386Y-46887715D01*
X31152786Y-47008028D01*
X31008028Y-47152786D01*
X30887715Y-47318386D01*
X30794781Y-47500776D01*
X30731522Y-47695465D01*
X30699500Y-47897648D01*
X30699500Y-48102351D01*
X30731522Y-48304534D01*
X30794781Y-48499223D01*
X30887715Y-48681613D01*
X31008028Y-48847213D01*
X31152786Y-48991971D01*
X31307749Y-49104556D01*
X31318390Y-49112287D01*
X31419342Y-49163724D01*
X31457389Y-49183111D01*
X31508185Y-49231086D01*
X31524980Y-49298907D01*
X31502442Y-49365042D01*
X31488775Y-49381277D01*
X29556873Y-51313181D01*
X29495550Y-51346666D01*
X29469192Y-51349500D01*
X23038071Y-51349500D01*
X22971032Y-51329815D01*
X22937754Y-51298386D01*
X22831966Y-51152781D01*
X22687219Y-51008034D01*
X22687213Y-51008028D01*
X22521613Y-50887715D01*
X22521612Y-50887714D01*
X22521610Y-50887713D01*
X22464653Y-50858691D01*
X22339223Y-50794781D01*
X22144534Y-50731522D01*
X21969995Y-50703878D01*
X21942352Y-50699500D01*
X21737648Y-50699500D01*
X21713329Y-50703351D01*
X21535465Y-50731522D01*
X21340776Y-50794781D01*
X21158386Y-50887715D01*
X20992786Y-51008028D01*
X20848028Y-51152786D01*
X20727715Y-51318386D01*
X20634781Y-51500776D01*
X20571522Y-51695465D01*
X20539500Y-51897648D01*
X-84215Y-51897648D01*
X-445373Y-51100554D01*
X-448478Y-51093057D01*
X-1354959Y-48684593D01*
X-1357568Y-48676909D01*
X-1700333Y-47546966D01*
X-1709776Y-47515837D01*
X16999500Y-47515837D01*
X16999500Y-47744162D01*
X17035215Y-47969660D01*
X17105770Y-48186803D01*
X17178639Y-48329815D01*
X17209421Y-48390228D01*
X17343621Y-48574937D01*
X17505063Y-48736379D01*
X17689772Y-48870579D01*
X17742898Y-48897648D01*
X17893196Y-48974229D01*
X17893198Y-48974229D01*
X17893201Y-48974231D01*
X18009592Y-49012049D01*
X18110339Y-49044784D01*
X18335838Y-49080500D01*
X18335843Y-49080500D01*
X18564162Y-49080500D01*
X18789660Y-49044784D01*
X19006799Y-48974231D01*
X19210228Y-48870579D01*
X19394937Y-48736379D01*
X19556379Y-48574937D01*
X19690579Y-48390228D01*
X19794231Y-48186799D01*
X19864784Y-47969660D01*
X19876189Y-47897648D01*
X20539500Y-47897648D01*
X20539500Y-48102351D01*
X20571522Y-48304534D01*
X20634781Y-48499223D01*
X20727715Y-48681613D01*
X20848028Y-48847213D01*
X20992786Y-48991971D01*
X21147749Y-49104556D01*
X21158390Y-49112287D01*
X21274607Y-49171503D01*
X21340776Y-49205218D01*
X21340778Y-49205218D01*
X21340781Y-49205220D01*
X21445137Y-49239127D01*
X21535465Y-49268477D01*
X21636557Y-49284488D01*
X21737648Y-49300500D01*
X21737649Y-49300500D01*
X21942351Y-49300500D01*
X21942352Y-49300500D01*
X22144534Y-49268477D01*
X22339219Y-49205220D01*
X22521610Y-49112287D01*
X22614590Y-49044732D01*
X22687213Y-48991971D01*
X22687215Y-48991968D01*
X22687219Y-48991966D01*
X22831966Y-48847219D01*
X22831968Y-48847215D01*
X22831971Y-48847213D01*
X22912495Y-48736379D01*
X22952287Y-48681610D01*
X23045220Y-48499219D01*
X23108477Y-48304534D01*
X23140500Y-48102352D01*
X23140500Y-47897648D01*
X23112345Y-47719886D01*
X23121300Y-47650593D01*
X23147134Y-47612810D01*
X26805627Y-43954319D01*
X26866950Y-43920834D01*
X26893308Y-43918000D01*
X32126141Y-43918000D01*
X32193180Y-43937685D01*
X32236626Y-43985705D01*
X32244687Y-44001526D01*
X32374252Y-44179858D01*
X32374256Y-44179863D01*
X32530136Y-44335743D01*
X32530141Y-44335747D01*
X32685692Y-44448760D01*
X32708478Y-44465315D01*
X32836875Y-44530737D01*
X32904893Y-44565395D01*
X32904896Y-44565396D01*
X33009721Y-44599455D01*
X33114549Y-44633515D01*
X33332278Y-44668000D01*
X33332279Y-44668000D01*
X33552721Y-44668000D01*
X33552722Y-44668000D01*
X33770451Y-44633515D01*
X33980106Y-44565395D01*
X34176522Y-44465315D01*
X34354865Y-44335742D01*
X34510742Y-44179865D01*
X34640315Y-44001522D01*
X34740395Y-43805106D01*
X34808515Y-43595451D01*
X34843000Y-43377722D01*
X34843000Y-43157278D01*
X34808515Y-42939549D01*
X34740395Y-42729894D01*
X34740395Y-42729893D01*
X34674256Y-42600091D01*
X34640315Y-42533478D01*
X34623760Y-42510692D01*
X34510747Y-42355141D01*
X34510743Y-42355136D01*
X34354863Y-42199256D01*
X34354858Y-42199252D01*
X34176525Y-42069687D01*
X34176524Y-42069686D01*
X34176522Y-42069685D01*
X34113596Y-42037622D01*
X33980106Y-41969604D01*
X33980103Y-41969603D01*
X33770452Y-41901485D01*
X33661586Y-41884242D01*
X33552722Y-41867000D01*
X33332278Y-41867000D01*
X33259701Y-41878495D01*
X33114547Y-41901485D01*
X32904896Y-41969603D01*
X32904893Y-41969604D01*
X32708474Y-42069687D01*
X32530141Y-42199252D01*
X32530136Y-42199256D01*
X32374256Y-42355136D01*
X32374252Y-42355141D01*
X32244687Y-42533473D01*
X32236626Y-42549295D01*
X32188652Y-42600091D01*
X32126141Y-42617000D01*
X26508429Y-42617000D01*
X26382761Y-42641997D01*
X26382755Y-42641999D01*
X26328432Y-42664501D01*
X26264377Y-42691033D01*
X26264369Y-42691037D01*
X26157826Y-42762226D01*
X22227190Y-46692862D01*
X22165867Y-46726347D01*
X22120111Y-46727654D01*
X21974611Y-46704609D01*
X21942352Y-46699500D01*
X21737648Y-46699500D01*
X21713329Y-46703351D01*
X21535465Y-46731522D01*
X21340776Y-46794781D01*
X21158386Y-46887715D01*
X20992786Y-47008028D01*
X20848028Y-47152786D01*
X20727715Y-47318386D01*
X20634781Y-47500776D01*
X20571522Y-47695465D01*
X20539500Y-47897648D01*
X19876189Y-47897648D01*
X19877763Y-47887713D01*
X19880034Y-47873378D01*
X19900500Y-47744162D01*
X19900500Y-47515837D01*
X19864784Y-47290339D01*
X19794229Y-47073196D01*
X19690578Y-46869771D01*
X19636094Y-46794781D01*
X19556379Y-46685063D01*
X19394937Y-46523621D01*
X19210228Y-46389421D01*
X19006803Y-46285770D01*
X18789660Y-46215215D01*
X18564162Y-46179500D01*
X18564157Y-46179500D01*
X18335843Y-46179500D01*
X18335838Y-46179500D01*
X18110339Y-46215215D01*
X17893196Y-46285770D01*
X17689771Y-46389421D01*
X17505061Y-46523622D01*
X17343622Y-46685061D01*
X17209421Y-46869771D01*
X17105770Y-47073196D01*
X17035215Y-47290339D01*
X16999500Y-47515837D01*
X-1709776Y-47515837D01*
X-2104595Y-46214292D01*
X-2106695Y-46206454D01*
X-2691057Y-43700266D01*
X-2692640Y-43692308D01*
X-3111838Y-41153261D01*
X-3112897Y-41145216D01*
X-3365135Y-38584197D01*
X-3365666Y-38576100D01*
X-3449867Y-36004056D01*
X-3449867Y-35995942D01*
X-3410309Y-34787597D01*
X28832000Y-34787597D01*
X28832000Y-36747402D01*
X28872640Y-37003993D01*
X28952922Y-37251076D01*
X29034034Y-37410264D01*
X29070866Y-37482551D01*
X29223569Y-37692729D01*
X29407271Y-37876431D01*
X29617449Y-38029134D01*
X29764945Y-38104287D01*
X29848923Y-38147077D01*
X29848925Y-38147077D01*
X29848928Y-38147079D01*
X30096007Y-38227360D01*
X30228206Y-38248297D01*
X30352598Y-38268000D01*
X30352603Y-38268000D01*
X30612402Y-38268000D01*
X30725798Y-38250039D01*
X30868993Y-38227360D01*
X31116072Y-38147079D01*
X31347551Y-38029134D01*
X31557729Y-37876431D01*
X31741431Y-37692729D01*
X31894134Y-37482551D01*
X32012079Y-37251072D01*
X32092360Y-37003993D01*
X32115039Y-36860798D01*
X32133000Y-36747402D01*
X32133000Y-34787597D01*
X32111447Y-34651521D01*
X32092360Y-34531007D01*
X32012079Y-34283928D01*
X32012077Y-34283925D01*
X32012077Y-34283923D01*
X31969287Y-34199945D01*
X31894134Y-34052449D01*
X31741431Y-33842271D01*
X31557729Y-33658569D01*
X31347551Y-33505866D01*
X31275264Y-33469034D01*
X31116076Y-33387922D01*
X30868993Y-33307640D01*
X30612402Y-33267000D01*
X30612397Y-33267000D01*
X30352603Y-33267000D01*
X30352598Y-33267000D01*
X30096006Y-33307640D01*
X29848923Y-33387922D01*
X29617445Y-33505868D01*
X29407274Y-33658566D01*
X29407268Y-33658571D01*
X29223571Y-33842268D01*
X29223566Y-33842274D01*
X29070868Y-34052445D01*
X28952922Y-34283923D01*
X28872640Y-34531006D01*
X28832000Y-34787597D01*
X-3410309Y-34787597D01*
X-3410017Y-34778674D01*
X-3365666Y-33423898D01*
X-3365135Y-33415801D01*
X-3112897Y-30854782D01*
X-3111838Y-30846737D01*
X-2692640Y-28307690D01*
X-2691057Y-28299732D01*
X-2106695Y-25793544D01*
X-2104595Y-25785706D01*
X-1357568Y-23323089D01*
X-1354959Y-23315405D01*
X-1197726Y-22897648D01*
X23859500Y-22897648D01*
X23859500Y-23102351D01*
X23891522Y-23304534D01*
X23954781Y-23499223D01*
X24047715Y-23681613D01*
X24168028Y-23847213D01*
X24312786Y-23991971D01*
X24447370Y-24089750D01*
X24478390Y-24112287D01*
X24594607Y-24171503D01*
X24660776Y-24205218D01*
X24660778Y-24205218D01*
X24660781Y-24205220D01*
X24765137Y-24239127D01*
X24855465Y-24268477D01*
X24956557Y-24284488D01*
X25057648Y-24300500D01*
X25057649Y-24300500D01*
X25262351Y-24300500D01*
X25262352Y-24300500D01*
X25464534Y-24268477D01*
X25659219Y-24205220D01*
X25841610Y-24112287D01*
X25934590Y-24044732D01*
X26007213Y-23991971D01*
X26007215Y-23991968D01*
X26007219Y-23991966D01*
X26151966Y-23847219D01*
X26151968Y-23847215D01*
X26151971Y-23847213D01*
X26204732Y-23774590D01*
X26272287Y-23681610D01*
X26365220Y-23499219D01*
X26428477Y-23304534D01*
X26460500Y-23102352D01*
X26460500Y-22897648D01*
X26438554Y-22759090D01*
X26428477Y-22695465D01*
X26378788Y-22542539D01*
X26365220Y-22500781D01*
X26365218Y-22500778D01*
X26365218Y-22500776D01*
X26331503Y-22434607D01*
X26272287Y-22318390D01*
X26246216Y-22282506D01*
X26151971Y-22152786D01*
X26007213Y-22008028D01*
X25841613Y-21887715D01*
X25841612Y-21887714D01*
X25841610Y-21887713D01*
X25744047Y-21838002D01*
X25659223Y-21794781D01*
X25464534Y-21731522D01*
X25289995Y-21703878D01*
X25262352Y-21699500D01*
X25057648Y-21699500D01*
X25033329Y-21703351D01*
X24855465Y-21731522D01*
X24660776Y-21794781D01*
X24478386Y-21887715D01*
X24312786Y-22008028D01*
X24168028Y-22152786D01*
X24047715Y-22318386D01*
X23954781Y-22500776D01*
X23891522Y-22695465D01*
X23859500Y-22897648D01*
X-1197726Y-22897648D01*
X-1179453Y-22849097D01*
X-448478Y-20906941D01*
X-445373Y-20899444D01*
X-105235Y-20148743D01*
X616710Y-18555373D01*
X620270Y-18548155D01*
X733756Y-18335837D01*
X22919500Y-18335837D01*
X22919500Y-18564162D01*
X22955215Y-18789660D01*
X23025770Y-19006803D01*
X23128509Y-19208438D01*
X23129421Y-19210228D01*
X23263621Y-19394937D01*
X23425063Y-19556379D01*
X23609772Y-19690579D01*
X23638503Y-19705218D01*
X23813196Y-19794229D01*
X23813198Y-19794229D01*
X23813201Y-19794231D01*
X23893079Y-19820185D01*
X24030339Y-19864784D01*
X24255838Y-19900500D01*
X24255843Y-19900500D01*
X24326816Y-19900500D01*
X24393855Y-19920185D01*
X24414497Y-19936819D01*
X30556743Y-26079067D01*
X30556751Y-26079073D01*
X30683760Y-26163938D01*
X30683765Y-26163940D01*
X30824895Y-26222398D01*
X30974715Y-26252199D01*
X30974719Y-26252200D01*
X30974720Y-26252200D01*
X37132981Y-26252200D01*
X37132982Y-26252199D01*
X37282805Y-26222398D01*
X37423937Y-26163939D01*
X37550952Y-26079070D01*
X37872370Y-25757653D01*
X37957239Y-25630637D01*
X38015698Y-25489505D01*
X38015700Y-25489494D01*
X38016002Y-25488501D01*
X38016305Y-25488037D01*
X38018029Y-25483877D01*
X38018818Y-25484203D01*
X38054301Y-25430064D01*
X38118113Y-25401608D01*
X38134662Y-25400499D01*
X38217871Y-25400499D01*
X38217872Y-25400499D01*
X38277483Y-25394091D01*
X38412331Y-25343796D01*
X38465689Y-25303851D01*
X38531153Y-25279435D01*
X38599426Y-25294286D01*
X38614311Y-25303852D01*
X38667669Y-25343796D01*
X38667671Y-25343797D01*
X38802517Y-25394091D01*
X38802516Y-25394091D01*
X38809444Y-25394835D01*
X38862127Y-25400500D01*
X40757872Y-25400499D01*
X40817483Y-25394091D01*
X40952331Y-25343796D01*
X41067546Y-25257546D01*
X41153796Y-25142331D01*
X41204091Y-25007483D01*
X41210500Y-24947873D01*
X41210499Y-23052128D01*
X41204091Y-22992517D01*
X41161962Y-22879564D01*
X41153797Y-22857671D01*
X41153793Y-22857664D01*
X41067547Y-22742455D01*
X41067544Y-22742452D01*
X40952335Y-22656206D01*
X40952328Y-22656202D01*
X40817482Y-22605908D01*
X40817483Y-22605908D01*
X40757883Y-22599501D01*
X40757881Y-22599500D01*
X40757873Y-22599500D01*
X40757865Y-22599500D01*
X40709500Y-22599500D01*
X40700814Y-22596949D01*
X40691853Y-22598238D01*
X40667812Y-22587259D01*
X40642461Y-22579815D01*
X40636533Y-22572974D01*
X40628297Y-22569213D01*
X40614007Y-22546978D01*
X40596706Y-22527011D01*
X40594418Y-22516496D01*
X40590523Y-22510435D01*
X40585500Y-22475500D01*
X40585500Y-22440704D01*
X40605185Y-22373665D01*
X40657989Y-22327910D01*
X40677544Y-22321596D01*
X40677442Y-22321260D01*
X40683256Y-22319495D01*
X40683266Y-22319494D01*
X40685932Y-22318390D01*
X40847140Y-22251616D01*
X40847140Y-22251615D01*
X40847147Y-22251613D01*
X40994635Y-22153064D01*
X41120064Y-22027635D01*
X41218613Y-21880147D01*
X41286494Y-21716266D01*
X41297392Y-21661481D01*
X41315618Y-21569849D01*
X41321100Y-21542291D01*
X41321100Y-21364909D01*
X41321100Y-21364906D01*
X41321099Y-21364904D01*
X41286496Y-21190941D01*
X41286493Y-21190932D01*
X41218616Y-21027059D01*
X41218610Y-21027048D01*
X41212825Y-21018390D01*
X41191948Y-20951713D01*
X41210433Y-20884333D01*
X41262412Y-20837643D01*
X41315928Y-20825500D01*
X50553130Y-20825500D01*
X50620169Y-20845185D01*
X50665924Y-20897989D01*
X50670836Y-20910495D01*
X50715186Y-21044334D01*
X50807288Y-21193656D01*
X50931344Y-21317712D01*
X51080666Y-21409814D01*
X51247203Y-21464999D01*
X51349991Y-21475500D01*
X52650008Y-21475499D01*
X52752797Y-21464999D01*
X52919334Y-21409814D01*
X53068656Y-21317712D01*
X53192712Y-21193656D01*
X53284814Y-21044334D01*
X53339999Y-20877797D01*
X53350500Y-20775009D01*
X53350499Y-19768713D01*
X55649500Y-19768713D01*
X55649500Y-20231287D01*
X55682754Y-20441243D01*
X55738377Y-20612433D01*
X55748444Y-20643414D01*
X55844951Y-20832820D01*
X55969890Y-21004786D01*
X56120213Y-21155109D01*
X56292179Y-21280048D01*
X56292181Y-21280049D01*
X56292184Y-21280051D01*
X56481588Y-21376557D01*
X56683757Y-21442246D01*
X56893713Y-21475500D01*
X56893714Y-21475500D01*
X57106286Y-21475500D01*
X57106287Y-21475500D01*
X57316243Y-21442246D01*
X57518412Y-21376557D01*
X57707816Y-21280051D01*
X57810816Y-21205218D01*
X57879786Y-21155109D01*
X57879788Y-21155106D01*
X57879792Y-21155104D01*
X58030104Y-21004792D01*
X58149683Y-20840204D01*
X58205011Y-20797540D01*
X58274624Y-20791561D01*
X58336420Y-20824166D01*
X58350313Y-20840199D01*
X58460581Y-20991971D01*
X58469896Y-21004792D01*
X58620213Y-21155109D01*
X58792179Y-21280048D01*
X58792181Y-21280049D01*
X58792184Y-21280051D01*
X58981588Y-21376557D01*
X59183757Y-21442246D01*
X59393713Y-21475500D01*
X59393714Y-21475500D01*
X59606286Y-21475500D01*
X59606287Y-21475500D01*
X59816243Y-21442246D01*
X60018412Y-21376557D01*
X60207816Y-21280051D01*
X60310816Y-21205218D01*
X60379786Y-21155109D01*
X60379788Y-21155106D01*
X60379792Y-21155104D01*
X60530104Y-21004792D01*
X60530106Y-21004788D01*
X60530109Y-21004786D01*
X60655048Y-20832820D01*
X60655047Y-20832820D01*
X60655051Y-20832816D01*
X60751557Y-20643412D01*
X60817246Y-20441243D01*
X60850500Y-20231287D01*
X60850500Y-19768713D01*
X60817246Y-19558757D01*
X60751557Y-19356588D01*
X60655051Y-19167184D01*
X60655049Y-19167181D01*
X60655048Y-19167179D01*
X60530109Y-18995213D01*
X60379786Y-18844890D01*
X60207820Y-18719951D01*
X60018414Y-18623444D01*
X60018413Y-18623443D01*
X60018412Y-18623443D01*
X59816243Y-18557754D01*
X59816241Y-18557753D01*
X59816240Y-18557753D01*
X59654957Y-18532208D01*
X59606287Y-18524500D01*
X59393713Y-18524500D01*
X59345042Y-18532208D01*
X59183760Y-18557753D01*
X58981585Y-18623444D01*
X58792179Y-18719951D01*
X58620213Y-18844890D01*
X58469894Y-18995209D01*
X58469890Y-18995214D01*
X58350318Y-19159793D01*
X58294989Y-19202459D01*
X58225375Y-19208438D01*
X58163580Y-19175833D01*
X58149682Y-19159793D01*
X58030109Y-18995214D01*
X58030105Y-18995209D01*
X57879786Y-18844890D01*
X57707820Y-18719951D01*
X57518414Y-18623444D01*
X57518413Y-18623443D01*
X57518412Y-18623443D01*
X57316243Y-18557754D01*
X57316241Y-18557753D01*
X57316240Y-18557753D01*
X57154957Y-18532208D01*
X57106287Y-18524500D01*
X56893713Y-18524500D01*
X56845042Y-18532208D01*
X56683760Y-18557753D01*
X56481585Y-18623444D01*
X56292179Y-18719951D01*
X56120213Y-18844890D01*
X55969890Y-18995213D01*
X55844951Y-19167179D01*
X55748444Y-19356585D01*
X55682753Y-19558760D01*
X55661875Y-19690578D01*
X55649500Y-19768713D01*
X53350499Y-19768713D01*
X53350499Y-19224992D01*
X53346067Y-19181610D01*
X53339999Y-19122203D01*
X53339998Y-19122200D01*
X53284814Y-18955666D01*
X53192712Y-18806344D01*
X53068656Y-18682288D01*
X52948316Y-18608062D01*
X52919336Y-18590187D01*
X52919331Y-18590185D01*
X52865309Y-18572284D01*
X52752797Y-18535001D01*
X52752795Y-18535000D01*
X52650010Y-18524500D01*
X51349998Y-18524500D01*
X51349981Y-18524501D01*
X51247203Y-18535000D01*
X51247200Y-18535001D01*
X51080668Y-18590185D01*
X51080663Y-18590187D01*
X50931342Y-18682289D01*
X50807289Y-18806342D01*
X50715187Y-18955663D01*
X50715185Y-18955668D01*
X50703062Y-18992254D01*
X50670835Y-19089505D01*
X50631064Y-19146949D01*
X50566549Y-19173772D01*
X50553131Y-19174500D01*
X40893296Y-19174500D01*
X40826257Y-19154815D01*
X40805615Y-19138181D01*
X40336819Y-18669385D01*
X40303334Y-18608062D01*
X40300500Y-18581704D01*
X40300500Y-18397648D01*
X40268477Y-18195465D01*
X40205218Y-18000776D01*
X40150405Y-17893201D01*
X40112287Y-17818390D01*
X40062712Y-17750155D01*
X39991971Y-17652786D01*
X39847213Y-17508028D01*
X39681613Y-17387715D01*
X39681612Y-17387714D01*
X39681610Y-17387713D01*
X39595075Y-17343621D01*
X39499223Y-17294781D01*
X39304534Y-17231522D01*
X39128863Y-17203699D01*
X39102352Y-17199500D01*
X38918295Y-17199500D01*
X38851256Y-17179815D01*
X38830614Y-17163181D01*
X37900834Y-16233401D01*
X37867349Y-16172078D01*
X37866934Y-16125594D01*
X37866703Y-16125572D01*
X37866914Y-16123419D01*
X37866898Y-16121524D01*
X37867300Y-16119503D01*
X37867300Y-15235837D01*
X38659500Y-15235837D01*
X38659500Y-15464162D01*
X38695215Y-15689660D01*
X38765770Y-15906803D01*
X38829708Y-16032287D01*
X38869421Y-16110228D01*
X39003621Y-16294937D01*
X39165063Y-16456379D01*
X39349772Y-16590579D01*
X39393356Y-16612786D01*
X39553196Y-16694229D01*
X39553198Y-16694229D01*
X39553201Y-16694231D01*
X39669592Y-16732049D01*
X39770339Y-16764784D01*
X39995838Y-16800500D01*
X39995843Y-16800500D01*
X40224162Y-16800500D01*
X40449660Y-16764784D01*
X40666799Y-16694231D01*
X40870228Y-16590579D01*
X41054937Y-16456379D01*
X41216379Y-16294937D01*
X41350579Y-16110228D01*
X41454231Y-15906799D01*
X41524784Y-15689660D01*
X41531873Y-15644904D01*
X41560500Y-15464162D01*
X41560500Y-15235837D01*
X41524784Y-15010339D01*
X41454229Y-14793196D01*
X41350578Y-14589771D01*
X41216379Y-14405063D01*
X41054937Y-14243621D01*
X40870228Y-14109421D01*
X40824660Y-14086203D01*
X40666803Y-14005770D01*
X40449660Y-13935215D01*
X40224162Y-13899500D01*
X40224157Y-13899500D01*
X39995843Y-13899500D01*
X39995838Y-13899500D01*
X39770339Y-13935215D01*
X39553196Y-14005770D01*
X39349771Y-14109421D01*
X39165061Y-14243622D01*
X39003622Y-14405061D01*
X38869421Y-14589771D01*
X38765770Y-14793196D01*
X38695215Y-15010339D01*
X38659500Y-15235837D01*
X37867300Y-15235837D01*
X37867300Y-11874038D01*
X51239500Y-11874038D01*
X51239500Y-12125961D01*
X51278910Y-12374785D01*
X51356760Y-12614383D01*
X51471132Y-12838848D01*
X51619201Y-13042649D01*
X51619205Y-13042654D01*
X51797345Y-13220794D01*
X51797350Y-13220798D01*
X51975117Y-13349952D01*
X52001155Y-13368870D01*
X52144184Y-13441747D01*
X52225616Y-13483239D01*
X52225618Y-13483239D01*
X52225621Y-13483241D01*
X52465215Y-13561090D01*
X52714038Y-13600500D01*
X52714039Y-13600500D01*
X52965961Y-13600500D01*
X52965962Y-13600500D01*
X53214785Y-13561090D01*
X53454379Y-13483241D01*
X53678845Y-13368870D01*
X53882656Y-13220793D01*
X54060793Y-13042656D01*
X54208870Y-12838845D01*
X54323241Y-12614379D01*
X54401090Y-12374785D01*
X54440500Y-12125962D01*
X54440500Y-11874038D01*
X54401090Y-11625215D01*
X54323241Y-11385621D01*
X54323239Y-11385618D01*
X54323239Y-11385616D01*
X54239100Y-11220485D01*
X54208870Y-11161155D01*
X54179760Y-11121088D01*
X54164426Y-11099982D01*
X61399500Y-11099982D01*
X61399500Y-12900017D01*
X61410000Y-13002796D01*
X61429489Y-13061610D01*
X61465186Y-13169335D01*
X61557288Y-13318656D01*
X61681344Y-13442712D01*
X61830665Y-13534814D01*
X61997202Y-13589999D01*
X62099990Y-13600500D01*
X62099995Y-13600500D01*
X63900005Y-13600500D01*
X63900010Y-13600500D01*
X64002798Y-13589999D01*
X64169335Y-13534814D01*
X64318656Y-13442712D01*
X64442712Y-13318656D01*
X64534814Y-13169335D01*
X64589999Y-13002798D01*
X64600500Y-12900010D01*
X64600500Y-11099990D01*
X64589999Y-10997202D01*
X64534814Y-10830665D01*
X64442712Y-10681344D01*
X64318656Y-10557288D01*
X64169335Y-10465186D01*
X64002798Y-10410001D01*
X64002796Y-10410000D01*
X63900017Y-10399500D01*
X63900010Y-10399500D01*
X62099990Y-10399500D01*
X62099982Y-10399500D01*
X61997203Y-10410000D01*
X61997202Y-10410001D01*
X61914669Y-10437349D01*
X61830667Y-10465185D01*
X61830662Y-10465187D01*
X61681342Y-10557289D01*
X61557289Y-10681342D01*
X61465187Y-10830662D01*
X61465185Y-10830667D01*
X61451893Y-10870780D01*
X61410001Y-10997202D01*
X61410001Y-10997203D01*
X61410000Y-10997203D01*
X61399500Y-11099982D01*
X54164426Y-11099982D01*
X54060798Y-10957350D01*
X54060794Y-10957345D01*
X53882654Y-10779205D01*
X53882649Y-10779201D01*
X53678848Y-10631132D01*
X53678847Y-10631131D01*
X53678845Y-10631130D01*
X53608747Y-10595413D01*
X53454383Y-10516760D01*
X53214785Y-10438910D01*
X52965962Y-10399500D01*
X52714038Y-10399500D01*
X52647738Y-10410001D01*
X52465214Y-10438910D01*
X52225616Y-10516760D01*
X52001151Y-10631132D01*
X51797350Y-10779201D01*
X51797345Y-10779205D01*
X51619205Y-10957345D01*
X51619201Y-10957350D01*
X51471132Y-11161151D01*
X51356760Y-11385616D01*
X51278910Y-11625214D01*
X51239500Y-11874038D01*
X37867300Y-11874038D01*
X37867300Y-11180492D01*
X37835577Y-11021016D01*
X37835576Y-11021015D01*
X37835576Y-11021011D01*
X37826672Y-10999515D01*
X37773349Y-10870780D01*
X37773347Y-10870776D01*
X37683011Y-10735579D01*
X37683009Y-10735576D01*
X37628775Y-10681342D01*
X37568025Y-10620592D01*
X36956819Y-10009386D01*
X36923334Y-9948063D01*
X36920500Y-9921705D01*
X36920500Y-9737648D01*
X36888477Y-9535465D01*
X36825218Y-9340776D01*
X36756147Y-9205218D01*
X36732287Y-9158390D01*
X36724556Y-9147749D01*
X36611971Y-8992786D01*
X36467213Y-8848028D01*
X36301613Y-8727715D01*
X36301612Y-8727714D01*
X36301610Y-8727713D01*
X36211128Y-8681610D01*
X36119223Y-8634781D01*
X35924534Y-8571522D01*
X35749995Y-8543878D01*
X35722352Y-8539500D01*
X35517648Y-8539500D01*
X35493329Y-8543351D01*
X35315465Y-8571522D01*
X35120776Y-8634781D01*
X34938386Y-8727715D01*
X34772786Y-8848028D01*
X34628028Y-8992786D01*
X34507715Y-9158386D01*
X34414781Y-9340776D01*
X34351522Y-9535465D01*
X34319500Y-9737648D01*
X34319500Y-9942351D01*
X34351522Y-10144534D01*
X34414781Y-10339223D01*
X34450845Y-10410001D01*
X34505241Y-10516759D01*
X34507715Y-10521613D01*
X34628028Y-10687213D01*
X34772786Y-10831971D01*
X34927749Y-10944556D01*
X34938390Y-10952287D01*
X35029840Y-10998883D01*
X35031080Y-10999515D01*
X35081876Y-11047490D01*
X35098671Y-11115311D01*
X35076134Y-11181446D01*
X35031080Y-11220485D01*
X34938386Y-11267715D01*
X34772786Y-11388028D01*
X34628028Y-11532786D01*
X34507715Y-11698386D01*
X34414781Y-11880776D01*
X34351522Y-12075465D01*
X34319500Y-12277648D01*
X34319500Y-12482351D01*
X34351522Y-12684534D01*
X34414781Y-12879223D01*
X34477746Y-13002796D01*
X34498055Y-13042656D01*
X34507715Y-13061613D01*
X34628028Y-13227213D01*
X34772786Y-13371971D01*
X34870155Y-13442712D01*
X34938390Y-13492287D01*
X35021850Y-13534812D01*
X35120776Y-13585218D01*
X35120778Y-13585218D01*
X35120781Y-13585220D01*
X35179873Y-13604420D01*
X35315465Y-13648477D01*
X35334697Y-13651523D01*
X35517648Y-13680500D01*
X35517649Y-13680500D01*
X35722351Y-13680500D01*
X35722352Y-13680500D01*
X35924534Y-13648477D01*
X36053984Y-13606415D01*
X36123822Y-13604420D01*
X36183655Y-13640500D01*
X36214484Y-13703201D01*
X36216300Y-13724347D01*
X36216300Y-15644904D01*
X36196615Y-15711943D01*
X36179981Y-15732585D01*
X35789385Y-16123181D01*
X35728062Y-16156666D01*
X35701704Y-16159500D01*
X35517648Y-16159500D01*
X35493329Y-16163351D01*
X35315465Y-16191522D01*
X35120776Y-16254781D01*
X34938386Y-16347715D01*
X34772786Y-16468028D01*
X34628028Y-16612786D01*
X34507715Y-16778386D01*
X34414781Y-16960776D01*
X34351522Y-17155465D01*
X34319500Y-17357648D01*
X34319500Y-17562351D01*
X34351522Y-17764534D01*
X34414781Y-17959223D01*
X34478517Y-18084309D01*
X34501280Y-18128985D01*
X34507715Y-18141613D01*
X34628028Y-18307213D01*
X34758181Y-18437366D01*
X34791666Y-18498689D01*
X34794500Y-18525047D01*
X34794500Y-18934953D01*
X34774815Y-19001992D01*
X34758181Y-19022634D01*
X34628032Y-19152782D01*
X34628028Y-19152786D01*
X34507715Y-19318386D01*
X34414781Y-19500776D01*
X34351522Y-19695465D01*
X34319500Y-19897648D01*
X34319500Y-20081704D01*
X34299815Y-20148743D01*
X34283181Y-20169385D01*
X32791086Y-21661481D01*
X32729763Y-21694966D01*
X32703405Y-21697800D01*
X32108693Y-21697800D01*
X31949216Y-21729522D01*
X31949206Y-21729525D01*
X31798980Y-21791750D01*
X31798976Y-21791752D01*
X31663779Y-21882088D01*
X31663771Y-21882094D01*
X31548794Y-21997071D01*
X31548788Y-21997079D01*
X31458452Y-22132276D01*
X31458450Y-22132280D01*
X31396225Y-22282506D01*
X31396222Y-22282516D01*
X31364500Y-22441992D01*
X31364500Y-22475500D01*
X31344815Y-22542539D01*
X31292011Y-22588294D01*
X31245389Y-22598450D01*
X31245423Y-22599099D01*
X31245429Y-22599146D01*
X31245426Y-22599146D01*
X31245436Y-22599324D01*
X31242123Y-22599501D01*
X31182516Y-22605908D01*
X31047671Y-22656202D01*
X31047664Y-22656206D01*
X30932455Y-22742452D01*
X30932452Y-22742455D01*
X30846206Y-22857664D01*
X30846202Y-22857671D01*
X30795908Y-22992517D01*
X30789501Y-23052116D01*
X30789501Y-23052123D01*
X30789500Y-23052135D01*
X30789500Y-23819015D01*
X30769815Y-23886054D01*
X30717011Y-23931809D01*
X30647853Y-23941753D01*
X30584297Y-23912728D01*
X30577819Y-23906696D01*
X25759057Y-19087935D01*
X25725572Y-19026612D01*
X25728806Y-18961939D01*
X25784784Y-18789660D01*
X25820500Y-18564162D01*
X25820500Y-18335838D01*
X25809088Y-18263794D01*
X25797620Y-18191386D01*
X25806574Y-18122095D01*
X25832409Y-18084312D01*
X26487819Y-17428903D01*
X26549142Y-17395418D01*
X26618834Y-17400402D01*
X26674767Y-17442274D01*
X26699184Y-17507738D01*
X26699500Y-17516584D01*
X26699500Y-17562351D01*
X26731522Y-17764534D01*
X26794781Y-17959223D01*
X26858517Y-18084309D01*
X26881280Y-18128985D01*
X26887715Y-18141613D01*
X27008028Y-18307213D01*
X27152786Y-18451971D01*
X27298387Y-18557754D01*
X27318390Y-18572287D01*
X27417180Y-18622623D01*
X27500776Y-18665218D01*
X27500778Y-18665218D01*
X27500781Y-18665220D01*
X27605137Y-18699127D01*
X27695465Y-18728477D01*
X27796557Y-18744488D01*
X27897648Y-18760500D01*
X27897649Y-18760500D01*
X28102351Y-18760500D01*
X28102352Y-18760500D01*
X28304534Y-18728477D01*
X28499219Y-18665220D01*
X28681610Y-18572287D01*
X28782910Y-18498689D01*
X28847213Y-18451971D01*
X28847215Y-18451968D01*
X28847219Y-18451966D01*
X28991966Y-18307219D01*
X28991968Y-18307215D01*
X28991971Y-18307213D01*
X29044732Y-18234590D01*
X29112287Y-18141610D01*
X29205220Y-17959219D01*
X29268477Y-17764534D01*
X29300500Y-17562352D01*
X29300500Y-17357648D01*
X29290543Y-17294780D01*
X29268477Y-17155465D01*
X29229405Y-17035215D01*
X29205220Y-16960781D01*
X29205218Y-16960778D01*
X29205218Y-16960776D01*
X29171503Y-16894607D01*
X29112287Y-16778390D01*
X29102402Y-16764784D01*
X28991971Y-16612786D01*
X28847213Y-16468028D01*
X28681614Y-16347715D01*
X28675006Y-16344348D01*
X28588917Y-16300483D01*
X28538123Y-16252511D01*
X28521328Y-16184690D01*
X28543865Y-16118555D01*
X28588917Y-16079516D01*
X28681610Y-16032287D01*
X28702770Y-16016913D01*
X28847213Y-15911971D01*
X28847215Y-15911968D01*
X28847219Y-15911966D01*
X28991966Y-15767219D01*
X28991968Y-15767215D01*
X28991971Y-15767213D01*
X29080832Y-15644904D01*
X29112287Y-15601610D01*
X29205220Y-15419219D01*
X29268477Y-15224534D01*
X29300500Y-15022352D01*
X29300500Y-14817648D01*
X29296515Y-14792492D01*
X29305468Y-14723201D01*
X29331304Y-14685416D01*
X31390470Y-12626252D01*
X31475339Y-12499237D01*
X31533798Y-12358105D01*
X31563600Y-12208280D01*
X31563600Y-12055520D01*
X31563600Y-7978784D01*
X31583285Y-7911745D01*
X31599919Y-7891103D01*
X32872636Y-6618386D01*
X34232336Y-5258685D01*
X34293657Y-5225202D01*
X34363349Y-5230186D01*
X34419282Y-5272058D01*
X34430499Y-5290073D01*
X34507711Y-5441608D01*
X34507712Y-5441610D01*
X34628028Y-5607213D01*
X34772786Y-5751971D01*
X34900916Y-5845061D01*
X34938390Y-5872287D01*
X35054607Y-5931503D01*
X35120776Y-5965218D01*
X35120778Y-5965218D01*
X35120781Y-5965220D01*
X35225137Y-5999127D01*
X35315465Y-6028477D01*
X35395087Y-6041088D01*
X35517648Y-6060500D01*
X35517649Y-6060500D01*
X35722351Y-6060500D01*
X35722352Y-6060500D01*
X35924534Y-6028477D01*
X36119219Y-5965220D01*
X36301610Y-5872287D01*
X36394590Y-5804732D01*
X36467213Y-5751971D01*
X36467215Y-5751968D01*
X36467219Y-5751966D01*
X36611966Y-5607219D01*
X36611968Y-5607215D01*
X36611971Y-5607213D01*
X36732284Y-5441614D01*
X36732283Y-5441614D01*
X36732287Y-5441610D01*
X36804504Y-5299875D01*
X36852477Y-5249081D01*
X36920298Y-5232286D01*
X36986433Y-5254823D01*
X37002669Y-5268491D01*
X38188181Y-6454003D01*
X38221666Y-6515326D01*
X38224500Y-6541684D01*
X38224500Y-6892746D01*
X38204815Y-6959785D01*
X38173387Y-6993062D01*
X38163274Y-7000409D01*
X38152779Y-7008035D01*
X38008028Y-7152786D01*
X37887715Y-7318386D01*
X37794781Y-7500776D01*
X37731522Y-7695465D01*
X37715089Y-7799223D01*
X37699500Y-7897648D01*
X37699500Y-8102352D01*
X37700329Y-8107586D01*
X37731522Y-8304534D01*
X37794781Y-8499223D01*
X37833757Y-8575716D01*
X37867915Y-8642755D01*
X37887715Y-8681613D01*
X38008028Y-8847213D01*
X38152786Y-8991971D01*
X38307749Y-9104556D01*
X38318390Y-9112287D01*
X38434607Y-9171503D01*
X38500776Y-9205218D01*
X38500778Y-9205218D01*
X38500781Y-9205220D01*
X38605137Y-9239127D01*
X38695465Y-9268477D01*
X38796557Y-9284488D01*
X38897648Y-9300500D01*
X38897649Y-9300500D01*
X39102351Y-9300500D01*
X39102352Y-9300500D01*
X39304534Y-9268477D01*
X39499219Y-9205220D01*
X39681610Y-9112287D01*
X39774590Y-9044732D01*
X39847213Y-8991971D01*
X39847215Y-8991968D01*
X39847219Y-8991966D01*
X39991966Y-8847219D01*
X39991968Y-8847215D01*
X39991971Y-8847213D01*
X40078791Y-8727713D01*
X40112287Y-8681610D01*
X40205220Y-8499219D01*
X40268477Y-8304534D01*
X40300500Y-8102352D01*
X40300500Y-7897648D01*
X40268477Y-7695466D01*
X40205220Y-7500781D01*
X40205218Y-7500778D01*
X40205218Y-7500776D01*
X40155067Y-7402351D01*
X40112287Y-7318390D01*
X40104556Y-7307749D01*
X39991971Y-7152786D01*
X39847220Y-7008035D01*
X39847219Y-7008034D01*
X39826613Y-6993063D01*
X39783949Y-6937733D01*
X39775500Y-6892746D01*
X39775500Y-6238035D01*
X39795185Y-6170996D01*
X39847989Y-6125241D01*
X39917147Y-6115297D01*
X39918898Y-6115562D01*
X40025838Y-6132500D01*
X40025843Y-6132500D01*
X40254162Y-6132500D01*
X40479660Y-6096784D01*
X40505352Y-6088436D01*
X40696799Y-6026231D01*
X40900228Y-5922579D01*
X41084937Y-5788379D01*
X41246379Y-5626937D01*
X41332346Y-5508613D01*
X41387676Y-5465949D01*
X41432664Y-5457500D01*
X45469416Y-5457500D01*
X45536455Y-5477185D01*
X45557097Y-5493819D01*
X47828692Y-7765414D01*
X47862177Y-7826737D01*
X47863484Y-7872488D01*
X47859500Y-7897648D01*
X47859500Y-8102352D01*
X47860329Y-8107586D01*
X47891522Y-8304534D01*
X47954781Y-8499223D01*
X47993757Y-8575716D01*
X48027915Y-8642755D01*
X48047715Y-8681613D01*
X48168028Y-8847213D01*
X48312786Y-8991971D01*
X48467749Y-9104556D01*
X48478390Y-9112287D01*
X48594607Y-9171503D01*
X48660776Y-9205218D01*
X48660778Y-9205218D01*
X48660781Y-9205220D01*
X48765137Y-9239127D01*
X48855465Y-9268477D01*
X48956557Y-9284488D01*
X49057648Y-9300500D01*
X49057649Y-9300500D01*
X49262351Y-9300500D01*
X49262352Y-9300500D01*
X49464534Y-9268477D01*
X49659219Y-9205220D01*
X49841610Y-9112287D01*
X49934590Y-9044732D01*
X50007213Y-8991971D01*
X50007215Y-8991968D01*
X50007219Y-8991966D01*
X50151966Y-8847219D01*
X50151968Y-8847215D01*
X50151971Y-8847213D01*
X50238791Y-8727713D01*
X50272287Y-8681610D01*
X50365220Y-8499219D01*
X50428477Y-8304534D01*
X50460500Y-8102352D01*
X50460500Y-7897648D01*
X50428477Y-7695466D01*
X50365220Y-7500781D01*
X50365218Y-7500778D01*
X50365218Y-7500776D01*
X50315067Y-7402351D01*
X50272287Y-7318390D01*
X50264556Y-7307749D01*
X50151971Y-7152786D01*
X50007213Y-7008028D01*
X49841613Y-6887715D01*
X49841612Y-6887714D01*
X49841610Y-6887713D01*
X49784653Y-6858691D01*
X49659223Y-6794781D01*
X49464534Y-6731522D01*
X49287512Y-6703485D01*
X49262352Y-6699500D01*
X49057648Y-6699500D01*
X49032489Y-6703484D01*
X48963198Y-6694529D01*
X48925414Y-6668692D01*
X46336355Y-4079632D01*
X46336351Y-4079629D01*
X46209343Y-3994764D01*
X46209334Y-3994759D01*
X46068205Y-3936302D01*
X46068197Y-3936300D01*
X45918384Y-3906500D01*
X45918380Y-3906500D01*
X41432664Y-3906500D01*
X41365625Y-3886815D01*
X41332346Y-3855386D01*
X41246379Y-3737063D01*
X41084937Y-3575621D01*
X40900228Y-3441421D01*
X40831217Y-3406258D01*
X40696803Y-3337770D01*
X40479660Y-3267215D01*
X40254162Y-3231500D01*
X40254157Y-3231500D01*
X40025843Y-3231500D01*
X40025837Y-3231500D01*
X39881386Y-3254378D01*
X39812093Y-3245423D01*
X39774308Y-3219586D01*
X38432755Y-1878032D01*
X38432751Y-1878029D01*
X38305743Y-1793164D01*
X38305734Y-1793159D01*
X38164605Y-1734702D01*
X38164597Y-1734700D01*
X38014784Y-1704900D01*
X38014780Y-1704900D01*
X28363981Y-1704900D01*
X28211220Y-1704900D01*
X28211215Y-1704900D01*
X28061402Y-1734700D01*
X28061394Y-1734702D01*
X27920265Y-1793159D01*
X27920256Y-1793164D01*
X27793248Y-1878029D01*
X27793244Y-1878032D01*
X26474900Y-3196378D01*
X26128948Y-3542330D01*
X26095657Y-3575621D01*
X26020928Y-3650349D01*
X25936064Y-3777356D01*
X25936059Y-3777365D01*
X25877602Y-3918494D01*
X25877600Y-3918502D01*
X25847800Y-4068315D01*
X25847800Y-15824114D01*
X25828115Y-15891153D01*
X25811481Y-15911795D01*
X24735689Y-16987586D01*
X24674366Y-17021071D01*
X24628610Y-17022378D01*
X24484161Y-16999500D01*
X24484157Y-16999500D01*
X24255843Y-16999500D01*
X24255838Y-16999500D01*
X24030339Y-17035215D01*
X23813196Y-17105770D01*
X23609771Y-17209421D01*
X23425061Y-17343622D01*
X23263622Y-17505061D01*
X23129421Y-17689771D01*
X23025770Y-17893196D01*
X22955215Y-18110339D01*
X22919500Y-18335837D01*
X733756Y-18335837D01*
X1833389Y-16278569D01*
X1837440Y-16271553D01*
X1849282Y-16252511D01*
X3196381Y-14086197D01*
X3200886Y-14079456D01*
X3455354Y-13724347D01*
X4699848Y-11987655D01*
X4704785Y-11981223D01*
X4787220Y-11880776D01*
X6337359Y-9991925D01*
X6342683Y-9985855D01*
X8101889Y-8107570D01*
X8107570Y-8101889D01*
X9630150Y-6675837D01*
X22484500Y-6675837D01*
X22484500Y-6904162D01*
X22520215Y-7129660D01*
X22590770Y-7346803D01*
X22684020Y-7529815D01*
X22694421Y-7550228D01*
X22828621Y-7734937D01*
X22990063Y-7896379D01*
X23174772Y-8030579D01*
X23270884Y-8079550D01*
X23378196Y-8134229D01*
X23378198Y-8134229D01*
X23378201Y-8134231D01*
X23494592Y-8172049D01*
X23595339Y-8204784D01*
X23820838Y-8240500D01*
X23820843Y-8240500D01*
X24049162Y-8240500D01*
X24274660Y-8204784D01*
X24491799Y-8134231D01*
X24695228Y-8030579D01*
X24879937Y-7896379D01*
X25041379Y-7734937D01*
X25175579Y-7550228D01*
X25279231Y-7346799D01*
X25349784Y-7129660D01*
X25352605Y-7111848D01*
X25385500Y-6904162D01*
X25385500Y-6675837D01*
X25349784Y-6450339D01*
X25303544Y-6308028D01*
X25279231Y-6233201D01*
X25279229Y-6233198D01*
X25279229Y-6233196D01*
X25208702Y-6094780D01*
X25175579Y-6029772D01*
X25041379Y-5845063D01*
X24879937Y-5683621D01*
X24695228Y-5549421D01*
X24615140Y-5508614D01*
X24491803Y-5445770D01*
X24274660Y-5375215D01*
X24049162Y-5339500D01*
X24049157Y-5339500D01*
X23820843Y-5339500D01*
X23820838Y-5339500D01*
X23595339Y-5375215D01*
X23378196Y-5445770D01*
X23174771Y-5549421D01*
X22990061Y-5683622D01*
X22828622Y-5845061D01*
X22694421Y-6029771D01*
X22590770Y-6233196D01*
X22520215Y-6450339D01*
X22484500Y-6675837D01*
X9630150Y-6675837D01*
X9985855Y-6342683D01*
X9991925Y-6337359D01*
X11981228Y-4704780D01*
X11987661Y-4699845D01*
X14079462Y-3200881D01*
X14086203Y-3196378D01*
X16271562Y-1837433D01*
X16278568Y-1833389D01*
X18548155Y-620270D01*
X18555373Y-616710D01*
X20460301Y246400D01*
X20899444Y445373D01*
X20906941Y448478D01*
X23315405Y1354959D01*
X23323089Y1357568D01*
X25785706Y2104595D01*
X25793544Y2106695D01*
X28299732Y2691057D01*
X28307690Y2692640D01*
X30846737Y3111838D01*
X30854782Y3112897D01*
X33415801Y3365135D01*
X33423898Y3365666D01*
X35995942Y3449867D01*
X36004056Y3449867D01*
X38576100Y3365666D01*
G37*
%TD.AperFunction*%
%TD*%
M02*
