%TF.GenerationSoftware,KiCad,Pcbnew,10.0.4*%
%TF.CreationDate,2026-09-24T02:07:23-03:00*%
%TF.ProjectId,segno_pedal_ring,7365676e-6f5f-4706-9564-616c5f72696e,rev?*%
%TF.SameCoordinates,Original*%
%TF.FileFunction,Legend,Top*%
%TF.FilePolarity,Positive*%
%FSLAX46Y46*%
G04 Gerber Fmt 4.6, Leading zero omitted, Abs format (unit mm)*
G04 Created by KiCad (PCBNEW 10.0.4) date 2026-09-24 02:07:23*
%MOMM*%
%LPD*%
G01*
G04 APERTURE LIST*
%ADD10C,0.200000*%
%ADD11C,0.150000*%
%ADD12C,0.130000*%
%ADD13C,0.100000*%
%ADD14C,0.250000*%
%ADD15C,0.060000*%
G04 APERTURE END LIST*
D10*
X55888673Y-57296672D02*
X56074387Y-57358576D01*
X56074387Y-57358576D02*
X56383911Y-57358576D01*
X56383911Y-57358576D02*
X56507720Y-57296672D01*
X56507720Y-57296672D02*
X56569625Y-57234767D01*
X56569625Y-57234767D02*
X56631530Y-57110957D01*
X56631530Y-57110957D02*
X56631530Y-56987148D01*
X56631530Y-56987148D02*
X56569625Y-56863338D01*
X56569625Y-56863338D02*
X56507720Y-56801433D01*
X56507720Y-56801433D02*
X56383911Y-56739529D01*
X56383911Y-56739529D02*
X56136292Y-56677624D01*
X56136292Y-56677624D02*
X56012482Y-56615719D01*
X56012482Y-56615719D02*
X55950577Y-56553814D01*
X55950577Y-56553814D02*
X55888673Y-56430005D01*
X55888673Y-56430005D02*
X55888673Y-56306195D01*
X55888673Y-56306195D02*
X55950577Y-56182386D01*
X55950577Y-56182386D02*
X56012482Y-56120481D01*
X56012482Y-56120481D02*
X56136292Y-56058576D01*
X56136292Y-56058576D02*
X56445815Y-56058576D01*
X56445815Y-56058576D02*
X56631530Y-56120481D01*
X57188672Y-56677624D02*
X57622006Y-56677624D01*
X57807720Y-57358576D02*
X57188672Y-57358576D01*
X57188672Y-57358576D02*
X57188672Y-56058576D01*
X57188672Y-56058576D02*
X57807720Y-56058576D01*
X59045815Y-56120481D02*
X58922005Y-56058576D01*
X58922005Y-56058576D02*
X58736291Y-56058576D01*
X58736291Y-56058576D02*
X58550577Y-56120481D01*
X58550577Y-56120481D02*
X58426767Y-56244291D01*
X58426767Y-56244291D02*
X58364862Y-56368100D01*
X58364862Y-56368100D02*
X58302958Y-56615719D01*
X58302958Y-56615719D02*
X58302958Y-56801433D01*
X58302958Y-56801433D02*
X58364862Y-57049052D01*
X58364862Y-57049052D02*
X58426767Y-57172862D01*
X58426767Y-57172862D02*
X58550577Y-57296672D01*
X58550577Y-57296672D02*
X58736291Y-57358576D01*
X58736291Y-57358576D02*
X58860100Y-57358576D01*
X58860100Y-57358576D02*
X59045815Y-57296672D01*
X59045815Y-57296672D02*
X59107719Y-57234767D01*
X59107719Y-57234767D02*
X59107719Y-56801433D01*
X59107719Y-56801433D02*
X58860100Y-56801433D01*
X59664862Y-57358576D02*
X59664862Y-56058576D01*
X59664862Y-56058576D02*
X60407719Y-57358576D01*
X60407719Y-57358576D02*
X60407719Y-56058576D01*
X61274386Y-56058576D02*
X61522005Y-56058576D01*
X61522005Y-56058576D02*
X61645815Y-56120481D01*
X61645815Y-56120481D02*
X61769624Y-56244291D01*
X61769624Y-56244291D02*
X61831529Y-56491910D01*
X61831529Y-56491910D02*
X61831529Y-56925243D01*
X61831529Y-56925243D02*
X61769624Y-57172862D01*
X61769624Y-57172862D02*
X61645815Y-57296672D01*
X61645815Y-57296672D02*
X61522005Y-57358576D01*
X61522005Y-57358576D02*
X61274386Y-57358576D01*
X61274386Y-57358576D02*
X61150577Y-57296672D01*
X61150577Y-57296672D02*
X61026767Y-57172862D01*
X61026767Y-57172862D02*
X60964863Y-56925243D01*
X60964863Y-56925243D02*
X60964863Y-56491910D01*
X60964863Y-56491910D02*
X61026767Y-56244291D01*
X61026767Y-56244291D02*
X61150577Y-56120481D01*
X61150577Y-56120481D02*
X61274386Y-56058576D01*
X64122005Y-57358576D02*
X63688672Y-56739529D01*
X63379148Y-57358576D02*
X63379148Y-56058576D01*
X63379148Y-56058576D02*
X63874386Y-56058576D01*
X63874386Y-56058576D02*
X63998196Y-56120481D01*
X63998196Y-56120481D02*
X64060101Y-56182386D01*
X64060101Y-56182386D02*
X64122005Y-56306195D01*
X64122005Y-56306195D02*
X64122005Y-56491910D01*
X64122005Y-56491910D02*
X64060101Y-56615719D01*
X64060101Y-56615719D02*
X63998196Y-56677624D01*
X63998196Y-56677624D02*
X63874386Y-56739529D01*
X63874386Y-56739529D02*
X63379148Y-56739529D01*
X64679148Y-57358576D02*
X64679148Y-56058576D01*
X65298196Y-57358576D02*
X65298196Y-56058576D01*
X65298196Y-56058576D02*
X66041053Y-57358576D01*
X66041053Y-57358576D02*
X66041053Y-56058576D01*
X67341054Y-56120481D02*
X67217244Y-56058576D01*
X67217244Y-56058576D02*
X67031530Y-56058576D01*
X67031530Y-56058576D02*
X66845816Y-56120481D01*
X66845816Y-56120481D02*
X66722006Y-56244291D01*
X66722006Y-56244291D02*
X66660101Y-56368100D01*
X66660101Y-56368100D02*
X66598197Y-56615719D01*
X66598197Y-56615719D02*
X66598197Y-56801433D01*
X66598197Y-56801433D02*
X66660101Y-57049052D01*
X66660101Y-57049052D02*
X66722006Y-57172862D01*
X66722006Y-57172862D02*
X66845816Y-57296672D01*
X66845816Y-57296672D02*
X67031530Y-57358576D01*
X67031530Y-57358576D02*
X67155339Y-57358576D01*
X67155339Y-57358576D02*
X67341054Y-57296672D01*
X67341054Y-57296672D02*
X67402958Y-57234767D01*
X67402958Y-57234767D02*
X67402958Y-56801433D01*
X67402958Y-56801433D02*
X67155339Y-56801433D01*
D11*
X35700000Y-508557D02*
X35700000Y-1151414D01*
X35700000Y-1151414D02*
X35657143Y-1279985D01*
X35657143Y-1279985D02*
X35571429Y-1365700D01*
X35571429Y-1365700D02*
X35442857Y-1408557D01*
X35442857Y-1408557D02*
X35357143Y-1408557D01*
X36042857Y-508557D02*
X36600000Y-508557D01*
X36600000Y-508557D02*
X36300000Y-851414D01*
X36300000Y-851414D02*
X36428571Y-851414D01*
X36428571Y-851414D02*
X36514286Y-894271D01*
X36514286Y-894271D02*
X36557143Y-937128D01*
X36557143Y-937128D02*
X36600000Y-1022842D01*
X36600000Y-1022842D02*
X36600000Y-1237128D01*
X36600000Y-1237128D02*
X36557143Y-1322842D01*
X36557143Y-1322842D02*
X36514286Y-1365700D01*
X36514286Y-1365700D02*
X36428571Y-1408557D01*
X36428571Y-1408557D02*
X36171428Y-1408557D01*
X36171428Y-1408557D02*
X36085714Y-1365700D01*
X36085714Y-1365700D02*
X36042857Y-1322842D01*
D12*
X21171429Y-7153335D02*
X21171429Y-6353335D01*
X21171429Y-6353335D02*
X21361905Y-6353335D01*
X21361905Y-6353335D02*
X21476191Y-6391430D01*
X21476191Y-6391430D02*
X21552381Y-6467620D01*
X21552381Y-6467620D02*
X21590476Y-6543811D01*
X21590476Y-6543811D02*
X21628572Y-6696192D01*
X21628572Y-6696192D02*
X21628572Y-6810478D01*
X21628572Y-6810478D02*
X21590476Y-6962859D01*
X21590476Y-6962859D02*
X21552381Y-7039049D01*
X21552381Y-7039049D02*
X21476191Y-7115240D01*
X21476191Y-7115240D02*
X21361905Y-7153335D01*
X21361905Y-7153335D02*
X21171429Y-7153335D01*
X22123810Y-6353335D02*
X22276191Y-6353335D01*
X22276191Y-6353335D02*
X22352381Y-6391430D01*
X22352381Y-6391430D02*
X22428572Y-6467620D01*
X22428572Y-6467620D02*
X22466667Y-6620001D01*
X22466667Y-6620001D02*
X22466667Y-6886668D01*
X22466667Y-6886668D02*
X22428572Y-7039049D01*
X22428572Y-7039049D02*
X22352381Y-7115240D01*
X22352381Y-7115240D02*
X22276191Y-7153335D01*
X22276191Y-7153335D02*
X22123810Y-7153335D01*
X22123810Y-7153335D02*
X22047619Y-7115240D01*
X22047619Y-7115240D02*
X21971429Y-7039049D01*
X21971429Y-7039049D02*
X21933333Y-6886668D01*
X21933333Y-6886668D02*
X21933333Y-6620001D01*
X21933333Y-6620001D02*
X21971429Y-6467620D01*
X21971429Y-6467620D02*
X22047619Y-6391430D01*
X22047619Y-6391430D02*
X22123810Y-6353335D01*
X31707619Y-68963335D02*
X31326667Y-68963335D01*
X31326667Y-68963335D02*
X31288571Y-69344287D01*
X31288571Y-69344287D02*
X31326667Y-69306192D01*
X31326667Y-69306192D02*
X31402857Y-69268097D01*
X31402857Y-69268097D02*
X31593333Y-69268097D01*
X31593333Y-69268097D02*
X31669524Y-69306192D01*
X31669524Y-69306192D02*
X31707619Y-69344287D01*
X31707619Y-69344287D02*
X31745714Y-69420478D01*
X31745714Y-69420478D02*
X31745714Y-69610954D01*
X31745714Y-69610954D02*
X31707619Y-69687144D01*
X31707619Y-69687144D02*
X31669524Y-69725240D01*
X31669524Y-69725240D02*
X31593333Y-69763335D01*
X31593333Y-69763335D02*
X31402857Y-69763335D01*
X31402857Y-69763335D02*
X31326667Y-69725240D01*
X31326667Y-69725240D02*
X31288571Y-69687144D01*
X31974286Y-68963335D02*
X32240953Y-69763335D01*
X32240953Y-69763335D02*
X32507619Y-68963335D01*
X39740000Y-2963335D02*
X39740000Y-2163335D01*
X39740000Y-2163335D02*
X39930476Y-2163335D01*
X39930476Y-2163335D02*
X40044762Y-2201430D01*
X40044762Y-2201430D02*
X40120952Y-2277620D01*
X40120952Y-2277620D02*
X40159047Y-2353811D01*
X40159047Y-2353811D02*
X40197143Y-2506192D01*
X40197143Y-2506192D02*
X40197143Y-2620478D01*
X40197143Y-2620478D02*
X40159047Y-2772859D01*
X40159047Y-2772859D02*
X40120952Y-2849049D01*
X40120952Y-2849049D02*
X40044762Y-2925240D01*
X40044762Y-2925240D02*
X39930476Y-2963335D01*
X39930476Y-2963335D02*
X39740000Y-2963335D01*
X40540000Y-2963335D02*
X40540000Y-2163335D01*
X50409523Y-64786430D02*
X50333333Y-64748335D01*
X50333333Y-64748335D02*
X50219047Y-64748335D01*
X50219047Y-64748335D02*
X50104761Y-64786430D01*
X50104761Y-64786430D02*
X50028571Y-64862620D01*
X50028571Y-64862620D02*
X49990476Y-64938811D01*
X49990476Y-64938811D02*
X49952380Y-65091192D01*
X49952380Y-65091192D02*
X49952380Y-65205478D01*
X49952380Y-65205478D02*
X49990476Y-65357859D01*
X49990476Y-65357859D02*
X50028571Y-65434049D01*
X50028571Y-65434049D02*
X50104761Y-65510240D01*
X50104761Y-65510240D02*
X50219047Y-65548335D01*
X50219047Y-65548335D02*
X50295238Y-65548335D01*
X50295238Y-65548335D02*
X50409523Y-65510240D01*
X50409523Y-65510240D02*
X50447619Y-65472144D01*
X50447619Y-65472144D02*
X50447619Y-65205478D01*
X50447619Y-65205478D02*
X50295238Y-65205478D01*
D11*
X36520848Y-21253294D02*
X36520848Y-21896151D01*
X36520848Y-21896151D02*
X36477991Y-22024722D01*
X36477991Y-22024722D02*
X36392277Y-22110437D01*
X36392277Y-22110437D02*
X36263705Y-22153294D01*
X36263705Y-22153294D02*
X36177991Y-22153294D01*
X36906562Y-21339008D02*
X36949419Y-21296151D01*
X36949419Y-21296151D02*
X37035134Y-21253294D01*
X37035134Y-21253294D02*
X37249419Y-21253294D01*
X37249419Y-21253294D02*
X37335134Y-21296151D01*
X37335134Y-21296151D02*
X37377991Y-21339008D01*
X37377991Y-21339008D02*
X37420848Y-21424722D01*
X37420848Y-21424722D02*
X37420848Y-21510437D01*
X37420848Y-21510437D02*
X37377991Y-21639008D01*
X37377991Y-21639008D02*
X36863705Y-22153294D01*
X36863705Y-22153294D02*
X37420848Y-22153294D01*
D13*
X32037619Y-25064895D02*
X31656667Y-25064895D01*
X31656667Y-25064895D02*
X31618571Y-25445847D01*
X31618571Y-25445847D02*
X31656667Y-25407752D01*
X31656667Y-25407752D02*
X31732857Y-25369657D01*
X31732857Y-25369657D02*
X31923333Y-25369657D01*
X31923333Y-25369657D02*
X31999524Y-25407752D01*
X31999524Y-25407752D02*
X32037619Y-25445847D01*
X32037619Y-25445847D02*
X32075714Y-25522038D01*
X32075714Y-25522038D02*
X32075714Y-25712514D01*
X32075714Y-25712514D02*
X32037619Y-25788704D01*
X32037619Y-25788704D02*
X31999524Y-25826800D01*
X31999524Y-25826800D02*
X31923333Y-25864895D01*
X31923333Y-25864895D02*
X31732857Y-25864895D01*
X31732857Y-25864895D02*
X31656667Y-25826800D01*
X31656667Y-25826800D02*
X31618571Y-25788704D01*
X32304286Y-25064895D02*
X32570953Y-25864895D01*
X32570953Y-25864895D02*
X32837619Y-25064895D01*
X34939523Y-25102990D02*
X34863333Y-25064895D01*
X34863333Y-25064895D02*
X34749047Y-25064895D01*
X34749047Y-25064895D02*
X34634761Y-25102990D01*
X34634761Y-25102990D02*
X34558571Y-25179180D01*
X34558571Y-25179180D02*
X34520476Y-25255371D01*
X34520476Y-25255371D02*
X34482380Y-25407752D01*
X34482380Y-25407752D02*
X34482380Y-25522038D01*
X34482380Y-25522038D02*
X34520476Y-25674419D01*
X34520476Y-25674419D02*
X34558571Y-25750609D01*
X34558571Y-25750609D02*
X34634761Y-25826800D01*
X34634761Y-25826800D02*
X34749047Y-25864895D01*
X34749047Y-25864895D02*
X34825238Y-25864895D01*
X34825238Y-25864895D02*
X34939523Y-25826800D01*
X34939523Y-25826800D02*
X34977619Y-25788704D01*
X34977619Y-25788704D02*
X34977619Y-25522038D01*
X34977619Y-25522038D02*
X34825238Y-25522038D01*
X36870000Y-25864895D02*
X36870000Y-25064895D01*
X36870000Y-25064895D02*
X37060476Y-25064895D01*
X37060476Y-25064895D02*
X37174762Y-25102990D01*
X37174762Y-25102990D02*
X37250952Y-25179180D01*
X37250952Y-25179180D02*
X37289047Y-25255371D01*
X37289047Y-25255371D02*
X37327143Y-25407752D01*
X37327143Y-25407752D02*
X37327143Y-25522038D01*
X37327143Y-25522038D02*
X37289047Y-25674419D01*
X37289047Y-25674419D02*
X37250952Y-25750609D01*
X37250952Y-25750609D02*
X37174762Y-25826800D01*
X37174762Y-25826800D02*
X37060476Y-25864895D01*
X37060476Y-25864895D02*
X36870000Y-25864895D01*
X37670000Y-25864895D02*
X37670000Y-25064895D01*
X39181429Y-25864895D02*
X39181429Y-25064895D01*
X39181429Y-25064895D02*
X39371905Y-25064895D01*
X39371905Y-25064895D02*
X39486191Y-25102990D01*
X39486191Y-25102990D02*
X39562381Y-25179180D01*
X39562381Y-25179180D02*
X39600476Y-25255371D01*
X39600476Y-25255371D02*
X39638572Y-25407752D01*
X39638572Y-25407752D02*
X39638572Y-25522038D01*
X39638572Y-25522038D02*
X39600476Y-25674419D01*
X39600476Y-25674419D02*
X39562381Y-25750609D01*
X39562381Y-25750609D02*
X39486191Y-25826800D01*
X39486191Y-25826800D02*
X39371905Y-25864895D01*
X39371905Y-25864895D02*
X39181429Y-25864895D01*
X40133810Y-25064895D02*
X40286191Y-25064895D01*
X40286191Y-25064895D02*
X40362381Y-25102990D01*
X40362381Y-25102990D02*
X40438572Y-25179180D01*
X40438572Y-25179180D02*
X40476667Y-25331561D01*
X40476667Y-25331561D02*
X40476667Y-25598228D01*
X40476667Y-25598228D02*
X40438572Y-25750609D01*
X40438572Y-25750609D02*
X40362381Y-25826800D01*
X40362381Y-25826800D02*
X40286191Y-25864895D01*
X40286191Y-25864895D02*
X40133810Y-25864895D01*
X40133810Y-25864895D02*
X40057619Y-25826800D01*
X40057619Y-25826800D02*
X39981429Y-25750609D01*
X39981429Y-25750609D02*
X39943333Y-25598228D01*
X39943333Y-25598228D02*
X39943333Y-25331561D01*
X39943333Y-25331561D02*
X39981429Y-25179180D01*
X39981429Y-25179180D02*
X40057619Y-25102990D01*
X40057619Y-25102990D02*
X40133810Y-25064895D01*
D11*
X35700000Y-48508557D02*
X35700000Y-49151414D01*
X35700000Y-49151414D02*
X35657143Y-49279985D01*
X35657143Y-49279985D02*
X35571429Y-49365700D01*
X35571429Y-49365700D02*
X35442857Y-49408557D01*
X35442857Y-49408557D02*
X35357143Y-49408557D01*
X36514286Y-48808557D02*
X36514286Y-49408557D01*
X36300000Y-48465700D02*
X36085714Y-49108557D01*
X36085714Y-49108557D02*
X36642857Y-49108557D01*
D12*
X16247619Y-47193335D02*
X15866667Y-47193335D01*
X15866667Y-47193335D02*
X15828571Y-47574287D01*
X15828571Y-47574287D02*
X15866667Y-47536192D01*
X15866667Y-47536192D02*
X15942857Y-47498097D01*
X15942857Y-47498097D02*
X16133333Y-47498097D01*
X16133333Y-47498097D02*
X16209524Y-47536192D01*
X16209524Y-47536192D02*
X16247619Y-47574287D01*
X16247619Y-47574287D02*
X16285714Y-47650478D01*
X16285714Y-47650478D02*
X16285714Y-47840954D01*
X16285714Y-47840954D02*
X16247619Y-47917144D01*
X16247619Y-47917144D02*
X16209524Y-47955240D01*
X16209524Y-47955240D02*
X16133333Y-47993335D01*
X16133333Y-47993335D02*
X15942857Y-47993335D01*
X15942857Y-47993335D02*
X15866667Y-47955240D01*
X15866667Y-47955240D02*
X15828571Y-47917144D01*
X16514286Y-47193335D02*
X16780953Y-47993335D01*
X16780953Y-47993335D02*
X17047619Y-47193335D01*
X23970000Y-16763335D02*
X23970000Y-15963335D01*
X23970000Y-15963335D02*
X24160476Y-15963335D01*
X24160476Y-15963335D02*
X24274762Y-16001430D01*
X24274762Y-16001430D02*
X24350952Y-16077620D01*
X24350952Y-16077620D02*
X24389047Y-16153811D01*
X24389047Y-16153811D02*
X24427143Y-16306192D01*
X24427143Y-16306192D02*
X24427143Y-16420478D01*
X24427143Y-16420478D02*
X24389047Y-16572859D01*
X24389047Y-16572859D02*
X24350952Y-16649049D01*
X24350952Y-16649049D02*
X24274762Y-16725240D01*
X24274762Y-16725240D02*
X24160476Y-16763335D01*
X24160476Y-16763335D02*
X23970000Y-16763335D01*
X24770000Y-16763335D02*
X24770000Y-15963335D01*
X39481429Y-13663335D02*
X39481429Y-12863335D01*
X39481429Y-12863335D02*
X39671905Y-12863335D01*
X39671905Y-12863335D02*
X39786191Y-12901430D01*
X39786191Y-12901430D02*
X39862381Y-12977620D01*
X39862381Y-12977620D02*
X39900476Y-13053811D01*
X39900476Y-13053811D02*
X39938572Y-13206192D01*
X39938572Y-13206192D02*
X39938572Y-13320478D01*
X39938572Y-13320478D02*
X39900476Y-13472859D01*
X39900476Y-13472859D02*
X39862381Y-13549049D01*
X39862381Y-13549049D02*
X39786191Y-13625240D01*
X39786191Y-13625240D02*
X39671905Y-13663335D01*
X39671905Y-13663335D02*
X39481429Y-13663335D01*
X40433810Y-12863335D02*
X40586191Y-12863335D01*
X40586191Y-12863335D02*
X40662381Y-12901430D01*
X40662381Y-12901430D02*
X40738572Y-12977620D01*
X40738572Y-12977620D02*
X40776667Y-13130001D01*
X40776667Y-13130001D02*
X40776667Y-13396668D01*
X40776667Y-13396668D02*
X40738572Y-13549049D01*
X40738572Y-13549049D02*
X40662381Y-13625240D01*
X40662381Y-13625240D02*
X40586191Y-13663335D01*
X40586191Y-13663335D02*
X40433810Y-13663335D01*
X40433810Y-13663335D02*
X40357619Y-13625240D01*
X40357619Y-13625240D02*
X40281429Y-13549049D01*
X40281429Y-13549049D02*
X40243333Y-13396668D01*
X40243333Y-13396668D02*
X40243333Y-13130001D01*
X40243333Y-13130001D02*
X40281429Y-12977620D01*
X40281429Y-12977620D02*
X40357619Y-12901430D01*
X40357619Y-12901430D02*
X40433810Y-12863335D01*
X49909523Y-53131430D02*
X49833333Y-53093335D01*
X49833333Y-53093335D02*
X49719047Y-53093335D01*
X49719047Y-53093335D02*
X49604761Y-53131430D01*
X49604761Y-53131430D02*
X49528571Y-53207620D01*
X49528571Y-53207620D02*
X49490476Y-53283811D01*
X49490476Y-53283811D02*
X49452380Y-53436192D01*
X49452380Y-53436192D02*
X49452380Y-53550478D01*
X49452380Y-53550478D02*
X49490476Y-53702859D01*
X49490476Y-53702859D02*
X49528571Y-53779049D01*
X49528571Y-53779049D02*
X49604761Y-53855240D01*
X49604761Y-53855240D02*
X49719047Y-53893335D01*
X49719047Y-53893335D02*
X49795238Y-53893335D01*
X49795238Y-53893335D02*
X49909523Y-53855240D01*
X49909523Y-53855240D02*
X49947619Y-53817144D01*
X49947619Y-53817144D02*
X49947619Y-53550478D01*
X49947619Y-53550478D02*
X49795238Y-53550478D01*
D11*
X34439642Y-26544628D02*
X34739642Y-26544628D01*
X34868214Y-27016057D02*
X34439642Y-27016057D01*
X34439642Y-27016057D02*
X34439642Y-26116057D01*
X34439642Y-26116057D02*
X34868214Y-26116057D01*
X35253928Y-27016057D02*
X35253928Y-26116057D01*
X35253928Y-26116057D02*
X35768214Y-27016057D01*
X35768214Y-27016057D02*
X35768214Y-26116057D01*
X36711071Y-26930342D02*
X36668214Y-26973200D01*
X36668214Y-26973200D02*
X36539642Y-27016057D01*
X36539642Y-27016057D02*
X36453928Y-27016057D01*
X36453928Y-27016057D02*
X36325357Y-26973200D01*
X36325357Y-26973200D02*
X36239642Y-26887485D01*
X36239642Y-26887485D02*
X36196785Y-26801771D01*
X36196785Y-26801771D02*
X36153928Y-26630342D01*
X36153928Y-26630342D02*
X36153928Y-26501771D01*
X36153928Y-26501771D02*
X36196785Y-26330342D01*
X36196785Y-26330342D02*
X36239642Y-26244628D01*
X36239642Y-26244628D02*
X36325357Y-26158914D01*
X36325357Y-26158914D02*
X36453928Y-26116057D01*
X36453928Y-26116057D02*
X36539642Y-26116057D01*
X36539642Y-26116057D02*
X36668214Y-26158914D01*
X36668214Y-26158914D02*
X36711071Y-26201771D01*
X37568214Y-27016057D02*
X37053928Y-27016057D01*
X37311071Y-27016057D02*
X37311071Y-26116057D01*
X37311071Y-26116057D02*
X37225357Y-26244628D01*
X37225357Y-26244628D02*
X37139642Y-26330342D01*
X37139642Y-26330342D02*
X37053928Y-26373200D01*
%TO.C,ENC1*%
D14*
X30082500Y-29767500D02*
X30082500Y-33597500D01*
X30082500Y-29767500D02*
X30082500Y-33597500D01*
X30082500Y-29767500D02*
X32912500Y-29767500D01*
X30082500Y-37937500D02*
X30082500Y-41767500D01*
X30082500Y-37937500D02*
X30082500Y-41767500D01*
X31192500Y-37797500D02*
X32172500Y-37797500D01*
X31932500Y-33737500D02*
X31192500Y-33737500D01*
X33192500Y-34747500D02*
X38772500Y-34747500D01*
X33972500Y-29767500D02*
X37992500Y-29767500D01*
X39052500Y-29767500D02*
X41882500Y-29767500D01*
X40772500Y-33737500D02*
X39952500Y-33737500D01*
X40772500Y-37797500D02*
X39952500Y-37797500D01*
X41882500Y-33597500D02*
X41882500Y-29767500D01*
X41882500Y-41767500D02*
X30082500Y-41767500D01*
X41882500Y-41767500D02*
X41882500Y-37937500D01*
X37766575Y-34754789D02*
G75*
G02*
X34202500Y-34747500I-1784075J-992711D01*
G01*
X39032500Y-35767500D02*
G75*
G02*
X32932500Y-35767500I-3050000J0D01*
G01*
X32932500Y-35767500D02*
G75*
G02*
X39032500Y-35767500I3050000J0D01*
G01*
X39332500Y-35767500D02*
G75*
G02*
X32632500Y-35767500I-3350000J0D01*
G01*
X32632500Y-35767500D02*
G75*
G02*
X39332500Y-35767500I3350000J0D01*
G01*
X40312500Y-35767500D02*
G75*
G02*
X31652500Y-35767500I-4330000J0D01*
G01*
X31652500Y-35767500D02*
G75*
G02*
X40312500Y-35767500I4330000J0D01*
G01*
D15*
X42662500Y-27867500D02*
G75*
G02*
X42602500Y-27867500I-30000J0D01*
G01*
X42602500Y-27867500D02*
G75*
G02*
X42662500Y-27867500I30000J0D01*
G01*
%TD*%
M02*
