%TF.GenerationSoftware,KiCad,Pcbnew,10.0.4*%
%TF.CreationDate,2026-09-26T13:56:40-03:00*%
%TF.ProjectId,segno_pedal_ring,7365676e-6f5f-4706-9564-616c5f72696e,rev?*%
%TF.SameCoordinates,Original*%
%TF.FileFunction,Soldermask,Top*%
%TF.FilePolarity,Negative*%
%FSLAX46Y46*%
G04 Gerber Fmt 4.6, Leading zero omitted, Abs format (unit mm)*
G04 Created by KiCad (PCBNEW 10.0.4) date 2026-09-26 13:56:40*
%MOMM*%
%LPD*%
G01*
G04 APERTURE LIST*
G04 Aperture macros list*
%AMRoundRect*
0 Rectangle with rounded corners*
0 $1 Rounding radius*
0 $2 $3 $4 $5 $6 $7 $8 $9 X,Y pos of 4 corners*
0 Add a 4 corners polygon primitive as box body*
4,1,4,$2,$3,$4,$5,$6,$7,$8,$9,$2,$3,0*
0 Add four circle primitives for the rounded corners*
1,1,$1+$1,$2,$3*
1,1,$1+$1,$4,$5*
1,1,$1+$1,$6,$7*
1,1,$1+$1,$8,$9*
0 Add four rect primitives between the rounded corners*
20,1,$1+$1,$2,$3,$4,$5,0*
20,1,$1+$1,$4,$5,$6,$7,0*
20,1,$1+$1,$6,$7,$8,$9,0*
20,1,$1+$1,$8,$9,$2,$3,0*%
G04 Aperture macros list end*
%ADD10C,1.900000*%
%ADD11R,1.800000X1.800000*%
%ADD12O,2.300000X4.000000*%
%ADD13C,1.800000*%
%ADD14C,1.600000*%
%ADD15RoundRect,0.250000X-0.550000X-0.550000X0.550000X-0.550000X0.550000X0.550000X-0.550000X0.550000X0*%
%ADD16RoundRect,0.250000X-0.600000X-0.725000X0.600000X-0.725000X0.600000X0.725000X-0.600000X0.725000X0*%
%ADD17O,1.700000X1.950000*%
%ADD18RoundRect,0.249999X0.850001X0.850001X-0.850001X0.850001X-0.850001X-0.850001X0.850001X-0.850001X0*%
%ADD19C,2.200000*%
G04 APERTURE END LIST*
D10*
%TO.C,J3*%
X40140000Y-4682000D03*
X31860000Y-67318000D03*
X48090000Y-65185000D03*
X23935000Y-6790000D03*
%TD*%
D11*
%TO.C,J2*%
X32190000Y-24000000D03*
X34730000Y-24000000D03*
X37270000Y-24000000D03*
X39810000Y-24000000D03*
%TD*%
D10*
%TO.C,J4*%
X24370000Y-18450000D03*
X18450000Y-47630000D03*
X47680000Y-53530000D03*
X40110000Y-15350000D03*
%TD*%
D12*
%TO.C,ENC1*%
X41482500Y-35767500D03*
X30482500Y-35767500D03*
D13*
X33442500Y-43267500D03*
X38522500Y-43267500D03*
X35982500Y-43267500D03*
X33442500Y-28767500D03*
X38522500Y-28767500D03*
%TD*%
D14*
%TO.C,C2*%
X58000000Y-53500000D03*
X63000000Y-53500000D03*
%TD*%
%TO.C,R2*%
X32000000Y-48000000D03*
X21840000Y-48000000D03*
%TD*%
D15*
%TO.C,U2*%
X28000000Y-20000000D03*
D14*
X28000000Y-17460000D03*
X28000000Y-14920000D03*
X28000000Y-12380000D03*
X28000000Y-9840000D03*
X28000000Y-7300000D03*
X28000000Y-4760000D03*
X35620000Y-4760000D03*
X35620000Y-7300000D03*
X35620000Y-9840000D03*
X35620000Y-12380000D03*
X35620000Y-14920000D03*
X35620000Y-17460000D03*
X35620000Y-20000000D03*
%TD*%
%TO.C,C3*%
X63000000Y-49000000D03*
X68000000Y-49000000D03*
%TD*%
%TO.C,R4*%
X32000000Y-56000000D03*
X21840000Y-56000000D03*
%TD*%
D15*
%TO.C,C1*%
X36000000Y-62000000D03*
D14*
X39500000Y-62000000D03*
%TD*%
D16*
%TO.C,J1*%
X52000000Y-20000000D03*
D17*
X54500000Y-20000000D03*
X57000000Y-20000000D03*
X59500000Y-20000000D03*
%TD*%
D18*
%TO.C,D1*%
X63000000Y-12000000D03*
D19*
X52840000Y-12000000D03*
%TD*%
D14*
%TO.C,R3*%
X32000000Y-52000000D03*
X21840000Y-52000000D03*
%TD*%
%TO.C,R5*%
X25160000Y-23000000D03*
X15000000Y-23000000D03*
%TD*%
%TO.C,R1*%
X39000000Y-8000000D03*
X49160000Y-8000000D03*
%TD*%
%TO.C,C5*%
X39000000Y-18500000D03*
X44000000Y-18500000D03*
%TD*%
%TO.C,C4*%
X54000000Y-49000000D03*
X59000000Y-49000000D03*
%TD*%
M02*
